<svg xmlns="http://www.w3.org/2000/svg" xmlns:xlink="http://www.w3.org/1999/xlink" width="438" height="298" viewBox="0 0 438 298">
  <defs>
    <clipPath id="clip-path">
      <rect id="Rectángulo_32275" data-name="Rectángulo 32275" width="298" height="438" transform="translate(0.333)" fill="#fff" stroke="#707070" stroke-width="1" opacity="0.325"/>
    </clipPath>
    <clipPath id="clip-path-2">
      <path id="Trazado_203768" data-name="Trazado 203768" d="M449.388,377.064l-.416,209.226,73.662-.005.705-208.613Z" transform="translate(-448.972 -377.064)" fill="none"/>
    </clipPath>
    <clipPath id="clip-path-3">
      <path id="Trazado_203834" data-name="Trazado 203834" d="M1705.073,732.418c1.394-2.358,2.111-5.527,2.923-8.846a109.3,109.3,0,0,0,15.572,1.072c1.679.008,2.564-12.111-10.979-13.989-5.466-.758-12.282,1.092-15.169,6.461-3.11,5.784-2.329,12.33.437,15.256C1699.62,734.238,1703.179,734.636,1705.073,732.418Z" transform="translate(-1695.412 -710.492)" fill="#e82728"/>
    </clipPath>
  </defs>
  <g id="Grupo_170663" data-name="Grupo 170663" transform="translate(201 5865)">
    <g id="Grupo_168058" data-name="Grupo 168058" transform="translate(-1179.182 -11505)">
      <g id="Grupo_59889" data-name="Grupo 59889" transform="translate(1416.182 5639.667) rotate(90)">
        <g id="Grupo_67" data-name="Grupo 67" clip-path="url(#clip-path)">
          <path id="Trazado_108698" data-name="Trazado 108698" d="M0,63.365a334.489,334.489,0,0,0,69.788,113.2C163.669,276.943,314.071,313.8,453.707,302.882c72.008-5.631,143.938-22.473,215.71-14.5s146.642,49.374,162.772,117.356c8.159,34.387.325,70.873,8.285,105.3s43.926,68.313,77.561,54.514c27.342-11.219,38.437-48.324,67.6-53.793,26.087-4.891,49.182,21.019,51.808,46.546s-8.428,50.226-16.6,74.639C999.541,696.62,997.441,767.318,1022,829.891s77.267,115.8,143.379,135.9c22.241,6.764,46.379,9.776,68.881,3.872,42.434-11.132,70.458-52.055,79.254-93.646s2.27-84.555-2.045-126.8a1202.7,1202.7,0,0,1,15.5-349.323c11.916-61.833,28.6-126.338,9.335-186.419-25.592-79.834-107.793-129.689-188.933-158.825C975.6-7.031,786.814-6.914,604.263,8.816S239.855,55.1,0,63.365Z" transform="translate(-998.968 -575.738)" fill="#81d4fa" opacity="0.418"/>
        </g>
      </g>
      <g id="Grupo_168099" data-name="Grupo 168099" transform="translate(711.203 5357.376)">
        <path id="Trazado_203731" data-name="Trazado 203731" d="M359.68,319.559c-.1-14,26.453-16.052,26.141-8.688l47.674.166c5.517.078,9.97,5.071,9.952,11.149l-.628,203.022c-.019,5.948-4.451,10.769-9.9,10.771l-50.5.253a6.108,6.108,0,0,1-2.836,2.635c-14.131-.113-20.554-5.679-20.609-12.844C358.443,524.7,359.111,322.191,359.68,319.559Z" transform="translate(0)" fill="#027273"/>
        <path id="Trazado_203732" data-name="Trazado 203732" d="M385.131,586.611h0a2.087,2.087,0,0,0,2.146-2.056l.453-53.007a2.185,2.185,0,0,0-2.127-2.185h0a2.109,2.109,0,0,0-2.162,2.087l-.422,53.009A2.161,2.161,0,0,0,385.131,586.611Z" transform="translate(-20.003 -183.743)" fill="#013f40"/>
        <g id="Grupo_168066" data-name="Grupo 168066" transform="translate(370.133 306.72)">
          <path id="Trazado_203733" data-name="Trazado 203733" d="M434.02,539.035l62.135-.07c5.646.01,10.239-4.937,10.261-11.053l.755-208.807c.023-6.254-4.589-11.379-10.3-11.445l-62.316-.81c-5.76-.066-10.441,4.977-10.452,11.26L423.732,527.9C423.721,534.039,428.328,539.025,434.02,539.035Z" transform="translate(-423.732 -306.849)" fill="#03c0c2"/>
          <path id="Trazado_203734" data-name="Trazado 203734" d="M438.893,544.331a8.5,8.5,0,0,0,1.144.079l62.12-.169c4.852,0,8.841-4.336,8.86-9.675l.738-208.578c.019-5.459-3.985-9.952-8.895-10.014l-62.3-.91c-.143,0-.288,0-.43.005a8.536,8.536,0,0,0-6.05,2.9,10.187,10.187,0,0,0-2.539,6.819l-.383,210C431.15,539.62,434.463,543.721,438.893,544.331Z" transform="translate(-429.861 -313.627)" fill="#0d0d0d"/>
          <path id="Trazado_203735" data-name="Trazado 203735" d="M449.758,377.064l-.416,209.226L523,586.285l.705-208.613Z" transform="translate(-444.865 -364.79)" fill="#fff"/>
          <g id="Grupo_168065" data-name="Grupo 168065" transform="translate(4.412 12.274)">
            <g id="Grupo_168064" data-name="Grupo 168064" clip-path="url(#clip-path-2)">
              <g id="Grupo_168063" data-name="Grupo 168063" transform="translate(-67.465 19.929)">
                <g id="Grupo_168062" data-name="Grupo 168062" transform="translate(0)">
                  <rect id="Rectángulo_47588" data-name="Rectángulo 47588" width="89.854" height="196.363" transform="translate(54.67)" fill="#e6e6e6"/>
                  <path id="Trazado_203736" data-name="Trazado 203736" d="M264.5,1242.239l-145.737-44.208,5.772-4.8,136.931,35.608Z" transform="translate(-109.023 -1070.484)" fill="#81d4fa"/>
                  <rect id="Rectángulo_47589" data-name="Rectángulo 47589" width="3.125" height="172.647" transform="translate(7.508 130.797) rotate(-73.844)" fill="#fff"/>
                  <g id="Grupo_168059" data-name="Grupo 168059" transform="translate(55.728 53.542)">
                    <path id="Trazado_203737" data-name="Trazado 203737" d="M413.911,935.315a38.975,38.975,0,0,0-7.844,0c-12.095,1.211-22.48,8.168-24.036,17.3-1.711,10.046,7.692,19.158,21.918,20.9a38.723,38.723,0,0,0,4.724.29,39.467,39.467,0,0,0,4.752-.29c14.344-1.743,24.369-10.855,23.342-20.9C435.834,943.483,425.923,936.526,413.911,935.315Zm-.4,31.448a27.421,27.421,0,0,1-4.611.387,26.856,26.856,0,0,1-4.576-.387c-9.077-1.551-15.147-7.48-14.277-14.148.815-6.253,7.54-11.193,15.749-12.4a27.377,27.377,0,0,1,4.033-.3,27.067,27.067,0,0,1,4.02.3c8.127,1.213,14.514,6.148,14.9,12.4C429.167,959.284,422.693,965.206,413.511,966.763Z" transform="translate(-381.831 -911.034)" fill="#ffd84f"/>
                    <path id="Trazado_203738" data-name="Trazado 203738" d="M527.343,797.35l-.371,29.181a27.067,27.067,0,0,0-4.02-.3,27.379,27.379,0,0,0-4.033.3l1.618-29.181Z" transform="translate(-494.954 -797.35)" fill="#ffd84f"/>
                    <path id="Trazado_203739" data-name="Trazado 203739" d="M716.326,1024.287h-56.84a9.646,9.646,0,0,0,.264-3.055,9.837,9.837,0,0,0-.691-2.959h55.163Z" transform="translate(-610.596 -979.653)" fill="#ffd84f"/>
                    <path id="Trazado_203740" data-name="Trazado 203740" d="M496.135,1143.987a24.844,24.844,0,0,0,4.716-.448L500,1218.828H487.747l3.712-75.289A24.276,24.276,0,0,0,496.135,1143.987Z" transform="translate(-469.232 -1083.021)" fill="#ffd84f"/>
                  </g>
                  <g id="Grupo_168060" data-name="Grupo 168060" transform="translate(32.292 65.837)">
                    <path id="Trazado_203741" data-name="Trazado 203741" d="M285.859,874.631H271.744l2.089-6.948h14.782Z" transform="translate(-267.552 -867.683)" fill="#fff"/>
                    <path id="Trazado_203742" data-name="Trazado 203742" d="M384.862,874.631H370.748l2.907-6.948h14.782Z" transform="translate(-349.248 -867.683)" fill="#fff"/>
                    <path id="Trazado_203743" data-name="Trazado 203743" d="M473.954,867.683h-3.7l-3.7,6.948h6.9Z" transform="translate(-428.311 -867.683)" fill="#fff"/>
                    <path id="Trazado_203744" data-name="Trazado 203744" d="M272.813,923.466H259.459l1.875-6.2h13.949Z" transform="translate(-257.415 -908.595)" fill="#fff"/>
                    <path id="Trazado_203745" data-name="Trazado 203745" d="M366.541,923.235l.075-.034,3.065-5.939H355.732l-2.606,6.2h12.947C366.229,923.389,366.382,923.31,366.541,923.235Z" transform="translate(-334.707 -908.595)" fill="#fff"/>
                    <path id="Trazado_203746" data-name="Trazado 203746" d="M452.594,921.126a26.894,26.894,0,0,1,4.318-.292l.2-2.784h-7.756l-2.447,4.6A32.839,32.839,0,0,1,452.594,921.126Z" transform="translate(-412.095 -909.245)" fill="#fff"/>
                    <path id="Trazado_203747" data-name="Trazado 203747" d="M260.468,965h-12.7l1.693-5.6H262.7Z" transform="translate(-247.763 -943.363)" fill="#fff"/>
                    <path id="Trazado_203748" data-name="Trazado 203748" d="M350.533,959.4h-11.3l-2.353,5.6h7.594A18.385,18.385,0,0,1,350.533,959.4Z" transform="translate(-321.297 -943.363)" fill="#fff"/>
                  </g>
                  <path id="Trazado_203749" data-name="Trazado 203749" d="M480.407,985.615c.282,6.316-6.976,11.736-16.228,11.736s-16.141-5.419-15.429-11.736c.671-5.942,7.9-10.508,16.187-10.508S480.141,979.672,480.407,985.615Z" transform="translate(-381.281 -890.491)" fill="#afafaf"/>
                  <path id="Trazado_203750" data-name="Trazado 203750" d="M529.316,980.024s13.727,1.611,12,8.669c-1.861,7.594-9.482,7.594-8.311,2.7,1.117-4.669-2.952-5.685-5.1-7.82C525.794,981.483,525.736,980.109,529.316,980.024Z" transform="translate(-445.437 -894.548)" fill="#81d4fa"/>
                  <path id="Trazado_203751" data-name="Trazado 203751" d="M580.612,856.055l.024,12.047s18.749,3.643,21.674,14.829h39.945l-10.224-26.66Z" transform="translate(-490.134 -792.251)" fill="#afafaf"/>
                  <g id="Grupo_168061" data-name="Grupo 168061" transform="translate(94.783 101.341)">
                    <path id="Trazado_203752" data-name="Trazado 203752" d="M735.3,1081.366H717.749l-2.257-10.586h15.9Z" transform="translate(-696.219 -1070.78)" fill="#fff"/>
                    <path id="Trazado_203753" data-name="Trazado 203753" d="M850.382,1081.366H832.829l-4.307-10.586h15.9Z" transform="translate(-789.49 -1070.78)" fill="#fff"/>
                    <path id="Trazado_203754" data-name="Trazado 203754" d="M754.673,1160.255h-20.1l-2.92-13.7h17.968Z" transform="translate(-709.553 -1133.312)" fill="#fff"/>
                    <path id="Trazado_203755" data-name="Trazado 203755" d="M885.026,1160.255h-20.1l-5.572-13.7H877.32Z" transform="translate(-814.93 -1133.312)" fill="#fff"/>
                    <path id="Trazado_203756" data-name="Trazado 203756" d="M779.571,1265.336l-5.936-18.9H752.947l1.891,12.839Z" transform="translate(-727.127 -1215.728)" fill="#fff"/>
                    <path id="Trazado_203757" data-name="Trazado 203757" d="M614.746,1146.559a27.09,27.09,0,0,1-9.5,6.2l.266,7.494H625.5l-2.415-13.7Z" transform="translate(-605.244 -1133.312)" fill="#fff"/>
                    <path id="Trazado_203758" data-name="Trazado 203758" d="M912.411,1257.561q8.309,2,16.808,4.06l-8.546-15.188H899.984l3.672,9.025Z" transform="translate(-848.46 -1215.728)" fill="#fff"/>
                  </g>
                  <path id="Trazado_203759" data-name="Trazado 203759" d="M227.778,1028.93c2.44.214,4.91.378,7.394.518.1-.788.2-1.571.27-2.346a47.939,47.939,0,0,0,.227-5.86c-.007-.224-.022-.446-.033-.668H227.2l-2.533,8.056C225.7,1028.736,226.736,1028.839,227.778,1028.93Z" transform="translate(-196.415 -928.01)" fill="#fff"/>
                  <path id="Trazado_203760" data-name="Trazado 203760" d="M210.962,1082.723c-.609-.06-1.215-.124-1.822-.187l-2.232,7.1,11.649,2.741c.572-3.093,1.128-6.1,1.574-9.022C217.051,1083.189,213.976,1083.018,210.962,1082.723Z" transform="translate(-181.758 -979.14)" fill="#fff"/>
                  <path id="Trazado_203761" data-name="Trazado 203761" d="M306.5,1029.646c3.484.166,6.982.3,10.468.467a16.467,16.467,0,0,1,.3-9.539H306.9c.006.154.012.309.018.463A59.413,59.413,0,0,1,306.5,1029.646Z" transform="translate(-263.937 -928.01)" fill="#fff"/>
                  <path id="Trazado_203762" data-name="Trazado 203762" d="M309.134,1088.934q-5.926-.287-11.826-.591c-.431,3.145-.981,6.392-1.528,9.739l20.923,4.923a9.612,9.612,0,0,0,.569-4.485A24.149,24.149,0,0,1,309.134,1088.934Z" transform="translate(-255.095 -983.932)" fill="#fff"/>
                  <path id="Trazado_203763" data-name="Trazado 203763" d="M75.811,1264.7c1.075.022,58.65,17.3,58.65,17.3l-1.629,22.469H63.042Z" transform="translate(-63.042 -1129.459)" fill="#03e484"/>
                  <rect id="Rectángulo_47590" data-name="Rectángulo 47590" width="89.128" height="64.294" transform="translate(55.228 0.358)" fill="#94f3f7"/>
                </g>
                <path id="Trazado_203764" data-name="Trazado 203764" d="M610.755,1245.028l19.4.638,1.026,12.127-20.546-5.877Z" transform="translate(-514.908 -1113.226)" fill="#fff"/>
                <path id="Trazado_203765" data-name="Trazado 203765" d="M277.973,1158.778l21.063,5.025-2.553,9.574-21.063-6.383Z" transform="translate(-238.294 -1042.054)" fill="#fff"/>
                <path id="Trazado_203766" data-name="Trazado 203766" d="M221.576,1142.948l-3.191,8.617-6.862-2.394,2.873-8.124Z" transform="translate(-185.566 -1027.422)" fill="#fff"/>
                <path id="Trazado_203767" data-name="Trazado 203767" d="M421.761,1158.778l-3.032,15.4,11.808,2.872,1.6-15.318Z" transform="translate(-356.551 -1042.054)" fill="#fff"/>
              </g>
            </g>
          </g>
        </g>
        <g id="Grupo_168068" data-name="Grupo 168068" transform="translate(374.961 318.995)">
          <g id="Grupo_168067" data-name="Grupo 168067" transform="translate(0.036 0)">
            <path id="Trazado_203769" data-name="Trazado 203769" d="M582.139,410.826l-8.316-.068L547.1,377.847l8.353.069Z" transform="translate(-530.394 -377.71)" fill="#7e5ee3"/>
            <path id="Trazado_203770" data-name="Trazado 203770" d="M534.391,410.435l-8.31-.068L499.31,377.455l8.353.069Z" transform="translate(-490.962 -377.386)" fill="#f1e3e0"/>
            <path id="Trazado_203771" data-name="Trazado 203771" d="M486.676,410.043l-8.316-.068-26.8-32.912,8.348.068Z" transform="translate(-451.557 -377.063)" fill="#7e5ee3"/>
            <path id="Trazado_203772" data-name="Trazado 203772" d="M629.881,411.218l-8.31-.068-26.69-32.911,8.347.068Z" transform="translate(-569.826 -378.034)" fill="#f1e3e0"/>
            <path id="Trazado_203773" data-name="Trazado 203773" d="M725.339,412l-8.31-.068-26.616-32.909,8.347.068Z" transform="translate(-648.659 -378.68)" fill="#f1e3e0"/>
            <path id="Trazado_203774" data-name="Trazado 203774" d="M867.692,413.167l-7.5-.061L833.69,380.2l7.525.062Z" transform="translate(-766.889 -379.65)" fill="#7e5ee3"/>
            <path id="Trazado_203775" data-name="Trazado 203775" d="M820.795,412.783l-8.31-.068-26.542-32.908,8.347.068Z" transform="translate(-727.489 -379.327)" fill="#f1e3e0"/>
            <path id="Trazado_203776" data-name="Trazado 203776" d="M677.6,411.609l-8.316-.068-26.653-32.91,8.353.069Z" transform="translate(-609.229 -378.357)" fill="#7e5ee3"/>
            <path id="Trazado_203777" data-name="Trazado 203777" d="M773.056,412.391l-8.316-.068-26.579-32.909,8.353.069Z" transform="translate(-688.06 -379.004)" fill="#7e5ee3"/>
          </g>
          <path id="Trazado_203778" data-name="Trazado 203778" d="M613.192,565.4l0,5.01c0,5.309-8.3,5.241-8.311-.068l-.009-5.01Z" transform="translate(-578.037 -532.424)" fill="#6745d3"/>
          <path id="Trazado_203779" data-name="Trazado 203779" d="M660.76,565.792l0,5.01c0,5.309-8.3,5.241-8.3-.068l0-5.01Z" transform="translate(-617.295 -532.744)" fill="#f1c5bc"/>
          <path id="Trazado_203780" data-name="Trazado 203780" d="M708.293,566.181l-.008,5.01c-.009,5.309-8.313,5.241-8.311-.068l0-5.01Z" transform="translate(-656.512 -533.065)" fill="#6745d3"/>
          <path id="Trazado_203781" data-name="Trazado 203781" d="M755.832,566.569l-.014,5.01c-.015,5.308-8.313,5.241-8.3-.068l.008-5.01Z" transform="translate(-695.741 -533.385)" fill="#f1c5bc"/>
          <path id="Trazado_203782" data-name="Trazado 203782" d="M803.349,566.958l-.019,5.01c-.021,5.308-8.325,5.241-8.31-.068l.014-5.01Z" transform="translate(-734.941 -533.706)" fill="#6745d3"/>
          <path id="Trazado_203783" data-name="Trazado 203783" d="M850.886,567.346l-.025,5.009c-.027,5.308-8.325,5.241-8.3-.068l.019-5.01Z" transform="translate(-774.169 -534.026)" fill="#f1c5bc"/>
          <path id="Trazado_203784" data-name="Trazado 203784" d="M898.4,567.735l-.031,5.009c-.033,5.308-8.337,5.241-8.31-.068l.025-5.009Z" transform="translate(-813.368 -534.347)" fill="#6745d3"/>
          <path id="Trazado_203785" data-name="Trazado 203785" d="M945.937,568.123l-.036,5.009c-.039,5.308-8.337,5.24-8.3-.068l.031-5.009Z" transform="translate(-852.595 -534.667)" fill="#f1c5bc"/>
          <path id="Trazado_203786" data-name="Trazado 203786" d="M992.632,568.505l-.041,5.009a3.753,3.753,0,1,1-7.492-.061l.036-5.009Z" transform="translate(-891.792 -534.988)" fill="#6745d3"/>
          <path id="Trazado_203787" data-name="Trazado 203787" d="M478.189,409.975l.651.09-27.489-.244.036-32.759Z" transform="translate(-451.351 -377.063)" fill="#7e5ee3"/>
        </g>
        <path id="Trazado_203788" data-name="Trazado 203788" d="M503.208,998.163c-3.884-3.87,2.239-13.16,11.271-21.918a108.221,108.221,0,0,1,11.891-9.953,1.289,1.289,0,0,0,.353-.253l.185-.133a.5.5,0,0,0-.021-.137.5.5,0,0,0,.018-.2l-2.469-12.933,19.173-.184a.852.852,0,0,0,.79-1.174l-3.469-8.523a.852.852,0,0,0-.79-.531H522.663a20.388,20.388,0,0,0-3.583-5.6,25.167,25.167,0,0,0-15.216-7.956c-1.751-.071-1.671,1.509-.273,1.683a23.386,23.386,0,0,1,14.157,7.341,17.8,17.8,0,0,1,3.513,5.64.853.853,0,0,0,.812.593h17.493l2.775,6.818H523.184c-1.219.033-1.58.86-1.55,1.916l1.325,11.846c-12.152,6.8-25.777,15.754-32,21.253-8.417,7.44-8.322,20.474,1.924,30.054,23.344,21.829,61.155,36.516,100.709,46.306,79.349,19.639,132.029,23.177,137.291,23.656,17.943,1.473,41.241-1.25,39.1-21.513s31.8-18.9,35.453-19.806C765.174,1042.845,536.959,1031.8,503.208,998.163Z" transform="translate(-104.078 -513.246)" fill="gray"/>
        <path id="Trazado_203789" data-name="Trazado 203789" d="M804.286,1313.951c-11.456-.278-33.708.678-36.247,15.9a24.162,24.162,0,0,0,.063,5.378,15.62,15.62,0,0,1-3.482,11.262c-8.335,8.693-21.857,8.512-33.087,8.109-33.78-2.6-67.317-8.064-100.492-14.875-36.909-7.831-74.412-16.066-108.152-33.524-12.1-6.45-24.094-13.861-33.531-23.914-6.719-7.6-7.555-20.014.453-27.034a17.786,17.786,0,0,0-6.1,16.22c2.047,13.6,17.853,22.391,28.35,29.557,23.956,14.564,50.852,23.548,77.865,30.536,46.489,11.554,93.71,20.716,141.5,24.626,12.923.613,32.288.323,37.512-14.1,1.471-3.917.422-8.005.767-12.014,2.077-13.607,24.576-14.946,34.578-15.049Z" transform="translate(-102.927 -782.742)" fill="#636363"/>
        <path id="Trazado_203790" data-name="Trazado 203790" d="M591.8,938.31" transform="translate(-192.286 -521.203)" fill="none" stroke="gray" stroke-miterlimit="10" stroke-width="10"/>
        <g id="Grupo_168069" data-name="Grupo 168069" transform="translate(388.572 459.346)">
          <path id="Trazado_203791" data-name="Trazado 203791" d="M716.964,1475.333a263.467,263.467,0,0,0,34.06,11.979c.678-1.032,1.862-2.985,2.215-3.444a270.084,270.084,0,0,1-33.1-10.29Q718.554,1474.46,716.964,1475.333Z" transform="translate(-684.142 -1422.245)" fill="#fff"/>
          <path id="Trazado_203792" data-name="Trazado 203792" d="M533.156,1330.388a16.143,16.143,0,0,0-1.675.511,18.682,18.682,0,0,0,3.786,7.287q.413.484.85.964l1.822-1.27A23.352,23.352,0,0,1,533.156,1330.388Z" transform="translate(-531.084 -1304.087)" fill="#fff"/>
          <path id="Trazado_203793" data-name="Trazado 203793" d="M620.679,1183.685c1.471-1.142,3.011-2.3,4.652-3.57q-.284-.1-.57-.183c-1.612,1.068-3.3,2.2-4.991,3.388Q620.223,1183.506,620.679,1183.685Z" transform="translate(-603.938 -1179.933)" fill="#fff"/>
          <path id="Trazado_203794" data-name="Trazado 203794" d="M580.121,1211.972c-2.068,1.477-4.11,3.025-5.98,4.614.409.26.841.491,1.272.71a67.526,67.526,0,0,1,5.674-4.928Q580.6,1212.173,580.121,1211.972Z" transform="translate(-566.286 -1206.371)" fill="#fff"/>
          <path id="Trazado_203795" data-name="Trazado 203795" d="M536.064,1253.511a13.458,13.458,0,0,1-1.427-.89c-3.832,3.657-5.738,6.945-5.387,11.061a17.5,17.5,0,0,0,2.042-.14C531.207,1259.087,534.038,1255.735,536.064,1253.511Z" transform="translate(-529.209 -1239.914)" fill="#fff"/>
          <path id="Trazado_203796" data-name="Trazado 203796" d="M587.542,1401.927a83.208,83.208,0,0,0,13.152,8.572q1.368-.73,2.731-1.469a79.374,79.374,0,0,1-13.976-8.429Z" transform="translate(-577.345 -1362.026)" fill="#fff"/>
          <path id="Trazado_203797" data-name="Trazado 203797" d="M1009.347,1556.327l-4.2,3.588c15.5,3.814,31.993,7.126,48.488,10,1.55-1.01,5.265-4.164,6.4-4.993C1042.843,1562.547,1025.568,1559.708,1009.347,1556.327Z" transform="translate(-921.944 -1490.529)" fill="#fff"/>
          <path id="Trazado_203798" data-name="Trazado 203798" d="M1559.817,1637.1c-16.122-1.121-52.333-4.222-74.2-6.566q-4.092,3.01-8.188,6.013c20.573,2.964,55.881,6.751,72.009,8.583Q1554.586,1641.064,1559.817,1637.1Z" transform="translate(-1311.665 -1551.762)" fill="#fff"/>
        </g>
        <ellipse id="Elipse_5353" data-name="Elipse 5353" cx="6.278" cy="2.011" rx="6.278" ry="2.011" transform="translate(393.598 413.774)" fill="#222"/>
        <path id="Trazado_203799" data-name="Trazado 203799" d="M583.335,925.99c0,.44-1.112.8-2.485.8s-2.485-.356-2.485-.8,1.112-.8,2.485-.8S583.335,925.55,583.335,925.99Z" transform="translate(-181.201 -510.379)" fill="#fff"/>
        <g id="Grupo_168070" data-name="Grupo 168070" transform="translate(386.696 379.403)">
          <path id="Trazado_203800" data-name="Trazado 203800" d="M531.431,722.623a12.954,12.954,0,0,0-12.952,12.952c0,7.155,12.952,20.236,12.952,20.236s12.955-13.081,12.955-20.236A12.955,12.955,0,0,0,531.431,722.623Zm0,20.232a7.307,7.307,0,1,1,7.311-7.307A7.306,7.306,0,0,1,531.431,742.855Z" transform="translate(-518.479 -722.623)" fill="#ff9d00"/>
        </g>
        <g id="Grupo_168096" data-name="Grupo 168096" transform="translate(473.577 377.282)">
          <g id="Grupo_168095" data-name="Grupo 168095" transform="translate(0 0)">
            <g id="Grupo_168093" data-name="Grupo 168093">
              <path id="Trazado_203801" data-name="Trazado 203801" d="M1087.632,1521.466l124.925,12.751c15.536,2.832,2.868,17.146-26.954,15.138,0,0-72.93-8.84-110.84-14.694C1061.062,1532.545,1064.582,1518.548,1087.632,1521.466Z" transform="translate(-1057.768 -1379.37)" fill="#222" opacity="0.6" style="mix-blend-mode: soft-light;isolation: isolate"/>
              <g id="Grupo_168092" data-name="Grupo 168092">
                <g id="Grupo_168091" data-name="Grupo 168091">
                  <g id="Grupo_168076" data-name="Grupo 168076" transform="translate(0 36.133)">
                    <g id="Grupo_168075" data-name="Grupo 168075">
                      <g id="Grupo_168072" data-name="Grupo 168072" transform="translate(13.287 1.041)">
                        <g id="Grupo_168071" data-name="Grupo 168071">
                          <path id="Trazado_203802" data-name="Trazado 203802" d="M1137.491,978.018l-40.537-3.582.691-42.271,40.537,3.582Z" transform="translate(-1095.998 -930.588)" fill="#de7f04"/>
                          <path id="Trazado_203803" data-name="Trazado 203803" d="M1091.628,923.143l-.145,8.881,43.325,3.828.152-9.315Z" transform="translate(-1091.483 -923.143)" fill="#de7f04"/>
                        </g>
                      </g>
                      <g id="Grupo_168074" data-name="Grupo 168074">
                        <g id="Grupo_168073" data-name="Grupo 168073">
                          <path id="Trazado_203804" data-name="Trazado 203804" d="M1053.016,972.442l-33.583-2.978.694-42.27,33.583,2.978Z" transform="translate(-1018.741 -925.445)" fill="#ffa305"/>
                          <path id="Trazado_203805" data-name="Trazado 203805" d="M1015.622,917.19l-.149,9.075,35.892,3.182.149-9.446Z" transform="translate(-1015.473 -917.19)" fill="#ffa305"/>
                        </g>
                      </g>
                      <rect id="Rectángulo_47591" data-name="Rectángulo 47591" width="0.412" height="42.226" transform="matrix(0.088, -0.996, 0.996, 0.088, 1.246, 9.379)" fill="#de7f04"/>
                      <path id="Trazado_203806" data-name="Trazado 203806" d="M1049.149,964.019l-2.515-.223.724-43.982,2.515.223Z" transform="translate(-1041.187 -919.356)" fill="#fff"/>
                    </g>
                    <path id="Trazado_203807" data-name="Trazado 203807" d="M1169.556,973.908l-2.515-.223.722-44.173,2.515.223Z" transform="translate(-1140.545 -927.358)" fill="#fff"/>
                  </g>
                  <g id="Grupo_168077" data-name="Grupo 168077" transform="translate(27.937 109.08)">
                    <ellipse id="Elipse_5354" data-name="Elipse 5354" cx="18.359" cy="17.19" rx="18.359" ry="17.19" transform="translate(0 34.914) rotate(-71.964)" fill="#222"/>
                    <path id="Trazado_203808" data-name="Trazado 203808" d="M1241.259,1376.469c-.979,10.546-9.44,18.577-20.518,17.884s-19.266-9.8-18.287-20.35,10.753-18.532,21.832-17.839S1242.238,1365.924,1241.259,1376.469Z" transform="translate(-1197.638 -1352.338)" fill="#222"/>
                    <ellipse id="Elipse_5355" data-name="Elipse 5355" cx="12.982" cy="12.155" rx="12.982" ry="12.155" transform="translate(6.452 31.36) rotate(-71.964)" fill="#ccc"/>
                    <ellipse id="Elipse_5356" data-name="Elipse 5356" cx="6.052" cy="5.667" rx="6.052" ry="5.667" transform="translate(14.289 26.713) rotate(-71.964)" fill="#737373"/>
                  </g>
                  <path id="Trazado_203809" data-name="Trazado 203809" d="M1206.212,1251.582c-3.115.28-37.234-.19.03-38.184-42.25-3.837-62.6-11.853-79.79,37.339l76.377,6.315C1206.477,1257.28,1207.224,1252.908,1206.212,1251.582Z" transform="translate(-1107.051 -1123.042)" fill="#7e5ee3"/>
                  <path id="Trazado_203810" data-name="Trazado 203810" d="M1407.055,1168.069l-41.676-3.406c-4.5-.372-3.684-9.956.811-9.585l41.676,3.406C1413.243,1158.929,1412.432,1168.514,1407.055,1168.069Z" transform="translate(-1301.741 -1077.351)" fill="#222"/>
                  <path id="Trazado_203811" data-name="Trazado 203811" d="M1155.807,1183.726l-35.741-2.822a1.8,1.8,0,0,1-1.655-1.95h0a1.83,1.83,0,0,1,1.966-1.664l35.74,2.821a1.8,1.8,0,0,1,1.655,1.95h0A1.83,1.83,0,0,1,1155.807,1183.726Z" transform="translate(-1100.411 -1095.684)" fill="#222"/>
                  <rect id="Rectángulo_47592" data-name="Rectángulo 47592" width="1.952" height="21.39" transform="matrix(0.792, -0.611, 0.611, 0.792, 22.353, 84.29)" fill="#222"/>
                  <path id="Trazado_203812" data-name="Trazado 203812" d="M1465.113,1225.648s-35.687,37.344.02,39.129c7.08.189,7.455-.645,7.455-.645-10.237-1.756-19.923-5.637-11.633-18.878,6.86-10.957,18.432-19.03,18.432-19.03Z" transform="translate(-1373.427 -1135.593)" fill="#6745d3"/>
                  <g id="Grupo_168080" data-name="Grupo 168080" transform="translate(19.41 100.825)">
                    <g id="Grupo_168078" data-name="Grupo 168078">
                      <path id="Trazado_203813" data-name="Trazado 203813" d="M1189.8,1318.4a31.952,31.952,0,0,0,1.471-3.644c4.558-13.72-2.395-24.148-14.916-26.758-28.224-5.883-36.4,25.052-36.634,26.262Z" transform="translate(-1137.41 -1287.252)" fill="#6745d3"/>
                      <path id="Trazado_203814" data-name="Trazado 203814" d="M1172.338,1318.448a31.9,31.9,0,0,0,1.471-3.644c4.558-13.72-2.12-25.7-14.915-26.758s-26.863,9.207-31.421,22.927a29.1,29.1,0,0,0-.965,3.686Z" transform="translate(-1126.508 -1287.845)" fill="#7e5ee3"/>
                    </g>
                    <g id="Grupo_168079" data-name="Grupo 168079" transform="translate(17.816 10.743)">
                      <path id="Trazado_203815" data-name="Trazado 203815" d="M1249.878,1350.939l-16.577-1.013a.567.567,0,0,1-.535-.617l0-.057a.61.61,0,0,1,.642-.545l16.577,1.012a.567.567,0,0,1,.536.617l-.005.057A.609.609,0,0,1,1249.878,1350.939Z" transform="translate(-1232.005 -1348.707)" fill="#222"/>
                      <path id="Trazado_203816" data-name="Trazado 203816" d="M1248.432,1366.783l-16.577-1.013a.567.567,0,0,1-.536-.617l.005-.057a.61.61,0,0,1,.642-.545l16.577,1.012a.567.567,0,0,1,.536.617l-.005.057A.61.61,0,0,1,1248.432,1366.783Z" transform="translate(-1230.812 -1361.781)" fill="#222"/>
                      <path id="Trazado_203817" data-name="Trazado 203817" d="M1246.986,1382.627l-16.577-1.013a.568.568,0,0,1-.536-.617l.005-.057a.61.61,0,0,1,.642-.545l16.577,1.013a.567.567,0,0,1,.536.617l-.005.057A.61.61,0,0,1,1246.986,1382.627Z" transform="translate(-1229.618 -1374.855)" fill="#222"/>
                      <path id="Trazado_203818" data-name="Trazado 203818" d="M1245.54,1398.471l-16.577-1.012a.567.567,0,0,1-.536-.617l.005-.057a.61.61,0,0,1,.642-.545l16.577,1.013a.567.567,0,0,1,.536.617l-.005.057A.61.61,0,0,1,1245.54,1398.471Z" transform="translate(-1228.425 -1387.929)" fill="#222"/>
                    </g>
                  </g>
                  <g id="Grupo_168086" data-name="Grupo 168086" transform="translate(77.114)">
                    <path id="Trazado_203819" data-name="Trazado 203819" d="M1658.038,893.242s-4.995,17.69-2.992,24.51c4.1,6.862,35.147,6.206,35.147,6.206l2.276-5.029-20.489-6.2,2.068-12.418C1676.114,889.138,1663.482,885.3,1658.038,893.242Z" transform="translate(-1619.964 -857.825)" fill="#1e919f"/>
                    <g id="Grupo_168081" data-name="Grupo 168081" transform="translate(14.581 66.748)">
                      <path id="Trazado_203820" data-name="Trazado 203820" d="M1542.887,1153.766l12.647,1.07c3.338-4.439,26-34.907,26.6-41.977.5-5.925-1.81-11.7-16.6-17.922-9.916-4.168-21.352-2.106-21.352-2.106s-8.362,8.795-1.413,14.01,20.151,8.291,20.151,8.291Z" transform="translate(-1540.007 -1092.32)" fill="#403c3c"/>
                      <path id="Trazado_203821" data-name="Trazado 203821" d="M1556.187,1397.088l25.6,1.986s7.771-3.143,2.376-9.87c-4.22-3.955-12.716-1.968-15.891,2.392l-8.795-.553Z" transform="translate(-1553.359 -1335.547)" fill="#222"/>
                    </g>
                    <g id="Grupo_168082" data-name="Grupo 168082" transform="translate(0 65.431)">
                      <path id="Trazado_203822" data-name="Trazado 203822" d="M1459.969,1146.667l12.647,1.07c3.338-4.439,26-34.907,26.6-41.977.5-5.926-1.81-11.705-16.6-17.922-9.916-4.168-16.949-3.115-20.411-2.309s-9.3,9-2.353,14.214,20.151,8.291,20.151,8.291Z" transform="translate(-1456.6 -1084.786)" fill="#636363"/>
                      <path id="Trazado_203823" data-name="Trazado 203823" d="M1474.78,1392.042l25.6,1.986s7.771-3.143,2.376-9.87c-4.22-3.955-12.716-1.969-15.891,2.391l-8.795-.553C1473.767,1388.088,1474.635,1390.057,1474.78,1392.042Z" transform="translate(-1471.464 -1330.066)" fill="#222"/>
                    </g>
                    <path id="Trazado_203824" data-name="Trazado 203824" d="M1505.449,906.157c6.287-2.6,10.46-16.074,14.526-24.4,7.27-14.863-15.717-25.476-28.01-12.37-11.333,11.43-23.28,22.367-21.792,35.542C1480.876,910.133,1500.657,908.6,1505.449,906.157Z" transform="translate(-1467.696 -836.715)" fill="#00bcd4"/>
                    <path id="Trazado_203825" data-name="Trazado 203825" d="M1645.358,926.875l-.2-.36c2.151-1.2,2.968-3.816,3.914-6.842.882-2.821,1.882-6.018,4.216-8.53,6.041-8.56,7.785-14.7,8.184-18.341.432-3.937-.573-5.88-.582-5.9l.363-.195c.044.081,1.068,2.043.635,6.088-.4,3.7-2.153,9.929-8.271,18.6l-.018.021c-2.277,2.445-3.264,5.6-4.134,8.383C1648.491,922.906,1647.651,925.592,1645.358,926.875Z" transform="translate(-1612.195 -855.903)" fill="#386b45"/>
                    <path id="Trazado_203826" data-name="Trazado 203826" d="M1535.948,891.735s-17.2,16.647-11.9,25.9c4.266,7.446,30.743,9.023,32.525,7.01l2.276-5.029c-1.923-4.552-11.742-6.377-19.518-8.159l8.857-8.095C1555.9,895.882,1545.626,883.177,1535.948,891.735Z" transform="translate(-1511.423 -857.696)" fill="#1e919f"/>
                    <path id="Trazado_203827" data-name="Trazado 203827" d="M1701.9,865.33a3.172,3.172,0,0,1,1.258,3.052c3.012-2.415.005-10.359-7.653-13.137C1688.245,852.61,1701.9,865.33,1701.9,865.33Z" transform="translate(-1651.988 -829.644)" fill="#1e919f"/>
                    <g id="Grupo_168085" data-name="Grupo 168085" transform="translate(41.061)">
                      <path id="Trazado_203828" data-name="Trazado 203828" d="M1691.791,830.623c-2.224,2.38,8.552,8.52,8.552,8.52l7.572-10.226-8.8-5.766Z" transform="translate(-1691.489 -803.457)" fill="#ffa794"/>
                      <path id="Trazado_203829" data-name="Trazado 203829" d="M1718.461,738.638s2.359,15.508,15.118,14.2c5.711-.587,8.218-9.06,8.18-14.011-.082-10.89-9.53-16.254-15.236-13.841C1717.061,728.983,1718.418,737.172,1718.461,738.638Z" transform="translate(-1713.671 -721.978)" fill="#ffa794"/>
                      <path id="Trazado_203830" data-name="Trazado 203830" d="M1729.089,829.42s2.464,7.02,8.693,8.321c2.512.352,3.164.061,3.164.061a11.545,11.545,0,0,1-9.027-9.831C1731.531,826.49,1728.591,827.606,1729.089,829.42Z" transform="translate(-1722.469 -806.868)" fill="#222"/>
                      <g id="Grupo_168084" data-name="Grupo 168084" transform="translate(0.686)">
                        <path id="Trazado_203831" data-name="Trazado 203831" d="M1705.073,732.418c1.394-2.358,2.111-5.527,2.923-8.846a109.3,109.3,0,0,0,15.572,1.072c1.679.008,2.564-12.111-10.979-13.989-5.466-.758-12.282,1.092-15.169,6.461-3.11,5.784-2.329,12.33.437,15.256C1699.62,734.238,1703.179,734.636,1705.073,732.418Z" transform="translate(-1695.412 -710.492)" fill="#6745d3"/>
                        <g id="Grupo_168083" data-name="Grupo 168083" clip-path="url(#clip-path-3)">
                          <path id="Trazado_203832" data-name="Trazado 203832" d="M1761.7,723.807l-.758.154c1.287-4.9-1.765-8.667-3.766-10.285-3.434-2.777-8.318-4.122-10.666-2.936l-.3-.6c2.6-1.313,7.709.038,11.387,3.013C1759.721,714.876,1763.082,718.546,1761.7,723.807Z" transform="translate(-1737.328 -709.79)" fill="#fff"/>
                          <path id="Trazado_203833" data-name="Trazado 203833" d="M1773.281,723.527l-.641-.188a9.831,9.831,0,0,0-2.454-9.777,12.612,12.612,0,0,0-11.439-3.919l-.144-.652a13.3,13.3,0,0,1,12.071,4.115A10.476,10.476,0,0,1,1773.281,723.527Z" transform="translate(-1747.556 -709.052)" fill="#fff"/>
                        </g>
                      </g>
                      <path id="Trazado_203835" data-name="Trazado 203835" d="M1810.771,812.53a5.671,5.671,0,0,1-1.1-.092.223.223,0,0,1,.088-.437,3.812,3.812,0,0,0,2.564-.344.3.3,0,0,0,.113-.236c.042-.766-1.395-2.355-1.952-2.9a.223.223,0,0,1,.312-.318c.219.216,2.145,2.141,2.084,3.245a.744.744,0,0,1-.282.562A3.061,3.061,0,0,1,1810.771,812.53Z" transform="translate(-1788.865 -791.067)" fill="#b3523d"/>
                      <path id="Trazado_203836" data-name="Trazado 203836" d="M1778.968,799.489c-.057.61-.47,1.081-.923,1.052s-.775-.545-.719-1.155.47-1.081.923-1.052S1779.024,798.88,1778.968,799.489Z" transform="translate(-1762.315 -782.977)" fill="#222"/>
                      <path id="Trazado_203837" data-name="Trazado 203837" d="M1835.578,804.605c-.048.521-.4.923-.789.9s-.662-.466-.614-.987.4-.923.789-.9S1835.626,804.084,1835.578,804.605Z" transform="translate(-1809.227 -787.338)" fill="#222"/>
                      <path id="Trazado_203838" data-name="Trazado 203838" d="M1776.948,838.3s2.485,3.045,8.127,2.663c0,0-3.2,4.354-6.992,2.549S1776.948,838.3,1776.948,838.3Z" transform="translate(-1761.261 -815.96)" fill="#b33a20"/>
                      <path id="Trazado_203839" data-name="Trazado 203839" d="M1767.4,785.313c6.252.648,12.273,1.22,15.885.994,0,0,4.145,1.271,3.049,2.119S1767.4,785.313,1767.4,785.313Z" transform="translate(-1754.13 -772.233)" fill="#222"/>
                    </g>
                    <path id="Trazado_203840" data-name="Trazado 203840" d="M1689.319,855.748a2.549,2.549,0,0,0-3.44,1.237c.3,5.816,4.727,11.322,7.007,11.869a5.981,5.981,0,0,1,2.828-3.021S1689.333,860.543,1689.319,855.748Z" transform="translate(-1645.798 -830.147)" fill="#1e919f"/>
                  </g>
                  <g id="Grupo_168090" data-name="Grupo 168090" transform="translate(90.251 55.436)">
                    <g id="Grupo_168087" data-name="Grupo 168087" transform="translate(37.268 64.647)">
                      <ellipse id="Elipse_5357" data-name="Elipse 5357" cx="17.237" cy="16.14" rx="17.237" ry="16.14" transform="matrix(0.31, -0.951, 0.951, 0.31, 0, 32.781)" fill="#222"/>
                      <path id="Trazado_203841" data-name="Trazado 203841" d="M1806.878,1436.842c-.919,9.9-8.863,17.442-19.264,16.791s-18.089-9.205-17.17-19.107,10.1-17.4,20.5-16.749S1807.8,1426.941,1806.878,1436.842Z" transform="translate(-1765.923 -1414.186)" fill="#222"/>
                      <ellipse id="Elipse_5358" data-name="Elipse 5358" cx="12.189" cy="11.412" rx="12.189" ry="11.412" transform="matrix(0.31, -0.951, 0.951, 0.31, 6.058, 29.444)" fill="#ccc"/>
                      <ellipse id="Elipse_5359" data-name="Elipse 5359" cx="5.682" cy="5.321" rx="5.682" ry="5.321" transform="translate(13.415 25.08) rotate(-71.964)" fill="#737373"/>
                    </g>
                    <path id="Trazado_203842" data-name="Trazado 203842" d="M1598.03,1190.422a23.831,23.831,0,0,1-12.816,8.5c-.311.078-.624.15-.938.213q-.758.157-1.524.256a22.316,22.316,0,0,1-3.472.184c-.44-.01-.881-.034-1.319-.069l-.333-.028-20.235-1.673h0l-19.3-1.338c-9.078-.568-8.007-4.026.669-5.232,27.03.111,39.126-28.611,32.292-43.7-2.332-5.52,3.844-9.755,9.778-10.657a15.137,15.137,0,0,1,2.292-.179,11.988,11.988,0,0,1,1.5.089c.153.021.3.041.451.067a12.781,12.781,0,0,1,2.192.481,9.287,9.287,0,0,1,5.212,3.907l9.15,20.678A27.9,27.9,0,0,1,1598.03,1190.422Z" transform="translate(-1531.747 -1117.622)" fill="#7e5ee3"/>
                    <path id="Trazado_203843" data-name="Trazado 203843" d="M1844.61,1179.337q-.114.762-.272,1.5l2.51.108c.06-.324.115-.645.162-.96a31.833,31.833,0,0,0-1.029-13.847l-10.411-27.916a15.01,15.01,0,0,0-2.916-.448l11.083,29.4A28.556,28.556,0,0,1,1844.61,1179.337Z" transform="translate(-1780.052 -1118.515)" fill="#fff"/>
                    <g id="Grupo_168089" data-name="Grupo 168089" transform="translate(27.804)">
                      <path id="Trazado_203844" data-name="Trazado 203844" d="M1835.764,1028.769v0a4.358,4.358,0,0,0-.82-.023,4.86,4.86,0,0,0-1.386.3c-3.377,1.254-6.2,6.135-6.6,11.8-.27,3.862.651,7.207,2.292,9.2a5.662,5.662,0,0,0,1.766,1.467l-4.4-1.531-.375-.131c-3.032-1.193-5.032-5.405-4.7-10.542.39-6,3.819-11.076,7.77-11.644.716.023,1.457.082,2.219.182A26.435,26.435,0,0,1,1835.764,1028.769Z" transform="translate(-1798.664 -1027.663)" fill="#a590e9"/>
                      <path id="Trazado_203845" data-name="Trazado 203845" d="M1774.556,1049.806l-12.946-4.506s-4.527-2.055-1.943-8.222c0,0,5.83-9.848,17.96-9.458-3.95.568-7.38,5.645-7.77,11.644C1769.524,1044.4,1771.524,1048.613,1774.556,1049.806Z" transform="translate(-1746.971 -1027.609)" fill="#7e5ee3"/>
                      <path id="Trazado_203846" data-name="Trazado 203846" d="M1861.262,1033.8c-.109.54-.284,1.443-.5,2.588-.855,4.5-2.374,12.718-3.2,17.2-.349,1.894-.575,3.123-.575,3.123l-.466-.161a5.664,5.664,0,0,1-1.766-1.467c-1.641-2-2.562-5.342-2.292-9.2.394-5.663,3.219-10.544,6.6-11.8a4.863,4.863,0,0,1,1.386-.3A4.349,4.349,0,0,1,1861.262,1033.8Z" transform="translate(-1824.162 -1032.688)" fill="#e82728"/>
                      <path id="Trazado_203847" data-name="Trazado 203847" d="M1866.8,1044.924c-.448,6.42-4.023,11.839-7.982,12.1a4.336,4.336,0,0,1-2.3-.48,5.664,5.664,0,0,1-1.766-1.467c-1.641-2-2.562-5.342-2.292-9.2.394-5.663,3.219-10.544,6.6-11.8a4.863,4.863,0,0,1,1.386-.3,4.349,4.349,0,0,1,.82.023C1864.786,1034.22,1867.217,1038.954,1866.8,1044.924Z" transform="translate(-1824.162 -1032.688)" fill="#7e5ee3"/>
                      <path id="Trazado_203848" data-name="Trazado 203848" d="M1873.979,1054.3c-.372,5.327-3.338,9.823-6.622,10.042a3.6,3.6,0,0,1-1.907-.4,4.7,4.7,0,0,1-1.465-1.217,11.035,11.035,0,0,1-1.9-7.636c.327-4.7,2.67-8.748,5.473-9.789a4.025,4.025,0,0,1,1.15-.253,3.588,3.588,0,0,1,.68.019C1872.308,1045.42,1874.325,1049.347,1873.979,1054.3Z" transform="translate(-1832.108 -1041.994)" fill="#fff"/>
                      <g id="Grupo_168088" data-name="Grupo 168088" transform="translate(0 8.294)">
                        <path id="Trazado_203849" data-name="Trazado 203849" d="M1718.78,1081.694l-15.4.343.037-6.679,15.4.529C1721.8,1075.821,1721.624,1081.631,1718.78,1081.694Z" transform="translate(-1701.178 -1075.305)" fill="#222"/>
                        <ellipse id="Elipse_5360" data-name="Elipse 5360" cx="3.34" cy="2.135" rx="3.34" ry="2.135" transform="matrix(0.025, -1, 1, 0.025, 0, 6.679)" fill="#222"/>
                      </g>
                    </g>
                    <path id="Trazado_203850" data-name="Trazado 203850" d="M1721.743,1374.188a21.248,21.248,0,0,1-2.657,5.09,23.836,23.836,0,0,1-12.816,8.5,21.509,21.509,0,0,1-2.462.469,22.661,22.661,0,0,1-4.792.115l-.332-.027-20.235-1.673c.2-.013,12.691,1.049,21.908-13.357C1708.29,1361.273,1725.05,1364.576,1721.743,1374.188Z" transform="translate(-1652.803 -1306.477)" fill="#6745d3"/>
                    <path id="Trazado_203851" data-name="Trazado 203851" d="M1823.068,1396.205a.678.678,0,0,0,.248-.406c1.715-12.064-12.579-24.955-23.7-23.686-9.721,2.561-15.764,11.171-17.069,21.389Z" transform="translate(-1738.7 -1311.819)" fill="#7e5ee3"/>
                    <path id="Trazado_203852" data-name="Trazado 203852" d="M1712.39,1063.885s2.228-3.27,7.348-1.474,3.377,7.529,2,8.254-6.142,1.387-5.447.121,1.427-3.38.259-5.123c-.8-1.194-4.2-1.38-4.2-1.38Z" transform="translate(-1680.781 -1055.883)" fill="#ffa794"/>
                  </g>
                  <path id="Trazado_203853" data-name="Trazado 203853" d="M1282.978,1140.387l-2.046-.234,1.233-10.782-8.643-.541-1.207,10.556-2.046-.234,1.318-11.528a1.032,1.032,0,0,1,1.087-.911l10.7.67a1.03,1.03,0,0,1,.959,1.145Z" transform="translate(-1225.728 -1053.952)" fill="#222"/>
                  <path id="Trazado_203854" data-name="Trazado 203854" d="M1202.808,1447.453l38.764,3.141-1.532,6.823-37.579-5.6Z" transform="translate(-1169.773 -1318.623)" fill="#222" opacity="0.8" style="mix-blend-mode: soft-light;isolation: isolate"/>
                  <path id="Trazado_203855" data-name="Trazado 203855" d="M1771.013,1494.2l35.886,2.441a21.377,21.377,0,0,1-.753,6.953l-35.835-5A19.97,19.97,0,0,1,1771.013,1494.2Z" transform="translate(-1638.356 -1357.198)" fill="#222" opacity="0.8" style="mix-blend-mode: soft-light;isolation: isolate"/>
                </g>
              </g>
            </g>
            <g id="Grupo_168094" data-name="Grupo 168094" transform="translate(14.518 2.208)">
              <circle id="Elipse_5361" data-name="Elipse 5361" cx="10.915" cy="10.915" r="10.915" transform="translate(0 15.436) rotate(-45)" fill="#00bcd4"/>
              <path id="Trazado_203856" data-name="Trazado 203856" d="M1159.442,764.254l-5.087-7.947.854-.9,4.214,3.988,12.742-11.35.829,1.055Z" transform="translate(-1144.595 -743.686)" fill="#fff"/>
            </g>
          </g>
        </g>
        <g id="Grupo_168098" data-name="Grupo 168098" transform="translate(420.098 370.999)">
          <rect id="Rectángulo_47593" data-name="Rectángulo 47593" width="43.797" height="28.043" rx="14.022" transform="translate(0 0)" fill="#fff"/>
          <g id="Grupo_168097" data-name="Grupo 168097" transform="translate(6.572 20.348)">
            <path id="Trazado_203857" data-name="Trazado 203857" d="M748.927,790.95l.421,1.3h1.362l-1.1.8.421,1.3-1.1-.8-1.1.8.421-1.3-1.1-.8h1.362Z" transform="translate(-747.144 -790.95)" fill="#fdf280"/>
            <path id="Trazado_203858" data-name="Trazado 203858" d="M787.23,790.95l.421,1.3h1.362l-1.1.8.421,1.3-1.1-.8-1.1.8.421-1.3-1.1-.8h1.362Z" transform="translate(-778.752 -790.95)" fill="#fdf280"/>
            <path id="Trazado_203859" data-name="Trazado 203859" d="M825.534,790.95l.421,1.3h1.362l-1.1.8.421,1.3-1.1-.8-1.1.8.421-1.3-1.1-.8h1.362Z" transform="translate(-810.359 -790.95)" fill="#fdf280"/>
            <path id="Trazado_203860" data-name="Trazado 203860" d="M863.838,790.95l.421,1.3h1.362l-1.1.8.421,1.3-1.1-.8-1.1.8.421-1.3-1.1-.8h1.362Z" transform="translate(-841.967 -790.95)" fill="#fdf280"/>
            <path id="Trazado_203861" data-name="Trazado 203861" d="M902.142,790.95l.421,1.3h1.362l-1.1.8.421,1.3-1.1-.8-1.1.8.421-1.3-1.1-.8h1.362Z" transform="translate(-873.575 -790.95)" fill="#fdf280"/>
          </g>
          <path id="Trazado_203862" data-name="Trazado 203862" d="M868.178,707.1h-9.44a.768.768,0,0,1-.768-.768h0a.768.768,0,0,1,.768-.768h9.44a.768.768,0,0,1,.768.768h0A.768.768,0,0,1,868.178,707.1Z" transform="translate(-832.025 -700.139)" fill="#94f3f7"/>
          <path id="Trazado_203863" data-name="Trazado 203863" d="M854.961,726.295h-12.24a.768.768,0,0,1-.768-.768h0a.768.768,0,0,1,.768-.768h12.24a.768.768,0,0,1,.768.768h0A.768.768,0,0,1,854.961,726.295Z" transform="translate(-818.808 -715.982)" fill="#94f3f7"/>
          <path id="Trazado_203864" data-name="Trazado 203864" d="M854.961,745.494h-12.24a.768.768,0,0,1-.768-.768h0a.768.768,0,0,1,.768-.768h12.24a.768.768,0,0,1,.768.768h0A.768.768,0,0,1,854.961,745.494Z" transform="translate(-818.808 -731.825)" fill="#94f3f7"/>
          <path id="Trazado_203865" data-name="Trazado 203865" d="M854.961,764.692h-12.24a.768.768,0,0,1-.768-.768h0a.768.768,0,0,1,.768-.768h12.24a.768.768,0,0,1,.768.768h0A.768.768,0,0,1,854.961,764.692Z" transform="translate(-818.808 -747.668)" fill="#94f3f7"/>
          <rect id="Rectángulo_47594" data-name="Rectángulo 47594" width="13.888" height="12.495" transform="translate(5.526 4.868)" fill="#94f3f7"/>
        </g>
      </g>
    </g>
  </g>
</svg>
