<svg xmlns="http://www.w3.org/2000/svg" xmlns:xlink="http://www.w3.org/1999/xlink" width="565.594" height="565.613" viewBox="0 0 565.594 565.613">
  <defs>
    <linearGradient id="linear-gradient" x1="0.039" y1="0.014" x2="0.966" y2="0.99" gradientUnits="objectBoundingBox">
      <stop offset="0" stop-color="#fff"/>
      <stop offset="0.997" stop-color="#d7d6d6"/>
    </linearGradient>
  </defs>
  <g id="Grupo_170659" data-name="Grupo 170659" transform="translate(-517 -4117.403)">
    <path id="Trazado_190744" data-name="Trazado 190744" d="M763.232,374.173V642.721H494.7V471.683a97.51,97.51,0,0,1,97.51-97.51Z" transform="translate(22.297 3743.23)" fill="#ff9d00"/>
    <path id="Trazado_190745" data-name="Trazado 190745" d="M1683.216,471.683V642.721H1414.687V374.173h171.018A97.51,97.51,0,0,1,1683.216,471.683Z" transform="translate(-600.622 3743.23)" fill="#00bcd4"/>
    <path id="Trazado_190746" data-name="Trazado 190746" d="M763.232,1294.217v268.529H592.213a97.51,97.51,0,0,1-97.51-97.51V1294.217Z" transform="translate(22.297 3120.271)" fill="#7e5ee3"/>
    <path id="Trazado_190747" data-name="Trazado 190747" d="M1683.216,1294.217v171.018a97.51,97.51,0,0,1-97.51,97.51H1414.687V1294.217Z" transform="translate(-600.622 3120.271)" fill="#81d4fa"/>
    <g id="Grupo_156251" data-name="Grupo 156251" transform="translate(692.347 4292.762)">
      <rect id="Rect치ngulo_46236" data-name="Rect치ngulo 46236" width="214.897" height="214.897" rx="107.448" transform="translate(0)" fill="url(#linear-gradient)"/>
      <rect id="Rect치ngulo_46237" data-name="Rect치ngulo 46237" width="207.287" height="207.287" rx="103.644" transform="translate(211.092 3.805) rotate(90)" fill="#f2f2f2"/>
    </g>
    <path id="Trazado_190748" data-name="Trazado 190748" d="M1267.187,1054.248h-88.64V965.608a1.9,1.9,0,1,0-3.8,0v88.641H1086.1a1.9,1.9,0,1,0,0,3.805h88.641v88.641a1.9,1.9,0,0,0,3.8,0v-88.641h88.64a1.9,1.9,0,0,0,0-3.805Z" transform="translate(-376.85 3344.06)" fill="#414042"/>
    <path id="Trazado_206990" data-name="Trazado 206990" d="M33.98,10.992V15H31.637V3.625h4.438a5.134,5.134,0,0,1,2.254.469,3.454,3.454,0,0,1,1.5,1.332,3.714,3.714,0,0,1,.523,1.965A3.266,3.266,0,0,1,39.2,10.027a4.767,4.767,0,0,1-3.168.965Zm0-1.9h2.094a2.059,2.059,0,0,0,1.418-.437,1.591,1.591,0,0,0,.488-1.25,1.876,1.876,0,0,0-.492-1.352,1.839,1.839,0,0,0-1.359-.531H33.98ZM45.6,15.156a4.15,4.15,0,0,1-3.027-1.141A4.054,4.054,0,0,1,41.4,10.977v-.219a5.106,5.106,0,0,1,.492-2.277,3.612,3.612,0,0,1,1.395-1.547,3.914,3.914,0,0,1,2.059-.543,3.508,3.508,0,0,1,2.73,1.094,4.444,4.444,0,0,1,1,3.1v.922H43.691a2.1,2.1,0,0,0,.66,1.328,2,2,0,0,0,1.395.5,2.437,2.437,0,0,0,2.039-.945l1.109,1.242a3.389,3.389,0,0,1-1.375,1.121A4.511,4.511,0,0,1,45.6,15.156ZM45.34,8.211a1.411,1.411,0,0,0-1.09.455,2.357,2.357,0,0,0-.535,1.3h3.141V9.788a1.681,1.681,0,0,0-.406-1.165A1.456,1.456,0,0,0,45.34,8.211Zm9.766.453a6.134,6.134,0,0,0-.812-.062,1.654,1.654,0,0,0-1.68.867V15H50.355V6.547h2.133l.063,1.008a2.092,2.092,0,0,1,1.883-1.164,2.366,2.366,0,0,1,.7.1Zm5.664,4a.727.727,0,0,0-.41-.652,4.659,4.659,0,0,0-1.316-.426q-3.016-.633-3.016-2.562a2.323,2.323,0,0,1,.934-1.879A3.766,3.766,0,0,1,59.4,6.391a4.053,4.053,0,0,1,2.574.758,2.388,2.388,0,0,1,.965,1.969H60.684a1.092,1.092,0,0,0-.312-.8A1.322,1.322,0,0,0,59.395,8a1.351,1.351,0,0,0-.883.258.814.814,0,0,0-.312.656.7.7,0,0,0,.355.605,3.657,3.657,0,0,0,1.2.4,9.8,9.8,0,0,1,1.422.379,2.336,2.336,0,0,1,1.789,2.273,2.2,2.2,0,0,1-.992,1.871,4.28,4.28,0,0,1-2.562.715,4.47,4.47,0,0,1-1.887-.379,3.166,3.166,0,0,1-1.293-1.039,2.414,2.414,0,0,1-.469-1.426H57.9a1.179,1.179,0,0,0,.445.922,1.766,1.766,0,0,0,1.109.32,1.635,1.635,0,0,0,.98-.246A.766.766,0,0,0,60.77,12.664Zm3.3-1.969a5.013,5.013,0,0,1,.484-2.242A3.546,3.546,0,0,1,65.945,6.93a4.069,4.069,0,0,1,2.113-.539,3.849,3.849,0,0,1,2.793,1.047,4.2,4.2,0,0,1,1.207,2.844l.016.578a4.418,4.418,0,0,1-1.086,3.121,4.209,4.209,0,0,1-5.832,0,4.5,4.5,0,0,1-1.09-3.187Zm2.258.16a3.16,3.16,0,0,0,.453,1.843,1.628,1.628,0,0,0,2.578.008,3.457,3.457,0,0,0,.461-2.015,3.128,3.128,0,0,0-.461-1.831,1.5,1.5,0,0,0-1.3-.649,1.474,1.474,0,0,0-1.281.646A3.516,3.516,0,0,0,66.324,10.856Zm9.219-4.309.07.977a2.951,2.951,0,0,1,2.43-1.133,2.453,2.453,0,0,1,2,.789,3.682,3.682,0,0,1,.672,2.359V15H78.457V9.581a1.47,1.47,0,0,0-.312-1.045,1.4,1.4,0,0,0-1.039-.325,1.553,1.553,0,0,0-1.43.814V15H73.418V6.547ZM87.324,15a2.507,2.507,0,0,1-.227-.758,2.732,2.732,0,0,1-2.133.914,3,3,0,0,1-2.059-.719,2.312,2.312,0,0,1-.816-1.812,2.389,2.389,0,0,1,1-2.062,4.915,4.915,0,0,1,2.879-.727H87V9.352a1.393,1.393,0,0,0-.3-.937,1.183,1.183,0,0,0-.949-.352,1.345,1.345,0,0,0-.895.273.929.929,0,0,0-.324.75H82.277a2.268,2.268,0,0,1,.453-1.359,3,3,0,0,1,1.281-.98,4.669,4.669,0,0,1,1.859-.355,3.689,3.689,0,0,1,2.48.785,2.747,2.747,0,0,1,.918,2.207v3.664a4.041,4.041,0,0,0,.336,1.82V15Zm-1.867-1.57a1.945,1.945,0,0,0,.922-.223,1.462,1.462,0,0,0,.625-.6V11.156H86.16q-1.7,0-1.8,1.172l-.008.133a.9.9,0,0,0,.3.7A1.153,1.153,0,0,0,85.457,13.43ZM93.387,15H91.121V3h2.266Zm-68.4,22.336A1.481,1.481,0,0,0,26,36.992a1.2,1.2,0,0,0,.406-.914h2.117a2.9,2.9,0,0,1-.469,1.574A3.093,3.093,0,0,1,26.8,38.762a3.949,3.949,0,0,1-1.77.395A3.67,3.67,0,0,1,22.168,38a4.56,4.56,0,0,1-1.047-3.184v-.148a4.508,4.508,0,0,1,1.039-3.117,3.627,3.627,0,0,1,2.852-1.164,3.555,3.555,0,0,1,2.543.9,3.2,3.2,0,0,1,.973,2.4H26.41A1.551,1.551,0,0,0,26,32.623a1.51,1.51,0,0,0-2.223.163,3.333,3.333,0,0,0-.4,1.866v.235a3.375,3.375,0,0,0,.4,1.878A1.377,1.377,0,0,0,24.988,37.336ZM34.715,39a2.507,2.507,0,0,1-.227-.758,2.732,2.732,0,0,1-2.133.914,3,3,0,0,1-2.059-.719,2.312,2.312,0,0,1-.816-1.812,2.389,2.389,0,0,1,1-2.062,4.915,4.915,0,0,1,2.879-.727h1.039v-.484a1.393,1.393,0,0,0-.3-.937,1.183,1.183,0,0,0-.949-.352,1.345,1.345,0,0,0-.895.273.929.929,0,0,0-.324.75H29.668a2.268,2.268,0,0,1,.453-1.359,3,3,0,0,1,1.281-.98,4.669,4.669,0,0,1,1.859-.355,3.689,3.689,0,0,1,2.48.785,2.747,2.747,0,0,1,.918,2.207v3.664A4.041,4.041,0,0,0,37,38.867V39Zm-1.867-1.57a1.945,1.945,0,0,0,.922-.223,1.462,1.462,0,0,0,.625-.6V35.156h-.844q-1.7,0-1.8,1.172l-.008.133a.9.9,0,0,0,.3.7A1.153,1.153,0,0,0,32.848,37.43ZM46,34.852a5.07,5.07,0,0,1-.887,3.129,2.843,2.843,0,0,1-2.395,1.176,2.633,2.633,0,0,1-2.07-.891V42.25H38.395v-11.7h2.094l.078.828a2.654,2.654,0,0,1,2.141-.984,2.862,2.862,0,0,1,2.43,1.156A5.207,5.207,0,0,1,46,34.734Zm-2.258-.172a3.345,3.345,0,0,0-.418-1.826,1.36,1.36,0,0,0-1.215-.643,1.478,1.478,0,0,0-1.461.815V36.5a1.5,1.5,0,0,0,1.477.839Q43.746,37.336,43.746,34.679ZM52.3,39a2.507,2.507,0,0,1-.227-.758,2.732,2.732,0,0,1-2.133.914,3,3,0,0,1-2.059-.719,2.312,2.312,0,0,1-.816-1.812,2.389,2.389,0,0,1,1-2.062,4.915,4.915,0,0,1,2.879-.727H51.98v-.484a1.393,1.393,0,0,0-.3-.937,1.183,1.183,0,0,0-.949-.352,1.345,1.345,0,0,0-.895.273.929.929,0,0,0-.324.75H47.254a2.268,2.268,0,0,1,.453-1.359,3,3,0,0,1,1.281-.98,4.669,4.669,0,0,1,1.859-.355,3.689,3.689,0,0,1,2.48.785,2.747,2.747,0,0,1,.918,2.207v3.664a4.041,4.041,0,0,0,.336,1.82V39Zm-1.867-1.57a1.945,1.945,0,0,0,.922-.223,1.462,1.462,0,0,0,.625-.6V35.156h-.844q-1.7,0-1.8,1.172l-.008.133a.9.9,0,0,0,.3.7A1.153,1.153,0,0,0,50.434,37.43Zm9.063-.094a1.481,1.481,0,0,0,1.016-.344,1.2,1.2,0,0,0,.406-.914h2.117a2.9,2.9,0,0,1-.469,1.574A3.093,3.093,0,0,1,61.3,38.762a3.949,3.949,0,0,1-1.77.395A3.67,3.67,0,0,1,56.676,38a4.56,4.56,0,0,1-1.047-3.184v-.148a4.508,4.508,0,0,1,1.039-3.117,3.627,3.627,0,0,1,2.852-1.164,3.555,3.555,0,0,1,2.543.9,3.2,3.2,0,0,1,.973,2.4H60.918a1.551,1.551,0,0,0-.406-1.072,1.51,1.51,0,0,0-2.223.163,3.333,3.333,0,0,0-.4,1.866v.235a3.375,3.375,0,0,0,.4,1.878A1.377,1.377,0,0,0,59.5,37.336ZM66.707,39H64.441V30.547h2.266Zm-2.4-10.641a1.112,1.112,0,0,1,.34-.836,1.465,1.465,0,0,1,1.848,0,1.193,1.193,0,0,1,0,1.68,1.448,1.448,0,0,1-1.836,0A1.108,1.108,0,0,1,64.309,28.359Zm6.961.109v2.078h1.445V32.2H71.27v4.219a1.007,1.007,0,0,0,.18.672.9.9,0,0,0,.688.2,3.6,3.6,0,0,0,.664-.055v1.711a4.648,4.648,0,0,1-1.367.2,2.156,2.156,0,0,1-2.422-2.4V32.2H67.777V30.547h1.234V28.469ZM78.871,39a2.507,2.507,0,0,1-.227-.758,2.732,2.732,0,0,1-2.133.914,3,3,0,0,1-2.059-.719,2.312,2.312,0,0,1-.816-1.812,2.389,2.389,0,0,1,1-2.062,4.915,4.915,0,0,1,2.879-.727h1.039v-.484a1.393,1.393,0,0,0-.3-.937,1.183,1.183,0,0,0-.949-.352,1.345,1.345,0,0,0-.895.273.929.929,0,0,0-.324.75H73.824a2.268,2.268,0,0,1,.453-1.359,3,3,0,0,1,1.281-.98,4.669,4.669,0,0,1,1.859-.355,3.689,3.689,0,0,1,2.48.785,2.747,2.747,0,0,1,.918,2.207v3.664a4.041,4.041,0,0,0,.336,1.82V39ZM77,37.43a1.945,1.945,0,0,0,.922-.223,1.462,1.462,0,0,0,.625-.6V35.156h-.844q-1.7,0-1.8,1.172l-.008.133a.9.9,0,0,0,.3.7A1.153,1.153,0,0,0,77,37.43Zm5.2-2.719a5.094,5.094,0,0,1,.887-3.148,2.877,2.877,0,0,1,2.426-1.172,2.589,2.589,0,0,1,2.039.922V27h2.266V39H87.777l-.109-.9A2.657,2.657,0,0,1,85.5,39.156,2.869,2.869,0,0,1,83.1,37.98,5.258,5.258,0,0,1,82.2,34.711Zm2.258.161a3.355,3.355,0,0,0,.414,1.829,1.348,1.348,0,0,0,1.2.636,1.51,1.51,0,0,0,1.477-.887V33.1a1.489,1.489,0,0,0-1.461-.887Q84.457,32.211,84.457,34.872Zm6.758-.176a5.013,5.013,0,0,1,.484-2.242,3.546,3.546,0,0,1,1.395-1.523,4.069,4.069,0,0,1,2.113-.539A3.849,3.849,0,0,1,98,31.438a4.2,4.2,0,0,1,1.207,2.844l.016.578a4.418,4.418,0,0,1-1.086,3.121,4.209,4.209,0,0,1-5.832,0,4.5,4.5,0,0,1-1.09-3.187Zm2.258.16a3.16,3.16,0,0,0,.453,1.843,1.628,1.628,0,0,0,2.578.008,3.457,3.457,0,0,0,.461-2.015A3.128,3.128,0,0,0,96.5,32.86a1.5,1.5,0,0,0-1.3-.649,1.474,1.474,0,0,0-1.281.646A3.516,3.516,0,0,0,93.473,34.856Zm7.258,3.035a1.137,1.137,0,0,1,.363-.875,1.412,1.412,0,0,1,1.828,0,1.137,1.137,0,0,1,.363.875,1.121,1.121,0,0,1-.359.863,1.435,1.435,0,0,1-1.836,0A1.121,1.121,0,0,1,100.73,37.891Z" transform="translate(591 4162)" fill="#12263f"/>
    <path id="Trazado_206991" data-name="Trazado 206991" d="M22.52,10.992V15H20.176V3.625h4.438a5.134,5.134,0,0,1,2.254.469,3.454,3.454,0,0,1,1.5,1.332,3.714,3.714,0,0,1,.523,1.965,3.266,3.266,0,0,1-1.145,2.637,4.767,4.767,0,0,1-3.168.965Zm0-1.9h2.094a2.059,2.059,0,0,0,1.418-.437,1.591,1.591,0,0,0,.488-1.25,1.876,1.876,0,0,0-.492-1.352,1.839,1.839,0,0,0-1.359-.531H22.52ZM35.1,8.664a6.134,6.134,0,0,0-.812-.062,1.654,1.654,0,0,0-1.68.867V15H30.348V6.547H32.48l.063,1.008a2.092,2.092,0,0,1,1.883-1.164,2.366,2.366,0,0,1,.7.1Zm.453,2.031a5.013,5.013,0,0,1,.484-2.242A3.546,3.546,0,0,1,37.43,6.93a4.069,4.069,0,0,1,2.113-.539,3.849,3.849,0,0,1,2.793,1.047,4.2,4.2,0,0,1,1.207,2.844l.016.578a4.418,4.418,0,0,1-1.086,3.121,4.209,4.209,0,0,1-5.832,0,4.5,4.5,0,0,1-1.09-3.187Zm2.258.16a3.16,3.16,0,0,0,.453,1.843,1.628,1.628,0,0,0,2.578.008,3.457,3.457,0,0,0,.461-2.015A3.128,3.128,0,0,0,40.84,8.86a1.5,1.5,0,0,0-1.3-.649,1.474,1.474,0,0,0-1.281.646A3.516,3.516,0,0,0,37.809,10.856Zm6.789-.145a5.094,5.094,0,0,1,.887-3.148A2.877,2.877,0,0,1,47.91,6.391a2.589,2.589,0,0,1,2.039.922V3h2.266V15H50.176l-.109-.9a2.657,2.657,0,0,1-2.172,1.055A2.869,2.869,0,0,1,45.5,13.98,5.258,5.258,0,0,1,44.6,10.711Zm2.258.161A3.355,3.355,0,0,0,47.27,12.7a1.348,1.348,0,0,0,1.2.636,1.51,1.51,0,0,0,1.477-.887V9.1a1.489,1.489,0,0,0-1.461-.887Q46.855,8.211,46.855,10.872Zm12.172,3.269a2.831,2.831,0,0,1-2.312,1.016,2.67,2.67,0,0,1-2.074-.781,3.335,3.335,0,0,1-.73-2.289V6.547h2.258v5.467q0,1.322,1.2,1.322a1.63,1.63,0,0,0,1.578-.8V6.547h2.266V15H59.09Zm7.406-.8a1.481,1.481,0,0,0,1.016-.344,1.2,1.2,0,0,0,.406-.914h2.117a2.9,2.9,0,0,1-.469,1.574,3.093,3.093,0,0,1-1.262,1.109,3.949,3.949,0,0,1-1.77.395A3.67,3.67,0,0,1,63.613,14a4.56,4.56,0,0,1-1.047-3.184v-.148a4.508,4.508,0,0,1,1.039-3.117,3.627,3.627,0,0,1,2.852-1.164,3.555,3.555,0,0,1,2.543.9,3.2,3.2,0,0,1,.973,2.4H67.855a1.551,1.551,0,0,0-.406-1.072,1.51,1.51,0,0,0-2.223.163,3.333,3.333,0,0,0-.4,1.866v.235a3.375,3.375,0,0,0,.4,1.878A1.377,1.377,0,0,0,66.434,13.336Zm7.531-8.867V6.547H75.41V8.2H73.965v4.219a1.007,1.007,0,0,0,.18.672.9.9,0,0,0,.688.2,3.6,3.6,0,0,0,.664-.055v1.711a4.648,4.648,0,0,1-1.367.2,2.156,2.156,0,0,1-2.422-2.4V8.2H70.473V6.547h1.234V4.469ZM76.082,10.7a5.013,5.013,0,0,1,.484-2.242A3.546,3.546,0,0,1,77.961,6.93a4.069,4.069,0,0,1,2.113-.539,3.849,3.849,0,0,1,2.793,1.047,4.2,4.2,0,0,1,1.207,2.844l.016.578A4.418,4.418,0,0,1,83,13.98a4.209,4.209,0,0,1-5.832,0,4.5,4.5,0,0,1-1.09-3.187Zm2.258.16a3.16,3.16,0,0,0,.453,1.843,1.628,1.628,0,0,0,2.578.008,3.457,3.457,0,0,0,.461-2.015,3.128,3.128,0,0,0-.461-1.831,1.5,1.5,0,0,0-1.3-.649,1.474,1.474,0,0,0-1.281.646A3.516,3.516,0,0,0,78.34,10.856Zm11.719,1.808a.727.727,0,0,0-.41-.652,4.659,4.659,0,0,0-1.316-.426q-3.016-.633-3.016-2.562a2.323,2.323,0,0,1,.934-1.879,3.766,3.766,0,0,1,2.441-.754,4.053,4.053,0,0,1,2.574.758,2.388,2.388,0,0,1,.965,1.969H89.973a1.092,1.092,0,0,0-.312-.8A1.322,1.322,0,0,0,88.684,8a1.351,1.351,0,0,0-.883.258.814.814,0,0,0-.312.656.7.7,0,0,0,.355.605,3.657,3.657,0,0,0,1.2.4,9.8,9.8,0,0,1,1.422.379,2.336,2.336,0,0,1,1.789,2.273,2.2,2.2,0,0,1-.992,1.871,4.28,4.28,0,0,1-2.562.715,4.47,4.47,0,0,1-1.887-.379,3.166,3.166,0,0,1-1.293-1.039,2.414,2.414,0,0,1-.469-1.426h2.141a1.179,1.179,0,0,0,.445.922,1.766,1.766,0,0,0,1.109.32,1.635,1.635,0,0,0,.98-.246A.766.766,0,0,0,90.059,12.664ZM5.59,39V32.2H4.332V30.547H5.59v-.719a2.918,2.918,0,0,1,.816-2.207,3.162,3.162,0,0,1,2.285-.785,5.321,5.321,0,0,1,1.148.155l-.023,1.736a2.878,2.878,0,0,0-.687-.07q-1.273,0-1.273,1.205v.685h1.68V32.2H7.855V39Zm10.016,0a2.507,2.507,0,0,1-.227-.758,2.732,2.732,0,0,1-2.133.914,3,3,0,0,1-2.059-.719,2.312,2.312,0,0,1-.816-1.812,2.389,2.389,0,0,1,1-2.062,4.915,4.915,0,0,1,2.879-.727h1.039v-.484a1.393,1.393,0,0,0-.3-.937,1.183,1.183,0,0,0-.949-.352,1.345,1.345,0,0,0-.895.273.929.929,0,0,0-.324.75H10.559a2.268,2.268,0,0,1,.453-1.359,3,3,0,0,1,1.281-.98,4.669,4.669,0,0,1,1.859-.355,3.689,3.689,0,0,1,2.48.785,2.747,2.747,0,0,1,.918,2.207v3.664a4.041,4.041,0,0,0,.336,1.82V39Zm-1.867-1.57a1.945,1.945,0,0,0,.922-.223,1.462,1.462,0,0,0,.625-.6V35.156h-.844q-1.7,0-1.8,1.172l-.008.133a.9.9,0,0,0,.3.7A1.153,1.153,0,0,0,13.738,37.43Zm10.3-4.766a6.134,6.134,0,0,0-.812-.062,1.654,1.654,0,0,0-1.68.867V39H19.285V30.547h2.133l.063,1.008a2.092,2.092,0,0,1,1.883-1.164,2.366,2.366,0,0,1,.7.1Zm3.2-2.117.07.945a2.971,2.971,0,0,1,2.43-1.1A2.255,2.255,0,0,1,31.98,31.68a2.9,2.9,0,0,1,2.539-1.289,2.521,2.521,0,0,1,2.047.8,3.681,3.681,0,0,1,.672,2.41V39H34.973V33.6a1.616,1.616,0,0,0-.281-1.053,1.245,1.245,0,0,0-.992-.333,1.409,1.409,0,0,0-1.406.971L32.3,39H30.043V33.6a1.6,1.6,0,0,0-.289-1.065,1.257,1.257,0,0,0-.984-.329,1.463,1.463,0,0,0-1.391.8V39H25.121V30.547ZM43.871,39a2.507,2.507,0,0,1-.227-.758,2.732,2.732,0,0,1-2.133.914,3,3,0,0,1-2.059-.719,2.312,2.312,0,0,1-.816-1.812,2.389,2.389,0,0,1,1-2.062,4.915,4.915,0,0,1,2.879-.727h1.039v-.484a1.393,1.393,0,0,0-.3-.937,1.183,1.183,0,0,0-.949-.352,1.345,1.345,0,0,0-.895.273.929.929,0,0,0-.324.75H38.824a2.268,2.268,0,0,1,.453-1.359,3,3,0,0,1,1.281-.98,4.669,4.669,0,0,1,1.859-.355,3.689,3.689,0,0,1,2.48.785,2.747,2.747,0,0,1,.918,2.207v3.664a4.041,4.041,0,0,0,.336,1.82V39ZM42,37.43a1.945,1.945,0,0,0,.922-.223,1.462,1.462,0,0,0,.625-.6V35.156h-.844q-1.7,0-1.8,1.172l-.008.133a.9.9,0,0,0,.3.7A1.153,1.153,0,0,0,42,37.43Zm9.063-.094a1.481,1.481,0,0,0,1.016-.344,1.2,1.2,0,0,0,.406-.914h2.117a2.9,2.9,0,0,1-.469,1.574,3.093,3.093,0,0,1-1.262,1.109,3.949,3.949,0,0,1-1.77.395A3.67,3.67,0,0,1,48.246,38,4.56,4.56,0,0,1,47.2,34.82v-.148a4.508,4.508,0,0,1,1.039-3.117,3.627,3.627,0,0,1,2.852-1.164,3.555,3.555,0,0,1,2.543.9,3.2,3.2,0,0,1,.973,2.4H52.488a1.551,1.551,0,0,0-.406-1.072,1.51,1.51,0,0,0-2.223.163,3.333,3.333,0,0,0-.4,1.866v.235a3.375,3.375,0,0,0,.4,1.878A1.377,1.377,0,0,0,51.066,37.336Zm8.719,1.82a4.15,4.15,0,0,1-3.027-1.141,4.054,4.054,0,0,1-1.168-3.039v-.219a5.106,5.106,0,0,1,.492-2.277,3.612,3.612,0,0,1,1.395-1.547,3.914,3.914,0,0,1,2.059-.543,3.508,3.508,0,0,1,2.73,1.094,4.444,4.444,0,0,1,1,3.1v.922H57.879a2.1,2.1,0,0,0,.66,1.328,2,2,0,0,0,1.395.5,2.437,2.437,0,0,0,2.039-.945l1.109,1.242a3.389,3.389,0,0,1-1.375,1.121A4.511,4.511,0,0,1,59.785,39.156Zm-.258-6.945a1.411,1.411,0,0,0-1.09.455,2.357,2.357,0,0,0-.535,1.3h3.141v-.181a1.681,1.681,0,0,0-.406-1.165A1.456,1.456,0,0,0,59.527,32.211ZM59.73,27h2.461l-2.164,2.422H58.191Zm9.875,11.141a2.831,2.831,0,0,1-2.312,1.016,2.67,2.67,0,0,1-2.074-.781,3.335,3.335,0,0,1-.73-2.289V30.547h2.258v5.467q0,1.322,1.2,1.322a1.63,1.63,0,0,0,1.578-.8V30.547h2.266V39H69.668ZM76.2,28.469v2.078h1.445V32.2H76.2v4.219a1.007,1.007,0,0,0,.18.672.9.9,0,0,0,.688.2,3.6,3.6,0,0,0,.664-.055v1.711a4.648,4.648,0,0,1-1.367.2,2.156,2.156,0,0,1-2.422-2.4V32.2H72.707V30.547h1.234V28.469ZM81.285,39H79.02V30.547h2.266Zm-2.4-10.641a1.112,1.112,0,0,1,.34-.836,1.465,1.465,0,0,1,1.848,0,1.193,1.193,0,0,1,0,1.68,1.448,1.448,0,0,1-1.836,0A1.108,1.108,0,0,1,78.887,28.359Zm7.773,8.977a1.481,1.481,0,0,0,1.016-.344,1.2,1.2,0,0,0,.406-.914H90.2a2.9,2.9,0,0,1-.469,1.574,3.093,3.093,0,0,1-1.262,1.109,3.949,3.949,0,0,1-1.77.395A3.67,3.67,0,0,1,83.84,38a4.56,4.56,0,0,1-1.047-3.184v-.148a4.508,4.508,0,0,1,1.039-3.117,3.627,3.627,0,0,1,2.852-1.164,3.555,3.555,0,0,1,2.543.9,3.2,3.2,0,0,1,.973,2.4H88.082a1.551,1.551,0,0,0-.406-1.072,1.51,1.51,0,0,0-2.223.163,3.333,3.333,0,0,0-.4,1.866v.235a3.375,3.375,0,0,0,.4,1.878A1.377,1.377,0,0,0,86.66,37.336ZM91.137,34.7a5.013,5.013,0,0,1,.484-2.242,3.546,3.546,0,0,1,1.395-1.523,4.069,4.069,0,0,1,2.113-.539,3.849,3.849,0,0,1,2.793,1.047,4.2,4.2,0,0,1,1.207,2.844l.016.578a4.418,4.418,0,0,1-1.086,3.121,4.209,4.209,0,0,1-5.832,0,4.5,4.5,0,0,1-1.09-3.187Zm2.258.16a3.16,3.16,0,0,0,.453,1.843,1.628,1.628,0,0,0,2.578.008,3.457,3.457,0,0,0,.461-2.015,3.128,3.128,0,0,0-.461-1.831,1.5,1.5,0,0,0-1.3-.649,1.474,1.474,0,0,0-1.281.646A3.516,3.516,0,0,0,93.395,34.856Zm11.719,1.808a.727.727,0,0,0-.41-.652,4.659,4.659,0,0,0-1.316-.426q-3.016-.633-3.016-2.562a2.323,2.323,0,0,1,.934-1.879,3.766,3.766,0,0,1,2.441-.754,4.053,4.053,0,0,1,2.574.758,2.388,2.388,0,0,1,.965,1.969h-2.258a1.092,1.092,0,0,0-.312-.8,1.322,1.322,0,0,0-.977-.316,1.351,1.351,0,0,0-.883.258.814.814,0,0,0-.312.656.7.7,0,0,0,.355.605,3.657,3.657,0,0,0,1.2.4,9.8,9.8,0,0,1,1.422.379,2.336,2.336,0,0,1,1.789,2.273,2.2,2.2,0,0,1-.992,1.871,4.28,4.28,0,0,1-2.562.715,4.47,4.47,0,0,1-1.887-.379,3.166,3.166,0,0,1-1.293-1.039,2.414,2.414,0,0,1-.469-1.426h2.141a1.179,1.179,0,0,0,.445.922,1.766,1.766,0,0,0,1.109.32,1.635,1.635,0,0,0,.98-.246A.766.766,0,0,0,105.113,36.664Z" transform="translate(597 4474)" fill="#fff"/>
    <path id="Trazado_206992" data-name="Trazado 206992" d="M8.473,10.992V15H6.129V3.625h4.438a5.134,5.134,0,0,1,2.254.469,3.454,3.454,0,0,1,1.5,1.332,3.714,3.714,0,0,1,.523,1.965A3.266,3.266,0,0,1,13.7,10.027a4.767,4.767,0,0,1-3.168.965Zm0-1.9h2.094a2.059,2.059,0,0,0,1.418-.437,1.591,1.591,0,0,0,.488-1.25,1.876,1.876,0,0,0-.492-1.352,1.839,1.839,0,0,0-1.359-.531H8.473ZM21.113,15a2.507,2.507,0,0,1-.227-.758,2.732,2.732,0,0,1-2.133.914,3,3,0,0,1-2.059-.719,2.312,2.312,0,0,1-.816-1.812,2.389,2.389,0,0,1,1-2.062,4.915,4.915,0,0,1,2.879-.727h1.039V9.352a1.393,1.393,0,0,0-.3-.937,1.183,1.183,0,0,0-.949-.352,1.345,1.345,0,0,0-.895.273.929.929,0,0,0-.324.75H16.066a2.268,2.268,0,0,1,.453-1.359,3,3,0,0,1,1.281-.98,4.669,4.669,0,0,1,1.859-.355,3.689,3.689,0,0,1,2.48.785,2.747,2.747,0,0,1,.918,2.207v3.664a4.041,4.041,0,0,0,.336,1.82V15Zm-1.867-1.57a1.945,1.945,0,0,0,.922-.223,1.462,1.462,0,0,0,.625-.6V11.156h-.844q-1.7,0-1.8,1.172l-.008.133a.9.9,0,0,0,.3.7A1.153,1.153,0,0,0,19.246,13.43ZM32.4,10.852a5.07,5.07,0,0,1-.887,3.129,2.843,2.843,0,0,1-2.395,1.176,2.633,2.633,0,0,1-2.07-.891V18.25H24.793V6.547h2.094l.078.828a2.654,2.654,0,0,1,2.141-.984,2.862,2.862,0,0,1,2.43,1.156,5.207,5.207,0,0,1,.867,3.188Zm-2.258-.172a3.345,3.345,0,0,0-.418-1.826,1.36,1.36,0,0,0-1.215-.643,1.478,1.478,0,0,0-1.461.815V12.5a1.5,1.5,0,0,0,1.477.839Q30.145,13.336,30.145,10.679Zm7.547,4.477a4.15,4.15,0,0,1-3.027-1.141A4.054,4.054,0,0,1,33.5,10.977v-.219a5.106,5.106,0,0,1,.492-2.277,3.612,3.612,0,0,1,1.395-1.547,3.914,3.914,0,0,1,2.059-.543,3.508,3.508,0,0,1,2.73,1.094,4.444,4.444,0,0,1,1,3.1v.922H35.785a2.1,2.1,0,0,0,.66,1.328,2,2,0,0,0,1.395.5,2.437,2.437,0,0,0,2.039-.945l1.109,1.242a3.389,3.389,0,0,1-1.375,1.121A4.511,4.511,0,0,1,37.691,15.156Zm-.258-6.945a1.411,1.411,0,0,0-1.09.455,2.357,2.357,0,0,0-.535,1.3h3.141V9.788a1.681,1.681,0,0,0-.406-1.165A1.456,1.456,0,0,0,37.434,8.211ZM44.832,15H42.566V3h2.266Zm5.75.156a4.15,4.15,0,0,1-3.027-1.141,4.054,4.054,0,0,1-1.168-3.039v-.219a5.106,5.106,0,0,1,.492-2.277,3.612,3.612,0,0,1,1.395-1.547,3.914,3.914,0,0,1,2.059-.543,3.508,3.508,0,0,1,2.73,1.094,4.444,4.444,0,0,1,1,3.1v.922H48.676a2.1,2.1,0,0,0,.66,1.328,2,2,0,0,0,1.395.5,2.437,2.437,0,0,0,2.039-.945l1.109,1.242A3.389,3.389,0,0,1,52.5,14.754,4.511,4.511,0,0,1,50.582,15.156Zm-.258-6.945a1.411,1.411,0,0,0-1.09.455,2.357,2.357,0,0,0-.535,1.3H51.84V9.788a1.681,1.681,0,0,0-.406-1.165A1.456,1.456,0,0,0,50.324,8.211Zm9.766.453a6.134,6.134,0,0,0-.812-.062,1.654,1.654,0,0,0-1.68.867V15H55.34V6.547h2.133l.063,1.008a2.092,2.092,0,0,1,1.883-1.164,2.366,2.366,0,0,1,.7.1ZM63.613,15H61.355V6.547h2.258ZM62.949,3.117H65.41L63.246,5.539H61.41ZM70.457,15a2.507,2.507,0,0,1-.227-.758,2.732,2.732,0,0,1-2.133.914,3,3,0,0,1-2.059-.719,2.312,2.312,0,0,1-.816-1.812,2.389,2.389,0,0,1,1-2.062A4.915,4.915,0,0,1,69.1,9.836h1.039V9.352a1.393,1.393,0,0,0-.3-.937,1.183,1.183,0,0,0-.949-.352,1.345,1.345,0,0,0-.895.273.929.929,0,0,0-.324.75H65.41a2.268,2.268,0,0,1,.453-1.359,3,3,0,0,1,1.281-.98A4.669,4.669,0,0,1,69,6.391a3.689,3.689,0,0,1,2.48.785A2.747,2.747,0,0,1,72.4,9.383v3.664a4.041,4.041,0,0,0,.336,1.82V15ZM68.59,13.43a1.945,1.945,0,0,0,.922-.223,1.462,1.462,0,0,0,.625-.6V11.156h-.844q-1.7,0-1.8,1.172l-.008.133a.9.9,0,0,0,.3.7A1.153,1.153,0,0,0,68.59,13.43Zm5.656.461a1.137,1.137,0,0,1,.363-.875,1.412,1.412,0,0,1,1.828,0,1.137,1.137,0,0,1,.363.875,1.121,1.121,0,0,1-.359.863,1.435,1.435,0,0,1-1.836,0A1.121,1.121,0,0,1,74.246,13.891Zm0-6.4a1.137,1.137,0,0,1,.363-.875,1.412,1.412,0,0,1,1.828,0,1.137,1.137,0,0,1,.363.875,1.121,1.121,0,0,1-.359.863,1.435,1.435,0,0,1-1.836,0A1.121,1.121,0,0,1,74.246,7.492ZM85.02,15H82.754V3H85.02Zm6.758,0a2.507,2.507,0,0,1-.227-.758,2.732,2.732,0,0,1-2.133.914,3,3,0,0,1-2.059-.719,2.312,2.312,0,0,1-.816-1.812,2.389,2.389,0,0,1,1-2.062,4.915,4.915,0,0,1,2.879-.727h1.039V9.352a1.393,1.393,0,0,0-.3-.937,1.183,1.183,0,0,0-.949-.352,1.345,1.345,0,0,0-.895.273.929.929,0,0,0-.324.75H86.73a2.268,2.268,0,0,1,.453-1.359,3,3,0,0,1,1.281-.98,4.669,4.669,0,0,1,1.859-.355,3.689,3.689,0,0,1,2.48.785,2.747,2.747,0,0,1,.918,2.207v3.664a4.041,4.041,0,0,0,.336,1.82V15ZM89.91,13.43a1.945,1.945,0,0,0,.922-.223,1.462,1.462,0,0,0,.625-.6V11.156h-.844q-1.7,0-1.8,1.172l-.008.133a.9.9,0,0,0,.3.7A1.153,1.153,0,0,0,89.91,13.43ZM90.77,3H93.23L91.066,5.422H89.23Zm12.3,7.852a5.07,5.07,0,0,1-.887,3.129,2.843,2.843,0,0,1-2.395,1.176,2.633,2.633,0,0,1-2.07-.891V18.25H95.457V6.547h2.094l.078.828a2.654,2.654,0,0,1,2.141-.984,2.862,2.862,0,0,1,2.43,1.156,5.207,5.207,0,0,1,.867,3.188Zm-2.258-.172a3.345,3.345,0,0,0-.418-1.826,1.36,1.36,0,0,0-1.215-.643,1.478,1.478,0,0,0-1.461.815V12.5a1.5,1.5,0,0,0,1.477.839Q100.809,13.336,100.809,10.679ZM106.848,15h-2.266V6.547h2.266Zm-2.4-10.641a1.112,1.112,0,0,1,.34-.836,1.465,1.465,0,0,1,1.848,0,1.105,1.105,0,0,1,.344.836,1.108,1.108,0,0,1-.348.844,1.448,1.448,0,0,1-1.836,0A1.108,1.108,0,0,1,104.449,4.359Zm6.852,8.82h4.133V15h-7.016V13.625l3.977-5.258h-3.859V6.547h6.773v1.33Zm6.133,4.672-1.18-.617.281-.508a4.059,4.059,0,0,0,.539-1.9v-1.75h1.906l-.008,1.563a4.059,4.059,0,0,1-.437,1.75A4.486,4.486,0,0,1,117.434,17.852Zm-83.668,17a5.07,5.07,0,0,1-.887,3.129,2.843,2.843,0,0,1-2.395,1.176,2.633,2.633,0,0,1-2.07-.891V42.25H26.156v-11.7H28.25l.078.828a2.654,2.654,0,0,1,2.141-.984,2.862,2.862,0,0,1,2.43,1.156,5.207,5.207,0,0,1,.867,3.188Zm-2.258-.172a3.345,3.345,0,0,0-.418-1.826,1.36,1.36,0,0,0-1.215-.643,1.478,1.478,0,0,0-1.461.815V36.5a1.5,1.5,0,0,0,1.477.839Q31.508,37.336,31.508,34.679ZM40.063,39a2.507,2.507,0,0,1-.227-.758,2.732,2.732,0,0,1-2.133.914,3,3,0,0,1-2.059-.719,2.312,2.312,0,0,1-.816-1.812,2.389,2.389,0,0,1,1-2.062,4.915,4.915,0,0,1,2.879-.727h1.039v-.484a1.393,1.393,0,0,0-.3-.937,1.183,1.183,0,0,0-.949-.352,1.345,1.345,0,0,0-.895.273.929.929,0,0,0-.324.75H35.016a2.268,2.268,0,0,1,.453-1.359,3,3,0,0,1,1.281-.98,4.669,4.669,0,0,1,1.859-.355,3.689,3.689,0,0,1,2.48.785,2.747,2.747,0,0,1,.918,2.207v3.664a4.041,4.041,0,0,0,.336,1.82V39ZM38.2,37.43a1.945,1.945,0,0,0,.922-.223,1.462,1.462,0,0,0,.625-.6V35.156H38.9q-1.7,0-1.8,1.172l-.008.133a.9.9,0,0,0,.3.7A1.153,1.153,0,0,0,38.2,37.43Zm13.156-2.578a5.07,5.07,0,0,1-.887,3.129,2.843,2.843,0,0,1-2.395,1.176A2.633,2.633,0,0,1,46,38.266V42.25H43.742v-11.7h2.094l.078.828a2.654,2.654,0,0,1,2.141-.984,2.862,2.862,0,0,1,2.43,1.156,5.207,5.207,0,0,1,.867,3.188Zm-2.258-.172a3.345,3.345,0,0,0-.418-1.826,1.36,1.36,0,0,0-1.215-.643A1.478,1.478,0,0,0,46,33.026V36.5a1.5,1.5,0,0,0,1.477.839Q49.094,37.336,49.094,34.679Zm7.547,4.477a4.15,4.15,0,0,1-3.027-1.141,4.054,4.054,0,0,1-1.168-3.039v-.219a5.106,5.106,0,0,1,.492-2.277,3.612,3.612,0,0,1,1.395-1.547,3.914,3.914,0,0,1,2.059-.543,3.508,3.508,0,0,1,2.73,1.094,4.444,4.444,0,0,1,1,3.1v.922H54.734a2.1,2.1,0,0,0,.66,1.328,2,2,0,0,0,1.395.5,2.437,2.437,0,0,0,2.039-.945l1.109,1.242a3.389,3.389,0,0,1-1.375,1.121A4.511,4.511,0,0,1,56.641,39.156Zm-.258-6.945a1.411,1.411,0,0,0-1.09.455,2.357,2.357,0,0,0-.535,1.3H57.9v-.181a1.681,1.681,0,0,0-.406-1.165A1.456,1.456,0,0,0,56.383,32.211ZM63.781,39H61.516V27h2.266Zm2.445,2.852-1.18-.617.281-.508a4.059,4.059,0,0,0,.539-1.9v-1.75h1.906l-.008,1.563a4.059,4.059,0,0,1-.437,1.75A4.486,4.486,0,0,1,66.227,41.852Zm11.2-2.7a4.15,4.15,0,0,1-3.027-1.141,4.054,4.054,0,0,1-1.168-3.039v-.219a5.106,5.106,0,0,1,.492-2.277,3.612,3.612,0,0,1,1.395-1.547,3.914,3.914,0,0,1,2.059-.543,3.508,3.508,0,0,1,2.73,1.094,4.444,4.444,0,0,1,1,3.1v.922H75.516a2.1,2.1,0,0,0,.66,1.328,2,2,0,0,0,1.395.5,2.437,2.437,0,0,0,2.039-.945l1.109,1.242a3.389,3.389,0,0,1-1.375,1.121A4.511,4.511,0,0,1,77.422,39.156Zm-.258-6.945a1.411,1.411,0,0,0-1.09.455,2.357,2.357,0,0,0-.535,1.3H78.68v-.181a1.681,1.681,0,0,0-.406-1.165A1.456,1.456,0,0,0,77.164,32.211Zm7.719-3.742v2.078h1.445V32.2H84.883v4.219a1.007,1.007,0,0,0,.18.672.9.9,0,0,0,.688.2,3.6,3.6,0,0,0,.664-.055v1.711a4.648,4.648,0,0,1-1.367.2,2.156,2.156,0,0,1-2.422-2.4V32.2H81.391V30.547h1.234V28.469ZM91.1,37.336a1.481,1.481,0,0,0,1.016-.344,1.2,1.2,0,0,0,.406-.914h2.117a2.9,2.9,0,0,1-.469,1.574,3.093,3.093,0,0,1-1.262,1.109,3.949,3.949,0,0,1-1.77.395A3.67,3.67,0,0,1,88.281,38a4.56,4.56,0,0,1-1.047-3.184v-.148a4.508,4.508,0,0,1,1.039-3.117,3.627,3.627,0,0,1,2.852-1.164,3.555,3.555,0,0,1,2.543.9,3.2,3.2,0,0,1,.973,2.4H92.523a1.551,1.551,0,0,0-.406-1.072,1.51,1.51,0,0,0-2.223.163,3.333,3.333,0,0,0-.4,1.866v.235a3.375,3.375,0,0,0,.4,1.878A1.377,1.377,0,0,0,91.1,37.336Zm4.945.555a1.137,1.137,0,0,1,.363-.875,1.412,1.412,0,0,1,1.828,0,1.137,1.137,0,0,1,.363.875,1.121,1.121,0,0,1-.359.863,1.435,1.435,0,0,1-1.836,0A1.121,1.121,0,0,1,96.047,37.891Z" transform="translate(895 4162)" fill="#fff"/>
    <path id="Trazado_206993" data-name="Trazado 206993" d="M26.355,13.961q.164-.93-.914-1.422l-1.508-.6q-2.625-1.172-2.492-3.227a2.964,2.964,0,0,1,.625-1.687,3.758,3.758,0,0,1,1.6-1.152,5.67,5.67,0,0,1,2.227-.4,3.857,3.857,0,0,1,2.664.98,3.267,3.267,0,0,1,1,2.543H27.277a1.628,1.628,0,0,0-.34-1.2,1.531,1.531,0,0,0-1.176-.445A2.37,2.37,0,0,0,24.4,7.7a1.458,1.458,0,0,0-.687,1.02q-.148.852,1.141,1.352l1.031.391.594.273q2.3,1.141,2.156,3.2a3.09,3.09,0,0,1-.645,1.738A3.633,3.633,0,0,1,26.43,16.8a5.565,5.565,0,0,1-2.176.367,4.873,4.873,0,0,1-2.156-.508,3.349,3.349,0,0,1-1.437-1.367,3.54,3.54,0,0,1-.43-1.875l2.289.008q-.109,1.852,1.82,1.883a2.392,2.392,0,0,0,1.375-.367A1.43,1.43,0,0,0,26.355,13.961Zm8.055-5.57a3.39,3.39,0,0,1,1.926.574A3.234,3.234,0,0,1,37.523,10.5a4.762,4.762,0,0,1,.27,2.176,5.143,5.143,0,0,1-1.4,3.262,3.96,3.96,0,0,1-3.02,1.215,3.38,3.38,0,0,1-1.906-.566,3.222,3.222,0,0,1-1.187-1.527A4.657,4.657,0,0,1,30,12.906a5.3,5.3,0,0,1,1.422-3.328A3.878,3.878,0,0,1,34.41,8.391Zm-2.227,5.315a1.95,1.95,0,0,0,.352,1.182,1.168,1.168,0,0,0,.945.449,1.712,1.712,0,0,0,1.594-.932,4.647,4.647,0,0,0,.539-2.531,2.122,2.122,0,0,0-.363-1.2,1.149,1.149,0,0,0-.949-.464,1.715,1.715,0,0,0-1.574.924A4.6,4.6,0,0,0,32.184,13.706ZM39.02,17l1.18-6.8H38.98l.289-1.648,1.219-.008L40.6,7.7a3.332,3.332,0,0,1,1.1-2.121,3.334,3.334,0,0,1,2.289-.754,7.33,7.33,0,0,1,1.2.163l-.2,1.751a2.732,2.732,0,0,0-.648-.094,1.615,1.615,0,0,0-1,.3,1.355,1.355,0,0,0-.52.918l-.117.69h1.633L44.043,10.2H42.418L41.238,17ZM48.535,6.469l-.367,2.078h1.406L49.285,10.2H47.879l-.719,4.234a1.077,1.077,0,0,0,.063.609q.109.211.531.227.125.008.672-.039l-.156,1.727a3.706,3.706,0,0,1-1.266.18,1.985,1.985,0,0,1-1.617-.68,2.456,2.456,0,0,1-.437-1.8l.727-4.461h-1.2l.289-1.656h1.2l.359-2.078Zm8.484,7.453,2.008-5.375h2.2L57.668,17H55.824L55.2,11.711,52.73,17H50.887l-.625-8.453h2.063l.133,5.32,2.414-5.32h1.594ZM65.762,17a2.281,2.281,0,0,1-.086-.766,2.863,2.863,0,0,1-2.156.922,2.594,2.594,0,0,1-1.84-.723A2.186,2.186,0,0,1,61,14.688a2.527,2.527,0,0,1,1.16-2.121,5.266,5.266,0,0,1,2.965-.738l1.031.016.109-.508a1.764,1.764,0,0,0,.023-.492.846.846,0,0,0-.277-.574.955.955,0,0,0-.629-.215,1.345,1.345,0,0,0-.875.254,1.231,1.231,0,0,0-.461.777l-2.211.008a2.457,2.457,0,0,1,1.113-1.965,4.312,4.312,0,0,1,2.613-.738,3.117,3.117,0,0,1,2.25.855,2.5,2.5,0,0,1,.68,2.121l-.648,4.047-.039.5a2.412,2.412,0,0,0,.133.938L67.926,17Zm-1.7-1.555a2.017,2.017,0,0,0,1.664-.828L66,13.156l-.766-.008a2.139,2.139,0,0,0-1.758.742,1.292,1.292,0,0,0-.242.633.75.75,0,0,0,.176.668A.891.891,0,0,0,64.066,15.445Zm10.992-4.781a4.548,4.548,0,0,0-.742-.078,2.136,2.136,0,0,0-1.867.883L71.473,17h-2.2l1.469-8.453,2.07-.008-.2,1.031a2.325,2.325,0,0,1,1.969-1.2,3.214,3.214,0,0,1,.766.109Zm3.969,6.492a3.677,3.677,0,0,1-1.965-.543,3.292,3.292,0,0,1-1.277-1.469,4.093,4.093,0,0,1-.328-2.059l.023-.312a5.465,5.465,0,0,1,.719-2.266,4.341,4.341,0,0,1,1.547-1.59,3.827,3.827,0,0,1,2.094-.527,2.924,2.924,0,0,1,2.473,1.2,4.117,4.117,0,0,1,.637,2.962l-.125.962h-5.18a1.814,1.814,0,0,0,.4,1.313,1.521,1.521,0,0,0,1.172.508,2.7,2.7,0,0,0,2.109-.937l1.008,1.25a3.135,3.135,0,0,1-1.375,1.121A4.5,4.5,0,0,1,79.027,17.156Zm.7-6.945a1.565,1.565,0,0,0-1.082.383,3.363,3.363,0,0,0-.848,1.383h3.031l.047-.2a2.071,2.071,0,0,0,.008-.594,1.134,1.134,0,0,0-.383-.707A1.2,1.2,0,0,0,79.73,10.211Zm8.188,2.5A5.094,5.094,0,0,1,88.8,9.563,2.877,2.877,0,0,1,91.23,8.391a2.589,2.589,0,0,1,2.039.922V5h2.266V17H93.5l-.109-.9a2.657,2.657,0,0,1-2.172,1.055A2.869,2.869,0,0,1,88.82,15.98,5.258,5.258,0,0,1,87.918,12.711Zm2.258.161A3.355,3.355,0,0,0,90.59,14.7a1.348,1.348,0,0,0,1.2.636,1.51,1.51,0,0,0,1.477-.887V11.1a1.489,1.489,0,0,0-1.461-.887Q90.176,10.211,90.176,12.872Zm11,4.285a4.15,4.15,0,0,1-3.027-1.141,4.054,4.054,0,0,1-1.168-3.039v-.219a5.106,5.106,0,0,1,.492-2.277,3.612,3.612,0,0,1,1.395-1.547,3.914,3.914,0,0,1,2.059-.543,3.508,3.508,0,0,1,2.73,1.094,4.444,4.444,0,0,1,1,3.1v.922H99.27a2.1,2.1,0,0,0,.66,1.328,2,2,0,0,0,1.395.5,2.437,2.437,0,0,0,2.039-.945l1.109,1.242a3.389,3.389,0,0,1-1.375,1.121A4.511,4.511,0,0,1,101.176,17.156Zm-.258-6.945a1.411,1.411,0,0,0-1.09.455,2.357,2.357,0,0,0-.535,1.3h3.141v-.181a1.681,1.681,0,0,0-.406-1.165A1.456,1.456,0,0,0,100.918,10.211Zm-64.711,26.5a4.954,4.954,0,0,1,.926-3.133,3,3,0,0,1,2.5-1.187,2.631,2.631,0,0,1,2.164.953l.094-.8h2.047v8.172a3.613,3.613,0,0,1-.5,1.93,3.236,3.236,0,0,1-1.418,1.25,4.985,4.985,0,0,1-2.141.43,4.635,4.635,0,0,1-1.812-.371A3.217,3.217,0,0,1,36.723,43l1-1.375a2.645,2.645,0,0,0,2.047.945,1.936,1.936,0,0,0,1.4-.48,1.8,1.8,0,0,0,.5-1.363v-.453a2.612,2.612,0,0,1-2.055.883,2.992,2.992,0,0,1-2.465-1.191,4.953,4.953,0,0,1-.941-3.16Zm2.258.161a3.1,3.1,0,0,0,.461,1.809,1.465,1.465,0,0,0,1.266.655,1.567,1.567,0,0,0,1.477-.777V34.988a1.563,1.563,0,0,0-1.461-.777,1.474,1.474,0,0,0-1.277.667A3.5,3.5,0,0,0,38.465,36.872Zm11.094,4.285a4.15,4.15,0,0,1-3.027-1.141,4.054,4.054,0,0,1-1.168-3.039v-.219a5.106,5.106,0,0,1,.492-2.277,3.612,3.612,0,0,1,1.395-1.547,3.914,3.914,0,0,1,2.059-.543,3.508,3.508,0,0,1,2.73,1.094,4.444,4.444,0,0,1,1,3.1v.922H47.652a2.1,2.1,0,0,0,.66,1.328,2,2,0,0,0,1.395.5,2.437,2.437,0,0,0,2.039-.945l1.109,1.242a3.389,3.389,0,0,1-1.375,1.121A4.511,4.511,0,0,1,49.559,41.156ZM49.3,34.211a1.411,1.411,0,0,0-1.09.455,2.357,2.357,0,0,0-.535,1.3h3.141v-.181a1.681,1.681,0,0,0-.406-1.165A1.456,1.456,0,0,0,49.3,34.211Zm9.594,4.453a.727.727,0,0,0-.41-.652,4.659,4.659,0,0,0-1.316-.426q-3.016-.633-3.016-2.562a2.323,2.323,0,0,1,.934-1.879,3.766,3.766,0,0,1,2.441-.754,4.053,4.053,0,0,1,2.574.758,2.388,2.388,0,0,1,.965,1.969H58.809a1.092,1.092,0,0,0-.312-.8A1.322,1.322,0,0,0,57.52,34a1.351,1.351,0,0,0-.883.258.814.814,0,0,0-.312.656.7.7,0,0,0,.355.605,3.657,3.657,0,0,0,1.2.4A9.8,9.8,0,0,1,59.3,36.3,2.336,2.336,0,0,1,61.09,38.57a2.205,2.205,0,0,1-.992,1.871,4.28,4.28,0,0,1-2.562.715,4.47,4.47,0,0,1-1.887-.379,3.166,3.166,0,0,1-1.293-1.039,2.414,2.414,0,0,1-.469-1.426h2.141a1.179,1.179,0,0,0,.445.922,1.766,1.766,0,0,0,1.109.32,1.635,1.635,0,0,0,.98-.246A.766.766,0,0,0,58.895,38.664Zm6.352-8.2v2.078h1.445V34.2H65.246v4.219a1.007,1.007,0,0,0,.18.672.9.9,0,0,0,.688.2,3.6,3.6,0,0,0,.664-.055v1.711a4.648,4.648,0,0,1-1.367.2,2.156,2.156,0,0,1-2.422-2.4V34.2H61.754V32.547h1.234V30.469ZM70.332,41H68.066V32.547h2.266Zm-2.4-10.641a1.112,1.112,0,0,1,.34-.836,1.465,1.465,0,0,1,1.848,0,1.193,1.193,0,0,1,0,1.68,1.448,1.448,0,0,1-1.836,0A1.108,1.108,0,0,1,67.934,30.359ZM71.84,36.7a5.013,5.013,0,0,1,.484-2.242,3.546,3.546,0,0,1,1.395-1.523,4.069,4.069,0,0,1,2.113-.539,3.849,3.849,0,0,1,2.793,1.047,4.2,4.2,0,0,1,1.207,2.844l.016.578a4.418,4.418,0,0,1-1.086,3.121,4.209,4.209,0,0,1-5.832,0A4.5,4.5,0,0,1,71.84,36.8Zm2.258.16a3.16,3.16,0,0,0,.453,1.843,1.628,1.628,0,0,0,2.578.008,3.457,3.457,0,0,0,.461-2.015,3.128,3.128,0,0,0-.461-1.831,1.5,1.5,0,0,0-1.3-.649,1.474,1.474,0,0,0-1.281.646A3.516,3.516,0,0,0,74.1,36.856ZM76.277,29h2.461l-2.164,2.422H74.738Zm7.039,3.547.07.977a2.951,2.951,0,0,1,2.43-1.133,2.453,2.453,0,0,1,2,.789,3.682,3.682,0,0,1,.672,2.359V41H86.23V35.581a1.47,1.47,0,0,0-.312-1.045,1.4,1.4,0,0,0-1.039-.325,1.553,1.553,0,0,0-1.43.814V41H81.191V32.547Z" transform="translate(895 4474)" fill="#12263f"/>
    <path id="Trazado_206994" data-name="Trazado 206994" d="M-.84-5.811A6.789,6.789,0,0,1-2.134-1.367,4.471,4.471,0,0,1-5.781.2,4.5,4.5,0,0,1-9.453-1.377a6.779,6.779,0,0,1-1.3-4.434v-2.6a6.789,6.789,0,0,1,1.294-4.443A4.483,4.483,0,0,1-5.8-14.414a4.484,4.484,0,0,1,3.662,1.572A6.8,6.8,0,0,1-.84-8.4ZM-4.131-8.828a5.071,5.071,0,0,0-.4-2.29,1.338,1.338,0,0,0-1.27-.757,1.307,1.307,0,0,0-1.235.7,4.777,4.777,0,0,0-.415,2.129V-5.41a5.109,5.109,0,0,0,.4,2.329,1.343,1.343,0,0,0,1.27.737,1.325,1.325,0,0,0,1.24-.718,4.878,4.878,0,0,0,.41-2.251ZM8.164,0h-3.3V-10.508l-3.242.947v-2.5l6.24-2.158h.3Z" transform="translate(759 4367)" fill="#ff9d00"/>
    <path id="Trazado_206995" data-name="Trazado 206995" d="M-.84-5.811A6.789,6.789,0,0,1-2.134-1.367,4.471,4.471,0,0,1-5.781.2,4.5,4.5,0,0,1-9.453-1.377a6.779,6.779,0,0,1-1.3-4.434v-2.6a6.789,6.789,0,0,1,1.294-4.443A4.483,4.483,0,0,1-5.8-14.414a4.484,4.484,0,0,1,3.662,1.572A6.8,6.8,0,0,1-.84-8.4ZM-4.131-8.828a5.071,5.071,0,0,0-.4-2.29,1.338,1.338,0,0,0-1.27-.757,1.307,1.307,0,0,0-1.235.7,4.777,4.777,0,0,0-.415,2.129V-5.41a5.109,5.109,0,0,0,.4,2.329,1.343,1.343,0,0,0,1.27.737,1.325,1.325,0,0,0,1.24-.718,4.878,4.878,0,0,0,.41-2.251ZM9.561-5.557h1.445v2.539H9.561V0H6.27V-3.018H.771l-.2-2.012,5.693-9.16v-.029H9.561Zm-5.85,0H6.27V-9.932L6.064-9.6Z" transform="translate(759 4451)" fill="#7e5ee3"/>
    <path id="Trazado_206996" data-name="Trazado 206996" d="M-.84-5.811A6.789,6.789,0,0,1-2.134-1.367,4.471,4.471,0,0,1-5.781.2,4.5,4.5,0,0,1-9.453-1.377a6.779,6.779,0,0,1-1.3-4.434v-2.6a6.789,6.789,0,0,1,1.294-4.443A4.483,4.483,0,0,1-5.8-14.414a4.484,4.484,0,0,1,3.662,1.572A6.8,6.8,0,0,1-.84-8.4ZM-4.131-8.828a5.071,5.071,0,0,0-.4-2.29,1.338,1.338,0,0,0-1.27-.757,1.307,1.307,0,0,0-1.235.7,4.777,4.777,0,0,0-.415,2.129V-5.41a5.109,5.109,0,0,0,.4,2.329,1.343,1.343,0,0,0,1.27.737,1.325,1.325,0,0,0,1.24-.718,4.878,4.878,0,0,0,.41-2.251ZM10.791,0H.869V-2.148l4.57-4.8Q7.129-8.877,7.129-10.01a2.126,2.126,0,0,0-.4-1.4,1.43,1.43,0,0,0-1.162-.479,1.447,1.447,0,0,0-1.221.64,2.629,2.629,0,0,0-.469,1.6H.576a4.67,4.67,0,0,1,.654-2.417A4.588,4.588,0,0,1,3.047-13.8a5.4,5.4,0,0,1,2.6-.625,5.308,5.308,0,0,1,3.55,1.064A3.8,3.8,0,0,1,10.439-10.3a4.439,4.439,0,0,1-.312,1.636A7.173,7.173,0,0,1,9.155-7,24.477,24.477,0,0,1,7.031-4.658L5.2-2.539h5.6Z" transform="translate(834 4367)" fill="#00bcd4"/>
    <path id="Trazado_206997" data-name="Trazado 206997" d="M-.84-5.811A6.789,6.789,0,0,1-2.134-1.367,4.471,4.471,0,0,1-5.781.2,4.5,4.5,0,0,1-9.453-1.377a6.779,6.779,0,0,1-1.3-4.434v-2.6a6.789,6.789,0,0,1,1.294-4.443A4.483,4.483,0,0,1-5.8-14.414a4.484,4.484,0,0,1,3.662,1.572A6.8,6.8,0,0,1-.84-8.4ZM-4.131-8.828a5.071,5.071,0,0,0-.4-2.29,1.338,1.338,0,0,0-1.27-.757,1.307,1.307,0,0,0-1.235.7,4.777,4.777,0,0,0-.415,2.129V-5.41a5.109,5.109,0,0,0,.4,2.329,1.343,1.343,0,0,0,1.27.737,1.325,1.325,0,0,0,1.24-.718,4.878,4.878,0,0,0,.41-2.251Zm8.008.342H5.43a1.614,1.614,0,0,0,1.846-1.807,1.562,1.562,0,0,0-.439-1.147,1.666,1.666,0,0,0-1.24-.444,1.784,1.784,0,0,0-1.138.381,1.162,1.162,0,0,0-.483.947H.684a3.369,3.369,0,0,1,.625-2,4.127,4.127,0,0,1,1.733-1.372,5.926,5.926,0,0,1,2.437-.493,5.823,5.823,0,0,1,3.73,1.084,3.6,3.6,0,0,1,1.357,2.979A3,3,0,0,1,10-8.628,4,4,0,0,1,8.369-7.3,3.823,3.823,0,0,1,10.146-6.06a3.279,3.279,0,0,1,.645,2.065A3.669,3.669,0,0,1,9.326-.947,6.08,6.08,0,0,1,5.479.2,6.306,6.306,0,0,1,2.886-.337,4.062,4.062,0,0,1,1.074-1.812,3.834,3.834,0,0,1,.459-3.955H3.77A1.482,1.482,0,0,0,4.3-2.822a1.862,1.862,0,0,0,1.3.479,1.95,1.95,0,0,0,1.387-.483A1.616,1.616,0,0,0,7.5-4.062a1.889,1.889,0,0,0-.537-1.523,2.245,2.245,0,0,0-1.484-.449h-1.6Z" transform="translate(834 4451)" fill="#81d4fa"/>
    <g id="Trazado_206998" data-name="Trazado 206998" transform="translate(601 4249)" fill="#fff">
      <path d="M 50 99 C 43.38460159301758 99 36.96761322021484 97.70458984375 30.92729377746582 95.14974975585938 C 25.09253311157227 92.68185424804688 19.85215950012207 89.14862823486328 15.35177326202393 84.64822387695312 C 10.85137367248535 80.14784240722656 7.318146705627441 74.90746307373047 4.850253105163574 69.07270812988281 C 2.295413255691528 63.03238677978516 1 56.61539840698242 1 50 C 1 43.38460159301758 2.295413255691528 36.96761322021484 4.850253105163574 30.92729377746582 C 7.318146705627441 25.09253311157227 10.85137367248535 19.85215950012207 15.35177326202393 15.35177326202393 C 19.85215950012207 10.85137367248535 25.09253311157227 7.318146705627441 30.92729377746582 4.850253105163574 C 36.96761322021484 2.295413255691528 43.38460159301758 1 50 1 C 56.61539840698242 1 63.03238677978516 2.295413255691528 69.07270812988281 4.850253105163574 C 74.90746307373047 7.318146705627441 80.14784240722656 10.85137367248535 84.64822387695312 15.35177326202393 C 89.14862823486328 19.85215950012207 92.68185424804688 25.09253311157227 95.14974975585938 30.92729377746582 C 97.70458984375 36.96761322021484 99 43.38460159301758 99 50 C 99 56.61539840698242 97.70458984375 63.03238677978516 95.14974975585938 69.07270812988281 C 92.68185424804688 74.90746307373047 89.14862823486328 80.14784240722656 84.64822387695312 84.64822387695312 C 80.14784240722656 89.14862823486328 74.90746307373047 92.68185424804688 69.07270812988281 95.14974975585938 C 63.03238677978516 97.70458984375 56.61539840698242 99 50 99 Z" stroke="none"/>
      <path d="M 50 2 C 43.51915740966797 2 37.23324203491211 3.268829345703125 31.31684112548828 5.771255493164062 C 25.60127258300781 8.188743591308594 20.46775817871094 11.64998626708984 16.05886840820312 16.05886840820312 C 11.64998626708984 20.46775817871094 8.188743591308594 25.60127258300781 5.771255493164062 31.31684112548828 C 3.268829345703125 37.23324203491211 2 43.51915740966797 2 50 C 2 56.48084259033203 3.268829345703125 62.76675796508789 5.771255493164062 68.68314361572266 C 8.188743591308594 74.39871215820312 11.64998626708984 79.53224182128906 16.05886840820312 83.94113159179688 C 20.46775817871094 88.34999847412109 25.60127258300781 91.81125640869141 31.31684112548828 94.22874450683594 C 37.23324203491211 96.73117065429688 43.51915740966797 98 50 98 C 56.48084259033203 98 62.76675796508789 96.73117065429688 68.68314361572266 94.22874450683594 C 74.39871215820312 91.81125640869141 79.53224182128906 88.34999847412109 83.94113159179688 83.94113159179688 C 88.34999847412109 79.53224182128906 91.81125640869141 74.39871215820312 94.22874450683594 68.68314361572266 C 96.73117065429688 62.76675796508789 98 56.48084259033203 98 50 C 98 43.51915740966797 96.73117065429688 37.23324203491211 94.22874450683594 31.31684112548828 C 91.81125640869141 25.60127258300781 88.34999847412109 20.46775817871094 83.94113159179688 16.05886840820312 C 79.53224182128906 11.64998626708984 74.39871215820312 8.188743591308594 68.68314361572266 5.771255493164062 C 62.76675796508789 3.268829345703125 56.48084259033203 2 50 2 M 50 0 C 77.61422729492188 0 100 22.38575744628906 100 50 C 100 77.61422729492188 77.61422729492188 100 50 100 C 22.38575744628906 100 0 77.61422729492188 0 50 C 0 22.38575744628906 22.38575744628906 0 50 0 Z" stroke="none" fill="#c3c0c0"/>
    </g>
    <g id="Grupo_156257" data-name="Grupo 156257" transform="translate(609.522 4258.601)">
      <path id="Trazado_190750" data-name="Trazado 190750" d="M63.012,10.24H18.95a8.638,8.638,0,0,0-8.71,8.71V62.756a8.638,8.638,0,0,0,8.71,8.71H62.756a8.638,8.638,0,0,0,8.71-8.71V18.95A8.275,8.275,0,0,0,63.012,10.24ZM31.5,17.925A7.173,7.173,0,1,1,24.33,25.1,7.331,7.331,0,0,1,31.5,17.925ZM24.33,61.731H22.536a2.562,2.562,0,1,1,0-5.123H24.33a2.562,2.562,0,0,1,0,5.123Zm11.784,0H34.32a2.562,2.562,0,1,1,0-5.123h1.793a2.567,2.567,0,0,1,2.562,2.562A2.755,2.755,0,0,1,36.114,61.731ZM21.256,49.179a2.765,2.765,0,0,1-2.562-3.586,12.921,12.921,0,0,1,8.454-8.966,12.723,12.723,0,0,0,8.71,0A13.071,13.071,0,0,1,40.981,39.7a12.255,12.255,0,0,1,3.33,5.892,2.765,2.765,0,0,1-2.562,3.586ZM47.642,61.731H45.848a2.562,2.562,0,1,1,0-5.123h1.793A2.755,2.755,0,0,1,50.2,59.169,2.567,2.567,0,0,1,47.642,61.731Zm11.784,0H57.632a2.562,2.562,0,1,1,0-5.123h1.793a2.755,2.755,0,0,1,2.562,2.562A2.567,2.567,0,0,1,59.426,61.731Zm2.562-21.775H51.74a2.755,2.755,0,0,1-2.562-2.562,2.567,2.567,0,0,1,2.562-2.562H61.987a2.42,2.42,0,0,1,2.562,2.562A2.755,2.755,0,0,1,61.987,39.956Zm0-10.247H51.74a2.567,2.567,0,0,1-2.562-2.562,2.755,2.755,0,0,1,2.562-2.562H61.987a2.562,2.562,0,0,1,0,5.123Z" fill="#ff9d00"/>
    </g>
    <g id="Trazado_206999" data-name="Trazado 206999" transform="translate(601 4540)" fill="#fff">
      <path d="M 50 99 C 43.38460159301758 99 36.96761322021484 97.70458984375 30.92729377746582 95.14974975585938 C 25.09253311157227 92.68185424804688 19.85215950012207 89.14862823486328 15.35177326202393 84.64822387695312 C 10.85137367248535 80.14784240722656 7.318146705627441 74.90746307373047 4.850253105163574 69.07270812988281 C 2.295413255691528 63.03238677978516 1 56.61539840698242 1 50 C 1 43.38460159301758 2.295413255691528 36.96761322021484 4.850253105163574 30.92729377746582 C 7.318146705627441 25.09253311157227 10.85137367248535 19.85215950012207 15.35177326202393 15.35177326202393 C 19.85215950012207 10.85137367248535 25.09253311157227 7.318146705627441 30.92729377746582 4.850253105163574 C 36.96761322021484 2.295413255691528 43.38460159301758 1 50 1 C 56.61539840698242 1 63.03238677978516 2.295413255691528 69.07270812988281 4.850253105163574 C 74.90746307373047 7.318146705627441 80.14784240722656 10.85137367248535 84.64822387695312 15.35177326202393 C 89.14862823486328 19.85215950012207 92.68185424804688 25.09253311157227 95.14974975585938 30.92729377746582 C 97.70458984375 36.96761322021484 99 43.38460159301758 99 50 C 99 56.61539840698242 97.70458984375 63.03238677978516 95.14974975585938 69.07270812988281 C 92.68185424804688 74.90746307373047 89.14862823486328 80.14784240722656 84.64822387695312 84.64822387695312 C 80.14784240722656 89.14862823486328 74.90746307373047 92.68185424804688 69.07270812988281 95.14974975585938 C 63.03238677978516 97.70458984375 56.61539840698242 99 50 99 Z" stroke="none"/>
      <path d="M 50 2 C 43.51915740966797 2 37.23324203491211 3.268829345703125 31.31684112548828 5.771255493164062 C 25.60127258300781 8.188743591308594 20.46775817871094 11.64998626708984 16.05886840820312 16.05886840820312 C 11.64998626708984 20.46775817871094 8.188743591308594 25.60127258300781 5.771255493164062 31.31684112548828 C 3.268829345703125 37.23324203491211 2 43.51915740966797 2 50 C 2 56.48084259033203 3.268829345703125 62.76675796508789 5.771255493164062 68.68314361572266 C 8.188743591308594 74.39871215820312 11.64998626708984 79.53224182128906 16.05886840820312 83.94113159179688 C 20.46775817871094 88.34999847412109 25.60127258300781 91.81125640869141 31.31684112548828 94.22874450683594 C 37.23324203491211 96.73117065429688 43.51915740966797 98 50 98 C 56.48084259033203 98 62.76675796508789 96.73117065429688 68.68314361572266 94.22874450683594 C 74.39871215820312 91.81125640869141 79.53224182128906 88.34999847412109 83.94113159179688 83.94113159179688 C 88.34999847412109 79.53224182128906 91.81125640869141 74.39871215820312 94.22874450683594 68.68314361572266 C 96.73117065429688 62.76675796508789 98 56.48084259033203 98 50 C 98 43.51915740966797 96.73117065429688 37.23324203491211 94.22874450683594 31.31684112548828 C 91.81125640869141 25.60127258300781 88.34999847412109 20.46775817871094 83.94113159179688 16.05886840820312 C 79.53224182128906 11.64998626708984 74.39871215820312 8.188743591308594 68.68314361572266 5.771255493164062 C 62.76675796508789 3.268829345703125 56.48084259033203 2 50 2 M 50 0 C 77.61422729492188 0 100 22.38575744628906 100 50 C 100 77.61422729492188 77.61422729492188 100 50 100 C 22.38575744628906 100 0 77.61422729492188 0 50 C 0 22.38575744628906 22.38575744628906 0 50 0 Z" stroke="none" fill="#c3c0c0"/>
    </g>
    <path id="Trazado_190749" data-name="Trazado 190749" d="M75.325,26.034C80.459,29.45,84.93,31.956,85.54,38.19H45.629c.61-6.234,5.081-8.74,10.215-12.156a3.5,3.5,0,0,0,.8.093H74.526A3.481,3.481,0,0,0,75.325,26.034ZM70.914,69.275l8.719-5.034,7.594,13.153-8.719,5.034a7.594,7.594,0,0,1-7.594-13.153Zm11.953-6.9,15.418,8.618A7.516,7.516,0,0,0,99.771,69.7l-15.036-8.4-1.869,1.079Zm4.127-2.383,14,7.824a7.693,7.693,0,0,0,.565-1.807l-12.694-7.1-1.869,1.078Zm4.193-2.345a7.629,7.629,0,0,1,9.481,3.219,7.523,7.523,0,0,1,.919,2.594ZM96.042,72.3,82.514,64.742l1.81,3.134,9.851,5.506L96.043,72.3Zm-4.127,2.383-5.4-3.021,2.659,4.605,2.745-1.585ZM87.031,80.1v3.337H97.1a7.585,7.585,0,0,0,5.1-13.207,9.744,9.744,0,0,1-3.184,2.952L87.031,80.1Zm-5.779,3.337h3.531V81.4ZM56.643,16H74.526a1.263,1.263,0,0,1,1.259,1.259v5.36a1.263,1.263,0,0,1-1.259,1.259H56.643a1.263,1.263,0,0,1-1.259-1.259v-5.36A1.263,1.263,0,0,1,56.643,16ZM45.557,40.438V70.018H66.792a9.744,9.744,0,0,1,3-2.691l15.821-9.134V40.438Zm18.71,6.736H66.9a1.407,1.407,0,0,1,1.4,1.4v3.927h3.927a1.407,1.407,0,0,1,1.4,1.4v2.636a1.407,1.407,0,0,1-1.4,1.4H68.307v3.927a1.407,1.407,0,0,1-1.4,1.4H64.267a1.408,1.408,0,0,1-1.4-1.4V57.951H58.935a1.408,1.408,0,0,1-1.4-1.4V53.91a1.408,1.408,0,0,1,1.4-1.4h3.927V48.578a1.408,1.408,0,0,1,1.4-1.4Zm1.789,33.361a9.843,9.843,0,0,1-.5-8.268h-20v.269a8.023,8.023,0,0,0,8,8Z" transform="translate(576.443 4541.561)" fill="#7e5ee3" fill-rule="evenodd"/>
    <g id="Trazado_207000" data-name="Trazado 207000" transform="translate(898 4249)" fill="#fff">
      <path d="M 50 99 C 43.38460159301758 99 36.96761322021484 97.70458984375 30.92729377746582 95.14974975585938 C 25.09253311157227 92.68185424804688 19.85215950012207 89.14862823486328 15.35177326202393 84.64822387695312 C 10.85137367248535 80.14784240722656 7.318146705627441 74.90746307373047 4.850253105163574 69.07270812988281 C 2.295413255691528 63.03238677978516 1 56.61539840698242 1 50 C 1 43.38460159301758 2.295413255691528 36.96761322021484 4.850253105163574 30.92729377746582 C 7.318146705627441 25.09253311157227 10.85137367248535 19.85215950012207 15.35177326202393 15.35177326202393 C 19.85215950012207 10.85137367248535 25.09253311157227 7.318146705627441 30.92729377746582 4.850253105163574 C 36.96761322021484 2.295413255691528 43.38460159301758 1 50 1 C 56.61539840698242 1 63.03238677978516 2.295413255691528 69.07270812988281 4.850253105163574 C 74.90746307373047 7.318146705627441 80.14784240722656 10.85137367248535 84.64822387695312 15.35177326202393 C 89.14862823486328 19.85215950012207 92.68185424804688 25.09253311157227 95.14974975585938 30.92729377746582 C 97.70458984375 36.96761322021484 99 43.38460159301758 99 50 C 99 56.61539840698242 97.70458984375 63.03238677978516 95.14974975585938 69.07270812988281 C 92.68185424804688 74.90746307373047 89.14862823486328 80.14784240722656 84.64822387695312 84.64822387695312 C 80.14784240722656 89.14862823486328 74.90746307373047 92.68185424804688 69.07270812988281 95.14974975585938 C 63.03238677978516 97.70458984375 56.61539840698242 99 50 99 Z" stroke="none"/>
      <path d="M 50 2 C 43.51915740966797 2 37.23324203491211 3.268829345703125 31.31684112548828 5.771255493164062 C 25.60127258300781 8.188743591308594 20.46775817871094 11.64998626708984 16.05886840820312 16.05886840820312 C 11.64998626708984 20.46775817871094 8.188743591308594 25.60127258300781 5.771255493164062 31.31684112548828 C 3.268829345703125 37.23324203491211 2 43.51915740966797 2 50 C 2 56.48084259033203 3.268829345703125 62.76675796508789 5.771255493164062 68.68314361572266 C 8.188743591308594 74.39871215820312 11.64998626708984 79.53224182128906 16.05886840820312 83.94113159179688 C 20.46775817871094 88.34999847412109 25.60127258300781 91.81125640869141 31.31684112548828 94.22874450683594 C 37.23324203491211 96.73117065429688 43.51915740966797 98 50 98 C 56.48084259033203 98 62.76675796508789 96.73117065429688 68.68314361572266 94.22874450683594 C 74.39871215820312 91.81125640869141 79.53224182128906 88.34999847412109 83.94113159179688 83.94113159179688 C 88.34999847412109 79.53224182128906 91.81125640869141 74.39871215820312 94.22874450683594 68.68314361572266 C 96.73117065429688 62.76675796508789 98 56.48084259033203 98 50 C 98 43.51915740966797 96.73117065429688 37.23324203491211 94.22874450683594 31.31684112548828 C 91.81125640869141 25.60127258300781 88.34999847412109 20.46775817871094 83.94113159179688 16.05886840820312 C 79.53224182128906 11.64998626708984 74.39871215820312 8.188743591308594 68.68314361572266 5.771255493164062 C 62.76675796508789 3.268829345703125 56.48084259033203 2 50 2 M 50 0 C 77.61422729492188 0 100 22.38575744628906 100 50 C 100 77.61422729492188 77.61422729492188 100 50 100 C 22.38575744628906 100 0 77.61422729492188 0 50 C 0 22.38575744628906 22.38575744628906 0 50 0 Z" stroke="none" fill="#c3c0c0"/>
    </g>
    <g id="Grupo_156266" data-name="Grupo 156266" transform="translate(918.733 4268)">
      <g id="Grupo_156259" data-name="Grupo 156259" transform="translate(24.528 39.522)">
        <g id="Grupo_156258" data-name="Grupo 156258">
          <path id="Trazado_190751" data-name="Trazado 190751" d="M192.577,329.352l-17.736-11.989v20.478h35.472V317.363Z" transform="translate(-174.841 -317.363)" fill="#00bcd4"/>
        </g>
      </g>
      <g id="Grupo_156261" data-name="Grupo 156261" transform="translate(26.589 35.363)">
        <g id="Grupo_156260" data-name="Grupo 156260">
          <path id="Trazado_190752" data-name="Trazado 190752" d="M194.435,294.4l15.675,10.6,15.675-10.6Z" transform="translate(-194.435 -294.397)" fill="#00bcd4"/>
        </g>
      </g>
      <g id="Grupo_156263" data-name="Grupo 156263" transform="translate(34.255 6.999)">
        <g id="Grupo_156262" data-name="Grupo 156262">
          <rect id="Rect치ngulo_46238" data-name="Rect치ngulo 46238" width="22.85" height="14.399" fill="#00bcd4"/>
        </g>
      </g>
      <g id="Grupo_156265" data-name="Grupo 156265">
        <g id="Grupo_156264" data-name="Grupo 156264">
          <path id="Trazado_190753" data-name="Trazado 190753" d="M43.842,4.28V0H0V60H17.717V30.984H43.842V27.349H29.026V4.28ZM7.339,7.031H15.93v3.516H7.339ZM20.99,22.062H7.339V18.547H20.99Zm0-5.758H7.339V12.789H20.99Z" fill="#00bcd4"/>
        </g>
      </g>
    </g>
    <g id="Trazado_207001" data-name="Trazado 207001" transform="translate(898 4540)" fill="#fff">
      <path d="M 50 99 C 43.38460159301758 99 36.96761322021484 97.70458984375 30.92729377746582 95.14974975585938 C 25.09253311157227 92.68185424804688 19.85215950012207 89.14862823486328 15.35177326202393 84.64822387695312 C 10.85137367248535 80.14784240722656 7.318146705627441 74.90746307373047 4.850253105163574 69.07270812988281 C 2.295413255691528 63.03238677978516 1 56.61539840698242 1 50 C 1 43.38460159301758 2.295413255691528 36.96761322021484 4.850253105163574 30.92729377746582 C 7.318146705627441 25.09253311157227 10.85137367248535 19.85215950012207 15.35177326202393 15.35177326202393 C 19.85215950012207 10.85137367248535 25.09253311157227 7.318146705627441 30.92729377746582 4.850253105163574 C 36.96761322021484 2.295413255691528 43.38460159301758 1 50 1 C 56.61539840698242 1 63.03238677978516 2.295413255691528 69.07270812988281 4.850253105163574 C 74.90746307373047 7.318146705627441 80.14784240722656 10.85137367248535 84.64822387695312 15.35177326202393 C 89.14862823486328 19.85215950012207 92.68185424804688 25.09253311157227 95.14974975585938 30.92729377746582 C 97.70458984375 36.96761322021484 99 43.38460159301758 99 50 C 99 56.61539840698242 97.70458984375 63.03238677978516 95.14974975585938 69.07270812988281 C 92.68185424804688 74.90746307373047 89.14862823486328 80.14784240722656 84.64822387695312 84.64822387695312 C 80.14784240722656 89.14862823486328 74.90746307373047 92.68185424804688 69.07270812988281 95.14974975585938 C 63.03238677978516 97.70458984375 56.61539840698242 99 50 99 Z" stroke="none"/>
      <path d="M 50 2 C 43.51915740966797 2 37.23324203491211 3.268829345703125 31.31684112548828 5.771255493164062 C 25.60127258300781 8.188743591308594 20.46775817871094 11.64998626708984 16.05886840820312 16.05886840820312 C 11.64998626708984 20.46775817871094 8.188743591308594 25.60127258300781 5.771255493164062 31.31684112548828 C 3.268829345703125 37.23324203491211 2 43.51915740966797 2 50 C 2 56.48084259033203 3.268829345703125 62.76675796508789 5.771255493164062 68.68314361572266 C 8.188743591308594 74.39871215820312 11.64998626708984 79.53224182128906 16.05886840820312 83.94113159179688 C 20.46775817871094 88.34999847412109 25.60127258300781 91.81125640869141 31.31684112548828 94.22874450683594 C 37.23324203491211 96.73117065429688 43.51915740966797 98 50 98 C 56.48084259033203 98 62.76675796508789 96.73117065429688 68.68314361572266 94.22874450683594 C 74.39871215820312 91.81125640869141 79.53224182128906 88.34999847412109 83.94113159179688 83.94113159179688 C 88.34999847412109 79.53224182128906 91.81125640869141 74.39871215820312 94.22874450683594 68.68314361572266 C 96.73117065429688 62.76675796508789 98 56.48084259033203 98 50 C 98 43.51915740966797 96.73117065429688 37.23324203491211 94.22874450683594 31.31684112548828 C 91.81125640869141 25.60127258300781 88.34999847412109 20.46775817871094 83.94113159179688 16.05886840820312 C 79.53224182128906 11.64998626708984 74.39871215820312 8.188743591308594 68.68314361572266 5.771255493164062 C 62.76675796508789 3.268829345703125 56.48084259033203 2 50 2 M 50 0 C 77.61422729492188 0 100 22.38575744628906 100 50 C 100 77.61422729492188 77.61422729492188 100 50 100 C 22.38575744628906 100 0 77.61422729492188 0 50 C 0 22.38575744628906 22.38575744628906 0 50 0 Z" stroke="none" fill="#c3c0c0"/>
    </g>
    <g id="Grupo_156267" data-name="Grupo 156267" transform="translate(916 4549.125)">
      <path id="Trazado_190754" data-name="Trazado 190754" d="M131.605,439.867h-6.342L123.975,436H100.564l-1.289,3.867H92.934a1.934,1.934,0,0,0,0,3.867h38.672a1.934,1.934,0,0,0,0-3.867Z" transform="translate(-79.27 -365.859)" fill="#81d4fa"/>
      <path id="Trazado_190755" data-name="Trazado 190755" d="M392.934,106a1.934,1.934,0,1,0,1.934,1.934A1.935,1.935,0,0,0,392.934,106Z" transform="translate(-340.598 -78.398)" fill="#81d4fa"/>
      <path id="Trazado_190756" data-name="Trazado 190756" d="M60.07,16H5.8A5.807,5.807,0,0,0,0,21.8V54.672H11.73v-5.8a1.933,1.933,0,0,1,1.934-1.934h2.988a17.211,17.211,0,0,1,.687-1.656l-2.113-2.115a1.933,1.933,0,0,1,0-2.734l5.468-5.468a1.933,1.933,0,0,1,2.734,0l2.115,2.115a17.3,17.3,0,0,1,1.656-.689V33.4a1.933,1.933,0,0,1,1.934-1.934h7.734A1.933,1.933,0,0,1,38.8,33.4V36.39a17.357,17.357,0,0,1,1.656.689l2.115-2.115a1.934,1.934,0,0,1,2.734,0l5.468,5.468a1.933,1.933,0,0,1,0,2.734l-2.113,2.115a17.265,17.265,0,0,1,.687,1.656h2.988a1.933,1.933,0,0,1,1.934,1.934v5.8H66V21.8A5.919,5.919,0,0,0,60.07,16ZM52.336,35.336a5.8,5.8,0,1,1,5.8-5.8A5.807,5.807,0,0,1,52.336,35.336Z" fill="#81d4fa"/>
      <path id="Trazado_190757" data-name="Trazado 190757" d="M211,261.8a5.763,5.763,0,0,0,.375,1.934h10.851A5.783,5.783,0,1,0,211,261.8Z" transform="translate(-183.801 -209.063)" fill="#81d4fa"/>
      <path id="Trazado_190758" data-name="Trazado 190758" d="M125.354,180.019a1.935,1.935,0,0,1-1.873,1.45H121v3.867h7.989a9.672,9.672,0,1,1,18.827,0H155.8v-3.867h-2.481a1.935,1.935,0,0,1-1.873-1.45,13.288,13.288,0,0,0-1.432-3.446,1.934,1.934,0,0,1,.3-2.349l1.758-1.76-2.734-2.734-1.76,1.76a1.926,1.926,0,0,1-2.351.3,13.292,13.292,0,0,0-3.444-1.432,1.935,1.935,0,0,1-1.45-1.873V166h-3.867v2.481a1.935,1.935,0,0,1-1.45,1.873,13.292,13.292,0,0,0-3.444,1.432,1.927,1.927,0,0,1-2.351-.3l-1.76-1.76-2.734,2.734,1.758,1.76a1.934,1.934,0,0,1,.3,2.349A13.289,13.289,0,0,0,125.354,180.019Z" transform="translate(-105.402 -130.664)" fill="#81d4fa"/>
      <path id="Trazado_190759" data-name="Trazado 190759" d="M0,347.934a5.808,5.808,0,0,0,5.8,5.8H60.07a5.919,5.919,0,0,0,5.93-5.8V346H0Z" transform="translate(0 -287.461)" fill="#81d4fa"/>
    </g>
  </g>
</svg>
