<svg xmlns="http://www.w3.org/2000/svg" xmlns:xlink="http://www.w3.org/1999/xlink" width="1242" height="626" viewBox="0 0 1242 626">
  <defs>
    <clipPath id="clip-path">
      <rect id="Rectángulo_46628" data-name="Rectángulo 46628" width="1242" height="626" transform="translate(0 85)" fill="none"/>
    </clipPath>
  </defs>
  <g id="Grupo_170660" data-name="Grupo 170660" transform="translate(-178 -6017)">
    <g id="Grupo_156434" data-name="Grupo 156434" transform="translate(177.8 5931.843)">
      <g id="Grupo_156433" data-name="Grupo 156433" transform="translate(0.2 0.157)" clip-path="url(#clip-path)">
        <g id="Grupo_156432" data-name="Grupo 156432">
          <path id="Trazado_191378" data-name="Trazado 191378" d="M0,85H1242V754H0Z" transform="translate(0 0)" fill="#81d4fa" opacity="0.17"/>
          <g id="Grupo_156345" data-name="Grupo 156345" transform="translate(54.821 101.066)">
            <path id="Trazado_191258" data-name="Trazado 191258" d="M1015.394,723.247c-39.213-11.515-94.545-9.058-125.306,20.271-28.641,27.308-73.273,37.421-111.014,26.177-10.928-3.256-21.329-8.13-32.3-11.231-23.431-6.621-48.3-4.886-72.584-3.1-11.608.855-23.262,1.717-34.632,4.2-39.832,8.707-72.754,36.36-110.886,50.795-30.492,11.543-65.324,14.821-97.274,7.73-29.623-6.574-54.887-25.557-81.581-39.093a228.283,228.283,0,0,0-118.468-23.982c-12.338.863-25.186,2.666-36.73-1.772-8.683-3.338-15.7-9.893-22.162-16.581-29.837-30.867-54.093-72.384-47.306-114.775,6.009-37.536,34.162-65.458,59.417-91.633,13.221-13.7,26.523-27.521,37.388-43.224,12.94-18.7,23.594-32.61,26.342-55.577a320.608,320.608,0,0,0-.108-77.176c-2.16-17.542-5.72-35.744-.24-52.548,4.016-12.314,12.58-22.654,22.075-31.465,51.566-47.848,134.152-54.292,197-22.69,24.028,12.082,45.573,29.008,70.536,39.016,49.024,19.654,105.484,10.094,153.889-11.038,17.952-7.837,35.283-17.216,53.865-23.413a170.126,170.126,0,0,1,88.294-4.841,212.54,212.54,0,0,1,39.361,12.246c13.616,5.869,23.957,17.781,38.111,23.368,21.316,8.414,45.18,5.8,67.932,3.061l94.61-11.4c25.229-3.04,51.684-5.937,75.335,3.358,42.843,16.837,61.455,76.831,35.665,114.961-5.66,8.368-13.085,15.854-16.14,25.484-6.517,20.539,8.76,40.938,22.325,57.681,39.178,48.352,73.6,108,63.9,169.475-11.277,71.478-90.393,124.285-160.729,107.28C1066.742,746.235,1042.276,731.141,1015.394,723.247Z" transform="translate(-124 -228.127)" fill="#81d4fa" opacity="0.24"/>
          </g>
          <g id="Grupo_156431" data-name="Grupo 156431" transform="translate(57.584 148.392)">
            <g id="Grupo_156382" data-name="Grupo 156382" transform="translate(0 48.121)">
              <g id="Grupo_156381" data-name="Grupo 156381">
                <g id="Grupo_156364" data-name="Grupo 156364">
                  <g id="Grupo_156363" data-name="Grupo 156363" transform="translate(92.498)">
                    <path id="Trazado_191261" data-name="Trazado 191261" d="M538.706,1121.358c-4.523.783-16.8.7-16.8.7-18.4-1.474-29.014,9.436-29.014,9.436l-3.924-15.584-30.232,5.234-11.589,86.011,12.907-2.234,9.845,15.631c13.483-3.316,22.159-21.171,22.159-21.171h0c7.824-8.147,11.328-49.843,11.328-49.843,7.5-3.5,10.618-7.968,10.618-7.968l23.09-4C551.584,1129.181,543.229,1120.574,538.706,1121.358Z" transform="translate(-399.027 -817.435)" fill="#eba773"/>
                    <path id="Trazado_191262" data-name="Trazado 191262" d="M463.205,978.555l13.381-12.369,55.747-15.045,7.379-1.277s18.833,1.153,2.6,15l-6.171,4.01L476.9,977.9Z" transform="translate(-407.957 -725.066)" fill="#f6c49a"/>
                    <path id="Trazado_191263" data-name="Trazado 191263" d="M407.551,1038.4s16.023-38.71,28.31-47.048l73.952-12.8s18.747,4.437,2.885,16.663l-9.9,4.167-56.419,9.276Z" transform="translate(-376.997 -741.025)" fill="#f6c49a"/>
                    <path id="Trazado_191264" data-name="Trazado 191264" d="M440.217,1055.217a1.89,1.89,0,0,1,.709-3.388l84.893-17.81s16.471-4,18.159,7.644c0,0,2.747,7.37-14.972,10.765l-74.587,12.912Z" transform="translate(-394.728 -771.512)" fill="#d9a594"/>
                    <path id="Trazado_191265" data-name="Trazado 191265" d="M471.249,1332.144l-5.037,9.923-16.641,2.881,11.833-28.436Z" transform="translate(-400.373 -929.028)" fill="#fe9395"/>
                    <line id="Línea_366" data-name="Línea 366" x1="0.436" y2="0.825" transform="translate(63.818 261.676)" fill="none"/>
                    <path id="Trazado_191266" data-name="Trazado 191266" d="M494.421,1264c0,.016,0,.029-.008.044a.061.061,0,0,1,0,.017c-3.213,18.333-11.958,28.348-18.983,33.6,0,0,0,0-.006,0a33.245,33.245,0,0,1-9.808,5.26l-.017,0-.017,0-15.5,29.538-10.7-7.126,16.357-38.044c29.806-.919,36.919-22.993,36.919-22.993Z" transform="translate(-394.701 -899.817)" fill="#f6c49a"/>
                    <g id="Grupo_156361" data-name="Grupo 156361" transform="translate(65.856)">
                      <path id="Trazado_191267" data-name="Trazado 191267" d="M767.446,528.608V880.185A12.416,12.416,0,0,1,755.03,892.6h-248a12.417,12.417,0,0,1-12.42-12.417V528.608a12.417,12.417,0,0,1,12.42-12.417h248A12.416,12.416,0,0,1,767.446,528.608Z" transform="translate(-491.284 -483.82)" fill="#20353c"/>
                      <path id="Trazado_191268" data-name="Trazado 191268" d="M759.946,527.108V878.685A12.416,12.416,0,0,1,747.53,891.1h-248a12.417,12.417,0,0,1-12.42-12.417V527.108a12.417,12.417,0,0,1,12.42-12.417h248A12.416,12.416,0,0,1,759.946,527.108Z" transform="translate(-487.112 -482.986)" fill="#2b4750"/>
                      <g id="Grupo_156358" data-name="Grupo 156358" transform="translate(12.655 45.589)">
                        <path id="Trazado_191269" data-name="Trazado 191269" d="M753.1,545.98l10.059,7.6V894.623H525.691l-10.059-7.6H753.1Z" transform="translate(-515.632 -545.98)" fill="#ccc"/>
                        <rect id="Rectángulo_46546" data-name="Rectángulo 46546" width="237.468" height="341.044" fill="#efefef"/>
                        <path id="Trazado_191270" data-name="Trazado 191270" d="M753.1,546V887.047H515.982l-.344-32.437V546Z" transform="translate(-515.635 -545.993)" fill="#f9f9f9"/>
                        <g id="Grupo_156346" data-name="Grupo 156346" transform="translate(19.351 83.427)">
                          <rect id="Rectángulo_46547" data-name="Rectángulo 46547" width="198.77" height="7.435" fill="#ccc"/>
                        </g>
                        <g id="Grupo_156347" data-name="Grupo 156347" transform="translate(19.351 43.493)">
                          <rect id="Rectángulo_46548" data-name="Rectángulo 46548" width="198.77" height="24.848" fill="#ccc"/>
                        </g>
                        <g id="Grupo_156357" data-name="Grupo 156357" transform="translate(21.476 102.896)">
                          <g id="Grupo_156349" data-name="Grupo 156349" transform="translate(146.523)">
                            <rect id="Rectángulo_46549" data-name="Rectángulo 46549" width="45.473" height="45.473" rx="7.217" fill="#7e5ee3"/>
                            <g id="Grupo_156348" data-name="Grupo 156348" transform="translate(6.316 9.473)">
                              <path id="Trazado_191271" data-name="Trazado 191271" d="M922.378,825.753a2.529,2.529,0,0,1-1.786-.74l-11.368-11.368a2.526,2.526,0,0,1,3.572-3.572l9.328,9.328,14.668-19.181a2.526,2.526,0,1,1,4.014,3.069l-16.421,21.473a2.526,2.526,0,0,1-1.839.986C922.488,825.751,922.433,825.753,922.378,825.753Z" transform="translate(-908.483 -799.226)" fill="#fff"/>
                            </g>
                          </g>
                          <g id="Grupo_156350" data-name="Grupo 156350" transform="translate(0 6.832)">
                            <rect id="Rectángulo_46550" data-name="Rectángulo 46550" width="99.668" height="5.052" fill="#ccc"/>
                            <rect id="Rectángulo_46551" data-name="Rectángulo 46551" width="75.788" height="5.053" transform="translate(0 26.757)" fill="#ccc"/>
                            <rect id="Rectángulo_46552" data-name="Rectángulo 46552" width="123.786" height="5.053" transform="translate(0 13.451)" fill="#ccc"/>
                          </g>
                          <g id="Grupo_156351" data-name="Grupo 156351" transform="translate(0 67.462)">
                            <rect id="Rectángulo_46553" data-name="Rectángulo 46553" width="123.786" height="5.052" fill="#ccc"/>
                            <rect id="Rectángulo_46554" data-name="Rectángulo 46554" width="110.547" height="5.052" transform="translate(0 26.757)" fill="#ccc"/>
                            <rect id="Rectángulo_46555" data-name="Rectángulo 46555" width="96.303" height="5.052" transform="translate(0 13.451)" fill="#ccc"/>
                          </g>
                          <g id="Grupo_156353" data-name="Grupo 156353" transform="translate(146.523 60.63)">
                            <rect id="Rectángulo_46556" data-name="Rectángulo 46556" width="45.473" height="45.473" rx="7.217" fill="#7e5ee3"/>
                            <g id="Grupo_156352" data-name="Grupo 156352" transform="translate(6.316 9.473)">
                              <path id="Trazado_191272" data-name="Trazado 191272" d="M922.378,962.395a2.529,2.529,0,0,1-1.786-.74l-11.368-11.368a2.526,2.526,0,0,1,3.572-3.572l9.328,9.328,14.668-19.181a2.526,2.526,0,0,1,4.014,3.069L924.384,961.4a2.527,2.527,0,0,1-1.839.986C922.488,962.393,922.433,962.395,922.378,962.395Z" transform="translate(-908.483 -935.868)" fill="#fff"/>
                            </g>
                          </g>
                          <g id="Grupo_156354" data-name="Grupo 156354" transform="translate(0 128.251)">
                            <rect id="Rectángulo_46557" data-name="Rectángulo 46557" width="123.786" height="5.052" fill="#ccc"/>
                            <rect id="Rectángulo_46558" data-name="Rectángulo 46558" width="110.547" height="5.052" transform="translate(0 26.757)" fill="#ccc"/>
                            <rect id="Rectángulo_46559" data-name="Rectángulo 46559" width="96.303" height="5.052" transform="translate(0 13.451)" fill="#ccc"/>
                          </g>
                          <g id="Grupo_156356" data-name="Grupo 156356" transform="translate(146.523 121.419)">
                            <rect id="Rectángulo_46560" data-name="Rectángulo 46560" width="45.473" height="45.473" rx="7.217" fill="#7e5ee3"/>
                            <g id="Grupo_156355" data-name="Grupo 156355" transform="translate(6.316 9.473)">
                              <path id="Trazado_191273" data-name="Trazado 191273" d="M922.378,1099.395a2.529,2.529,0,0,1-1.786-.74l-11.368-11.368a2.526,2.526,0,0,1,3.572-3.572l9.328,9.328,14.668-19.181a2.526,2.526,0,1,1,4.014,3.069L924.384,1098.4a2.527,2.527,0,0,1-1.839.986C922.488,1099.393,922.433,1099.395,922.378,1099.395Z" transform="translate(-908.483 -1072.868)" fill="#fff"/>
                            </g>
                          </g>
                        </g>
                      </g>
                      <g id="Grupo_156360" data-name="Grupo 156360" transform="translate(50.527)">
                        <g id="Grupo_156359" data-name="Grupo 156359">
                          <path id="Trazado_191274" data-name="Trazado 191274" d="M772.312,498.841a29.246,29.246,0,0,0-1.57-3.129c-.063-.113-.127-.222-.193-.332-.113-.191-.228-.381-.343-.569-.043-.067-.084-.133-.13-.2-.115-.179-.231-.358-.349-.534a.049.049,0,0,0-.012-.02q-.2-.307-.416-.606-.662-.948-1.4-1.836c-.17-.2-.343-.41-.52-.612-.158-.182-.32-.361-.485-.54s-.346-.372-.523-.557a.318.318,0,0,0-.032-.035c-.168-.17-.335-.338-.505-.5-.089-.092-.179-.179-.271-.266s-.185-.176-.277-.263c0-.006-.008-.008-.012-.012-.15-.138-.3-.277-.45-.41-.1-.1-.2-.185-.309-.274-.2-.17-.393-.341-.595-.505s-.4-.329-.606-.488c-.159-.127-.323-.251-.485-.372-.251-.191-.508-.375-.765-.557-.127-.089-.254-.176-.384-.265-.251-.17-.5-.335-.759-.5-.11-.072-.222-.142-.334-.211-.211-.133-.424-.26-.641-.384-.15-.087-.3-.176-.456-.26-.136-.078-.274-.156-.413-.228a.228.228,0,0,0-.038-.02c-.147-.081-.3-.158-.444-.233s-.306-.156-.459-.231-.309-.153-.465-.225l-.015-.009c-.228-.107-.459-.211-.69-.311s-.473-.205-.713-.3-.479-.193-.721-.286c-.107-.043-.217-.084-.326-.121s-.213-.078-.323-.116c-.144-.055-.288-.1-.433-.15-.084-.029-.168-.058-.251-.084-.254-.083-.511-.164-.768-.239-.144-.043-.292-.087-.438-.127l-.442-.121c-.254-.063-.505-.127-.759-.188q-.511-.121-1.03-.225l-32.185-6.442-6.82-1.365a24.752,24.752,0,0,0,.482-4.976,25.365,25.365,0,0,0-50.729,0,24.98,24.98,0,0,0,.479,4.976l-6.82,1.365-32.184,6.442a29.741,29.741,0,0,0-14.512,7.441s-.009.006-.011.012a29.727,29.727,0,0,0-7.025,10,5.38,5.38,0,0,0-.453,2.222,5.582,5.582,0,0,0,5.582,5.582h160.62a5.584,5.584,0,0,0,5.582-5.582A5.377,5.377,0,0,0,772.312,498.841ZM671.339,471.707a14.211,14.211,0,0,1-.329-3.106,15.866,15.866,0,0,1,31.732,0,14.4,14.4,0,0,1-.329,3.106c-.02.1-.04.2-.061.291s-.043.193-.066.292-.046.2-.072.3c-.029.116-.06.228-.092.341-.04.15-.084.3-.13.445-.1.326-.214.646-.338.964-.026.072-.055.142-.083.214-.052.13-.107.26-.162.386a.011.011,0,0,0,0,.006c-.159.364-.329.719-.514,1.068-.081.153-.165.306-.251.456s-.19.326-.292.488c-.049.081-.1.159-.15.237s-.1.158-.156.237c-.1.15-.2.3-.309.445a16.217,16.217,0,0,1-1.083,1.339q-.186.208-.381.407c-.133.136-.266.268-.4.4-.118.115-.24.228-.361.338-.164.15-.335.3-.505.439-.136.112-.274.222-.416.332-.124.095-.251.19-.378.283a.92.92,0,0,1-.11.078c-.11.083-.222.162-.338.237-.188.13-.378.251-.571.37-.127.078-.257.156-.387.231a1.114,1.114,0,0,1-.1.058c-.161.092-.323.182-.488.268a.015.015,0,0,0-.012.006c-.165.084-.327.165-.491.243a.132.132,0,0,1-.029.014c-.127.061-.254.118-.384.176-.058.026-.116.052-.173.075-.162.069-.323.136-.488.2-.13.052-.263.1-.393.147s-.26.092-.39.133c-.1.037-.205.069-.309.1-.369.113-.745.214-1.126.3-.127.029-.257.058-.384.084s-.228.043-.34.063-.231.043-.347.058c-.231.037-.462.069-.7.095q-.286.031-.572.052c-.1.009-.193.015-.291.02l-.2.009c-.1.006-.205.008-.306.012-.046,0-.092,0-.138,0-.092,0-.182,0-.274,0a15.833,15.833,0,0,1-14.529-9.5A15.546,15.546,0,0,1,671.339,471.707Z" transform="translate(-600.984 -443.237)" fill="#804d26"/>
                        </g>
                        <path id="Trazado_191275" data-name="Trazado 191275" d="M880.45,501.063a5.584,5.584,0,0,1-5.583,5.583H794.558V484.44a15.815,15.815,0,0,0,15.536-12.732,14.284,14.284,0,0,0,.328-3.107,15.892,15.892,0,0,0-15.865-15.865v-9.5A25.348,25.348,0,0,1,819.922,468.6a24.821,24.821,0,0,1-.48,4.977l39.005,7.806A29.767,29.767,0,0,1,880,498.84,5.393,5.393,0,0,1,880.45,501.063Z" transform="translate(-708.666 -443.237)" fill="gray" opacity="0.3" style="mix-blend-mode: multiply;isolation: isolate"/>
                      </g>
                    </g>
                    <path id="Trazado_191276" data-name="Trazado 191276" d="M393.736,1154.2l54.434,6.163a28.652,28.652,0,0,0,.57-8.062l-2.322-32.684-.079-1.159h0l-.037-.539a17.532,17.532,0,0,0-1.781-6.538l-.188-.377-2.917-5.884-2.651-5.339-.475-.959-.074-.148a3.9,3.9,0,0,1-.356-2.339c.014-.1.035-.207.059-.307a3.944,3.944,0,0,1,.562-1.281l.134-.321.67-1.6,1.717-4.113a7.161,7.161,0,0,1,5.953-4.369l10.948-1a15.242,15.242,0,0,0,8.36-3.4,11.93,11.93,0,0,0,4.476-8.2c.022-.243.037-.479.045-.7a10.114,10.114,0,0,0-.24-2.738l-1.471-.353-1.9-.455-5.669-1.363h0l-6.949-1.668-1.4-.338-.243-.108-.308-.141-10.95-5.012a11.015,11.015,0,0,0-8.307-.354,11.107,11.107,0,0,0-2.926,1.58,11.009,11.009,0,0,0-1.832,1.75L406.1,1088.878q-.238.282-.462.573a22.11,22.11,0,0,0-4.271,9.512v.007C399.382,1118.756,396.982,1137.51,393.736,1154.2Z" transform="translate(-369.312 -785.139)" fill="gray" opacity="0.4" style="mix-blend-mode: multiply;isolation: isolate"/>
                    <path id="Trazado_191277" data-name="Trazado 191277" d="M441.467,1057.236q-.013.339-.046.705a11.934,11.934,0,0,1-4.477,8.2,15.232,15.232,0,0,1-8.36,3.4l-10.949,1a7.156,7.156,0,0,0-5.952,4.368l-1.717,4.111-.67,1.6-.134.321a3.894,3.894,0,0,0-.563,1.279c-.025.1-.045.206-.06.309a3.879,3.879,0,0,0,.357,2.337l.074.149.476.959,2.649,5.341,2.918,5.882.187.378a17.516,17.516,0,0,1,1.779,6.538l.039.538v0l.08,1.159,2.317,32.685a28.719,28.719,0,0,1-7.264,21.2l-4.708,5.247,1.111,1.765a28.443,28.443,0,0,1,1.118,28.377l-7.887,15.028-45.538-9.92-3.679-21.25,2.972-5.014c8.291-22.759,13.043-54.185,16.5-88.766v0l0-.005a22.074,22.074,0,0,1,4.272-9.511c.15-.194.3-.385.461-.574l22.486-27.044a10.958,10.958,0,0,1,1.834-1.751,10.547,10.547,0,0,1,1.042-.7,10.868,10.868,0,0,1,1.882-.883,11.011,11.011,0,0,1,8.307.355l10.951,5.014.306.14.243.11,1.4.337,6.95,1.67h0l5.67,1.365,1.9.454,1.472.355A10.141,10.141,0,0,1,441.467,1057.236Z" transform="translate(-346.412 -777.464)" fill="#f6c49a"/>
                    <g id="Grupo_156362" data-name="Grupo 156362" transform="translate(6.157 266.592)" opacity="0.3" style="mix-blend-mode: color-dodge;isolation: isolate">
                      <path id="Trazado_191278" data-name="Trazado 191278" d="M423.59,1050.208v0l-.28.411-.244.359-6.642-3.041a11.02,11.02,0,0,0-13.065,2.976l-.241.291-.053.064-.91,1.093-13.215,15.895-2.622,3.154-5.445,6.547q-.526.632-1,1.3a22.1,22.1,0,0,0-3.735,8.792c-3.462,34.581-8.214,66.007-16.5,88.768l-5.753,9.7-1.31-7.571,2.972-5.014c8.291-22.759,13.043-54.185,16.5-88.766v0l0-.005a22.074,22.074,0,0,1,4.272-9.511c.15-.194.3-.385.461-.574l22.486-27.044a10.958,10.958,0,0,1,1.834-1.751,10.547,10.547,0,0,1,1.042-.7,10.868,10.868,0,0,1,1.882-.883,11.011,11.011,0,0,1,8.307.355Z" transform="translate(-352.569 -1044.055)" fill="#f6c49a"/>
                    </g>
                    <path id="Trazado_191279" data-name="Trazado 191279" d="M394.066,1379.234h0l-6.308,11.82-18.02,33.771-18.414,3.188-12.632-72.968,6.157-6.98,3.679,21.25Z" transform="translate(-338.692 -946.58)" fill="#ffadb0"/>
                    <path id="Trazado_191280" data-name="Trazado 191280" d="M422.062,1341.006a60.361,60.361,0,0,0,20.1,1.892.82.82,0,0,0-.192-1.628c-.15.017-15.281,1.67-32.39-6.5a.82.82,0,1,0-.707,1.479A70.673,70.673,0,0,0,422.062,1341.006Z" transform="translate(-377.474 -939.136)" fill="#de9c6b"/>
                    <path id="Trazado_191281" data-name="Trazado 191281" d="M427.61,1353.537a36.495,36.495,0,0,0,13.205.973.82.82,0,0,0-.243-1.621,36.908,36.908,0,0,1-20.355-3.9.82.82,0,0,0-.759,1.454A37.285,37.285,0,0,0,427.61,1353.537Z" transform="translate(-383.376 -947.04)" fill="#de9c6b"/>
                    <line id="Línea_367" data-name="Línea 367" x2="54.434" y2="6.163" transform="translate(24.424 369.056)" fill="none"/>
                    <path id="Trazado_191282" data-name="Trazado 191282" d="M515.07,1059.378l-.247,7.811,9.145,1.044a5.388,5.388,0,0,0,5.044-2.29l2.134-3.09Z" transform="translate(-436.671 -785.987)" fill="#fdebe1"/>
                  </g>
                  <path id="Trazado_191283" data-name="Trazado 191283" d="M288.583,1381.635l-.724,2.387-54.67,161.932-102.961-2.516,82.8-191.7,39.483,15.693,14.648,5.822,1.339.531,10.711,4.263,4.505,1.792h0l4.058,1.5Z" transform="translate(-130.229 -948.624)" fill="#2b4750"/>
                  <path id="Trazado_191284" data-name="Trazado 191284" d="M338.05,1349.593l30.067,11.952,31.2,12.407,3.1-8-30.9-12.65-29.674-12.147Z" transform="translate(-245.837 -942.737)" fill="#fff"/>
                  <path id="Trazado_191285" data-name="Trazado 191285" d="M360.3,1390.979l-.724,2.387L304.9,1555.3H259.145l45.933-122.321,2.566-7.351,11.259-36.231v0l1.9-4.5,3.423-8.119,3.412-8.24,14.7,6.018.416.17h0l.312.13,1.166.476.159.064,1.077.439v0h0l3.735,1.53,5.746,2.352v0l.531.216,3.051,1.253-3.1,7.995h0l4.058,1.5Z" transform="translate(-201.943 -957.967)" fill="#999" opacity="0.5" style="mix-blend-mode: multiply;isolation: isolate"/>
                </g>
                <g id="Grupo_156379" data-name="Grupo 156379" transform="translate(375.216 283.455)">
                  <g id="Grupo_156378" data-name="Grupo 156378">
                    <g id="Grupo_156376" data-name="Grupo 156376">
                      <path id="Trazado_191286" data-name="Trazado 191286" d="M1179.451,1211.95l-22.834,19.213-12.506,33.622,32.2-8.83,11.561-33.39Z" transform="translate(-1069.453 -1154.316)" fill="#eba773"/>
                      <path id="Trazado_191287" data-name="Trazado 191287" d="M1125.455,1226.323l-8.535-6.97-7.076,5.615-13.953,7.27s-5.258.92-8.871-.9a.574.574,0,0,1-.16-.921l5.489-5.435,7.719-7.246,8.065-5.823,7.259-7.2,8.713-.283,14.17,10.955A45.633,45.633,0,0,1,1125.455,1226.323Z" transform="translate(-1037.512 -1150.131)" fill="#eba773"/>
                      <path id="Trazado_191288" data-name="Trazado 191288" d="M1091.873,1252.472l2.063,3.143a5.077,5.077,0,0,1-.482.6,4.4,4.4,0,0,1-4.141,1.3l-2.085-.441Z" transform="translate(-1037.81 -1176.857)" fill="#fdebe1"/>
                      <path id="Trazado_191289" data-name="Trazado 191289" d="M1139.407,1183.785l-22.9-14.146a7.866,7.866,0,0,0-3.049-1.1l-9.316-1.3a13.49,13.49,0,0,0-4.638.159l-17.463,3.669-11.03,6.445-8.8,12.168a8.644,8.644,0,0,0,6.045,5.125,8.326,8.326,0,0,0,6.064-1.168l8.282-5.145,7.077-5.615,11.155.716,9.652.072,14.5,10.835Z" transform="translate(-1023.894 -1129.373)" fill="#eba773"/>
                      <path id="Trazado_191290" data-name="Trazado 191290" d="M1173.319,1194.187a.759.759,0,0,0,.6-.655,29.164,29.164,0,0,1,1.669-6.358.757.757,0,1,0-1.406-.563,30.271,30.271,0,0,0-1.769,6.748.759.759,0,0,0,.666.84A.8.8,0,0,0,1173.319,1194.187Z" transform="translate(-1085.193 -1139.955)" fill="#de9c6b"/>
                      <path id="Trazado_191291" data-name="Trazado 191291" d="M1159.355,1229.836a.756.756,0,0,0,.548-.46,30.234,30.234,0,0,1,2.067-4.446.758.758,0,0,0-1.27-.827,30.227,30.227,0,0,0-2.2,4.709.757.757,0,0,0,.858,1.023Z" transform="translate(-1077.426 -1160.886)" fill="#de9c6b"/>
                      <path id="Trazado_191292" data-name="Trazado 191292" d="M1197.863,1208.843c-1.605,1.588-3.134,3.189-4.656,4.787-1.537,1.582-3.035,3.183-4.6,4.714q-2.319,2.318-4.761,4.495c-1.656,1.425-3.354,2.783-5.19,4.111a20.855,20.855,0,0,0,6.146-2.857,36.673,36.673,0,0,0,5.23-4.318,44.472,44.472,0,0,0,4.379-5.137A32.345,32.345,0,0,0,1197.863,1208.843Z" transform="translate(-1088.671 -1152.587)" fill="#de9c6b"/>
                      <path id="Trazado_191293" data-name="Trazado 191293" d="M1068.335,1200.167s2.558,3.071,2.974,5.047c0,0,.415,1.977-3.331,3.8,0,0-3.094.917-5.031-1.389Z" transform="translate(-1024.303 -1147.761)" fill="#fdebe1"/>
                      <path id="Trazado_191294" data-name="Trazado 191294" d="M1150.135,1160.069l-21.782-14.218a1.574,1.574,0,0,0-.757-.252l-12.671-.836-19.768,4.154-9.361-5.258,18.887-13.256,14.826-3.115,22.418,3.546,11.8,11.969Z" transform="translate(-1037.014 -1107.218)" fill="#eba773"/>
                      <path id="Trazado_191295" data-name="Trazado 191295" d="M1090.327,1132.058l5.385,7.211a39.917,39.917,0,0,1-5.655,2.136,7.133,7.133,0,0,1-3.822.038l-3.144-.841Z" transform="translate(-1035.509 -1109.873)" fill="#eae8e7"/>
                      <g id="Grupo_156365" data-name="Grupo 156365" transform="translate(50.395)">
                        <path id="Trazado_191296" data-name="Trazado 191296" d="M1190.232,1134.226a24.718,24.718,0,0,1-7.751-6.544c-6.219-8.137-18.721-25.583-25.254-42.342,0,0-3.223-5.516-13.89-2.243l-30.658,3.749a11.736,11.736,0,0,0-7.526,4.059l-6.517,7.7-4.783,5.647-2.415,2.852-2.009,2.371.675.336,3.392,1.685.02.008,2.467,1.228.033.017.053.027.866.429,2.134,1.059s0,0,0,0l.01.007,1.908.95.332.163c.258-.078.522-.157.79-.24.363-.112.734-.228,1.112-.351,5.012-1.623,11.063-4.168,13.214-7.463l17.011-2.542,4.367,1.147,8.108,18.936.167,6.082.008.3.244,8.968.032,1.164.008.3,0,.05v0l.005.179.015.6.014.46v0l.12,4.458s-.01.079-.035.226a12.088,12.088,0,0,1-.311,1.372,20.267,20.267,0,0,1-1.9,4.541l-.007.01c-.056.1-.112.2-.171.3a21.7,21.7,0,0,1-1.943,2.768c-.315.379-.651.762-1.01,1.144-.07.076-.14.15-.213.224a.5.5,0,0,1-.055.059c-.367.375-.752.745-1.17,1.113-.151.135-.3.261-.462.383-.086.066-.173.131-.26.193-.072.051-.141.1-.214.148s-.158.1-.236.153-.159.1-.238.144-.161.093-.243.137-.161.087-.242.125l-.061.031-.061.031c-.03.015-.062.031-.091.043s-.041.017-.06.027a2.116,2.116,0,0,1-.213.092c-.081.035-.163.067-.245.1-.163.064-.326.119-.49.168l-.02,0c-.114.036-.227.068-.342.1l-.017,0q-.18.047-.363.085a8.6,8.6,0,0,1-.854.135c-.112.015-.219.022-.33.031l-.13.01c-.1.007-.2.013-.3.013-.064,0-.129,0-.194,0-.1,0-.206,0-.31,0s-.2,0-.306-.009c-.065,0-.128-.006-.188-.011-.113-.006-.225-.018-.339-.029-.138-.012-.275-.031-.411-.049-.1-.009-.191-.025-.286-.04-.012,0-.025,0-.037-.007-.067-.009-.135-.022-.2-.034a13.087,13.087,0,0,1-1.5-.355c-.1-.028-.21-.059-.312-.1-.132-.04-.262-.083-.39-.127-.217-.075-.424-.153-.63-.236l-.415-.166c-.559-.231-1.071-.48-1.522-.719-.092-.046-.179-.092-.266-.142s-.169-.091-.25-.139c-.146-.079-.284-.159-.412-.235l-.078-.048h0c-.335-.2-.6-.38-.8-.51-.224-.157-.346-.246-.346-.246a13.057,13.057,0,0,1-1.374-1.74s0-.005,0-.008l-11.71,5.622-11.745,5.638-1.251.6a48.361,48.361,0,0,1,1.475,5.376,386.948,386.948,0,0,0,9.5,40.3c3.056,10.055,6.718,19.632,10.779,25.5l1.727,9.962,1.271,7.31,1.135,6.556,1.132,6.522.469,2.7,1.131,6.531,2.292,13.212,9.088,52.375,71.261-14.973-22.155-83.422-.761-2.86-1.708-6.43-.2-.746-.362-1.357-.358-5.157s3.168-20.954,8.116-44.066c.15-.7.3-1.405.455-2.113.584-2.683,1.189-5.388,1.818-8.083,0,0,0,0,0,0,1.557-6.7,3.245-13.343,5.031-19.5.066-.22.129-.44.193-.657C1200.3,1155.24,1203.489,1141.565,1190.232,1134.226Z" transform="translate(-1089.43 -1082.059)" fill="#f6c49a"/>
                      </g>
                      <line id="Línea_368" data-name="Línea 368" x1="0.079" y1="0.039" transform="translate(62.286 33.321)" fill="none"/>
                      <g id="Grupo_156366" data-name="Grupo 156366" transform="translate(85.621 71.523)" opacity="0.5">
                        <path id="Trazado_191297" data-name="Trazado 191297" d="M1168.818,1248.416l19.03,21.8.6-26.969a21.983,21.983,0,0,1-3.4,4.5c-.365.376-.752.746-1.17,1.113-5.357,4.759-12.647.325-14.317-.8Z" transform="translate(-1168.818 -1243.25)" fill="#f6c49a"/>
                      </g>
                      <line id="Línea_369" data-name="Línea 369" x1="0.122" y1="0.063" transform="translate(50.272 27.348)" fill="none"/>
                      <path id="Trazado_191298" data-name="Trazado 191298" d="M1182.7,1217.753c-.094.182-.2.358-.313.532l-1.593,2.44a6.336,6.336,0,0,1-8.768,1.842l-7.745-5.056-13.47-8.79-15.45-10.085-6.334-4.134-17.87-11.667-35.817-23.377c-3.3-12.735-.492-13.416,1.939-15.894a2.02,2.02,0,0,1,1.539-.45l21.359,13.942,59.153,38.611,13.468,8.794,7.745,5.055A6.336,6.336,0,0,1,1182.7,1217.753Z" transform="translate(-1030.357 -1116.023)" fill="#333" opacity="0.2" style="mix-blend-mode: multiply;isolation: isolate"/>
                      <g id="Grupo_156375" data-name="Grupo 156375" transform="translate(0 0.139)">
                        <rect id="Rectángulo_46561" data-name="Rectángulo 46561" width="15.586" height="128.831" transform="translate(132.969 77.487) rotate(123.134)" fill="#fff"/>
                        <rect id="Rectángulo_46562" data-name="Rectángulo 46562" width="5.195" height="128.831" transform="matrix(0.547, -0.837, 0.837, 0.547, 22.247, 11.419)" fill="#ff7000"/>
                        <rect id="Rectángulo_46563" data-name="Rectángulo 46563" width="5.195" height="128.831" transform="matrix(0.547, -0.837, 0.837, 0.547, 19.407, 15.77)" fill="#bf5400"/>
                        <rect id="Rectángulo_46564" data-name="Rectángulo 46564" width="5.195" height="128.831" transform="translate(16.567 20.12) rotate(-56.866)" fill="#af4802"/>
                        <rect id="Rectángulo_46565" data-name="Rectángulo 46565" width="15.586" height="16.083" transform="matrix(0.547, -0.837, 0.837, 0.547, 124.45, 90.539)" fill="#e8eae9"/>
                        <g id="Grupo_156374" data-name="Grupo 156374" transform="translate(126.389 79.475)">
                          <g id="Grupo_156367" data-name="Grupo 156367" transform="translate(10.83 7.069)">
                            <path id="Trazado_191299" data-name="Trazado 191299" d="M1285.158,1287.7l6.616-10.136a.332.332,0,1,1,.556.362l-6.616,10.136a.332.332,0,0,1-.556-.363Z" transform="translate(-1285.104 -1277.417)" fill="#cccecd"/>
                          </g>
                          <g id="Grupo_156368" data-name="Grupo 156368" transform="translate(9.025 5.891)">
                            <path id="Trazado_191300" data-name="Trazado 191300" d="M1281.09,1285.048l6.616-10.136a.332.332,0,0,1,.556.363l-6.616,10.136a.332.332,0,1,1-.556-.362Z" transform="translate(-1281.036 -1274.762)" fill="#cccecd"/>
                          </g>
                          <g id="Grupo_156369" data-name="Grupo 156369" transform="translate(7.22 4.713)">
                            <path id="Trazado_191301" data-name="Trazado 191301" d="M1277.022,1282.393l6.616-10.135a.332.332,0,1,1,.556.363l-6.616,10.135a.332.332,0,1,1-.556-.363Z" transform="translate(-1276.968 -1272.107)" fill="#cccecd"/>
                          </g>
                          <g id="Grupo_156370" data-name="Grupo 156370" transform="translate(5.415 3.534)">
                            <path id="Trazado_191302" data-name="Trazado 191302" d="M1272.955,1279.737l6.616-10.136a.331.331,0,0,1,.555.363l-6.616,10.136a.332.332,0,1,1-.556-.363Z" transform="translate(-1272.901 -1269.451)" fill="#cccecd"/>
                          </g>
                          <g id="Grupo_156371" data-name="Grupo 156371" transform="translate(3.61 2.356)">
                            <path id="Trazado_191303" data-name="Trazado 191303" d="M1268.887,1277.082l6.616-10.136a.331.331,0,1,1,.555.363l-6.616,10.136a.332.332,0,0,1-.556-.363Z" transform="translate(-1268.833 -1266.796)" fill="#cccecd"/>
                          </g>
                          <g id="Grupo_156372" data-name="Grupo 156372" transform="translate(1.805 1.178)">
                            <path id="Trazado_191304" data-name="Trazado 191304" d="M1264.819,1274.427l6.616-10.136a.331.331,0,1,1,.555.363l-6.616,10.136a.332.332,0,0,1-.555-.363Z" transform="translate(-1264.765 -1264.141)" fill="#cccecd"/>
                          </g>
                          <g id="Grupo_156373" data-name="Grupo 156373">
                            <path id="Trazado_191305" data-name="Trazado 191305" d="M1260.751,1271.772l6.616-10.135a.331.331,0,1,1,.555.362l-6.616,10.136a.331.331,0,1,1-.555-.363Z" transform="translate(-1260.697 -1261.486)" fill="#cccecd"/>
                          </g>
                        </g>
                        <path id="Trazado_191306" data-name="Trazado 191306" d="M1294.426,1294.927l-7.746-5.057,8.519-13.051,7.746,5.057a6.335,6.335,0,0,1,2.153,8.237c-.094.18-.2.358-.311.531l-1.594,2.441A6.336,6.336,0,0,1,1294.426,1294.927Z" transform="translate(-1148.762 -1190.541)" fill="#ff9785"/>
                        <path id="Trazado_191307" data-name="Trazado 191307" d="M1001.531,1097.735l4.26-6.526-18.68-5.659-1.269,1.944-1.269,1.944,12.7,14.823Z" transform="translate(-980.704 -1084.14)" fill="#f4b4ad"/>
                        <path id="Trazado_191308" data-name="Trazado 191308" d="M980.992,1085.727l1.178-1.8-6.315-1.548,3.959,5.158Z" transform="translate(-975.854 -1082.373)" fill="#333"/>
                      </g>
                      <path id="Trazado_191309" data-name="Trazado 191309" d="M1145.179,1124.437a.758.758,0,0,0,.589-.61,12.861,12.861,0,0,0-3.255-10.322.758.758,0,1,0-1.112,1.03,11.531,11.531,0,0,1,2.874,9.032.76.76,0,0,0,.9.871Z" transform="translate(-1067.833 -1099.417)" fill="#de9c6b"/>
                      <path id="Trazado_191310" data-name="Trazado 191310" d="M1200.312,1122.609a.761.761,0,0,0,.264-.111c.2-.133,4.851-3.282,5.021-7.779a.757.757,0,0,0-1.513-.057c-.141,3.717-4.306,6.547-4.348,6.575a.758.758,0,0,0,.576,1.371Z" transform="translate(-1100.209 -1099.791)" fill="#de9c6b"/>
                      <path id="Trazado_191311" data-name="Trazado 191311" d="M1095.213,1219.477c7.688-1.615,15.493-8.938,15.885-9.309a.757.757,0,0,0-1.042-1.1c-.109.1-11.028,10.335-19.082,9.1a.758.758,0,1,0-.229,1.5A12.56,12.56,0,0,0,1095.213,1219.477Z" transform="translate(-1039.407 -1152.598)" fill="#de9c6b"/>
                      <path id="Trazado_191312" data-name="Trazado 191312" d="M1091.256,1200.758a.754.754,0,0,0,.479-.327c2.944-4.51,11.328-7.308,11.413-7.336a.757.757,0,1,0-.474-1.438c-.365.12-8.977,3-12.208,7.947a.758.758,0,0,0,.79,1.155Z" transform="translate(-1039.542 -1143.003)" fill="#de9c6b"/>
                      <path id="Trazado_191313" data-name="Trazado 191313" d="M1181.424,1153.77a.755.755,0,0,0,.59-.611,22.185,22.185,0,0,1,2.39-7.468.757.757,0,0,0-1.27-.826c-.067.1-1.657,2.585-2.612,8.033a.757.757,0,0,0,.9.872Z" transform="translate(-1089.702 -1116.807)" fill="#de9c6b"/>
                      <path id="Trazado_191314" data-name="Trazado 191314" d="M1147.864,1154.421a.757.757,0,0,0,.437-1.211c-.866-1.093-.651-4.583-.313-6.526a.757.757,0,0,0-1.492-.261c-.1.583-.952,5.749.618,7.727A.757.757,0,0,0,1147.864,1154.421Z" transform="translate(-1070.601 -1117.516)" fill="#de9c6b"/>
                      <path id="Trazado_191315" data-name="Trazado 191315" d="M1156.116,1124.612a.754.754,0,0,0,.314-.148c1.985-1.575,2.2-5.668,2.213-6.13a.758.758,0,0,0-1.514-.058c-.042,1.062-.417,4.03-1.64,5a.757.757,0,0,0,.627,1.335Z" transform="translate(-1075.622 -1101.801)" fill="#de9c6b"/>
                      <path id="Trazado_191316" data-name="Trazado 191316" d="M1203.474,1132.79a15.313,15.313,0,0,0,6.038-2.382.758.758,0,0,0-.939-1.189,14.31,14.31,0,0,1-5.41,2.088.757.757,0,0,0,.311,1.482Z" transform="translate(-1101.968 -1108.203)" fill="#de9c6b"/>
                      <path id="Trazado_191317" data-name="Trazado 191317" d="M1182.8,1435.835a.758.758,0,1,0-.312-1.483,37.474,37.474,0,0,1-18.413-1.173.757.757,0,0,0-.522,1.422A38.4,38.4,0,0,0,1182.8,1435.835Z" transform="translate(-1079.991 -1277.357)" fill="#de9c6b"/>
                      <path id="Trazado_191318" data-name="Trazado 191318" d="M1178.054,1446.4a.758.758,0,0,0-.311-1.483,16.147,16.147,0,0,1-9.042-1.041.757.757,0,0,0-.641,1.372A17.489,17.489,0,0,0,1178.054,1446.4Z" transform="translate(-1082.532 -1283.292)" fill="#de9c6b"/>
                    </g>
                    <g id="Grupo_156377" data-name="Grupo 156377" transform="translate(51.067 27.037)">
                      <path id="Trazado_191319" data-name="Trazado 191319" d="M1101.7,1149.146a.758.758,0,0,1-.563-.14,29.939,29.939,0,0,0-9.61-4.519.757.757,0,0,1,.348-1.474,31,31,0,0,1,10.163,4.775.758.758,0,0,1-.338,1.358Z" transform="translate(-1090.944 -1142.993)" fill="#de9c6b"/>
                    </g>
                  </g>
                  <path id="Trazado_191320" data-name="Trazado 191320" d="M1114.994,1190.364l-24.706,11.862a75.754,75.754,0,0,0-9.032-17.762,17.875,17.875,0,0,1-2.894-7.287l-2.5-15.77c-.19-.68-.367-1.327-.527-1.948-3.3-12.735-.492-13.416,1.939-15.894a2.02,2.02,0,0,1,1.539-.45,8.06,8.06,0,0,1,1.916.343l.021-.025,11.892,5.91a.07.07,0,0,1-.025.008c.962.591,1.56.982,1.56.982a36.385,36.385,0,0,1,6,6.724,70.218,70.218,0,0,1,7.884,15.131,67.539,67.539,0,0,0,3.1,10.648A36.98,36.98,0,0,0,1114.994,1190.364Z" transform="translate(-1030.357 -1116.023)" fill="#f6c49a"/>
                  <path id="Trazado_191321" data-name="Trazado 191321" d="M1091.545,1156.79a42.206,42.206,0,0,1-11.4,9.619,36.369,36.369,0,0,1-2.907-13.838s1.146-4.369,4.526-3.015C1081.768,1149.556,1088.322,1151.275,1091.545,1156.79Z" transform="translate(-1032.255 -1119.462)" fill="#fdebe1"/>
                  <path id="Trazado_191322" data-name="Trazado 191322" d="M1259.1,1573.78l-84.359,17.725-27.849-132.543,79.246-16.651Z" transform="translate(-1070.998 -1282.462)" fill="#2b4750"/>
                  <path id="Trazado_191323" data-name="Trazado 191323" d="M1219.864,1425.258l2.462,8.477-72.021,15.133-2.462-8.477Z" transform="translate(-1071.529 -1272.976)" fill="#f2f2f2"/>
                  <path id="Trazado_191324" data-name="Trazado 191324" d="M1304.773,1564.294l-45.461,9.552L1229,1432.825l36.01-7.566,2.463,8.478,4.339-.912Z" transform="translate(-1116.675 -1272.976)" fill="#999" opacity="0.5" style="mix-blend-mode: multiply;isolation: isolate"/>
                  <path id="Trazado_191325" data-name="Trazado 191325" d="M1162.655,1494.406a3.317,3.317,0,1,1,3.928,2.564A3.317,3.317,0,0,1,1162.655,1494.406Z" transform="translate(-1079.729 -1309.217)" fill="#fff"/>
                  <path id="Trazado_191326" data-name="Trazado 191326" d="M1167,1515.064a3.317,3.317,0,1,1,3.929,2.564A3.317,3.317,0,0,1,1167,1515.064Z" transform="translate(-1082.143 -1320.708)" fill="#fff"/>
                </g>
                <g id="Grupo_156380" data-name="Grupo 156380" transform="translate(139.444 437.769)">
                  <path id="Trazado_191327" data-name="Trazado 191327" d="M450.787,1432.19a3.317,3.317,0,1,1,2.207,4.139A3.317,3.317,0,0,1,450.787,1432.19Z" transform="translate(-447.914 -1429.838)" fill="#fff"/>
                  <path id="Trazado_191328" data-name="Trazado 191328" d="M444.64,1452.384a3.317,3.317,0,1,1,2.207,4.139A3.317,3.317,0,0,1,444.64,1452.384Z" transform="translate(-444.495 -1441.072)" fill="#fff"/>
                </g>
              </g>
            </g>
            <g id="Grupo_156423" data-name="Grupo 156423" transform="translate(573.887)">
              <ellipse id="Elipse_5005" data-name="Elipse 5005" cx="185.585" cy="14.051" rx="185.585" ry="14.051" transform="translate(135.695 395.001)" fill="#cdd7e1"/>
              <ellipse id="Elipse_5006" data-name="Elipse 5006" cx="35.719" cy="8.39" rx="35.719" ry="8.39" transform="translate(53.868 401.656)" fill="#cdd7e1"/>
              <g id="Grupo_156422" data-name="Grupo 156422">
                <g id="Grupo_156397" data-name="Grupo 156397" transform="translate(165.857 171.916)">
                  <g id="Grupo_156384" data-name="Grupo 156384" transform="translate(73.228)">
                    <rect id="Rectángulo_46566" data-name="Rectángulo 46566" width="117.228" height="85.412" transform="translate(11.429)" fill="#bf743a"/>
                    <rect id="Rectángulo_46567" data-name="Rectángulo 46567" width="117.228" height="85.412" fill="#ff9b4d"/>
                    <path id="Trazado_191329" data-name="Trazado 191329" d="M2091.606,722.237v30.6l-.144-.132-1.62,1.5-1.625-1.5-1.62,1.5-1.624-1.5-1.624,1.5-1.62-1.5-1.625,1.5-1.62-1.5-1.624,1.5-1.62-1.5-1.624,1.5-1.624-1.5-1.62,1.5-1.624-1.5-.14.128V722.237Z" transform="translate(-2021.493 -722.236)" fill="#804d26"/>
                    <rect id="Rectángulo_46568" data-name="Rectángulo 46568" width="35.862" height="13.92" transform="translate(74.228 65.416)" fill="#ffc69a"/>
                    <g id="Grupo_156383" data-name="Grupo 156383" transform="translate(77.459 68.086)">
                      <rect id="Rectángulo_46569" data-name="Rectángulo 46569" width="29.401" height="2.395" fill="#cc5a00"/>
                      <rect id="Rectángulo_46570" data-name="Rectángulo 46570" width="14.395" height="2.272" transform="translate(0 6.307)" fill="#cc5a00"/>
                      <rect id="Rectángulo_46571" data-name="Rectángulo 46571" width="13.354" height="2.272" transform="translate(16.047 6.307)" fill="#cc5a00"/>
                    </g>
                  </g>
                  <g id="Grupo_156390" data-name="Grupo 156390" transform="translate(191.28 10.065)">
                    <g id="Grupo_156385" data-name="Grupo 156385" transform="translate(38.563 42.904)">
                      <rect id="Rectángulo_46572" data-name="Rectángulo 46572" width="3.047" height="39.077" transform="translate(0 1.831) rotate(-36.939)" fill="#2b4750"/>
                    </g>
                    <path id="Trazado_191330" data-name="Trazado 191330" d="M2345.446,881.417h0a3.428,3.428,0,0,1-4.8-.68l-14.942-19.873a3.427,3.427,0,0,1,.679-4.8h0a3.428,3.428,0,0,1,4.8.68l14.942,19.872A3.428,3.428,0,0,1,2345.446,881.417Z" transform="translate(-2282.181 -806.364)" fill="#ff7000"/>
                    <g id="Grupo_156386" data-name="Grupo 156386" transform="translate(43.774 48.857)" opacity="0.4" style="mix-blend-mode: multiply;isolation: isolate">
                      <path id="Trazado_191331" data-name="Trazado 191331" d="M2332.128,856.24l15.409,20.494a3.039,3.039,0,0,1-.6,4.255l-.621.467a1.512,1.512,0,0,1-.125.088,3.037,3.037,0,0,0,.478-4.155l-15.409-20.493a3.037,3.037,0,0,0-4.125-.695c.038-.035.078-.065.119-.1l.621-.467A3.04,3.04,0,0,1,2332.128,856.24Z" transform="translate(-2327.133 -855.027)" fill="#a7a9ac"/>
                    </g>
                    <g id="Grupo_156389" data-name="Grupo 156389" transform="translate(0 0)">
                      <circle id="Elipse_5007" data-name="Elipse 5007" cx="20.793" cy="20.793" r="20.793" transform="translate(0 17.241) rotate(-24.493)" fill="#bfdde8" opacity="0.3"/>
                      <g id="Grupo_156387" data-name="Grupo 156387" transform="translate(11.453 14.498)" opacity="0.35">
                        <path id="Trazado_191332" data-name="Trazado 191332" d="M2255.814,793.132a.889.889,0,0,1-1.416-.608,16.172,16.172,0,0,1,6.308-14.754.889.889,0,0,1,1.068,1.42,14.391,14.391,0,0,0-5.611,13.128A.888.888,0,0,1,2255.814,793.132Z" transform="translate(-2254.29 -777.592)" fill="#bfdde8"/>
                      </g>
                      <g id="Grupo_156388" data-name="Grupo 156388" transform="translate(12.232 31.484)" opacity="0.35">
                        <path id="Trazado_191333" data-name="Trazado 191333" d="M2259.1,820.87l-.053.037a.888.888,0,0,1-1.228-.266,16,16,0,0,1-1.728-3.6.889.889,0,1,1,1.686-.563,14.237,14.237,0,0,0,1.536,3.2A.889.889,0,0,1,2259.1,820.87Z" transform="translate(-2256.047 -815.873)" fill="#bfdde8"/>
                      </g>
                      <path id="Trazado_191334" data-name="Trazado 191334" d="M2276.491,797.2a21.554,21.554,0,1,1,4.275-30.181A21.578,21.578,0,0,1,2276.491,797.2ZM2251.5,763.965a20.031,20.031,0,1,0,28.048,3.973A20.054,20.054,0,0,0,2251.5,763.965Z" transform="translate(-2235.996 -752.434)" fill="#2b4750"/>
                    </g>
                  </g>
                  <g id="Grupo_156392" data-name="Grupo 156392" transform="translate(84.657 84.954)">
                    <rect id="Rectángulo_46573" data-name="Rectángulo 46573" width="210.322" height="153.24" transform="translate(20.505)" fill="#bf743a"/>
                    <rect id="Rectángulo_46574" data-name="Rectángulo 46574" width="210.322" height="153.24" fill="#ff9b4d"/>
                    <path id="Trazado_191335" data-name="Trazado 191335" d="M2219.95,913.7v54.9l-.258-.236-2.906,2.685-2.914-2.685-2.907,2.685-2.914-2.685-2.914,2.685-2.907-2.685-2.914,2.685-2.907-2.685-2.914,2.685-2.906-2.685-2.914,2.685-2.914-2.685-2.906,2.685-2.914-2.685-.251.229V913.7Z" transform="translate(-2094.158 -913.699)" fill="#804d26"/>
                    <rect id="Rectángulo_46575" data-name="Rectángulo 46575" width="64.342" height="24.974" transform="translate(133.175 117.365)" fill="#ffc69a"/>
                    <g id="Grupo_156391" data-name="Grupo 156391" transform="translate(138.972 122.155)">
                      <rect id="Rectángulo_46576" data-name="Rectángulo 46576" width="52.749" height="4.616" fill="#cc5a00"/>
                      <rect id="Rectángulo_46577" data-name="Rectángulo 46577" width="25.827" height="4.257" transform="translate(0 11.136)" fill="#cc5a00"/>
                      <rect id="Rectángulo_46578" data-name="Rectángulo 46578" width="23.959" height="4.257" transform="translate(28.79 11.136)" fill="#cc5a00"/>
                    </g>
                  </g>
                  <g id="Grupo_156394" data-name="Grupo 156394" transform="translate(0 152.783)">
                    <rect id="Rectángulo_46579" data-name="Rectángulo 46579" width="117.228" height="85.412" transform="translate(11.429)" fill="#bf743a"/>
                    <rect id="Rectángulo_46580" data-name="Rectángulo 46580" width="117.228" height="85.412" fill="#ff9b4d"/>
                    <path id="Trazado_191336" data-name="Trazado 191336" d="M1926.572,1066.563v30.6l-.144-.132-1.62,1.5-1.624-1.5-1.62,1.5-1.624-1.5-1.624,1.5-1.62-1.5-1.624,1.5-1.62-1.5-1.624,1.5-1.62-1.5-1.624,1.5-1.624-1.5-1.62,1.5-1.624-1.5-.14.127v-30.593Z" transform="translate(-1856.459 -1066.562)" fill="#804d26"/>
                    <rect id="Rectángulo_46581" data-name="Rectángulo 46581" width="35.862" height="13.92" transform="translate(74.228 65.416)" fill="#ffc69a"/>
                    <g id="Grupo_156393" data-name="Grupo 156393" transform="translate(77.459 68.086)">
                      <rect id="Rectángulo_46582" data-name="Rectángulo 46582" width="29.401" height="2.195" fill="#cc5a00"/>
                      <rect id="Rectángulo_46583" data-name="Rectángulo 46583" width="14.395" height="2.689" transform="translate(0 5.89)" fill="#cc5a00"/>
                      <rect id="Rectángulo_46584" data-name="Rectángulo 46584" width="13.354" height="2.689" transform="translate(16.047 5.89)" fill="#cc5a00"/>
                    </g>
                  </g>
                  <g id="Grupo_156396" data-name="Grupo 156396" transform="translate(20.328 67.372)">
                    <rect id="Rectángulo_46585" data-name="Rectángulo 46585" width="117.228" height="85.412" transform="translate(11.429)" fill="#bf743a"/>
                    <rect id="Rectángulo_46586" data-name="Rectángulo 46586" width="117.228" height="85.412" fill="#ff9b4d"/>
                    <path id="Trazado_191337" data-name="Trazado 191337" d="M1972.386,874.073v30.6l-.144-.132-1.62,1.5-1.624-1.5-1.62,1.5-1.624-1.5-1.624,1.5-1.62-1.5-1.624,1.5-1.62-1.5-1.624,1.5-1.62-1.5-1.624,1.5-1.624-1.5-1.62,1.5-1.624-1.5-.14.127V874.073Z" transform="translate(-1902.273 -874.072)" fill="#804d26"/>
                    <rect id="Rectángulo_46587" data-name="Rectángulo 46587" width="35.862" height="13.92" transform="translate(74.228 65.416)" fill="#ffc69a"/>
                    <g id="Grupo_156395" data-name="Grupo 156395" transform="translate(77.459 68.086)">
                      <rect id="Rectángulo_46588" data-name="Rectángulo 46588" width="29.401" height="2.403" fill="#cc5a00"/>
                      <rect id="Rectángulo_46589" data-name="Rectángulo 46589" width="14.395" height="2.373" transform="translate(0 6.207)" fill="#cc5a00"/>
                      <rect id="Rectángulo_46590" data-name="Rectángulo 46590" width="13.354" height="2.373" transform="translate(16.046 6.207)" fill="#cc5a00"/>
                    </g>
                  </g>
                  <rect id="Rectángulo_46591" data-name="Rectángulo 46591" width="128.621" height="2.379" transform="translate(20.328 150.404)" fill="#808285" opacity="0.3" style="mix-blend-mode: multiply;isolation: isolate"/>
                  <path id="Trazado_191338" data-name="Trazado 191338" d="M2040.241,886.88V868.773h-77.812v2.056h75.755v17.879h52.9V886.88Z" transform="translate(-1889.199 -803.752)" fill="#808285" opacity="0.5" style="mix-blend-mode: multiply;isolation: isolate"/>
                </g>
                <g id="Grupo_156401" data-name="Grupo 156401" transform="translate(349.418 67.703)">
                  <g id="Grupo_156398" data-name="Grupo 156398">
                    <path id="Trazado_191339" data-name="Trazado 191339" d="M2264.84,529.706a11.42,11.42,0,1,0,11.422,11.422A11.42,11.42,0,0,0,2264.84,529.706Z" transform="translate(-2234.635 -510.92)" fill="#516f7e"/>
                    <path id="Trazado_191340" data-name="Trazado 191340" d="M2271.5,521.547V513.6l-7.873-1.181a22.788,22.788,0,0,0-2.9-7l4.732-6.4-5.616-5.616-6.4,4.732a22.787,22.787,0,0,0-7-2.9l-1.181-7.872h-7.942l-1.181,7.871a22.782,22.782,0,0,0-7,2.9l-6.4-4.731-5.616,5.616,4.732,6.4a22.79,22.79,0,0,0-2.9,7l-7.873,1.181v7.942l7.873,1.181a22.774,22.774,0,0,0,2.9,7l-4.732,6.4,5.616,5.616,6.4-4.732a22.791,22.791,0,0,0,7,2.9l1.181,7.873h7.942l1.181-7.874a22.8,22.8,0,0,0,7-2.9l6.4,4.733,5.616-5.616-4.732-6.4a22.789,22.789,0,0,0,2.9-7Zm-30.208,11.83a15.8,15.8,0,1,1,15.8-15.8A15.8,15.8,0,0,1,2241.287,533.376Z" transform="translate(-2211.082 -487.369)" fill="#516f7e"/>
                  </g>
                  <path id="Trazado_191341" data-name="Trazado 191341" d="M2276.262,541.128a11.42,11.42,0,1,1-11.422-11.422A11.42,11.42,0,0,1,2276.262,541.128Z" transform="translate(-2234.635 -510.92)" fill="#516f7e"/>
                  <g id="Grupo_156399" data-name="Grupo 156399" transform="translate(10.22 10.22)">
                    <path id="Trazado_191342" data-name="Trazado 191342" d="M2254.1,550.373a19.986,19.986,0,1,1,19.987-19.984A20.007,20.007,0,0,1,2254.1,550.373Zm0-39.07a19.084,19.084,0,1,0,19.086,19.086A19.106,19.106,0,0,0,2254.1,511.3Z" transform="translate(-2234.116 -510.401)" fill="#b9c5cb"/>
                  </g>
                  <g id="Grupo_156400" data-name="Grupo 156400" transform="translate(53.638 37.967)">
                    <path id="Trazado_191343" data-name="Trazado 191343" d="M2370.559,594.769V589.7l-5.029-.754a14.552,14.552,0,0,0-1.852-4.47l3.023-4.09-3.587-3.587-4.09,3.023a14.547,14.547,0,0,0-4.47-1.852l-.754-5.029h-5.073l-.754,5.029a14.539,14.539,0,0,0-4.47,1.852l-4.089-3.023-3.587,3.587,3.022,4.09a14.559,14.559,0,0,0-1.851,4.47l-5.029.754v5.073l5.029.754a14.569,14.569,0,0,0,1.852,4.47l-3.022,4.089,3.587,3.587,4.09-3.023a14.557,14.557,0,0,0,4.47,1.851l.754,5.029h5.073l.755-5.03a14.554,14.554,0,0,0,4.469-1.851l4.09,3.023,3.587-3.587-3.023-4.09a14.543,14.543,0,0,0,1.852-4.47Zm-19.3,7.557a10.094,10.094,0,1,1,10.094-10.094A10.093,10.093,0,0,1,2351.261,602.326Z" transform="translate(-2331.966 -572.936)" fill="#97a9b2"/>
                  </g>
                </g>
                <rect id="Rectángulo_46592" data-name="Rectángulo 46592" width="205.985" height="4.697" transform="translate(2.329 209.765)" fill="#546475"/>
                <rect id="Rectángulo_46593" data-name="Rectángulo 46593" width="205.985" height="4.697" transform="translate(0 111.76)" fill="#546475"/>
                <g id="Grupo_156406" data-name="Grupo 156406" transform="translate(7.13 51.202)">
                  <g id="Grupo_156403" data-name="Grupo 156403" transform="translate(0 0.002)">
                    <rect id="Rectángulo_46594" data-name="Rectángulo 46594" width="84.034" height="61.227" transform="translate(8.193)" fill="#bf743a"/>
                    <rect id="Rectángulo_46595" data-name="Rectángulo 46595" width="84.034" height="61.227" fill="#ff9b4d"/>
                    <path id="Trazado_191344" data-name="Trazado 191344" d="M1532.27,450.186v21.933l-.1-.094-1.161,1.073-1.164-1.073-1.161,1.073-1.164-1.073-1.164,1.073-1.161-1.073-1.164,1.073-1.161-1.073L1521.7,473.1l-1.161-1.073-1.164,1.073-1.164-1.073-1.161,1.073-1.164-1.073-.1.091v-21.93Z" transform="translate(-1482.01 -450.185)" fill="#804d26"/>
                    <rect id="Rectángulo_46596" data-name="Rectángulo 46596" width="25.708" height="9.978" transform="translate(53.21 46.893)" fill="#ffc69a"/>
                    <g id="Grupo_156402" data-name="Grupo 156402" transform="translate(55.526 48.807)">
                      <rect id="Rectángulo_46597" data-name="Rectángulo 46597" width="21.076" height="1.717" fill="#cc5a00"/>
                      <rect id="Rectángulo_46598" data-name="Rectángulo 46598" width="10.319" height="1.629" transform="translate(0 4.521)" fill="#cc5a00"/>
                      <rect id="Rectángulo_46599" data-name="Rectángulo 46599" width="9.573" height="1.629" transform="translate(11.503 4.521)" fill="#cc5a00"/>
                    </g>
                  </g>
                  <g id="Grupo_156405" data-name="Grupo 156405" transform="translate(99.498)">
                    <rect id="Rectángulo_46600" data-name="Rectángulo 46600" width="84.032" height="61.23" transform="translate(8.194)" fill="#bf743a"/>
                    <rect id="Rectángulo_46601" data-name="Rectángulo 46601" width="84.034" height="61.227" transform="translate(0 0.002)" fill="#ff9b4d"/>
                    <path id="Trazado_191345" data-name="Trazado 191345" d="M1756.508,450.186v21.933l-.1-.094-1.161,1.073-1.164-1.073-1.161,1.073-1.164-1.073-1.164,1.073-1.161-1.073-1.164,1.073-1.161-1.073-1.164,1.073-1.161-1.073-1.164,1.073-1.164-1.073-1.161,1.073-1.164-1.073-.1.091v-21.93Z" transform="translate(-1706.248 -450.183)" fill="#804d26"/>
                    <rect id="Rectángulo_46602" data-name="Rectángulo 46602" width="25.708" height="9.978" transform="translate(53.21 46.894)" fill="#ffc69a"/>
                    <g id="Grupo_156404" data-name="Grupo 156404" transform="translate(55.526 48.808)">
                      <rect id="Rectángulo_46603" data-name="Rectángulo 46603" width="21.076" height="1.717" fill="#cc5a00"/>
                      <rect id="Rectángulo_46604" data-name="Rectángulo 46604" width="10.319" height="1.629" transform="translate(0 4.521)" fill="#cc5a00"/>
                      <rect id="Rectángulo_46605" data-name="Rectángulo 46605" width="9.573" height="1.629" transform="translate(11.503 4.521)" fill="#cc5a00"/>
                    </g>
                  </g>
                </g>
                <g id="Grupo_156411" data-name="Grupo 156411" transform="translate(9.459 148.971)">
                  <g id="Grupo_156408" data-name="Grupo 156408">
                    <rect id="Rectángulo_46606" data-name="Rectángulo 46606" width="84.034" height="61.227" transform="translate(8.193)" fill="#bf743a"/>
                    <rect id="Rectángulo_46607" data-name="Rectángulo 46607" width="84.034" height="61.227" fill="#ff9b4d"/>
                    <path id="Trazado_191346" data-name="Trazado 191346" d="M1537.518,670.524v21.933l-.1-.094-1.161,1.073-1.164-1.073-1.161,1.073-1.164-1.073-1.164,1.073-1.161-1.073-1.164,1.073-1.161-1.073-1.164,1.073-1.161-1.073-1.164,1.073-1.164-1.073-1.161,1.073-1.164-1.073-.1.091v-21.93Z" transform="translate(-1487.258 -670.523)" fill="#804d26"/>
                    <rect id="Rectángulo_46608" data-name="Rectángulo 46608" width="25.708" height="9.978" transform="translate(53.21 46.893)" fill="#ffc69a"/>
                    <g id="Grupo_156407" data-name="Grupo 156407" transform="translate(55.526 48.807)">
                      <rect id="Rectángulo_46609" data-name="Rectángulo 46609" width="21.076" height="1.717" fill="#cc5a00"/>
                      <rect id="Rectángulo_46610" data-name="Rectángulo 46610" width="10.319" height="1.629" transform="translate(0 4.521)" fill="#cc5a00"/>
                      <rect id="Rectángulo_46611" data-name="Rectángulo 46611" width="9.573" height="1.629" transform="translate(11.503 4.521)" fill="#cc5a00"/>
                    </g>
                  </g>
                  <g id="Grupo_156410" data-name="Grupo 156410" transform="translate(99.498)">
                    <rect id="Rectángulo_46612" data-name="Rectángulo 46612" width="84.034" height="61.227" transform="translate(8.193)" fill="#bf743a"/>
                    <rect id="Rectángulo_46613" data-name="Rectángulo 46613" width="84.034" height="61.227" fill="#ff9b4d"/>
                    <path id="Trazado_191347" data-name="Trazado 191347" d="M1761.756,670.524v21.933l-.1-.094-1.161,1.073-1.164-1.073-1.161,1.073L1757,692.363l-1.164,1.073-1.161-1.073-1.164,1.073-1.161-1.073-1.164,1.073-1.161-1.073-1.164,1.073-1.164-1.073-1.161,1.073-1.164-1.073-.1.091v-21.93Z" transform="translate(-1711.496 -670.523)" fill="#804d26"/>
                    <rect id="Rectángulo_46614" data-name="Rectángulo 46614" width="25.708" height="9.978" transform="translate(53.21 46.893)" fill="#ffc69a"/>
                    <g id="Grupo_156409" data-name="Grupo 156409" transform="translate(55.526 48.807)">
                      <rect id="Rectángulo_46615" data-name="Rectángulo 46615" width="21.076" height="1.717" fill="#cc5a00"/>
                      <rect id="Rectángulo_46616" data-name="Rectángulo 46616" width="10.319" height="1.629" transform="translate(0 4.521)" fill="#cc5a00"/>
                      <rect id="Rectángulo_46617" data-name="Rectángulo 46617" width="9.573" height="1.629" transform="translate(11.503 4.521)" fill="#cc5a00"/>
                    </g>
                  </g>
                </g>
                <rect id="Rectángulo_46618" data-name="Rectángulo 46618" width="106.978" height="4.697" transform="translate(2.083 308.043)" fill="#546475"/>
                <g id="Grupo_156414" data-name="Grupo 156414" transform="translate(9.459 247.249)">
                  <g id="Grupo_156413" data-name="Grupo 156413">
                    <rect id="Rectángulo_46619" data-name="Rectángulo 46619" width="84.034" height="61.227" transform="translate(8.193)" fill="#bf743a"/>
                    <rect id="Rectángulo_46620" data-name="Rectángulo 46620" width="84.034" height="61.227" fill="#ff9b4d"/>
                    <path id="Trazado_191348" data-name="Trazado 191348" d="M1537.518,892.013v21.933l-.1-.094-1.161,1.073-1.164-1.073-1.161,1.073-1.164-1.073-1.164,1.073-1.161-1.073-1.164,1.073-1.161-1.073-1.164,1.073-1.161-1.073-1.164,1.073-1.164-1.073-1.161,1.073-1.164-1.073-.1.091v-21.93Z" transform="translate(-1487.258 -892.012)" fill="#804d26"/>
                    <rect id="Rectángulo_46621" data-name="Rectángulo 46621" width="25.708" height="9.978" transform="translate(53.21 46.893)" fill="#ffc69a"/>
                    <g id="Grupo_156412" data-name="Grupo 156412" transform="translate(55.526 48.807)">
                      <rect id="Rectángulo_46622" data-name="Rectángulo 46622" width="21.076" height="1.717" fill="#cc5a00"/>
                      <rect id="Rectángulo_46623" data-name="Rectángulo 46623" width="10.319" height="1.629" transform="translate(0 4.521)" fill="#cc5a00"/>
                      <rect id="Rectángulo_46624" data-name="Rectángulo 46624" width="9.573" height="1.629" transform="translate(11.503 4.521)" fill="#cc5a00"/>
                    </g>
                  </g>
                </g>
                <g id="Grupo_156421" data-name="Grupo 156421" transform="translate(157.105)">
                  <g id="Grupo_156415" data-name="Grupo 156415" transform="translate(9.53 51.202)" opacity="0.5" style="mix-blend-mode: multiply;isolation: isolate">
                    <path id="Trazado_191349" data-name="Trazado 191349" d="M1831.363,450.18v39.652a41.662,41.662,0,0,1-32.22-39.652Z" transform="translate(-1799.143 -450.18)" fill="#939598"/>
                  </g>
                  <circle id="Elipse_5008" data-name="Elipse 5008" cx="33.42" cy="33.42" r="33.42" transform="translate(0 47.263) rotate(-45)" fill="#1a5f76"/>
                  <g id="Grupo_156420" data-name="Grupo 156420" transform="translate(25.615 30.029)">
                    <rect id="Rectángulo_46625" data-name="Rectángulo 46625" width="14.893" height="14.893" rx="7.446" transform="translate(5.03 0.615)" fill="#f1f2f2"/>
                    <rect id="Rectángulo_46626" data-name="Rectángulo 46626" width="14.893" height="14.893" transform="translate(23.375 18.96)" fill="#f1f2f2"/>
                    <g id="Grupo_156417" data-name="Grupo 156417" transform="translate(0 18.96)">
                      <path id="Trazado_191350" data-name="Trazado 191350" d="M1860.85,462.374H1850.8a5.463,5.463,0,0,1-5.457-5.457V448.2h1.23v8.717a4.232,4.232,0,0,0,4.227,4.227h10.051Z" transform="translate(-1840.928 -446.866)" fill="#f1f2f2"/>
                      <g id="Grupo_156416" data-name="Grupo 156416">
                        <path id="Trazado_191351" data-name="Trazado 191351" d="M1845.454,450.6l-.9.839L1840.425,447l-4.13,4.443-.9-.839,5.031-5.41Z" transform="translate(-1835.394 -445.194)" fill="#f1f2f2"/>
                      </g>
                    </g>
                    <g id="Grupo_156419" data-name="Grupo 156419" transform="translate(23.375)">
                      <path id="Trazado_191352" data-name="Trazado 191352" d="M1903.581,416.637h-1.23V407.92a4.232,4.232,0,0,0-4.227-4.227h-10.051v-1.23h10.051a5.463,5.463,0,0,1,5.457,5.457Z" transform="translate(-1888.074 -402.463)" fill="#f1f2f2"/>
                      <g id="Grupo_156418" data-name="Grupo 156418" transform="translate(9.862 9.259)">
                        <path id="Trazado_191353" data-name="Trazado 191353" d="M1910.3,424.169l.9-.839,4.129,4.443,4.13-4.443.9.839-5.031,5.41Z" transform="translate(-1910.299 -423.33)" fill="#f1f2f2"/>
                      </g>
                    </g>
                  </g>
                </g>
              </g>
            </g>
            <g id="Grupo_156429" data-name="Grupo 156429" transform="translate(614.403 165.852)">
              <path id="Trazado_191354" data-name="Trazado 191354" d="M1543.351,822.962l-1.362-25.064-26.074,35.38a5.1,5.1,0,0,0,.052,6.151l23.322,25.833,3.193-7.1-13.406-20.224Z" transform="translate(-1514.91 -758.26)" fill="#1a5f76"/>
              <g id="Grupo_156425" data-name="Grupo 156425" transform="translate(35.599)">
                <g id="Grupo_156424" data-name="Grupo 156424" transform="translate(4.382 27.108)">
                  <path id="Trazado_191355" data-name="Trazado 191355" d="M1622.937,777.639l-4.891,2.338a9.44,9.44,0,0,1-8.143,0l-4.889-2.338a14.071,14.071,0,0,0,2.494-2.565c.911-1.3,1.4-5.2.951-5.413h11.761a.015.015,0,0,0-.014.006c-.1.026-.188.274-.248.651a10.773,10.773,0,0,0-.069,2.214,7.026,7.026,0,0,0,.553,2.542A7.823,7.823,0,0,0,1622.937,777.639Z" transform="translate(-1605.014 -769.661)" fill="#f6c49a"/>
                </g>
                <path id="Trazado_191356" data-name="Trazado 191356" d="M1633.724,770.374l-.063.444c-.51.089-1.02.158-1.519.213a10.771,10.771,0,0,0-.069,2.214l-5.155-2.189,5.472-.676Z" transform="translate(-1612.817 -742.949)" fill="gray" opacity="0.5" style="mix-blend-mode: multiply;isolation: isolate"/>
                <path id="Trazado_191357" data-name="Trazado 191357" d="M1628.412,740.893c-.671.141-1.339.241-2,.314-.515.056-1.029.092-1.53.114a25.965,25.965,0,0,1-3.667-.119,27.012,27.012,0,0,1-5.638-1.149l1.346-20.575s7.916-4.557,12.611-1.714C1630.136,718.131,1634.946,739.524,1628.412,740.893Z" transform="translate(-1606.509 -713.164)" fill="#f6c49a"/>
                <path id="Trazado_191358" data-name="Trazado 191358" d="M1606.021,737.592a3.418,3.418,0,0,0,2.113-.982,7.444,7.444,0,0,0,1.164-2.1c.341-.814.688-1.625,1.024-2.441a2.7,2.7,0,0,0-.1-1.891c-.391-1.336-1.151-2.7-.6-4.108a1.82,1.82,0,0,1,1.389-1.178c1.395-.173,1.664,2.275,3.149,1.72.632-.236.763-1.058.782-1.732a15.177,15.177,0,0,0-.075-2.373c-.1-.751-.651-1.6-.676-2.306-.059-1.663,1.871-2.66,3.141-3.267.678-.325,1.467-.422,1.844-1.079a3.821,3.821,0,0,0-.125-3.085,6.481,6.481,0,0,0-2.57-2.777,15.286,15.286,0,0,0-2.623-1.254c-1.039-.4-1.733,0-2.806.18a41.854,41.854,0,0,1-5.831.241,9.659,9.659,0,0,0-6.56,3.112,10.467,10.467,0,0,0-1.94,2.871,11.884,11.884,0,0,0-1.06,9.3,23.807,23.807,0,0,0,3.609,6.966,20.309,20.309,0,0,1,1.625,3.671c.461,1.1,1.075,2.417,2.275,2.862,1.027.381,1.852-.1,2.819-.343Z" transform="translate(-1595.139 -708.567)" fill="#0a1416"/>
              </g>
              <g id="Grupo_156428" data-name="Grupo 156428" transform="translate(24.439 104.216)">
                <g id="Grupo_156426" data-name="Grupo 156426" transform="translate(35.602 136.301)">
                  <path id="Trazado_191359" data-name="Trazado 191359" d="M1651.563,1250.621h8.144l5.309,1.02a1.424,1.424,0,0,1,.452,2.508s-6.329,3.527-7.977,3.527h-6.382a.8.8,0,0,1-.719-1.02A7.993,7.993,0,0,1,1651.563,1250.621Z" transform="translate(-1650.224 -1250.621)" fill="#212121"/>
                </g>
                <path id="Trazado_191360" data-name="Trazado 191360" d="M1619.117,976.22l12.83,104.635h8.144l-4.627-135.412-16.212.128-1.92,3.852C1612.263,959.594,1615.221,965.545,1619.117,976.22Z" transform="translate(-1594.828 -944.554)" fill="#0a1416"/>
                <g id="Grupo_156427" data-name="Grupo 156427" transform="translate(0 136.301)">
                  <path id="Trazado_191361" data-name="Trazado 191361" d="M1584.463,1250.621h-7.837l-5.616,1.02a1.424,1.424,0,0,0-.453,2.508s6.329,3.527,7.977,3.527h6.381a.8.8,0,0,0,.719-1.02A7.992,7.992,0,0,0,1584.463,1250.621Z" transform="translate(-1569.987 -1250.621)" fill="#212121"/>
                </g>
                <path id="Trazado_191362" data-name="Trazado 191362" d="M1585.078,1079.74h7.837l10.443-112,2.545-24.3-20.531.369Z" transform="translate(-1578.382 -943.438)" fill="#0a1416"/>
              </g>
              <path id="Trazado_191363" data-name="Trazado 191363" d="M1615.419,855.523c-.008.868.154,1.49-.708,1.58-12.051,1.228-22.278,1.77-34.777.6-1.027-.1-.734-.164-.747-1.2l.359-4.374-.861-23.157-1.458-9.182a85.6,85.6,0,0,1-1.056-12.583l-.232-15.574,11.53-5h19.272l10.307,2.222C1616,788.874,1612.115,846.913,1615.419,855.523Z" transform="translate(-1548.859 -751.997)" fill="#1a5f76"/>
              <path id="Trazado_191364" data-name="Trazado 191364" d="M1621.194,783.191h-19.272v-1.774a.976.976,0,0,1,.976-.976h17.32a.976.976,0,0,1,.976.976Z" transform="translate(-1563.313 -748.549)" fill="#1a5f76"/>
              <path id="Trazado_191365" data-name="Trazado 191365" d="M1601.238,855.718a.294.294,0,0,1-.1-.017c-8.635-3.133-18.47-13.877-18.569-13.985a.316.316,0,0,1,.014-.438.3.3,0,0,1,.426.015c.1.107,9.834,10.74,18.329,13.823a.313.313,0,0,1,.184.4A.3.3,0,0,1,1601.238,855.718Z" transform="translate(-1552.502 -782.345)" fill="#6d6e71" opacity="0.8" style="mix-blend-mode: multiply;isolation: isolate"/>
              <path id="Trazado_191366" data-name="Trazado 191366" d="M1591.865,859.886a.279.279,0,0,1-.119-.027c-4.034-1.907-7.5-9.073-7.65-9.377a.279.279,0,1,1,.5-.241c.035.073,3.531,7.291,7.386,9.113a.279.279,0,0,1-.119.532Z" transform="translate(-1553.381 -787.29)" fill="#6d6e71" opacity="0.8" style="mix-blend-mode: multiply;isolation: isolate"/>
              <path id="Trazado_191367" data-name="Trazado 191367" d="M1609.465,935.991a79.583,79.583,0,0,1-19.678-2.259c-.2-.056-.294-.218-.217-.362a.442.442,0,0,1,.5-.158,82.379,82.379,0,0,0,25.68,2,.369.369,0,0,1,.42.251c.021.154-.134.29-.345.3C1613.61,935.924,1611.481,935.991,1609.465,935.991Z" transform="translate(-1556.427 -833.523)" fill="#6d6e71" opacity="0.8" style="mix-blend-mode: multiply;isolation: isolate"/>
              <path id="Trazado_191368" data-name="Trazado 191368" d="M1607.447,926.571a.286.286,0,0,1-.051,0c-13.275-2.457-14.415-6.453-14.458-6.622a.279.279,0,0,1,.541-.138c.017.057,1.238,3.845,14.018,6.211a.279.279,0,0,1-.051.553Z" transform="translate(-1558.312 -825.961)" fill="#6d6e71" opacity="0.8" style="mix-blend-mode: multiply;isolation: isolate"/>
              <path id="Trazado_191369" data-name="Trazado 191369" d="M1619.054,830.921h-30.674a.553.553,0,1,1,0-1.105h30.674a.553.553,0,1,1,0,1.105Z" transform="translate(-1555.473 -776.016)" fill="#6d6e71" opacity="0.8" style="mix-blend-mode: multiply;isolation: isolate"/>
              <path id="Trazado_191370" data-name="Trazado 191370" d="M1665.579,768.794l19.428,5.154,17-24.068,7.542,4.526-16.279,28.266a7.272,7.272,0,0,1-6.044,3.626l-23.477-1.209A38.325,38.325,0,0,1,1665.579,768.794Z" transform="translate(-1597.589 -731.549)" fill="#1a5f76"/>
              <path id="Trazado_191371" data-name="Trazado 191371" d="M1750.805,733.776l8.584-12.553a1.1,1.1,0,0,1,2.017.377,4.21,4.21,0,0,1-.05,1.416,10.2,10.2,0,0,1-2.53,4.734s4.487,1.471,3.6,5.088c-1.187,4.844-5.125,4.863-5.125,4.863Z" transform="translate(-1646.135 -715.322)" fill="#f6c49a"/>
              <path id="Trazado_191372" data-name="Trazado 191372" d="M1573.276,931.978l2.789,1.912,3.236-3.6a.773.773,0,0,1,1.292.23l.145.362a2.222,2.222,0,0,1-.112,1.888l-3.363,6.177-.02,9.038-3.619-3.841-1.356-4.217-1.759-1.809Z" transform="translate(-1545.839 -831.768)" fill="#f6c49a"/>
            </g>
            <g id="Grupo_156430" data-name="Grupo 156430" transform="translate(648.931 162.254)">
              <path id="Trazado_191373" data-name="Trazado 191373" d="M1627.714,708.3c-.329-1.128-4.154-1-8.57.267a17.078,17.078,0,0,0-4.244-4.962,13.044,13.044,0,0,0-21.018,6.131,17.615,17.615,0,0,0-.191,10.722l27.135-7.915,0-.006C1624.987,711.239,1628.031,709.387,1627.714,708.3Z" transform="translate(-1592.851 -700.458)" fill="#d64833"/>
              <path id="Trazado_191374" data-name="Trazado 191374" d="M1603.99,700.914a13.68,13.68,0,0,0-7.615,8.349,17.619,17.619,0,0,0-.191,10.722l-2.491.727a17.618,17.618,0,0,1,.189-10.722,13.5,13.5,0,0,1,8.845-8.778A12.175,12.175,0,0,1,1603.99,700.914Z" transform="translate(-1592.851 -700.712)" fill="#808285" opacity="0.3" style="mix-blend-mode: multiply;isolation: isolate"/>
              <path id="Trazado_191375" data-name="Trazado 191375" d="M1627.59,717.361c.317,1.086-2.727,2.937-6.89,4.236l0,.007-27.765,8.1c-.071-.242-.151-.479-.211-.721l27.136-7.916,0-.007c4.162-1.3,7.205-3.151,6.889-4.236a.516.516,0,0,0-.031-.079C1627.2,716.871,1627.506,717.076,1627.59,717.361Z" transform="translate(-1592.726 -709.518)" fill="#808285" opacity="0.3" style="mix-blend-mode: multiply;isolation: isolate"/>
              <path id="Rectángulo_46627" data-name="Rectángulo 46627" d="M0,0H11.005a0,0,0,0,1,0,0V0A2.985,2.985,0,0,1,8.02,2.985H0a0,0,0,0,1,0,0V0A0,0,0,0,1,0,0Z" transform="translate(0.841 20.001) rotate(-16.262)" fill="#00955e"/>
              <path id="Trazado_191376" data-name="Trazado 191376" d="M1605.186,738.589a3.212,3.212,0,0,1-.141,2.24,2.447,2.447,0,0,1-1.524,1.355l-8.063,2.352-.836-2.866Z" transform="translate(-1593.78 -721.67)" fill="#bcbec0"/>
              <path id="Trazado_191377" data-name="Trazado 191377" d="M1603.291,737.376a3.212,3.212,0,0,1-.141,2.24,2.448,2.448,0,0,1-1.525,1.355l-8.064,2.352-.836-2.866Z" transform="translate(-1592.726 -720.995)" fill="#d64833"/>
            </g>
          </g>
        </g>
      </g>
    </g>
  </g>
</svg>
