<svg xmlns="http://www.w3.org/2000/svg" xmlns:xlink="http://www.w3.org/1999/xlink" width="491.97" height="360.017" viewBox="0 0 491.97 360.017">
  <defs>
    <linearGradient id="linear-gradient" x1="-1.187" y1="-2.316" x2="1.843" y2="-2.316" gradientUnits="objectBoundingBox">
      <stop offset="0" stop-color="#6986d9"/>
      <stop offset="1" stop-color="#8fb3ff"/>
    </linearGradient>
    <linearGradient id="linear-gradient-2" x1="-1.806" y1="-3.104" x2="2.827" y2="-3.104" xlink:href="#linear-gradient"/>
    <linearGradient id="linear-gradient-3" x1="-1.9" y1="-1.977" x2="1.16" y2="-1.977" xlink:href="#linear-gradient"/>
    <linearGradient id="linear-gradient-4" x1="-0.812" y1="-1.541" x2="1.125" y2="-1.541" xlink:href="#linear-gradient"/>
    <linearGradient id="linear-gradient-5" x1="-1.32" y1="-2.302" x2="1.71" y2="-2.302" xlink:href="#linear-gradient"/>
    <linearGradient id="linear-gradient-6" x1="-3.8" y1="-2.338" x2="0.912" y2="-2.338" xlink:href="#linear-gradient"/>
    <linearGradient id="linear-gradient-7" x1="-1.158" y1="-1.958" x2="1.362" y2="-1.958" xlink:href="#linear-gradient"/>
    <linearGradient id="linear-gradient-8" x1="-5.284" y1="-2.553" x2="0.742" y2="-2.553" xlink:href="#linear-gradient"/>
    <linearGradient id="linear-gradient-9" x1="-0.997" y1="-1.634" x2="1.098" y2="-1.634" xlink:href="#linear-gradient"/>
    <linearGradient id="linear-gradient-10" x1="-1.751" y1="-2.505" x2="1.753" y2="-2.505" xlink:href="#linear-gradient"/>
    <linearGradient id="linear-gradient-11" x1="-2.707" y1="-1.924" x2="0.677" y2="-1.924" xlink:href="#linear-gradient"/>
    <linearGradient id="linear-gradient-12" x1="-2.381" y1="-2.972" x2="2.233" y2="-2.972" xlink:href="#linear-gradient"/>
    <linearGradient id="linear-gradient-13" x1="-0.516" y1="3.7" x2="-0.516" y2="-1.135" xlink:href="#linear-gradient"/>
    <linearGradient id="linear-gradient-14" x1="-0.763" y1="2.097" x2="-0.763" y2="-2.738" xlink:href="#linear-gradient"/>
    <linearGradient id="linear-gradient-15" x1="-1.01" y1="0.494" x2="-1.01" y2="-4.341" xlink:href="#linear-gradient"/>
    <linearGradient id="linear-gradient-16" x1="-1.258" y1="-1.109" x2="-1.258" y2="-5.943" xlink:href="#linear-gradient"/>
    <linearGradient id="linear-gradient-17" x1="3.685" y1="51.158" x2="1.333" y2="59.969" xlink:href="#linear-gradient"/>
    <linearGradient id="linear-gradient-18" x1="3.953" y1="53.204" x2="1.436" y2="62.404" xlink:href="#linear-gradient"/>
    <linearGradient id="linear-gradient-19" x1="8.169" y1="76.715" x2="2.975" y2="90.312" xlink:href="#linear-gradient"/>
    <linearGradient id="linear-gradient-20" x1="11.458" y1="95.833" x2="3.069" y2="112.256" xlink:href="#linear-gradient"/>
    <linearGradient id="linear-gradient-21" x1="4.836" y1="58.839" x2="1.797" y2="69.14" xlink:href="#linear-gradient"/>
    <linearGradient id="linear-gradient-22" x1="5.86" y1="64.935" x2="2.185" y2="76.389" xlink:href="#linear-gradient"/>
    <linearGradient id="linear-gradient-23" x1="8.301" y1="76.309" x2="3.107" y2="89.907" xlink:href="#linear-gradient"/>
    <linearGradient id="linear-gradient-24" x1="7.267" y1="79.807" x2="2.046" y2="93.441" xlink:href="#linear-gradient"/>
    <linearGradient id="linear-gradient-25" x1="8.309" y1="87.852" x2="1.967" y2="102.675" xlink:href="#linear-gradient"/>
    <linearGradient id="linear-gradient-26" x1="5.66" y1="63.178" x2="2.152" y2="74.349" xlink:href="#linear-gradient"/>
    <linearGradient id="linear-gradient-27" x1="4.075" y1="52.637" x2="1.558" y2="61.831" xlink:href="#linear-gradient"/>
    <linearGradient id="linear-gradient-28" x1="8.421" y1="75.972" x2="3.227" y2="89.577" xlink:href="#linear-gradient"/>
    <linearGradient id="linear-gradient-29" x1="10.983" y1="96.983" x2="2.612" y2="113.425" xlink:href="#linear-gradient"/>
    <linearGradient id="linear-gradient-30" x1="8.823" y1="76.966" x2="3.43" y2="90.805" xlink:href="#linear-gradient"/>
    <linearGradient id="linear-gradient-31" x1="5.848" y1="63.381" x2="2.284" y2="74.659" xlink:href="#linear-gradient"/>
    <linearGradient id="linear-gradient-32" x1="9.83" y1="80.083" x2="3.851" y2="94.54" xlink:href="#linear-gradient"/>
    <linearGradient id="linear-gradient-33" x1="7.507" y1="79.058" x2="2.286" y2="92.693" xlink:href="#linear-gradient"/>
    <linearGradient id="linear-gradient-34" x1="6.05" y1="72.045" x2="1.82" y2="84.386" xlink:href="#linear-gradient"/>
    <linearGradient id="linear-gradient-35" x1="8.632" y1="86.995" x2="2.264" y2="101.81" xlink:href="#linear-gradient"/>
    <linearGradient id="linear-gradient-36" x1="0.721" y1="4.24" x2="1.521" y2="7.233" gradientUnits="objectBoundingBox">
      <stop offset="0" stop-color="#8fb3ff"/>
      <stop offset="1" stop-color="#6986d9"/>
    </linearGradient>
    <linearGradient id="linear-gradient-37" x1="0.879" y1="6.689" x2="2.135" y2="11.376" xlink:href="#linear-gradient-36"/>
    <linearGradient id="linear-gradient-38" x1="1.177" y1="10.057" x2="3.697" y2="19.366" xlink:href="#linear-gradient-36"/>
    <linearGradient id="linear-gradient-39" x1="0.777" y1="4.597" x2="1.68" y2="7.978" xlink:href="#linear-gradient-36"/>
    <linearGradient id="linear-gradient-40" x1="0.853" y1="5.461" x2="1.941" y2="9.528" xlink:href="#linear-gradient-36"/>
    <linearGradient id="linear-gradient-41" x1="0.792" y1="4.237" x2="1.673" y2="7.535" xlink:href="#linear-gradient-36"/>
    <linearGradient id="linear-gradient-42" x1="0.866" y1="4.981" x2="1.918" y2="8.911" xlink:href="#linear-gradient-36"/>
    <linearGradient id="linear-gradient-43" x1="0.841" y1="4.348" x2="1.793" y2="7.908" xlink:href="#linear-gradient-36"/>
    <linearGradient id="linear-gradient-44" x1="0.94" y1="5.256" x2="2.108" y2="9.618" xlink:href="#linear-gradient-36"/>
    <linearGradient id="linear-gradient-45" x1="2.145" y1="14.625" x2="6.906" y2="31.906" xlink:href="#linear-gradient-36"/>
    <linearGradient id="linear-gradient-46" x1="0.818" y1="3.55" x2="1.654" y2="6.679" xlink:href="#linear-gradient-36"/>
    <linearGradient id="linear-gradient-47" x1="0.813" y1="3.27" x2="1.612" y2="6.263" xlink:href="#linear-gradient-36"/>
    <linearGradient id="linear-gradient-48" x1="1.023" y1="5.171" x2="2.279" y2="9.858" xlink:href="#linear-gradient-36"/>
    <linearGradient id="linear-gradient-49" x1="1.464" y1="7.041" x2="3.985" y2="16.35" xlink:href="#linear-gradient-36"/>
    <linearGradient id="linear-gradient-50" x1="0.88" y1="3.501" x2="1.784" y2="6.883" xlink:href="#linear-gradient-36"/>
    <linearGradient id="linear-gradient-51" x1="0.977" y1="4.143" x2="2.066" y2="8.211" xlink:href="#linear-gradient-36"/>
    <linearGradient id="linear-gradient-52" x1="0.892" y1="3.169" x2="1.774" y2="6.467" xlink:href="#linear-gradient-36"/>
    <linearGradient id="linear-gradient-53" x1="0.987" y1="3.708" x2="2.038" y2="7.638" xlink:href="#linear-gradient-36"/>
    <linearGradient id="linear-gradient-54" x1="0.95" y1="3.194" x2="1.902" y2="6.755" xlink:href="#linear-gradient-36"/>
    <linearGradient id="linear-gradient-55" x1="1.073" y1="3.843" x2="2.241" y2="8.205" xlink:href="#linear-gradient-36"/>
    <linearGradient id="linear-gradient-56" x1="2.688" y1="9.024" x2="7.451" y2="26.306" xlink:href="#linear-gradient-36"/>
    <linearGradient id="linear-gradient-57" x1="0.913" y1="2.536" x2="1.749" y2="5.665" xlink:href="#linear-gradient-36"/>
    <linearGradient id="linear-gradient-58" x1="4.065" y1="-2.268" x2="3.324" y2="-1.081" gradientUnits="objectBoundingBox">
      <stop offset="0.015" stop-color="#fff"/>
      <stop offset="0.999" stop-color="#e1e7ff"/>
    </linearGradient>
  </defs>
  <g id="Grupo_163179" data-name="Grupo 163179" transform="translate(201.86 -360.985)">
    <g id="Grupo_163154" data-name="Grupo 163154" transform="translate(0 36.588)">
      <path id="Trazado_198148" data-name="Trazado 198148" d="M20.527,575.531a4.675,4.675,0,0,1-3.91,5.335l-175.869,27.126a4.675,4.675,0,0,1-5.336-3.909L-201.8,362.794a4.679,4.679,0,0,1,3.911-5.337l175.869-27.126a4.677,4.677,0,0,1,5.336,3.91Z" fill="#81d4fa"/>
      <path id="Trazado_198149" data-name="Trazado 198149" d="M9.78,557.053a4.678,4.678,0,0,1-3.91,5.336l-160.44,24.747a4.68,4.68,0,0,1-5.337-3.912L-193.14,367.76a4.678,4.678,0,0,1,3.911-5.336L-28.79,337.678a4.678,4.678,0,0,1,5.337,3.91Z" fill="#f4f4f4"/>
      <g id="Grupo_163146" data-name="Grupo 163146">
        <path id="Trazado_198150" data-name="Trazado 198150" d="M-84.945,332.661l-13.977,2.156a12.293,12.293,0,0,0-14.023-10.275,12.293,12.293,0,0,0-10.274,14.023L-137.2,340.72a9.356,9.356,0,0,0-7.821,10.673l.12.777a9.356,9.356,0,0,0,10.673,7.821l52.25-8.059a9.356,9.356,0,0,0,7.821-10.674l-.119-.776A9.358,9.358,0,0,0-84.945,332.661Zm-25.307,9.332a5.623,5.623,0,0,1-6.414-4.7,5.622,5.622,0,0,1,4.7-6.413,5.622,5.622,0,0,1,6.413,4.7A5.622,5.622,0,0,1-110.252,341.993Z" fill="#7e5ee3"/>
      </g>
      <g id="Grupo_163147" data-name="Grupo 163147" opacity="0.5">
        <path id="Trazado_198151" data-name="Trazado 198151" d="M-114.044,384.886a4.232,4.232,0,0,1-3.538,4.829l-45.9,7.079a4.233,4.233,0,0,1-4.828-3.539h0a4.232,4.232,0,0,1,3.538-4.828l45.9-7.08a4.233,4.233,0,0,1,4.829,3.539Z" fill="url(#linear-gradient)"/>
        <path id="Trazado_198152" data-name="Trazado 198152" d="M-133.131,414.569a4.231,4.231,0,0,1-3.537,4.828l-27.091,4.179a4.235,4.235,0,0,1-4.83-3.538h0a4.234,4.234,0,0,1,3.54-4.83l27.09-4.178a4.233,4.233,0,0,1,4.828,3.539Z" fill="url(#linear-gradient-2)"/>
        <path id="Trazado_198153" data-name="Trazado 198153" d="M-76.8,405.88a4.234,4.234,0,0,1-3.538,4.829l-45.367,7a4.233,4.233,0,0,1-4.83-3.538h0A4.233,4.233,0,0,1-127,409.339l45.368-7A4.231,4.231,0,0,1-76.8,405.88Z" fill="url(#linear-gradient-3)"/>
        <path id="Trazado_198154" data-name="Trazado 198154" d="M-78.8,438.377a4.231,4.231,0,0,1-3.537,4.828l-76.576,11.812a4.235,4.235,0,0,1-4.831-3.538h0a4.235,4.235,0,0,1,3.54-4.83l76.576-11.811a4.233,4.233,0,0,1,4.828,3.539Z" fill="url(#linear-gradient-4)"/>
        <path id="Trazado_198155" data-name="Trazado 198155" d="M-106.8,460.456a4.233,4.233,0,0,1-3.538,4.829l-45.895,7.079a4.234,4.234,0,0,1-4.83-3.538h0a4.235,4.235,0,0,1,3.54-4.83l45.894-7.078a4.232,4.232,0,0,1,4.829,3.538Z" fill="url(#linear-gradient-5)"/>
        <path id="Trazado_198156" data-name="Trazado 198156" d="M-65.09,454.023a4.233,4.233,0,0,1-3.539,4.828l-26.5,4.088a4.234,4.234,0,0,1-4.829-3.538h0a4.233,4.233,0,0,1,3.539-4.829l26.5-4.088a4.234,4.234,0,0,1,4.829,3.539Z" fill="url(#linear-gradient-6)"/>
        <path id="Trazado_198157" data-name="Trazado 198157" d="M-91.814,484.409a4.234,4.234,0,0,1-3.539,4.83l-56.924,8.78a4.234,4.234,0,0,1-4.83-3.539h0a4.234,4.234,0,0,1,3.54-4.829l56.924-8.78a4.234,4.234,0,0,1,4.829,3.538Z" fill="url(#linear-gradient-7)"/>
        <path id="Trazado_198158" data-name="Trazado 198158" d="M-61.133,479.677a4.233,4.233,0,0,1-3.538,4.83l-18.869,2.91a4.234,4.234,0,0,1-4.829-3.539h0a4.233,4.233,0,0,1,3.539-4.829l18.868-2.91a4.232,4.232,0,0,1,4.829,3.538Z" fill="url(#linear-gradient-8)"/>
        <path id="Trazado_198159" data-name="Trazado 198159" d="M-75.89,499.713a4.233,4.233,0,0,1-3.537,4.829L-149.6,515.365a4.234,4.234,0,0,1-4.831-3.538h0a4.233,4.233,0,0,1,3.54-4.828l70.174-10.824a4.233,4.233,0,0,1,4.828,3.538Z" fill="url(#linear-gradient-9)"/>
        <path id="Trazado_198160" data-name="Trazado 198160" d="M-103.563,530.245a4.233,4.233,0,0,1-3.539,4.83l-38.542,5.945a4.235,4.235,0,0,1-4.831-3.539h0a4.235,4.235,0,0,1,3.54-4.829l38.542-5.944a4.233,4.233,0,0,1,4.83,3.537Z" fill="url(#linear-gradient-10)"/>
        <path id="Trazado_198161" data-name="Trazado 198161" d="M-52.45,522.362a4.233,4.233,0,0,1-3.539,4.83l-40.21,6.2a4.232,4.232,0,0,1-4.83-3.539h0a4.234,4.234,0,0,1,3.54-4.828l40.209-6.2a4.234,4.234,0,0,1,4.83,3.538Z" fill="url(#linear-gradient-11)"/>
        <path id="Trazado_198162" data-name="Trazado 198162" d="M-112.2,549.337a4.233,4.233,0,0,1-3.537,4.83l-27.232,4.2a4.234,4.234,0,0,1-4.83-3.54h0a4.233,4.233,0,0,1,3.54-4.827l27.231-4.2a4.231,4.231,0,0,1,4.828,3.536Z" fill="url(#linear-gradient-12)"/>
      </g>
      <g id="Grupo_163148" data-name="Grupo 163148">
        <path id="Trazado_198163" data-name="Trazado 198163" d="M-45.156,385.889a2.809,2.809,0,0,1,3.2,2.346l2.407,15.6a2.81,2.81,0,0,1-2.347,3.2l-15.6,2.407a2.809,2.809,0,0,1-3.2-2.346L-63.1,391.5a2.81,2.81,0,0,1,2.346-3.2l15.6-2.407m-.285-1.849-15.6,2.406a4.68,4.68,0,0,0-3.911,5.337l2.406,15.6A4.68,4.68,0,0,0-57.21,411.3l15.6-2.407a4.679,4.679,0,0,0,3.911-5.336l-2.406-15.6a4.679,4.679,0,0,0-5.337-3.91Z" fill="url(#linear-gradient-13)"/>
        <path id="Trazado_198164" data-name="Trazado 198164" d="M-38.39,429.755a2.809,2.809,0,0,1,3.2,2.346l2.406,15.6a2.811,2.811,0,0,1-2.346,3.2l-15.6,2.406a2.809,2.809,0,0,1-3.2-2.346l-2.407-15.6a2.811,2.811,0,0,1,2.347-3.2l15.6-2.406m-.286-1.849-15.6,2.406a4.679,4.679,0,0,0-3.91,5.337l2.406,15.6a4.679,4.679,0,0,0,5.337,3.91l15.6-2.406a4.678,4.678,0,0,0,3.91-5.336l-2.406-15.6a4.679,4.679,0,0,0-5.337-3.91Z" fill="url(#linear-gradient-14)"/>
        <path id="Trazado_198165" data-name="Trazado 198165" d="M-31.624,473.621a2.81,2.81,0,0,1,3.2,2.346l2.406,15.6a2.809,2.809,0,0,1-2.346,3.2l-15.6,2.407a2.81,2.81,0,0,1-3.2-2.347l-2.407-15.6a2.809,2.809,0,0,1,2.346-3.2l15.6-2.407m-.286-1.849-15.6,2.406a4.679,4.679,0,0,0-3.91,5.336l2.406,15.6a4.678,4.678,0,0,0,5.337,3.909l15.6-2.406a4.677,4.677,0,0,0,3.91-5.336l-2.406-15.6a4.68,4.68,0,0,0-5.337-3.909Z" fill="url(#linear-gradient-15)"/>
        <path id="Trazado_198166" data-name="Trazado 198166" d="M-24.859,517.486a2.812,2.812,0,0,1,3.2,2.346l2.406,15.6a2.81,2.81,0,0,1-2.346,3.2l-15.6,2.406a2.811,2.811,0,0,1-3.2-2.346l-2.406-15.6a2.809,2.809,0,0,1,2.347-3.2l15.6-2.407m-.285-1.849-15.6,2.407a4.678,4.678,0,0,0-3.91,5.337l2.406,15.6a4.68,4.68,0,0,0,5.337,3.911l15.6-2.406A4.681,4.681,0,0,0-17.4,535.15l-2.407-15.6a4.679,4.679,0,0,0-5.337-3.91Z" fill="url(#linear-gradient-16)"/>
      </g>
      <g id="Grupo_163153" data-name="Grupo 163153">
        <g id="Grupo_163149" data-name="Grupo 163149">
          <path id="Trazado_198167" data-name="Trazado 198167" d="M-49.949,402.631a2.691,2.691,0,0,1-1.9-.423l-16.034-10.746a2.685,2.685,0,0,1-.735-3.724A2.685,2.685,0,0,1-64.9,387l13.7,9.181L-35,369.478a2.685,2.685,0,0,1,3.688-.9,2.684,2.684,0,0,1,.9,3.687l-17.66,29.107A2.689,2.689,0,0,1-49.78,402.6C-49.836,402.612-49.893,402.621-49.949,402.631Z" fill="#6986d9"/>
        </g>
        <g id="Grupo_163150" data-name="Grupo 163150">
          <path id="Trazado_198168" data-name="Trazado 198168" d="M-42.994,447.723a2.691,2.691,0,0,1-1.9-.423l-16.033-10.746a2.682,2.682,0,0,1-.736-3.724,2.684,2.684,0,0,1,3.724-.735l13.7,9.18,16.2-26.7a2.686,2.686,0,0,1,3.687-.9,2.686,2.686,0,0,1,.9,3.688l-17.66,29.107a2.689,2.689,0,0,1-1.716,1.229C-42.881,447.7-42.938,447.714-42.994,447.723Z" fill="#6986d9"/>
        </g>
        <g id="Grupo_163151" data-name="Grupo 163151">
          <path id="Trazado_198169" data-name="Trazado 198169" d="M-36.039,492.815a2.681,2.681,0,0,1-1.9-.424l-16.034-10.745a2.683,2.683,0,0,1-.735-3.723,2.685,2.685,0,0,1,3.724-.737l13.7,9.182,16.2-26.706a2.686,2.686,0,0,1,3.689-.9,2.683,2.683,0,0,1,.9,3.686l-17.66,29.107a2.688,2.688,0,0,1-1.716,1.23C-35.926,492.8-35.982,492.807-36.039,492.815Z" fill="#6986d9"/>
        </g>
        <g id="Grupo_163152" data-name="Grupo 163152">
          <path id="Trazado_198170" data-name="Trazado 198170" d="M-29.084,537.907a2.7,2.7,0,0,1-1.9-.422l-16.033-10.746a2.687,2.687,0,0,1-.736-3.727,2.685,2.685,0,0,1,3.724-.733l13.7,9.179,16.2-26.7a2.684,2.684,0,0,1,3.688-.9,2.687,2.687,0,0,1,.9,3.688L-27.2,536.646a2.693,2.693,0,0,1-1.716,1.229C-28.972,537.887-29.028,537.9-29.084,537.907Z" fill="#6986d9"/>
        </g>
      </g>
    </g>
    <g id="Grupo_163162" data-name="Grupo 163162" transform="translate(24.408 30.235)">
      <path id="Trazado_198171" data-name="Trazado 198171" d="M32.146,619.218A5.163,5.163,0,0,1,27.1,624.5l-138.8,3.157a5.163,5.163,0,0,1-5.278-5.047L-121.267,434.1a5.163,5.163,0,0,1,5.045-5.28l138.8-3.154a5.161,5.161,0,0,1,5.278,5.044Z" fill="#fff"/>
      <g id="Grupo_163155" data-name="Grupo 163155">
        <path id="Trazado_198172" data-name="Trazado 198172" d="M-93.147,450.887a9.415,9.415,0,0,1,9.618,9.192,9.419,9.419,0,0,1-9.191,9.62,9.421,9.421,0,0,1-9.621-9.193,9.419,9.419,0,0,1,9.194-9.619m-.048-2.065a11.474,11.474,0,0,0-11.211,11.731,11.475,11.475,0,0,0,11.731,11.211,11.476,11.476,0,0,0,11.212-11.733,11.474,11.474,0,0,0-11.732-11.209Z" fill="#fff"/>
        <path id="Trazado_198173" data-name="Trazado 198173" d="M-92.126,495.813a9.422,9.422,0,0,1,9.62,9.2,9.423,9.423,0,0,1-9.193,9.622,9.422,9.422,0,0,1-9.621-9.194,9.425,9.425,0,0,1,9.194-9.624m-.049-2.061a11.472,11.472,0,0,0-11.21,11.731,11.473,11.473,0,0,0,11.732,11.211,11.471,11.471,0,0,0,11.211-11.733,11.472,11.472,0,0,0-11.733-11.209Z" fill="#fff"/>
        <path id="Trazado_198174" data-name="Trazado 198174" d="M-91.167,536.489a9.42,9.42,0,0,1,9.62,9.192A9.42,9.42,0,0,1-90.74,555.3a9.421,9.421,0,0,1-9.621-9.192,9.423,9.423,0,0,1,9.194-9.622m-.048-2.063a11.473,11.473,0,0,0-11.211,11.73A11.478,11.478,0,0,0-90.693,557.37a11.48,11.48,0,0,0,11.212-11.736,11.475,11.475,0,0,0-11.734-11.208Z" fill="#fff"/>
        <path id="Trazado_198175" data-name="Trazado 198175" d="M-90.278,577.165a9.421,9.421,0,0,1,9.621,9.193,9.418,9.418,0,0,1-9.194,9.62,9.421,9.421,0,0,1-9.62-9.19,9.421,9.421,0,0,1,9.193-9.623m-.046-2.066a11.477,11.477,0,0,0-11.212,11.733A11.476,11.476,0,0,0-89.8,598.044a11.477,11.477,0,0,0,11.212-11.732A11.478,11.478,0,0,0-90.324,575.1Z" fill="#fff"/>
      </g>
      <g id="Grupo_163156" data-name="Grupo 163156">
        <path id="Trazado_198176" data-name="Trazado 198176" d="M-68.232,453.027l79.343-1.8a.516.516,0,0,0-.022-1.031l-79.344,1.8a.516.516,0,0,0-.505.528A.516.516,0,0,0-68.232,453.027Z" fill="url(#linear-gradient-17)"/>
        <path id="Trazado_198177" data-name="Trazado 198177" d="M-68.067,460.243l74.086-1.682a.517.517,0,0,0-.025-1.033l-74.086,1.683a.518.518,0,0,0-.5.529A.513.513,0,0,0-68.067,460.243Z" fill="url(#linear-gradient-18)"/>
        <path id="Trazado_198178" data-name="Trazado 198178" d="M-67.9,467.462l35.37-.8a.515.515,0,0,0,.5-.528.513.513,0,0,0-.527-.5l-35.369.8a.52.52,0,0,0-.507.529A.521.521,0,0,0-67.9,467.462Z" fill="url(#linear-gradient-19)"/>
        <path id="Trazado_198179" data-name="Trazado 198179" d="M-28.256,465.527a.517.517,0,0,0-.5.527.518.518,0,0,0,.529.505l21.51-.488a.516.516,0,0,0,.5-.53.515.515,0,0,0-.526-.5Z" fill="url(#linear-gradient-20)"/>
        <path id="Trazado_198180" data-name="Trazado 198180" d="M-67.21,497.958l61.181-1.39a.518.518,0,0,0,.5-.531.515.515,0,0,0-.528-.5l-61.179,1.393a.512.512,0,0,0-.5.525A.516.516,0,0,0-67.21,497.958Z" fill="url(#linear-gradient-21)"/>
        <path id="Trazado_198181" data-name="Trazado 198181" d="M-67.047,505.175l50.425-1.148a.515.515,0,0,0,.5-.528.518.518,0,0,0-.527-.505l-50.426,1.147a.519.519,0,0,0-.506.528A.519.519,0,0,0-67.047,505.175Z" fill="url(#linear-gradient-22)"/>
        <path id="Trazado_198182" data-name="Trazado 198182" d="M-66.882,512.39l35.371-.8a.523.523,0,0,0,.5-.531.52.52,0,0,0-.529-.5l-35.371.8a.516.516,0,0,0-.505.528A.518.518,0,0,0-66.882,512.39Z" fill="url(#linear-gradient-23)"/>
        <path id="Trazado_198183" data-name="Trazado 198183" d="M8.483,510.161a.514.514,0,0,0-.526-.505l-35.191.8a.516.516,0,0,0-.505.529.516.516,0,0,0,.529.5l35.19-.8A.514.514,0,0,0,8.483,510.161Z" fill="url(#linear-gradient-24)"/>
        <path id="Trazado_198184" data-name="Trazado 198184" d="M-13.022,503.428a.514.514,0,0,0,.527.505l28.788-.655a.515.515,0,1,0-.024-1.03l-28.788.653A.514.514,0,0,0-13.022,503.428Z" fill="url(#linear-gradient-25)"/>
        <path id="Trazado_198185" data-name="Trazado 198185" d="M-66.286,538.633l52.89-1.205a.513.513,0,0,0,.5-.527.513.513,0,0,0-.527-.5l-52.89,1.2a.518.518,0,0,0-.5.529A.518.518,0,0,0-66.286,538.633Z" fill="url(#linear-gradient-26)"/>
        <path id="Trazado_198186" data-name="Trazado 198186" d="M-66.121,545.849l74.085-1.682a.518.518,0,0,0-.023-1.035l-74.086,1.684a.517.517,0,0,0-.505.529A.516.516,0,0,0-66.121,545.849Z" fill="url(#linear-gradient-27)"/>
        <path id="Trazado_198187" data-name="Trazado 198187" d="M-65.958,553.064l35.371-.8a.518.518,0,0,0,.5-.529.517.517,0,0,0-.527-.5l-35.372.8a.515.515,0,0,0-.5.527A.516.516,0,0,0-65.958,553.064Z" fill="url(#linear-gradient-28)"/>
        <path id="Trazado_198188" data-name="Trazado 198188" d="M-8.5,537.315l21.558-.486a.517.517,0,0,0-.023-1.033l-21.557.489a.518.518,0,0,0-.506.527A.516.516,0,0,0-8.5,537.315Z" fill="url(#linear-gradient-29)"/>
        <path id="Trazado_198189" data-name="Trazado 198189" d="M-65.362,579.306l34.032-.772a.518.518,0,0,0,.5-.529.514.514,0,0,0-.527-.5l-34.032.773a.515.515,0,0,0-.5.529A.516.516,0,0,0-65.362,579.306Z" fill="url(#linear-gradient-30)"/>
        <path id="Trazado_198190" data-name="Trazado 198190" d="M-65.2,586.523l52.027-1.183a.518.518,0,0,0,.5-.529.519.519,0,0,0-.528-.5l-52.025,1.182a.519.519,0,0,0-.5.527A.519.519,0,0,0-65.2,586.523Z" fill="url(#linear-gradient-31)"/>
        <path id="Trazado_198191" data-name="Trazado 198191" d="M-34.467,592.012l-30.59.695a.52.52,0,0,0-.5.528.518.518,0,0,0,.528.505l30.59-.7a.518.518,0,0,0,.507-.527A.519.519,0,0,0-34.467,592.012Z" fill="url(#linear-gradient-32)"/>
        <path id="Trazado_198192" data-name="Trazado 198192" d="M9.807,591.007l-35.192.8a.52.52,0,0,0-.5.53.52.52,0,0,0,.529.505l35.191-.8a.52.52,0,0,0,.5-.528A.512.512,0,0,0,9.807,591.007Z" fill="url(#linear-gradient-33)"/>
        <path id="Trazado_198193" data-name="Trazado 198193" d="M17.955,576.38l-43.668.992a.518.518,0,0,0-.506.528.52.52,0,0,0,.531.5l43.668-.994a.515.515,0,1,0-.025-1.03Z" fill="url(#linear-gradient-34)"/>
        <path id="Trazado_198194" data-name="Trazado 198194" d="M18.119,583.6l-28.666.651a.519.519,0,0,0-.506.528.519.519,0,0,0,.528.507l28.668-.652a.517.517,0,0,0-.024-1.034Z" fill="url(#linear-gradient-35)"/>
      </g>
      <g id="Grupo_163161" data-name="Grupo 163161">
        <g id="Grupo_163157" data-name="Grupo 163157">
          <path id="Trazado_198195" data-name="Trazado 198195" d="M-91.809,511.377a2.3,2.3,0,0,1-1.56-.567L-105.7,499.973a2.28,2.28,0,0,1-.209-3.22,2.282,2.282,0,0,1,3.223-.209l10.54,9.258,16.617-20.734a2.287,2.287,0,0,1,3.211-.355,2.287,2.287,0,0,1,.354,3.212l-18.111,22.6a2.284,2.284,0,0,1-1.584.847C-91.711,511.373-91.762,511.376-91.809,511.377Z" fill="#ff9d00"/>
        </g>
        <g id="Grupo_163158" data-name="Grupo 163158">
          <path id="Trazado_198196" data-name="Trazado 198196" d="M-92.888,463.971a2.281,2.281,0,0,1-1.559-.566l-12.336-10.836a2.286,2.286,0,0,1-.208-3.223,2.286,2.286,0,0,1,3.223-.209l10.54,9.259,16.618-20.733a2.283,2.283,0,0,1,3.21-.355,2.286,2.286,0,0,1,.354,3.211l-18.112,22.6a2.284,2.284,0,0,1-1.582.846C-92.789,463.967-92.84,463.97-92.888,463.971Z" fill="#ff9d00"/>
        </g>
        <g id="Grupo_163159" data-name="Grupo 163159">
          <path id="Trazado_198197" data-name="Trazado 198197" d="M-90.9,551.535a2.292,2.292,0,0,1-1.559-.566l-12.335-10.836a2.284,2.284,0,0,1-.209-3.222,2.286,2.286,0,0,1,3.223-.211l10.54,9.26,16.618-20.735a2.288,2.288,0,0,1,3.211-.353,2.287,2.287,0,0,1,.352,3.212l-18.11,22.6a2.285,2.285,0,0,1-1.584.847C-90.8,551.531-90.849,551.535-90.9,551.535Z" fill="#ff9d00"/>
        </g>
        <g id="Grupo_163160" data-name="Grupo 163160">
          <path id="Trazado_198198" data-name="Trazado 198198" d="M-90,590.776a2.278,2.278,0,0,1-1.559-.566L-103.9,579.375a2.285,2.285,0,0,1-.209-3.223,2.288,2.288,0,0,1,3.224-.211l10.541,9.26,16.616-20.731a2.281,2.281,0,0,1,3.21-.355,2.282,2.282,0,0,1,.356,3.209l-18.113,22.6a2.28,2.28,0,0,1-1.585.846A.864.864,0,0,1-90,590.776Z" fill="#ff9d00"/>
        </g>
      </g>
    </g>
    <g id="Grupo_163165" data-name="Grupo 163165">
      <path id="Trazado_198199" data-name="Trazado 198199" d="M103.526,703.121a4.968,4.968,0,0,1-7,.652L-20.09,606.993a4.97,4.97,0,0,1-.651-7L116.021,435.2a4.967,4.967,0,0,1,6.995-.652l116.62,96.782a4.967,4.967,0,0,1,.653,6.995Z" fill="#fff"/>
      <path id="Trazado_198200" data-name="Trazado 198200" d="M123.975,677.413a4.967,4.967,0,0,1-6.777,1.851l-131.628-75.1a4.97,4.97,0,0,1-1.853-6.78l106.135-186a4.968,4.968,0,0,1,6.777-1.854l131.627,75.107a4.966,4.966,0,0,1,1.853,6.778Z" fill="#f1f4f9"/>
      <g id="Grupo_163163" data-name="Grupo 163163">
        <path id="Trazado_198201" data-name="Trazado 198201" d="M89.937,435.322,204.58,500.736a.5.5,0,1,0,.494-.863L90.43,434.458a.5.5,0,0,0-.493.864Z" fill="url(#linear-gradient-36)"/>
        <path id="Trazado_198202" data-name="Trazado 198202" d="M84.806,444.316l72.574,41.41a.5.5,0,1,0,.493-.861L85.3,443.453a.5.5,0,1,0-.491.863Z" fill="url(#linear-gradient-37)"/>
        <path id="Trazado_198203" data-name="Trazado 198203" d="M161.542,486.957a.5.5,0,1,0-.494.864l35.676,20.355a.5.5,0,1,0,.491-.862Z" fill="url(#linear-gradient-38)"/>
        <path id="Trazado_198204" data-name="Trazado 198204" d="M79.673,453.311,180.947,511.1a.5.5,0,1,0,.493-.861L80.167,452.448a.5.5,0,0,0-.494.863Z" fill="url(#linear-gradient-39)"/>
        <path id="Trazado_198205" data-name="Trazado 198205" d="M74.542,462.3l83.9,47.872a.5.5,0,1,0,.493-.862l-83.9-47.873a.5.5,0,1,0-.493.863Z" fill="url(#linear-gradient-40)"/>
        <path id="Trazado_198206" data-name="Trazado 198206" d="M69.409,471.3l103.862,59.264a.5.5,0,1,0,.493-.862L69.9,470.436a.5.5,0,0,0-.493.864Z" fill="url(#linear-gradient-41)"/>
        <path id="Trazado_198207" data-name="Trazado 198207" d="M64.276,480.3l86.888,49.578a.5.5,0,0,0,.493-.864L64.769,479.432a.5.5,0,0,0-.493.863Z" fill="url(#linear-gradient-42)"/>
        <path id="Trazado_198208" data-name="Trazado 198208" d="M59.144,489.289l96.1,54.834a.5.5,0,0,0,.492-.865l-96.1-54.832a.5.5,0,0,0-.491.863Z" fill="url(#linear-gradient-43)"/>
        <path id="Trazado_198209" data-name="Trazado 198209" d="M54.012,498.283l78.115,44.575a.5.5,0,0,0,.494-.864L54.5,497.421a.5.5,0,1,0-.491.862Z" fill="url(#linear-gradient-44)"/>
        <path id="Trazado_198210" data-name="Trazado 198210" d="M138.086,545.114a.5.5,0,0,0-.492.862l18.414,10.505a.5.5,0,1,0,.493-.861Z" fill="url(#linear-gradient-45)"/>
        <path id="Trazado_198211" data-name="Trazado 198211" d="M48.878,507.278,158.445,569.8a.5.5,0,1,0,.491-.864L49.373,506.415a.5.5,0,1,0-.5.863Z" fill="url(#linear-gradient-46)"/>
        <path id="Trazado_198212" data-name="Trazado 198212" d="M158.882,580.826,44.239,515.41a.5.5,0,0,0-.492.863L158.39,581.688a.5.5,0,1,0,.492-.862Z" fill="url(#linear-gradient-47)"/>
        <path id="Trazado_198213" data-name="Trazado 198213" d="M38.615,525.267l72.573,41.411a.5.5,0,0,0,.494-.864L39.107,524.405a.5.5,0,1,0-.492.862Z" fill="url(#linear-gradient-48)"/>
        <path id="Trazado_198214" data-name="Trazado 198214" d="M151.026,588.265l-35.677-20.357a.5.5,0,0,0-.492.864l35.676,20.358a.5.5,0,0,0,.493-.865Z" fill="url(#linear-gradient-49)"/>
        <path id="Trazado_198215" data-name="Trazado 198215" d="M33.483,534.262l101.273,57.786a.5.5,0,0,0,.493-.862L33.975,533.4a.5.5,0,1,0-.492.863Z" fill="url(#linear-gradient-50)"/>
        <path id="Trazado_198216" data-name="Trazado 198216" d="M28.351,543.257l83.9,47.873a.5.5,0,0,0,.491-.865l-83.9-47.872a.5.5,0,0,0-.492.864Z" fill="url(#linear-gradient-51)"/>
        <path id="Trazado_198217" data-name="Trazado 198217" d="M23.217,552.252l103.864,59.263a.5.5,0,0,0,.492-.863L23.71,551.387a.5.5,0,0,0-.493.865Z" fill="url(#linear-gradient-52)"/>
        <path id="Trazado_198218" data-name="Trazado 198218" d="M18.085,561.246l86.888,49.578a.5.5,0,0,0,.492-.864L18.578,560.384a.5.5,0,1,0-.493.862Z" fill="url(#linear-gradient-53)"/>
        <path id="Trazado_198219" data-name="Trazado 198219" d="M12.953,570.24l96.095,54.831a.5.5,0,1,0,.494-.861l-96.1-54.834a.5.5,0,0,0-.494.864Z" fill="url(#linear-gradient-54)"/>
        <path id="Trazado_198220" data-name="Trazado 198220" d="M7.821,579.234l78.117,44.573a.5.5,0,1,0,.492-.862L8.313,578.373a.493.493,0,0,0-.677.183A.5.5,0,0,0,7.821,579.234Z" fill="url(#linear-gradient-55)"/>
        <path id="Trazado_198221" data-name="Trazado 198221" d="M91.9,626.062a.5.5,0,0,0-.493.866l18.414,10.505a.5.5,0,1,0,.491-.863Z" fill="url(#linear-gradient-56)"/>
        <path id="Trazado_198222" data-name="Trazado 198222" d="M112.747,649.884,3.181,587.366a.5.5,0,0,0-.492.864l109.564,62.517a.5.5,0,0,0,.494-.863Z" fill="url(#linear-gradient-57)"/>
      </g>
      <path id="Trazado_198223" data-name="Trazado 198223" d="M126.128,520.468a5.666,5.666,0,0,1-7.313,3.282L54.437,499.262a5.667,5.667,0,0,1-3.283-7.314l26.4-69.412a5.668,5.668,0,0,1,7.314-3.284l64.379,24.489a5.668,5.668,0,0,1,3.282,7.314Z" fill="#81d4fa"/>
      <g id="Grupo_163164" data-name="Grupo 163164">
        <path id="Trazado_198224" data-name="Trazado 198224" d="M125.1,417.233c-3.755-2.142-8.993-2.155-12.234,1.556l3.2,1.828c2.037-1.754,4.986-1.585,7.261-.286a5.8,5.8,0,0,1,2.161,7.9l-11.044,19.356c-1.43,2.505-4.206,4.271-7.189,2.569a5.8,5.8,0,0,1-2.161-7.9l4.925-8.633a1.782,1.782,0,1,0-3.1-1.766l-4.926,8.633a9.373,9.373,0,0,0,3.491,12.769c4.3,2.449,9.365.81,12.053-3.9L128.6,430A9.372,9.372,0,0,0,125.1,417.233Z" fill="#7e5ee3"/>
      </g>
    </g>
    <path id="Trazado_198225" data-name="Trazado 198225" d="M78.74,584.3H-69.51V566.454a5.442,5.442,0,0,0-5.443-5.442h-77.273a5.441,5.441,0,0,0-5.441,5.442v149.1A5.441,5.441,0,0,0-152.226,721H78.74a5.441,5.441,0,0,0,5.441-5.443V589.742A5.44,5.44,0,0,0,78.74,584.3Z" fill="#ff9d00"/>
    <g id="Grupo_163177" data-name="Grupo 163177" transform="translate(60.744 20.355)">
      <g id="Grupo_163168" data-name="Grupo 163168" transform="translate(68.687 584.64)">
        <path id="Trazado_198226" data-name="Trazado 198226" d="M255.5,602.269l-71.469,45.093s-10.95-18.889-36.875-7.991c0,0-18.065-1.171-36.027-16.413-11.235-9.532-21.435-.651-13.475,12.219,6.831,11.045,27.646,25.11,27.646,25.11L99.233,685.851s19.094,24.494,25.922,28.112,47.472-1.891,60.283-25.242l70.058-15.3Z" transform="translate(-94.817 -602.269)" fill="#f6a9a3"/>
        <g id="Grupo_163167" data-name="Grupo 163167" transform="translate(51.75 55.637)">
          <g id="Grupo_163166" data-name="Grupo 163166">
            <path id="Trazado_198227" data-name="Trazado 198227" d="M177.96,670.945c-3.776.326-7.485.789-10.795,2.773-4.007,2.4-6.744,7.156-8.494,11.338-.262.623-1.167.092-.91-.524,1.887-4.5,4.77-8.957,8.882-11.725,3.275-2.2,7.488-2.58,11.31-2.912.676-.058.676.991.007,1.051Z" transform="translate(-157.716 -669.892)" fill="#db6356"/>
          </g>
        </g>
      </g>
      <g id="Grupo_163172" data-name="Grupo 163172" transform="translate(-52.605 502.811)">
        <path id="Trazado_198228" data-name="Trazado 198228" d="M87.985,662.6l9.2-8.015-28.207-32-9.2,8.015Z" transform="translate(32.686 -524.039)" fill="#bdd0fb"/>
        <path id="Trazado_198229" data-name="Trazado 198229" d="M64.375,627.449l-4.6,4.009,28.208,32,4.6-4.008Z" transform="translate(32.686 -524.902)" fill="#bdd0fb" opacity="0.5" style="mix-blend-mode: multiply;isolation: isolate"/>
        <path id="Trazado_198230" data-name="Trazado 198230" d="M133.765,722.851a11.173,11.173,0,0,0,15.762,1.081h0a11.172,11.172,0,0,0,1.082-15.762l-47.618-54.638a11.173,11.173,0,0,0-15.763-1.083h0a11.172,11.172,0,0,0-1.082,15.763Z" transform="translate(28.499 -528.846)" fill="#7e5ee3"/>
        <g id="Grupo_163169" data-name="Grupo 163169">
          <path id="Trazado_198231" data-name="Trazado 198231" d="M-37.273,606.026a62.289,62.289,0,1,0,6.032-87.883A62.291,62.291,0,0,0-37.273,606.026ZM-24.3,526.1a51.729,51.729,0,1,1-5.009,72.985A51.73,51.73,0,0,1-24.3,526.1Z" transform="translate(52.605 -502.811)" fill="#7e5ee3"/>
        </g>
        <g id="Grupo_163170" data-name="Grupo 163170" transform="translate(2.422 2.422)">
          <path id="Trazado_198232" data-name="Trazado 198232" d="M-34.926,604.956a59.867,59.867,0,1,0,5.8-84.466A59.867,59.867,0,0,0-34.926,604.956Zm11.144-78.332a51.729,51.729,0,1,1-5.009,72.985A51.73,51.73,0,0,1-23.781,526.624Z" transform="translate(49.661 -505.754)" fill="#c8baf2"/>
        </g>
        <path id="Trazado_198233" data-name="Trazado 198233" d="M-27.037,601.362a51.729,51.729,0,1,0,5.009-72.985A51.727,51.727,0,0,0-27.037,601.362Z" transform="translate(50.33 -505.085)" opacity="0.7" fill="url(#linear-gradient-58)" style="mix-blend-mode: screen;isolation: isolate"/>
        <g id="Grupo_163171" data-name="Grupo 163171" transform="translate(20.811 82.29)">
          <path id="Trazado_198234" data-name="Trazado 198234" d="M49.458,619.269a3.148,3.148,0,0,1-.6,4.412,48,48,0,0,1-41.742,8.042,3.149,3.149,0,1,1,1.673-6.072,41.7,41.7,0,0,0,36.257-6.984A3.15,3.15,0,0,1,49.458,619.269Z" transform="translate(21.619 -605.522)" fill="#fff"/>
          <path id="Trazado_198235" data-name="Trazado 198235" d="M-9.985,616.72a3.147,3.147,0,0,1,.736,4.391,3.149,3.149,0,0,1-4.392.736A47.614,47.614,0,0,1-26.858,607.6a3.153,3.153,0,0,1,.132-3.456,3.113,3.113,0,0,1,.939-.866,3.147,3.147,0,0,1,4.322,1.07A41.389,41.389,0,0,0-9.985,616.72Z" transform="translate(27.311 -602.829)" fill="#fff"/>
        </g>
      </g>
      <g id="Grupo_163176" data-name="Grupo 163176" transform="translate(59.065 631.102)">
        <path id="Trazado_198236" data-name="Trazado 198236" d="M94.616,701.537c-6.2-2.032-14.607-9.319-10.326-17.3s23.413-27.413,37.917-24.278c9.837,2.125,7.6,12.969-2.105,21.829S94.616,701.537,94.616,701.537Z" transform="translate(-83.121 -658.895)" fill="#f6a9a3"/>
        <g id="Grupo_163173" data-name="Grupo 163173" transform="translate(25.361)">
          <path id="Trazado_198237" data-name="Trazado 198237" d="M132.154,674.273c1.882-3.276,2.606-6.42,1.989-9.072-.673-2.884-2.907-4.952-6.46-5.982-4.716-1.366-9.915.443-13.445,2.2a.525.525,0,0,0,.467.94c3.363-1.676,8.3-3.405,12.686-2.133,3.167.917,5.147,2.719,5.73,5.211.994,4.263-2.09,10.288-8.045,15.724a.525.525,0,1,0,.709.775A32.874,32.874,0,0,0,132.154,674.273Z" transform="translate(-113.946 -658.739)" fill="#db6356"/>
        </g>
        <path id="Trazado_198238" data-name="Trazado 198238" d="M110.562,715.056c-7.4.833-19.011-6.235-13.235-16.271,4.52-7.851,27.42-32,41.925-28.863,9.836,2.125,6.574,12.074-3.127,20.933S110.562,715.056,110.562,715.056Z" transform="translate(-85.363 -660.672)" fill="#f6a9a3"/>
        <g id="Grupo_163174" data-name="Grupo 163174" transform="translate(11.439 8.444)">
          <path id="Trazado_198239" data-name="Trazado 198239" d="M143.818,682.61c1.828-3.18,2.533-6.122,1.91-8.432-.466-1.723-1.907-3.969-6.142-4.882-8.112-1.754-18.153,4.7-25.15,10.418-7.779,6.364-14.926,14.5-17.34,18.7h0a.524.524,0,1,0,.909.522c4.635-8.052,27.32-31.646,41.36-28.612,2.984.646,4.784,2.034,5.349,4.129,1.062,3.93-2.281,10.024-8.72,15.9a.525.525,0,1,0,.708.776A36.816,36.816,0,0,0,143.818,682.61Z" transform="translate(-97.025 -669.003)" fill="#db6356"/>
        </g>
        <path id="Trazado_198240" data-name="Trazado 198240" d="M111.158,717.8a56.689,56.689,0,0,1,7.688-9.857c5.021-5.3,11.509-10.679,17.878-13.495,3.631-1.605,7.222-2.381,10.479-1.831,7.521,1.271,6.644,6.947,1.042,15.051q-1.47,2.122-3.348,4.457a89.479,89.479,0,0,1-12.045,11.889l1.014,1.163,4.575,5.249a11.1,11.1,0,0,0,1.61,1.513c-5.513,1.2-12.248,2.058-18.255,1.087C114.442,731.841,106.515,725.876,111.158,717.8Z" transform="translate(-87.845 -664.713)" fill="#f6a9a3"/>
        <g id="Grupo_163175" data-name="Grupo 163175" transform="translate(22.788 27.203)">
          <path id="Trazado_198241" data-name="Trazado 198241" d="M134.149,723.556a79.408,79.408,0,0,0,11.342-11.215c6.351-7.9,8.816-13.385,7.532-16.758-.717-1.886-2.583-3.1-5.549-3.6-7.337-1.238-15.645,3.955-21.323,8.526-7.128,5.744-12.8,12.632-15.264,16.913a.524.524,0,1,0,.91.522c4.845-8.428,22.769-27.074,35.5-24.926,2.569.434,4.166,1.42,4.742,2.933,1.123,2.954-1.356,8.246-7.371,15.727a78.486,78.486,0,0,1-11.994,11.7.525.525,0,0,0,.185.926Z" transform="translate(-110.818 -691.802)" fill="#db6356"/>
        </g>
      </g>
    </g>
    <g id="Grupo_163178" data-name="Grupo 163178">
      <path id="Trazado_198242" data-name="Trazado 198242" d="M114.746,578.561h0c-2.09-3.047,14.956-23.7,20-27.166L248.6,473.275c5.047-3.465,17.589,14.814,12.542,18.28L147.292,569.674c-5.048,3.462-30.456,11.933-32.546,8.887Z" fill="#fff"/>
      <path id="Trazado_198243" data-name="Trazado 198243" d="M134.386,551.659c.423,3.141,2.132,6.716,4.581,10.283s5.169,6.451,7.947,7.976c.135-.084.264-.167.378-.244L249.4,499.613a19.478,19.478,0,0,0-12.543-18.279L134.75,551.4C134.636,551.472,134.511,551.563,134.386,551.659Z" fill="#1d0c8c"/>
      <path id="Trazado_198244" data-name="Trazado 198244" d="M251.637,484.635a20.907,20.907,0,0,1,3.775,10.853l5.734-3.933c5.047-3.466-7.495-21.745-12.542-18.28l-5.733,3.933A20.913,20.913,0,0,1,251.637,484.635Z" fill="#8199fd" style="mix-blend-mode: multiply;isolation: isolate"/>
      <path id="Trazado_198245" data-name="Trazado 198245" d="M116.943,572.405c-1.817,2.952-2.8,5.282-2.2,6.156s3.126.8,6.536.164a6.5,6.5,0,0,0-4.339-6.32Z" fill="#8199fd" style="mix-blend-mode: multiply;isolation: isolate"/>
      <path id="Trazado_198246" data-name="Trazado 198246" d="M245.983,488.514a18.483,18.483,0,0,0-9.125-7.18L134.75,551.4c-.114.077-.239.168-.364.264.423,3.141,2.132,6.716,4.581,10.283" fill="#7e5ee3"/>
    </g>
  </g>
</svg>
