<svg xmlns="http://www.w3.org/2000/svg" xmlns:xlink="http://www.w3.org/1999/xlink" width="816" height="363" viewBox="0 0 816 363">
  <defs>
    <clipPath id="clip-path">
      <path id="Trazado_206204" data-name="Trazado 206204" d="M278.967,421.029,266.183,362.6s-.9-9.439-14.437-9.417c0,0-9.993-28.029-12.652-35.277-3.136-8.548-8.7-9.542-12.13-8.03-7.305,3.23-6.4,5.78,8.818,47.471,0,0-27.482,59.068-12.9,71.3s19.855,21.216,19.855,21.216Z" fill="#ffcfa8"/>
    </clipPath>
    <clipPath id="clip-path-2">
      <path id="Trazado_206218" data-name="Trazado 206218" d="M206.316,404.666l1.127,13.173S220.673,427.9,223.061,429s4.39-9.049-2.605-14.966A75.6,75.6,0,0,0,206.316,404.666Z" fill="none"/>
    </clipPath>
    <clipPath id="clip-path-3">
      <path id="Trazado_206221" data-name="Trazado 206221" d="M207.027,387.892l-2.05,10.086s-3.481,3.508,6,11.447,12.626,8.414,11.976-1.78C222.344,398.089,213.5,393.392,207.027,387.892Z" fill="none"/>
    </clipPath>
    <clipPath id="clip-path-4">
      <path id="Trazado_206224" data-name="Trazado 206224" d="M208.78,369.614l-3.313,11.423s-2.368,3.449,3.313,10.393,13.6,14.878,14.139,2.668-3.8-16.444-8.971-19.413S208.78,369.614,208.78,369.614Z" fill="none"/>
    </clipPath>
    <clipPath id="clip-path-5">
      <path id="Trazado_206228" data-name="Trazado 206228" d="M217.45,351.892l-8.67,11.155s-3.813,2.061,1.435,9.952,11.669,12.473,12.7,1.686-3.862-10.059-3.862-10.059Z" fill="none"/>
    </clipPath>
  </defs>
  <g id="Grupo_170664" data-name="Grupo 170664" transform="translate(-394.287 -1105)">
    <g id="Trazado_207012" data-name="Trazado 207012" transform="translate(800.287 1105)" fill="#a3daf3" stroke-dasharray="4 4">
      <path d="M0,0H410V363H0Z" stroke="none"/>
      <path d="M 8 0 L 12 0 L 12 4 L 8 4 L 8 0 Z M 16 0 L 20 0 L 20 4 L 16 4 L 16 0 Z M 24 0 L 28 0 L 28 4 L 24 4 L 24 0 Z M 32 0 L 36 0 L 36 4 L 32 4 L 32 0 Z M 40 0 L 44 0 L 44 4 L 40 4 L 40 0 Z M 48 0 L 52 0 L 52 4 L 48 4 L 48 0 Z M 56 0 L 60 0 L 60 4 L 56 4 L 56 0 Z M 64 0 L 68 0 L 68 4 L 64 4 L 64 0 Z M 72 0 L 76 0 L 76 4 L 72 4 L 72 0 Z M 80 0 L 84 0 L 84 4 L 80 4 L 80 0 Z M 88 0 L 92 0 L 92 4 L 88 4 L 88 0 Z M 96 0 L 100 0 L 100 4 L 96 4 L 96 0 Z M 104 0 L 108 0 L 108 4 L 104 4 L 104 0 Z M 112 0 L 116 0 L 116 4 L 112 4 L 112 0 Z M 120 0 L 124 0 L 124 4 L 120 4 L 120 0 Z M 128 0 L 132 0 L 132 4 L 128 4 L 128 0 Z M 136 0 L 140 0 L 140 4 L 136 4 L 136 0 Z M 144 0 L 148 0 L 148 4 L 144 4 L 144 0 Z M 152 0 L 156 0 L 156 4 L 152 4 L 152 0 Z M 160 0 L 164 0 L 164 4 L 160 4 L 160 0 Z M 168 0 L 172 0 L 172 4 L 168 4 L 168 0 Z M 176 0 L 180 0 L 180 4 L 176 4 L 176 0 Z M 184 0 L 188 0 L 188 4 L 184 4 L 184 0 Z M 192 0 L 196 0 L 196 4 L 192 4 L 192 0 Z M 200 0 L 204 0 L 204 4 L 200 4 L 200 0 Z M 208 0 L 212 0 L 212 4 L 208 4 L 208 0 Z M 216 0 L 220 0 L 220 4 L 216 4 L 216 0 Z M 224 0 L 228 0 L 228 4 L 224 4 L 224 0 Z M 232 0 L 236 0 L 236 4 L 232 4 L 232 0 Z M 240 0 L 244 0 L 244 4 L 240 4 L 240 0 Z M 248 0 L 252 0 L 252 4 L 248 4 L 248 0 Z M 256 0 L 260 0 L 260 4 L 256 4 L 256 0 Z M 264 0 L 268 0 L 268 4 L 264 4 L 264 0 Z M 272 0 L 276 0 L 276 4 L 272 4 L 272 0 Z M 280 0 L 284 0 L 284 4 L 280 4 L 280 0 Z M 288 0 L 292 0 L 292 4 L 288 4 L 288 0 Z M 296 0 L 300 0 L 300 4 L 296 4 L 296 0 Z M 304 0 L 308 0 L 308 4 L 304 4 L 304 0 Z M 312 0 L 316 0 L 316 4 L 312 4 L 312 0 Z M 320 0 L 324 0 L 324 4 L 320 4 L 320 0 Z M 328 0 L 332 0 L 332 4 L 328 4 L 328 0 Z M 336 0 L 340 0 L 340 4 L 336 4 L 336 0 Z M 344 0 L 348 0 L 348 4 L 344 4 L 344 0 Z M 352 0 L 356 0 L 356 4 L 352 4 L 352 0 Z M 360 0 L 364 0 L 364 4 L 360 4 L 360 0 Z M 368 0 L 372 0 L 372 4 L 368 4 L 368 0 Z M 376 0 L 380 0 L 380 4 L 376 4 L 376 0 Z M 384 0 L 388 0 L 388 4 L 384 4 L 384 0 Z M 392 0 L 396 0 L 396 4 L 392 4 L 392 0 Z M 400 0 L 404 0 L 404 4 L 400 4 L 400 0 Z M 406 0 L 410 0 L 410 4 L 408 4 L 408 2 L 406 2 L 406 0 Z M 406 6 L 410 6 C 410 6 410 10 410 10 L 406 10 L 406 6 Z M 406 14 L 410 14 C 410 14 410 18 410 18 L 406 18 L 406 14 Z M 406 22 L 410 22 C 410 22 410 26 410 26 L 406 26 L 406 22 Z M 406 30 L 410 30 C 410 30 410 34 410 34 L 406 34 L 406 30 Z M 406 38 L 410 38 C 410 38 410 42 410 42 L 406 42 L 406 38 Z M 406 46 L 410 46 C 410 46 410 50 410 50 L 406 50 L 406 46 Z M 406 54 L 410 54 C 410 54 410 58 410 58 L 406 58 L 406 54 Z M 406 62 L 410 62 C 410 62 410 66 410 66 L 406 66 L 406 62 Z M 406 70 L 410 70 C 410 70 410 74 410 74 L 406 74 L 406 70 Z M 406 78 L 410 78 C 410 78 410 82 410 82 L 406 82 L 406 78 Z M 406 86 L 410 86 C 410 86 410 90 410 90 L 406 90 L 406 86 Z M 406 94 L 410 94 C 410 94 410 98 410 98 L 406 98 L 406 94 Z M 406 102 L 410 102 C 410 102 410 106 410 106 L 406 106 L 406 102 Z M 406 110 L 410 110 C 410 110 410 114 410 114 L 406 114 L 406 110 Z M 406 118 L 410 118 C 410 118 410 122 410 122 L 406 122 L 406 118 Z M 406 126 L 410 126 C 410 126 410 130 410 130 L 406 130 L 406 126 Z M 406 134 L 410 134 C 410 134 410 138 410 138 L 406 138 L 406 134 Z M 406 142 L 410 142 C 410 142 410 146 410 146 L 406 146 L 406 142 Z M 406 150 L 410 150 C 410 150 410 154 410 154 L 406 154 L 406 150 Z M 406 158 L 410 158 C 410 158 410 162 410 162 L 406 162 L 406 158 Z M 406 166 L 410 166 C 410 166 410 170 410 170 L 406 170 L 406 166 Z M 406 174 L 410 174 C 410 174 410 178 410 178 L 406 178 L 406 174 Z M 406 182 L 410 182 C 410 182 410 186 410 186 L 406 186 L 406 182 Z M 406 190 L 410 190 C 410 190 410 194 410 194 L 406 194 L 406 190 Z M 406 198 L 410 198 C 410 198 410 202 410 202 L 406 202 L 406 198 Z M 406 206 L 410 206 C 410 206 410 210 410 210 L 406 210 L 406 206 Z M 406 214 L 410 214 C 410 214 410 218 410 218 L 406 218 L 406 214 Z M 406 222 L 410 222 C 410 222 410 226 410 226 L 406 226 L 406 222 Z M 406 230 L 410 230 C 410 230 410 234 410 234 L 406 234 L 406 230 Z M 406 238 L 410 238 C 410 238 410 242 410 242 L 406 242 L 406 238 Z M 406 246 L 410 246 C 410 246 410 250 410 250 L 406 250 L 406 246 Z M 406 254 L 410 254 C 410 254 410 258 410 258 L 406 258 L 406 254 Z M 406 262 L 410 262 C 410 262 410 266 410 266 L 406 266 L 406 262 Z M 406 270 L 410 270 C 410 270 410 274 410 274 L 406 274 L 406 270 Z M 406 278 L 410 278 C 410 278 410 282 410 282 L 406 282 L 406 278 Z M 406 286 L 410 286 C 410 286 410 290 410 290 L 406 290 L 406 286 Z M 406 294 L 410 294 C 410 294 410 298 410 298 L 406 298 L 406 294 Z M 406 302 L 410 302 C 410 302 410 306 410 306 L 406 306 L 406 302 Z M 406 310 L 410 310 C 410 310 410 314 410 314 L 406 314 L 406 310 Z M 406 318 L 410 318 C 410 318 410 322 410 322 L 406 322 L 406 318 Z M 406 326 L 410 326 C 410 326 410 330 410 330 L 406 330 L 406 326 Z M 406 334 L 410 334 C 410 334 410 338 410 338 L 406 338 L 406 334 Z M 406 342 L 410 342 C 410 342 410 346 410 346 L 406 346 L 406 342 Z M 406 350 L 410 350 C 410 350 410 354 410 354 L 406 354 L 406 350 Z M 406 358 L 410 358 C 410 358 410 362 410 362 L 407 362 L 407 363 C 407 363 403 363 403 363 L 403 359 L 406 359 L 406 358 Z M 395 359 L 399 359 L 399 363 C 399 363 395 363 395 363 L 395 359 Z M 387 359 L 391 359 L 391 363 C 391 363 387 363 387 363 L 387 359 Z M 379 359 L 383 359 L 383 363 C 383 363 379 363 379 363 L 379 359 Z M 371 359 L 375 359 L 375 363 C 375 363 371 363 371 363 L 371 359 Z M 363 359 L 367 359 L 367 363 C 367 363 363 363 363 363 L 363 359 Z M 355 359 L 359 359 L 359 363 C 359 363 355 363 355 363 L 355 359 Z M 347 359 L 351 359 L 351 363 C 351 363 347 363 347 363 L 347 359 Z M 339 359 L 343 359 L 343 363 C 343 363 339 363 339 363 L 339 359 Z M 331 359 L 335 359 L 335 363 C 335 363 331 363 331 363 L 331 359 Z M 323 359 L 327 359 L 327 363 C 327 363 323 363 323 363 L 323 359 Z M 315 359 L 319 359 L 319 363 C 319 363 315 363 315 363 L 315 359 Z M 307 359 L 311 359 L 311 363 C 311 363 307 363 307 363 L 307 359 Z M 299 359 L 303 359 L 303 363 C 303 363 299 363 299 363 L 299 359 Z M 291 359 L 295 359 L 295 363 C 295 363 291 363 291 363 L 291 359 Z M 283 359 L 287 359 L 287 363 C 287 363 283 363 283 363 L 283 359 Z M 275 359 L 279 359 L 279 363 C 279 363 275 363 275 363 L 275 359 Z M 267 359 L 271 359 L 271 363 C 271 363 267 363 267 363 L 267 359 Z M 259 359 L 263 359 L 263 363 C 263 363 259 363 259 363 L 259 359 Z M 251 359 L 255 359 L 255 363 C 255 363 251 363 251 363 L 251 359 Z M 243 359 L 247 359 L 247 363 C 247 363 243 363 243 363 L 243 359 Z M 235 359 L 239 359 L 239 363 C 239 363 235 363 235 363 L 235 359 Z M 227 359 L 231 359 L 231 363 C 231 363 227 363 227 363 L 227 359 Z M 219 359 L 223 359 L 223 363 C 223 363 219 363 219 363 L 219 359 Z M 211 359 L 215 359 L 215 363 C 215 363 211 363 211 363 L 211 359 Z M 203 359 L 207 359 L 207 363 C 207 363 203 363 203 363 L 203 359 Z M 195 359 L 199 359 L 199 363 C 199 363 195 363 195 363 L 195 359 Z M 187 359 L 191 359 L 191 363 C 191 363 187 363 187 363 L 187 359 Z M 179 359 L 183 359 L 183 363 C 183 363 179 363 179 363 L 179 359 Z M 171 359 L 175 359 L 175 363 C 175 363 171 363 171 363 L 171 359 Z M 163 359 L 167 359 L 167 363 C 167 363 163 363 163 363 L 163 359 Z M 155 359 L 159 359 L 159 363 C 159 363 155 363 155 363 L 155 359 Z M 147 359 L 151 359 L 151 363 C 151 363 147 363 147 363 L 147 359 Z M 139 359 L 143 359 L 143 363 C 143 363 139 363 139 363 L 139 359 Z M 131 359 L 135 359 L 135 363 C 135 363 131 363 131 363 L 131 359 Z M 123 359 L 127 359 L 127 363 C 127 363 123 363 123 363 L 123 359 Z M 115 359 L 119 359 L 119 363 C 119 363 115 363 115 363 L 115 359 Z M 107 359 L 111 359 L 111 363 C 111 363 107 363 107 363 L 107 359 Z M 99 359 L 103 359 L 103 363 C 103 363 99 363 99 363 L 99 359 Z M 91 359 L 95 359 L 95 363 C 95 363 91 363 91 363 L 91 359 Z M 83 359 L 87 359 L 87 363 C 87 363 83 363 83 363 L 83 359 Z M 75 359 L 79 359 L 79 363 C 79 363 75 363 75 363 L 75 359 Z M 67 359 L 71 359 L 71 363 C 71 363 67 363 67 363 L 67 359 Z M 59 359 L 63 359 L 63 363 C 63 363 59 363 59 363 L 59 359 Z M 51 359 L 55 359 L 55 363 C 55 363 51 363 51 363 L 51 359 Z M 43 359 L 47 359 L 47 363 C 47 363 43 363 43 363 L 43 359 Z M 35 359 L 39 359 L 39 363 C 39 363 35 363 35 363 L 35 359 Z M 27 359 L 31 359 L 31 363 C 31 363 27 363 27 363 L 27 359 Z M 19 359 L 23 359 L 23 363 C 23 363 19 363 19 363 L 19 359 Z M 11 359 L 15 359 L 15 363 C 15 363 11 363 11 363 L 11 359 Z M 0 358 L 4 358 L 4 359 L 7 359 L 7 363 C 7 363 3 363 3 363 L 3 362 L 0 362 L 0 358 Z M 0 350 L 4 350 L 4 354 L 0 354 L 0 350 Z M 0 342 L 4 342 L 4 346 L 0 346 L 0 342 Z M 0 334 L 4 334 L 4 338 L 0 338 L 0 334 Z M 0 326 L 4 326 L 4 330 L 0 330 L 0 326 Z M 0 318 L 4 318 L 4 322 L 0 322 L 0 318 Z M 0 310 L 4 310 L 4 314 L 0 314 L 0 310 Z M 0 302 L 4 302 L 4 306 L 0 306 L 0 302 Z M 0 294 L 4 294 L 4 298 L 0 298 L 0 294 Z M 0 286 L 4 286 L 4 290 L 0 290 L 0 286 Z M 0 278 L 4 278 L 4 282 L 0 282 L 0 278 Z M 0 270 L 4 270 L 4 274 L 0 274 L 0 270 Z M 0 262 L 4 262 L 4 266 L 0 266 L 0 262 Z M 0 254 L 4 254 L 4 258 L 0 258 L 0 254 Z M 0 246 L 4 246 L 4 250 L 0 250 L 0 246 Z M 0 238 L 4 238 L 4 242 L 0 242 L 0 238 Z M 0 230 L 4 230 L 4 234 L 0 234 L 0 230 Z M 0 222 L 4 222 L 4 226 L 0 226 L 0 222 Z M 0 214 L 4 214 L 4 218 L 0 218 L 0 214 Z M 0 206 L 4 206 L 4 210 L 0 210 L 0 206 Z M 0 198 L 4 198 L 4 202 L 0 202 L 0 198 Z M 0 190 L 4 190 L 4 194 L 0 194 L 0 190 Z M 0 182 L 4 182 L 4 186 L 0 186 L 0 182 Z M 0 174 L 4 174 L 4 178 L 0 178 L 0 174 Z M 0 166 L 4 166 L 4 170 L 0 170 L 0 166 Z M 0 158 L 4 158 L 4 162 L 0 162 L 0 158 Z M 0 150 L 4 150 L 4 154 L 0 154 L 0 150 Z M 0 142 L 4 142 L 4 146 L 0 146 L 0 142 Z M 0 134 L 4 134 L 4 138 L 0 138 L 0 134 Z M 0 126 L 4 126 L 4 130 L 0 130 L 0 126 Z M 0 118 L 4 118 L 4 122 L 0 122 L 0 118 Z M 0 110 L 4 110 L 4 114 L 0 114 L 0 110 Z M 0 102 L 4 102 L 4 106 L 0 106 L 0 102 Z M 0 94 L 4 94 L 4 98 L 0 98 L 0 94 Z M 0 86 L 4 86 L 4 90 L 0 90 L 0 86 Z M 0 78 L 4 78 L 4 82 L 0 82 L 0 78 Z M 0 70 L 4 70 L 4 74 L 0 74 L 0 70 Z M 0 62 L 4 62 L 4 66 L 0 66 L 0 62 Z M 0 54 L 4 54 L 4 58 L 0 58 L 0 54 Z M 0 46 L 4 46 L 4 50 L 0 50 L 0 46 Z M 0 38 L 4 38 L 4 42 L 0 42 L 0 38 Z M 0 30 L 4 30 L 4 34 L 0 34 L 0 30 Z M 0 22 L 4 22 L 4 26 L 0 26 L 0 22 Z M 0 14 L 4 14 L 4 18 L 0 18 L 0 14 Z M 0 6 L 4 6 L 4 10 L 0 10 L 0 6 Z M 0 0 L 4 0 L 4 4 L 0 4 L 0 0 Z" stroke="none" fill="#7e5ee3"/>
    </g>
    <path id="Trazado_207013" data-name="Trazado 207013" d="M0,0H294a30,30,0,0,1,30,30V266H0Z" transform="translate(801.287 1150)" fill="#fff" opacity="0.7"/>
    <g id="Trazado_206234" data-name="Trazado 206234" transform="translate(394.287 1105)" fill="#a3daf3" stroke-dasharray="4 4">
      <path d="M0,0H410V363H0Z" stroke="none"/>
      <path d="M 8 0 L 12 0 L 12 4 L 8 4 L 8 0 Z M 16 0 L 20 0 L 20 4 L 16 4 L 16 0 Z M 24 0 L 28 0 L 28 4 L 24 4 L 24 0 Z M 32 0 L 36 0 L 36 4 L 32 4 L 32 0 Z M 40 0 L 44 0 L 44 4 L 40 4 L 40 0 Z M 48 0 L 52 0 L 52 4 L 48 4 L 48 0 Z M 56 0 L 60 0 L 60 4 L 56 4 L 56 0 Z M 64 0 L 68 0 L 68 4 L 64 4 L 64 0 Z M 72 0 L 76 0 L 76 4 L 72 4 L 72 0 Z M 80 0 L 84 0 L 84 4 L 80 4 L 80 0 Z M 88 0 L 92 0 L 92 4 L 88 4 L 88 0 Z M 96 0 L 100 0 L 100 4 L 96 4 L 96 0 Z M 104 0 L 108 0 L 108 4 L 104 4 L 104 0 Z M 112 0 L 116 0 L 116 4 L 112 4 L 112 0 Z M 120 0 L 124 0 L 124 4 L 120 4 L 120 0 Z M 128 0 L 132 0 L 132 4 L 128 4 L 128 0 Z M 136 0 L 140 0 L 140 4 L 136 4 L 136 0 Z M 144 0 L 148 0 L 148 4 L 144 4 L 144 0 Z M 152 0 L 156 0 L 156 4 L 152 4 L 152 0 Z M 160 0 L 164 0 L 164 4 L 160 4 L 160 0 Z M 168 0 L 172 0 L 172 4 L 168 4 L 168 0 Z M 176 0 L 180 0 L 180 4 L 176 4 L 176 0 Z M 184 0 L 188 0 L 188 4 L 184 4 L 184 0 Z M 192 0 L 196 0 L 196 4 L 192 4 L 192 0 Z M 200 0 L 204 0 L 204 4 L 200 4 L 200 0 Z M 208 0 L 212 0 L 212 4 L 208 4 L 208 0 Z M 216 0 L 220 0 L 220 4 L 216 4 L 216 0 Z M 224 0 L 228 0 L 228 4 L 224 4 L 224 0 Z M 232 0 L 236 0 L 236 4 L 232 4 L 232 0 Z M 240 0 L 244 0 L 244 4 L 240 4 L 240 0 Z M 248 0 L 252 0 L 252 4 L 248 4 L 248 0 Z M 256 0 L 260 0 L 260 4 L 256 4 L 256 0 Z M 264 0 L 268 0 L 268 4 L 264 4 L 264 0 Z M 272 0 L 276 0 L 276 4 L 272 4 L 272 0 Z M 280 0 L 284 0 L 284 4 L 280 4 L 280 0 Z M 288 0 L 292 0 L 292 4 L 288 4 L 288 0 Z M 296 0 L 300 0 L 300 4 L 296 4 L 296 0 Z M 304 0 L 308 0 L 308 4 L 304 4 L 304 0 Z M 312 0 L 316 0 L 316 4 L 312 4 L 312 0 Z M 320 0 L 324 0 L 324 4 L 320 4 L 320 0 Z M 328 0 L 332 0 L 332 4 L 328 4 L 328 0 Z M 336 0 L 340 0 L 340 4 L 336 4 L 336 0 Z M 344 0 L 348 0 L 348 4 L 344 4 L 344 0 Z M 352 0 L 356 0 L 356 4 L 352 4 L 352 0 Z M 360 0 L 364 0 L 364 4 L 360 4 L 360 0 Z M 368 0 L 372 0 L 372 4 L 368 4 L 368 0 Z M 376 0 L 380 0 L 380 4 L 376 4 L 376 0 Z M 384 0 L 388 0 L 388 4 L 384 4 L 384 0 Z M 392 0 L 396 0 L 396 4 L 392 4 L 392 0 Z M 400 0 L 404 0 L 404 4 L 400 4 L 400 0 Z M 406 0 L 410 0 L 410 4 L 408 4 L 408 2 L 406 2 L 406 0 Z M 406 6 L 410 6 C 410 6 410 10 410 10 L 406 10 L 406 6 Z M 406 14 L 410 14 C 410 14 410 18 410 18 L 406 18 L 406 14 Z M 406 22 L 410 22 C 410 22 410 26 410 26 L 406 26 L 406 22 Z M 406 30 L 410 30 C 410 30 410 34 410 34 L 406 34 L 406 30 Z M 406 38 L 410 38 C 410 38 410 42 410 42 L 406 42 L 406 38 Z M 406 46 L 410 46 C 410 46 410 50 410 50 L 406 50 L 406 46 Z M 406 54 L 410 54 C 410 54 410 58 410 58 L 406 58 L 406 54 Z M 406 62 L 410 62 C 410 62 410 66 410 66 L 406 66 L 406 62 Z M 406 70 L 410 70 C 410 70 410 74 410 74 L 406 74 L 406 70 Z M 406 78 L 410 78 C 410 78 410 82 410 82 L 406 82 L 406 78 Z M 406 86 L 410 86 C 410 86 410 90 410 90 L 406 90 L 406 86 Z M 406 94 L 410 94 C 410 94 410 98 410 98 L 406 98 L 406 94 Z M 406 102 L 410 102 C 410 102 410 106 410 106 L 406 106 L 406 102 Z M 406 110 L 410 110 C 410 110 410 114 410 114 L 406 114 L 406 110 Z M 406 118 L 410 118 C 410 118 410 122 410 122 L 406 122 L 406 118 Z M 406 126 L 410 126 C 410 126 410 130 410 130 L 406 130 L 406 126 Z M 406 134 L 410 134 C 410 134 410 138 410 138 L 406 138 L 406 134 Z M 406 142 L 410 142 C 410 142 410 146 410 146 L 406 146 L 406 142 Z M 406 150 L 410 150 C 410 150 410 154 410 154 L 406 154 L 406 150 Z M 406 158 L 410 158 C 410 158 410 162 410 162 L 406 162 L 406 158 Z M 406 166 L 410 166 C 410 166 410 170 410 170 L 406 170 L 406 166 Z M 406 174 L 410 174 C 410 174 410 178 410 178 L 406 178 L 406 174 Z M 406 182 L 410 182 C 410 182 410 186 410 186 L 406 186 L 406 182 Z M 406 190 L 410 190 C 410 190 410 194 410 194 L 406 194 L 406 190 Z M 406 198 L 410 198 C 410 198 410 202 410 202 L 406 202 L 406 198 Z M 406 206 L 410 206 C 410 206 410 210 410 210 L 406 210 L 406 206 Z M 406 214 L 410 214 C 410 214 410 218 410 218 L 406 218 L 406 214 Z M 406 222 L 410 222 C 410 222 410 226 410 226 L 406 226 L 406 222 Z M 406 230 L 410 230 C 410 230 410 234 410 234 L 406 234 L 406 230 Z M 406 238 L 410 238 C 410 238 410 242 410 242 L 406 242 L 406 238 Z M 406 246 L 410 246 C 410 246 410 250 410 250 L 406 250 L 406 246 Z M 406 254 L 410 254 C 410 254 410 258 410 258 L 406 258 L 406 254 Z M 406 262 L 410 262 C 410 262 410 266 410 266 L 406 266 L 406 262 Z M 406 270 L 410 270 C 410 270 410 274 410 274 L 406 274 L 406 270 Z M 406 278 L 410 278 C 410 278 410 282 410 282 L 406 282 L 406 278 Z M 406 286 L 410 286 C 410 286 410 290 410 290 L 406 290 L 406 286 Z M 406 294 L 410 294 C 410 294 410 298 410 298 L 406 298 L 406 294 Z M 406 302 L 410 302 C 410 302 410 306 410 306 L 406 306 L 406 302 Z M 406 310 L 410 310 C 410 310 410 314 410 314 L 406 314 L 406 310 Z M 406 318 L 410 318 C 410 318 410 322 410 322 L 406 322 L 406 318 Z M 406 326 L 410 326 C 410 326 410 330 410 330 L 406 330 L 406 326 Z M 406 334 L 410 334 C 410 334 410 338 410 338 L 406 338 L 406 334 Z M 406 342 L 410 342 C 410 342 410 346 410 346 L 406 346 L 406 342 Z M 406 350 L 410 350 C 410 350 410 354 410 354 L 406 354 L 406 350 Z M 406 358 L 410 358 C 410 358 410 362 410 362 L 407 362 L 407 363 C 407 363 403 363 403 363 L 403 359 L 406 359 L 406 358 Z M 395 359 L 399 359 L 399 363 C 399 363 395 363 395 363 L 395 359 Z M 387 359 L 391 359 L 391 363 C 391 363 387 363 387 363 L 387 359 Z M 379 359 L 383 359 L 383 363 C 383 363 379 363 379 363 L 379 359 Z M 371 359 L 375 359 L 375 363 C 375 363 371 363 371 363 L 371 359 Z M 363 359 L 367 359 L 367 363 C 367 363 363 363 363 363 L 363 359 Z M 355 359 L 359 359 L 359 363 C 359 363 355 363 355 363 L 355 359 Z M 347 359 L 351 359 L 351 363 C 351 363 347 363 347 363 L 347 359 Z M 339 359 L 343 359 L 343 363 C 343 363 339 363 339 363 L 339 359 Z M 331 359 L 335 359 L 335 363 C 335 363 331 363 331 363 L 331 359 Z M 323 359 L 327 359 L 327 363 C 327 363 323 363 323 363 L 323 359 Z M 315 359 L 319 359 L 319 363 C 319 363 315 363 315 363 L 315 359 Z M 307 359 L 311 359 L 311 363 C 311 363 307 363 307 363 L 307 359 Z M 299 359 L 303 359 L 303 363 C 303 363 299 363 299 363 L 299 359 Z M 291 359 L 295 359 L 295 363 C 295 363 291 363 291 363 L 291 359 Z M 283 359 L 287 359 L 287 363 C 287 363 283 363 283 363 L 283 359 Z M 275 359 L 279 359 L 279 363 C 279 363 275 363 275 363 L 275 359 Z M 267 359 L 271 359 L 271 363 C 271 363 267 363 267 363 L 267 359 Z M 259 359 L 263 359 L 263 363 C 263 363 259 363 259 363 L 259 359 Z M 251 359 L 255 359 L 255 363 C 255 363 251 363 251 363 L 251 359 Z M 243 359 L 247 359 L 247 363 C 247 363 243 363 243 363 L 243 359 Z M 235 359 L 239 359 L 239 363 C 239 363 235 363 235 363 L 235 359 Z M 227 359 L 231 359 L 231 363 C 231 363 227 363 227 363 L 227 359 Z M 219 359 L 223 359 L 223 363 C 223 363 219 363 219 363 L 219 359 Z M 211 359 L 215 359 L 215 363 C 215 363 211 363 211 363 L 211 359 Z M 203 359 L 207 359 L 207 363 C 207 363 203 363 203 363 L 203 359 Z M 195 359 L 199 359 L 199 363 C 199 363 195 363 195 363 L 195 359 Z M 187 359 L 191 359 L 191 363 C 191 363 187 363 187 363 L 187 359 Z M 179 359 L 183 359 L 183 363 C 183 363 179 363 179 363 L 179 359 Z M 171 359 L 175 359 L 175 363 C 175 363 171 363 171 363 L 171 359 Z M 163 359 L 167 359 L 167 363 C 167 363 163 363 163 363 L 163 359 Z M 155 359 L 159 359 L 159 363 C 159 363 155 363 155 363 L 155 359 Z M 147 359 L 151 359 L 151 363 C 151 363 147 363 147 363 L 147 359 Z M 139 359 L 143 359 L 143 363 C 143 363 139 363 139 363 L 139 359 Z M 131 359 L 135 359 L 135 363 C 135 363 131 363 131 363 L 131 359 Z M 123 359 L 127 359 L 127 363 C 127 363 123 363 123 363 L 123 359 Z M 115 359 L 119 359 L 119 363 C 119 363 115 363 115 363 L 115 359 Z M 107 359 L 111 359 L 111 363 C 111 363 107 363 107 363 L 107 359 Z M 99 359 L 103 359 L 103 363 C 103 363 99 363 99 363 L 99 359 Z M 91 359 L 95 359 L 95 363 C 95 363 91 363 91 363 L 91 359 Z M 83 359 L 87 359 L 87 363 C 87 363 83 363 83 363 L 83 359 Z M 75 359 L 79 359 L 79 363 C 79 363 75 363 75 363 L 75 359 Z M 67 359 L 71 359 L 71 363 C 71 363 67 363 67 363 L 67 359 Z M 59 359 L 63 359 L 63 363 C 63 363 59 363 59 363 L 59 359 Z M 51 359 L 55 359 L 55 363 C 55 363 51 363 51 363 L 51 359 Z M 43 359 L 47 359 L 47 363 C 47 363 43 363 43 363 L 43 359 Z M 35 359 L 39 359 L 39 363 C 39 363 35 363 35 363 L 35 359 Z M 27 359 L 31 359 L 31 363 C 31 363 27 363 27 363 L 27 359 Z M 19 359 L 23 359 L 23 363 C 23 363 19 363 19 363 L 19 359 Z M 11 359 L 15 359 L 15 363 C 15 363 11 363 11 363 L 11 359 Z M 0 358 L 4 358 L 4 359 L 7 359 L 7 363 C 7 363 3 363 3 363 L 3 362 L 0 362 L 0 358 Z M 0 350 L 4 350 L 4 354 L 0 354 L 0 350 Z M 0 342 L 4 342 L 4 346 L 0 346 L 0 342 Z M 0 334 L 4 334 L 4 338 L 0 338 L 0 334 Z M 0 326 L 4 326 L 4 330 L 0 330 L 0 326 Z M 0 318 L 4 318 L 4 322 L 0 322 L 0 318 Z M 0 310 L 4 310 L 4 314 L 0 314 L 0 310 Z M 0 302 L 4 302 L 4 306 L 0 306 L 0 302 Z M 0 294 L 4 294 L 4 298 L 0 298 L 0 294 Z M 0 286 L 4 286 L 4 290 L 0 290 L 0 286 Z M 0 278 L 4 278 L 4 282 L 0 282 L 0 278 Z M 0 270 L 4 270 L 4 274 L 0 274 L 0 270 Z M 0 262 L 4 262 L 4 266 L 0 266 L 0 262 Z M 0 254 L 4 254 L 4 258 L 0 258 L 0 254 Z M 0 246 L 4 246 L 4 250 L 0 250 L 0 246 Z M 0 238 L 4 238 L 4 242 L 0 242 L 0 238 Z M 0 230 L 4 230 L 4 234 L 0 234 L 0 230 Z M 0 222 L 4 222 L 4 226 L 0 226 L 0 222 Z M 0 214 L 4 214 L 4 218 L 0 218 L 0 214 Z M 0 206 L 4 206 L 4 210 L 0 210 L 0 206 Z M 0 198 L 4 198 L 4 202 L 0 202 L 0 198 Z M 0 190 L 4 190 L 4 194 L 0 194 L 0 190 Z M 0 182 L 4 182 L 4 186 L 0 186 L 0 182 Z M 0 174 L 4 174 L 4 178 L 0 178 L 0 174 Z M 0 166 L 4 166 L 4 170 L 0 170 L 0 166 Z M 0 158 L 4 158 L 4 162 L 0 162 L 0 158 Z M 0 150 L 4 150 L 4 154 L 0 154 L 0 150 Z M 0 142 L 4 142 L 4 146 L 0 146 L 0 142 Z M 0 134 L 4 134 L 4 138 L 0 138 L 0 134 Z M 0 126 L 4 126 L 4 130 L 0 130 L 0 126 Z M 0 118 L 4 118 L 4 122 L 0 122 L 0 118 Z M 0 110 L 4 110 L 4 114 L 0 114 L 0 110 Z M 0 102 L 4 102 L 4 106 L 0 106 L 0 102 Z M 0 94 L 4 94 L 4 98 L 0 98 L 0 94 Z M 0 86 L 4 86 L 4 90 L 0 90 L 0 86 Z M 0 78 L 4 78 L 4 82 L 0 82 L 0 78 Z M 0 70 L 4 70 L 4 74 L 0 74 L 0 70 Z M 0 62 L 4 62 L 4 66 L 0 66 L 0 62 Z M 0 54 L 4 54 L 4 58 L 0 58 L 0 54 Z M 0 46 L 4 46 L 4 50 L 0 50 L 0 46 Z M 0 38 L 4 38 L 4 42 L 0 42 L 0 38 Z M 0 30 L 4 30 L 4 34 L 0 34 L 0 30 Z M 0 22 L 4 22 L 4 26 L 0 26 L 0 22 Z M 0 14 L 4 14 L 4 18 L 0 18 L 0 14 Z M 0 6 L 4 6 L 4 10 L 0 10 L 0 6 Z M 0 0 L 4 0 L 4 4 L 0 4 L 0 0 Z" stroke="none" fill="#00bcd4"/>
    </g>
    <path id="Trazado_207011" data-name="Trazado 207011" d="M0,0H329V266H30A30,30,0,0,1,0,236Z" transform="translate(475.287 1150)" fill="#fff" opacity="0.7"/>
    <path id="Trazado_207014" data-name="Trazado 207014" d="M-13.408-5.664h-5.527V0h-3.428V-14.219h9.512v2.646h-6.084V-8.3h5.527Zm10.8-.371H-8v3.4h6.367V0h-9.795V-14.219h9.814v2.646H-8v3h5.391Zm11.328.371H3.193V0H-.234V-14.219H9.277v2.646H3.193V-8.3H8.721ZM22.744-6.816a8.385,8.385,0,0,1-.771,3.682A5.7,5.7,0,0,1,19.78-.669,6.1,6.1,0,0,1,16.543.2,6.191,6.191,0,0,1,13.32-.64a5.692,5.692,0,0,1-2.192-2.388A8.144,8.144,0,0,1,10.3-6.592v-.8a8.422,8.422,0,0,1,.767-3.687,5.688,5.688,0,0,1,2.2-2.466,6.147,6.147,0,0,1,3.257-.869,6.087,6.087,0,0,1,3.223.859,5.79,5.79,0,0,1,2.2,2.446,8.18,8.18,0,0,1,.8,3.638Zm-3.486-.6a5.979,5.979,0,0,0-.708-3.218,2.271,2.271,0,0,0-2.026-1.1q-2.578,0-2.725,3.867l-.01,1.045A6.149,6.149,0,0,0,14.482-3.6,2.268,2.268,0,0,0,16.543-2.48a2.24,2.24,0,0,0,2-1.1,5.982,5.982,0,0,0,.713-3.174Z" transform="translate(635.287 1330)" fill="#12263f"/>
    <path id="Trazado_207015" data-name="Trazado 207015" d="M-10.83-5.664h-5.527V0h-3.428V-14.219h9.512v2.646h-6.084V-8.3h5.527ZM-5.2,0H-8.613V-14.219H-5.2ZM6.143-5.664H.615V0H-2.812V-14.219H6.7v2.646H.615V-8.3H6.143ZM20.166-6.816a8.385,8.385,0,0,1-.771,3.682A5.7,5.7,0,0,1,17.2-.669,6.1,6.1,0,0,1,13.965.2,6.191,6.191,0,0,1,10.742-.64,5.692,5.692,0,0,1,8.55-3.027a8.144,8.144,0,0,1-.825-3.564v-.8a8.422,8.422,0,0,1,.767-3.687,5.688,5.688,0,0,1,2.2-2.466,6.147,6.147,0,0,1,3.257-.869,6.087,6.087,0,0,1,3.223.859,5.79,5.79,0,0,1,2.2,2.446,8.18,8.18,0,0,1,.8,3.638Zm-3.486-.6a5.979,5.979,0,0,0-.708-3.218,2.271,2.271,0,0,0-2.026-1.1q-2.578,0-2.725,3.867l-.01,1.045A6.149,6.149,0,0,0,11.9-3.6,2.268,2.268,0,0,0,13.965-2.48a2.24,2.24,0,0,0,2-1.1,5.982,5.982,0,0,0,.713-3.174Z" transform="translate(965.287 1330)" fill="#12263f"/>
    <path id="Trazado_207016" data-name="Trazado 207016" d="M14.121,9.977H9.348V15h-1.5V3.625h7.047V4.852H9.348v3.9h4.773ZM18.035,15H16.59V6.547h1.445ZM16.473,4.3a.863.863,0,0,1,.215-.594.807.807,0,0,1,.637-.242.819.819,0,0,1,.641.242.854.854,0,0,1,.219.594.826.826,0,0,1-.219.586.834.834,0,0,1-.641.234.821.821,0,0,1-.637-.234A.834.834,0,0,1,16.473,4.3Zm7.961,3.539a4.331,4.331,0,0,0-.711-.055A1.9,1.9,0,0,0,21.793,9v6H20.348V6.547h1.406l.023.977a2.251,2.251,0,0,1,2.016-1.133,1.477,1.477,0,0,1,.641.109Zm6.25,4.914a1.064,1.064,0,0,0-.441-.91,4.249,4.249,0,0,0-1.539-.559,7.277,7.277,0,0,1-1.742-.562,2.479,2.479,0,0,1-.953-.781A1.869,1.869,0,0,1,25.7,8.867a2.193,2.193,0,0,1,.879-1.758,3.432,3.432,0,0,1,2.246-.719,3.532,3.532,0,0,1,2.332.742,2.357,2.357,0,0,1,.895,1.9H30.6a1.3,1.3,0,0,0-.5-1.023,1.888,1.888,0,0,0-1.27-.43,1.976,1.976,0,0,0-1.234.344,1.082,1.082,0,0,0-.445.9.877.877,0,0,0,.414.789,5.1,5.1,0,0,0,1.5.508,7.8,7.8,0,0,1,1.754.578,2.558,2.558,0,0,1,1,.809,1.988,1.988,0,0,1,.324,1.152,2.163,2.163,0,0,1-.906,1.816,3.8,3.8,0,0,1-2.352.684,4.257,4.257,0,0,1-1.8-.359,2.922,2.922,0,0,1-1.223-1A2.42,2.42,0,0,1,25.41,12.4h1.445a1.5,1.5,0,0,0,.582,1.152,2.258,2.258,0,0,0,1.434.426,2.331,2.331,0,0,0,1.316-.332A1.02,1.02,0,0,0,30.684,12.758ZM35.973,4.5V6.547h1.578V7.664H35.973v5.249a1.173,1.173,0,0,0,.211.763.888.888,0,0,0,.719.254,3.5,3.5,0,0,0,.688-.094V15a4.215,4.215,0,0,1-1.109.155,1.8,1.8,0,0,1-1.461-.586,2.517,2.517,0,0,1-.492-1.664V7.664H32.988V6.547h1.539V4.5ZM49.855,9.742h-4.93v4.031h5.727V15H43.426V3.625h7.148V4.852H44.926V8.516h4.93Zm5.273-.109L57,6.547h1.688l-2.766,4.18L58.777,15H57.105l-1.953-3.164L53.2,15H51.52l2.852-4.273-2.766-4.18h1.672Zm12.234,1.234a5.062,5.062,0,0,1-.883,3.109,2.829,2.829,0,0,1-2.391,1.18,3.1,3.1,0,0,1-2.422-.977v4.07H60.223V6.547h1.32l.07.938a2.977,2.977,0,0,1,2.453-1.094,2.882,2.882,0,0,1,2.41,1.148,5.117,5.117,0,0,1,.887,3.2ZM65.918,10.7a3.735,3.735,0,0,0-.609-2.258,1.963,1.963,0,0,0-1.672-.828,2.125,2.125,0,0,0-1.969,1.164V12.82a2.129,2.129,0,0,0,1.984,1.156,1.954,1.954,0,0,0,1.652-.824A4.077,4.077,0,0,0,65.918,10.7ZM70.77,15H69.324V6.547H70.77ZM69.207,4.3a.863.863,0,0,1,.215-.594.807.807,0,0,1,.637-.242.819.819,0,0,1,.641.242.854.854,0,0,1,.219.594.826.826,0,0,1-.219.586.834.834,0,0,1-.641.234.821.821,0,0,1-.637-.234A.834.834,0,0,1,69.207,4.3Zm7.961,3.539a4.331,4.331,0,0,0-.711-.055A1.9,1.9,0,0,0,74.527,9v6H73.082V6.547h1.406l.023.977a2.251,2.251,0,0,1,2.016-1.133,1.477,1.477,0,0,1,.641.109Zm4.688,7.313a3.693,3.693,0,0,1-2.8-1.129,4.19,4.19,0,0,1-1.078-3.02v-.266a5.073,5.073,0,0,1,.48-2.246A3.748,3.748,0,0,1,79.8,6.949a3.378,3.378,0,0,1,1.871-.559,3.166,3.166,0,0,1,2.563,1.086,4.7,4.7,0,0,1,.914,3.109v.6H79.426a3,3,0,0,0,.73,2.02,2.3,2.3,0,0,0,1.777.77,2.517,2.517,0,0,0,1.3-.312,3.259,3.259,0,0,0,.93-.828l.883.688A3.55,3.55,0,0,1,81.855,15.156Zm-.18-7.578a1.928,1.928,0,0,0-1.469.637A3.1,3.1,0,0,0,79.473,10h4.234V9.891a2.753,2.753,0,0,0-.594-1.707A1.815,1.815,0,0,0,81.676,7.578Zm4.8,3.125a4.952,4.952,0,0,1,.922-3.129,3.137,3.137,0,0,1,4.766-.168V3h1.445V15H92.277l-.07-.906a2.943,2.943,0,0,1-2.414,1.063,2.887,2.887,0,0,1-2.395-1.2,5.008,5.008,0,0,1-.926-3.141Zm1.445.164a3.749,3.749,0,0,0,.594,2.25,1.92,1.92,0,0,0,1.641.813A2.108,2.108,0,0,0,92.16,12.7V8.813a2.125,2.125,0,0,0-1.992-1.2,1.929,1.929,0,0,0-1.656.82A4.128,4.128,0,0,0,87.918,10.867Zm7.883,6.4-.82-.562a3.77,3.77,0,0,0,.766-2.109v-1.3H97.16v1.133A3.559,3.559,0,0,1,96.773,16,3.7,3.7,0,0,1,95.8,17.266Zm13.648-7.289h-4.773V15h-1.5V3.625h7.047V4.852h-5.547v3.9h4.773ZM113.363,15h-1.445V6.547h1.445ZM111.8,4.3a.863.863,0,0,1,.215-.594.807.807,0,0,1,.637-.242.819.819,0,0,1,.641.242.854.854,0,0,1,.219.594.826.826,0,0,1-.219.586.834.834,0,0,1-.641.234.821.821,0,0,1-.637-.234A.834.834,0,0,1,111.8,4.3Zm7.961,3.539a4.331,4.331,0,0,0-.711-.055A1.9,1.9,0,0,0,117.121,9v6h-1.445V6.547h1.406l.023.977a2.251,2.251,0,0,1,2.016-1.133,1.477,1.477,0,0,1,.641.109Zm6.25,4.914a1.064,1.064,0,0,0-.441-.91,4.249,4.249,0,0,0-1.539-.559,7.277,7.277,0,0,1-1.742-.562,2.479,2.479,0,0,1-.953-.781,1.869,1.869,0,0,1-.309-1.078,2.193,2.193,0,0,1,.879-1.758,3.432,3.432,0,0,1,2.246-.719,3.532,3.532,0,0,1,2.332.742,2.357,2.357,0,0,1,.895,1.9h-1.453a1.3,1.3,0,0,0-.5-1.023,1.888,1.888,0,0,0-1.27-.43,1.976,1.976,0,0,0-1.234.344,1.082,1.082,0,0,0-.445.9.877.877,0,0,0,.414.789,5.1,5.1,0,0,0,1.5.508,7.8,7.8,0,0,1,1.754.578,2.558,2.558,0,0,1,1,.809,1.988,1.988,0,0,1,.324,1.152,2.163,2.163,0,0,1-.906,1.816,3.8,3.8,0,0,1-2.352.684,4.257,4.257,0,0,1-1.8-.359,2.922,2.922,0,0,1-1.223-1,2.42,2.42,0,0,1-.441-1.395h1.445a1.5,1.5,0,0,0,.582,1.152,2.258,2.258,0,0,0,1.434.426,2.331,2.331,0,0,0,1.316-.332A1.02,1.02,0,0,0,126.012,12.758ZM131.3,4.5V6.547h1.578V7.664H131.3v5.249a1.173,1.173,0,0,0,.211.763.888.888,0,0,0,.719.254,3.5,3.5,0,0,0,.688-.094V15a4.215,4.215,0,0,1-1.109.155,1.8,1.8,0,0,1-1.461-.586,2.517,2.517,0,0,1-.492-1.664V7.664h-1.539V6.547h1.539V4.5ZM65.441,33.68a7.037,7.037,0,0,1-.562,2.918,4.261,4.261,0,0,1-1.594,1.9,4.4,4.4,0,0,1-6.4-1.887,6.752,6.752,0,0,1-.59-2.832v-.82a6.953,6.953,0,0,1,.57-2.9,4.218,4.218,0,0,1,4-2.594,4.41,4.41,0,0,1,2.41.66,4.253,4.253,0,0,1,1.605,1.914,7.071,7.071,0,0,1,.563,2.918Zm-1.492-.734a5.1,5.1,0,0,0-.812-3.105,2.68,2.68,0,0,0-2.273-1.082,2.651,2.651,0,0,0-2.238,1.082,5,5,0,0,0-.84,3v.836a5.107,5.107,0,0,0,.824,3.082,2.888,2.888,0,0,0,4.52.063,5.079,5.079,0,0,0,.82-3.035Zm8.734,5.219a3.07,3.07,0,0,1-2.477.992,2.628,2.628,0,0,1-2.059-.785,3.4,3.4,0,0,1-.715-2.324v-5.5h1.445v5.461q0,1.922,1.563,1.922a2.163,2.163,0,0,0,2.2-1.234V30.547H74.09V39H72.715ZM78.246,28.5v2.047h1.578v1.117H78.246v5.249a1.173,1.173,0,0,0,.211.763.888.888,0,0,0,.719.254,3.5,3.5,0,0,0,.688-.094V39a4.215,4.215,0,0,1-1.109.155,1.8,1.8,0,0,1-1.461-.586,2.517,2.517,0,0,1-.492-1.664V31.664H75.262V30.547H76.8V28.5Zm3.3,9.742a.905.905,0,0,1,.223-.625.848.848,0,0,1,.668-.25.874.874,0,0,1,.676.25.887.887,0,0,1,.23.625.839.839,0,0,1-.23.6.89.89,0,0,1-.676.242.8.8,0,0,1-.891-.844Z" transform="translate(565.287 1347)" fill="#12263f"/>
    <path id="Trazado_207017" data-name="Trazado 207017" d="M17.246,9.977H12.473V15h-1.5V3.625H18.02V4.852H12.473v3.9h4.773ZM21.16,15H19.715V6.547H21.16ZM19.6,4.3a.863.863,0,0,1,.215-.594.807.807,0,0,1,.637-.242.819.819,0,0,1,.641.242.854.854,0,0,1,.219.594.826.826,0,0,1-.219.586.834.834,0,0,1-.641.234.821.821,0,0,1-.637-.234A.834.834,0,0,1,19.6,4.3Zm7.961,3.539a4.331,4.331,0,0,0-.711-.055A1.9,1.9,0,0,0,24.918,9v6H23.473V6.547h1.406l.023.977a2.251,2.251,0,0,1,2.016-1.133,1.477,1.477,0,0,1,.641.109Zm6.25,4.914a1.064,1.064,0,0,0-.441-.91,4.249,4.249,0,0,0-1.539-.559,7.277,7.277,0,0,1-1.742-.562,2.479,2.479,0,0,1-.953-.781,1.869,1.869,0,0,1-.309-1.078A2.193,2.193,0,0,1,29.7,7.109a3.432,3.432,0,0,1,2.246-.719,3.532,3.532,0,0,1,2.332.742,2.357,2.357,0,0,1,.895,1.9H33.723a1.3,1.3,0,0,0-.5-1.023,1.888,1.888,0,0,0-1.27-.43,1.976,1.976,0,0,0-1.234.344,1.082,1.082,0,0,0-.445.9.877.877,0,0,0,.414.789,5.1,5.1,0,0,0,1.5.508,7.8,7.8,0,0,1,1.754.578,2.558,2.558,0,0,1,1,.809,1.988,1.988,0,0,1,.324,1.152,2.163,2.163,0,0,1-.906,1.816A3.8,3.8,0,0,1,32,15.156a4.257,4.257,0,0,1-1.8-.359,2.922,2.922,0,0,1-1.223-1,2.42,2.42,0,0,1-.441-1.395H29.98a1.5,1.5,0,0,0,.582,1.152A2.258,2.258,0,0,0,32,13.977a2.331,2.331,0,0,0,1.316-.332A1.02,1.02,0,0,0,33.809,12.758ZM39.1,4.5V6.547h1.578V7.664H39.1v5.249a1.173,1.173,0,0,0,.211.763.888.888,0,0,0,.719.254,3.5,3.5,0,0,0,.688-.094V15a4.215,4.215,0,0,1-1.109.155,1.8,1.8,0,0,1-1.461-.586,2.517,2.517,0,0,1-.492-1.664V7.664H36.113V6.547h1.539V4.5ZM48.16,15h-1.5V3.625h1.5Zm3.883-8.453.047,1.063a3.08,3.08,0,0,1,2.531-1.219q2.68,0,2.7,3.023V15H55.879V9.406a1.946,1.946,0,0,0-.418-1.352,1.675,1.675,0,0,0-1.277-.437,2.086,2.086,0,0,0-1.234.375,2.546,2.546,0,0,0-.828.984V15H50.676V6.547Zm7.414,10.719-.82-.562a3.77,3.77,0,0,0,.766-2.109v-1.3h1.414v1.133A3.559,3.559,0,0,1,60.43,16,3.7,3.7,0,0,1,59.457,17.266ZM73.105,9.977H68.332V15h-1.5V3.625h7.047V4.852H68.332v3.9h4.773ZM77.02,15H75.574V6.547H77.02ZM75.457,4.3a.863.863,0,0,1,.215-.594.807.807,0,0,1,.637-.242.819.819,0,0,1,.641.242.854.854,0,0,1,.219.594.826.826,0,0,1-.219.586.834.834,0,0,1-.641.234.821.821,0,0,1-.637-.234A.834.834,0,0,1,75.457,4.3Zm7.961,3.539a4.331,4.331,0,0,0-.711-.055A1.9,1.9,0,0,0,80.777,9v6H79.332V6.547h1.406l.023.977a2.251,2.251,0,0,1,2.016-1.133,1.477,1.477,0,0,1,.641.109Zm6.25,4.914a1.064,1.064,0,0,0-.441-.91,4.249,4.249,0,0,0-1.539-.559,7.277,7.277,0,0,1-1.742-.562,2.479,2.479,0,0,1-.953-.781,1.869,1.869,0,0,1-.309-1.078,2.193,2.193,0,0,1,.879-1.758,3.432,3.432,0,0,1,2.246-.719,3.532,3.532,0,0,1,2.332.742,2.357,2.357,0,0,1,.895,1.9H89.582a1.3,1.3,0,0,0-.5-1.023,1.888,1.888,0,0,0-1.27-.43,1.976,1.976,0,0,0-1.234.344,1.082,1.082,0,0,0-.445.9.877.877,0,0,0,.414.789,5.1,5.1,0,0,0,1.5.508,7.8,7.8,0,0,1,1.754.578,2.558,2.558,0,0,1,1,.809,1.988,1.988,0,0,1,.324,1.152,2.163,2.163,0,0,1-.906,1.816,3.8,3.8,0,0,1-2.352.684,4.257,4.257,0,0,1-1.8-.359,2.922,2.922,0,0,1-1.223-1,2.42,2.42,0,0,1-.441-1.395H85.84a1.5,1.5,0,0,0,.582,1.152,2.258,2.258,0,0,0,1.434.426,2.331,2.331,0,0,0,1.316-.332A1.02,1.02,0,0,0,89.668,12.758ZM94.957,4.5V6.547h1.578V7.664H94.957v5.249a1.173,1.173,0,0,0,.211.763.888.888,0,0,0,.719.254,3.5,3.5,0,0,0,.688-.094V15a4.215,4.215,0,0,1-1.109.155A1.8,1.8,0,0,1,94,14.57a2.517,2.517,0,0,1-.492-1.664V7.664H91.973V6.547h1.539V4.5Zm16.2,5.18A7.037,7.037,0,0,1,110.6,12.6,4.261,4.261,0,0,1,109,14.5a4.4,4.4,0,0,1-6.4-1.887,6.752,6.752,0,0,1-.59-2.832v-.82a6.953,6.953,0,0,1,.57-2.9,4.218,4.218,0,0,1,4-2.594,4.41,4.41,0,0,1,2.41.66A4.253,4.253,0,0,1,110.6,6.043a7.071,7.071,0,0,1,.563,2.918Zm-1.492-.734a5.1,5.1,0,0,0-.812-3.105,2.68,2.68,0,0,0-2.273-1.082,2.651,2.651,0,0,0-2.238,1.082,5,5,0,0,0-.84,3V9.68a5.107,5.107,0,0,0,.824,3.082,2.888,2.888,0,0,0,4.52.063,5.079,5.079,0,0,0,.82-3.035Zm8.734,5.219a3.07,3.07,0,0,1-2.477.992,2.628,2.628,0,0,1-2.059-.785,3.4,3.4,0,0,1-.715-2.324v-5.5H114.6v5.461q0,1.922,1.563,1.922a2.163,2.163,0,0,0,2.2-1.234V6.547h1.445V15h-1.375ZM123.965,4.5V6.547h1.578V7.664h-1.578v5.249a1.173,1.173,0,0,0,.211.763.888.888,0,0,0,.719.254,3.5,3.5,0,0,0,.688-.094V15a4.215,4.215,0,0,1-1.109.155,1.8,1.8,0,0,1-1.461-.586,2.517,2.517,0,0,1-.492-1.664V7.664H120.98V6.547h1.539V4.5Zm3.3,9.742a.905.905,0,0,1,.223-.625.848.848,0,0,1,.668-.25.874.874,0,0,1,.676.25.887.887,0,0,1,.23.625.839.839,0,0,1-.23.6.89.89,0,0,1-.676.242.8.8,0,0,1-.891-.844Z" transform="translate(895.287 1356)" fill="#12263f"/>
    <g id="Grupo_170338" data-name="Grupo 170338" transform="translate(577.541 997.844)">
      <circle id="Elipse_5457" data-name="Elipse 5457" cx="95" cy="95" r="95" transform="translate(130 152.313)" fill="gray" opacity="0.5" style="mix-blend-mode: color-burn;isolation: isolate"/>
      <g id="Grupo_170269" data-name="Grupo 170269">
        <circle id="Elipse_5458" data-name="Elipse 5458" cx="47.661" cy="47.661" r="47.661" transform="translate(19.995 191.33)" fill="gray" opacity="0.5" style="mix-blend-mode: color-burn;isolation: isolate"/>
        <g id="Grupo_170268" data-name="Grupo 170268">
          <path id="Trazado_206111" data-name="Trazado 206111" d="M67.657,288.9a49.912,49.912,0,1,1,49.911-49.911A49.968,49.968,0,0,1,67.657,288.9Zm0-95.323a45.412,45.412,0,1,0,45.411,45.412A45.463,45.463,0,0,0,67.657,193.58Z" fill="#eaeff5"/>
        </g>
      </g>
      <g id="Grupo_170271" data-name="Grupo 170271">
        <circle id="Elipse_5459" data-name="Elipse 5459" cx="47.661" cy="47.661" r="47.661" transform="translate(335.734 196.029)" fill="gray" opacity="0.5" style="mix-blend-mode: color-burn;isolation: isolate"/>
        <g id="Grupo_170270" data-name="Grupo 170270">
          <path id="Trazado_206112" data-name="Trazado 206112" d="M383.4,293.6a49.912,49.912,0,1,1,49.911-49.912A49.969,49.969,0,0,1,383.4,293.6Zm0-95.324a45.412,45.412,0,1,0,45.411,45.412A45.464,45.464,0,0,0,383.4,198.278Z" fill="#eaeff5"/>
        </g>
      </g>
      <g id="Grupo_170286" data-name="Grupo 170286">
        <path id="Trazado_206113" data-name="Trazado 206113" d="M300.844,197.65H296.3a.718.718,0,0,0-.716.716v8.794h-1.691v1.1H230.141v-1.1h-1.584v-8.794a.717.717,0,0,0-.716-.716H223.3a.719.719,0,0,0-.717.716v8.925h-1.6v1.1H157.23v-1.1h-1.6V198.5a.718.718,0,0,0-.718-.716h-4.542a.718.718,0,0,0-.716.716v100.8a.719.719,0,0,0,.716.717h4.542a.718.718,0,0,0,.718-.717v-3.871h5.678v-1.105H216.9v1.105h5.678v3.741a.72.72,0,0,0,.717.717h4.543a.718.718,0,0,0,.716-.717v-3.873h5.664v-1.1h-5.664v0h66.921v0h-5.664v1.1h5.771v3.873a.719.719,0,0,0,.716.717h4.543a.72.72,0,0,0,.718-.717v-100.8A.719.719,0,0,0,300.844,197.65Zm-6.7,63v-16.8H261.323v1.29H240.431v-1.29H229.489v16.8h-.932V241.794H234.2v-1.106h55.627v1.106h5.754V260.65Zm-.251-26.745v1.1h-6.709v-11.1h.2v-2.217H272.14v2.217h.193v11.1h-.585v-11.1h.2v-2.217H256.7v2.217h.193v11.1h-.7V220.6h.253v-2.881h-19.8v2.881h.253V235.01h-6.766v-1.1h-1.584V215.048H234.2v-1.1h55.627v1.1h5.754V233.9Zm-76.975-19.831v1.1h5.662v18.857h-1.6v1.1H208.778V220.725h.253v-2.881h-19.8v2.881h.254V235.14h-.76V220.725h.253v-2.881h-19.8v2.881h.253V235.14h-12.2v-1.1h-1.6V215.179h5.664v-1.1Zm4.064,46.707v1.1h-.589V243.977H158.4v17.909H157.23v-1.1h-1.6V241.924h5.664v-1.1h55.624v1.1h5.662v18.857ZM198.719,288.64V274.224h.254v-2.881h-19.8v2.881h.255V288.64h-.761V274.224h.253v-2.881h-19.8v2.881h.255V288.64h-2.133v-1.105h-1.613V268.668h5.664v-1.105h55.624v1.105h5.662v18.867h-1.615v1.105h-2.13V274.224h.254v-2.881h-19.8v2.881h.253V288.64Zm94.1-.131V270.6H230.822v17.908h-.666v-1.1h-1.6V268.538H234.2v-1.1h55.627v1.1h5.754V287.4h-1.708v1.1Z" fill="gray" fill-rule="evenodd" opacity="0.5" style="mix-blend-mode: multiply;isolation: isolate"/>
        <g id="Grupo_170285" data-name="Grupo 170285">
          <path id="Rectángulo_48570" data-name="Rectángulo 48570" d="M.716,0H5.258a.718.718,0,0,1,.718.718v100.8a.717.717,0,0,1-.717.717H.716A.716.716,0,0,1,0,101.515V.716A.716.716,0,0,1,.716,0Z" transform="translate(147.955 195.78)" fill="#16131b"/>
          <path id="Rectángulo_48571" data-name="Rectángulo 48571" d="M.716,0H5.259a.716.716,0,0,1,.716.716v100.8a.717.717,0,0,1-.717.717H.716A.716.716,0,0,1,0,101.515V.716A.716.716,0,0,1,.716,0Z" transform="translate(220.881 195.65)" fill="#16131b"/>
          <path id="Rectángulo_48572" data-name="Rectángulo 48572" d="M.716,0H5.259a.718.718,0,0,1,.718.718v100.8a.717.717,0,0,1-.717.717H.716A.716.716,0,0,1,0,101.515V.716A.716.716,0,0,1,.716,0Z" transform="translate(293.885 195.65)" fill="#16131b"/>
          <rect id="Rectángulo_48573" data-name="Rectángulo 48573" width="19.975" height="17.908" transform="translate(229.122 268.601)" fill="#f3c37c"/>
          <path id="Trazado_206114" data-name="Trazado 206114" d="M241.7,268.6a2.589,2.589,0,0,1-5.177,0Z" fill="#fff" fill-rule="evenodd" opacity="0.9"/>
          <rect id="Rectángulo_48574" data-name="Rectángulo 48574" width="1.032" height="17.908" transform="translate(249.097 268.601)" fill="#b75f22"/>
          <rect id="Rectángulo_48575" data-name="Rectángulo 48575" width="19.977" height="17.908" transform="translate(250.129 268.601)" fill="#f3c37c"/>
          <path id="Trazado_206115" data-name="Trazado 206115" d="M262.7,268.6a2.587,2.587,0,1,1-5.174,0Z" fill="#fff" fill-rule="evenodd" opacity="0.9"/>
          <rect id="Rectángulo_48576" data-name="Rectángulo 48576" width="1.032" height="17.908" transform="translate(270.105 268.601)" fill="#b75f22"/>
          <rect id="Rectángulo_48577" data-name="Rectángulo 48577" width="19.976" height="17.908" transform="translate(271.137 268.601)" fill="#f3c37c"/>
          <path id="Trazado_206116" data-name="Trazado 206116" d="M283.713,268.6a2.588,2.588,0,0,1-5.176,0Z" fill="#fff" fill-rule="evenodd" opacity="0.9"/>
          <rect id="Rectángulo_48578" data-name="Rectángulo 48578" width="19.975" height="17.909" transform="translate(156.704 241.977)" fill="#f3c37c"/>
          <path id="Trazado_206117" data-name="Trazado 206117" d="M169.277,241.977a2.587,2.587,0,1,1-5.174,0Z" fill="#fff" fill-rule="evenodd" opacity="0.9"/>
          <rect id="Rectángulo_48579" data-name="Rectángulo 48579" width="1.034" height="17.909" transform="translate(176.678 241.977)" fill="#b75f22"/>
          <rect id="Rectángulo_48580" data-name="Rectángulo 48580" width="19.975" height="17.909" transform="translate(177.712 241.977)" fill="#f3c37c"/>
          <path id="Trazado_206118" data-name="Trazado 206118" d="M190.286,241.977a2.588,2.588,0,1,1-5.175,0Z" fill="#fff" fill-rule="evenodd" opacity="0.9"/>
          <rect id="Rectángulo_48581" data-name="Rectángulo 48581" width="1.032" height="17.909" transform="translate(197.687 241.977)" fill="#b75f22"/>
          <rect id="Rectángulo_48582" data-name="Rectángulo 48582" width="19.975" height="17.909" transform="translate(198.719 241.977)" fill="#f3c37c"/>
          <path id="Trazado_206119" data-name="Trazado 206119" d="M211.295,241.977a2.588,2.588,0,1,1-5.175,0Z" fill="#fff" fill-rule="evenodd" opacity="0.9"/>
          <rect id="Rectángulo_48583" data-name="Rectángulo 48583" width="0.986" height="17.908" transform="translate(281.505 241.847)" fill="#802e00"/>
          <rect id="Rectángulo_48584" data-name="Rectángulo 48584" width="9.954" height="17.908" transform="translate(282.491 241.847)" fill="#b75f22"/>
          <rect id="Rectángulo_48585" data-name="Rectángulo 48585" width="0.986" height="17.908" transform="translate(270.565 241.847)" fill="#802e00"/>
          <rect id="Rectángulo_48586" data-name="Rectángulo 48586" width="9.954" height="17.908" transform="translate(271.551 241.847)" fill="#b75f22"/>
          <rect id="Rectángulo_48587" data-name="Rectángulo 48587" width="0.988" height="17.908" transform="translate(259.623 241.847)" fill="#802e00"/>
          <rect id="Rectángulo_48588" data-name="Rectángulo 48588" width="9.954" height="17.908" transform="translate(260.611 241.847)" fill="#b75f22"/>
          <rect id="Rectángulo_48589" data-name="Rectángulo 48589" width="20.892" height="7.815" transform="translate(238.731 251.94)" fill="#b75f22"/>
          <rect id="Rectángulo_48590" data-name="Rectángulo 48590" width="0.988" height="17.908" transform="translate(237.743 241.847)" fill="#802e00"/>
          <rect id="Rectángulo_48591" data-name="Rectángulo 48591" width="9.954" height="17.908" transform="translate(227.789 241.847)" fill="#b75f22"/>
          <g id="Grupo_170272" data-name="Grupo 170272">
            <rect id="Rectángulo_48592" data-name="Rectángulo 48592" width="66.951" height="5.679" transform="translate(153.931 206.395)" fill="#29262e"/>
            <rect id="Rectángulo_48593" data-name="Rectángulo 48593" width="66.951" height="5.678" transform="translate(153.931 233.14)" fill="#29262e"/>
            <rect id="Rectángulo_48594" data-name="Rectángulo 48594" width="66.951" height="5.678" transform="translate(153.931 259.885)" fill="#29262e"/>
            <rect id="Rectángulo_48595" data-name="Rectángulo 48595" width="67.501" height="5.678" transform="translate(153.947 286.64)" fill="#29262e"/>
            <path id="Trazado_206120" data-name="Trazado 206120" d="M152.825,266.668h6.77v-1.105h-5.664v-5.677h1.6v-1.1h-2.705Z" fill="#dddfe8" fill-rule="evenodd"/>
            <path id="Trazado_206121" data-name="Trazado 206121" d="M152.84,293.423h6.769v-1.105h-5.662V286.64h1.6v-1.105h-2.7Z" fill="#dddfe8" fill-rule="evenodd"/>
            <path id="Trazado_206122" data-name="Trazado 206122" d="M152.825,239.924h6.77v-1.1h-5.664V233.14h1.6v-1.1h-2.705Z" fill="#dddfe8" fill-rule="evenodd"/>
            <path id="Trazado_206123" data-name="Trazado 206123" d="M152.825,213.179h6.77v-1.1h-5.664V206.4h1.6v-1.1h-2.705Z" fill="#dddfe8" fill-rule="evenodd"/>
            <path id="Trazado_206124" data-name="Trazado 206124" d="M221.987,266.668h-6.768v-1.105h5.662v-5.677h-1.6v-1.1h2.7Z" fill="#dddfe8" fill-rule="evenodd"/>
            <path id="Trazado_206125" data-name="Trazado 206125" d="M221.97,293.423H215.2v-1.105h5.663V286.64h-1.6v-1.105h2.7Z" fill="#dddfe8" fill-rule="evenodd"/>
            <path id="Trazado_206126" data-name="Trazado 206126" d="M221.987,239.924h-6.768v-1.1h5.662V233.14h-1.6v-1.1h2.7Z" fill="#dddfe8" fill-rule="evenodd"/>
            <path id="Trazado_206127" data-name="Trazado 206127" d="M221.987,213.179h-6.768v-1.1h5.662V206.4h-1.6v-1.1h2.7Z" fill="#dddfe8" fill-rule="evenodd"/>
          </g>
          <g id="Grupo_170273" data-name="Grupo 170273">
            <rect id="Rectángulo_48596" data-name="Rectángulo 48596" width="66.95" height="5.679" transform="translate(226.842 206.265)" fill="#29262e"/>
            <rect id="Rectángulo_48597" data-name="Rectángulo 48597" width="66.95" height="5.678" transform="translate(226.842 233.01)" fill="#29262e"/>
            <rect id="Rectángulo_48598" data-name="Rectángulo 48598" width="66.95" height="5.678" transform="translate(226.842 259.754)" fill="#29262e"/>
            <rect id="Rectángulo_48599" data-name="Rectángulo 48599" width="67.502" height="5.678" transform="translate(226.857 286.509)" fill="#29262e"/>
            <path id="Trazado_206128" data-name="Trazado 206128" d="M225.736,266.538H232.5v-1.1h-5.662v-5.678h1.6V258.65h-2.705Z" fill="#dddfe8" fill-rule="evenodd"/>
            <path id="Trazado_206129" data-name="Trazado 206129" d="M225.751,293.291h6.77v-1.1h-5.664v-5.679h1.6v-1.1h-2.7Z" fill="#dddfe8" fill-rule="evenodd"/>
            <path id="Trazado_206130" data-name="Trazado 206130" d="M225.736,239.794H232.5v-1.106h-5.662V233.01h1.6v-1.1h-2.705Z" fill="#dddfe8" fill-rule="evenodd"/>
            <path id="Trazado_206131" data-name="Trazado 206131" d="M225.736,213.048H232.5v-1.105h-5.662v-5.678h1.6v-1.1h-2.705Z" fill="#dddfe8" fill-rule="evenodd"/>
            <path id="Trazado_206132" data-name="Trazado 206132" d="M294.9,266.538h-6.767v-1.1h5.662v-5.678h-1.6V258.65h2.7Z" fill="#dddfe8" fill-rule="evenodd"/>
            <path id="Trazado_206133" data-name="Trazado 206133" d="M294.882,293.291h-6.768v-1.1h5.664v-5.679h-1.6v-1.1h2.7Z" fill="#dddfe8" fill-rule="evenodd"/>
            <path id="Trazado_206134" data-name="Trazado 206134" d="M294.9,239.794h-6.767v-1.106h5.662V233.01h-1.6v-1.1h2.7Z" fill="#dddfe8" fill-rule="evenodd"/>
            <path id="Trazado_206135" data-name="Trazado 206135" d="M294.9,213.048h-6.767v-1.105h5.662v-5.678h-1.6v-1.1h2.7Z" fill="#dddfe8" fill-rule="evenodd"/>
          </g>
          <g id="Grupo_170277" data-name="Grupo 170277">
            <g id="Grupo_170274" data-name="Grupo 170274">
              <rect id="Rectángulo_48600" data-name="Rectángulo 48600" width="19.292" height="17.296" transform="translate(197.844 269.344)" fill="#cd8555"/>
              <rect id="Rectángulo_48601" data-name="Rectángulo 48601" width="19.799" height="2.881" transform="translate(197.591 269.343)" fill="#cd8555"/>
              <path id="Trazado_206136" data-name="Trazado 206136" d="M217.135,286.64h-7.244l-12.048-14.416h19.292Z" fill="#b75f22" fill-rule="evenodd"/>
              <path id="Trazado_206137" data-name="Trazado 206137" d="M215.478,269.344h-2.119v3.98l.458-.213.413.2.572-.338.676.354Z" fill="#802e00" fill-rule="evenodd"/>
              <path id="Trazado_206138" data-name="Trazado 206138" d="M201.621,269.344H199.5v3.98l.46-.213.411.2.574-.338.676.354Z" fill="#802e00" fill-rule="evenodd"/>
            </g>
            <g id="Grupo_170275" data-name="Grupo 170275">
              <rect id="Rectángulo_48602" data-name="Rectángulo 48602" width="19.29" height="17.296" transform="translate(177.729 269.344)" fill="#cd8555"/>
              <rect id="Rectángulo_48603" data-name="Rectángulo 48603" width="19.799" height="2.881" transform="translate(177.474 269.343)" fill="#cd8555"/>
              <path id="Trazado_206139" data-name="Trazado 206139" d="M197.019,286.64h-7.242l-12.048-14.416h19.29Z" fill="#b75f22" fill-rule="evenodd"/>
              <path id="Trazado_206140" data-name="Trazado 206140" d="M195.363,269.344h-2.119v3.98l.456-.213.415.2.572-.338.676.354Z" fill="#802e00" fill-rule="evenodd"/>
              <path id="Trazado_206141" data-name="Trazado 206141" d="M181.506,269.344h-2.119v3.98l.456-.213.413.2.574-.338.676.354Z" fill="#802e00" fill-rule="evenodd"/>
            </g>
            <g id="Grupo_170276" data-name="Grupo 170276">
              <rect id="Rectángulo_48604" data-name="Rectángulo 48604" width="19.292" height="17.296" transform="translate(157.677 269.344)" fill="#cd8555"/>
              <rect id="Rectángulo_48605" data-name="Rectángulo 48605" width="19.799" height="2.881" transform="translate(157.422 269.343)" fill="#cd8555"/>
              <path id="Trazado_206142" data-name="Trazado 206142" d="M176.968,286.64h-7.244l-12.048-14.416h19.292Z" fill="#b75f22" fill-rule="evenodd"/>
              <path id="Trazado_206143" data-name="Trazado 206143" d="M175.311,269.344h-2.121v3.98l.46-.213.412.2.572-.338.678.354Z" fill="#802e00" fill-rule="evenodd"/>
              <path id="Trazado_206144" data-name="Trazado 206144" d="M161.454,269.344h-2.121v3.98l.458-.213.413.2.572-.338.677.354Z" fill="#802e00" fill-rule="evenodd"/>
            </g>
          </g>
          <rect id="Rectángulo_48606" data-name="Rectángulo 48606" width="20.892" height="0.988" transform="translate(238.731 250.952)" fill="#802e00"/>
          <rect id="Rectángulo_48607" data-name="Rectángulo 48607" width="20.892" height="7.815" transform="translate(238.731 243.137)" fill="#b75f22"/>
          <g id="Grupo_170280" data-name="Grupo 170280">
            <g id="Grupo_170278" data-name="Grupo 170278">
              <rect id="Rectángulo_48608" data-name="Rectángulo 48608" width="19.292" height="17.296" transform="translate(187.786 215.844)" fill="#cd8555"/>
              <rect id="Rectángulo_48609" data-name="Rectángulo 48609" width="19.799" height="2.881" transform="translate(187.532 215.844)" fill="#cd8555"/>
              <path id="Trazado_206145" data-name="Trazado 206145" d="M207.078,233.14h-7.244l-12.048-14.415h19.292Z" fill="#b75f22" fill-rule="evenodd"/>
              <path id="Trazado_206146" data-name="Trazado 206146" d="M205.42,215.844H203.3v3.981l.458-.213.412.2.574-.338.676.354Z" fill="#802e00" fill-rule="evenodd"/>
              <path id="Trazado_206147" data-name="Trazado 206147" d="M191.564,215.844h-2.121v3.981l.46-.213.411.2.574-.338.676.354Z" fill="#802e00" fill-rule="evenodd"/>
            </g>
            <g id="Grupo_170279" data-name="Grupo 170279">
              <rect id="Rectángulo_48610" data-name="Rectángulo 48610" width="19.292" height="17.296" transform="translate(167.734 215.844)" fill="#cd8555"/>
              <rect id="Rectángulo_48611" data-name="Rectángulo 48611" width="19.798" height="2.881" transform="translate(167.481 215.844)" fill="#cd8555"/>
              <path id="Trazado_206148" data-name="Trazado 206148" d="M187.026,233.14h-7.244l-12.048-14.415h19.292Z" fill="#b75f22" fill-rule="evenodd"/>
              <path id="Trazado_206149" data-name="Trazado 206149" d="M185.37,215.844h-2.123v3.981l.46-.213.414.2.572-.338.677.354Z" fill="#802e00" fill-rule="evenodd"/>
              <path id="Trazado_206150" data-name="Trazado 206150" d="M171.511,215.844H169.39v3.981l.458-.213.415.2.572-.338.676.354Z" fill="#802e00" fill-rule="evenodd"/>
            </g>
          </g>
          <g id="Grupo_170284" data-name="Grupo 170284">
            <g id="Grupo_170281" data-name="Grupo 170281">
              <rect id="Rectángulo_48612" data-name="Rectángulo 48612" width="14.852" height="13.315" transform="translate(270.633 219.695)" fill="#cd8555"/>
              <rect id="Rectángulo_48613" data-name="Rectángulo 48613" width="15.241" height="2.217" transform="translate(270.44 219.694)" fill="#cd8555"/>
              <path id="Trazado_206151" data-name="Trazado 206151" d="M285.485,233.01H279.91l-9.276-11.1h14.852Z" fill="#b75f22" fill-rule="evenodd"/>
              <path id="Trazado_206152" data-name="Trazado 206152" d="M284.21,219.7h-1.632v3.064l.353-.164.318.152.441-.26.521.272Z" fill="#802e00" fill-rule="evenodd"/>
              <path id="Trazado_206153" data-name="Trazado 206153" d="M273.543,219.7h-1.634v3.064l.353-.164.319.152.439-.26.523.272Z" fill="#802e00" fill-rule="evenodd"/>
            </g>
            <g id="Grupo_170282" data-name="Grupo 170282">
              <rect id="Rectángulo_48614" data-name="Rectángulo 48614" width="14.852" height="13.315" transform="translate(255.196 219.695)" fill="#cd8555"/>
              <rect id="Rectángulo_48615" data-name="Rectángulo 48615" width="15.241" height="2.217" transform="translate(255.003 219.694)" fill="#cd8555"/>
              <path id="Trazado_206154" data-name="Trazado 206154" d="M270.048,233.01h-5.575l-9.277-11.1h14.852Z" fill="#b75f22" fill-rule="evenodd"/>
              <path id="Trazado_206155" data-name="Trazado 206155" d="M268.772,219.7h-1.632v3.064l.353-.164.318.152.441-.26.52.272Z" fill="#802e00" fill-rule="evenodd"/>
              <path id="Trazado_206156" data-name="Trazado 206156" d="M258.1,219.7h-1.632v3.064l.353-.164.318.152.441-.26.521.272Z" fill="#802e00" fill-rule="evenodd"/>
            </g>
            <g id="Grupo_170283" data-name="Grupo 170283">
              <rect id="Rectángulo_48616" data-name="Rectángulo 48616" width="19.292" height="17.295" transform="translate(235.207 215.715)" fill="#cd8555"/>
              <rect id="Rectángulo_48617" data-name="Rectángulo 48617" width="19.798" height="2.881" transform="translate(234.954 215.713)" fill="#cd8555"/>
              <path id="Trazado_206157" data-name="Trazado 206157" d="M254.5,233.01h-7.244l-12.048-14.415H254.5Z" fill="#b75f22" fill-rule="evenodd"/>
              <path id="Trazado_206158" data-name="Trazado 206158" d="M252.841,215.714h-2.119v3.98l.456-.213.415.2.572-.338.676.353Z" fill="#802e00" fill-rule="evenodd"/>
              <path id="Trazado_206159" data-name="Trazado 206159" d="M238.984,215.714h-2.119v3.98l.456-.213.414.2.574-.338.676.353Z" fill="#802e00" fill-rule="evenodd"/>
            </g>
          </g>
        </g>
      </g>
      <g id="Grupo_170298" data-name="Grupo 170298">
        <path id="Trazado_206160" data-name="Trazado 206160" d="M437.629,201.433l-15.312,8.526h-75.03l-15.312-8.526h-2.088V269.91h20.372v.946h-.347a1.161,1.161,0,0,0-1.158,1.159v3.692a1.161,1.161,0,0,0,1.158,1.158h1.066v10.043a.979.979,0,0,0,.978.977h3.4a.981.981,0,0,0,.979-.977V276.865h54.238v10.043a.981.981,0,0,0,.979.977h3.4a.98.98,0,0,0,.978-.977V276.865h3.766a1.161,1.161,0,0,0,1.158-1.158v-3.692a1.162,1.162,0,0,0-1.158-1.159h-.347v-.946h20.372V201.433Z" fill="gray" fill-rule="evenodd" opacity="0.5" style="mix-blend-mode: multiply;isolation: isolate"/>
        <g id="Grupo_170297" data-name="Grupo 170297">
          <g id="Grupo_170287" data-name="Grupo 170287">
            <path id="Trazado_206161" data-name="Trazado 206161" d="M414.226,274.229v10.679a.98.98,0,0,1-.978.977h-3.4a.981.981,0,0,1-.979-.977V274.229Z" fill="#16131b" fill-rule="evenodd"/>
            <path id="Trazado_206162" data-name="Trazado 206162" d="M411.549,285.885h-1.7a.981.981,0,0,1-.979-.977V274.229h2.678Z" fill="#16131b" fill-rule="evenodd"/>
          </g>
          <rect id="Rectángulo_48618" data-name="Rectángulo 48618" width="75.03" height="59.952" transform="translate(345.587 207.958)" fill="#eef0f9"/>
          <rect id="Rectángulo_48619" data-name="Rectángulo 48619" width="69.085" height="54.005" transform="translate(348.559 210.932)" fill="#16131b"/>
          <path id="Trazado_206163" data-name="Trazado 206163" d="M345.587,267.909H330.275V199.433l15.312,8.526Z" fill="#75cf3f" fill-rule="evenodd"/>
          <path id="Trazado_206164" data-name="Trazado 206164" d="M345.587,267.909H330.275V199.433l15.312,8.526Z" fill="gray" fill-rule="evenodd" opacity="0.35" style="mix-blend-mode: multiply;isolation: isolate"/>
          <rect id="Rectángulo_48620" data-name="Rectángulo 48620" width="2.088" height="68.477" transform="translate(328.187 199.433)" fill="#75cf3f"/>
          <path id="Trazado_206165" data-name="Trazado 206165" d="M420.617,267.909h15.312V199.433l-15.312,8.526Z" fill="#75cf3f" fill-rule="evenodd"/>
          <path id="Trazado_206166" data-name="Trazado 206166" d="M420.617,267.909h15.312V199.433l-15.312,8.526Z" fill="gray" fill-rule="evenodd" opacity="0.35" style="mix-blend-mode: multiply;isolation: isolate"/>
          <rect id="Rectángulo_48621" data-name="Rectángulo 48621" width="2.088" height="68.477" transform="translate(435.929 199.433)" fill="#75cf3f"/>
          <rect id="Rectángulo_48622" data-name="Rectángulo 48622" width="69.085" height="1.324" transform="translate(348.559 267.91)" fill="#16131b"/>
          <g id="Grupo_170288" data-name="Grupo 170288">
            <path id="Trazado_206167" data-name="Trazado 206167" d="M354.633,274.229v10.679a.981.981,0,0,1-.979.977h-3.4a.979.979,0,0,1-.978-.977V274.229Z" fill="#16131b" fill-rule="evenodd"/>
            <path id="Trazado_206168" data-name="Trazado 206168" d="M351.955,285.885h-1.7a.979.979,0,0,1-.978-.977V274.229h2.677Z" fill="#16131b" fill-rule="evenodd"/>
          </g>
          <g id="Grupo_170289" data-name="Grupo 170289">
            <path id="Rectángulo_48623" data-name="Rectángulo 48623" d="M1.158,0H70.938A1.159,1.159,0,0,1,72.1,1.159V4.85a1.159,1.159,0,0,1-1.159,1.159H1.159A1.159,1.159,0,0,1,0,4.85V1.158A1.158,1.158,0,0,1,1.158,0Z" transform="translate(347.054 268.856)" fill="#7b8495"/>
            <path id="Trazado_206169" data-name="Trazado 206169" d="M348.212,274.865h69.78a1.161,1.161,0,0,0,1.158-1.158v-1.846h-72.1v1.846A1.161,1.161,0,0,0,348.212,274.865Z" fill="#16131b" fill-rule="evenodd"/>
          </g>
          <path id="Trazado_206170" data-name="Trazado 206170" d="M348.559,210.932,370.246,222.9v42.035H348.559Z" fill="#312e36" fill-rule="evenodd"/>
          <path id="Trazado_206171" data-name="Trazado 206171" d="M417.645,210.932,395.958,222.9v42.035h21.687Z" fill="#312e36" fill-rule="evenodd"/>
          <g id="Grupo_170296" data-name="Grupo 170296">
            <g id="Grupo_170292" data-name="Grupo 170292">
              <g id="Grupo_170290" data-name="Grupo 170290">
                <rect id="Rectángulo_48624" data-name="Rectángulo 48624" width="15.912" height="14.265" transform="translate(379.925 228.388)" fill="#cd8555"/>
                <rect id="Rectángulo_48625" data-name="Rectángulo 48625" width="16.328" height="2.375" transform="translate(379.717 228.388)" fill="#cd8555"/>
                <path id="Trazado_206172" data-name="Trazado 206172" d="M395.835,242.652h-5.973l-9.936-11.89h15.909Z" fill="#b75f22" fill-rule="evenodd"/>
                <path id="Trazado_206173" data-name="Trazado 206173" d="M394.469,228.388h-1.75v3.282l.379-.176.34.163.473-.278.558.291Z" fill="#802e00" fill-rule="evenodd"/>
                <path id="Trazado_206174" data-name="Trazado 206174" d="M383.041,228.388h-1.749v3.282l.378-.176.34.163.473-.278.558.291Z" fill="#802e00" fill-rule="evenodd"/>
              </g>
              <g id="Grupo_170291" data-name="Grupo 170291">
                <rect id="Rectángulo_48626" data-name="Rectángulo 48626" width="15.91" height="14.265" transform="translate(363.389 228.388)" fill="#cd8555"/>
                <rect id="Rectángulo_48627" data-name="Rectángulo 48627" width="16.328" height="2.375" transform="translate(363.18 228.388)" fill="#cd8555"/>
                <path id="Trazado_206175" data-name="Trazado 206175" d="M379.3,242.652h-5.974l-9.936-11.89H379.3Z" fill="#b75f22" fill-rule="evenodd"/>
                <path id="Trazado_206176" data-name="Trazado 206176" d="M377.932,228.388h-1.749v3.282l.378-.176.34.163.473-.278.558.291Z" fill="#802e00" fill-rule="evenodd"/>
                <path id="Trazado_206177" data-name="Trazado 206177" d="M366.5,228.388h-1.749v3.282l.378-.176.342.163.471-.278.558.291Z" fill="#802e00" fill-rule="evenodd"/>
              </g>
            </g>
            <g id="Grupo_170293" data-name="Grupo 170293">
              <rect id="Rectángulo_48628" data-name="Rectángulo 48628" width="22.517" height="21.734" transform="translate(351.999 243.202)" fill="#cd8555"/>
              <rect id="Rectángulo_48629" data-name="Rectángulo 48629" width="2.827" height="17.872" transform="translate(353.918 245.044)" fill="#802e00"/>
              <rect id="Rectángulo_48630" data-name="Rectángulo 48630" width="2.826" height="17.872" transform="translate(356.746 245.044)" fill="#802e00"/>
              <rect id="Rectángulo_48631" data-name="Rectángulo 48631" width="2.827" height="17.872" transform="translate(359.571 245.044)" fill="#802e00"/>
              <rect id="Rectángulo_48632" data-name="Rectángulo 48632" width="2.827" height="17.872" transform="translate(362.398 245.044)" fill="#802e00"/>
              <rect id="Rectángulo_48633" data-name="Rectángulo 48633" width="2.827" height="17.872" transform="translate(365.225 245.044)" fill="#802e00"/>
              <rect id="Rectángulo_48634" data-name="Rectángulo 48634" width="2.827" height="17.872" transform="translate(368.052 245.044)" fill="#802e00"/>
              <rect id="Rectángulo_48635" data-name="Rectángulo 48635" width="1.634" height="17.872" transform="translate(370.879 245.044)" fill="#802e00"/>
              <rect id="Rectángulo_48636" data-name="Rectángulo 48636" width="1.125" height="16.12" transform="translate(354.427 246.447)" fill="#b75f22"/>
              <rect id="Rectángulo_48637" data-name="Rectángulo 48637" width="1.125" height="16.12" transform="translate(357.254 246.447)" fill="#b75f22"/>
              <rect id="Rectángulo_48638" data-name="Rectángulo 48638" width="1.125" height="16.12" transform="translate(360.081 246.447)" fill="#b75f22"/>
              <rect id="Rectángulo_48639" data-name="Rectángulo 48639" width="1.124" height="16.12" transform="translate(362.908 246.447)" fill="#b75f22"/>
              <rect id="Rectángulo_48640" data-name="Rectángulo 48640" width="1.127" height="16.12" transform="translate(365.734 246.447)" fill="#b75f22"/>
              <rect id="Rectángulo_48641" data-name="Rectángulo 48641" width="1.124" height="16.12" transform="translate(368.562 246.447)" fill="#b75f22"/>
              <rect id="Rectángulo_48642" data-name="Rectángulo 48642" width="1.125" height="16.12" transform="translate(371.388 246.447)" fill="#b75f22"/>
              <rect id="Rectángulo_48643" data-name="Rectángulo 48643" width="1.193" height="17.872" transform="translate(355.552 245.044)" fill="#cd8555"/>
              <rect id="Rectángulo_48644" data-name="Rectángulo 48644" width="1.192" height="17.872" transform="translate(358.379 245.044)" fill="#cd8555"/>
              <rect id="Rectángulo_48645" data-name="Rectángulo 48645" width="1.193" height="17.872" transform="translate(361.205 245.044)" fill="#cd8555"/>
              <rect id="Rectángulo_48646" data-name="Rectángulo 48646" width="1.193" height="17.872" transform="translate(364.032 245.044)" fill="#cd8555"/>
              <rect id="Rectángulo_48647" data-name="Rectángulo 48647" width="1.192" height="17.872" transform="translate(366.86 245.044)" fill="#cd8555"/>
              <rect id="Rectángulo_48648" data-name="Rectángulo 48648" width="1.193" height="17.872" transform="translate(369.686 245.044)" fill="#cd8555"/>
            </g>
            <g id="Grupo_170294" data-name="Grupo 170294">
              <rect id="Rectángulo_48649" data-name="Rectángulo 48649" width="22.517" height="21.734" transform="translate(375.068 243.202)" fill="#cd8555"/>
              <rect id="Rectángulo_48650" data-name="Rectángulo 48650" width="2.827" height="17.872" transform="translate(376.987 245.044)" fill="#802e00"/>
              <rect id="Rectángulo_48651" data-name="Rectángulo 48651" width="2.827" height="17.872" transform="translate(379.813 245.044)" fill="#802e00"/>
              <rect id="Rectángulo_48652" data-name="Rectángulo 48652" width="2.827" height="17.872" transform="translate(382.64 245.044)" fill="#802e00"/>
              <rect id="Rectángulo_48653" data-name="Rectángulo 48653" width="2.827" height="17.872" transform="translate(385.467 245.044)" fill="#802e00"/>
              <rect id="Rectángulo_48654" data-name="Rectángulo 48654" width="2.827" height="17.872" transform="translate(388.294 245.044)" fill="#802e00"/>
              <rect id="Rectángulo_48655" data-name="Rectángulo 48655" width="2.827" height="17.872" transform="translate(391.121 245.044)" fill="#802e00"/>
              <rect id="Rectángulo_48656" data-name="Rectángulo 48656" width="1.634" height="17.872" transform="translate(393.948 245.044)" fill="#802e00"/>
              <rect id="Rectángulo_48657" data-name="Rectángulo 48657" width="1.125" height="16.12" transform="translate(377.495 246.447)" fill="#b75f22"/>
              <rect id="Rectángulo_48658" data-name="Rectángulo 48658" width="1.125" height="16.12" transform="translate(380.323 246.447)" fill="#b75f22"/>
              <rect id="Rectángulo_48659" data-name="Rectángulo 48659" width="1.125" height="16.12" transform="translate(383.149 246.447)" fill="#b75f22"/>
              <rect id="Rectángulo_48660" data-name="Rectángulo 48660" width="1.124" height="16.12" transform="translate(385.977 246.447)" fill="#b75f22"/>
              <rect id="Rectángulo_48661" data-name="Rectángulo 48661" width="1.125" height="16.12" transform="translate(388.802 246.447)" fill="#b75f22"/>
              <rect id="Rectángulo_48662" data-name="Rectángulo 48662" width="1.125" height="16.12" transform="translate(391.629 246.447)" fill="#b75f22"/>
              <rect id="Rectángulo_48663" data-name="Rectángulo 48663" width="1.125" height="16.12" transform="translate(394.456 246.447)" fill="#b75f22"/>
              <rect id="Rectángulo_48664" data-name="Rectángulo 48664" width="1.193" height="17.872" transform="translate(378.621 245.044)" fill="#cd8555"/>
              <rect id="Rectángulo_48665" data-name="Rectángulo 48665" width="1.192" height="17.872" transform="translate(381.448 245.044)" fill="#cd8555"/>
              <rect id="Rectángulo_48666" data-name="Rectángulo 48666" width="1.192" height="17.872" transform="translate(384.275 245.044)" fill="#cd8555"/>
              <rect id="Rectángulo_48667" data-name="Rectángulo 48667" width="1.193" height="17.872" transform="translate(387.1 245.044)" fill="#cd8555"/>
              <rect id="Rectángulo_48668" data-name="Rectángulo 48668" width="1.193" height="17.872" transform="translate(389.927 245.044)" fill="#cd8555"/>
              <rect id="Rectángulo_48669" data-name="Rectángulo 48669" width="1.193" height="17.872" transform="translate(392.754 245.044)" fill="#cd8555"/>
            </g>
            <rect id="Rectángulo_48670" data-name="Rectángulo 48670" width="32.42" height="0.55" transform="translate(363.389 242.652)" fill="#802e00"/>
            <rect id="Rectángulo_48671" data-name="Rectángulo 48671" width="0.551" height="21.734" transform="translate(374.516 243.202)" fill="#802e00"/>
            <g id="Grupo_170295" data-name="Grupo 170295">
              <rect id="Rectángulo_48672" data-name="Rectángulo 48672" width="15.91" height="14.264" transform="translate(398.085 250.672)" fill="#cd8555"/>
              <rect id="Rectángulo_48673" data-name="Rectángulo 48673" width="16.328" height="2.376" transform="translate(397.877 250.672)" fill="#cd8555"/>
              <path id="Trazado_206178" data-name="Trazado 206178" d="M414,264.936h-5.973l-9.937-11.889H414Z" fill="#b75f22" fill-rule="evenodd"/>
              <path id="Trazado_206179" data-name="Trazado 206179" d="M412.63,250.672h-1.75v3.283l.378-.176.342.164.471-.279.559.291Z" fill="#802e00" fill-rule="evenodd"/>
              <path id="Trazado_206180" data-name="Trazado 206180" d="M401.2,250.672h-1.75v3.283l.378-.176.34.164.474-.279.558.291Z" fill="#802e00" fill-rule="evenodd"/>
            </g>
          </g>
        </g>
      </g>
      <g id="Grupo_170316" data-name="Grupo 170316">
        <g id="Grupo_170308" data-name="Grupo 170308">
          <path id="Trazado_206181" data-name="Trazado 206181" d="M117.333,265.982v-2.027h-11.66V257.1l.971,1.1h0l.931,1.051a3.236,3.236,0,0,0,4.556.279,3.2,3.2,0,0,0,.769-1.021,3.238,3.238,0,0,0-.492-3.535h0l-.93-1.051h0l-.095-.107-5.71-6.454v-37.7H34.637v54.3H22.977v2.027h.4v2.026h-.4v6.981h94.356v-6.981h-.4v-2.026Zm-82.467,6.981v-4.955h-.4v-2.026H64.614v2.026h-.4v4.955Zm70.982-4.955h-.4v4.955H76.1v-4.955h-.4v-2.026h30.152Z" fill="gray" fill-rule="evenodd" opacity="0.5" style="mix-blend-mode: multiply;isolation: isolate"/>
          <g id="Grupo_170307" data-name="Grupo 170307">
            <g id="Grupo_170301" data-name="Grupo 170301">
              <rect id="Rectángulo_48674" data-name="Rectángulo 48674" width="55.631" height="54.36" transform="translate(32.937 207.659)" fill="#b75f22"/>
              <rect id="Rectángulo_48675" data-name="Rectángulo 48675" width="55.141" height="54.36" transform="translate(48.832 207.659)" fill="#cd8555"/>
              <rect id="Rectángulo_48676" data-name="Rectángulo 48676" width="14.795" height="13.987" transform="translate(69.005 207.659)" fill="#f9dbba"/>
              <rect id="Rectángulo_48677" data-name="Rectángulo 48677" width="14.795" height="13.987" transform="translate(69.005 248.031)" fill="#f9dbba"/>
              <g id="Grupo_170300" data-name="Grupo 170300">
                <rect id="Rectángulo_48678" data-name="Rectángulo 48678" width="14.305" height="8.643" transform="translate(51.474 250.872)" fill="#dddfe8"/>
                <g id="Grupo_170299" data-name="Grupo 170299">
                  <rect id="Rectángulo_48679" data-name="Rectángulo 48679" width="1.518" height="6.219" transform="translate(52.128 252.084)" fill="#16131b"/>
                  <rect id="Rectángulo_48680" data-name="Rectángulo 48680" width="0.533" height="6.219" transform="translate(54.568 252.084)" fill="#16131b"/>
                  <rect id="Rectángulo_48681" data-name="Rectángulo 48681" width="1.245" height="6.219" transform="translate(57.281 252.084)" fill="#16131b"/>
                  <rect id="Rectángulo_48682" data-name="Rectángulo 48682" width="0.759" height="6.219" transform="translate(55.712 252.084)" fill="#16131b"/>
                  <rect id="Rectángulo_48683" data-name="Rectángulo 48683" width="0.514" height="6.219" transform="translate(59.457 252.084)" fill="#16131b"/>
                  <rect id="Rectángulo_48684" data-name="Rectángulo 48684" width="1.029" height="6.219" transform="translate(61.888 252.084)" fill="#16131b"/>
                  <rect id="Rectángulo_48685" data-name="Rectángulo 48685" width="0.511" height="6.219" transform="translate(63.27 252.084)" fill="#16131b"/>
                  <rect id="Rectángulo_48686" data-name="Rectángulo 48686" width="0.705" height="6.219" transform="translate(60.722 252.084)" fill="#16131b"/>
                  <rect id="Rectángulo_48687" data-name="Rectángulo 48687" width="0.759" height="6.219" transform="translate(64.328 252.084)" fill="#16131b"/>
                </g>
              </g>
            </g>
            <g id="Grupo_170305" data-name="Grupo 170305">
              <rect id="Rectángulo_48688" data-name="Rectángulo 48688" width="94.355" height="2.027" transform="translate(21.277 261.955)" fill="#16131b"/>
              <g id="Grupo_170302" data-name="Grupo 170302">
                <rect id="Rectángulo_48689" data-name="Rectángulo 48689" width="11.082" height="2.026" transform="translate(21.68 263.983)" fill="#16131b"/>
                <rect id="Rectángulo_48690" data-name="Rectángulo 48690" width="11.888" height="4.955" transform="translate(21.277 266.008)" fill="#324981"/>
              </g>
              <rect id="Rectángulo_48691" data-name="Rectángulo 48691" width="94.355" height="2.026" transform="translate(21.277 270.963)" fill="#16131b"/>
              <g id="Grupo_170303" data-name="Grupo 170303">
                <rect id="Rectángulo_48692" data-name="Rectángulo 48692" width="11.082" height="2.026" transform="translate(104.148 263.983)" fill="#16131b"/>
                <rect id="Rectángulo_48693" data-name="Rectángulo 48693" width="11.887" height="4.955" transform="translate(103.745 266.008)" fill="#324981"/>
              </g>
              <g id="Grupo_170304" data-name="Grupo 170304">
                <rect id="Rectángulo_48694" data-name="Rectángulo 48694" width="11.082" height="2.026" transform="translate(62.914 263.983)" fill="#16131b"/>
                <rect id="Rectángulo_48695" data-name="Rectángulo 48695" width="11.887" height="4.955" transform="translate(62.511 266.008)" fill="#324981"/>
              </g>
            </g>
            <g id="Grupo_170306" data-name="Grupo 170306">
              <path id="Trazado_206182" data-name="Trazado 206182" d="M79.412,222.473a8.855,8.855,0,1,0,12.5.762A8.855,8.855,0,0,0,79.412,222.473Z" fill="#ebb998" fill-rule="evenodd"/>
              <path id="Trazado_206183" data-name="Trazado 206183" d="M96.454,226.829A11.4,11.4,0,1,1,83,217.931a11.4,11.4,0,0,1,13.449,8.9Zm-2.874.585a8.47,8.47,0,1,0-6.61,9.99A8.479,8.479,0,0,0,93.58,227.414Z" fill="#16131b" fill-rule="evenodd"/>
              <rect id="Rectángulo_48696" data-name="Rectángulo 48696" width="2.792" height="5.91" transform="matrix(0.749, -0.663, 0.663, 0.749, 90.384, 236.977)" fill="#16131b"/>
              <path id="Trazado_206184" data-name="Trazado 206184" d="M94.186,239.168h0a3.236,3.236,0,0,0-.279,4.554l11.969,13.523a3.236,3.236,0,0,0,4.556.279h0a3.237,3.237,0,0,0,.276-4.556L98.742,239.445A3.237,3.237,0,0,0,94.186,239.168Z" fill="#75cf3f" fill-rule="evenodd"/>
              <path id="Trazado_206185" data-name="Trazado 206185" d="M94.186,239.168h0a3.236,3.236,0,0,0-.279,4.554l4.835-4.277a3.239,3.239,0,0,0-4.556-.277Zm.652,5.607,4.834-4.277,10.106,11.419-4.834,4.277L94.838,244.775Zm11.038,12.47a3.236,3.236,0,0,0,4.556.279h0a3.238,3.238,0,0,0,.277-4.556Z" fill="#16131b" fill-rule="evenodd"/>
              <path id="Trazado_206186" data-name="Trazado 206186" d="M89.086,226.108a.969.969,0,1,0,1.557-1.155,7.463,7.463,0,0,0-.675-.79,6.969,6.969,0,0,0-4.275-2.07,6.441,6.441,0,0,0-4.492,1.215,6.578,6.578,0,0,0-.692.594.968.968,0,0,0,1.356,1.382,4.454,4.454,0,0,1,.493-.417,4.5,4.5,0,0,1,3.143-.853,5.04,5.04,0,0,1,3.084,1.5A5.815,5.815,0,0,1,89.086,226.108Z" fill="#fff" fill-rule="evenodd"/>
            </g>
          </g>
        </g>
        <g id="Grupo_170315" data-name="Grupo 170315">
          <path id="Trazado_206187" data-name="Trazado 206187" d="M57.853,189.319H50.886v-1.582c0-.963-1.405-1.743-3.139-1.743H45.368a4.058,4.058,0,0,0-3.942-2.329,4.057,4.057,0,0,0-3.941,2.329H35.1c-1.733,0-3.138.78-3.138,1.743v1.582H25a1.562,1.562,0,0,0-1.562,1.562V234.33A1.562,1.562,0,0,0,25,235.892H57.853a1.562,1.562,0,0,0,1.562-1.562V190.881A1.562,1.562,0,0,0,57.853,189.319Zm-16.427-4.164A1.424,1.424,0,1,1,40,186.58,1.425,1.425,0,0,1,41.426,185.155Z" fill="gray" opacity="0.5" style="mix-blend-mode: multiply;isolation: isolate"/>
          <g id="Grupo_170314" data-name="Grupo 170314">
            <path id="Trazado_206188" data-name="Trazado 206188" d="M46.047,183.994H43.668a4.058,4.058,0,0,0-3.942-2.329,4.057,4.057,0,0,0-3.941,2.329H33.4c-1.733,0-3.138.78-3.138,1.743v1.582h6.942a5.043,5.043,0,0,0,5.034,0h6.943v-1.582C49.186,184.774,47.781,183.994,46.047,183.994ZM39.726,186a1.424,1.424,0,1,1,1.425-1.424A1.425,1.425,0,0,1,39.726,186Z" fill="#ff2226"/>
            <rect id="Rectángulo_48697" data-name="Rectángulo 48697" width="35.977" height="46.573" rx="1.562" transform="translate(21.738 187.319)" fill="#16131b"/>
            <rect id="Rectángulo_48698" data-name="Rectángulo 48698" width="31.807" height="40.721" transform="translate(23.822 190.511)" fill="#fbfafb"/>
            <rect id="Rectángulo_48699" data-name="Rectángulo 48699" width="20.166" height="3.25" transform="translate(26.235 194.873)" fill="#8d9bbc"/>
            <rect id="Rectángulo_48700" data-name="Rectángulo 48700" width="20.166" height="3.25" transform="translate(26.235 201.877)" fill="#8d9bbc"/>
            <rect id="Rectángulo_48701" data-name="Rectángulo 48701" width="20.166" height="3.25" transform="translate(26.235 208.881)" fill="#8d9bbc"/>
            <rect id="Rectángulo_48702" data-name="Rectángulo 48702" width="20.166" height="3.25" transform="translate(26.235 215.884)" fill="#8d9bbc"/>
            <rect id="Rectángulo_48703" data-name="Rectángulo 48703" width="20.166" height="3.25" transform="translate(26.235 222.888)" fill="#8d9bbc"/>
            <g id="Grupo_170309" data-name="Grupo 170309">
              <path id="Trazado_206189" data-name="Trazado 206189" d="M52.048,199.441H48.135v-3.912h3.913Zm-3.243-.671h2.572V196.2H48.805Z" fill="#8d9bbc"/>
            </g>
            <g id="Grupo_170310" data-name="Grupo 170310">
              <path id="Trazado_206190" data-name="Trazado 206190" d="M52.048,206.084H48.135v-3.912h3.913Zm-3.243-.67h2.572v-2.571H48.805Z" fill="#8d9bbc"/>
            </g>
            <g id="Grupo_170311" data-name="Grupo 170311">
              <path id="Trazado_206191" data-name="Trazado 206191" d="M52.048,212.727H48.135v-3.912h3.913Zm-3.243-.67h2.572v-2.571H48.805Z" fill="#8d9bbc"/>
            </g>
            <g id="Grupo_170312" data-name="Grupo 170312">
              <path id="Trazado_206192" data-name="Trazado 206192" d="M52.048,219.5H48.135v-3.912h3.913Zm-3.243-.67h2.572v-2.571H48.805Z" fill="#8d9bbc"/>
            </g>
            <g id="Grupo_170313" data-name="Grupo 170313">
              <path id="Trazado_206193" data-name="Trazado 206193" d="M52.048,226.207H48.135v-3.913h3.913Zm-3.243-.671h2.572v-2.571H48.805Z" fill="#8d9bbc"/>
            </g>
            <path id="Trazado_206194" data-name="Trazado 206194" d="M47.964,196l2.285,1.928,4.758-4.465-1.279-1.174-3.521,3.752-1.383-1.09Z" fill="#75cf3f"/>
            <path id="Trazado_206195" data-name="Trazado 206195" d="M47.964,203.063l2.285,1.928,4.758-4.465-1.279-1.174L50.207,203.1l-1.383-1.09Z" fill="#75cf3f"/>
            <path id="Trazado_206196" data-name="Trazado 206196" d="M47.964,210.122l2.285,1.928,4.758-4.465-1.279-1.174-3.521,3.752-1.383-1.09Z" fill="#75cf3f"/>
            <path id="Trazado_206197" data-name="Trazado 206197" d="M23.822,190.511v40.721H55.63Z" fill="#d1cdd1" opacity="0.55" style="mix-blend-mode: multiply;isolation: isolate"/>
          </g>
        </g>
      </g>
      <g id="Grupo_170321" data-name="Grupo 170321">
        <g id="Grupo_170318" data-name="Grupo 170318">
          <path id="Trazado_206198" data-name="Trazado 206198" d="M300.436,250.446a1.667,1.667,0,0,1-.006-3.334l12.833-.049h.006a1.667,1.667,0,0,1,.007,3.334l-12.833.049Z" fill="#fff"/>
          <g id="Grupo_170317" data-name="Grupo 170317">
            <path id="Trazado_206199" data-name="Trazado 206199" d="M308.671,255.527l25.271-6.875-25.323-6.684Z" fill="#fff"/>
          </g>
        </g>
        <g id="Grupo_170320" data-name="Grupo 170320">
          <path id="Trazado_206200" data-name="Trazado 206200" d="M149.538,250.744h-.068l-12.823-.515a1.667,1.667,0,1,1,.134-3.331l12.823.515a1.667,1.667,0,0,1-.066,3.332Z" fill="#fff"/>
          <g id="Grupo_170319" data-name="Grupo 170319">
            <path id="Trazado_206201" data-name="Trazado 206201" d="M141.606,241.974l-25.549,5.759,25,7.789Z" fill="#fff"/>
          </g>
        </g>
      </g>
      <g id="Grupo_170337" data-name="Grupo 170337">
        <g id="Grupo_170336" data-name="Grupo 170336">
          <g id="Grupo_170323" data-name="Grupo 170323">
            <path id="Trazado_206202" data-name="Trazado 206202" d="M278.967,421.029,266.183,362.6s-.9-9.439-14.437-9.417c0,0-9.993-28.029-12.652-35.277-3.136-8.548-8.7-9.542-12.13-8.03-7.305,3.23-6.4,5.78,8.818,47.471,0,0-27.482,59.068-12.9,71.3s19.855,21.216,19.855,21.216Z" fill="#ffcfa8"/>
            <g id="Grupo_170322" data-name="Grupo 170322" clip-path="url(#clip-path)">
              <path id="Trazado_206203" data-name="Trazado 206203" d="M236.114,405.515s6.322,15.314,16.1,13.839l-24.152,13.859s-8.673-.15-9.757-8.674S228.009,404.961,236.114,405.515Z" fill="#f2c096"/>
            </g>
          </g>
          <g id="Grupo_170324" data-name="Grupo 170324">
            <path id="Trazado_206205" data-name="Trazado 206205" d="M255.667,274.065a47.657,47.657,0,1,1,3.464-67.306A47.654,47.654,0,0,1,255.667,274.065Z" fill="#fff" opacity="0.1"/>
            <path id="Trazado_206206" data-name="Trazado 206206" d="M231.683,299.707c26.755-4.23,49.379-27.553,49.026-55.441a55.431,55.431,0,1,0-110.853,1.457c.353,27.186,22.569,49.464,48.478,53.828l.027,1.788,13.341-.311Zm-5.835-10.222a44.5,44.5,0,1,1,43.925-45.07A44.489,44.489,0,0,1,225.848,289.485Z" fill="#5b2200"/>
            <path id="Trazado_206207" data-name="Trazado 206207" d="M221.171,319.893l-.4-19.329,8.926-.235.407,19.479c3.914,3.007,4.411,14.4,4.5,21.179l1.045,74.772c.141,9.93-1.486,17.975-8.406,18.041s-8.775-7.963-8.9-17.883l-1.052-74.769C217.194,334.376,217.341,322.99,221.171,319.893Z" fill="#5b2200"/>
            <path id="Trazado_206208" data-name="Trazado 206208" d="M224.864,210.84a41.135,41.135,0,0,1,41.352,36,39.724,39.724,0,0,0,.218-4.6,41.158,41.158,0,0,0-82.308,1.077,41.581,41.581,0,0,0,.336,4.6A41.143,41.143,0,0,1,224.864,210.84Z" fill="#fff" style="mix-blend-mode: soft-light;isolation: isolate"/>
            <path id="Trazado_206209" data-name="Trazado 206209" d="M267.738,248.836a42.459,42.459,0,1,1-42.462-42.451A42.457,42.457,0,0,1,267.738,248.836Z" fill="#fff" opacity="0.1"/>
          </g>
          <path id="Trazado_206210" data-name="Trazado 206210" d="M236.413,363.441c-16.4-44.106-16.493-50.453-9.449-53.567,3.431-1.512,8.994-.518,12.13,8.03,1.925,5.25,7.7,21.394,10.733,29.9C244.391,348.683,241.472,361.134,236.413,363.441Z" fill="#ffcfa8"/>
          <path id="Trazado_206211" data-name="Trazado 206211" d="M228.079,310.057c1.754-.476,6.351.1,7.48,3.48.956,2.858-.589,3.433-.589,3.433l-4.01,1.391-4.008,1.392s-1.571.506-2.592-2.33A5.461,5.461,0,0,1,228.079,310.057Z" fill="#ffdfc4"/>
          <g id="Grupo_170325" data-name="Grupo 170325">
            <path id="Trazado_206212" data-name="Trazado 206212" d="M230.608,336.631a.5.5,0,0,0,.644.295L241.923,333a.5.5,0,0,0,.3-.645h0a.5.5,0,0,0-.643-.3L230.9,335.985a.5.5,0,0,0-.3.646Z" fill="#f2c096"/>
            <path id="Trazado_206213" data-name="Trazado 206213" d="M232.462,337.548a.454.454,0,0,0,.534.339l8.219-3.025a.458.458,0,0,0,.192-.605h0a.46.46,0,0,0-.539-.337l-8.218,3.024a.454.454,0,0,0-.188.6Z" fill="#f2c096"/>
            <path id="Trazado_206214" data-name="Trazado 206214" d="M231.43,334.75a.456.456,0,0,0,.537.337l8.218-3.026a.455.455,0,0,0,.189-.6h0a.455.455,0,0,0-.536-.338l-8.219,3.026a.455.455,0,0,0-.189.605Z" fill="#f2c096"/>
          </g>
          <path id="Trazado_206215" data-name="Trazado 206215" d="M235.059,358.943s-6.112,46.066,6.115,54.686,9.072-5.459,9.072-5.459Z" fill="#ffcfa8"/>
          <g id="Grupo_170335" data-name="Grupo 170335">
            <g id="Grupo_170326" data-name="Grupo 170326">
              <path id="Trazado_206216" data-name="Trazado 206216" d="M206.316,404.666l1.127,13.173S220.673,427.9,223.061,429s4.39-9.049-2.605-14.966A75.6,75.6,0,0,0,206.316,404.666Z" fill="#fac9a1"/>
            </g>
            <g id="Grupo_170328" data-name="Grupo 170328">
              <g id="Grupo_170327" data-name="Grupo 170327" clip-path="url(#clip-path-2)">
                <path id="Trazado_206217" data-name="Trazado 206217" d="M206.316,404.668v6.076s16.646,6.105,19.5,16.575c1.631,5.99,5.083-18.613-6.757-22.651S206.316,404.668,206.316,404.668Z" fill="#f2c096"/>
              </g>
            </g>
            <path id="Trazado_206219" data-name="Trazado 206219" d="M206.946,388.888l-1.969,9.09s-4.227,3.745,5.5,11.023c9.9,7.407,13.123,8.838,12.473-1.356C222.344,398.089,213.42,394.388,206.946,388.888Z" fill="#fac9a1"/>
            <g id="Grupo_170330" data-name="Grupo 170330">
              <g id="Grupo_170329" data-name="Grupo 170329" clip-path="url(#clip-path-3)">
                <path id="Trazado_206220" data-name="Trazado 206220" d="M205.817,394.1s19.347,10.839,19.347,19.741,4.16-13.386,4.16-13.386l-23.507-18.106Z" fill="#f2c096"/>
              </g>
            </g>
            <path id="Trazado_206222" data-name="Trazado 206222" d="M208.78,369.614l-3.313,11.423s-2.373,3.382,3.715,10.127c6.015,6.66,13.2,15.144,13.737,2.934s-3.8-16.444-8.971-19.413S208.78,369.614,208.78,369.614Z" fill="#fac9a1"/>
            <g id="Grupo_170332" data-name="Grupo 170332">
              <g id="Grupo_170331" data-name="Grupo 170331" clip-path="url(#clip-path-4)">
                <path id="Trazado_206223" data-name="Trazado 206223" d="M222.8,395.639s-3.34-12.954-15.958-18.473c0,0,.179-7.548,3.524-8.907S234.637,375.914,222.8,395.639Z" fill="#f2c096"/>
              </g>
            </g>
            <path id="Trazado_206225" data-name="Trazado 206225" d="M217.45,351.892l-8.67,11.155s-3.813,2.061,1.435,9.952,11.669,12.473,12.7,1.686-3.862-10.059-3.862-10.059Z" fill="#fac9a1"/>
            <path id="Trazado_206226" data-name="Trazado 206226" d="M219.057,364.626l-8.92-3.318,7.314-9.416Z" fill="#f2c096"/>
            <g id="Grupo_170334" data-name="Grupo 170334">
              <g id="Grupo_170333" data-name="Grupo 170333" clip-path="url(#clip-path-5)">
                <path id="Trazado_206227" data-name="Trazado 206227" d="M222.85,375.3s-5.71-12.465-12.484-13.995,5.118-18.142,8.854-13.019S228.493,373.088,222.85,375.3Z" fill="#f2c096"/>
              </g>
            </g>
            <path id="Trazado_206229" data-name="Trazado 206229" d="M217.444,373.282c4.226,4.987,1.149,7.686.384,8.215a39.682,39.682,0,0,1-4.619-4.408C215.743,373.674,217.444,373.282,217.444,373.282Z" fill="#ffdfc4"/>
            <path id="Trazado_206230" data-name="Trazado 206230" d="M219.969,422.066c4.143,2.818,2.425,5.446,1.969,5.993a30.086,30.086,0,0,1-4.317-2.309C218.792,422.7,219.969,422.066,219.969,422.066Z" fill="#ffdfc4"/>
            <path id="Trazado_206231" data-name="Trazado 206231" d="M217.307,407.991c4.913,3.344,2.875,6.455,2.334,7.105a35.908,35.908,0,0,1-5.117-2.737C215.914,408.75,217.307,407.991,217.307,407.991Z" fill="#ffdfc4"/>
            <path id="Trazado_206232" data-name="Trazado 206232" d="M217.793,391.917c4.36,5.147,1.186,7.93.4,8.478a40.74,40.74,0,0,1-4.77-4.545C216.037,392.32,217.793,391.917,217.793,391.917Z" fill="#ffdfc4"/>
          </g>
        </g>
        <path id="Trazado_206233" data-name="Trazado 206233" d="M230.577,443.417,235.235,450h72.941l-23.513-35.077Z" fill="#16131b"/>
      </g>
    </g>
    <g id="Grupo_170340" data-name="Grupo 170340" transform="translate(0 -20)">
      <rect id="Rectángulo_48706" data-name="Rectángulo 48706" width="25" height="275" transform="translate(416.287 1150)" fill="#fff"/>
      <text id="Primero_en_caducar_primero_en_salir" data-name="Primero en caducar primero en salir" transform="translate(434.287 1286.5) rotate(-90)" fill="#12263f" font-size="16" font-family="Roboto-Regular, Roboto"><tspan x="-126.695" y="0">Primero en caducar primero en salir</tspan></text>
      <path id="Polígono_10" data-name="Polígono 10" d="M20,0,40,20H0Z" transform="translate(408.287 1136)" fill="#fff"/>
    </g>
    <g id="Grupo_170341" data-name="Grupo 170341" transform="translate(1585.574 2584) rotate(180)">
      <rect id="Rectángulo_48706-2" data-name="Rectángulo 48706" width="25" height="275" transform="translate(416.287 1150)" fill="#fff"/>
      <text id="Primero_en_entrar_primero_en_salir" data-name="Primero en entrar primero en salir" transform="translate(434.287 1286.5) rotate(-90)" fill="#12263f" font-size="16" font-family="Roboto-Regular, Roboto"><tspan x="-118.863" y="0">Primero en entrar primero en salir</tspan></text>
      <path id="Polígono_10-2" data-name="Polígono 10" d="M20,0,40,20H0Z" transform="translate(408.287 1136)" fill="#fff"/>
    </g>
  </g>
</svg>
