<svg xmlns="http://www.w3.org/2000/svg" xmlns:xlink="http://www.w3.org/1999/xlink" width="402.642" height="352.433" viewBox="0 0 402.642 352.433">
  <defs>
    <linearGradient id="linear-gradient" x1="-0.088" y1="1.297" x2="0.603" y2="0.362" gradientUnits="objectBoundingBox">
      <stop offset="0" stop-color="#81d4fa"/>
      <stop offset="0.424" stop-color="#81d4fa"/>
      <stop offset="1" stop-color="#7e5ee3"/>
    </linearGradient>
  </defs>
  <g id="Grupo_71892" data-name="Grupo 71892" transform="translate(10146 1743.092)">
    <path id="Trazado_100532" data-name="Trazado 100532" d="M337.382,72.751c-19.689-20.583-90-88.337-235.326-69.469C3.878,16.029-4.008,73.4,1.209,109.284a118.834,118.834,0,0,0,11.546,35.976c5.1,10.192,13.7,30.9,11.485,50.991-1.792,16.278,33.752,113.209,210.011,95.2S368.38,105.158,337.382,72.751Z" transform="translate(-10146 -1692.248) rotate(-8)" fill="#81d4fa"/>
    <path id="Trazado_100534" data-name="Trazado 100534" d="M921.708,275.229c16.454-22.656,75.219-97.232,196.666-76.465,82.049,14.031,88.639,77.182,84.279,116.677a161.768,161.768,0,0,1-9.649,39.6c-4.258,11.218-11.446,34.009-9.6,56.126,1.5,17.917-28.207,124.609-175.51,104.785S895.8,310.9,921.708,275.229Z" transform="translate(-10994.971 -1925.117)" fill="url(#linear-gradient)"/>
    <g id="Grupo_53817" data-name="Grupo 53817" transform="translate(-10116.317 -1488.7)">
      <path id="Trazado_100506" data-name="Trazado 100506" d="M991.11,495.074,942.835,543a2.55,2.55,0,0,1-3.593-3.619l48.275-47.925a2.55,2.55,0,1,1,3.593,3.619Z" transform="translate(-918.245 -490.714)" fill="#fff"/>
      <path id="Trazado_100507" data-name="Trazado 100507" d="M928.181,569.219l-12.187,12.1A2.55,2.55,0,1,1,912.4,577.7l12.186-12.1a2.55,2.55,0,1,1,3.592,3.619Z" transform="translate(-911.649 -508.934)" fill="#fff"/>
    </g>
    <g id="Grupo_53818" data-name="Grupo 53818" transform="translate(-10087.768 -1467.949)">
      <path id="Trazado_100508" data-name="Trazado 100508" d="M997.584,520.853,968.353,549.41a1.532,1.532,0,1,1-2.14-2.191l29.231-28.557a1.532,1.532,0,0,1,2.141,2.191Z" transform="translate(-953.492 -518.226)" fill="#7e5ee3"/>
      <path id="Trazado_100509" data-name="Trazado 100509" d="M959.48,565.034l-7.38,7.209a1.532,1.532,0,0,1-2.141-2.192l7.379-7.208a1.532,1.532,0,1,1,2.141,2.191Z" transform="translate(-949.499 -529.083)" fill="#7e5ee3"/>
    </g>
    <path id="Trazado_100510" data-name="Trazado 100510" d="M1206.542,150.811l-36.71,32.069a1.827,1.827,0,0,0,2.4,2.752l36.71-32.069a1.827,1.827,0,1,0-2.4-2.752Z" transform="translate(-10988.913 -1869.706)" fill="#81d4fa"/>
    <path id="Trazado_100511" data-name="Trazado 100511" d="M1157.075,204.348l-9.267,8.1a1.827,1.827,0,1,0,2.4,2.752l9.267-8.1a1.827,1.827,0,0,0-2.4-2.752Z" transform="translate(-10982.282 -1885.82)" fill="#81d4fa"/>
    <circle id="Elipse_4060" data-name="Elipse 4060" cx="11.915" cy="11.915" r="11.915" transform="translate(-10091.136 -1519.829)" fill="#ff9d00"/>
    <circle id="Elipse_4061" data-name="Elipse 4061" cx="14.237" cy="14.237" r="14.237" transform="translate(-9801.098 -1676.811)" fill="#ff9d00"/>
    <ellipse id="Elipse_4979" data-name="Elipse 4979" cx="155" cy="154.5" rx="155" ry="154.5" transform="translate(-10096.892 -1715.63)" fill="#fff" opacity="0.5"/>
    <g id="Grupo_170267" data-name="Grupo 170267" transform="translate(-11141.006 -2180.639)">
      <g id="Grupo_167554" data-name="Grupo 167554" transform="translate(1055.822 456.044)">
        <g id="Grupo_167489" data-name="Grupo 167489">
          <g id="Grupo_167488" data-name="Grupo 167488">
            <rect id="Rectángulo_47550" data-name="Rectángulo 47550" width="127.647" height="175.343" rx="2.408" transform="translate(0 55.363) rotate(-25.704)" fill="#e0e0e0"/>
          </g>
        </g>
        <g id="Grupo_167491" data-name="Grupo 167491" transform="translate(8.043 6.458)">
          <g id="Grupo_167490" data-name="Grupo 167490">
            <rect id="Rectángulo_47551" data-name="Rectángulo 47551" width="113.392" height="163.215" transform="translate(0 49.18) rotate(-25.704)" fill="#fafafa"/>
          </g>
        </g>
        <g id="Grupo_167493" data-name="Grupo 167493" transform="translate(39.367 10.135)">
          <g id="Grupo_167492" data-name="Grupo 167492">
            <path id="Trazado_203493" data-name="Trazado 203493" d="M158.558,69.535a13.9,13.9,0,0,0-14.533-1.519L140.892,61.8a9.544,9.544,0,0,0-12.739-4.461h0a9.546,9.546,0,0,0-4.461,12.74l3.142,6.525L124.658,77.7a13.9,13.9,0,0,0-7.665,12.237l-.044,3.234,44.484-21.413Zm-23.742,1.013a5.138,5.138,0,1,1,2.4-6.857A5.138,5.138,0,0,1,134.816,70.548Z" transform="translate(-116.949 -56.394)" fill="#ebebeb"/>
          </g>
        </g>
        <g id="Grupo_167496" data-name="Grupo 167496" transform="translate(28.235 58.237)">
          <g id="Grupo_167495" data-name="Grupo 167495">
            <g id="Grupo_167494" data-name="Grupo 167494">
              <path id="Trazado_203494" data-name="Trazado 203494" d="M136.739,90.6c.089.181-6.044,3.315-13.692,7s-13.924,6.519-14.012,6.338,6.042-3.315,13.694-7S136.652,90.42,136.739,90.6Z" transform="translate(-109.034 -90.594)" fill="#e0e0e0"/>
            </g>
          </g>
        </g>
        <g id="Grupo_167499" data-name="Grupo 167499" transform="translate(30.483 69.809)">
          <g id="Grupo_167498" data-name="Grupo 167498">
            <g id="Grupo_167497" data-name="Grupo 167497">
              <path id="Trazado_203495" data-name="Trazado 203495" d="M123.987,98.839c.087.181-2.83,1.768-6.516,3.543s-6.747,3.066-6.836,2.883,2.83-1.768,6.518-3.543S123.9,98.656,123.987,98.839Z" transform="translate(-110.633 -98.822)" fill="#e0e0e0"/>
            </g>
          </g>
        </g>
        <g id="Grupo_167502" data-name="Grupo 167502" transform="translate(38.087 51.511)">
          <g id="Grupo_167501" data-name="Grupo 167501">
            <g id="Grupo_167500" data-name="Grupo 167500">
              <path id="Trazado_203496" data-name="Trazado 203496" d="M193.142,85.815c.087.183-17.1,8.639-38.391,18.887s-38.625,18.41-38.713,18.227,17.1-8.636,38.395-18.887S193.055,85.633,193.142,85.815Z" transform="translate(-116.039 -85.812)" fill="#e0e0e0"/>
            </g>
          </g>
        </g>
        <g id="Grupo_167505" data-name="Grupo 167505" transform="translate(41.626 58.864)">
          <g id="Grupo_167504" data-name="Grupo 167504">
            <g id="Grupo_167503" data-name="Grupo 167503">
              <path id="Trazado_203497" data-name="Trazado 203497" d="M195.658,91.043c.089.181-17.1,8.639-38.391,18.885s-38.625,18.41-38.713,18.228,17.1-8.637,38.395-18.888S195.571,90.86,195.658,91.043Z" transform="translate(-118.555 -91.04)" fill="#e0e0e0"/>
            </g>
          </g>
        </g>
        <g id="Grupo_167508" data-name="Grupo 167508" transform="translate(45.164 66.216)">
          <g id="Grupo_167507" data-name="Grupo 167507">
            <g id="Grupo_167506" data-name="Grupo 167506">
              <path id="Trazado_203498" data-name="Trazado 203498" d="M198.174,96.27c.089.183-17.1,8.639-38.391,18.887s-38.625,18.41-38.713,18.227,17.1-8.637,38.395-18.888S198.087,96.088,198.174,96.27Z" transform="translate(-121.071 -96.267)" fill="#e0e0e0"/>
            </g>
          </g>
        </g>
        <g id="Grupo_167511" data-name="Grupo 167511" transform="translate(48.703 73.569)">
          <g id="Grupo_167510" data-name="Grupo 167510">
            <g id="Grupo_167509" data-name="Grupo 167509">
              <path id="Trazado_203499" data-name="Trazado 203499" d="M200.692,101.5c.087.181-17.1,8.639-38.392,18.885s-38.624,18.41-38.713,18.228,17.1-8.637,38.395-18.888S200.6,101.315,200.692,101.5Z" transform="translate(-123.587 -101.495)" fill="#e0e0e0"/>
            </g>
          </g>
        </g>
        <g id="Grupo_167514" data-name="Grupo 167514" transform="translate(52.242 80.921)">
          <g id="Grupo_167513" data-name="Grupo 167513">
            <g id="Grupo_167512" data-name="Grupo 167512">
              <path id="Trazado_203500" data-name="Trazado 203500" d="M203.208,106.725c.087.183-17.1,8.639-38.392,18.887s-38.624,18.41-38.713,18.227,17.1-8.637,38.4-18.888S203.12,106.543,203.208,106.725Z" transform="translate(-126.103 -106.722)" fill="#e0e0e0"/>
            </g>
          </g>
        </g>
        <g id="Grupo_167517" data-name="Grupo 167517" transform="translate(55.782 88.274)">
          <g id="Grupo_167516" data-name="Grupo 167516">
            <g id="Grupo_167515" data-name="Grupo 167515">
              <path id="Trazado_203501" data-name="Trazado 203501" d="M205.723,111.953c.087.181-17.1,8.637-38.391,18.885s-38.625,18.41-38.713,18.228,17.1-8.637,38.395-18.888S205.636,111.77,205.723,111.953Z" transform="translate(-128.62 -111.95)" fill="#e0e0e0"/>
            </g>
          </g>
        </g>
        <g id="Grupo_167520" data-name="Grupo 167520" transform="translate(58.972 113.457)">
          <g id="Grupo_167519" data-name="Grupo 167519">
            <g id="Grupo_167518" data-name="Grupo 167518">
              <path id="Trazado_203502" data-name="Trazado 203502" d="M169.44,129.861a7.528,7.528,0,0,1-1.453.857l-4.08,2.094c-3.46,1.738-8.26,4.094-13.583,6.657s-10.161,4.845-13.678,6.464l-4.182,1.883a7.467,7.467,0,0,1-1.577.6,7.5,7.5,0,0,1,1.453-.857l4.08-2.094c3.46-1.738,8.262-4.094,13.585-6.658s10.159-4.844,13.675-6.463l4.182-1.883A7.4,7.4,0,0,1,169.44,129.861Z" transform="translate(-130.888 -129.855)" fill="#e0e0e0"/>
            </g>
          </g>
        </g>
        <g id="Grupo_167523" data-name="Grupo 167523" transform="translate(97.34 31.531)">
          <g id="Grupo_167522" data-name="Grupo 167522">
            <g id="Grupo_167521" data-name="Grupo 167521">
              <path id="Trazado_203503" data-name="Trazado 203503" d="M170.519,71.625c.087.181-2.606,1.661-6.017,3.3s-6.246,2.826-6.333,2.643,2.6-1.66,6.017-3.3S170.43,71.443,170.519,71.625Z" transform="translate(-158.167 -71.607)" fill="#e0e0e0"/>
            </g>
          </g>
        </g>
        <g id="Grupo_167526" data-name="Grupo 167526" transform="translate(67.684 137.908)">
          <g id="Grupo_167525" data-name="Grupo 167525">
            <g id="Grupo_167524" data-name="Grupo 167524">
              <path id="Trazado_203504" data-name="Trazado 203504" d="M157.111,147.25c.089.181-4.325,2.488-9.854,5.149s-10.085,4.672-10.173,4.491,4.325-2.488,9.855-5.151S157.023,147.068,157.111,147.25Z" transform="translate(-137.082 -147.239)" fill="#e0e0e0"/>
            </g>
          </g>
        </g>
        <g id="Grupo_167529" data-name="Grupo 167529" transform="translate(71.232 144.263)">
          <g id="Grupo_167528" data-name="Grupo 167528">
            <g id="Grupo_167527" data-name="Grupo 167527">
              <path id="Trazado_203505" data-name="Trazado 203505" d="M159.966,151.768c.089.181-4.4,2.523-10.02,5.229s-10.252,4.753-10.341,4.571,4.4-2.525,10.023-5.231S159.879,151.585,159.966,151.768Z" transform="translate(-139.604 -151.757)" fill="#e0e0e0"/>
            </g>
          </g>
        </g>
        <g id="Grupo_167532" data-name="Grupo 167532" transform="translate(135.627 108.939)">
          <g id="Grupo_167531" data-name="Grupo 167531">
            <g id="Grupo_167530" data-name="Grupo 167530">
              <path id="Trazado_203506" data-name="Trazado 203506" d="M195.07,126.666c.089.181-2.008,1.373-4.681,2.66s-4.912,2.181-5,2,2.008-1.373,4.681-2.658S194.983,126.483,195.07,126.666Z" transform="translate(-185.388 -126.642)" fill="#e0e0e0"/>
            </g>
          </g>
        </g>
        <g id="Grupo_167535" data-name="Grupo 167535" transform="translate(138.854 114.786)">
          <g id="Grupo_167534" data-name="Grupo 167534">
            <g id="Grupo_167533" data-name="Grupo 167533">
              <path id="Trazado_203507" data-name="Trazado 203507" d="M197.364,130.823c.087.183-2.008,1.374-4.681,2.66s-4.912,2.181-5,2,2.007-1.373,4.681-2.66S197.276,130.641,197.364,130.823Z" transform="translate(-187.682 -130.799)" fill="#e0e0e0"/>
            </g>
          </g>
        </g>
        <g id="Grupo_167538" data-name="Grupo 167538" transform="translate(76.274 155.758)">
          <g id="Grupo_167537" data-name="Grupo 167537">
            <g id="Grupo_167536" data-name="Grupo 167536">
              <path id="Trazado_203508" data-name="Trazado 203508" d="M152.537,159.954c.089.181-1.933,1.336-4.513,2.578s-4.744,2.1-4.831,1.92,1.933-1.336,4.513-2.58S152.449,159.771,152.537,159.954Z" transform="translate(-143.189 -159.93)" fill="#e0e0e0"/>
            </g>
          </g>
        </g>
        <g id="Grupo_167541" data-name="Grupo 167541" transform="translate(145.23 121.627)">
          <g id="Grupo_167540" data-name="Grupo 167540">
            <g id="Grupo_167539" data-name="Grupo 167539">
              <path id="Trazado_203509" data-name="Trazado 203509" d="M199.229,135.7c.087.181-1.411,1.084-3.346,2.017s-3.575,1.539-3.664,1.356,1.411-1.084,3.346-2.017S199.14,135.513,199.229,135.7Z" transform="translate(-192.215 -135.663)" fill="#e0e0e0"/>
            </g>
          </g>
        </g>
        <g id="Grupo_167544" data-name="Grupo 167544" transform="translate(83.278 161.95)">
          <g id="Grupo_167543" data-name="Grupo 167543">
            <g id="Grupo_167542" data-name="Grupo 167542">
              <path id="Trazado_203510" data-name="Trazado 203510" d="M148.169,178.789a1.79,1.79,0,0,1,.39-.3l1.184-.789,4.549-2.916,16.327-10.252.322-.2.138.353a9.209,9.209,0,0,1,.18,6.2,7.586,7.586,0,0,1-4.5,4.871,7.5,7.5,0,0,1-6.958-.783,6.539,6.539,0,0,1-2.331-6.85,5.915,5.915,0,0,1,1.345-2.553,3.562,3.562,0,0,1,.527-.5,2.5,2.5,0,0,1,.639-.437,1.046,1.046,0,0,1,.982.032,1.661,1.661,0,0,1,.557.647,12.609,12.609,0,0,1,.627,10.348,7.838,7.838,0,0,1-3.025,4.007,4.5,4.5,0,0,1-4.75-.105,6.782,6.782,0,0,1-2.819-3.53c-.918-2.844-.34-5.592.045-7.938l.087-.536.36.4a11.017,11.017,0,0,1,2.679,6.062,11.724,11.724,0,0,1-.47,4.989,10.449,10.449,0,0,1-1.415,2.831c-.214.291-.4.494-.523.636s-.19.2-.2.2a13.172,13.172,0,0,0,1.862-3.748,11.681,11.681,0,0,0,.336-4.851,10.662,10.662,0,0,0-2.654-5.764l.447-.132c-.36,2.349-.862,5.034.018,7.654A6.182,6.182,0,0,0,154.708,179a3.83,3.83,0,0,0,4.069.08,7.2,7.2,0,0,0,2.72-3.679,11.94,11.94,0,0,0-.612-9.747,1,1,0,0,0-.3-.371c-.084-.049-.158-.053-.309.01a3.622,3.622,0,0,0-.92.764,5.193,5.193,0,0,0-1.176,2.238,5.821,5.821,0,0,0,2.046,6.085,6.8,6.8,0,0,0,6.283.71,6.9,6.9,0,0,0,4.1-4.422,8.578,8.578,0,0,0-.127-5.753l.461.153L154.486,175.1l-4.64,2.767-1.235.707A1.869,1.869,0,0,1,148.169,178.789Z" transform="translate(-148.169 -164.332)" fill="#e0e0e0"/>
            </g>
          </g>
        </g>
        <g id="Grupo_167547" data-name="Grupo 167547" transform="translate(139.116 133.645)">
          <g id="Grupo_167546" data-name="Grupo 167546">
            <g id="Grupo_167545" data-name="Grupo 167545">
              <path id="Trazado_203511" data-name="Trazado 203511" d="M205.061,151.511a4.557,4.557,0,0,1-.235,1.319,5.413,5.413,0,0,1-.637,1.491,3.141,3.141,0,0,1-1.765,1.345,2.182,2.182,0,0,1-1.368-.045,2.759,2.759,0,0,1-1.169-.911,26.614,26.614,0,0,1-1.578-2.682c-1.059-1.935-2.234-4.076-3.5-6.38l.64-.149c-.114,3.225-.236,6.746-.366,10.432-.034.878-.068,1.747-.1,2.6l-.055,1.454-.637-1.308c-1.923-3.952-3.716-7.639-5.281-10.858l.584-.056a37.386,37.386,0,0,0-1.339,9.81c0,2.4.163,3.769.082,3.778a3.805,3.805,0,0,1-.2-.973,27.742,27.742,0,0,1-.243-2.8,34.431,34.431,0,0,1,1.1-9.981l.211-.809.374.752c1.592,3.207,3.418,6.878,5.374,10.813l-.692.148q.046-1.281.1-2.6c.148-3.688.288-7.206.418-10.431l.051-1.264.589,1.115,3.4,6.431a28.426,28.426,0,0,0,1.468,2.648,1.883,1.883,0,0,0,2.038.861,3.584,3.584,0,0,0,2.3-2.5A9.083,9.083,0,0,1,205.061,151.511Z" transform="translate(-187.869 -144.208)" fill="#e0e0e0"/>
            </g>
          </g>
        </g>
        <g id="Grupo_167550" data-name="Grupo 167550" transform="translate(129.816 135.674)">
          <g id="Grupo_167549" data-name="Grupo 167549">
            <g id="Grupo_167548" data-name="Grupo 167548">
              <path id="Trazado_203512" data-name="Trazado 203512" d="M207.6,145.656c.114.167-5.691,4.314-12.962,9.26s-13.262,8.822-13.376,8.654,5.689-4.312,12.964-9.26S207.483,145.488,207.6,145.656Z" transform="translate(-181.257 -145.65)" fill="#e0e0e0"/>
            </g>
          </g>
        </g>
        <g id="Grupo_167553" data-name="Grupo 167553" transform="translate(143.797 136.908)">
          <g id="Grupo_167552" data-name="Grupo 167552">
            <g id="Grupo_167551" data-name="Grupo 167551">
              <path id="Trazado_203513" data-name="Trazado 203513" d="M210.688,146.532c.132.153-4.124,4.028-9.505,8.653s-9.851,8.252-9.983,8.1,4.124-4.027,9.507-8.654S210.558,146.379,210.688,146.532Z" transform="translate(-191.197 -146.528)" fill="#e0e0e0"/>
            </g>
          </g>
        </g>
      </g>
      <g id="STORY_3" data-name="STORY 3" transform="translate(1153.051 449.038)">
        <g id="Grupo_170216" data-name="Grupo 170216" transform="translate(0 0)">
          <g id="Grupo_170172" data-name="Grupo 170172" transform="translate(112.39 294.715)">
            <g id="Grupo_170170" data-name="Grupo 170170">
              <path id="Trazado_205964" data-name="Trazado 205964" d="M-485.747,2934.643l13.058-.009-.012-18.245-13.058.009a9.006,9.006,0,0,0-9,9.012v.233A9.007,9.007,0,0,0-485.747,2934.643Z" transform="translate(494.76 -2916.199)" fill="#e6ebf2"/>
              <path id="Trazado_205965" data-name="Trazado 205965" d="M-423.055,2934.461a9.184,9.184,0,0,0,9.178-9.19v-.237a9.185,9.185,0,0,0-9.19-9.178l-14.035.01a33.136,33.136,0,0,0,.012,18.605Z" transform="translate(458.443 -2915.855)" fill="#00bcd4"/>
            </g>
            <g id="Grupo_170171" data-name="Grupo 170171" transform="translate(1.272 13.244)" style="mix-blend-mode: multiply;isolation: isolate">
              <path id="Trazado_205966" data-name="Trazado 205966" d="M-483.439,2958.33l12.3-.008c.017.061.027.12.044.18l14.035-.009a9.178,9.178,0,0,0,8.337-5.363c-1.6,1.031-4.873,2.542-10.743,2.893-9.1.544-25.708.081-25.708.081a9.251,9.251,0,0,1-6-2.183A8.992,8.992,0,0,0-483.439,2958.33Z" transform="translate(491.18 -2953.131)" fill="#dadfe6"/>
            </g>
            <path id="Trazado_205967" data-name="Trazado 205967" d="M-441.326,2928.768c-6.964.007-12.61-1.181-12.612-2.653s5.643-2.67,12.607-2.677,12.611,1.181,12.612,2.653S-434.362,2928.761-441.326,2928.768Z" transform="translate(468.441 -2920.744)" fill="#e6ebf2" opacity="0.15" style="mix-blend-mode: screen;isolation: isolate"/>
          </g>
          <ellipse id="Elipse_5455" data-name="Elipse 5455" cx="41.863" cy="6.646" rx="41.863" ry="6.646" transform="translate(0 310.633)" fill="#01a6b5" opacity="0.8" style="mix-blend-mode: multiply;isolation: isolate"/>
          <g id="Grupo_170180" data-name="Grupo 170180" transform="translate(3.027 190.099)">
            <g id="Grupo_170179" data-name="Grupo 170179">
              <path id="Trazado_205968" data-name="Trazado 205968" d="M-790.848,2679.863l.011-6.645,25.9.042,25.9.042-.011,6.645a32.088,32.088,0,0,1,10.942,15.773,15.778,15.778,0,0,1,.725,4.746v73.851a6.047,6.047,0,0,1-4.156,5.749c-5.711,1.878-17.176,4.768-33.581,4.741-17.283-.028-28.054-2.764-33.39-4.625a6.054,6.054,0,0,1-4.064-5.718v-74.09a15.744,15.744,0,0,1,.741-4.8A32.087,32.087,0,0,1-790.848,2679.863Z" transform="translate(802.576 -2654.808)" fill="#e5914a" fill-rule="evenodd" opacity="0.95"/>
              <path id="Trazado_205969" data-name="Trazado 205969" d="M-717.77,2679.948s-10.418,3.1-26.658,3.075-25.137-3.16-25.137-3.16l.006-6.645h51.8Z" transform="translate(781.293 -2654.808)" fill="#e5914a" fill-rule="evenodd" opacity="0.3" style="mix-blend-mode: multiply;isolation: isolate"/>
              <g id="Grupo_170175" data-name="Grupo 170175" transform="translate(5.328)">
                <path id="Trazado_205970" data-name="Trazado 205970" d="M-722.779,2654.767c0,2.362-14.506,4.277-32.4,4.277s-32.4-1.915-32.4-4.277v-11.333h64.8Z" transform="translate(787.579 -2635.606)" fill="#e9e3f1"/>
                <g id="Grupo_170173" data-name="Grupo 170173" transform="translate(3.614 11.759)" opacity="0.3" style="mix-blend-mode: multiply;isolation: isolate">
                  <path id="Trazado_205971" data-name="Trazado 205971" d="M-707.688,2669l-.641-.011.011-7.387.635.013Z" transform="translate(732.872 -2659.081)" fill="#a9a1c2"/>
                  <path id="Trazado_205972" data-name="Trazado 205972" d="M-732.639,2667.978l-.641-.037.011-7.458.635.044Z" transform="translate(748.958 -2658.357)" fill="#a9a1c2"/>
                  <path id="Trazado_205973" data-name="Trazado 205973" d="M-754.705,2666l-.64-.07.011-7.558.634.078Z" transform="translate(763.184 -2656.996)" fill="#a9a1c2"/>
                  <path id="Trazado_205974" data-name="Trazado 205974" d="M-776.769,2662.294q-.331-.076-.639-.155l.011-7.632q.3.078.633.154Z" transform="translate(777.408 -2654.504)" fill="#a9a1c2"/>
                  <path id="Trazado_205975" data-name="Trazado 205975" d="M-616.531,2662.134q-.309.078-.64.155l.011-7.636q.328-.077.633-.155Z" transform="translate(674.101 -2654.498)" fill="#a9a1c2"/>
                  <path id="Trazado_205976" data-name="Trazado 205976" d="M-641.486,2666.263c-.212.022-.423.044-.64.065l.011-7.538.634-.073Z" transform="translate(690.19 -2657.218)" fill="#a9a1c2"/>
                  <path id="Trazado_205977" data-name="Trazado 205977" d="M-663.554,2668.122l-.641.033.011-7.441.635-.039Z" transform="translate(704.418 -2658.48)" fill="#a9a1c2"/>
                  <path id="Trazado_205978" data-name="Trazado 205978" d="M-685.621,2668.994l-.641.011.011-7.384.635-.013Z" transform="translate(718.645 -2659.081)" fill="#a9a1c2"/>
                </g>
                <path id="Trazado_205979" data-name="Trazado 205979" d="M-787.579,2637.21c0,1.894,14.506,4.343,32.4,4.343s32.4-2.449,32.4-4.343-14.506-3.429-32.4-3.429S-787.579,2635.316-787.579,2637.21Z" transform="translate(787.579 -2629.382)" fill="#fff"/>
                <g id="Grupo_170174" data-name="Grupo 170174" transform="translate(4.261)">
                  <path id="Trazado_205980" data-name="Trazado 205980" d="M-719.308,2632.931c0,2.052-12.6,3.715-28.139,3.715s-28.139-1.663-28.139-3.715v-3.147h56.278Z" transform="translate(775.586 -2626.805)" fill="#dbd6e3"/>
                  <ellipse id="Elipse_5456" data-name="Elipse 5456" cx="28.139" cy="2.978" rx="28.139" ry="2.978" fill="#e9e3f1"/>
                </g>
              </g>
              <g id="Grupo_170178" data-name="Grupo 170178" transform="translate(0 54.602)">
                <g id="Grupo_170176" data-name="Grupo 170176">
                  <path id="Trazado_205981" data-name="Trazado 205981" d="M-802.576,2775.085v65.1a159.32,159.32,0,0,0,27.74,4.135,7.176,7.176,0,0,0,7.6-7.167v-52.5a7.168,7.168,0,0,0-6.942-7.16A278.753,278.753,0,0,1-802.576,2775.085Z" transform="translate(802.576 -2775.085)" fill="#e9e3f1"/>
                </g>
                <g id="Grupo_170177" data-name="Grupo 170177" transform="translate(59.717)">
                  <path id="Trazado_205982" data-name="Trazado 205982" d="M-619.02,2775.085q-4.453.583-8.994,1a7.156,7.156,0,0,0-6.48,7.137v51.577a7.185,7.185,0,0,0,8.663,7.022q3.435-.716,6.81-1.635Z" transform="translate(634.494 -2775.085)" fill="#e9e3f1"/>
                </g>
              </g>
            </g>
          </g>
          <g id="Grupo_170215" data-name="Grupo 170215" transform="translate(19.779)">
            <g id="Grupo_170214" data-name="Grupo 170214" transform="translate(23.24)">
              <g id="Grupo_170181" data-name="Grupo 170181" transform="translate(5.619 304.252)">
                <path id="Trazado_205983" data-name="Trazado 205983" d="M-624.572,2942.7s-1.276,16.2-.241,21.461c.555,2.819,3.642,8.621,2.226,11.273s-3.637,1.346-3.637,1.346l-32.823,1c-2,.032-3.962.3-2.349-.885,2.639-1.945,4.768-3.23,13.2-7.317.55-.267,2.551-1.542,3.273-1.984a25.415,25.415,0,0,0,5.251-4.649c2.636-2.941,2.866-17.205,2.866-17.205Z" transform="translate(666.327 -2942.7)" fill="#ffbe9d"/>
                <path id="Trazado_205984" data-name="Trazado 205984" d="M-652.789,3011.27c9.708,2.5,16.884.8,20.9-.823,1.035,2.941,2.408,6.63,1.68,8.758-.891,2.6-2.16,3.193-3.281,3.223-8.868.233-32.482.551-39.243.64-.944.012-2.242-3.817-.858-5.165C-671.719,3016.078-653.513,3011.713-652.789,3011.27Z" transform="translate(674.197 -2986.377)" fill="#383838"/>
              </g>
              <g id="Grupo_170182" data-name="Grupo 170182" transform="translate(62.26 308.845)">
                <path id="Trazado_205985" data-name="Trazado 205985" d="M-494.331,2955.627h-13.8c3.325,15.8-1.5,18.457.944,23.414a13.9,13.9,0,0,0,12.121,0C-492.45,2972.877-498.049,2971.526-494.331,2955.627Z" transform="translate(510.492 -2955.627)" fill="#ffbe9d"/>
                <path id="Trazado_205986" data-name="Trazado 205986" d="M-511.992,3006.72c-3.352,8.26-3.871,11.435-.471,13.3h14.116c3.4-1.869,2.882-5.044-.471-13.3a10.163,10.163,0,0,1-6.569,2.372A10.324,10.324,0,0,1-511.992,3006.72Z" transform="translate(514.773 -2988.567)" fill="#383838"/>
                <path id="Trazado_205987" data-name="Trazado 205987" d="M-493.9,3023.3c0,.463-2.85,0-6.365,0s-6.366.463-6.366,0,2.85-1.676,6.366-1.676S-493.9,3022.834-493.9,3023.3Z" transform="translate(509.521 -2998.174)" fill="#383838" opacity="0.5" style="mix-blend-mode: screen;isolation: isolate"/>
              </g>
              <path id="Trazado_205988" data-name="Trazado 205988" d="M-565.79,2510.694l3.172,124.8-2.67,41.853c-6.03,2.583-16.767,1.75-16.767,1.75l-3.533-43.6-.247-34.213-5.439-46.338h-1.677l-2.365,46.338s3.257,20.234,3.257,34.213-3.257,43.6-3.257,43.6h-17.559l-4.3-56.15-3.368-111.549Z" transform="translate(645.224 -2359.927)" fill="#383838"/>
              <path id="Trazado_205989" data-name="Trazado 205989" d="M-547.808,2219.558c0,17.887-19.207,14.728-19.207,2.76,0,0-.257-4.454-.257-5.555s-.034-8.932-.034-8.932l19.6-.394Z" transform="translate(610.902 -2164.412)" fill="#f2b495"/>
              <g id="Grupo_170183" data-name="Grupo 170183" transform="translate(43.596 43.024)" opacity="0.3" style="mix-blend-mode: multiply;isolation: isolate">
                <path id="Trazado_205990" data-name="Trazado 205990" d="M-567.306,2207.83s.019,4.365.028,7.035a13.9,13.9,0,0,0,8.647,3.464c4.258,0,8.657-2.685,10.867-3.979l.058-6.914Z" transform="translate(567.306 -2207.436)" fill="#f2b495"/>
              </g>
              <path id="Trazado_205991" data-name="Trazado 205991" d="M-557.492,2134.34a31.049,31.049,0,0,1-2.524,8.784c-1.569,3.7-8.214,9.216-13.418,9.216s-12.241-5.513-13.418-9.216c-.948-2.984-2.262-5.979-2.525-8.784-.217-2.335-2.269-10.289.709-17.189,2.224-5.152,8.856-8.405,15.233-8.336,6.377-.069,13.009,3.184,15.233,8.336C-555.222,2124.051-557.274,2132-557.492,2134.34Z" transform="translate(625.705 -2100.829)" fill="#ffbe9d"/>
              <g id="Grupo_170184" data-name="Grupo 170184" transform="translate(66.924 30.532)">
                <path id="Trazado_205992" data-name="Trazado 205992" d="M-500.848,2174.41s1.7-2.661,3.531-2.039,1.045,5.5-1.115,7.394c-2.037,1.79-3.215.58-3.215.58Z" transform="translate(501.647 -2172.277)" fill="#ffbe9d"/>
                <path id="Trazado_205993" data-name="Trazado 205993" d="M-495.4,2178.59c.012,0,.006.037-.008.036-1.622-.152-2.578,2.293-2.742,2.68a2.028,2.028,0,0,1,.286-.18,1.141,1.141,0,0,1,1.416.283c.017.017,0,.066-.022.053a1.145,1.145,0,0,0-1.3.09,3,3,0,0,0-1.049,1.056C-498.835,2182.639-497.936,2177.507-495.4,2178.59Z" transform="translate(499.823 -2176.25)" fill="#9e5e4a"/>
              </g>
              <g id="Grupo_170185" data-name="Grupo 170185" transform="translate(32.266 30.532)">
                <path id="Trazado_205994" data-name="Trazado 205994" d="M-594.641,2174.41s-1.7-2.661-3.531-2.039-1.045,5.5,1.115,7.394c2.037,1.79,3.215.58,3.215.58Z" transform="translate(599.195 -2172.277)" fill="#ffbe9d"/>
                <path id="Trazado_205995" data-name="Trazado 205995" d="M-596.589,2178.59c-.012,0-.006.037.008.036,1.622-.152,2.578,2.293,2.742,2.68a2.028,2.028,0,0,0-.286-.18,1.14,1.14,0,0,0-1.416.283c-.018.017,0,.066.022.053a1.144,1.144,0,0,1,1.3.09,3,3,0,0,1,1.05,1.056C-593.154,2182.639-594.053,2177.507-596.589,2178.59Z" transform="translate(597.519 -2176.25)" fill="#9e5e4a"/>
              </g>
              <g id="Grupo_170189" data-name="Grupo 170189" transform="translate(40.27 23.856)">
                <g id="Grupo_170188" data-name="Grupo 170188">
                  <g id="Grupo_170186" data-name="Grupo 170186">
                    <path id="Trazado_205996" data-name="Trazado 205996" d="M-570.489,2155.549a.858.858,0,0,0,1.157-.372.859.859,0,0,0-.372-1.157,5.247,5.247,0,0,0-6.934,2.188.178.178,0,0,0,.271.227A4.806,4.806,0,0,1-570.489,2155.549Z" transform="translate(576.669 -2153.486)" fill="#434244"/>
                  </g>
                  <g id="Grupo_170187" data-name="Grupo 170187" transform="translate(16.571)">
                    <path id="Trazado_205997" data-name="Trazado 205997" d="M-528.775,2155.549a.859.859,0,0,1-1.157-.372.86.86,0,0,1,.372-1.157,5.247,5.247,0,0,1,6.934,2.188.178.178,0,0,1-.271.227A4.806,4.806,0,0,0-528.775,2155.549Z" transform="translate(530.027 -2153.486)" fill="#434244"/>
                  </g>
                </g>
                <path id="Trazado_205998" data-name="Trazado 205998" d="M-553.491,2205.306c1.934,2,5.158,2.462,8.969.777" transform="translate(561.726 -2186.895)" fill="none" stroke="#9e5e4a" stroke-linecap="round" stroke-miterlimit="10" stroke-width="1"/>
                <path id="Trazado_205999" data-name="Trazado 205999" d="M-565.707,2170.306a1.775,1.775,0,0,1,1.532,1.943c0,1.073-.686,1.368-1.532,1.368s-1.532-.3-1.532-1.368A1.775,1.775,0,0,1-565.707,2170.306Z" transform="translate(570.589 -2164.33)" fill="#434244"/>
                <path id="Trazado_206000" data-name="Trazado 206000" d="M-526.582,2170.306a1.775,1.775,0,0,1,1.532,1.943c0,1.073-.686,1.368-1.532,1.368s-1.532-.3-1.532-1.368A1.775,1.775,0,0,1-526.582,2170.306Z" transform="translate(545.365 -2164.33)" fill="#434244"/>
                <path id="Trazado_206001" data-name="Trazado 206001" d="M-543.6,2156.559a42,42,0,0,0,1.6,11.968,3.854,3.854,0,0,1-2.274.759s-1.38-.042-1.38-.678" transform="translate(556.669 -2155.467)" fill="none" stroke="#9e5e4a" stroke-linecap="round" stroke-miterlimit="10" stroke-width="1"/>
              </g>
              <g id="Grupo_170192" data-name="Grupo 170192" transform="translate(26.15 53.444)">
                <g id="Grupo_170191" data-name="Grupo 170191">
                  <g id="Grupo_170190" data-name="Grupo 170190">
                    <path id="Trazado_206002" data-name="Trazado 206002" d="M-560.3,2253.806s-6.878-14.71-19.147-17.041c0,0-3.432,12.161-11.515,12.161-5.143,0-7.918-11.788-7.918-11.788-12.757,3.456-17.526,18.48-17.526,18.48l1.5,82.684c0,5.415,54.6,5.415,54.6,0Z" transform="translate(616.411 -2236.765)" fill="#00bcd4"/>
                  </g>
                </g>
              </g>
              <path id="Trazado_206003" data-name="Trazado 206003" d="M-445.835,2289.88l-.008.034A.135.135,0,0,0-445.835,2289.88Z" transform="translate(532.593 -2217.565)" fill="#d0d1d3" opacity="0.4" style="mix-blend-mode: multiply;isolation: isolate"/>
              <g id="Grupo_170202" data-name="Grupo 170202" transform="translate(0 53.753)">
                <path id="Trazado_206004" data-name="Trazado 206004" d="M-493.126,2252.565a54,54,0,0,0-27.383-14.93c-5.215,16.092-5.713,37.584-7.025,62.747l1.563,105.839s21.061,1.619,36.111-6.152C-489.86,2339.083-507.384,2319.267-493.126,2252.565Z" transform="translate(585.26 -2237.635)" fill="#fff"/>
                <path id="Trazado_206005" data-name="Trazado 206005" d="M-474.218,2524.664c3,6.252,7.22,10.97,12.845,13.926C-463.536,2532.918-467.912,2528.322-474.218,2524.664Z" transform="translate(550.887 -2422.687)" fill="#d6d6d6" opacity="0.3" style="mix-blend-mode: multiply;isolation: isolate"/>
                <g id="Grupo_170193" data-name="Grupo 170193" transform="translate(80.861 40.811)" opacity="0.3" style="mix-blend-mode: multiply;isolation: isolate">
                  <path id="Trazado_206006" data-name="Trazado 206006" d="M-455.442,2352.5l-6.977,2.188c0,48.051,9.262,91.663,6.193,122.721a47.407,47.407,0,0,0,8.346-3.286C-447.88,2421.821-460.769,2399.8-455.442,2352.5Z" transform="translate(462.419 -2352.504)" fill="#d6d6d6"/>
                </g>
                <path id="Trazado_206007" data-name="Trazado 206007" d="M-611.859,2406.74q-20.405.727-31.535-6.152c0-24.987,14.247-92.373,2.565-143.889,7.639-7.249,13.381-14.928,23.774-18.258,0,3.385-.523,6.4-.364,8.692,1.182,17.1.169,33,.314,53.3C-616.88,2332.141-611.859,2358.551-611.859,2406.74Z" transform="translate(659.957 -2238.154)" fill="#fff"/>
                <path id="Trazado_206008" data-name="Trazado 206008" d="M-611.671,2533.442a29.679,29.679,0,0,1-12.794,13.825A36.945,36.945,0,0,1-611.671,2533.442Z" transform="translate(647.753 -2428.346)" fill="#d6d6d6" opacity="0.3" style="mix-blend-mode: multiply;isolation: isolate"/>
                <g id="Grupo_170194" data-name="Grupo 170194" transform="translate(29.391 0.286)">
                  <path id="Trazado_206009" data-name="Trazado 206009" d="M-593.856,2248.306c-.158-2.239.079-9.866.079-9.866s-3.479.286-6.6,4.86l-6.9,12.8,6.556,5.223-6.565,10.038a110.542,110.542,0,0,1,13.46,29.078C-593.971,2280.581-592.673,2265.033-593.856,2248.306Z" transform="translate(607.287 -2238.44)" fill="#e6e6e6"/>
                </g>
                <path id="Trazado_206010" data-name="Trazado 206010" d="M-446.817,2416.844a.061.061,0,0,1-.042.009c.009-.076.017-.1.042-.076h.008C-446.783,2416.819-446.783,2416.844-446.817,2416.844Z" transform="translate(533.248 -2353.124)" fill="#d0d1d3" opacity="0.4" style="mix-blend-mode: multiply;isolation: isolate"/>
                <g id="Grupo_170196" data-name="Grupo 170196" transform="translate(0 18.544)">
                  <g id="Grupo_170195" data-name="Grupo 170195" transform="translate(17.402 81.921)">
                    <path id="Trazado_206011" data-name="Trazado 206011" d="M-624.928,2529.465a87.443,87.443,0,0,0-7.013-9.058l-9.092,5.913.64.751a21.776,21.776,0,0,1,4.745,9.688c.141.674.307,1.384.5,2.105A26.206,26.206,0,0,0-624.928,2529.465Z" transform="translate(641.033 -2520.407)" fill="#ffbe9d"/>
                  </g>
                  <path id="Trazado_206012" data-name="Trazado 206012" d="M-670.885,2289.83s-19.987,58.35-19.1,63.742,20.651,36.2,20.651,36.2c4.408-4.76,7.774-9.669,9.333-14.836l-10.342-24.507a116.352,116.352,0,0,0,5.213-28.69C-664.558,2311.071-666.5,2298.4-670.885,2289.83Z" transform="translate(690.013 -2289.83)" fill="#fff"/>
                </g>
                <path id="Trazado_206013" data-name="Trazado 206013" d="M-520.509,2237.635c-5.686,18.178-5.16,35.307-7.025,62.747a102.279,102.279,0,0,1,14.314-28.639l-4.45-10.94,7.96-5.721-4.682-12.384C-515.588,2240.142-518.632,2238.441-520.509,2237.635Z" transform="translate(585.26 -2237.635)" fill="#e6e6e6"/>
                <g id="Grupo_170197" data-name="Grupo 170197" transform="translate(22.679 103.505)">
                  <path id="Trazado_206014" data-name="Trazado 206014" d="M-626.179,2544.676c5.8-2.59,10.513-7.87,14.179-15.711" transform="translate(626.179 -2528.965)" fill="none" stroke="#b3b3b3" stroke-miterlimit="10" stroke-width="0.616"/>
                  <path id="Trazado_206015" data-name="Trazado 206015" d="M-611.172,2553.446a30.572,30.572,0,0,0,9.4-10.878" transform="translate(616.504 -2537.735)" fill="none" stroke="#b3b3b3" stroke-miterlimit="10" stroke-width="0.616"/>
                </g>
                <path id="Trazado_206016" data-name="Trazado 206016" d="M-624.221,2373.227c0-8.387.861-13.588-.514-21.882" transform="translate(647.927 -2310.946)" fill="none" stroke="#b3b3b3" stroke-miterlimit="10" stroke-width="0.616"/>
                <g id="Grupo_170201" data-name="Grupo 170201" transform="translate(75.394 14.93)">
                  <g id="Grupo_170199" data-name="Grupo 170199" transform="translate(3.901)">
                    <g id="Grupo_170198" data-name="Grupo 170198" transform="translate(0 82.517)">
                      <path id="Trazado_206017" data-name="Trazado 206017" d="M-466.825,2520.971a87.461,87.461,0,0,1,7.013-9.058l9.092,5.913-.64.751a21.78,21.78,0,0,0-4.744,9.688c-.141.675-.307,1.384-.5,2.1A26.205,26.205,0,0,1-466.825,2520.971Z" transform="translate(466.825 -2511.913)" fill="#ffbe9d"/>
                    </g>
                    <path id="Trazado_206018" data-name="Trazado 206018" d="M-451.145,2279.657s21.526,58.947,20.639,64.338-20.651,36.2-20.651,36.2c-4.408-4.76-7.774-9.669-9.332-14.836l10.341-24.507s-12.271-16.991-12.271-33.129A40.535,40.535,0,0,1-451.145,2279.657Z" transform="translate(463.984 -2279.657)" fill="#fff"/>
                  </g>
                  <g id="Grupo_170200" data-name="Grupo 170200" transform="translate(0 85.558)">
                    <path id="Trazado_206019" data-name="Trazado 206019" d="M-462.08,2536.182c-5.8-2.589-10.513-7.87-14.179-15.711" transform="translate(476.809 -2520.471)" fill="none" stroke="#b3b3b3" stroke-miterlimit="10" stroke-width="0.616"/>
                    <path id="Trazado_206020" data-name="Trazado 206020" d="M-468.409,2544.953a30.574,30.574,0,0,1-9.4-10.879" transform="translate(477.806 -2529.241)" fill="none" stroke="#b3b3b3" stroke-miterlimit="10" stroke-width="0.616"/>
                  </g>
                </g>
              </g>
              <g id="Grupo_170204" data-name="Grupo 170204" transform="translate(32.806)">
                <path id="Trazado_206021" data-name="Trazado 206021" d="M-549.638,2092.292a8.285,8.285,0,0,1-8.286,8.285,8.285,8.285,0,0,1-8.286-8.285c0-4.576,3.71-5.952,8.286-5.952S-549.638,2087.716-549.638,2092.292Z" transform="translate(577.389 -2086.34)" fill="#2b2c33"/>
                <g id="Grupo_170203" data-name="Grupo 170203" transform="translate(0 5.006)">
                  <path id="Trazado_206022" data-name="Trazado 206022" d="M-594.256,2128c0-3.069.078-10.966,6.647-10.966,11.667,0,12.675-4.04,16.9-5.528,2.439,7.057,8.592,7.695,8.592,16.347,4.606-7.707,2.991-19.067-4.088-20.6,0,0-1.185-6.823-12-6.823-9.261.037-19.466,6.5-19.466,18.541C-597.679,2122.592-595.927,2126.574-594.256,2128Z" transform="translate(597.677 -2100.431)" fill="#33363d"/>
                </g>
              </g>
              <g id="Grupo_170210" data-name="Grupo 170210" transform="translate(63.109 52.014)">
                <g id="Grupo_170207" data-name="Grupo 170207" transform="translate(0.095 21.81)">
                  <g id="Grupo_170205" data-name="Grupo 170205" transform="translate(1.544)">
                    <path id="Trazado_206023" data-name="Trazado 206023" d="M-502.737,2323.917a6.632,6.632,0,0,0,1.861-1.022c3.174-2.452,5.175-8.051,5.945-16.641a90.259,90.259,0,0,0,.216-12.125l-.7.044c.014.226,1.338,22.584-5.889,28.166a6.4,6.4,0,0,1-6.246.787l-.22.668A7.678,7.678,0,0,0-502.737,2323.917Z" transform="translate(507.772 -2294.128)" fill="#a1a1a6"/>
                  </g>
                  <g id="Grupo_170206" data-name="Grupo 170206" transform="translate(0.819 0.662)">
                    <path id="Trazado_206024" data-name="Trazado 206024" d="M-498.532,2324.772a11.865,11.865,0,0,0,3.095-1.416l-.372-.6c-2.759,1.719-5.118,2.028-7.012.917-7.152-4.193-6.284-27.424-6.273-27.652l-.7-.033a114.085,114.085,0,0,0,.5,12.733c.883,8.46,2.942,13.695,6.12,15.558A5.816,5.816,0,0,0-498.532,2324.772Z" transform="translate(509.814 -2295.992)" fill="#a1a1a6"/>
                  </g>
                  <path id="Trazado_206025" data-name="Trazado 206025" d="M-511.846,2373.366c-.223.785-.661,1.229.474,1.552s2.236-.052,2.459-.837-.517-1.682-1.652-2S-511.623,2372.581-511.846,2373.366Z" transform="translate(512.118 -2344.336)" fill="#8a8a8f"/>
                  <path id="Trazado_206026" data-name="Trazado 206026" d="M-473.141,2368.479c.5.648,1.657.592,2.595-.124s.315-1.076-.181-1.724-.676-1.34-1.614-.623S-473.636,2367.832-473.141,2368.479Z" transform="translate(487.133 -2340.274)" fill="#8a8a8f"/>
                </g>
                <g id="Grupo_170208" data-name="Grupo 170208" transform="translate(0.578 14.14)">
                  <path id="Trazado_206027" data-name="Trazado 206027" d="M-510.758,2281.3c0-.178-.009-4.387,2.5-6.919a6.342,6.342,0,0,1,4.686-1.839c5.74,0,7.256,5.075,7.256,7.758,0,.246-1.419.246-1.419,0s-.09-6.339-5.837-6.339a4.975,4.975,0,0,0-3.674,1.416c-2.093,2.105-2.1,5.875-2.095,5.913C-509.337,2281.571-510.756,2281.582-510.758,2281.3Z" transform="translate(510.758 -2272.539)" fill="#59595b"/>
                </g>
                <g id="Grupo_170209" data-name="Grupo 170209">
                  <path id="Trazado_206028" data-name="Trazado 206028" d="M-505.682,2247.65c-.731-8.635-2.836-12.907-6.7-13.48l.012-1.43c4.609.54,7.308,5.378,8.106,14.79Z" transform="translate(512.385 -2232.74)" fill="#59595b"/>
                </g>
              </g>
              <g id="Grupo_170213" data-name="Grupo 170213" transform="translate(33.623 51.831)">
                <rect id="Rectángulo_48568" data-name="Rectángulo 48568" width="0.864" height="4.097" transform="translate(3.529 48.027)" fill="#a1a1a6"/>
                <g id="Grupo_170211" data-name="Grupo 170211" transform="translate(0 50.757)">
                  <path id="Trazado_206029" data-name="Trazado 206029" d="M-595.377,2379.048a3.961,3.961,0,0,0,3.961,3.961,3.961,3.961,0,0,0,3.961-3.961,3.962,3.962,0,0,0-3.961-3.961A3.962,3.962,0,0,0-595.377,2379.048Z" transform="translate(595.377 -2375.087)" fill="#babcbe"/>
                  <path id="Trazado_206030" data-name="Trazado 206030" d="M-593.8,2380.068a3.4,3.4,0,0,0,3.4,3.4,3.4,3.4,0,0,0,3.4-3.4,3.4,3.4,0,0,0-3.4-3.4A3.4,3.4,0,0,0-593.8,2380.068Z" transform="translate(594.358 -2376.107)" fill="#a1a1a6"/>
                  <path id="Trazado_206031" data-name="Trazado 206031" d="M-592.113,2381.153a2.8,2.8,0,0,0,2.8,2.8,2.8,2.8,0,0,0,2.8-2.8,2.8,2.8,0,0,0-2.8-2.8A2.8,2.8,0,0,0-592.113,2381.153Z" transform="translate(593.273 -2377.192)" fill="#e6e6e6"/>
                </g>
                <g id="Grupo_170212" data-name="Grupo 170212" transform="translate(2.973)">
                  <path id="Trazado_206032" data-name="Trazado 206032" d="M-585.348,2281.082c0,.272-1.419.272-1.419,0,0-3.721-.065-7.357-.129-10.873-.294-16.386-.547-30.539,6.449-37.535l.471-.449c0,.7.014,1.364.046,1.986-6.07,6.761-5.828,20.316-5.547,35.972C-585.413,2273.706-585.348,2277.348-585.348,2281.082Z" transform="translate(587.009 -2232.225)" fill="#59595b"/>
                </g>
              </g>
              <path id="Trazado_206033" data-name="Trazado 206033" d="M-462.419,2358.661q.886,12.772,5.693,21.7" transform="translate(543.28 -2261.909)" fill="none" stroke="#b3b3b3" stroke-miterlimit="10" stroke-width="0.616"/>
            </g>
          </g>
        </g>
      </g>
    </g>
  </g>
</svg>
