<svg xmlns="http://www.w3.org/2000/svg" width="400" height="338.522" viewBox="0 0 400 338.522">
  <g id="Grupo_170664" data-name="Grupo 170664" transform="translate(-1020 -4300.357)">
    <path id="Trazado_206989" data-name="Trazado 206989" d="M810.337,1383.933a105.488,105.488,0,0,1-19.8-32.9c-11.149-30.779-7.9-67.88,21.742-90.993,40.861-31.866,80.135-33,100.153-52.126,24.128-23.051,34.142-52.429,54.117-77.562,41.291-51.952,132.117-85.13,218.081-78.974v332.55Z" transform="translate(235.371 3249.709)" fill="#81d4fa" opacity="0.22" style="mix-blend-mode: multiply;isolation: isolate"/>
    <g id="Grupo_170651" data-name="Grupo 170651" transform="translate(582.015 4190.004)">
      <g id="Grupo_170643" data-name="Grupo 170643">
        <path id="Trazado_206875" data-name="Trazado 206875" d="M542.606,270.1c1.262-5.2-1.514-14.9-4.656-17.483l40.214-14.834c17.726-2.945,21.933,17.561,5.568,23.485a143.162,143.162,0,0,1-34.478,8.081C547.134,269.577,542.606,270.1,542.606,270.1Z" fill="#fff"/>
      </g>
      <g id="Grupo_170644" data-name="Grupo 170644">
        <path id="Trazado_206876" data-name="Trazado 206876" d="M614.428,430.032s-6.022,6.889-10.8,8.13-11.672,2.554-11.6,9.926h43.838c-.295-6.9-1.58-12.9-4.054-15.816-2.757.311-4.784.653-6.752.358C623.071,431.856,617.025,428,614.428,430.032Z" fill="#636363"/>
        <path id="Trazado_206877" data-name="Trazado 206877" d="M592.033,448.088c.387.529,43.839,0,43.839,0s.356-2.388,0-2.626-43.433-.967-43.788-.484A4.493,4.493,0,0,0,592.033,448.088Z" fill="#fff"/>
      </g>
      <g id="Grupo_170645" data-name="Grupo 170645">
        <path id="Trazado_206878" data-name="Trazado 206878" d="M671.343,432.033s1.716,5.728,5.714,6.682c4.775,1.241,9.8,2.555,9.727,9.926h-36.36c.294-6.9,1.3-13.17,3.776-16.091,2.757.311,5.061.928,7.029.633C663.225,432.409,668.746,430,671.343,432.033Z" fill="#636363"/>
        <path id="Trazado_206879" data-name="Trazado 206879" d="M686.784,448.641c-.386.529-36.36,0-36.36,0s-.49-2.722.188-3.108c.356-.239,35.766-.485,36.121,0A4.478,4.478,0,0,1,686.784,448.641Z" fill="#fff"/>
        <path id="Trazado_206880" data-name="Trazado 206880" d="M669.295,443.16l-.647-.379c2.956-5.049,9.023-4.285,9.085-4.276l-.1.743C677.576,439.24,672,438.549,669.295,443.16Z" fill="#420f2c"/>
      </g>
      <path id="Trazado_206881" data-name="Trazado 206881" d="M670.7,196.63c-11.362-6.811-19.982,1.817-19.062,10.029,1.379,9.842,27.576,46.72,29.756,49.037,12.255,16.207,25.664,6.151,22.466-8.555C702.644,239.875,684.636,204.984,670.7,196.63Z" fill="#fff"/>
      <path id="Trazado_206882" data-name="Trazado 206882" d="M625.185,210.389c2.462-13.015-8.615-18.12-16-14.417-8.758,4.7-34.3,42.029-35.723,44.876-10.97,17.1,3.1,26.208,15.795,18.122C595.652,255.316,622.164,226.355,625.185,210.389Z" fill="#fff"/>
      <path id="Trazado_206883" data-name="Trazado 206883" d="M648.43,197.449c-7.455,4.079-14.407,5.142-20.325,0V169.3H648.43Z" fill="#fca886"/>
      <path id="Trazado_206884" data-name="Trazado 206884" d="M664.891,277.6l-50.45-1.166c-2.323,2.929-13.8,50.748-12.41,82.015s9.968,73.916,10.1,73.949a53.274,53.274,0,0,0,20.761,1.456c1.38-26.407.594-52.746-3.085-74.114,4.524-15.133,9.578-49.9,9.578-49.9L653.6,433.379c4.081,1.463,15.28.483,19.6-.98C684.842,289.8,664.891,277.6,664.891,277.6Z" fill="#6fa0e8"/>
      <path id="Trazado_206885" data-name="Trazado 206885" d="M649.081,178.59c10.4-6.212,12.36-29.773,3.1-32.678l-31.019,3.13s-3.71,3.544.372,17.493Z"/>
      <path id="Trazado_206886" data-name="Trazado 206886" d="M649.082,178.59c-1.984,2.7-4.777,5.582-8.1,6.492-6.77,1.856-11.122.361-12.379-.472a18.688,18.688,0,0,1-6.545-9.017c-1.1-3.76-.569-28.183-.569-28.183l21.649-4.986,5.192,2.915,3.024,5.6.935,6.02c.925,5.124,1.632,10.069.855,13.8A31.817,31.817,0,0,1,649.082,178.59Z" fill="#fca886"/>
      <path id="Trazado_206887" data-name="Trazado 206887" d="M633.1,169.619c-.529-.136-3.162-.884-3.037-2.271a4.793,4.793,0,0,1,.69-1.54c.629-1.116,1.49-2.643,1.1-3.665a1.869,1.869,0,0,0-1.264-1.027l.246-.709a2.6,2.6,0,0,1,1.721,1.47c.51,1.35-.45,3.055-1.152,4.3a5.46,5.46,0,0,0-.6,1.239c-.047.535,1.409,1.2,2.478,1.477Z" fill="#d87f64"/>
      <path id="Trazado_206888" data-name="Trazado 206888" d="M638.1,163.282a1,1,0,1,0,1-1A1,1,0,0,0,638.1,163.282Z" fill="#7a3457"/>
      <path id="Trazado_206889" data-name="Trazado 206889" d="M624.922,163.282a1.068,1.068,0,1,0,1.065-1.07A1.067,1.067,0,0,0,624.922,163.282Z" fill="#7a3457"/>
      <path id="Trazado_206890" data-name="Trazado 206890" d="M650.972,166.222c-3.322-.692-3.959-9.034-4.412-15.33-4.261,2.132-22.308,1.772-25.2.059-3.415.052-7.939-13.806,6.006-14.068s27.355,5.3,25.278,10.992l.794,15.071Z"/>
      <path id="Trazado_206891" data-name="Trazado 206891" d="M641.109,159.808a6.645,6.645,0,0,0-4.01,0l-.235-.713a7.369,7.369,0,0,1,4.45,0Z" fill="#7a3457"/>
      <path id="Trazado_206892" data-name="Trazado 206892" d="M628,159.808a6.648,6.648,0,0,0-4.011,0l-.234-.713a7.369,7.369,0,0,1,4.45,0Z" fill="#7a3457"/>
      <path id="Trazado_206893" data-name="Trazado 206893" d="M638.886,309.91l-1-7.705a30.946,30.946,0,0,1-14.251-8.367l.734-.68a29.97,29.97,0,0,0,14.1,8.167l.325.085,1.085,8.371Z" fill="#377dd1"/>
      <path id="Trazado_206894" data-name="Trazado 206894" d="M646.7,151.242l-.271-.7c2.788-1.082,3.227-2.481,3.231-2.5l.724.2C650.361,148.315,649.882,150.005,646.7,151.242Z" fill="#420f2c"/>
      <path id="Trazado_206895" data-name="Trazado 206895" d="M632.3,150.992c-5.347-.076-8.667-1.012-10.451-2.945a6.353,6.353,0,0,1-1.506-4.927l.748.05a5.562,5.562,0,0,0,1.309,4.368c1.635,1.772,4.783,2.631,9.909,2.7Z" fill="#420f2c"/>
      <path id="Trazado_206896" data-name="Trazado 206896" d="M647.017,156.253a46.132,46.132,0,0,1-1.029,13.725c-.842,3.245-3.015,6.139-6.689,6.232-2.64.067-4.718-2.564-7.434-2.586-4.116-.042-8.612,5.973-10.184-.823,0,0-1.931,13.593,10.627,13.593,13.572,0,17.258-5.414,17.594-21.825C649.727,153.108,647.017,156.253,647.017,156.253Z"/>
      <path id="Trazado_206897" data-name="Trazado 206897" d="M632.309,172.852a9,9,0,0,1-4.019-.988l.332-.672a7.855,7.855,0,0,0,7.373,0l.332.672A9,9,0,0,1,632.309,172.852Z" fill="#7a3457"/>
      <g id="Grupo_170646" data-name="Grupo 170646">
        <path id="Trazado_206898" data-name="Trazado 206898" d="M650.9,159.653c.037-.052.074-.1.111-.154a4.756,4.756,0,0,1,1.536-1.408,4.048,4.048,0,0,1,4.039.286c4.986,3.4.224,13.369-5.2,12.294C649.2,169.839,649.723,161.326,650.9,159.653Z" fill="#fca886"/>
        <path id="Trazado_206899" data-name="Trazado 206899" d="M653.653,167.646l-.414-.625c1.995-1.323,2.781-3.791,2.152-5.113-.455-.957-1.449-.877-2.2-.641l-.224-.716c1.415-.445,2.575-.059,3.1,1.035C656.831,163.189,656.027,166.072,653.653,167.646Z" fill="#d87f64"/>
        <path id="Trazado_206900" data-name="Trazado 206900" d="M652.339,165.965l-.562-.5a5.492,5.492,0,0,1,3.991-1.588l0,.75A4.838,4.838,0,0,0,652.339,165.965Z" fill="#d87f64"/>
      </g>
      <path id="Trazado_206901" data-name="Trazado 206901" d="M652.728,171.23a3.312,3.312,0,0,1-2.471-1.1l.551-.509a2.524,2.524,0,0,0,2.3.831l.168.731A2.568,2.568,0,0,1,652.728,171.23Z" fill="#d87f64"/>
      <path id="Trazado_206902" data-name="Trazado 206902" d="M666.061,296.177c-.095-.014-9.442-1.458-10.921-9.594l.984-.18c1.349,7.422,9.992,8.771,10.08,8.783Z" fill="#377dd1"/>
      <path id="Trazado_206903" data-name="Trazado 206903" d="M625.655,361.044l-.234-.973,2.934-.707-4.577-2.111.418-.908,5.885,2.715a.5.5,0,0,1-.092.94Z" fill="#377dd1"/>
      <path id="Trazado_206904" data-name="Trazado 206904" d="M607.878,197c5.37-4.795,20.213-5.725,20.213-5.725s.582,6.619,8.028,6.619,12.311-6.629,12.311-6.629,16.923.629,23.923,6.434,1,84.446-3.581,86.771c-6.05,3.249-53.111,2.5-56.952-.26C608.216,282.082,601.435,202.9,607.878,197Z" fill="#fff"/>
      <path id="Trazado_206905" data-name="Trazado 206905" d="M628.1,188.046l-3.11,3.528a17.632,17.632,0,0,0,7.1,11.948l3.4-5.626C631.476,196.366,628.712,192.3,628.1,188.046Z" fill="#fff"/>
      <g id="Grupo_170647" data-name="Grupo 170647">
        <path id="Trazado_206906" data-name="Trazado 206906" d="M467.245,188.046l67.029,15.8L518.4,219.72,552.32,254.9H634.9l55.643,55.643-18.879,18.879L623.84,281.6H541.26l-41.741-43-15.444,15.443Z" fill="#00bcd4"/>
      </g>
      <path id="Trazado_206907" data-name="Trazado 206907" d="M636.3,197.882l3.559,5.454a23.956,23.956,0,0,0,11.75-11.844,11.573,11.573,0,0,0-3.182-5.236A19.649,19.649,0,0,1,636.3,197.882Z" fill="#fff"/>
      <path id="Trazado_206908" data-name="Trazado 206908" d="M639.587,203.829l-.091-.412a8.716,8.716,0,0,0-3.418-5.235l.449-.6a9.447,9.447,0,0,1,3.6,5.263c5.809-2.12,9.55-5.972,11.122-11.456l.721.207c-1.678,5.854-5.711,9.924-11.987,12.1Z" fill="#e8d3c5"/>
      <path id="Trazado_206909" data-name="Trazado 206909" d="M632.331,204.1l-.428-.253c-4.858-2.881-7.308-7.01-7.283-12.272l.75,0c-.023,4.895,2.1,8.618,6.5,11.368a10.544,10.544,0,0,1,3.393-5.34l.47.584a10.038,10.038,0,0,0-3.273,5.429Z" fill="#e8d3c5"/>
      <g id="Grupo_170648" data-name="Grupo 170648">
        <path id="Trazado_206910" data-name="Trazado 206910" d="M654.887,269.086a8.569,8.569,0,0,1-3.413,4.484c-4.348,2.874-12.713,5.789-12.713,5.789-1.974.862-4.428-1.495-2.612-2.622-2.9,2.16-5.236-1.07-3.438-2.646-2.768,1.188-4.069-2.584-1.838-3.451l9.4-4.072-10.437,4.341c-2.535.706-3.782-2.993-.761-4.043l12.042-5.744-3.446-3.445a18.927,18.927,0,0,1,9.018-1.07,9.9,9.9,0,0,1,3.4,1.025A10.219,10.219,0,0,1,654.887,269.086Z" fill="#fca886"/>
        <rect id="Rectángulo_49310" data-name="Rectángulo 49310" width="11.319" height="0.75" transform="translate(632.547 273.748) rotate(-25.628)" fill="#d87f64"/>
        <path id="Trazado_206911" data-name="Trazado 206911" d="M636.322,277.069l-.346-.666,8.9-4.633.346.666Z" fill="#d87f64"/>
        <rect id="Rectángulo_49311" data-name="Rectángulo 49311" width="11.568" height="0.75" transform="translate(630.548 270.22) rotate(-22.833)" fill="#d87f64"/>
        <rect id="Rectángulo_49312" data-name="Rectángulo 49312" width="3.257" height="0.75" transform="matrix(0.904, -0.427, 0.427, 0.904, 640.959, 260.783)" fill="#d87f64"/>
      </g>
      <g id="Grupo_170649" data-name="Grupo 170649">
        <path id="Trazado_206912" data-name="Trazado 206912" d="M653.482,273.615c1.263-5.195-1.514-14.9-4.655-17.483L689.041,241.3c17.726-2.945,21.933,17.561,5.567,23.484a143.1,143.1,0,0,1-34.478,8.081C658.011,273.091,653.482,273.615,653.482,273.615Z" fill="#fff"/>
      </g>
      <path id="Trazado_206913" data-name="Trazado 206913" d="M653.493,273.99l-.021-.75c6.89-.191,18.546-2.545,18.663-2.568l.148.734C672.166,271.431,660.447,273.8,653.493,273.99Z" fill="#e8d3c5"/>
      <path id="Trazado_206914" data-name="Trazado 206914" d="M648.957,256.483l-.26-.7,30.192-11.136c.121-.046,12.629-4.759,18.092,4.913l-.652.369c-5.144-9.1-17.056-4.628-17.175-4.581Z" fill="#e8d3c5"/>
      <path id="Trazado_206915" data-name="Trazado 206915" d="M675.562,246.436c-8.824-6.011-17.667-19.9-17.755-20.036l.634-.4c.087.139,8.848,13.9,17.543,19.818Z" fill="#e8d3c5"/>
      <path id="Trazado_206916" data-name="Trazado 206916" d="M605.721,242.242a143.785,143.785,0,0,1,0-32.076l.744.088a143.1,143.1,0,0,0,0,31.912Z" fill="#e8d3c5"/>
      <g id="Grupo_170650" data-name="Grupo 170650">
        <path id="Trazado_206917" data-name="Trazado 206917" d="M520.011,262.585c1.95-2.423,2.723-2.709,2.723-2.709,2.4-2.074,4.664.3,3.2,1.856,2.238-2.838,5.335-.325,4.007,1.663,2.364-1.865,4.6,1.441,2.669,2.857l-3.571,3.156,3.676-3.221a2.1,2.1,0,0,1,2.608,3.244s-.17.648-4.294,3.5c-2.341,1.839-4.31-1.531-3.389-2.411-1.014.916-3.559-1.8-2.664-3.044-1.513,1.023-3.285-1.892-2.464-2.753C521.292,265.974,519.108,263.569,520.011,262.585Z" fill="#fca886"/>
        <rect id="Rectángulo_49313" data-name="Rectángulo 49313" width="6.424" height="0.751" transform="matrix(0.773, -0.635, 0.635, 0.773, 524.742, 267.182)" fill="#d87f64"/>
        <path id="Trazado_206918" data-name="Trazado 206918" d="M522.762,265l-.494-.565,3.422-2.987.494.565Z" fill="#d87f64"/>
        <rect id="Rectángulo_49314" data-name="Rectángulo 49314" width="6.837" height="0.749" transform="translate(527.291 270.334) rotate(-39.503)" fill="#d87f64"/>
      </g>
      <path id="Trazado_206919" data-name="Trazado 206919" d="M579.839,244.19l-4.846-3.95.757,3.581-.734.156-.976-4.621a.375.375,0,0,1,.605-.368l5.668,4.62Z" fill="#e8d3c5"/>
      <path id="Trazado_206920" data-name="Trazado 206920" d="M641.037,165.9h-4.989a2.554,2.554,0,0,1-2.552-2.551v-.13a2.555,2.555,0,0,1,2.552-2.552h4.989a2.555,2.555,0,0,1,2.552,2.552v.13A2.554,2.554,0,0,1,641.037,165.9Zm-4.989-4.733A2.054,2.054,0,0,0,634,163.215v.13a2.054,2.054,0,0,0,2.052,2.051h4.989a2.054,2.054,0,0,0,2.052-2.051v-.13a2.054,2.054,0,0,0-2.052-2.052Z" fill="#fff"/>
      <path id="Trazado_206921" data-name="Trazado 206921" d="M627.7,165.9H622.71a2.554,2.554,0,0,1-2.552-2.551v-.13a2.555,2.555,0,0,1,2.552-2.552H627.7a2.555,2.555,0,0,1,2.552,2.552v.13A2.554,2.554,0,0,1,627.7,165.9Zm-4.989-4.733a2.054,2.054,0,0,0-2.052,2.052v.13a2.054,2.054,0,0,0,2.052,2.051H627.7a2.054,2.054,0,0,0,2.052-2.051v-.13a2.054,2.054,0,0,0-2.052-2.052Z" fill="#fff"/>
      <path id="Trazado_206922" data-name="Trazado 206922" d="M629.644,161.826l-.37-.338a3.7,3.7,0,0,1,2.957-1.24,3.063,3.063,0,0,1,2.332,1.265l-.408.289a2.561,2.561,0,0,0-1.956-1.054A3.211,3.211,0,0,0,629.644,161.826Z" fill="#fff"/>
      <path id="Trazado_206923" data-name="Trazado 206923" d="M643.428,163.264l-.2-.457,7.577-3.383.2.457Z" fill="#fff"/>
      <path id="Trazado_206924" data-name="Trazado 206924" d="M667.565,360.869a13.241,13.241,0,0,1-5.79-1.745l.455-.891c5.448,2.785,7.529,1.4,8.62.121l.761.649A5.051,5.051,0,0,1,667.565,360.869Z" fill="#377dd1"/>
    </g>
  </g>
</svg>
