<svg xmlns="http://www.w3.org/2000/svg" width="295" height="381.338" viewBox="0 0 295 381.338">
  <g id="Grupo_170658" data-name="Grupo 170658" transform="translate(-180 -3289.247)">
    <g id="Grupo_151350" data-name="Grupo 151350" transform="translate(-0.287 -853.915)">
      <line id="Línea_357" data-name="Línea 357" x2="295" transform="translate(180.287 4523)" fill="none" stroke="#707070" stroke-width="3"/>
    </g>
    <g id="Grupo_156233" data-name="Grupo 156233" transform="translate(-1690.703 2056.597)">
      <g id="Grupo_156076" data-name="Grupo 156076" transform="translate(1896.086 1370.322)">
        <path id="Trazado_190673" data-name="Trazado 190673" d="M2114.447,2170.017c-2.366-.139-4.377-.359-5.848-.507-1.641-.161-2.609-.23-2.646.018l3.226,47.265.414,6.055H1932.24l.284-6.055,2.2-46.953a.2.2,0,0,0-.066-.133c-.37-.379-2.272-.7-5.048-1.344-10.752-2.493-34.617-9.821-33.48-44.015,1.8-54.029,5.6-94.429,33.48-118.4a78.4,78.4,0,0,1,14.928-10.032q2.168-1.132,4.47-2.181c13.5-6.157,30.547-10.192,52.118-11.984,9.023-.748,18.841-1.106,29.527-1.061q8.376.034,15.951.455h.027c20.214,1.12,36.329,4.269,49.244,9.249a82.539,82.539,0,0,1,18.576,9.859c32.513,23.336,34.377,66.162,39.825,120.923C2158.969,2168.395,2129.523,2170.9,2114.447,2170.017Z" transform="translate(-1896.086 -1980.682)" fill="#d1effc"/>
      </g>
      <path id="Trazado_190674" data-name="Trazado 190674" d="M2563.088,2169.8l-5.224-47.337.988-.012,2.134-7.33h-15.2l2.062,7.462.675-.008-4.257,47.224Z" transform="translate(-528.883 -720.059)"/>
      <path id="Trazado_190675" data-name="Trazado 190675" d="M2269.88,2224.881H2092.526l.283-6.055,2.2-46.953a.2.2,0,0,0-.066-.133l14.35-175.977a111.618,111.618,0,0,1,14.377-5.343q5.6-1.676,11.858-2.993a211.2,211.2,0,0,1,25.883-3.647c9.023-.748,24.761,78.911,24.761,78.911s15.627-79.517,20.717-79.517h.027a217.733,217.733,0,0,1,23.388,2.476q6.242,1.027,11.821,2.407a116.467,116.467,0,0,1,14.034,4.366l12.728,179.12c-1.641-.161-2.609-.23-2.646.019l3.227,47.265Z" transform="translate(-160.287 -612.393)" fill="#ff9d00"/>
      <path id="Trazado_190676" data-name="Trazado 190676" d="M2623.311,2698.484l-100.2,24.457-1.885,28.691,100.524,3.872Z" transform="translate(-510.084 -1196.054)" fill="#d1effc"/>
      <g id="Grupo_156079" data-name="Grupo 156079" transform="translate(2043.071 1388.298)">
        <g id="Grupo_156078" data-name="Grupo 156078">
          <g id="Grupo_156077" data-name="Grupo 156077">
            <path id="Trazado_190677" data-name="Trazado 190677" d="M2694.723,2078.358" transform="translate(-2694.723 -2078.358)" fill="#d8a87d"/>
          </g>
        </g>
      </g>
      <path id="Trazado_190678" data-name="Trazado 190678" d="M2237.853,2006.286l-8.3,129.943-11.621-.742L2226,2009.28Q2231.6,2007.6,2237.853,2006.286Z" transform="translate(-262.615 -631.252)" fill="#a7aca6"/>
      <path id="Trazado_190679" data-name="Trazado 190679" d="M2065.617,2609.174l126.963-8.205,6.751,31.163s-69.417,25.015-120.882,43.551c-1.286.463-5.466.151-5.466.151Z" transform="translate(-138.33 -1116.487)" fill="#d1effc"/>
      <path id="Trazado_190680" data-name="Trazado 190680" d="M2861.153,2127.609l-11.621.743-8.411-131.719q6.242,1.027,11.821,2.407Z" transform="translate(-771.107 -623.375)" fill="#a7aca6"/>
      <g id="Grupo_156080" data-name="Grupo 156080" transform="translate(1921.781 1460.29)">
        <path id="Trazado_190681" data-name="Trazado 190681" d="M2090.65,2498.385s-6.4-14.111-12.052-16.932-22.8-13.4-27.229-11.759c-3.794,1.411-1.339,5.174-1.339,5.174s-12.052-5.174-13.984-1.411c-1.828,3.56,4.164,6.82,4.164,6.82s-2.745-1.019-4.051,2.43,9.11,9.094,9.11,9.094-3.385.04-4.166,1.411c-2.009,3.528,10.118,8.623,10.118,8.623Z" transform="translate(-2035.699 -2469.521)" fill="#d39c72"/>
      </g>
      <g id="Grupo_156081" data-name="Grupo 156081" transform="translate(1976.732 1532.965)">
        <path id="Trazado_190682" data-name="Trazado 190682" d="M2370.565,2864.4l-1.8,21.1-34.493-8.317Z" transform="translate(-2334.273 -2864.397)" fill="#d39c72"/>
      </g>
      <g id="Grupo_156082" data-name="Grupo 156082" transform="translate(1935.24 1483.985)">
        <path id="Trazado_190683" data-name="Trazado 190683" d="M2108.9,2606.971l-.068-1.2,118.942-7.5.068,1.2Z" transform="translate(-2108.827 -2598.269)" fill="#d85f05"/>
      </g>
      <g id="Grupo_156083" data-name="Grupo 156083" transform="translate(1945.793 1515.224)">
        <path id="Trazado_190684" data-name="Trazado 190684" d="M2166.534,2810.269l-.366-1.137L2281.376,2768l.366,1.137Z" transform="translate(-2166.168 -2768.003)" fill="#d85f05"/>
      </g>
      <g id="Grupo_156084" data-name="Grupo 156084" transform="translate(2011.139 1554.398)">
        <rect id="Rectángulo_46234" data-name="Rectángulo 46234" width="1.182" height="95.177" transform="translate(0 1.18) rotate(-87.313)" fill="#d85f05"/>
      </g>
      <g id="Grupo_156085" data-name="Grupo 156085" transform="translate(2053.718 1484.585)">
        <path id="Trazado_190685" data-name="Trazado 190685" d="M2752.57,2601.525s20.353.932,29.174,1.588c10.761.8,19.906,2.79,21.3,2.374.9,4.42,1.732,18.825,1.732,18.825s-3.884,3.048-34.09,6.986c-6.41.835-10.77,1.436-10.77,1.436Z" transform="translate(-2752.57 -2601.525)" fill="#d39c72"/>
      </g>
      <g id="Grupo_156086" data-name="Grupo 156086" transform="translate(1936.686 1465.131)">
        <path id="Trazado_190686" data-name="Trazado 190686" d="M2142.311,2511.944c-.026-.026-2.639-2.587-6.233-5.473-3.563-2.86-19.237-9.591-19.395-9.659l.381-.989c.65.278,15.958,6.852,19.627,9.8,3.636,2.919,6.284,5.515,6.31,5.541Z" transform="translate(-2116.683 -2495.824)" fill="#a1542e"/>
      </g>
      <g id="Grupo_156087" data-name="Grupo 156087" transform="translate(1926.157 1470.531)">
        <path id="Trazado_190687" data-name="Trazado 190687" d="M2089.012,2540.476c-.052-.051-5.222-5.122-8.444-7.087s-20.914-7.141-21.092-7.193l.271-1.029c.733.214,18,5.268,21.33,7.3s8.413,7.019,8.628,7.231Z" transform="translate(-2059.475 -2525.167)" fill="#a1542e"/>
      </g>
      <g id="Grupo_156088" data-name="Grupo 156088" transform="translate(1932.083 1481.804)">
        <path id="Trazado_190688" data-name="Trazado 190688" d="M2107.14,2594.712c-.035-.027-3.51-2.775-5.239-4.232-1.346-1.135-7.838-2.559-10.226-3.012l.179-1.051c.9.171,8.889,1.719,10.679,3.229,1.716,1.447,5.179,4.184,5.214,4.212Z" transform="translate(-2091.676 -2586.417)" fill="#a1542e"/>
      </g>
      <g id="Grupo_156089" data-name="Grupo 156089" transform="translate(2101.711 1464.277)">
        <path id="Trazado_190689" data-name="Trazado 190689" d="M3017.053,2534.632l-3.715-43.339,1.135-.108,3.715,43.34Z" transform="translate(-3013.338 -2491.184)" fill="#d85f05"/>
      </g>
      <g id="Grupo_156092" data-name="Grupo 156092" transform="translate(2040.677 1361.863)">
        <g id="Grupo_156091" data-name="Grupo 156091">
          <g id="Grupo_156090" data-name="Grupo 156090">
            <path id="Trazado_190690" data-name="Trazado 190690" d="M2681.717,1934.721" transform="translate(-2681.717 -1934.721)" fill="#d8a87d"/>
          </g>
        </g>
      </g>
      <g id="Grupo_156093" data-name="Grupo 156093" transform="translate(2002.374 1338.562)">
        <path id="Trazado_190691" data-name="Trazado 190691" d="M2517.061,1844.14h0v-36.023h-43.424v35.463a1.545,1.545,0,0,0-.04.275C2473.6,1872.816,2517.641,1870.524,2517.061,1844.14Z" transform="translate(-2473.597 -1808.117)" fill="#d39c72"/>
      </g>
      <g id="Grupo_156099" data-name="Grupo 156099" transform="translate(1981.792 1249.361)">
        <g id="Grupo_156098" data-name="Grupo 156098" transform="translate(0 0)">
          <g id="Grupo_156097" data-name="Grupo 156097">
            <g id="Grupo_156096" data-name="Grupo 156096">
              <g id="Grupo_156095" data-name="Grupo 156095">
                <g id="Grupo_156094" data-name="Grupo 156094">
                  <path id="Trazado_190692" data-name="Trazado 190692" d="M2449.21,1377.6c0,29.905-16.225,66.233-43.722,66.208-29.168-.026-43.721-36.3-43.721-66.208s19.575-54.148,43.721-54.148S2449.21,1347.692,2449.21,1377.6Z" transform="translate(-2361.767 -1323.449)" fill="#d39c72"/>
                </g>
              </g>
            </g>
          </g>
        </g>
      </g>
      <g id="Grupo_156105" data-name="Grupo 156105" transform="translate(2002.019 1358.542)">
        <g id="Grupo_156104" data-name="Grupo 156104" transform="translate(0 0)">
          <g id="Grupo_156103" data-name="Grupo 156103">
            <g id="Grupo_156102" data-name="Grupo 156102">
              <g id="Grupo_156101" data-name="Grupo 156101">
                <g id="Grupo_156100" data-name="Grupo 156100">
                  <path id="Trazado_190693" data-name="Trazado 190693" d="M2494.293,1926.391a33.76,33.76,0,0,1-16.036-4.463,38.25,38.25,0,0,1-6.588-4.509l.668-.743a38.032,38.032,0,0,0,6.425,4.39,32.751,32.751,0,0,0,15.525,4.325Z" transform="translate(-2471.67 -1916.677)" fill="#a1542e"/>
                </g>
              </g>
            </g>
          </g>
        </g>
      </g>
      <g id="Grupo_156119" data-name="Grupo 156119" transform="translate(1971.052 1296.777)">
        <g id="Grupo_156118" data-name="Grupo 156118" transform="translate(0 0)">
          <g id="Grupo_156117" data-name="Grupo 156117">
            <g id="Grupo_156116" data-name="Grupo 156116">
              <g id="Grupo_156115" data-name="Grupo 156115">
                <g id="Grupo_156114" data-name="Grupo 156114">
                  <g id="Grupo_156113" data-name="Grupo 156113">
                    <g id="Grupo_156112" data-name="Grupo 156112">
                      <g id="Grupo_156111" data-name="Grupo 156111">
                        <g id="Grupo_156110" data-name="Grupo 156110">
                          <g id="Grupo_156109" data-name="Grupo 156109">
                            <g id="Grupo_156108" data-name="Grupo 156108">
                              <g id="Grupo_156107" data-name="Grupo 156107">
                                <g id="Grupo_156106" data-name="Grupo 156106">
                                  <ellipse id="Elipse_4975" data-name="Elipse 4975" cx="9.14" cy="14.575" rx="9.14" ry="14.575" transform="matrix(0.95, -0.312, 0.312, 0.95, 0, 5.697)" fill="#d39c72"/>
                                </g>
                              </g>
                            </g>
                          </g>
                        </g>
                      </g>
                    </g>
                  </g>
                </g>
              </g>
            </g>
          </g>
        </g>
      </g>
      <g id="Grupo_156134" data-name="Grupo 156134" transform="translate(1979.129 1305.158)">
        <g id="Grupo_156133" data-name="Grupo 156133" transform="translate(0)">
          <g id="Grupo_156132" data-name="Grupo 156132">
            <g id="Grupo_156131" data-name="Grupo 156131">
              <g id="Grupo_156130" data-name="Grupo 156130">
                <g id="Grupo_156129" data-name="Grupo 156129">
                  <g id="Grupo_156128" data-name="Grupo 156128">
                    <g id="Grupo_156127" data-name="Grupo 156127">
                      <g id="Grupo_156126" data-name="Grupo 156126">
                        <g id="Grupo_156125" data-name="Grupo 156125">
                          <g id="Grupo_156124" data-name="Grupo 156124">
                            <g id="Grupo_156123" data-name="Grupo 156123">
                              <g id="Grupo_156122" data-name="Grupo 156122">
                                <g id="Grupo_156121" data-name="Grupo 156121">
                                  <g id="Grupo_156120" data-name="Grupo 156120">
                                    <path id="Trazado_190694" data-name="Trazado 190694" d="M2352.673,1642.023c-.21-.142-5.149-3.533-5.366-8.231-.118-2.556,1.185-4.969,3.873-7.173l.683.833c-2.409,1.975-3.58,4.09-3.48,6.286.189,4.156,4.846,7.36,4.893,7.392Z" transform="translate(-2347.3 -1626.619)" fill="#a1542e"/>
                                  </g>
                                </g>
                              </g>
                            </g>
                          </g>
                        </g>
                      </g>
                    </g>
                  </g>
                </g>
              </g>
            </g>
          </g>
        </g>
      </g>
      <g id="Grupo_156148" data-name="Grupo 156148" transform="translate(2051.107 1296.599)">
        <g id="Grupo_156147" data-name="Grupo 156147" transform="translate(0 0)">
          <g id="Grupo_156146" data-name="Grupo 156146">
            <g id="Grupo_156145" data-name="Grupo 156145">
              <g id="Grupo_156144" data-name="Grupo 156144">
                <g id="Grupo_156143" data-name="Grupo 156143">
                  <g id="Grupo_156142" data-name="Grupo 156142">
                    <g id="Grupo_156141" data-name="Grupo 156141">
                      <g id="Grupo_156140" data-name="Grupo 156140">
                        <g id="Grupo_156139" data-name="Grupo 156139">
                          <g id="Grupo_156138" data-name="Grupo 156138">
                            <g id="Grupo_156137" data-name="Grupo 156137">
                              <g id="Grupo_156136" data-name="Grupo 156136">
                                <g id="Grupo_156135" data-name="Grupo 156135">
                                  <ellipse id="Elipse_4976" data-name="Elipse 4976" cx="14.575" cy="9.14" rx="14.575" ry="9.14" transform="translate(0 27.699) rotate(-71.843)" fill="#d39c72"/>
                                </g>
                              </g>
                            </g>
                          </g>
                        </g>
                      </g>
                    </g>
                  </g>
                </g>
              </g>
            </g>
          </g>
        </g>
      </g>
      <g id="Grupo_156154" data-name="Grupo 156154" transform="translate(2025.296 1307.391)">
        <g id="Grupo_156153" data-name="Grupo 156153" transform="translate(0 0)">
          <g id="Grupo_156152" data-name="Grupo 156152">
            <g id="Grupo_156151" data-name="Grupo 156151">
              <g id="Grupo_156150" data-name="Grupo 156150">
                <g id="Grupo_156149" data-name="Grupo 156149">
                  <path id="Trazado_190695" data-name="Trazado 190695" d="M2602.145,1668.639c-2.058,0-3.888-.143-4-.152l.084-1.465a45.322,45.322,0,0,0,6.89.011c.171-.412.494-2.675-2.677-14.549-1.79-6.7-3.816-13.161-3.837-13.225l1.168-.51c.02.064,2.029,6.466,3.819,13.151,3.7,13.812,2.869,15.374,2.558,15.963a1.089,1.089,0,0,1-.824.622A28.133,28.133,0,0,1,2602.145,1668.639Z" transform="translate(-2598.142 -1638.749)" fill="#160707"/>
                </g>
              </g>
            </g>
          </g>
        </g>
      </g>
      <g id="Grupo_156159" data-name="Grupo 156159" transform="translate(2002.682 1309.594)">
        <g id="Grupo_156158" data-name="Grupo 156158" transform="translate(0 0)">
          <g id="Grupo_156157" data-name="Grupo 156157">
            <g id="Grupo_156156" data-name="Grupo 156156">
              <g id="Grupo_156155" data-name="Grupo 156155">
                <ellipse id="Elipse_4977" data-name="Elipse 4977" cx="3.845" cy="5.841" rx="3.845" ry="5.841" fill="#160707"/>
              </g>
            </g>
          </g>
        </g>
      </g>
      <g id="Grupo_156164" data-name="Grupo 156164" transform="translate(2040.654 1309.225)">
        <g id="Grupo_156163" data-name="Grupo 156163" transform="translate(0 0)">
          <g id="Grupo_156162" data-name="Grupo 156162">
            <g id="Grupo_156161" data-name="Grupo 156161">
              <g id="Grupo_156160" data-name="Grupo 156160">
                <ellipse id="Elipse_4978" data-name="Elipse 4978" cx="3.845" cy="5.841" rx="3.845" ry="5.841" fill="#160707"/>
              </g>
            </g>
          </g>
        </g>
      </g>
      <g id="Grupo_156169" data-name="Grupo 156169" transform="translate(1979.907 1250.36)">
        <g id="Grupo_156168" data-name="Grupo 156168" transform="translate(0 0)">
          <g id="Grupo_156167" data-name="Grupo 156167">
            <g id="Grupo_156166" data-name="Grupo 156166">
              <g id="Grupo_156165" data-name="Grupo 156165">
                <path id="Trazado_190696" data-name="Trazado 190696" d="M2377.749,1350.246l-20.37,38.445-4.659-10.963s-2.151-20.042-.687-27.482c2.162-10.983,7.472-19.369,18.1-21.259S2377.749,1350.246,2377.749,1350.246Z" transform="translate(-2351.522 -1328.877)" fill="#160707"/>
              </g>
            </g>
          </g>
        </g>
      </g>
      <g id="Grupo_156190" data-name="Grupo 156190" transform="translate(2002.732 1240.224)">
        <g id="Grupo_156174" data-name="Grupo 156174" transform="translate(49.459 55.036)">
          <g id="Grupo_156173" data-name="Grupo 156173">
            <g id="Grupo_156172" data-name="Grupo 156172">
              <g id="Grupo_156171" data-name="Grupo 156171">
                <g id="Grupo_156170" data-name="Grupo 156170">
                  <path id="Trazado_190697" data-name="Trazado 190697" d="M2744.277,1572.843c.02.05.022.048,0,0Z" transform="translate(-2744.277 -1572.843)" fill="#160707"/>
                </g>
              </g>
            </g>
          </g>
        </g>
        <g id="Grupo_156179" data-name="Grupo 156179" transform="translate(69.154 34.439)">
          <g id="Grupo_156178" data-name="Grupo 156178">
            <g id="Grupo_156177" data-name="Grupo 156177">
              <g id="Grupo_156176" data-name="Grupo 156176">
                <g id="Grupo_156175" data-name="Grupo 156175">
                  <path id="Trazado_190698" data-name="Trazado 190698" d="M2851.287,1460.928c0,.054,0,.052,0,0Z" transform="translate(-2851.287 -1460.928)" fill="#160707"/>
                </g>
              </g>
            </g>
          </g>
        </g>
        <g id="Grupo_156184" data-name="Grupo 156184" transform="translate(69.386 41.649)">
          <g id="Grupo_156183" data-name="Grupo 156183">
            <g id="Grupo_156182" data-name="Grupo 156182">
              <g id="Grupo_156181" data-name="Grupo 156181">
                <g id="Grupo_156180" data-name="Grupo 156180">
                  <path id="Trazado_190699" data-name="Trazado 190699" d="M2852.55,1500.106c0,.054,0,.052,0,0Z" transform="translate(-2852.55 -1500.106)" fill="#160707"/>
                </g>
              </g>
            </g>
          </g>
        </g>
        <g id="Grupo_156189" data-name="Grupo 156189" transform="translate(0)">
          <g id="Grupo_156188" data-name="Grupo 156188">
            <g id="Grupo_156187" data-name="Grupo 156187">
              <g id="Grupo_156186" data-name="Grupo 156186">
                <g id="Grupo_156185" data-name="Grupo 156185">
                  <path id="Trazado_190700" data-name="Trazado 190700" d="M2544.988,1314.757c.533-3.664-.745-7.343-2.5-10.464q-.033-.249-.068-.5c2,2.535,2.252,4.178,2.277,4.449,0-.086.031-.311.058-.7.177-2.479-2.689-11.378-5.594-15a17.327,17.327,0,0,0-3.457-4.717c-4.369-4.117-15.03-12.759-28.18-13.7-18.715-1.339-24.622,1.519-28.889,7.545-5.864,8.281-1.79,14.592-.668,20.184a11.108,11.108,0,0,0,3.135,5.777,32.216,32.216,0,0,0,12.222,7.506c3.508,1.151,6.455,2.2,10.85,3.243,3.385,1.369,7.46,2.95,12.354,4.759,6.73,2.487,8.307,5.344,8.474,5.7a4.434,4.434,0,0,1-.184-.676,14.822,14.822,0,0,0-3.7-6.833c10.589,1.9,20.527,12.58,20.573,11.695.078-1.529,1.649-11.184,1.353-21.513a8.82,8.82,0,0,1,1.89,3.94A4.413,4.413,0,0,1,2544.988,1314.757Z" transform="translate(-2475.544 -1273.805)" fill="#160707"/>
                </g>
              </g>
            </g>
          </g>
        </g>
      </g>
      <g id="Grupo_156192" data-name="Grupo 156192" transform="translate(2017.843 1288.778)">
        <g id="Grupo_156191" data-name="Grupo 156191">
          <path id="Trazado_190701" data-name="Trazado 190701" d="M2559.5,1538.459c-.51-.094-1-.194-1.475-.3l-.38.974c.522.116,1.07.229,1.641.334a34.866,34.866,0,0,0,17.169-.871l-.331-.978A33.83,33.83,0,0,1,2559.5,1538.459Z" transform="translate(-2557.649 -1537.62)" fill="#a1542e"/>
        </g>
      </g>
      <g id="Grupo_156194" data-name="Grupo 156194" transform="translate(2015.021 1296.054)">
        <g id="Grupo_156193" data-name="Grupo 156193" transform="translate(0 0)">
          <path id="Trazado_190702" data-name="Trazado 190702" d="M2544.889,1577.537q-.953-.186-1.827-.387l-.749.977q.966.223,2.033.434a57.2,57.2,0,0,0,22.422.065l-.169-1.02A55.493,55.493,0,0,1,2544.889,1577.537Z" transform="translate(-2542.313 -1577.15)" fill="#a1542e"/>
        </g>
      </g>
      <g id="Grupo_156195" data-name="Grupo 156195" transform="translate(1991.58 1310.615)">
        <path id="Trazado_190703" data-name="Trazado 190703" d="M2414.949,1656.267v1.047a18.766,18.766,0,0,1,4.747,2.031l.227-.974A19.192,19.192,0,0,0,2414.949,1656.267Z" transform="translate(-2414.949 -1656.267)" fill="#a1542e"/>
      </g>
      <g id="Grupo_156196" data-name="Grupo 156196" transform="translate(1991.404 1315.153)">
        <path id="Trazado_190704" data-name="Trazado 190704" d="M2414,1682.882l.349.905a18.289,18.289,0,0,1,4.78-1.847l-.128-1.014A18.8,18.8,0,0,0,2414,1682.882Z" transform="translate(-2413.995 -1680.927)" fill="#a1542e"/>
      </g>
      <g id="Grupo_156197" data-name="Grupo 156197" transform="translate(2054.156 1311.196)">
        <path id="Trazado_190705" data-name="Trazado 190705" d="M2759.929,1659.424v1.047a18.78,18.78,0,0,0-4.747,2.031l-.227-.974A19.193,19.193,0,0,1,2759.929,1659.424Z" transform="translate(-2754.955 -1659.424)" fill="#a1542e"/>
      </g>
      <g id="Grupo_156198" data-name="Grupo 156198" transform="translate(2054.177 1315.734)">
        <path id="Trazado_190706" data-name="Trazado 190706" d="M2760.195,1686.039l-.349.905a18.305,18.305,0,0,0-4.78-1.846l.129-1.014A18.8,18.8,0,0,1,2760.195,1686.039Z" transform="translate(-2755.066 -1684.084)" fill="#a1542e"/>
      </g>
      <g id="Grupo_156203" data-name="Grupo 156203" transform="translate(2017.447 1342.143)">
        <g id="Grupo_156202" data-name="Grupo 156202">
          <g id="Grupo_156201" data-name="Grupo 156201">
            <g id="Grupo_156200" data-name="Grupo 156200">
              <g id="Grupo_156199" data-name="Grupo 156199">
                <path id="Trazado_190707" data-name="Trazado 190707" d="M2562.8,1834.388a8.99,8.99,0,0,1-1.856-.592,11.36,11.36,0,0,1-5.447-5.9l1.131-.309-.447.15.8-.163a7.887,7.887,0,0,0,4.329,4.655c2.523,1.116,5.607,1.017,9.155-.529l.4,1.458A13.5,13.5,0,0,1,2562.8,1834.388Z" transform="translate(-2555.498 -1827.572)" fill="#160707"/>
              </g>
            </g>
          </g>
        </g>
      </g>
      <g id="Grupo_156208" data-name="Grupo 156208" transform="translate(2039.384 1303.529)">
        <g id="Grupo_156207" data-name="Grupo 156207" transform="translate(0 0)">
          <g id="Grupo_156206" data-name="Grupo 156206">
            <g id="Grupo_156205" data-name="Grupo 156205">
              <g id="Grupo_156204" data-name="Grupo 156204">
                <path id="Trazado_190708" data-name="Trazado 190708" d="M2691.922,1621.419c-.13-.043-9.224-2.218-16.584-.692l-.647-2.285c4.2-.872,4.708-.722,9.991-.51a29.813,29.813,0,0,1,7.389,1.315Z" transform="translate(-2674.69 -1617.768)" fill="#160707"/>
              </g>
            </g>
          </g>
        </g>
      </g>
      <g id="Grupo_156213" data-name="Grupo 156213" transform="translate(1996.365 1303.612)">
        <g id="Grupo_156212" data-name="Grupo 156212">
          <g id="Grupo_156211" data-name="Grupo 156211">
            <g id="Grupo_156210" data-name="Grupo 156210">
              <g id="Grupo_156209" data-name="Grupo 156209">
                <path id="Trazado_190709" data-name="Trazado 190709" d="M2441.041,1621.57c.131-.04,9.278-1.978,16.6-.262l.707-2.267c-4.177-.981-4.687-.844-9.975-.769a29.821,29.821,0,0,0-7.421,1.123Z" transform="translate(-2440.949 -1618.22)" fill="#160707"/>
              </g>
            </g>
          </g>
        </g>
      </g>
      <path id="Trazado_190710" data-name="Trazado 190710" d="M2461.166,1943.068l19.712,31.809-12.111,13.729-11.832-37.566v-7.973Z" transform="translate(-457.628 -579.669)" fill="#d1effc"/>
      <path id="Trazado_190711" data-name="Trazado 190711" d="M2621.041,1943.238l-19.712,31.809,12.111,13.729,11.832-37.7v-7.84Z" transform="translate(-575.447 -579.807)" fill="#d1effc"/>
      <g id="Grupo_156214" data-name="Grupo 156214" transform="translate(1987.563 1297.024)">
        <path id="Trazado_190712" data-name="Trazado 190712" d="M2393.12,1598.485q0,.624.047,1.235c.02.251.043.5.074.749.016.141.035.282.059.423a16.061,16.061,0,0,0,31.92-1.612h11.729a16.062,16.062,0,1,0,0-1.592h-11.729a16.063,16.063,0,0,0-31.379-3.98v0a15.83,15.83,0,0,0-.541,2.364q-.036.212-.059.424c-.031.247-.055.5-.074.749Q2393.12,1597.861,2393.12,1598.485Zm45.535,0a14.3,14.3,0,0,1,5.286-11.117c.31-.255.627-.494.957-.718a14.206,14.206,0,0,1,6.9-2.451c.392-.035.792-.051,1.192-.051a14.263,14.263,0,0,1,10.07,4.137c.342.333.663.686.969,1.051a13.926,13.926,0,0,1,1.369,1.961,14.343,14.343,0,0,1-4.494,19.145c-.118.078-.235.157-.357.231a14.342,14.342,0,0,1-21.894-12.188Zm-43.669-2.02a14.288,14.288,0,0,1,4.929-8.917c.306-.263.619-.51.949-.741a14.261,14.261,0,0,1,8.317-2.659q.259,0,.518.012a14.138,14.138,0,0,1,4.439.871,14.337,14.337,0,0,1,9.368,13.129.839.839,0,0,0-.07.325.826.826,0,0,0,.07.326,14.347,14.347,0,0,1-.647,3.96l-.105.329a14.379,14.379,0,0,1-5.89,7.49,14.3,14.3,0,0,1-7.682,2.231,14.349,14.349,0,0,1-14.2-16.356Z" transform="translate(-2393.12 -1582.423)" fill="#160707"/>
      </g>
      <g id="Grupo_156215" data-name="Grupo 156215" transform="translate(1998.771 1371.346)">
        <path id="Trazado_190713" data-name="Trazado 190713" d="M2466.154,2024.95l-12.131-38.375,1.072-.327,11.532,36.481,11.45-12.98.848.723Z" transform="translate(-2454.023 -1986.248)" fill="#d85f05"/>
      </g>
      <g id="Grupo_156216" data-name="Grupo 156216" transform="translate(2025.458 1370.797)">
        <path id="Trazado_190714" data-name="Trazado 190714" d="M2611.8,2022.517l-12.775-14.482.848-.723,11.447,12.977,11.535-37.027,1.074.323Z" transform="translate(-2599.024 -1983.262)" fill="#d85f05"/>
      </g>
      <g id="Grupo_156217" data-name="Grupo 156217" transform="translate(1973.153 1232.65)">
        <path id="Trazado_190715" data-name="Trazado 190715" d="M2433.667,1320.336h-96.7v-14.93a47.052,47.052,0,0,1,47.051-47.052h2.593a47.051,47.051,0,0,1,47.051,47.052Z" transform="translate(-2332.896 -1253.623)" fill="#f3f8fa"/>
        <rect id="Rectángulo_46235" data-name="Rectángulo 46235" width="104.846" height="5.928" transform="translate(0 60.785)" fill="#e1e8ef"/>
        <path id="Trazado_190716" data-name="Trazado 190716" d="M2550,1293.435h-31.861c5.927-16.757,5.557-51.913,5.557-51.913,0-4.9,4.479-8.871,10-8.871h0c5.524,0,10,3.972,10,8.871C2543.7,1241.521,2544.075,1268.464,2550,1293.435Z" transform="translate(-2480.723 -1232.65)" fill="#ebeef3"/>
        <path id="Trazado_190717" data-name="Trazado 190717" d="M2470.333,1263.727h5.557V1251.4a.959.959,0,0,0-.959-.959h-3.639a.959.959,0,0,0-.959.959Z" transform="translate(-2441.713 -1247.169)" fill="#ebeef3"/>
        <path id="Trazado_190718" data-name="Trazado 190718" d="M2702.833,1263.727h5.557V1251.4a.959.959,0,0,0-.959-.959h-3.639a.959.959,0,0,0-.959.959Z" transform="translate(-2631.423 -1247.169)" fill="#ebeef3"/>
      </g>
      <g id="Grupo_156232" data-name="Grupo 156232" transform="translate(2064.704 1305.374)">
        <g id="Grupo_156231" data-name="Grupo 156231" transform="translate(0 0)">
          <g id="Grupo_156230" data-name="Grupo 156230">
            <g id="Grupo_156229" data-name="Grupo 156229">
              <g id="Grupo_156228" data-name="Grupo 156228">
                <g id="Grupo_156227" data-name="Grupo 156227">
                  <g id="Grupo_156226" data-name="Grupo 156226">
                    <g id="Grupo_156225" data-name="Grupo 156225">
                      <g id="Grupo_156224" data-name="Grupo 156224">
                        <g id="Grupo_156223" data-name="Grupo 156223">
                          <g id="Grupo_156222" data-name="Grupo 156222">
                            <g id="Grupo_156221" data-name="Grupo 156221">
                              <g id="Grupo_156220" data-name="Grupo 156220">
                                <g id="Grupo_156219" data-name="Grupo 156219">
                                  <g id="Grupo_156218" data-name="Grupo 156218">
                                    <path id="Trazado_190719" data-name="Trazado 190719" d="M2813.615,1643.248c.187-.172,4.571-4.254,4.092-8.933-.26-2.545-1.906-4.739-4.889-6.522l-.553.925c2.675,1.6,4.145,3.517,4.37,5.7.426,4.138-3.707,8-3.749,8.034Z" transform="translate(-2812.265 -1627.793)" fill="#a1542e"/>
                                  </g>
                                </g>
                              </g>
                            </g>
                          </g>
                        </g>
                      </g>
                    </g>
                  </g>
                </g>
              </g>
            </g>
          </g>
        </g>
      </g>
    </g>
  </g>
</svg>
