<svg xmlns="http://www.w3.org/2000/svg" width="258.7" height="216.788" viewBox="0 0 258.7 216.788">
  <g id="Grupo_168464" data-name="Grupo 168464" transform="translate(-811.454 -315.764)">
    <g id="Grupo_168454" data-name="Grupo 168454" transform="translate(811.454 315.764)">
      <g id="Grupo_168449" data-name="Grupo 168449" transform="translate(0 0)">
        <rect id="Rectángulo_47814" data-name="Rectángulo 47814" width="157.92" height="202.998" rx="5" transform="translate(0 13.79)" fill="#00bcd4"/>
        <rect id="Rectángulo_47815" data-name="Rectángulo 47815" width="138.247" height="178.824" transform="translate(9.837 25.877)" fill="#fff"/>
        <path id="Trazado_204292" data-name="Trazado 204292" d="M1259.82,326.367a10.715,10.715,0,0,0-21.429,0h-9.928v16.977h41.286V326.367Zm-10.714,1.7a3.779,3.779,0,1,1,3.779-3.779A3.779,3.779,0,0,1,1249.106,328.063Z" transform="translate(-1170.146 -315.764)" fill="#ff9d00"/>
      </g>
      <g id="Grupo_168450" data-name="Grupo 168450" transform="translate(48.861 44.552)">
        <rect id="Rectángulo_47816" data-name="Rectángulo 47816" width="93.576" height="5.716" fill="#f1f2f5"/>
        <rect id="Rectángulo_47817" data-name="Rectángulo 47817" width="93.576" height="5.716" transform="translate(0 11.162)" fill="#f1f2f5"/>
        <rect id="Rectángulo_47818" data-name="Rectángulo 47818" width="45.603" height="5.716" transform="translate(0 22.323)" fill="#f1f2f5"/>
      </g>
      <path id="Trazado_204293" data-name="Trazado 204293" d="M971.1,660.224H944.777V631.345H971.1Zm-25.479-.839h24.64v-27.2h-24.64Z" transform="translate(-926.132 -587.212)" fill="#9ea9bd"/>
      <path id="Trazado_204294" data-name="Trazado 204294" d="M990.788,625.3l6.168,8.579,17-15.993,3.019,3.9-20.9,19.973-9.013-13.067Z" transform="translate(-962.503 -575.632)" fill="#ff9d00"/>
      <g id="Grupo_168451" data-name="Grupo 168451" transform="translate(48.861 81.379)">
        <rect id="Rectángulo_47819" data-name="Rectángulo 47819" width="93.576" height="5.716" fill="#f1f2f5"/>
        <rect id="Rectángulo_47820" data-name="Rectángulo 47820" width="93.576" height="5.716" transform="translate(0 11.162)" fill="#f1f2f5"/>
        <rect id="Rectángulo_47821" data-name="Rectángulo 47821" width="45.603" height="5.716" transform="translate(0 22.323)" fill="#f1f2f5"/>
      </g>
      <path id="Trazado_204295" data-name="Trazado 204295" d="M971.1,923.56H944.777V894.682H971.1Zm-25.479-.839h24.64v-27.2h-24.64Z" transform="translate(-926.132 -813.723)" fill="#9ea9bd"/>
      <path id="Trazado_204296" data-name="Trazado 204296" d="M990.788,888.634l6.168,8.579,17-15.993,3.019,3.9-20.9,19.973-9.013-13.067Z" transform="translate(-962.503 -802.143)" fill="#ff9d00"/>
      <g id="Grupo_168452" data-name="Grupo 168452" transform="translate(48.861 118.205)">
        <rect id="Rectángulo_47822" data-name="Rectángulo 47822" width="93.576" height="5.716" fill="#f1f2f5"/>
        <rect id="Rectángulo_47823" data-name="Rectángulo 47823" width="93.576" height="5.716" transform="translate(0 11.162)" fill="#f1f2f5"/>
        <rect id="Rectángulo_47824" data-name="Rectángulo 47824" width="45.603" height="5.716" transform="translate(0 22.323)" fill="#f1f2f5"/>
      </g>
      <path id="Trazado_204297" data-name="Trazado 204297" d="M971.1,1186.9H944.777v-28.879H971.1Zm-25.479-.839h24.64v-27.2h-24.64Z" transform="translate(-926.132 -1040.233)" fill="#9ea9bd"/>
      <path id="Trazado_204298" data-name="Trazado 204298" d="M990.788,1151.971l6.168,8.579,17-15.993,3.019,3.9-20.9,19.973-9.013-13.067Z" transform="translate(-962.503 -1028.653)" fill="#ff9d00"/>
      <g id="Grupo_168453" data-name="Grupo 168453" transform="translate(48.861 155.032)">
        <rect id="Rectángulo_47825" data-name="Rectángulo 47825" width="93.576" height="5.716" fill="#f1f2f5"/>
        <rect id="Rectángulo_47826" data-name="Rectángulo 47826" width="93.576" height="5.716" transform="translate(0 11.162)" fill="#f1f2f5"/>
        <rect id="Rectángulo_47827" data-name="Rectángulo 47827" width="45.603" height="5.716" transform="translate(0 22.323)" fill="#f1f2f5"/>
      </g>
      <path id="Trazado_204299" data-name="Trazado 204299" d="M971.1,1450.234H944.777v-28.879H971.1Zm-25.479-.839h24.64v-27.2h-24.64Z" transform="translate(-926.132 -1266.743)" fill="#9ea9bd"/>
      <path id="Trazado_204300" data-name="Trazado 204300" d="M990.788,1415.308l6.168,8.579,17-15.993,3.019,3.9-20.9,19.973-9.013-13.067Z" transform="translate(-962.503 -1255.164)" fill="#ff9d00"/>
    </g>
    <g id="Grupo_168463" data-name="Grupo 168463" transform="translate(914.098 405.356)">
      <g id="Grupo_168456" data-name="Grupo 168456" transform="translate(81.464 83.543)">
        <g id="Grupo_168455" data-name="Grupo 168455">
          <rect id="Rectángulo_47828" data-name="Rectángulo 47828" width="43.469" height="43.653" fill="#9ea9bd"/>
          <rect id="Rectángulo_47829" data-name="Rectángulo 47829" width="5.239" height="6.912" transform="translate(19.115)" fill="#1d2238"/>
        </g>
        <rect id="Rectángulo_47830" data-name="Rectángulo 47830" width="31.123" height="43.653" transform="translate(43.468)" fill="#d2d6e1"/>
        <rect id="Rectángulo_47831" data-name="Rectángulo 47831" width="3.984" height="6.912" transform="translate(57.038)" fill="#1d2238"/>
      </g>
      <g id="Grupo_168458" data-name="Grupo 168458" transform="translate(73.087 0)">
        <g id="Grupo_168457" data-name="Grupo 168457">
          <rect id="Rectángulo_47832" data-name="Rectángulo 47832" width="43.469" height="83.543" fill="#edb248"/>
          <rect id="Rectángulo_47833" data-name="Rectángulo 47833" width="5.239" height="13.228" transform="translate(19.115)" fill="#1d2238"/>
        </g>
        <rect id="Rectángulo_47834" data-name="Rectángulo 47834" width="31.123" height="83.543" transform="translate(43.469)" fill="#f0c36a"/>
        <rect id="Rectángulo_47835" data-name="Rectángulo 47835" width="3.984" height="13.228" transform="translate(57.038)" fill="#1d2238"/>
      </g>
      <g id="Grupo_168460" data-name="Grupo 168460" transform="translate(0 83.543)">
        <g id="Grupo_168459" data-name="Grupo 168459">
          <rect id="Rectángulo_47836" data-name="Rectángulo 47836" width="55.906" height="43.653" fill="#f0c36a"/>
          <rect id="Rectángulo_47837" data-name="Rectángulo 47837" width="6.738" height="6.912" transform="translate(24.584)" fill="#1d2238"/>
        </g>
        <rect id="Rectángulo_47838" data-name="Rectángulo 47838" width="36.994" height="43.653" transform="translate(55.906)" fill="#f6dba6"/>
        <rect id="Rectángulo_47839" data-name="Rectángulo 47839" width="6.738" height="6.912" transform="translate(72.121)" fill="#1d2238"/>
      </g>
      <g id="Grupo_168462" data-name="Grupo 168462" transform="translate(6.872 39.89)">
        <g id="Grupo_168461" data-name="Grupo 168461">
          <rect id="Rectángulo_47840" data-name="Rectángulo 47840" width="43.469" height="43.653" fill="#d2d6e1"/>
          <rect id="Rectángulo_47841" data-name="Rectángulo 47841" width="5.239" height="6.912" transform="translate(19.115)" fill="#1d2238"/>
        </g>
        <rect id="Rectángulo_47842" data-name="Rectángulo 47842" width="31.123" height="43.653" transform="translate(43.468)" fill="#f1f2f5"/>
        <rect id="Rectángulo_47843" data-name="Rectángulo 47843" width="3.984" height="6.912" transform="translate(57.038)" fill="#1d2238"/>
      </g>
    </g>
  </g>
</svg>
