<svg xmlns="http://www.w3.org/2000/svg" width="171" height="171" viewBox="0 0 171 171">
  <g id="Grupo_168467" data-name="Grupo 168467" transform="translate(-409.182 -7267)">
    <circle id="Elipse_5382" data-name="Elipse 5382" cx="85.5" cy="85.5" r="85.5" transform="translate(409.182 7267)" fill="#00bcd4"/>
    <g id="Grupo_168466" data-name="Grupo 168466" transform="translate(424.182 7282)">
      <path id="Trazado_204301" data-name="Trazado 204301" d="M110.588,274.572h-3.172l4.946-21.426a1.82,1.82,0,0,0-1.774-2.229H70.693l-2-9.473A1.819,1.819,0,0,0,66.918,240H56v3.639h9.44l6.974,33.127a1.82,1.82,0,0,0,1.781,1.445h32.753l-2.729,3.639H74.2v3.639h30.933a1.82,1.82,0,0,0,1.456-.728l5.459-7.278a1.82,1.82,0,0,0-1.456-2.911Zm-6.914,0h-28l-4.207-20.016H108.3Z" transform="translate(-30.902 -173.051)" fill="#fff"/>
      <path id="Trazado_204302" data-name="Trazado 204302" d="M157.459,448a5.459,5.459,0,1,0,5.459,5.459A5.459,5.459,0,0,0,157.459,448Zm0,7.278a1.82,1.82,0,1,1,1.82-1.82A1.82,1.82,0,0,1,157.459,455.278Z" transform="translate(-105.067 -333.742)" fill="#fff"/>
      <path id="Trazado_204303" data-name="Trazado 204303" d="M229.459,448a5.459,5.459,0,1,0,5.459,5.459A5.459,5.459,0,0,0,229.459,448Zm0,7.278a1.82,1.82,0,1,1,1.82-1.82A1.82,1.82,0,0,1,229.459,455.278Z" transform="translate(-160.691 -333.742)" fill="#fff"/>
      <path id="Trazado_204304" data-name="Trazado 204304" d="M64,352h9.1v3.639H64Z" transform="translate(-37.082 -259.577)" fill="#fff"/>
      <path id="Trazado_204305" data-name="Trazado 204305" d="M16,384H32.376v3.639H16Z" transform="translate(0 -284.299)" fill="#fff"/>
      <path id="Trazado_204306" data-name="Trazado 204306" d="M56,416H68.737v3.639H56Z" transform="translate(-30.902 -309.02)" fill="#fff"/>
      <path id="Trazado_204307" data-name="Trazado 204307" d="M32,352h3.639v3.639H32Z" transform="translate(-12.361 -259.577)" fill="#fff"/>
      <path id="Trazado_204308" data-name="Trazado 204308" d="M261.866,16H205.459A5.459,5.459,0,0,0,200,21.459V61.49a5.459,5.459,0,0,0,5.459,5.459H209.1v5.459a1.82,1.82,0,0,0,1.123,1.681,1.8,1.8,0,0,0,.7.138,1.819,1.819,0,0,0,1.286-.533l6.745-6.745h42.917a5.459,5.459,0,0,0,5.459-5.459V21.459A5.459,5.459,0,0,0,261.866,16Zm1.82,45.49a1.82,1.82,0,0,1-1.82,1.82H218.2a1.819,1.819,0,0,0-1.286.533l-4.172,4.172V65.129a1.82,1.82,0,0,0-1.82-1.82h-5.459a1.82,1.82,0,0,1-1.82-1.82V21.459a1.82,1.82,0,0,1,1.82-1.82h56.407a1.82,1.82,0,0,1,1.82,1.82Z" transform="translate(-142.149)" fill="#fff"/>
      <path id="Trazado_204309" data-name="Trazado 204309" d="M281.129,49.82a1.82,1.82,0,0,0-1.82-1.82h-9.1a1.82,1.82,0,0,0-1.82,1.82V80.753h-3.639V60.737a1.82,1.82,0,0,0-1.82-1.82h-9.1a1.82,1.82,0,0,0-1.82,1.82V80.753h-3.639v-9.1a1.82,1.82,0,0,0-1.82-1.82h-9.1a1.82,1.82,0,0,0-1.82,1.82v9.1H232v3.639h52.768V80.753h-3.639ZM244.737,80.753h-5.459V73.474h5.459Zm16.376,0h-5.459v-18.2h5.459Zm16.376,0h-5.459V51.639h5.459Z" transform="translate(-166.871 -24.722)" fill="#fff"/>
    </g>
  </g>
</svg>
