<svg xmlns="http://www.w3.org/2000/svg" width="171" height="171" viewBox="0 0 171 171">
  <g id="Grupo_168468" data-name="Grupo 168468" transform="translate(-409.182 -7267)">
    <circle id="Elipse_5382" data-name="Elipse 5382" cx="85.5" cy="85.5" r="85.5" transform="translate(409.182 7267)" fill="#00bcd4"/>
    <g id="_02-Sales" data-name=" 02-Sales" transform="translate(563.186 7088.189)">
      <path id="Trazado_204310" data-name="Trazado 204310" d="M17.588,264.316a3.127,3.127,0,0,1-.69-.079c-1.823-.426-2.62-2.273-3.323-3.9a7.622,7.622,0,0,0-.99-1.875,11.345,11.345,0,0,0-1.963.419c-1.682.447-3.587.958-5.031-.225s-1.365-3.159-1.308-4.917a7.545,7.545,0,0,0-.111-2.177,9.15,9.15,0,0,0-1.937-.505c-1.71-.34-3.647-.724-4.448-2.425-.778-1.655.114-3.409.9-4.959a7.291,7.291,0,0,0,.831-2.043,8.972,8.972,0,0,0-1.53-1.324C-3.415,239.24-5,238.03-5,236.141s1.585-3.1,2.981-4.166a7.374,7.374,0,0,0,1.546-1.388,8.738,8.738,0,0,0-.847-1.979c-.787-1.55-1.68-3.305-.9-4.961.8-1.7,2.737-2.085,4.446-2.423a7.18,7.18,0,0,0,1.993-.567,9.431,9.431,0,0,0,.062-2.125c-.055-1.761-.116-3.749,1.308-4.915s3.346-.671,5.033-.224a7.44,7.44,0,0,0,2.052.373,11.038,11.038,0,0,0,.9-1.83c.7-1.631,1.5-3.476,3.321-3.9,1.793-.409,3.274.88,4.579,2.016a7.344,7.344,0,0,0,1.736,1.277,9.28,9.28,0,0,0,1.659-1.277c1.308-1.139,2.793-2.428,4.579-2.016,1.823.426,2.62,2.273,3.323,3.9a7.622,7.622,0,0,0,.99,1.875,10.177,10.177,0,0,0,1.963-.419c1.68-.449,3.585-.96,5.031.225s1.365,3.159,1.308,4.917a7.538,7.538,0,0,0,.111,2.177,9.149,9.149,0,0,0,1.937.505c1.71.34,3.647.724,4.448,2.425.778,1.655-.114,3.409-.9,4.959a7.291,7.291,0,0,0-.831,2.043,8.974,8.974,0,0,0,1.53,1.324c1.407,1.074,2.992,2.284,2.992,4.173s-1.585,3.1-2.981,4.166a7.374,7.374,0,0,0-1.546,1.388,8.742,8.742,0,0,0,.847,1.979c.787,1.55,1.68,3.305.9,4.961-.8,1.7-2.737,2.085-4.446,2.423a7.18,7.18,0,0,0-1.993.567,9.425,9.425,0,0,0-.062,2.113c.055,1.761.116,3.749-1.308,4.915s-3.346.673-5.033.224a7.473,7.473,0,0,0-2.052-.373,11.04,11.04,0,0,0-.9,1.83c-.7,1.631-1.5,3.476-3.321,3.9-1.791.417-3.274-.88-4.579-2.016a7.346,7.346,0,0,0-1.736-1.277,9.28,9.28,0,0,0-1.659,1.277A6.462,6.462,0,0,1,17.588,264.316Zm5.588-6.889a6.6,6.6,0,0,1,4.011,2.134A10.44,10.44,0,0,0,28.7,260.74c.185-.284.588-1.222.84-1.8a6.524,6.524,0,0,1,2.615-3.6,6.48,6.48,0,0,1,4.48.146,10.678,10.678,0,0,0,1.854.387,10.772,10.772,0,0,0,.053-2.015,6.713,6.713,0,0,1,.833-4.425,6.4,6.4,0,0,1,4.05-1.824,9.95,9.95,0,0,0,1.893-.495,10.438,10.438,0,0,0-.8-1.837,6.747,6.747,0,0,1-1.132-4.38,6.469,6.469,0,0,1,2.833-3.383,9.183,9.183,0,0,0,1.571-1.37,9.1,9.1,0,0,0-1.558-1.367,6.474,6.474,0,0,1-2.833-3.388,6.747,6.747,0,0,1,1.132-4.38,10.388,10.388,0,0,0,.8-1.835,10.062,10.062,0,0,0-1.893-.5,6.384,6.384,0,0,1-4.05-1.824,6.7,6.7,0,0,1-.833-4.424,10.773,10.773,0,0,0-.06-2.009,10.389,10.389,0,0,0-1.856.387,6.461,6.461,0,0,1-4.483.141,6.537,6.537,0,0,1-2.617-3.61,11.088,11.088,0,0,0-.889-1.779,11.556,11.556,0,0,0-1.467,1.152,6.6,6.6,0,0,1-4.008,2.145,6.6,6.6,0,0,1-4.011-2.134,10.439,10.439,0,0,0-1.514-1.178c-.176.284-.588,1.222-.84,1.8a6.524,6.524,0,0,1-2.615,3.6,6.461,6.461,0,0,1-4.48-.146,10.65,10.65,0,0,0-1.86-.382,10.772,10.772,0,0,0-.053,2.015,6.714,6.714,0,0,1-.828,4.422,6.4,6.4,0,0,1-4.05,1.824,9.951,9.951,0,0,0-1.893.495,10.437,10.437,0,0,0,.8,1.837,6.747,6.747,0,0,1,1.132,4.38,6.469,6.469,0,0,1-2.833,3.383,9.184,9.184,0,0,0-1.558,1.368,9.1,9.1,0,0,0,1.558,1.367A6.473,6.473,0,0,1,2.953,240.9a6.747,6.747,0,0,1-1.132,4.38,10.381,10.381,0,0,0-.8,1.835,10.081,10.081,0,0,0,1.893.5,6.384,6.384,0,0,1,4.05,1.824,6.7,6.7,0,0,1,.833,4.424,10.773,10.773,0,0,0,.06,2.009,10.391,10.391,0,0,0,1.856-.387,6.471,6.471,0,0,1,4.483-.141,6.536,6.536,0,0,1,2.617,3.61,11.08,11.08,0,0,0,.88,1.779,11.554,11.554,0,0,0,1.467-1.152A6.6,6.6,0,0,1,23.175,257.427Z" transform="translate(-99.828)" fill="#fff"/>
      <rect id="Rectángulo_47844" data-name="Rectángulo 47844" width="29.885" height="3.522" transform="translate(-88.463 245.461) rotate(-45)" fill="#fff"/>
      <path id="Trazado_204311" data-name="Trazado 204311" d="M128.283,362.566a5.283,5.283,0,1,1,5.283-5.283A5.283,5.283,0,0,1,128.283,362.566Zm0-7.044a1.761,1.761,0,1,0,1.761,1.761A1.761,1.761,0,0,0,128.283,355.522Z" transform="translate(-199.652 -112.337)" fill="#fff"/>
      <path id="Trazado_204312" data-name="Trazado 204312" d="M80.283,282.566a5.283,5.283,0,1,1,5.283-5.283A5.283,5.283,0,0,1,80.283,282.566Zm0-7.044a1.761,1.761,0,1,0,1.761,1.761A1.761,1.761,0,0,0,80.283,275.522Z" transform="translate(-162.218 -49.947)" fill="#fff"/>
      <path id="Trazado_204313" data-name="Trazado 204313" d="M-21.175,448.655l-14.686-9.913c-.2-.136-.3-.2-.393-.276a1.761,1.761,0,0,1-.662-1.446A5.283,5.283,0,0,1-31.653,432a13.85,13.85,0,0,1,7.444,2.159l10.87,6.922-1.891,2.971L-26.1,437.13a10.336,10.336,0,0,0-5.556-1.608,1.685,1.685,0,0,0-1.222.507,1.994,1.994,0,0,0-.257.313l13.927,9.393Z" transform="translate(-74.935 -174.728)" fill="#fff"/>
      <path id="Trazado_204314" data-name="Trazado 204314" d="M-47.944,466.41h-2.641a1.761,1.761,0,0,1-1.1-.386L-74.63,447.675a12.373,12.373,0,0,0-1.5-1.02A1.761,1.761,0,0,1-77,445.138V444.8A4.931,4.931,0,0,1-71.964,440h.247a11.289,11.289,0,0,1,6.246,1.844,1.835,1.835,0,0,1,.151.107,2.112,2.112,0,0,1,.287.2l14.568,9.826-1.971,2.918-14.686-9.912c-.132-.09-.222-.148-.292-.2a7.872,7.872,0,0,0-4.3-1.259h-.247a1.549,1.549,0,0,0-1.37.74c.324.22.623.442.909.673l22.458,17.958h2.023Z" transform="translate(-43.676 -180.963)" fill="#fff"/>
      <path id="Trazado_204315" data-name="Trazado 204315" d="M-51.483,496.79l-1.245-1.245H-82.481a23.863,23.863,0,0,1-15.655-5.838l-32.27-28a7.924,7.924,0,0,1-2.6-5.838A7.757,7.757,0,0,1-125.361,448h.071a14.673,14.673,0,0,1,7.236,1.846,15.757,15.757,0,0,1,1.956,1.324l16.553,13.248a7.811,7.811,0,0,1,2.333-5.293,8.277,8.277,0,0,1,1.065-.88A7.73,7.73,0,0,1-91.62,456.8h32.578a18.819,18.819,0,0,1,13.272,5.5l7.345,7.345-2.49,2.49-7.345-7.345a15.3,15.3,0,0,0-10.782-4.468H-91.62a4.225,4.225,0,0,0-2.481.782,4.659,4.659,0,0,0-.625.518,4.32,4.32,0,0,0-1.3,3.1,4.4,4.4,0,0,0,4.4,4.4,1.761,1.761,0,0,1,1.761,1.761,1.761,1.761,0,0,1-1.761,1.761h-2.641a1.761,1.761,0,0,1-1.1-.386l-22.944-18.349a12.373,12.373,0,0,0-1.5-1.02,11,11,0,0,0-5.359-1.377,4.226,4.226,0,0,0-4.313,4.137c0,.018,0,.036,0,.054a4.453,4.453,0,0,0,1.419,3.367l32.242,27.969a20.339,20.339,0,0,0,13.339,4.975H-52a1.761,1.761,0,0,1,1.245.516l1.761,1.761Z" transform="translate(0 -187.204)" fill="#fff"/>
      <rect id="Rectángulo_47845" data-name="Rectángulo 47845" width="3.522" height="3.522" transform="translate(-62.564 281.926)" fill="#fff"/>
      <rect id="Rectángulo_47846" data-name="Rectángulo 47846" width="26.415" height="3.522" transform="translate(-92.501 281.926)" fill="#fff"/>
      <path id="Trazado_204316" data-name="Trazado 204316" d="M231.317,570.29a1.759,1.759,0,0,1-.787-.176l-10.566-5.283a1.761,1.761,0,0,1-.792-2.361c.027-.053.056-.1.087-.155l21.132-33.458a1.761,1.761,0,0,1,2.277-.636l10.566,5.283a1.761,1.761,0,0,1,.976,1.567v33.458a1.761,1.761,0,0,1-1.761,1.761Zm3.194-3.522h16.176V541.157Zm-11.231-4.226,7.4,3.7,19.244-30.465-7.4-3.7Z" transform="translate(-274.51 -249.623)" fill="#fff"/>
    </g>
  </g>
</svg>
