<svg xmlns="http://www.w3.org/2000/svg" width="400" height="344.341" viewBox="0 0 400 344.341">
  <g id="Grupo_168580" data-name="Grupo 168580" transform="translate(-701.602 -1034.65)">
    <g id="Grupo_168472" data-name="Grupo 168472" transform="translate(964.448 1034.651)">
      <path id="Trazado_204317" data-name="Trazado 204317" d="M1064.124,1055.424l13.851,7.826,10.934-19.352-13.851-7.826a10.973,10.973,0,0,0-14.95,4.155l-.139.247A10.972,10.972,0,0,0,1064.124,1055.424Z" transform="translate(-1058.547 -1034.651)" fill="#e6ebf2"/>
      <path id="Trazado_204318" data-name="Trazado 204318" d="M1100.284,1075.277a11.189,11.189,0,0,0,15.246-4.237l.142-.252a11.19,11.19,0,0,0-4.237-15.247l-14.887-8.412a40.386,40.386,0,0,0-11.151,19.736Z" transform="translate(-1066.84 -1038.505)" fill="#018c99"/>
    </g>
    <g id="Grupo_168473" data-name="Grupo 168473" transform="translate(964.464 1046.105)" style="mix-blend-mode: multiply;isolation: isolate">
      <path id="Trazado_204319" data-name="Trazado 204319" d="M1064.13,1060.543l13.042,7.369c-.018.074-.043.143-.061.218l14.887,8.412a11.181,11.181,0,0,0,12.058-.683c-2.311.136-6.692-.229-13.127-3.379-9.98-4.885-27.307-15.341-27.307-15.341a11.27,11.27,0,0,1-5.054-5.915A10.957,10.957,0,0,0,1064.13,1060.543Z" transform="translate(-1058.569 -1051.224)" fill="#dadfe6"/>
    </g>
    <path id="Trazado_204320" data-name="Trazado 204320" d="M1098.128,1059.572c-7.388-4.172-12.663-8.819-11.781-10.381s7.585.555,14.973,4.727,12.662,8.819,11.781,10.38S1105.515,1063.744,1098.128,1059.572Z" transform="translate(-102.656 -4.333)" fill="#e6ebf2" opacity="0.15" style="mix-blend-mode: screen;isolation: isolate"/>
    <path id="Trazado_204321" data-name="Trazado 204321" d="M810.337,1383.933a105.487,105.487,0,0,1-19.8-32.9c-11.149-30.779-7.9-67.88,21.742-90.993,40.861-31.866,80.135-33,100.153-52.126,24.128-23.051,34.142-52.429,54.117-77.562,41.291-51.952,132.117-85.13,218.081-78.974v332.55Z" transform="translate(-83.027 -4.941)" fill="#81d4fa" opacity="0.22" style="mix-blend-mode: multiply;isolation: isolate"/>
    <ellipse id="Elipse_5383" data-name="Elipse 5383" cx="43.298" cy="6.874" rx="43.298" ry="6.874" transform="translate(818.789 1333.471)" fill="#01a6b5" opacity="0.8" style="mix-blend-mode: multiply;isolation: isolate"/>
    <path id="Trazado_204322" data-name="Trazado 204322" d="M1074.67,1505.038c2.22-1,3.44-2.075,3.44-3.2,0-5.308-27.1-9.61-60.537-9.61s-60.537,4.3-60.537,9.61,27.1,9.611,60.537,9.611a317.343,317.343,0,0,0,35.931-1.876A174.5,174.5,0,0,0,1074.67,1505.038Z" transform="translate(-62.744 -141.336)" fill="#01a6b5" opacity="0.8" style="mix-blend-mode: multiply;isolation: isolate"/>
    <g id="Grupo_168510" data-name="Grupo 168510" transform="translate(852.816 1081.071)">
      <path id="Trazado_204323" data-name="Trazado 204323" d="M1015.441,1247.7,934.6,1263.352a11.561,11.561,0,0,1-13.549-9.152l-23.816-122.964a11.561,11.561,0,0,1,9.152-13.549l80.838-15.657a11.561,11.561,0,0,1,13.549,9.152l23.816,122.963A11.562,11.562,0,0,1,1015.441,1247.7Z" transform="translate(-897.025 -1101.818)" fill="#e6e6e6"/>
      <g id="Grupo_168476" data-name="Grupo 168476" transform="translate(39.13 14.753)">
        <path id="Trazado_204324" data-name="Trazado 204324" d="M983.451,1133.6a11.832,11.832,0,1,1-13.866-9.366A11.832,11.832,0,0,1,983.451,1133.6Z" transform="translate(-955.607 -1123.427)" fill="#ccc" opacity="0.25" style="mix-blend-mode: multiply;isolation: isolate"/>
        <g id="Grupo_168475" data-name="Grupo 168475">
          <circle id="Elipse_5384" data-name="Elipse 5384" cx="10.847" cy="10.847" r="10.847" transform="matrix(0.505, -0.863, 0.863, 0.505, 0, 18.719)" fill="#029ba6"/>
          <path id="Trazado_204325" data-name="Trazado 204325" d="M980.265,1141.028a9.338,9.338,0,1,1-8.757-9.884A9.337,9.337,0,0,1,980.265,1141.028Z" transform="translate(-956.103 -1125.623)" fill="#02b3c0"/>
          <path id="Trazado_204326" data-name="Trazado 204326" d="M980.038,1143.4l-18.637-1.126-.46.435a.9.9,0,0,0-.077,1.223l.406.495,18.637,1.127.464-.441a.9.9,0,0,0,.071-1.226Z" transform="translate(-955.81 -1129.066)" fill="#02bfcc"/>
          <g id="Grupo_168474" data-name="Grupo 168474" transform="translate(4.851 13.207)">
            <path id="Trazado_204327" data-name="Trazado 204327" d="M980.443,1143.885l-.4-.486-18.637-1.126-.46.435a.9.9,0,0,0-.279.6l19.987,1.208A.9.9,0,0,0,980.443,1143.885Z" transform="translate(-960.662 -1142.273)" fill="#028f99"/>
          </g>
        </g>
        <path id="Trazado_204328" data-name="Trazado 204328" d="M981.8,1136.74a12.512,12.512,0,1,1-14.662-9.9A12.512,12.512,0,0,1,981.8,1136.74Z" transform="translate(-954.682 -1124.226)" fill="#fff" opacity="0.3" style="mix-blend-mode: screen;isolation: isolate"/>
        <path id="Trazado_204329" data-name="Trazado 204329" d="M975.4,1156.516c-.367.945-4.921,2.623-9.1,1s-6.4-5.938-6.037-6.883,2.9,2.573,7.081,4.2S975.77,1155.571,975.4,1156.516Z" transform="translate(-955.676 -1131.599)" fill="#fff" opacity="0.3" style="mix-blend-mode: screen;isolation: isolate"/>
      </g>
      <g id="Grupo_168479" data-name="Grupo 168479" transform="translate(67.966 8.082)">
        <circle id="Elipse_5385" data-name="Elipse 5385" cx="11.832" cy="11.832" r="11.832" transform="translate(3.298 23.436) rotate(-82.042)" fill="#ccc" opacity="0.25" style="mix-blend-mode: multiply;isolation: isolate"/>
        <g id="Grupo_168478" data-name="Grupo 168478" transform="translate(0 0.506)">
          <circle id="Elipse_5386" data-name="Elipse 5386" cx="10.847" cy="10.847" r="10.847" transform="matrix(0.772, -0.636, 0.636, 0.772, 0, 13.788)" fill="#029ba6"/>
          <path id="Trazado_204330" data-name="Trazado 204330" d="M1016.28,1123.317a9.338,9.338,0,1,1-11.842,5.846A9.338,9.338,0,0,1,1016.28,1123.317Z" transform="translate(-998.014 -1116.893)" fill="#02b3c0"/>
          <path id="Trazado_204331" data-name="Trazado 204331" d="M1017.644,1122.886l-5.993,17.683.3.558a.9.9,0,0,0,1.16.4l.584-.262,5.994-17.683-.3-.563a.9.9,0,0,0-1.164-.391Z" transform="translate(-1000.396 -1116.807)" fill="#02bfcc"/>
          <g id="Grupo_168477" data-name="Grupo 168477" transform="translate(11.256 5.736)">
            <path id="Trazado_204332" data-name="Trazado 204332" d="M1018.22,1122.625l-.576.262-5.993,17.683.3.558a.9.9,0,0,0,.5.426l6.427-18.964A.893.893,0,0,0,1018.22,1122.625Z" transform="translate(-1011.651 -1122.543)" fill="#028f99"/>
          </g>
        </g>
        <path id="Trazado_204333" data-name="Trazado 204333" d="M1024.143,1128.436a12.512,12.512,0,1,1-14.663-9.9A12.512,12.512,0,0,1,1024.143,1128.436Z" transform="translate(-996.595 -1114.991)" fill="#fff" opacity="0.3" style="mix-blend-mode: screen;isolation: isolate"/>
        <path id="Trazado_204334" data-name="Trazado 204334" d="M1017.741,1148.213c-.367.945-4.92,2.624-9.1,1s-6.4-5.938-6.037-6.883,2.9,2.573,7.081,4.2S1018.109,1147.269,1017.741,1148.213Z" transform="translate(-997.589 -1122.364)" fill="#fff" opacity="0.3" style="mix-blend-mode: screen;isolation: isolate"/>
      </g>
      <g id="Grupo_168482" data-name="Grupo 168482" transform="translate(11.636 21.047)">
        <path id="Trazado_204335" data-name="Trazado 204335" d="M940.306,1141.855a11.832,11.832,0,1,1-13.866-9.367A11.831,11.831,0,0,1,940.306,1141.855Z" transform="translate(-914.786 -1132.271)" fill="#ccc" opacity="0.25" style="mix-blend-mode: multiply;isolation: isolate"/>
        <g id="Grupo_168481" data-name="Grupo 168481" transform="translate(1.667 3.402)">
          <path id="Trazado_204336" data-name="Trazado 204336" d="M937.434,1144.675a10.847,10.847,0,1,1-13.679-6.942A10.847,10.847,0,0,1,937.434,1144.675Z" transform="translate(-916.274 -1137.194)" fill="#029ba6"/>
          <path id="Trazado_204337" data-name="Trazado 204337" d="M936.674,1145.818a9.338,9.338,0,1,1-11.777-5.976A9.338,9.338,0,0,1,936.674,1145.818Z" transform="translate(-916.948 -1137.868)" fill="#02b3c0"/>
          <path id="Trazado_204338" data-name="Trazado 204338" d="M936.244,1147.219l-17.747,5.8-.268.573a.9.9,0,0,0,.378,1.166l.56.311,17.747-5.8.27-.58a.9.9,0,0,0-.384-1.167Z" transform="translate(-916.851 -1140.29)" fill="#02bfcc"/>
          <g id="Grupo_168480" data-name="Grupo 168480" transform="translate(1.292 6.929)">
            <path id="Trazado_204339" data-name="Trazado 204339" d="M936.8,1147.522l-.555-.3-17.747,5.8-.268.573a.9.9,0,0,0-.041.657l19.034-6.219A.9.9,0,0,0,936.8,1147.522Z" transform="translate(-918.144 -1147.219)" fill="#028f99"/>
          </g>
        </g>
        <path id="Trazado_204340" data-name="Trazado 204340" d="M938.659,1144.993a12.512,12.512,0,1,1-14.662-9.9A12.512,12.512,0,0,1,938.659,1144.993Z" transform="translate(-913.861 -1133.07)" fill="#fff" opacity="0.3" style="mix-blend-mode: screen;isolation: isolate"/>
        <path id="Trazado_204341" data-name="Trazado 204341" d="M932.257,1164.77c-.367.945-4.921,2.623-9.1,1s-6.4-5.938-6.037-6.883,2.9,2.573,7.081,4.2S932.625,1163.825,932.257,1164.77Z" transform="translate(-914.855 -1140.442)" fill="#fff" opacity="0.3" style="mix-blend-mode: screen;isolation: isolate"/>
      </g>
      <g id="Grupo_168485" data-name="Grupo 168485" transform="translate(48.348 49.512)">
        <path id="Trazado_204342" data-name="Trazado 204342" d="M993.425,1183.041a11.832,11.832,0,1,1-13.866-9.366A11.832,11.832,0,0,1,993.425,1183.041Z" transform="translate(-967.904 -1173.457)" fill="#ccc" opacity="0.25" style="mix-blend-mode: multiply;isolation: isolate"/>
        <g id="Grupo_168484" data-name="Grupo 168484" transform="translate(1.668 3.402)">
          <path id="Trazado_204343" data-name="Trazado 204343" d="M976.021,1199.221a10.847,10.847,0,1,1,14.212-5.771A10.847,10.847,0,0,1,976.021,1199.221Z" transform="translate(-969.393 -1178.38)" fill="#029ba6"/>
          <path id="Trazado_204344" data-name="Trazado 204344" d="M977.283,1198.505a9.338,9.338,0,1,1,12.236-4.968A9.338,9.338,0,0,1,977.283,1198.505Z" transform="translate(-970.067 -1179.054)" fill="#02b3c0"/>
          <path id="Trazado_204345" data-name="Trazado 204345" d="M980.376,1198.944l7.266-17.2-.257-.578a.9.9,0,0,0-1.128-.48l-.6.218-7.266,17.2.262.584a.9.9,0,0,0,1.132.475Z" transform="translate(-972.171 -1179.076)" fill="#02bfcc"/>
          <g id="Grupo_168483" data-name="Grupo 168483" transform="translate(6.952 1.63)">
            <path id="Trazado_204346" data-name="Trazado 204346" d="M980.111,1199.2l.593-.22,7.266-17.2-.257-.578a.893.893,0,0,0-.469-.462l-7.792,18.445A.9.9,0,0,0,980.111,1199.2Z" transform="translate(-979.452 -1180.738)" fill="#028f99"/>
          </g>
        </g>
        <path id="Trazado_204347" data-name="Trazado 204347" d="M991.777,1186.179a12.512,12.512,0,1,1-14.663-9.9A12.512,12.512,0,0,1,991.777,1186.179Z" transform="translate(-966.979 -1174.256)" fill="#fff" opacity="0.3" style="mix-blend-mode: screen;isolation: isolate"/>
        <path id="Trazado_204348" data-name="Trazado 204348" d="M985.376,1205.956c-.367.945-4.921,2.623-9.1,1s-6.4-5.938-6.037-6.883,2.9,2.573,7.081,4.2S985.743,1205.011,985.376,1205.956Z" transform="translate(-967.974 -1181.628)" fill="#fff" opacity="0.3" style="mix-blend-mode: screen;isolation: isolate"/>
      </g>
      <g id="Grupo_168488" data-name="Grupo 168488" transform="translate(72.445 40.397)">
        <path id="Trazado_204349" data-name="Trazado 204349" d="M1035.764,1174.739a11.832,11.832,0,1,1-13.866-9.366A11.832,11.832,0,0,1,1035.764,1174.739Z" transform="translate(-1005.079 -1161.778)" fill="#ccc" opacity="0.25" style="mix-blend-mode: multiply;isolation: isolate"/>
        <g id="Grupo_168487" data-name="Grupo 168487" transform="translate(6.134 6.08)">
          <path id="Trazado_204350" data-name="Trazado 204350" d="M1033.41,1181.582a10.847,10.847,0,1,1-10.172-11.481A10.847,10.847,0,0,1,1033.41,1181.582Z" transform="translate(-1011.035 -1169.38)" fill="#029ba6"/>
          <circle id="Elipse_5387" data-name="Elipse 5387" cx="9.338" cy="9.338" r="9.338" transform="translate(0 5.141) rotate(-15.979)" fill="#02b3c0"/>
          <path id="Trazado_204351" data-name="Trazado 204351" d="M1032.351,1184.537l-18.637-1.127-.46.435a.9.9,0,0,0-.077,1.223l.406.495,18.638,1.127.463-.441a.9.9,0,0,0,.072-1.225Z" transform="translate(-1011.417 -1173.497)" fill="#02bfcc"/>
          <g id="Grupo_168486" data-name="Grupo 168486" transform="translate(1.557 9.913)">
            <path id="Trazado_204352" data-name="Trazado 204352" d="M1032.756,1185.023l-.405-.486-18.637-1.127-.46.435a.9.9,0,0,0-.279.6l19.987,1.209A.894.894,0,0,0,1032.756,1185.023Z" transform="translate(-1012.975 -1183.41)" fill="#028f99"/>
          </g>
        </g>
        <circle id="Elipse_5388" data-name="Elipse 5388" cx="12.512" cy="12.512" r="12.512" transform="matrix(0.736, -0.677, 0.677, 0.736, 0, 16.937)" fill="#fff" opacity="0.3" style="mix-blend-mode: screen;isolation: isolate"/>
        <path id="Trazado_204353" data-name="Trazado 204353" d="M1027.715,1197.653c-.367.945-4.92,2.624-9.1,1s-6.4-5.938-6.037-6.883,2.9,2.573,7.081,4.2S1028.083,1196.709,1027.715,1197.653Z" transform="translate(-1005.149 -1169.949)" fill="#fff" opacity="0.3" style="mix-blend-mode: screen;isolation: isolate"/>
      </g>
      <g id="Grupo_168491" data-name="Grupo 168491" transform="translate(15.774 54.196)">
        <path id="Trazado_204354" data-name="Trazado 204354" d="M950.28,1191.3a11.832,11.832,0,1,1-13.866-9.367A11.832,11.832,0,0,1,950.28,1191.3Z" transform="translate(-922.005 -1180.69)" fill="#ccc" opacity="0.25" style="mix-blend-mode: multiply;isolation: isolate"/>
        <g id="Grupo_168490" data-name="Grupo 168490">
          <circle id="Elipse_5389" data-name="Elipse 5389" cx="10.847" cy="10.847" r="10.847" transform="matrix(0.77, -0.638, 0.638, 0.77, 0, 13.836)" fill="#029ba6"/>
          <path id="Trazado_204355" data-name="Trazado 204355" d="M947.094,1198.722a9.338,9.338,0,1,1-8.757-9.885A9.338,9.338,0,0,1,947.094,1198.722Z" transform="translate(-922.501 -1182.886)" fill="#02b3c0"/>
          <path id="Trazado_204356" data-name="Trazado 204356" d="M946.866,1201.094l-18.637-1.126-.46.435a.9.9,0,0,0-.077,1.223l.406.494,18.637,1.127.464-.441a.9.9,0,0,0,.071-1.226Z" transform="translate(-922.208 -1186.329)" fill="#02bfcc"/>
          <g id="Grupo_168489" data-name="Grupo 168489" transform="translate(5.282 13.638)">
            <path id="Trazado_204357" data-name="Trazado 204357" d="M947.272,1201.579l-.4-.486-18.637-1.126-.46.435a.894.894,0,0,0-.279.6l19.987,1.208A.9.9,0,0,0,947.272,1201.579Z" transform="translate(-927.491 -1199.967)" fill="#028f99"/>
          </g>
        </g>
        <path id="Trazado_204358" data-name="Trazado 204358" d="M948.633,1194.433a12.512,12.512,0,1,1-14.663-9.9A12.512,12.512,0,0,1,948.633,1194.433Z" transform="translate(-921.08 -1181.49)" fill="#fff" opacity="0.3" style="mix-blend-mode: screen;isolation: isolate"/>
        <path id="Trazado_204359" data-name="Trazado 204359" d="M942.231,1214.21c-.367.945-4.921,2.623-9.1,1s-6.4-5.938-6.038-6.883,2.9,2.573,7.081,4.2S942.6,1213.265,942.231,1214.21Z" transform="translate(-922.074 -1188.862)" fill="#fff" opacity="0.3" style="mix-blend-mode: screen;isolation: isolate"/>
      </g>
      <g id="Grupo_168494" data-name="Grupo 168494" transform="translate(54.962 83.664)">
        <path id="Trazado_204360" data-name="Trazado 204360" d="M1003,1232.457a11.832,11.832,0,1,1-13.866-9.366A11.832,11.832,0,0,1,1003,1232.457Z" transform="translate(-977.475 -1222.872)" fill="#ccc" opacity="0.25" style="mix-blend-mode: multiply;isolation: isolate"/>
        <g id="Grupo_168493" data-name="Grupo 168493" transform="translate(1.67 3.405)">
          <path id="Trazado_204361" data-name="Trazado 204361" d="M1000.641,1239.3a10.847,10.847,0,1,1-10.173-11.482A10.847,10.847,0,0,1,1000.641,1239.3Z" transform="translate(-978.967 -1227.799)" fill="#029ba6"/>
          <path id="Trazado_204362" data-name="Trazado 204362" d="M999.81,1239.884a9.338,9.338,0,1,1-8.757-9.885A9.339,9.339,0,0,1,999.81,1239.884Z" transform="translate(-979.641 -1228.473)" fill="#02b3c0"/>
          <path id="Trazado_204363" data-name="Trazado 204363" d="M999.583,1242.255l-18.638-1.127-.46.435a.9.9,0,0,0-.077,1.223l.406.495,18.637,1.127.464-.441a.9.9,0,0,0,.071-1.226Z" transform="translate(-979.349 -1231.916)" fill="#02bfcc"/>
          <g id="Grupo_168492" data-name="Grupo 168492" transform="translate(0.857 9.212)">
            <path id="Trazado_204364" data-name="Trazado 204364" d="M999.988,1242.741l-.4-.486-18.638-1.127-.46.435a.893.893,0,0,0-.279.595l19.987,1.209A.9.9,0,0,0,999.988,1242.741Z" transform="translate(-980.207 -1241.128)" fill="#028f99"/>
          </g>
        </g>
        <path id="Trazado_204365" data-name="Trazado 204365" d="M1001.348,1235.6a12.512,12.512,0,1,1-14.663-9.9A12.511,12.511,0,0,1,1001.348,1235.6Z" transform="translate(-976.55 -1223.672)" fill="#fff" opacity="0.3" style="mix-blend-mode: screen;isolation: isolate"/>
        <path id="Trazado_204366" data-name="Trazado 204366" d="M994.947,1255.372c-.367.944-4.921,2.623-9.1,1s-6.4-5.939-6.038-6.883,2.9,2.572,7.081,4.2S995.314,1254.427,994.947,1255.372Z" transform="translate(-977.545 -1231.044)" fill="#fff" opacity="0.3" style="mix-blend-mode: screen;isolation: isolate"/>
      </g>
      <g id="Grupo_168497" data-name="Grupo 168497" transform="translate(81.584 77.02)">
        <path id="Trazado_204367" data-name="Trazado 204367" d="M1045.335,1224.154a11.832,11.832,0,1,1-13.866-9.367A11.832,11.832,0,0,1,1045.335,1224.154Z" transform="translate(-1017.174 -1213.663)" fill="#ccc" opacity="0.25" style="mix-blend-mode: multiply;isolation: isolate"/>
        <g id="Grupo_168496" data-name="Grupo 168496">
          <circle id="Elipse_5390" data-name="Elipse 5390" cx="10.847" cy="10.847" r="10.847" transform="translate(0 17.512) rotate(-53.828)" fill="#029ba6"/>
          <path id="Trazado_204368" data-name="Trazado 204368" d="M1042.149,1231.581a9.338,9.338,0,1,1-8.757-9.884A9.337,9.337,0,0,1,1042.149,1231.581Z" transform="translate(-1017.67 -1215.859)" fill="#02b3c0"/>
          <path id="Trazado_204369" data-name="Trazado 204369" d="M1041.922,1233.953l-18.637-1.127-.46.435a.9.9,0,0,0-.077,1.223l.406.494,18.638,1.127.463-.441a.9.9,0,0,0,.071-1.226Z" transform="translate(-1017.378 -1219.302)" fill="#02bfcc"/>
          <g id="Grupo_168495" data-name="Grupo 168495" transform="translate(5.167 13.524)">
            <path id="Trazado_204370" data-name="Trazado 204370" d="M1042.327,1234.438l-.4-.486-18.637-1.127-.46.435a.9.9,0,0,0-.279.6l19.987,1.208A.9.9,0,0,0,1042.327,1234.438Z" transform="translate(-1022.546 -1232.826)" fill="#028f99"/>
          </g>
        </g>
        <circle id="Elipse_5391" data-name="Elipse 5391" cx="12.512" cy="12.512" r="12.512" transform="translate(2.555 2.786) rotate(-0.406)" fill="#fff" opacity="0.3" style="mix-blend-mode: screen;isolation: isolate"/>
        <path id="Trazado_204371" data-name="Trazado 204371" d="M1037.286,1247.069c-.367.945-4.92,2.623-9.1,1s-6.4-5.938-6.037-6.883,2.9,2.573,7.081,4.2S1037.654,1246.124,1037.286,1247.069Z" transform="translate(-1017.243 -1221.835)" fill="#fff" opacity="0.3" style="mix-blend-mode: screen;isolation: isolate"/>
      </g>
      <g id="Grupo_168500" data-name="Grupo 168500" transform="translate(25.144 89.369)">
        <path id="Trazado_204372" data-name="Trazado 204372" d="M959.851,1240.711a11.832,11.832,0,1,1-13.866-9.366A11.832,11.832,0,0,1,959.851,1240.711Z" transform="translate(-934.33 -1231.126)" fill="#ccc" opacity="0.25" style="mix-blend-mode: multiply;isolation: isolate"/>
        <g id="Grupo_168499" data-name="Grupo 168499" transform="translate(1.668 3.402)">
          <path id="Trazado_204373" data-name="Trazado 204373" d="M956.95,1243.444a10.847,10.847,0,1,1-13.736-6.828A10.847,10.847,0,0,1,956.95,1243.444Z" transform="translate(-935.819 -1236.049)" fill="#029ba6"/>
          <path id="Trazado_204374" data-name="Trazado 204374" d="M956.195,1244.6a9.338,9.338,0,1,1-11.826-5.878A9.338,9.338,0,0,1,956.195,1244.6Z" transform="translate(-936.493 -1236.723)" fill="#02b3c0"/>
          <path id="Trazado_204375" data-name="Trazado 204375" d="M955.766,1245.973l-17.7,5.946-.263.576a.9.9,0,0,0,.388,1.162l.562.306,17.7-5.946.265-.582a.9.9,0,0,0-.394-1.163Z" transform="translate(-936.407 -1239.114)" fill="#02bfcc"/>
          <g id="Grupo_168498" data-name="Grupo 168498" transform="translate(1.316 6.859)">
            <path id="Trazado_204376" data-name="Trazado 204376" d="M956.324,1246.272l-.558-.3-17.7,5.946-.263.576a.892.892,0,0,0-.035.657l18.981-6.376A.9.9,0,0,0,956.324,1246.272Z" transform="translate(-937.723 -1245.973)" fill="#028f99"/>
          </g>
        </g>
        <path id="Trazado_204377" data-name="Trazado 204377" d="M958.2,1243.849a12.512,12.512,0,1,1-14.663-9.9A12.511,12.511,0,0,1,958.2,1243.849Z" transform="translate(-933.405 -1231.926)" fill="#fff" opacity="0.3" style="mix-blend-mode: screen;isolation: isolate"/>
        <path id="Trazado_204378" data-name="Trazado 204378" d="M951.8,1263.626c-.367.944-4.921,2.623-9.1,1s-6.4-5.939-6.038-6.883,2.9,2.572,7.081,4.2S952.169,1262.681,951.8,1263.626Z" transform="translate(-934.4 -1239.298)" fill="#fff" opacity="0.3" style="mix-blend-mode: screen;isolation: isolate"/>
      </g>
      <g id="Grupo_168503" data-name="Grupo 168503" transform="translate(61.577 117.817)">
        <path id="Trazado_204379" data-name="Trazado 204379" d="M1012.567,1281.873a11.832,11.832,0,1,1-13.866-9.366A11.833,11.833,0,0,1,1012.567,1281.873Z" transform="translate(-987.046 -1272.288)" fill="#ccc" opacity="0.25" style="mix-blend-mode: multiply;isolation: isolate"/>
        <g id="Grupo_168502" data-name="Grupo 168502" transform="translate(1.67 3.404)">
          <path id="Trazado_204380" data-name="Trazado 204380" d="M1010.212,1288.716a10.847,10.847,0,1,1-10.173-11.481A10.847,10.847,0,0,1,1010.212,1288.716Z" transform="translate(-988.538 -1277.214)" fill="#029ba6"/>
          <circle id="Elipse_5392" data-name="Elipse 5392" cx="9.338" cy="9.338" r="9.338" transform="matrix(1, -0.017, 0.017, 1, 1.356, 1.665)" fill="#02b3c0"/>
          <path id="Trazado_204381" data-name="Trazado 204381" d="M1009.153,1291.67l-18.637-1.126-.459.435a.9.9,0,0,0-.077,1.223l.406.495,18.637,1.126.464-.441a.9.9,0,0,0,.071-1.225Z" transform="translate(-988.92 -1281.331)" fill="#02bfcc"/>
          <g id="Grupo_168501" data-name="Grupo 168501" transform="translate(0.857 9.213)">
            <path id="Trazado_204382" data-name="Trazado 204382" d="M1009.559,1292.157l-.405-.487-18.637-1.126-.46.435a.9.9,0,0,0-.279.6l19.987,1.209A.894.894,0,0,0,1009.559,1292.157Z" transform="translate(-989.778 -1290.544)" fill="#028f99"/>
          </g>
        </g>
        <path id="Trazado_204383" data-name="Trazado 204383" d="M1010.919,1285.01a12.512,12.512,0,1,1-14.663-9.9A12.512,12.512,0,0,1,1010.919,1285.01Z" transform="translate(-986.121 -1273.088)" fill="#fff" opacity="0.3" style="mix-blend-mode: screen;isolation: isolate"/>
        <path id="Trazado_204384" data-name="Trazado 204384" d="M1004.518,1304.787c-.367.945-4.921,2.623-9.1,1s-6.4-5.938-6.038-6.883,2.9,2.573,7.081,4.2S1004.885,1303.843,1004.518,1304.787Z" transform="translate(-987.116 -1280.46)" fill="#fff" opacity="0.3" style="mix-blend-mode: screen;isolation: isolate"/>
      </g>
      <g id="Grupo_168506" data-name="Grupo 168506" transform="translate(86.284 109.312)">
        <path id="Trazado_204385" data-name="Trazado 204385" d="M1054.906,1273.57a11.832,11.832,0,1,1-13.866-9.366A11.832,11.832,0,0,1,1054.906,1273.57Z" transform="translate(-1024.831 -1261.219)" fill="#ccc" opacity="0.25" style="mix-blend-mode: multiply;isolation: isolate"/>
        <g id="Grupo_168505" data-name="Grupo 168505" transform="translate(6.222 6.168)">
          <path id="Trazado_204386" data-name="Trazado 204386" d="M1052.078,1276.529a10.847,10.847,0,1,1-13.583-7.127A10.846,10.846,0,0,1,1052.078,1276.529Z" transform="translate(-1030.874 -1268.908)" fill="#029ba6"/>
          <path id="Trazado_204387" data-name="Trazado 204387" d="M1051.313,1277.653a9.338,9.338,0,1,1-11.694-6.135A9.337,9.337,0,0,1,1051.313,1277.653Z" transform="translate(-1031.548 -1269.582)" fill="#02b3c0"/>
          <path id="Trazado_204388" data-name="Trazado 204388" d="M1050.879,1279.1l-17.825,5.557-.276.57a.9.9,0,0,0,.362,1.171l.556.318,17.825-5.557.277-.576a.9.9,0,0,0-.368-1.171Z" transform="translate(-1031.435 -1272.057)" fill="#02bfcc"/>
          <g id="Grupo_168504" data-name="Grupo 168504" transform="translate(1.255 7.045)">
            <path id="Trazado_204389" data-name="Trazado 204389" d="M1051.43,1279.413l-.551-.311-17.825,5.557-.276.57a.9.9,0,0,0-.05.656l19.117-5.96A.9.9,0,0,0,1051.43,1279.413Z" transform="translate(-1032.689 -1279.102)" fill="#028f99"/>
          </g>
        </g>
        <circle id="Elipse_5393" data-name="Elipse 5393" cx="12.512" cy="12.512" r="12.512" transform="matrix(0.868, -0.496, 0.496, 0.868, 0, 12.406)" fill="#fff" opacity="0.3" style="mix-blend-mode: screen;isolation: isolate"/>
        <path id="Trazado_204390" data-name="Trazado 204390" d="M1046.857,1296.485c-.367.944-4.921,2.623-9.1,1s-6.4-5.939-6.037-6.883,2.9,2.572,7.081,4.2S1047.225,1295.54,1046.857,1296.485Z" transform="translate(-1024.901 -1269.391)" fill="#fff" opacity="0.3" style="mix-blend-mode: screen;isolation: isolate"/>
      </g>
      <g id="Grupo_168509" data-name="Grupo 168509" transform="translate(31.758 123.521)">
        <path id="Trazado_204391" data-name="Trazado 204391" d="M969.422,1290.127a11.832,11.832,0,1,1-13.866-9.366A11.833,11.833,0,0,1,969.422,1290.127Z" transform="translate(-943.901 -1280.542)" fill="#ccc" opacity="0.25" style="mix-blend-mode: multiply;isolation: isolate"/>
        <g id="Grupo_168508" data-name="Grupo 168508" transform="translate(1.668 3.402)">
          <path id="Trazado_204392" data-name="Trazado 204392" d="M966.614,1293.151a10.847,10.847,0,1,1-13.538-7.212A10.847,10.847,0,0,1,966.614,1293.151Z" transform="translate(-945.39 -1285.465)" fill="#029ba6"/>
          <path id="Trazado_204393" data-name="Trazado 204393" d="M965.846,1294.266a9.338,9.338,0,1,1-11.655-6.209A9.338,9.338,0,0,1,965.846,1294.266Z" transform="translate(-946.064 -1286.139)" fill="#02b3c0"/>
          <path id="Trazado_204394" data-name="Trazado 204394" d="M965.411,1295.737l-17.859,5.445-.279.568a.9.9,0,0,0,.354,1.173l.554.322,17.859-5.445.281-.575a.9.9,0,0,0-.361-1.173Z" transform="translate(-945.943 -1288.637)" fill="#02bfcc"/>
          <g id="Grupo_168507" data-name="Grupo 168507" transform="translate(1.238 7.1)">
            <path id="Trazado_204395" data-name="Trazado 204395" d="M965.96,1296.052l-.549-.314-17.859,5.445-.279.568a.9.9,0,0,0-.054.655l19.153-5.839A.894.894,0,0,0,965.96,1296.052Z" transform="translate(-947.18 -1295.737)" fill="#028f99"/>
          </g>
        </g>
        <path id="Trazado_204396" data-name="Trazado 204396" d="M967.774,1293.264a12.512,12.512,0,1,1-14.663-9.9A12.512,12.512,0,0,1,967.774,1293.264Z" transform="translate(-942.976 -1281.342)" fill="#fff" opacity="0.3" style="mix-blend-mode: screen;isolation: isolate"/>
        <path id="Trazado_204397" data-name="Trazado 204397" d="M961.373,1313.041c-.367.945-4.921,2.624-9.1,1s-6.4-5.938-6.038-6.883,2.9,2.573,7.081,4.2S961.74,1312.1,961.373,1313.041Z" transform="translate(-943.971 -1288.714)" fill="#fff" opacity="0.3" style="mix-blend-mode: screen;isolation: isolate"/>
      </g>
    </g>
    <g id="Grupo_168545" data-name="Grupo 168545" transform="translate(753.897 1134.83)">
      <path id="Trazado_204398" data-name="Trazado 204398" d="M925.406,1289.323a11.561,11.561,0,0,0,13.549,9.153l39.6-7.669-67.439-75.273Z" transform="translate(-802.458 -1190.7)" fill="#e9e3f1" opacity="0.31" style="mix-blend-mode: multiply;isolation: isolate"/>
      <path id="Trazado_204399" data-name="Trazado 204399" d="M924.947,1303.846l-58.5,52.407a11.931,11.931,0,0,1-16.848-.925L756.942,1251.9a11.93,11.93,0,0,1,.925-16.847l58.5-52.407a11.931,11.931,0,0,1,16.848.925L925.872,1287A11.931,11.931,0,0,1,924.947,1303.846Z" transform="translate(-753.897 -1179.602)" fill="#ccc"/>
      <path id="Trazado_204400" data-name="Trazado 204400" d="M902.562,1337.914l-90.009-100.466a2.388,2.388,0,0,1,.185-3.372h0a2.388,2.388,0,0,1,3.372.185l90.009,100.465a2.388,2.388,0,0,1-.185,3.372h0A2.388,2.388,0,0,1,902.562,1337.914Z" transform="translate(-771.826 -1196.24)" fill="#ccc" opacity="0.5" style="mix-blend-mode: multiply;isolation: isolate"/>
      <g id="Grupo_168527" data-name="Grupo 168527" transform="translate(59.49 12.045)">
        <g id="Grupo_168514" data-name="Grupo 168514">
          <g id="Grupo_168511" data-name="Grupo 168511" transform="translate(11.284 1.908)" style="mix-blend-mode: multiply;isolation: isolate">
            <path id="Trazado_204401" data-name="Trazado 204401" d="M860.834,1199.8a11.125,11.125,0,0,0-1.883.084l-2.648,39.747a11.291,11.291,0,0,0,1.417.117h0c5.647.243,10.554-3.785,10.961-9l1.643-21.07C870.729,1204.467,866.481,1200.044,860.834,1199.8Z" transform="translate(-856.302 -1199.79)" fill="#ccc" opacity="0.25"/>
          </g>
          <g id="Grupo_168512" data-name="Grupo 168512" transform="translate(1.974 1.636)">
            <path id="Trazado_204402" data-name="Trazado 204402" d="M859.274,1240.764l.677-11.759-16.429-.946-.677,11.759a8.122,8.122,0,0,0,7.642,8.577l.209.012A8.123,8.123,0,0,0,859.274,1240.764Z" transform="translate(-842.831 -1208.25)" fill="#e6ebf2"/>
            <path id="Trazado_204403" data-name="Trazado 204403" d="M861.024,1208.17a8.283,8.283,0,0,0-7.794-8.747l-.214-.012a8.284,8.284,0,0,0-8.747,7.794l-.728,12.639a29.9,29.9,0,0,0,16.755.965Z" transform="translate(-843.05 -1199.397)" fill="#7e5ee3"/>
          </g>
          <g id="Grupo_168513" data-name="Grupo 168513" transform="translate(14.04 2.62)" style="mix-blend-mode: multiply;isolation: isolate">
            <path id="Trazado_204404" data-name="Trazado 204404" d="M864.666,1232.351l.638-11.072c.055-.012.11-.019.165-.03l.728-12.639a8.279,8.279,0,0,0-4.391-7.789c.845,1.491,2.033,4.521,2.041,9.826.012,8.226-1.276,23.153-1.276,23.153a8.342,8.342,0,0,1-2.281,5.289A8.111,8.111,0,0,0,864.666,1232.351Z" transform="translate(-860.29 -1200.821)" fill="#dadfe6"/>
          </g>
          <path id="Trazado_204405" data-name="Trazado 204405" d="M849.63,1240.431h0S843.969,1240.092,849.63,1240.431Z" transform="translate(-839.975 -1197.03)" fill="#fff" opacity="0.25"/>
        </g>
        <g id="Grupo_168518" data-name="Grupo 168518" transform="translate(23.651 26.398)">
          <g id="Grupo_168515" data-name="Grupo 168515" transform="translate(11.283 1.908)" style="mix-blend-mode: multiply;isolation: isolate">
            <path id="Trazado_204407" data-name="Trazado 204407" d="M895.054,1238a11.2,11.2,0,0,0-1.883.084l-2.649,39.747a11.176,11.176,0,0,0,1.417.117h0c5.647.244,10.554-3.785,10.961-9l1.643-21.07C904.95,1242.664,900.7,1238.24,895.054,1238Z" transform="translate(-890.522 -1237.986)" fill="#ccc" opacity="0.25"/>
          </g>
          <g id="Grupo_168516" data-name="Grupo 168516" transform="translate(1.974 1.636)">
            <path id="Trazado_204408" data-name="Trazado 204408" d="M893.495,1278.96l.677-11.758-16.429-.947-.677,11.759a8.123,8.123,0,0,0,7.642,8.578l.209.012A8.123,8.123,0,0,0,893.495,1278.96Z" transform="translate(-877.052 -1246.446)" fill="#e6ebf2"/>
            <path id="Trazado_204409" data-name="Trazado 204409" d="M895.245,1246.366a8.284,8.284,0,0,0-7.794-8.747l-.214-.012a8.285,8.285,0,0,0-8.747,7.794l-.728,12.639a29.89,29.89,0,0,0,16.755.965Z" transform="translate(-877.271 -1237.593)" fill="#7e5ee3"/>
          </g>
          <g id="Grupo_168517" data-name="Grupo 168517" transform="translate(14.04 2.62)" style="mix-blend-mode: multiply;isolation: isolate">
            <path id="Trazado_204410" data-name="Trazado 204410" d="M898.887,1270.547l.638-11.072c.055-.012.109-.018.165-.03l.728-12.639a8.279,8.279,0,0,0-4.391-7.789c.845,1.491,2.033,4.522,2.042,9.826.012,8.226-1.277,23.153-1.277,23.153a8.347,8.347,0,0,1-2.281,5.29A8.112,8.112,0,0,0,898.887,1270.547Z" transform="translate(-894.511 -1239.017)" fill="#dadfe6"/>
          </g>
        </g>
        <g id="Grupo_168522" data-name="Grupo 168522" transform="translate(47.302 52.796)">
          <g id="Grupo_168519" data-name="Grupo 168519" transform="translate(11.283 1.908)" style="mix-blend-mode: multiply;isolation: isolate">
            <path id="Trazado_204413" data-name="Trazado 204413" d="M929.275,1276.193a11.184,11.184,0,0,0-1.883.084l-2.649,39.747a11.288,11.288,0,0,0,1.417.118h0c5.647.244,10.554-3.784,10.961-9l1.643-21.07C939.171,1280.86,934.923,1276.436,929.275,1276.193Z" transform="translate(-924.743 -1276.183)" fill="#ccc" opacity="0.25"/>
          </g>
          <g id="Grupo_168520" data-name="Grupo 168520" transform="translate(1.973 1.636)">
            <path id="Trazado_204414" data-name="Trazado 204414" d="M927.715,1317.157l.677-11.759-16.429-.946-.677,11.759a8.124,8.124,0,0,0,7.643,8.577l.209.012A8.122,8.122,0,0,0,927.715,1317.157Z" transform="translate(-911.272 -1284.643)" fill="#e6ebf2"/>
            <path id="Trazado_204415" data-name="Trazado 204415" d="M929.466,1284.563a8.285,8.285,0,0,0-7.795-8.747l-.214-.012a8.284,8.284,0,0,0-8.747,7.794l-.728,12.639a29.9,29.9,0,0,0,16.755.965Z" transform="translate(-911.492 -1275.79)" fill="#7e5ee3"/>
          </g>
          <g id="Grupo_168521" data-name="Grupo 168521" transform="translate(14.04 2.621)" style="mix-blend-mode: multiply;isolation: isolate">
            <path id="Trazado_204416" data-name="Trazado 204416" d="M933.108,1308.744l.638-11.072c.055-.012.109-.019.164-.03l.728-12.639a8.278,8.278,0,0,0-4.391-7.788c.845,1.491,2.033,4.521,2.042,9.825.012,8.227-1.277,23.153-1.277,23.153a8.347,8.347,0,0,1-2.281,5.29A8.112,8.112,0,0,0,933.108,1308.744Z" transform="translate(-928.732 -1277.214)" fill="#dadfe6"/>
          </g>
        </g>
        <g id="Grupo_168526" data-name="Grupo 168526" transform="translate(70.953 79.195)">
          <g id="Grupo_168523" data-name="Grupo 168523" transform="translate(11.283 1.908)" style="mix-blend-mode: multiply;isolation: isolate">
            <path id="Trazado_204419" data-name="Trazado 204419" d="M963.5,1314.389a11.12,11.12,0,0,0-1.883.084l-2.649,39.747a11.176,11.176,0,0,0,1.417.117h0c5.646.244,10.554-3.785,10.961-9l1.643-21.07C973.392,1319.057,969.144,1314.633,963.5,1314.389Z" transform="translate(-958.964 -1314.379)" fill="#ccc" opacity="0.25"/>
          </g>
          <g id="Grupo_168524" data-name="Grupo 168524" transform="translate(1.973 1.636)">
            <path id="Trazado_204420" data-name="Trazado 204420" d="M961.936,1355.353l.677-11.759-16.429-.946-.677,11.759a8.123,8.123,0,0,0,7.643,8.577l.209.012A8.123,8.123,0,0,0,961.936,1355.353Z" transform="translate(-945.493 -1322.839)" fill="#e6ebf2"/>
            <path id="Trazado_204421" data-name="Trazado 204421" d="M963.687,1322.759a8.285,8.285,0,0,0-7.795-8.747l-.214-.012a8.285,8.285,0,0,0-8.747,7.795l-.728,12.639a29.893,29.893,0,0,0,16.754.965Z" transform="translate(-945.713 -1313.986)" fill="#7e5ee3"/>
          </g>
          <g id="Grupo_168525" data-name="Grupo 168525" transform="translate(14.04 2.62)" style="mix-blend-mode: multiply;isolation: isolate">
            <path id="Trazado_204422" data-name="Trazado 204422" d="M967.329,1346.94l.638-11.072c.055-.012.109-.018.164-.03l.728-12.639a8.278,8.278,0,0,0-4.391-7.789c.845,1.491,2.033,4.521,2.042,9.826.012,8.226-1.276,23.153-1.276,23.153a8.345,8.345,0,0,1-2.281,5.289A8.111,8.111,0,0,0,967.329,1346.94Z" transform="translate(-962.953 -1315.41)" fill="#dadfe6"/>
          </g>
        </g>
      </g>
      <g id="Grupo_168544" data-name="Grupo 168544" transform="translate(22.718 44.989)">
        <g id="Grupo_168531" data-name="Grupo 168531">
          <g id="Grupo_168528" data-name="Grupo 168528" transform="translate(11.283 1.908)" style="mix-blend-mode: multiply;isolation: isolate">
            <path id="Trazado_204425" data-name="Trazado 204425" d="M807.627,1247.468a11.2,11.2,0,0,0-1.883.084l-2.649,39.747a11.155,11.155,0,0,0,1.417.117h0c5.647.244,10.554-3.784,10.961-9l1.643-21.07C817.523,1252.136,813.275,1247.712,807.627,1247.468Z" transform="translate(-803.095 -1247.458)" fill="#ccc" opacity="0.25"/>
          </g>
          <g id="Grupo_168529" data-name="Grupo 168529" transform="translate(1.973 1.636)">
            <path id="Trazado_204426" data-name="Trazado 204426" d="M806.067,1288.433l.677-11.759-16.429-.947-.677,11.759a8.124,8.124,0,0,0,7.643,8.578l.209.012A8.123,8.123,0,0,0,806.067,1288.433Z" transform="translate(-789.624 -1255.919)" fill="#e6ebf2"/>
            <path id="Trazado_204427" data-name="Trazado 204427" d="M807.818,1255.838a8.285,8.285,0,0,0-7.795-8.747l-.214-.012a8.284,8.284,0,0,0-8.747,7.794l-.728,12.639a29.893,29.893,0,0,0,16.754.965Z" transform="translate(-789.844 -1247.066)" fill="#7e5ee3"/>
          </g>
          <g id="Grupo_168530" data-name="Grupo 168530" transform="translate(14.04 2.621)" style="mix-blend-mode: multiply;isolation: isolate">
            <path id="Trazado_204428" data-name="Trazado 204428" d="M811.46,1280.019l.638-11.071c.055-.012.109-.019.164-.031l.728-12.639a8.278,8.278,0,0,0-4.391-7.788c.845,1.491,2.033,4.521,2.042,9.825.012,8.226-1.276,23.153-1.276,23.153a8.348,8.348,0,0,1-2.281,5.29A8.112,8.112,0,0,0,811.46,1280.019Z" transform="translate(-807.084 -1248.49)" fill="#dadfe6"/>
          </g>
        </g>
        <g id="Grupo_168535" data-name="Grupo 168535" transform="translate(23.651 26.399)">
          <g id="Grupo_168532" data-name="Grupo 168532" transform="translate(11.283 1.908)" style="mix-blend-mode: multiply;isolation: isolate">
            <path id="Trazado_204431" data-name="Trazado 204431" d="M841.848,1285.665a11.184,11.184,0,0,0-1.883.084l-2.649,39.747a11.43,11.43,0,0,0,1.418.117h0c5.646.243,10.554-3.785,10.961-9l1.643-21.07C851.743,1290.333,847.5,1285.909,841.848,1285.665Z" transform="translate(-837.316 -1285.655)" fill="#ccc" opacity="0.25"/>
          </g>
          <g id="Grupo_168533" data-name="Grupo 168533" transform="translate(1.973 1.636)">
            <path id="Trazado_204432" data-name="Trazado 204432" d="M840.288,1326.629l.677-11.759-16.429-.946-.677,11.759a8.124,8.124,0,0,0,7.643,8.577l.209.012A8.123,8.123,0,0,0,840.288,1326.629Z" transform="translate(-823.845 -1294.115)" fill="#e6ebf2"/>
            <path id="Trazado_204433" data-name="Trazado 204433" d="M842.039,1294.035a8.285,8.285,0,0,0-7.795-8.747l-.214-.012a8.284,8.284,0,0,0-8.747,7.794l-.728,12.639a29.894,29.894,0,0,0,16.754.966Z" transform="translate(-824.065 -1285.262)" fill="#7e5ee3"/>
          </g>
          <g id="Grupo_168534" data-name="Grupo 168534" transform="translate(14.04 2.62)" style="mix-blend-mode: multiply;isolation: isolate">
            <path id="Trazado_204434" data-name="Trazado 204434" d="M845.681,1318.216l.638-11.072c.055-.012.109-.019.165-.03l.728-12.639a8.279,8.279,0,0,0-4.391-7.789c.845,1.491,2.033,4.521,2.042,9.825.012,8.227-1.276,23.153-1.276,23.153a8.348,8.348,0,0,1-2.281,5.29A8.112,8.112,0,0,0,845.681,1318.216Z" transform="translate(-841.305 -1286.686)" fill="#dadfe6"/>
          </g>
        </g>
        <g id="Grupo_168539" data-name="Grupo 168539" transform="translate(47.301 52.797)">
          <g id="Grupo_168536" data-name="Grupo 168536" transform="translate(11.284 1.908)" style="mix-blend-mode: multiply;isolation: isolate">
            <path id="Trazado_204437" data-name="Trazado 204437" d="M876.069,1323.861a11.194,11.194,0,0,0-1.884.084l-2.648,39.746a11.155,11.155,0,0,0,1.417.117h0c5.646.244,10.554-3.785,10.961-9l1.643-21.069C885.964,1328.529,881.717,1324.1,876.069,1323.861Z" transform="translate(-871.537 -1323.851)" fill="#ccc" opacity="0.25"/>
          </g>
          <g id="Grupo_168537" data-name="Grupo 168537" transform="translate(1.974 1.636)">
            <path id="Trazado_204438" data-name="Trazado 204438" d="M874.509,1364.825l.677-11.759-16.429-.946-.677,11.759a8.123,8.123,0,0,0,7.643,8.577l.209.012A8.124,8.124,0,0,0,874.509,1364.825Z" transform="translate(-858.066 -1332.311)" fill="#e6ebf2"/>
            <path id="Trazado_204439" data-name="Trazado 204439" d="M876.259,1332.231a8.284,8.284,0,0,0-7.794-8.747l-.214-.012a8.285,8.285,0,0,0-8.747,7.794l-.728,12.639a29.894,29.894,0,0,0,16.754.965Z" transform="translate(-858.286 -1323.458)" fill="#ff4545"/>
          </g>
          <g id="Grupo_168538" data-name="Grupo 168538" transform="translate(14.041 2.62)" style="mix-blend-mode: multiply;isolation: isolate">
            <path id="Trazado_204440" data-name="Trazado 204440" d="M879.9,1356.412l.638-11.072c.055-.012.109-.018.164-.03l.728-12.639a8.278,8.278,0,0,0-4.391-7.789c.845,1.491,2.033,4.522,2.042,9.826.012,8.226-1.276,23.153-1.276,23.153a8.348,8.348,0,0,1-2.281,5.29A8.113,8.113,0,0,0,879.9,1356.412Z" transform="translate(-875.526 -1324.882)" fill="#dadfe6"/>
          </g>
          <path id="Trazado_204441" data-name="Trazado 204441" d="M875.73,1354.855l1.37-22.881a10.269,10.269,0,0,0-9.637-10.865h0a10.269,10.269,0,0,0-10.865,9.636l-1.37,22.882a10.269,10.269,0,0,0,9.637,10.865h0A10.269,10.269,0,0,0,875.73,1354.855Z" transform="translate(-855.21 -1321.091)" fill="#fff" opacity="0.25"/>
          <path id="Trazado_204442" data-name="Trazado 204442" d="M867.473,1340.989c-.359,6.271-1.725,11.293-3.051,11.217s-2.108-5.221-1.749-11.492,1.725-11.294,3.051-11.218S867.833,1334.718,867.473,1340.989Z" transform="translate(-857.489 -1323.687)" fill="#ff4545" style="mix-blend-mode: screen;isolation: isolate"/>
        </g>
        <g id="Grupo_168543" data-name="Grupo 168543" transform="translate(70.952 79.195)">
          <g id="Grupo_168540" data-name="Grupo 168540" transform="translate(11.284 1.908)" style="mix-blend-mode: multiply;isolation: isolate">
            <path id="Trazado_204443" data-name="Trazado 204443" d="M910.29,1362.057a11.273,11.273,0,0,0-1.884.084l-2.648,39.747a11.314,11.314,0,0,0,1.417.116h0c5.646.244,10.554-3.784,10.961-9l1.643-21.07C920.185,1366.725,915.938,1362.3,910.29,1362.057Z" transform="translate(-905.758 -1362.048)" fill="#ccc" opacity="0.25"/>
          </g>
          <g id="Grupo_168541" data-name="Grupo 168541" transform="translate(1.974 1.636)">
            <path id="Trazado_204444" data-name="Trazado 204444" d="M908.73,1403.022l.677-11.759-16.429-.946-.677,11.758a8.124,8.124,0,0,0,7.643,8.578l.209.012A8.124,8.124,0,0,0,908.73,1403.022Z" transform="translate(-892.287 -1370.508)" fill="#e6ebf2"/>
            <path id="Trazado_204445" data-name="Trazado 204445" d="M910.48,1370.427a8.284,8.284,0,0,0-7.794-8.747l-.214-.012a8.284,8.284,0,0,0-8.747,7.794L893,1382.1a29.893,29.893,0,0,0,16.754.965Z" transform="translate(-892.507 -1361.655)" fill="#ff4545"/>
          </g>
          <g id="Grupo_168542" data-name="Grupo 168542" transform="translate(14.04 2.621)" style="mix-blend-mode: multiply;isolation: isolate">
            <path id="Trazado_204446" data-name="Trazado 204446" d="M914.123,1394.609l.637-11.072c.056-.012.11-.019.165-.03l.728-12.639a8.278,8.278,0,0,0-4.391-7.788c.845,1.491,2.033,4.521,2.041,9.825.012,8.226-1.277,23.153-1.277,23.153a8.343,8.343,0,0,1-2.281,5.29A8.112,8.112,0,0,0,914.123,1394.609Z" transform="translate(-909.746 -1363.079)" fill="#dadfe6"/>
          </g>
          <path id="Trazado_204447" data-name="Trazado 204447" d="M909.951,1393.052l1.37-22.882a10.269,10.269,0,0,0-9.637-10.865h0a10.27,10.27,0,0,0-10.865,9.637l-1.37,22.881a10.269,10.269,0,0,0,9.637,10.865h0A10.269,10.269,0,0,0,909.951,1393.052Z" transform="translate(-889.431 -1359.287)" fill="#fff" opacity="0.25"/>
          <path id="Trazado_204448" data-name="Trazado 204448" d="M901.694,1379.186c-.359,6.271-1.725,11.294-3.051,11.218s-2.108-5.221-1.749-11.493,1.725-11.293,3.05-11.217S902.054,1372.914,901.694,1379.186Z" transform="translate(-891.71 -1361.883)" fill="#ff4545" style="mix-blend-mode: screen;isolation: isolate"/>
        </g>
      </g>
    </g>
    <g id="Grupo_168554" data-name="Grupo 168554" transform="translate(821.92 1206.227)">
      <g id="Grupo_168553" data-name="Grupo 168553" transform="translate(0 2.579)">
        <path id="Trazado_204450" data-name="Trazado 204450" d="M864.452,1321.063l.011-6.873,26.785.044,26.785.044-.011,6.872a33.192,33.192,0,0,1,11.317,16.315,16.307,16.307,0,0,1,.75,4.908v76.383a6.253,6.253,0,0,1-4.3,5.946c-5.906,1.942-17.764,4.932-34.732,4.9-17.875-.029-29.016-2.858-34.534-4.783a6.262,6.262,0,0,1-4.2-5.914v-76.629a16.292,16.292,0,0,1,.766-4.96A33.2,33.2,0,0,1,864.452,1321.063Z" transform="translate(-852.321 -1295.149)" fill="#e5914a" fill-rule="evenodd" opacity="0.95"/>
        <path id="Trazado_204451" data-name="Trazado 204451" d="M923.443,1321.15s-10.775,3.208-27.572,3.181-26-3.268-26-3.268l.006-6.873h53.57Z" transform="translate(-857.742 -1295.149)" fill="#e5914a" fill-rule="evenodd" opacity="0.3" style="mix-blend-mode: multiply;isolation: isolate"/>
        <g id="Grupo_168549" data-name="Grupo 168549" transform="translate(5.51)">
          <path id="Trazado_204452" data-name="Trazado 204452" d="M927.315,1310.075c0,2.443-15,4.424-33.511,4.424s-33.51-1.981-33.51-4.424v-11.721h67.021Z" transform="translate(-860.294 -1290.257)" fill="#e9e3f1"/>
          <g id="Grupo_168547" data-name="Grupo 168547" transform="translate(3.738 12.162)" opacity="0.3" style="mix-blend-mode: multiply;isolation: isolate">
            <path id="Trazado_204453" data-name="Trazado 204453" d="M903.093,1315.668l-.662-.011.012-7.64.656.014Z" transform="translate(-877.047 -1305.405)" fill="#a9a1c2"/>
            <path id="Trazado_204454" data-name="Trazado 204454" d="M889.827,1315.171c-.223-.012-.442-.026-.662-.038l.012-7.714.656.046Z" transform="translate(-872.949 -1305.22)" fill="#a9a1c2"/>
            <path id="Trazado_204455" data-name="Trazado 204455" d="M878.1,1314.186l-.662-.073.012-7.817.656.08Z" transform="translate(-869.325 -1304.873)" fill="#a9a1c2"/>
            <path id="Trazado_204456" data-name="Trazado 204456" d="M866.363,1312.3c-.229-.053-.449-.106-.661-.161l.012-7.893q.316.08.655.16Z" transform="translate(-865.702 -1304.239)" fill="#a9a1c2"/>
            <path id="Trazado_204457" data-name="Trazado 204457" d="M951.559,1312.135q-.318.081-.661.16l.012-7.9q.34-.08.655-.16Z" transform="translate(-892.017 -1304.237)" fill="#a9a1c2"/>
            <path id="Trazado_204458" data-name="Trazado 204458" d="M938.292,1314.285c-.22.022-.438.046-.662.067l.012-7.8.656-.076Z" transform="translate(-887.919 -1304.93)" fill="#a9a1c2"/>
            <path id="Trazado_204459" data-name="Trazado 204459" d="M926.559,1315.223l-.663.035.012-7.7.656-.041Z" transform="translate(-884.294 -1305.251)" fill="#a9a1c2"/>
            <path id="Trazado_204460" data-name="Trazado 204460" d="M914.826,1315.656l-.662.011.011-7.638c.22,0,.438-.009.657-.014Z" transform="translate(-880.671 -1305.404)" fill="#a9a1c2"/>
          </g>
          <path id="Trazado_204461" data-name="Trazado 204461" d="M860.294,1296.769c0,1.959,15,4.492,33.51,4.492s33.511-2.533,33.511-4.492-15-3.547-33.511-3.547S860.294,1294.81,860.294,1296.769Z" transform="translate(-860.294 -1288.672)" fill="#fff"/>
          <g id="Grupo_168548" data-name="Grupo 168548" transform="translate(4.407)">
            <path id="Trazado_204462" data-name="Trazado 204462" d="M924.878,1294.351c0,2.122-13.03,3.843-29.1,3.843s-29.1-1.72-29.1-3.843V1291.1h58.207Z" transform="translate(-866.671 -1288.016)" fill="#dbd6e3"/>
            <path id="Trazado_204463" data-name="Trazado 204463" d="M866.671,1289.719c0,1.7,13.03,3.081,29.1,3.081s29.1-1.379,29.1-3.081-13.03-3.08-29.1-3.08S866.671,1288.018,866.671,1289.719Z" transform="translate(-866.671 -1286.639)" fill="#e9e3f1"/>
          </g>
        </g>
        <g id="Grupo_168552" data-name="Grupo 168552" transform="translate(0 56.473)">
          <g id="Grupo_168550" data-name="Grupo 168550">
            <path id="Trazado_204464" data-name="Trazado 204464" d="M852.321,1368.351v67.328a164.9,164.9,0,0,0,28.691,4.277,7.423,7.423,0,0,0,7.858-7.412v-54.3a7.414,7.414,0,0,0-7.181-7.406A288.359,288.359,0,0,1,852.321,1368.351Z" transform="translate(-852.321 -1368.351)" fill="#e9e3f1"/>
          </g>
          <g id="Grupo_168551" data-name="Grupo 168551" transform="translate(61.764)">
            <path id="Trazado_204465" data-name="Trazado 204465" d="M957.692,1368.351q-4.6.6-9.3,1.03a7.4,7.4,0,0,0-6.7,7.382v53.344a7.43,7.43,0,0,0,8.96,7.262q3.553-.74,7.043-1.69Z" transform="translate(-941.688 -1368.351)" fill="#e9e3f1"/>
          </g>
        </g>
      </g>
    </g>
    <path id="Trazado_204466" data-name="Trazado 204466" d="M1097.486,1479.974c0,3.251,16.6,5.886,37.079,5.886s37.079-2.635,37.079-5.886-16.6-5.886-37.079-5.886S1097.486,1476.723,1097.486,1479.974Z" transform="translate(-106.126 -135.731)" fill="#01a6b5" opacity="0.8" style="mix-blend-mode: multiply;isolation: isolate"/>
    <g id="Grupo_168556" data-name="Grupo 168556" transform="translate(935.591 1058.654)">
      <path id="Trazado_204467" data-name="Trazado 204467" d="M1170.189,1069.412a9.637,9.637,0,0,1,7.815,2.9l-8,21.561a59.575,59.575,0,0,0-7.816-2.9Z" transform="translate(-1061.703 -1069.381)" fill="#f8f8f8" opacity="0.8"/>
      <rect id="Rect치ngulo_47847" data-name="Rect치ngulo 47847" width="22.692" height="212.061" transform="matrix(-0.938, -0.348, 0.348, -0.938, 33.257, 247.468)" fill="#a4a4a4" opacity="0.8"/>
      <rect id="Rect치ngulo_47848" data-name="Rect치ngulo 47848" width="11.346" height="212.061" transform="translate(33.258 247.468) rotate(-159.651)" fill="#d1d1d1" opacity="0.8"/>
      <path id="Trazado_204468" data-name="Trazado 204468" d="M1133.1,1128.958c.227,0,.45.015.675.02l-.985,2.656c-.395-.014-.788-.032-1.186-.035-.568-.006-1.145.615-1.287,1.383s.2,1.4.77,1.4c.227,0,.45.015.675.02l-.827,2.23c-.442,1.189-.073,2.368.791,2.556a92.153,92.153,0,0,1,23.126,8.607c.776.407,1.821-.247,2.259-1.428l.836-2.253c.174.143.352.279.525.425.431.366,1.1.117,1.5-.561a1.563,1.563,0,0,0-.073-1.888c-.3-.256-.614-.5-.922-.746l.985-2.656c.175.143.352.279.524.425.431.365,1.1.117,1.5-.561a1.563,1.563,0,0,0-.073-1.887c-.3-.256-.614-.5-.922-.747l1.118-3.013a2.12,2.12,0,0,0-.361-2.365l-3.489-2.745a27.651,27.651,0,0,0-16.084-5.965l-4.434-.194a2.121,2.121,0,0,0-1.817,1.557l-1.118,3.013c-.395-.013-.788-.031-1.186-.035-.568-.006-1.145.614-1.287,1.383S1132.536,1128.953,1133.1,1128.958Z" transform="translate(-1051.849 -1085.522)" fill="#4a4a4a"/>
      <path id="Rect치ngulo_47849" data-name="Rect치ngulo 47849" d="M2.338,0h40.1a2.339,2.339,0,0,1,2.339,2.339v0a2.338,2.338,0,0,1-2.338,2.338H2.339A2.339,2.339,0,0,1,0,2.338v0A2.338,2.338,0,0,1,2.338,0Z" transform="translate(41.984 255.693) rotate(-159.65)" fill="#f8f8f8" opacity="0.8"/>
      <path id="Trazado_204469" data-name="Trazado 204469" d="M1144.589,1113.06l-66.219,178.532-33.556-12.446,66.219-178.533C1113.812,1093.122,1147.368,1105.567,1144.589,1113.06Z" transform="translate(-1025.448 -1078.313)" fill="#d1d1d1" opacity="0.8"/>
      <path id="Trazado_204470" data-name="Trazado 204470" d="M1036.044,1357.343l43.049,15.966a2.862,2.862,0,0,1,1.687,3.678l-.4,1.079a2.861,2.861,0,0,1-3.677,1.688l-43.048-15.967a2.861,2.861,0,0,1-1.688-3.677l.4-1.079A2.861,2.861,0,0,1,1036.044,1357.343Z" transform="translate(-1021.424 -1158.27)" fill="#f8f8f8" opacity="0.8"/>
      <g id="Grupo_168555" data-name="Grupo 168555" transform="translate(50.669 42.448)">
        <line id="L칤nea_393" data-name="L칤nea 393" x1="19.71" y1="7.311" transform="translate(39.631)" fill="none" stroke="#4a4a4a" stroke-miterlimit="10" stroke-width="2.082"/>
        <line id="L칤nea_394" data-name="L칤nea 394" x1="9.855" y1="3.655" transform="translate(45.523 14.34)" fill="none" stroke="#4a4a4a" stroke-miterlimit="10" stroke-width="2.082"/>
        <line id="L칤nea_395" data-name="L칤nea 395" x1="9.855" y1="3.655" transform="translate(41.56 25.025)" fill="none" stroke="#4a4a4a" stroke-miterlimit="10" stroke-width="2.082"/>
        <line id="L칤nea_396" data-name="L칤nea 396" x1="9.855" y1="3.655" transform="translate(37.597 35.71)" fill="none" stroke="#4a4a4a" stroke-miterlimit="10" stroke-width="2.082"/>
        <line id="L칤nea_397" data-name="L칤nea 397" x1="9.855" y1="3.655" transform="translate(33.634 46.395)" fill="none" stroke="#4a4a4a" stroke-miterlimit="10" stroke-width="2.082"/>
        <line id="L칤nea_398" data-name="L칤nea 398" x1="19.71" y1="7.311" transform="translate(19.816 53.425)" fill="none" stroke="#4a4a4a" stroke-miterlimit="10" stroke-width="2.082"/>
        <line id="L칤nea_399" data-name="L칤nea 399" x1="9.855" y1="3.655" transform="translate(25.708 67.765)" fill="none" stroke="#4a4a4a" stroke-miterlimit="10" stroke-width="2.082"/>
        <line id="L칤nea_400" data-name="L칤nea 400" x1="9.855" y1="3.655" transform="translate(21.744 78.45)" fill="none" stroke="#4a4a4a" stroke-miterlimit="10" stroke-width="2.082"/>
        <line id="L칤nea_401" data-name="L칤nea 401" x1="9.855" y1="3.655" transform="translate(17.781 89.135)" fill="none" stroke="#4a4a4a" stroke-miterlimit="10" stroke-width="2.082"/>
        <line id="L칤nea_402" data-name="L칤nea 402" x1="9.855" y1="3.655" transform="translate(13.818 99.82)" fill="none" stroke="#4a4a4a" stroke-miterlimit="10" stroke-width="2.082"/>
        <line id="L칤nea_403" data-name="L칤nea 403" x1="19.71" y1="7.311" transform="translate(0 106.849)" fill="none" stroke="#4a4a4a" stroke-miterlimit="10" stroke-width="2.082"/>
      </g>
    </g>
    <g id="Grupo_168561" data-name="Grupo 168561" transform="translate(988.204 1229.753)">
      <path id="Trazado_204471" data-name="Trazado 204471" d="M1187.757,1387.181c0-1.157-9.161-2.738-19.513-3.26a6.434,6.434,0,0,0-6.755,6.425v56.326l26.268-.455Z" transform="translate(-1114.099 -1337.632)" fill="#e9e3f1" fill-rule="evenodd"/>
      <path id="Trazado_204472" data-name="Trazado 204472" d="M1169,1351.244v84.883a5.5,5.5,0,0,1-3.688,5.189c-4.841,1.689-14.616,4.172-30.3,4.2-14.887.024-25.292-2.6-30.474-4.3a5.488,5.488,0,0,1-3.771-5.217v-84.668Z" transform="translate(-1095.343 -1327.541)" fill="#e5914a" fill-rule="evenodd" opacity="0.95"/>
      <path id="Trazado_204473" data-name="Trazado 204473" d="M1116.086,1347.229s9.454,2.814,24.191,2.79,22.811-2.868,22.811-2.868l-.005-6.03h-47Z" transform="translate(-1100.073 -1324.414)" fill="#e5914a" fill-rule="evenodd" opacity="0.3" style="mix-blend-mode: multiply;isolation: isolate"/>
      <g id="Grupo_168557" data-name="Grupo 168557" transform="translate(16.067 49.55)">
        <path id="Trazado_204474" data-name="Trazado 204474" d="M1173.758,1388.642a251.526,251.526,0,0,1-50.78,1.768,6.375,6.375,0,0,0-6.812,6.352v47.56a6.364,6.364,0,0,0,5.585,6.323,146.5,146.5,0,0,0,51.97-2.921l.036-.046Z" transform="translate(-1116.167 -1388.642)" fill="#e9e3f1"/>
      </g>
      <g id="Grupo_168560" data-name="Grupo 168560" transform="translate(0 0)">
        <path id="Trazado_204475" data-name="Trazado 204475" d="M1092.919,1344.517c0,2.875,17.65,5.2,39.421,5.2s39.421-2.33,39.421-5.2v-13.788h-78.842Z" transform="translate(-1092.919 -1321.205)" fill="#e9e3f1"/>
        <g id="Grupo_168558" data-name="Grupo 168558" transform="translate(4.394 14.307)" opacity="0.3" style="mix-blend-mode: multiply;isolation: isolate">
          <path id="Trazado_204476" data-name="Trazado 204476" d="M1156.3,1351.1l.78-.013-.014-8.987-.772.016Z" transform="translate(-1116.887 -1339.023)" fill="#a9a1c2"/>
          <path id="Trazado_204477" data-name="Trazado 204477" d="M1171.9,1350.512c.263-.014.52-.03.779-.045l-.013-9.074-.772.053Z" transform="translate(-1121.708 -1338.805)" fill="#a9a1c2"/>
          <path id="Trazado_204478" data-name="Trazado 204478" d="M1185.706,1349.354l.779-.086-.014-9.2-.772.095Z" transform="translate(-1125.971 -1338.398)" fill="#a9a1c2"/>
          <path id="Trazado_204479" data-name="Trazado 204479" d="M1199.507,1347.129c.269-.062.528-.125.778-.189l-.014-9.285c-.248.063-.5.126-.771.188Z" transform="translate(-1130.233 -1337.651)" fill="#a9a1c2"/>
          <path id="Trazado_204480" data-name="Trazado 204480" d="M1099.284,1346.94q.374.1.778.189l-.014-9.292q-.4-.093-.771-.188Z" transform="translate(-1099.277 -1337.649)" fill="#a9a1c2"/>
          <path id="Trazado_204481" data-name="Trazado 204481" d="M1114.891,1349.47l.779.079-.014-9.172c-.261-.029-.515-.059-.771-.089Z" transform="translate(-1104.098 -1338.464)" fill="#a9a1c2"/>
          <path id="Trazado_204482" data-name="Trazado 204482" d="M1128.694,1350.573l.779.041-.014-9.054-.772-.048Z" transform="translate(-1108.361 -1338.842)" fill="#a9a1c2"/>
          <path id="Trazado_204483" data-name="Trazado 204483" d="M1142.5,1351.083l.78.013-.014-8.985-.772-.016Z" transform="translate(-1112.624 -1339.023)" fill="#a9a1c2"/>
        </g>
        <path id="Trazado_204484" data-name="Trazado 204484" d="M1171.761,1328.864c0,2.3-17.649,5.284-39.421,5.284s-39.421-2.98-39.421-5.284,17.65-4.173,39.421-4.173S1171.761,1326.559,1171.761,1328.864Z" transform="translate(-1092.919 -1319.34)" fill="#fff"/>
        <g id="Grupo_168559" data-name="Grupo 168559" transform="translate(5.185)">
          <path id="Trazado_204485" data-name="Trazado 204485" d="M1100.421,1326.021c0,2.5,15.328,4.52,34.236,4.52s34.237-2.024,34.237-4.52v-3.83h-68.473Z" transform="translate(-1100.421 -1318.567)" fill="#dbd6e3"/>
          <path id="Trazado_204486" data-name="Trazado 204486" d="M1168.894,1320.572c0,2-15.328,3.624-34.237,3.624s-34.236-1.623-34.236-3.624,15.328-3.624,34.236-3.624S1168.894,1318.57,1168.894,1320.572Z" transform="translate(-1100.421 -1316.948)" fill="#e9e3f1"/>
        </g>
      </g>
    </g>
    <g id="Grupo_168574" data-name="Grupo 168574" transform="translate(892.292 1179.592)">
      <g id="Grupo_168563" data-name="Grupo 168563" transform="translate(3.317)" opacity="0.8" style="mix-blend-mode: multiply;isolation: isolate">
        <g id="Grupo_168562" data-name="Grupo 168562">
          <path id="Trazado_204487" data-name="Trazado 204487" d="M1043.719,1278.176l-1.556-8.032c-1.874-1.383-3.418-2.495-4.415-3.255l0-3.039c1.182-.205,2.209-.427,3.062-.661l-3.347-17.284c-4.024-.907-12.731-1.536-22.829-1.536-13.922,0-25.207,1.194-25.207,2.668v2.822c-2.425.449-3.818.968-3.818,1.522v10.152c0,.857,2.134,1.648,5.736,2.287l0,2.993c-6.084,4.6-32.405,22.2-32.405,36.637v2.921l75.623-14.646A11.563,11.563,0,0,0,1043.719,1278.176Z" transform="translate(-958.943 -1244.368)" fill="#e9e3f1"/>
        </g>
      </g>
      <g id="Grupo_168564" data-name="Grupo 168564" transform="translate(0 59.945)" opacity="0.7" style="mix-blend-mode: multiply;isolation: isolate">
        <path id="Trazado_204488" data-name="Trazado 204488" d="M961.523,1424.178l.016,0V1347.6a16.3,16.3,0,0,0-.75-4.908,34.145,34.145,0,0,0-6.362-11.585,13.255,13.255,0,0,0-.283,2.657v97.1c1.16-.327,2.205-.646,3.1-.939A6.245,6.245,0,0,0,961.523,1424.178Z" transform="translate(-954.143 -1331.104)" fill="#e9e3f1"/>
      </g>
      <g id="Grupo_168565" data-name="Grupo 168565" transform="translate(95.912 50.494)">
        <path id="Trazado_204489" data-name="Trazado 204489" d="M1118.03,1317.428c-11.759.574-19.926,1.832-19.926,3.292v3.833c-3.293.609-5.186,1.315-5.186,2.068v13.788c0,.961,1.982,1.861,5.425,2.634v82.506a5.488,5.488,0,0,0,3.771,5.217,90.342,90.342,0,0,0,20.808,3.928V1329.671C1122.923,1325.7,1120.975,1321.514,1118.03,1317.428Z" transform="translate(-1092.919 -1317.428)" fill="#e9e3f1" opacity="0.7" style="mix-blend-mode: multiply;isolation: isolate"/>
      </g>
      <g id="Grupo_168566" data-name="Grupo 168566" transform="translate(62.665 4.564)" opacity="0.7" style="mix-blend-mode: multiply;isolation: isolate">
        <path id="Trazado_204490" data-name="Trazado 204490" d="M1075.874,1269.409c3.707-.643,5.911-1.446,5.911-2.317v-10.152c0-.554-1.393-1.074-3.818-1.523V1252.6c0-.611-1.946-1.174-5.213-1.623l-27.941,75.331,33.556,12.446,18.3-49.342c-7.839-7.821-17.42-14.382-20.8-16.958Z" transform="translate(-1044.814 -1250.972)" fill="#e9e3f1" opacity="0.8"/>
      </g>
      <g id="Grupo_168573" data-name="Grupo 168573" transform="translate(6.345 3.52)">
        <g id="Grupo_168568" data-name="Grupo 168568" transform="translate(3.543 59.214)">
          <g id="Grupo_168567" data-name="Grupo 168567" transform="translate(0 5.318)">
            <path id="Trazado_204491" data-name="Trazado 204491" d="M968.449,1342.832v100.8a8.368,8.368,0,0,0,5.617,7.9c7.373,2.572,22.259,6.352,46.144,6.392,22.673.037,38.518-3.958,46.41-6.552a8.358,8.358,0,0,0,5.743-7.945V1342.832Z" transform="translate(-968.449 -1342.832)" fill="#76a3eb"/>
          </g>
          <ellipse id="Elipse_5394" data-name="Elipse 5394" cx="51.844" cy="5.318" rx="51.844" ry="5.318" transform="translate(0)" fill="#b3d1ff"/>
        </g>
        <path id="Trazado_204492" data-name="Trazado 204492" d="M995.729,1279.277l.01-5.953,23.2.038,23.2.038-.01,5.953c6.08,4.63,32.2,22.129,32.2,36.7v109.024a8.926,8.926,0,0,1-6.135,8.487c-8.43,2.771-25.355,7.038-49.574,7-25.514-.042-41.415-4.08-49.291-6.828a8.938,8.938,0,0,1-6-8.441V1315.914C963.323,1301.48,989.645,1283.878,995.729,1279.277Z" transform="translate(-963.323 -1256.832)" fill="#e5914a" fill-rule="evenodd" opacity="0.95"/>
        <path id="Trazado_204493" data-name="Trazado 204493" d="M1056.61,1279.353s-9.332,2.779-23.88,2.755-22.518-2.831-22.518-2.831l.005-5.953h46.4Z" transform="translate(-977.806 -1256.832)" fill="#e5914a" fill-rule="evenodd" opacity="0.3" style="mix-blend-mode: multiply;isolation: isolate"/>
        <g id="Grupo_168569" data-name="Grupo 168569" transform="translate(0 72.418)">
          <path id="Trazado_204494" data-name="Trazado 204494" d="M963.323,1354.244c27.516,3.749,39.542,2.876,68,2.876,6.006,0,11.081,4.327,11.081,10.333v77.369a10.353,10.353,0,0,1-9.085,10.287c-28.452,3.452-42.43,1.869-69.941-4.751l-.059-.074Z" transform="translate(-963.323 -1354.244)" fill="#e9e3f1"/>
        </g>
        <g id="Grupo_168572" data-name="Grupo 168572" transform="translate(26.672)">
          <path id="Trazado_204495" data-name="Trazado 204495" d="M1059.964,1269.76c0,2.116-12.995,3.832-29.025,3.832s-29.024-1.715-29.024-3.832v-10.152h58.049Z" transform="translate(-1001.915 -1252.595)" fill="#e9e3f1"/>
          <g id="Grupo_168570" data-name="Grupo 168570" transform="translate(3.237 10.534)" opacity="0.3" style="mix-blend-mode: multiply;isolation: isolate">
            <path id="Trazado_204496" data-name="Trazado 204496" d="M1038.985,1274.6l-.574-.01.01-6.617.569.012Z" transform="translate(-1016.424 -1265.714)" fill="#a9a1c2"/>
            <path id="Trazado_204497" data-name="Trazado 204497" d="M1027.495,1274.173l-.574-.033.01-6.681.569.039Z" transform="translate(-1012.875 -1265.554)" fill="#a9a1c2"/>
            <path id="Trazado_204498" data-name="Trazado 204498" d="M1017.333,1273.32l-.574-.062.01-6.77.568.069Z" transform="translate(-1009.737 -1265.254)" fill="#a9a1c2"/>
            <path id="Trazado_204499" data-name="Trazado 204499" d="M1007.171,1271.683q-.3-.068-.573-.139l.01-6.837q.274.069.567.138Z" transform="translate(-1006.598 -1264.704)" fill="#a9a1c2"/>
            <path id="Trazado_204500" data-name="Trazado 204500" d="M1080.963,1271.543q-.276.071-.573.139l.01-6.841q.294-.068.567-.138Z" transform="translate(-1029.391 -1264.703)" fill="#a9a1c2"/>
            <path id="Trazado_204501" data-name="Trazado 204501" d="M1069.472,1273.406l-.574.059.01-6.753.568-.066Z" transform="translate(-1025.841 -1265.303)" fill="#a9a1c2"/>
            <path id="Trazado_204502" data-name="Trazado 204502" d="M1059.309,1274.218l-.574.031.01-6.667.568-.035Z" transform="translate(-1022.702 -1265.581)" fill="#a9a1c2"/>
            <path id="Trazado_204503" data-name="Trazado 204503" d="M1049.147,1274.594l-.574.01.01-6.615.569-.012Z" transform="translate(-1019.563 -1265.714)" fill="#a9a1c2"/>
          </g>
          <path id="Trazado_204504" data-name="Trazado 204504" d="M1001.915,1258.235c0,1.7,12.995,3.89,29.024,3.89s29.025-2.194,29.025-3.89-12.995-3.073-29.025-3.073S1001.915,1256.538,1001.915,1258.235Z" transform="translate(-1001.915 -1251.222)" fill="#fff"/>
          <g id="Grupo_168571" data-name="Grupo 168571" transform="translate(3.817)">
            <path id="Trazado_204505" data-name="Trazado 204505" d="M1057.853,1256.141c0,1.838-11.285,3.328-25.207,3.328s-25.207-1.49-25.207-3.328v-2.82h50.415Z" transform="translate(-1007.438 -1250.653)" fill="#dbd6e3"/>
            <ellipse id="Elipse_5395" data-name="Elipse 5395" cx="25.208" cy="2.668" rx="25.208" ry="2.668" fill="#e9e3f1"/>
          </g>
        </g>
      </g>
    </g>
    <g id="Grupo_168579" data-name="Grupo 168579" transform="translate(777.566 1346.625)">
      <path id="Trazado_204506" data-name="Trazado 204506" d="M874.559,1521.086c0,3.44-8.257,6.229-18.443,6.229s-18.443-1.409-18.443-8.683c0-3.44,8.257-3.775,18.443-3.775S874.559,1517.647,874.559,1521.086Z" transform="translate(-837.442 -1506.949)" fill="#01a6b5" opacity="0.8" style="mix-blend-mode: multiply;isolation: isolate"/>
      <g id="Grupo_168578" data-name="Grupo 168578">
        <g id="Grupo_168575" data-name="Grupo 168575" transform="translate(0.002 6.084)">
          <path id="Trazado_204507" data-name="Trazado 204507" d="M837.341,1512.218l.229,5.6c.038,1.651,1.743,3.3,5.055,4.5.114.041.236.076.352.115a.921.921,0,0,1,.77-.286c.507.039,1.5.935,1.5.935,6.083,1.413,13.965,1,18.826-1.156,2.567-1.138,3.85-2.565,3.878-3.995l-.232-5.662Z" transform="translate(-837.341 -1512.218)" fill="#b8b8b8"/>
        </g>
        <g id="Grupo_168577" data-name="Grupo 168577">
          <path id="Trazado_204508" data-name="Trazado 204508" d="M862.661,1505.006c6.249,2.265,6.779,6.114,1.182,8.6s-15.2,2.656-21.448.391-6.779-6.115-1.183-8.6S856.411,1502.74,862.661,1505.006Z" transform="translate(-837.338 -1503.415)" fill="#d9d9d9"/>
          <ellipse id="Elipse_5396" data-name="Elipse 5396" cx="5.238" cy="13.077" rx="5.238" ry="13.077" transform="translate(2.089 11.264) rotate(-89.738)" fill="#f3f3f3"/>
          <path id="Trazado_204509" data-name="Trazado 204509" d="M862.523,1506.031l-17.442,7.736.077.354c.058.264.615.467,1.276.465l.9,0,17.443-7.736-.081-.358c-.06-.264-.621-.467-1.283-.463Z" transform="translate(-839.73 -1504.221)" fill="#fff"/>
          <g id="Grupo_168576" data-name="Grupo 168576" transform="translate(5.351 1.805)">
            <path id="Trazado_204510" data-name="Trazado 204510" d="M863.409,1506.026l-.886.005-17.442,7.736.077.354c.029.132.182.249.411.332l18.706-8.3A2.592,2.592,0,0,0,863.409,1506.026Z" transform="translate(-845.081 -1506.026)" fill="#d9d9d9"/>
          </g>
        </g>
      </g>
    </g>
  </g>
</svg>
