<svg xmlns="http://www.w3.org/2000/svg" width="144" height="144" viewBox="0 0 144 144">
  <g id="Grupo_73269" data-name="Grupo 73269" transform="translate(-1687.597 -138.774)">
    <circle id="Elipse_4525" data-name="Elipse 4525" cx="72" cy="72" r="72" transform="translate(1687.597 138.774)" fill="#7e5ee3"/>
    <g id="Grupo_73267" data-name="Grupo 73267" transform="translate(1732.211 253.828)">
      <path id="Trazado_145440" data-name="Trazado 145440" d="M1846.766,556.319a.4.4,0,1,0-.464-.311.395.395,0,0,0,.464.311Z" transform="translate(-1846.295 -553.201)" fill="#0f7986"/>
      <path id="Trazado_145441" data-name="Trazado 145441" d="M1888.418,548.036a.395.395,0,1,0-.464-.31A.394.394,0,0,0,1888.418,548.036Z" transform="translate(-1876.2 -547.254)" fill="#0f7986"/>
    </g>
    <g id="Grupo_168647" data-name="Grupo 168647" transform="translate(1137.764 -1490.843)">
      <g id="Grupo_168592" data-name="Grupo 168592" transform="translate(564.781 1643.412)">
        <g id="Grupo_168581" data-name="Grupo 168581" transform="translate(0 0)">
          <path id="Trazado_204511" data-name="Trazado 204511" d="M667.894,1685.118l-69.884,48.332a1.338,1.338,0,0,1-1.861-.339l-27.158-39.268a1.338,1.338,0,0,1,.339-1.861l69.884-48.332a1.338,1.338,0,0,1,1.861.339l27.158,39.268A1.337,1.337,0,0,1,667.894,1685.118Z" transform="translate(-568.754 -1643.412)" fill="#00bcd4"/>
        </g>
        <g id="Grupo_168582" data-name="Grupo 168582" transform="translate(10.566 10.567)">
          <path id="Trazado_204512" data-name="Trazado 204512" d="M708.581,1726.514l-13.531-19.565a9.041,9.041,0,0,1-12.579-2.293l-50.181,34.705A9.041,9.041,0,0,1,630,1751.94l13.531,19.565a9.041,9.041,0,0,1,12.579,2.293l50.181-34.705A9.041,9.041,0,0,1,708.581,1726.514Z" transform="translate(-629.997 -1704.656)" fill="#bff4ba"/>
        </g>
        <g id="Grupo_168584" data-name="Grupo 168584" transform="translate(9.081 57.638)" opacity="0.6">
          <g id="Grupo_168583" data-name="Grupo 168583">
            <path id="Trazado_204513" data-name="Trazado 204513" d="M636.823,1977.481a24.05,24.05,0,0,0-15.437,5.579l18.315,26.482a1.338,1.338,0,0,0,1.861.339l18.925-13.088A24.156,24.156,0,0,0,636.823,1977.481Z" transform="translate(-621.386 -1977.481)" fill="#3ca64e"/>
          </g>
        </g>
        <g id="Grupo_168587" data-name="Grupo 168587" transform="translate(21.898 24.486)">
          <g id="Grupo_168585" data-name="Grupo 168585" transform="translate(0 30.874)">
            <circle id="Elipse_5397" data-name="Elipse 5397" cx="3.847" cy="3.847" r="3.847" transform="matrix(0.906, -0.423, 0.423, 0.906, 0, 3.255)" fill="#00bcd4"/>
          </g>
          <g id="Grupo_168586" data-name="Grupo 168586" transform="translate(45.686)">
            <circle id="Elipse_5398" data-name="Elipse 5398" cx="3.847" cy="3.847" r="3.847" transform="matrix(0.968, -0.25, 0.25, 0.968, 0, 1.923)" fill="#00bcd4"/>
          </g>
        </g>
        <g id="Grupo_168588" data-name="Grupo 168588" transform="translate(35.199 30.479)">
          <circle id="Elipse_5399" data-name="Elipse 5399" cx="14.659" cy="14.659" r="14.659" fill="#00bcd4"/>
        </g>
        <g id="Grupo_168591" data-name="Grupo 168591" transform="translate(41.758 34.942)">
          <g id="Grupo_168590" data-name="Grupo 168590">
            <g id="Grupo_168589" data-name="Grupo 168589">
              <path id="Trazado_204514" data-name="Trazado 204514" d="M821.15,1854.074a4.858,4.858,0,0,1,2.129-.015,3.639,3.639,0,0,1,1.955,1.193,4.121,4.121,0,0,1,1.06,3.522,7.318,7.318,0,0,1-2.112,3.934l1.642,2.334a.938.938,0,0,1,.144.785,1.434,1.434,0,0,1-.446.734,1.023,1.023,0,0,1-.69.292.723.723,0,0,1-.616-.359l-1.659-2.4a6.118,6.118,0,0,1-3.406,1.209,3.379,3.379,0,0,1-2.655-1.106,2.182,2.182,0,0,1-.66-1.506,1.654,1.654,0,0,1,.554-1.241,1.334,1.334,0,0,1,1.065-.417,2.619,2.619,0,0,1,1.217.614,1.951,1.951,0,0,0,1.121.486,2.214,2.214,0,0,0,1.242-.285l-2.478-3.6a15.181,15.181,0,0,1-2.41.717,4.833,4.833,0,0,1-2.165-.068,4.124,4.124,0,0,1-2.021-1.309,4.274,4.274,0,0,1-1.125-3.658,7.062,7.062,0,0,1,2.037-3.867l-1.68-2.376a.821.821,0,0,1-.167-.745,1.376,1.376,0,0,1,.424-.695,1.135,1.135,0,0,1,.711-.312.663.663,0,0,1,.618.318l1.7,2.479a5.447,5.447,0,0,1,3.018-1.014,3.2,3.2,0,0,1,2.44,1.105,1.918,1.918,0,0,1,.6,1.422,1.762,1.762,0,0,1-.613,1.2,1.377,1.377,0,0,1-.992.39,1.432,1.432,0,0,1-.989-.469,1.661,1.661,0,0,0-1.923-.4l2.667,3.9A19.523,19.523,0,0,1,821.15,1854.074Zm-5.873,1.626a4.265,4.265,0,0,0,1.429-.143l-2.31-3.288a2.57,2.57,0,0,0-.66,1.532,1.906,1.906,0,0,0,.533,1.388A1.52,1.52,0,0,0,815.277,1855.7Zm8.1,3.315a1.553,1.553,0,0,0-.416-1.279,1.412,1.412,0,0,0-.989-.469,4.117,4.117,0,0,0-1.454.223l2.118,3.033A2.976,2.976,0,0,0,823.376,1859.015Z" transform="translate(-810.78 -1845.935)" fill="#bff4ba"/>
            </g>
          </g>
        </g>
      </g>
      <g id="Grupo_168594" data-name="Grupo 168594" transform="translate(596.911 1667.772)" opacity="0.6">
        <g id="Grupo_168593" data-name="Grupo 168593" transform="translate(0 0)">
          <path id="Trazado_204515" data-name="Trazado 204515" d="M811.617,1784.6l-56.641,21.976,54.7,3.886,12.315-8.517a1.338,1.338,0,0,0,.339-1.861Z" transform="translate(-754.976 -1784.603)" fill="#3ca64e"/>
        </g>
      </g>
      <g id="Grupo_168604" data-name="Grupo 168604" transform="translate(581.46 1668.105)">
        <g id="Grupo_168595" data-name="Grupo 168595" transform="translate(0 0)">
          <path id="Trazado_204516" data-name="Trazado 204516" d="M762.751,1834.539l-80.794,26.308a1.338,1.338,0,0,1-1.686-.858l-14.783-45.4a1.338,1.338,0,0,1,.858-1.686L747.14,1786.6a1.338,1.338,0,0,1,1.686.858l14.783,45.4A1.338,1.338,0,0,1,762.751,1834.539Z" transform="translate(-665.423 -1786.531)" fill="#00bcd4"/>
        </g>
        <g id="Grupo_168596" data-name="Grupo 168596" transform="translate(7.839 7.839)">
          <path id="Trazado_204517" data-name="Trazado 204517" d="M793.432,1860.383l-7.365-22.619a9.041,9.041,0,0,1-11.4-5.8l-58.015,18.891a9.041,9.041,0,0,1-5.8,11.4l7.365,22.619a9.041,9.041,0,0,1,11.4,5.8l58.015-18.891A9.042,9.042,0,0,1,793.432,1860.383Z" transform="translate(-710.858 -1831.966)" fill="#bff4ba"/>
        </g>
        <g id="Grupo_168599" data-name="Grupo 168599" transform="translate(17.418 22.869)">
          <g id="Grupo_168597" data-name="Grupo 168597" transform="translate(0 17.049)">
            <circle id="Elipse_5400" data-name="Elipse 5400" cx="3.847" cy="3.847" r="3.847" transform="translate(0 5.804) rotate(-48.975)" fill="#00bcd4"/>
          </g>
          <g id="Grupo_168598" data-name="Grupo 168598" transform="translate(52.313)">
            <circle id="Elipse_5401" data-name="Elipse 5401" cx="3.847" cy="3.847" r="3.847" transform="translate(0 5.574) rotate(-46.427)" fill="#00bcd4"/>
          </g>
        </g>
        <g id="Grupo_168600" data-name="Grupo 168600" transform="translate(28.395 16.46)">
          <circle id="Elipse_5402" data-name="Elipse 5402" cx="14.659" cy="14.659" r="14.659" transform="translate(0 20.731) rotate(-45)" fill="#00bcd4"/>
        </g>
        <g id="Grupo_168603" data-name="Grupo 168603" transform="translate(41.609 25.47)">
          <g id="Grupo_168602" data-name="Grupo 168602">
            <g id="Grupo_168601" data-name="Grupo 168601">
              <path id="Trazado_204518" data-name="Trazado 204518" d="M916.868,1944.551a4.857,4.857,0,0,1,2.044.595,3.637,3.637,0,0,1,1.532,1.7,4.12,4.12,0,0,1,.008,3.678,7.318,7.318,0,0,1-3.15,3.165l.9,2.706a.939.939,0,0,1-.086.793,1.433,1.433,0,0,1-.638.576,1.023,1.023,0,0,1-.745.083.723.723,0,0,1-.488-.52l-.9-2.771a6.12,6.12,0,0,1-3.61.183,3.38,3.38,0,0,1-2.228-1.82,2.182,2.182,0,0,1-.2-1.633,1.654,1.654,0,0,1,.886-1.03,1.333,1.333,0,0,1,1.139-.095,2.62,2.62,0,0,1,.991.937,1.949,1.949,0,0,0,.935.787,2.213,2.213,0,0,0,1.272.082l-1.343-4.162a15.169,15.169,0,0,1-2.514,0,4.832,4.832,0,0,1-2.055-.686,4.121,4.121,0,0,1-1.562-1.833,4.274,4.274,0,0,1-.031-3.827,7.061,7.061,0,0,1,3.058-3.122l-.93-2.758a.821.821,0,0,1,.053-.762,1.377,1.377,0,0,1,.6-.544,1.137,1.137,0,0,1,.771-.1.663.663,0,0,1,.5.481l.915,2.861a5.448,5.448,0,0,1,3.182-.107,3.2,3.2,0,0,1,2.022,1.758,1.918,1.918,0,0,1,.171,1.535,1.762,1.762,0,0,1-.93.971,1.377,1.377,0,0,1-1.062.09,1.432,1.432,0,0,1-.813-.733,1.661,1.661,0,0,0-1.727-.938l1.44,4.5A19.517,19.517,0,0,1,916.868,1944.551Zm-6.093-.123a4.262,4.262,0,0,0,1.41.273l-1.272-3.812a2.571,2.571,0,0,0-1.071,1.279,1.907,1.907,0,0,0,.114,1.482A1.521,1.521,0,0,0,910.776,1944.429Zm6.811,5.494a1.552,1.552,0,0,0-.032-1.345,1.411,1.411,0,0,0-.813-.733,4.116,4.116,0,0,0-1.457-.2l1.161,3.512A2.976,2.976,0,0,0,917.587,1949.923Z" transform="translate(-906.588 -1934.151)" fill="#bff4ba"/>
            </g>
          </g>
        </g>
      </g>
      <g id="Grupo_168606" data-name="Grupo 168606" transform="translate(583.636 1702.219)" opacity="0.6">
        <g id="Grupo_168605" data-name="Grupo 168605" transform="translate(0)">
          <path id="Trazado_204519" data-name="Trazado 204519" d="M718.437,1993.236a22.08,22.08,0,0,0-13.978,4.964,24.172,24.172,0,0,0-26.423-13.519l12.672,38.918a1.338,1.338,0,0,0,1.686.858l47.29-15.4A22.182,22.182,0,0,0,718.437,1993.236Z" transform="translate(-678.036 -1984.254)" fill="#3ca64e"/>
        </g>
      </g>
      <g id="Grupo_168627" data-name="Grupo 168627" transform="translate(598.893 1710.472)">
        <g id="Grupo_168623" data-name="Grupo 168623">
          <g id="Grupo_168607" data-name="Grupo 168607" transform="translate(2 2)">
            <circle id="Elipse_5403" data-name="Elipse 5403" cx="22.176" cy="22.176" r="22.176" fill="#ffce33"/>
          </g>
          <g id="Grupo_168608" data-name="Grupo 168608" transform="translate(2 5.715)">
            <path id="Trazado_204520" data-name="Trazado 204520" d="M778.055,2083.671a22.085,22.085,0,0,0,5.559,14.678,24.147,24.147,0,0,0,4.331-33.139A22.153,22.153,0,0,0,778.055,2083.671Z" transform="translate(-778.055 -2065.21)" fill="#f7a614"/>
          </g>
          <g id="Grupo_168609" data-name="Grupo 168609">
            <circle id="Elipse_5404" data-name="Elipse 5404" cx="17.095" cy="17.095" r="17.095" transform="translate(0 24.176) rotate(-45)" fill="#ffc001"/>
          </g>
          <g id="Grupo_168610" data-name="Grupo 168610" transform="translate(0.9 0.998)">
            <circle id="Elipse_5405" data-name="Elipse 5405" cx="17.095" cy="17.095" r="17.095" transform="translate(0 24.176) rotate(-45)" fill="#fd3"/>
          </g>
          <g id="Grupo_168611" data-name="Grupo 168611">
            <circle id="Elipse_5406" data-name="Elipse 5406" cx="17.095" cy="17.095" r="17.095" transform="translate(0 24.176) rotate(-45)" fill="#ffb103"/>
          </g>
          <g id="Grupo_168612" data-name="Grupo 168612" transform="translate(3.91 3.91)">
            <circle id="Elipse_5407" data-name="Elipse 5407" cx="14.33" cy="14.33" r="14.33" transform="translate(0 20.266) rotate(-45)" fill="#ffb103"/>
          </g>
          <g id="Grupo_168613" data-name="Grupo 168613" transform="translate(7.081 7.081)">
            <path id="Trazado_204521" data-name="Trazado 204521" d="M809.3,2091.638a17.1,17.1,0,0,1,26.726-14.125,17.1,17.1,0,1,0-21.062,26.836A17.051,17.051,0,0,1,809.3,2091.638Z" transform="translate(-807.505 -2073.129)" fill="#eba303"/>
          </g>
          <g id="Grupo_168614" data-name="Grupo 168614" transform="translate(7.081 10.855)">
            <path id="Trazado_204522" data-name="Trazado 204522" d="M807.505,2108.324a17.018,17.018,0,0,0,3.421,10.26A24.15,24.15,0,0,0,813.891,2095,17.059,17.059,0,0,0,807.505,2108.324Z" transform="translate(-807.505 -2095.003)" fill="#f4a00b"/>
          </g>
          <g id="Grupo_168617" data-name="Grupo 168617" transform="translate(9.005 10.4)" opacity="0.2">
            <g id="Grupo_168615" data-name="Grupo 168615">
              <path id="Trazado_204523" data-name="Trazado 204523" d="M820.8,2114.017l25.056-17.166a15.272,15.272,0,0,0-5.633-4.485l-21.565,14.775A15.121,15.121,0,0,0,820.8,2114.017Z" transform="translate(-818.658 -2092.366)" fill="#ffec7d"/>
            </g>
            <g id="Grupo_168616" data-name="Grupo 168616" transform="translate(3.53 6.476)">
              <path id="Trazado_204524" data-name="Trazado 204524" d="M864.1,2129.9l-24.98,17.114a15.3,15.3,0,0,0,3.181,2.857l23.314-15.973A15.1,15.1,0,0,0,864.1,2129.9Z" transform="translate(-839.119 -2129.901)" fill="#ffec7d"/>
            </g>
          </g>
          <g id="Grupo_168619" data-name="Grupo 168619" transform="translate(18.985 12.769)">
            <g id="Grupo_168618" data-name="Grupo 168618">
              <path id="Trazado_204525" data-name="Trazado 204525" d="M885.991,2117.9a4.791,4.791,0,0,1,1.735,1.182,3.588,3.588,0,0,1,.917,2.065,4.064,4.064,0,0,1-1.116,3.451,7.216,7.216,0,0,1-3.921,2.007l.022,2.814a.926.926,0,0,1-.323.718,1.415,1.415,0,0,1-.774.345,1.008,1.008,0,0,1-.724-.15.714.714,0,0,1-.3-.637l0-2.874a6.039,6.039,0,0,1-3.442-.931,3.334,3.334,0,0,1-1.533-2.387,2.153,2.153,0,0,1,.31-1.593,1.63,1.63,0,0,1,1.145-.7,1.315,1.315,0,0,1,1.1.259,2.583,2.583,0,0,1,.643,1.181,1.922,1.922,0,0,0,.637,1.024,2.184,2.184,0,0,0,1.168.466l.012-4.313a14.98,14.98,0,0,1-2.357-.77,4.771,4.771,0,0,1-1.718-1.271,4.069,4.069,0,0,1-.9-2.2,4.215,4.215,0,0,1,1.14-3.6,6.963,6.963,0,0,1,3.822-1.994l-.03-2.871a.811.811,0,0,1,.283-.7,1.357,1.357,0,0,1,.734-.326,1.121,1.121,0,0,1,.752.146.654.654,0,0,1,.323.6l-.016,2.963a5.374,5.374,0,0,1,3.017.871,3.155,3.155,0,0,1,1.36,2.266,1.892,1.892,0,0,1-.308,1.492,1.739,1.739,0,0,1-1.169.627,1.361,1.361,0,0,1-1.023-.24,1.413,1.413,0,0,1-.539-.936,1.638,1.638,0,0,0-1.334-1.407l-.024,4.66A19.258,19.258,0,0,1,885.991,2117.9Zm-5.677-1.975a4.2,4.2,0,0,0,1.24.686l-.029-3.963a2.535,2.535,0,0,0-1.4.872,1.88,1.88,0,0,0-.346,1.425A1.5,1.5,0,0,0,880.314,2115.925Zm4.71,7.233a1.531,1.531,0,0,0,.38-1.271,1.392,1.392,0,0,0-.539-.936,4.06,4.06,0,0,0-1.3-.635l.016,3.649A2.934,2.934,0,0,0,885.024,2123.158Z" transform="translate(-876.502 -2106.097)" fill="#eba303"/>
            </g>
          </g>
          <g id="Grupo_168622" data-name="Grupo 168622" transform="translate(18.086 12.452)">
            <g id="Grupo_168621" data-name="Grupo 168621">
              <g id="Grupo_168620" data-name="Grupo 168620">
                <path id="Trazado_204526" data-name="Trazado 204526" d="M880.776,2116.06a4.792,4.792,0,0,1,1.735,1.182,3.59,3.59,0,0,1,.917,2.065,4.064,4.064,0,0,1-1.116,3.452,7.216,7.216,0,0,1-3.921,2.007l.022,2.814a.926.926,0,0,1-.323.718,1.413,1.413,0,0,1-.774.345,1.009,1.009,0,0,1-.724-.15.713.713,0,0,1-.3-.636l0-2.875a6.037,6.037,0,0,1-3.442-.931,3.334,3.334,0,0,1-1.534-2.387,2.154,2.154,0,0,1,.31-1.593,1.632,1.632,0,0,1,1.145-.7,1.315,1.315,0,0,1,1.1.259,2.583,2.583,0,0,1,.643,1.181,1.924,1.924,0,0,0,.637,1.023,2.181,2.181,0,0,0,1.168.466l.012-4.313a14.982,14.982,0,0,1-2.357-.77,4.768,4.768,0,0,1-1.718-1.271,4.068,4.068,0,0,1-.9-2.2,4.216,4.216,0,0,1,1.14-3.6,6.965,6.965,0,0,1,3.822-1.994l-.03-2.871a.81.81,0,0,1,.283-.7,1.357,1.357,0,0,1,.734-.326,1.119,1.119,0,0,1,.752.146.654.654,0,0,1,.323.6l-.016,2.963a5.372,5.372,0,0,1,3.017.871,3.155,3.155,0,0,1,1.36,2.266,1.892,1.892,0,0,1-.308,1.492,1.737,1.737,0,0,1-1.169.627,1.359,1.359,0,0,1-1.023-.24,1.412,1.412,0,0,1-.539-.936,1.638,1.638,0,0,0-1.334-1.407l-.024,4.66A19.263,19.263,0,0,1,880.776,2116.06Zm-5.677-1.975a4.206,4.206,0,0,0,1.24.686l-.029-3.963a2.535,2.535,0,0,0-1.4.872,1.88,1.88,0,0,0-.346,1.425A1.5,1.5,0,0,0,875.1,2114.084Zm4.71,7.233a1.531,1.531,0,0,0,.38-1.271,1.391,1.391,0,0,0-.539-.936,4.055,4.055,0,0,0-1.3-.635l.016,3.649A2.937,2.937,0,0,0,879.809,2121.317Z" transform="translate(-871.287 -2104.256)" fill="#fd3"/>
              </g>
            </g>
          </g>
        </g>
        <g id="Grupo_168624" data-name="Grupo 168624" transform="translate(28.637 4.595)">
          <path id="Trazado_204527" data-name="Trazado 204527" d="M939.255,2061.989a3.767,3.767,0,0,1-3.111-3.111.223.223,0,0,0-.428,0,3.767,3.767,0,0,1-3.111,3.111.223.223,0,0,0,0,.428,3.767,3.767,0,0,1,3.111,3.111.223.223,0,0,0,.428,0,3.767,3.767,0,0,1,3.111-3.111A.223.223,0,0,0,939.255,2061.989Z" transform="translate(-932.445 -2058.719)" fill="#fff"/>
        </g>
        <g id="Grupo_168625" data-name="Grupo 168625" transform="translate(9.051 32.585)">
          <path id="Trazado_204528" data-name="Trazado 204528" d="M825.732,2224.222a3.767,3.767,0,0,1-3.111-3.111.223.223,0,0,0-.428,0,3.767,3.767,0,0,1-3.111,3.111.223.223,0,0,0,0,.428,3.767,3.767,0,0,1,3.111,3.111.223.223,0,0,0,.428,0,3.767,3.767,0,0,1,3.111-3.111A.223.223,0,0,0,825.732,2224.222Z" transform="translate(-818.922 -2220.952)" fill="#fff"/>
        </g>
        <g id="Grupo_168626" data-name="Grupo 168626" transform="translate(34.115 11.785)">
          <path id="Trazado_204529" data-name="Trazado 204529" d="M967.676,2102.063a1.925,1.925,0,0,1-1.59-1.59.114.114,0,0,0-.219,0,1.925,1.925,0,0,1-1.59,1.59.114.114,0,0,0,0,.219,1.925,1.925,0,0,1,1.59,1.59.114.114,0,0,0,.219,0,1.925,1.925,0,0,1,1.59-1.59A.114.114,0,0,0,967.676,2102.063Z" transform="translate(-964.196 -2100.392)" fill="#fff"/>
        </g>
      </g>
      <g id="Grupo_168646" data-name="Grupo 168646" transform="translate(563.953 1703.435)">
        <g id="Grupo_168642" data-name="Grupo 168642" transform="translate(0 0)">
          <g id="Grupo_168628" data-name="Grupo 168628" transform="translate(1.198 1.091)">
            <circle id="Elipse_5408" data-name="Elipse 5408" cx="24.148" cy="24.148" r="24.148" fill="#ffce33"/>
          </g>
          <g id="Grupo_168629" data-name="Grupo 168629" transform="translate(6.731 6.624)">
            <circle id="Elipse_5409" data-name="Elipse 5409" cx="18.615" cy="18.615" r="18.615" fill="#ffc001"/>
          </g>
          <g id="Grupo_168630" data-name="Grupo 168630">
            <circle id="Elipse_5410" data-name="Elipse 5410" cx="18.615" cy="18.615" r="18.615" transform="translate(0 26.326) rotate(-45)" fill="#fd3"/>
          </g>
          <g id="Grupo_168631" data-name="Grupo 168631" transform="translate(6.731 6.624)">
            <circle id="Elipse_5411" data-name="Elipse 5411" cx="18.615" cy="18.615" r="18.615" fill="#ffb103"/>
          </g>
          <g id="Grupo_168632" data-name="Grupo 168632" transform="translate(9.742 9.634)">
            <circle id="Elipse_5412" data-name="Elipse 5412" cx="15.604" cy="15.604" r="15.604" fill="#ffb103"/>
          </g>
          <g id="Grupo_168633" data-name="Grupo 168633" transform="translate(6.731 6.623)">
            <path id="Trazado_204530" data-name="Trazado 204530" d="M604.924,2049.849a18.617,18.617,0,0,1,29.1-15.381,18.615,18.615,0,1,0-22.935,29.222A18.567,18.567,0,0,1,604.924,2049.849Z" transform="translate(-602.965 -2029.694)" fill="#eba303"/>
          </g>
          <g id="Grupo_168636" data-name="Grupo 168636" transform="translate(8.826 10.238)" opacity="0.2">
            <g id="Grupo_168634" data-name="Grupo 168634">
              <path id="Trazado_204531" data-name="Trazado 204531" d="M617.444,2074.219l27.284-18.693a16.624,16.624,0,0,0-6.134-4.884l-23.483,16.089A16.467,16.467,0,0,0,617.444,2074.219Z" transform="translate(-615.11 -2050.642)" fill="#ffec7d"/>
            </g>
            <g id="Grupo_168635" data-name="Grupo 168635" transform="translate(3.844 7.052)">
              <path id="Trazado_204532" data-name="Trazado 204532" d="M664.591,2091.514l-27.2,18.636a16.66,16.66,0,0,0,3.463,3.111l25.387-17.393A16.452,16.452,0,0,0,664.591,2091.514Z" transform="translate(-637.39 -2091.514)" fill="#ffec7d"/>
            </g>
          </g>
          <g id="Grupo_168638" data-name="Grupo 168638" transform="translate(19.694 12.817)">
            <g id="Grupo_168637" data-name="Grupo 168637">
              <path id="Trazado_204533" data-name="Trazado 204533" d="M688.43,2078.447a5.22,5.22,0,0,1,1.89,1.287,3.909,3.909,0,0,1,1,2.249,4.425,4.425,0,0,1-1.215,3.759,7.86,7.86,0,0,1-4.269,2.185l.025,3.064a1.008,1.008,0,0,1-.352.781,1.539,1.539,0,0,1-.843.376,1.1,1.1,0,0,1-.788-.163.777.777,0,0,1-.325-.693l0-3.13a6.571,6.571,0,0,1-3.748-1.013,3.63,3.63,0,0,1-1.67-2.6,2.344,2.344,0,0,1,.337-1.734,1.776,1.776,0,0,1,1.247-.758,1.432,1.432,0,0,1,1.195.282,2.813,2.813,0,0,1,.7,1.286,2.1,2.1,0,0,0,.693,1.115,2.377,2.377,0,0,0,1.271.507l.013-4.7a16.243,16.243,0,0,1-2.567-.839,5.19,5.19,0,0,1-1.871-1.383,4.429,4.429,0,0,1-.985-2.391,4.591,4.591,0,0,1,1.241-3.919,7.585,7.585,0,0,1,4.161-2.171l-.033-3.126a.882.882,0,0,1,.308-.76,1.479,1.479,0,0,1,.8-.355,1.22,1.22,0,0,1,.819.159.712.712,0,0,1,.352.658l-.017,3.226a5.852,5.852,0,0,1,3.285.948,3.436,3.436,0,0,1,1.48,2.468,2.059,2.059,0,0,1-.336,1.624,1.891,1.891,0,0,1-1.273.683,1.48,1.48,0,0,1-1.114-.261,1.537,1.537,0,0,1-.587-1.019,1.784,1.784,0,0,0-1.452-1.532l-.026,5.074A20.973,20.973,0,0,1,688.43,2078.447Zm-6.181-2.151a4.573,4.573,0,0,0,1.35.747l-.031-4.316a2.76,2.76,0,0,0-1.519.95,2.048,2.048,0,0,0-.377,1.552A1.633,1.633,0,0,0,682.248,2076.3Zm5.129,7.876a1.668,1.668,0,0,0,.414-1.384,1.516,1.516,0,0,0-.587-1.019,4.421,4.421,0,0,0-1.421-.691l.018,3.973A3.2,3.2,0,0,0,687.377,2084.172Z" transform="translate(-678.098 -2065.594)" fill="#eba303"/>
            </g>
          </g>
          <g id="Grupo_168641" data-name="Grupo 168641" transform="translate(18.714 12.471)">
            <g id="Grupo_168640" data-name="Grupo 168640">
              <g id="Grupo_168639" data-name="Grupo 168639">
                <path id="Trazado_204534" data-name="Trazado 204534" d="M682.751,2076.442a5.214,5.214,0,0,1,1.89,1.287,3.908,3.908,0,0,1,1,2.249,4.425,4.425,0,0,1-1.215,3.759,7.86,7.86,0,0,1-4.269,2.185l.024,3.065a1.008,1.008,0,0,1-.352.781,1.541,1.541,0,0,1-.843.376,1.1,1.1,0,0,1-.788-.163.777.777,0,0,1-.325-.693l0-3.13a6.573,6.573,0,0,1-3.748-1.013,3.63,3.63,0,0,1-1.67-2.6,2.343,2.343,0,0,1,.337-1.734,1.776,1.776,0,0,1,1.247-.758,1.431,1.431,0,0,1,1.2.282,2.814,2.814,0,0,1,.7,1.286,2.1,2.1,0,0,0,.693,1.115,2.378,2.378,0,0,0,1.271.507l.013-4.7a16.3,16.3,0,0,1-2.567-.839,5.2,5.2,0,0,1-1.871-1.383,4.429,4.429,0,0,1-.985-2.391,4.591,4.591,0,0,1,1.241-3.919,7.584,7.584,0,0,1,4.161-2.171l-.032-3.126a.882.882,0,0,1,.308-.76,1.477,1.477,0,0,1,.8-.355,1.22,1.22,0,0,1,.819.159.713.713,0,0,1,.352.658l-.017,3.227a5.852,5.852,0,0,1,3.285.948,3.436,3.436,0,0,1,1.48,2.468,2.06,2.06,0,0,1-.336,1.625,1.891,1.891,0,0,1-1.273.683,1.479,1.479,0,0,1-1.114-.261,1.539,1.539,0,0,1-.587-1.019,1.784,1.784,0,0,0-1.452-1.532l-.026,5.074A20.954,20.954,0,0,1,682.751,2076.442Zm-6.181-2.151a4.582,4.582,0,0,0,1.35.747l-.031-4.316a2.76,2.76,0,0,0-1.519.95,2.047,2.047,0,0,0-.377,1.552A1.634,1.634,0,0,0,676.57,2074.291Zm5.129,7.876a1.667,1.667,0,0,0,.414-1.385,1.515,1.515,0,0,0-.587-1.019,4.427,4.427,0,0,0-1.421-.691l.018,3.973A3.194,3.194,0,0,0,681.7,2082.167Z" transform="translate(-672.419 -2063.589)" fill="#fd3"/>
              </g>
            </g>
          </g>
        </g>
        <g id="Grupo_168643" data-name="Grupo 168643" transform="translate(30.204 3.916)">
          <path id="Trazado_204535" data-name="Trazado 204535" d="M746.43,2017.563a4.1,4.1,0,0,1-3.388-3.388.243.243,0,0,0-.466,0,4.1,4.1,0,0,1-3.388,3.388.243.243,0,0,0,0,.466,4.1,4.1,0,0,1,3.388,3.388.243.243,0,0,0,.466,0,4.1,4.1,0,0,1,3.388-3.388A.243.243,0,0,0,746.43,2017.563Z" transform="translate(-739.015 -2014.002)" fill="#fff"/>
        </g>
        <g id="Grupo_168644" data-name="Grupo 168644" transform="translate(8.876 34.396)">
          <path id="Trazado_204536" data-name="Trazado 204536" d="M622.812,2194.223a4.1,4.1,0,0,1-3.388-3.388.243.243,0,0,0-.466,0,4.1,4.1,0,0,1-3.388,3.388.243.243,0,0,0,0,.466,4.1,4.1,0,0,1,3.388,3.388.243.243,0,0,0,.466,0,4.1,4.1,0,0,1,3.388-3.388A.243.243,0,0,0,622.812,2194.223Z" transform="translate(-615.397 -2190.662)" fill="#fff"/>
        </g>
        <g id="Grupo_168645" data-name="Grupo 168645" transform="translate(36.169 11.746)">
          <path id="Trazado_204537" data-name="Trazado 204537" d="M777.378,2061.2a2.1,2.1,0,0,1-1.731-1.731.124.124,0,0,0-.238,0,2.1,2.1,0,0,1-1.731,1.731.124.124,0,0,0,0,.238,2.1,2.1,0,0,1,1.731,1.731.124.124,0,0,0,.238,0,2.1,2.1,0,0,1,1.731-1.731A.124.124,0,0,0,777.378,2061.2Z" transform="translate(-773.589 -2059.381)" fill="#fff"/>
        </g>
      </g>
    </g>
  </g>
</svg>
