<svg xmlns="http://www.w3.org/2000/svg" xmlns:xlink="http://www.w3.org/1999/xlink" width="402.642" height="341.657" viewBox="0 0 402.642 341.657">
  <defs>
    <linearGradient id="linear-gradient" x1="-0.088" y1="1.297" x2="0.603" y2="0.362" gradientUnits="objectBoundingBox">
      <stop offset="0" stop-color="#81d4fa"/>
      <stop offset="0.424" stop-color="#81d4fa"/>
      <stop offset="1" stop-color="#7e5ee3"/>
    </linearGradient>
  </defs>
  <g id="Grupo_71892" data-name="Grupo 71892" transform="translate(10146 1743.092)">
    <path id="Trazado_100532" data-name="Trazado 100532" d="M337.382,72.751c-19.689-20.583-90-88.337-235.326-69.469C3.878,16.029-4.008,73.4,1.209,109.284a118.834,118.834,0,0,0,11.546,35.976c5.1,10.192,13.7,30.9,11.485,50.991-1.792,16.278,33.752,113.209,210.011,95.2S368.38,105.158,337.382,72.751Z" transform="translate(-10146 -1692.248) rotate(-8)" fill="#81d4fa"/>
    <path id="Trazado_100534" data-name="Trazado 100534" d="M921.708,275.229c16.454-22.656,75.219-97.232,196.666-76.465,82.049,14.031,88.639,77.182,84.279,116.677a161.768,161.768,0,0,1-9.649,39.6c-4.258,11.218-11.446,34.009-9.6,56.126,1.5,17.917-28.207,124.609-175.51,104.785S895.8,310.9,921.708,275.229Z" transform="translate(-10994.971 -1925.117)" fill="url(#linear-gradient)"/>
    <g id="Grupo_53817" data-name="Grupo 53817" transform="translate(-10116.317 -1488.7)">
      <path id="Trazado_100506" data-name="Trazado 100506" d="M991.11,495.074,942.835,543a2.55,2.55,0,0,1-3.593-3.619l48.275-47.925a2.55,2.55,0,1,1,3.593,3.619Z" transform="translate(-918.245 -490.714)" fill="#fff"/>
      <path id="Trazado_100507" data-name="Trazado 100507" d="M928.181,569.219l-12.187,12.1A2.55,2.55,0,1,1,912.4,577.7l12.186-12.1a2.55,2.55,0,1,1,3.592,3.619Z" transform="translate(-911.649 -508.934)" fill="#fff"/>
    </g>
    <g id="Grupo_53818" data-name="Grupo 53818" transform="translate(-10087.768 -1467.949)">
      <path id="Trazado_100508" data-name="Trazado 100508" d="M997.584,520.853,968.353,549.41a1.532,1.532,0,1,1-2.14-2.191l29.231-28.557a1.532,1.532,0,0,1,2.141,2.191Z" transform="translate(-953.492 -518.226)" fill="#7e5ee3"/>
      <path id="Trazado_100509" data-name="Trazado 100509" d="M959.48,565.034l-7.38,7.209a1.532,1.532,0,0,1-2.141-2.192l7.379-7.208a1.532,1.532,0,1,1,2.141,2.191Z" transform="translate(-949.499 -529.083)" fill="#7e5ee3"/>
    </g>
    <path id="Trazado_100510" data-name="Trazado 100510" d="M1206.542,150.811l-36.71,32.069a1.827,1.827,0,0,0,2.4,2.752l36.71-32.069a1.827,1.827,0,1,0-2.4-2.752Z" transform="translate(-10988.913 -1869.706)" fill="#81d4fa"/>
    <path id="Trazado_100511" data-name="Trazado 100511" d="M1157.075,204.348l-9.267,8.1a1.827,1.827,0,1,0,2.4,2.752l9.267-8.1a1.827,1.827,0,0,0-2.4-2.752Z" transform="translate(-10982.282 -1885.82)" fill="#81d4fa"/>
    <circle id="Elipse_4060" data-name="Elipse 4060" cx="11.915" cy="11.915" r="11.915" transform="translate(-10091.136 -1519.829)" fill="#ff9d00"/>
    <circle id="Elipse_4061" data-name="Elipse 4061" cx="14.237" cy="14.237" r="14.237" transform="translate(-9801.098 -1676.811)" fill="#ff9d00"/>
    <ellipse id="Elipse_4979" data-name="Elipse 4979" cx="155" cy="154.5" rx="155" ry="154.5" transform="translate(-10096.892 -1715.63)" fill="#fff" opacity="0.5"/>
    <g id="Grupo_156068" data-name="Grupo 156068" transform="translate(-10170.113 -1690.214)">
      <g id="decor" transform="translate(44.671 23.454)">
        <g id="Grupo_155994" data-name="Grupo 155994" transform="translate(0 43.662)">
          <path id="Trazado_190537" data-name="Trazado 190537" d="M815.273,2655.234h0a1.326,1.326,0,0,1,.213-1.849h0a1.3,1.3,0,0,1,1.843.076l0,0a1.325,1.325,0,0,1-.213,1.849h0a1.3,1.3,0,0,1-1.784-.016h0C815.311,2655.276,815.292,2655.257,815.273,2655.234Z" transform="translate(-787.586 -2473.891)" fill="#81d4fa"/>
          <path id="Trazado_190538" data-name="Trazado 190538" d="M743.616,2561.975a1.348,1.348,0,0,1,.374-1.836h0a1.278,1.278,0,0,1,1.817.237h0a1.351,1.351,0,0,1-.372,1.837h0a1.3,1.3,0,0,1-1.693-.089h0A1.257,1.257,0,0,1,743.616,2561.975Z" transform="translate(-722.707 -2389.452)" fill="#81d4fa"/>
          <path id="Trazado_190539" data-name="Trazado 190539" d="M680.873,2462.192a1.367,1.367,0,0,1,.529-1.807h0a1.26,1.26,0,0,1,1.779.4h0a1.367,1.367,0,0,1-.532,1.808h0a1.282,1.282,0,0,1-1.592-.154h0A1.17,1.17,0,0,1,680.873,2462.192Z" transform="translate(-665.897 -2299.107)" fill="#81d4fa"/>
          <path id="Trazado_190540" data-name="Trazado 190540" d="M627.692,2356.572a1.384,1.384,0,0,1,.688-1.764h0a1.242,1.242,0,0,1,1.724.559h0a1.385,1.385,0,0,1-.688,1.764h0a1.274,1.274,0,0,1-1.49-.213h0A1.2,1.2,0,0,1,627.692,2356.572Z" transform="translate(-617.748 -2203.479)" fill="#81d4fa"/>
          <path id="Trazado_190541" data-name="Trazado 190541" d="M584.7,2245.847a1.4,1.4,0,0,1,.845-1.706h0a1.225,1.225,0,0,1,1.65.719h0a1.4,1.4,0,0,1-.842,1.706h0a1.261,1.261,0,0,1-1.376-.266h0A1.188,1.188,0,0,1,584.7,2245.847Z" transform="translate(-578.827 -2103.229)" fill="#81d4fa"/>
          <path id="Trazado_190542" data-name="Trazado 190542" d="M552.492,2130.866a1.417,1.417,0,0,1,1-1.632h0a1.215,1.215,0,0,1,1.565.876h0a1.414,1.414,0,0,1-.995,1.631h0a1.247,1.247,0,0,1-1.258-.308h0A1.2,1.2,0,0,1,552.492,2130.866Z" transform="translate(-549.664 -1999.13)" fill="#81d4fa"/>
          <path id="Trazado_190543" data-name="Trazado 190543" d="M531.625,2012.55a1.426,1.426,0,0,1,1.142-1.54h0a1.205,1.205,0,0,1,1.462,1.028h0a1.424,1.424,0,0,1-1.142,1.54h0a1.233,1.233,0,0,1-1.132-.337h0A1.192,1.192,0,0,1,531.625,2012.55Z" transform="translate(-530.773 -1892.015)" fill="#81d4fa"/>
          <path id="Trazado_190544" data-name="Trazado 190544" d="M522.624,1891.91a1.429,1.429,0,0,1,1.281-1.429h0a1.2,1.2,0,0,1,1.342,1.177h0a1.431,1.431,0,0,1-1.281,1.429h0a1.228,1.228,0,0,1-1-.356h0A1.2,1.2,0,0,1,522.624,1891.91Z" transform="translate(-522.624 -1782.799)" fill="#81d4fa"/>
          <path id="Trazado_190545" data-name="Trazado 190545" d="M526.007,1770.055a1.428,1.428,0,0,1,1.411-1.3h0a1.2,1.2,0,0,1,1.2,1.317h0a1.428,1.428,0,0,1-1.411,1.3h0a1.2,1.2,0,0,1-.865-.361h0A1.216,1.216,0,0,1,526.007,1770.055Z" transform="translate(-525.686 -1672.489)" fill="#81d4fa"/>
          <path id="Trazado_190546" data-name="Trazado 190546" d="M542.2,1648.286a1.426,1.426,0,0,1,1.531-1.151h0a1.2,1.2,0,0,1,1.046,1.45h0a1.427,1.427,0,0,1-1.531,1.151h0a1.206,1.206,0,0,1-.728-.35h0A1.234,1.234,0,0,1,542.2,1648.286Z" transform="translate(-540.345 -1562.259)" fill="#81d4fa"/>
          <path id="Trazado_190547" data-name="Trazado 190547" d="M571.563,1528.083h0a1.415,1.415,0,0,1,1.637-.982h0a1.214,1.214,0,0,1,.869,1.569h0a1.415,1.415,0,0,1-1.641.982h0a1.184,1.184,0,0,1-.583-.325h0A1.244,1.244,0,0,1,571.563,1528.083Z" transform="translate(-566.922 -1453.453)" fill="#81d4fa"/>
          <path id="Trazado_190548" data-name="Trazado 190548" d="M614.219,1411.036a1.4,1.4,0,0,1,1.729-.793h0a1.229,1.229,0,0,1,.67,1.672h0a1.4,1.4,0,0,1-1.729.793h0a1.181,1.181,0,0,1-.442-.283h0A1.26,1.26,0,0,1,614.219,1411.036Z" transform="translate(-605.532 -1347.51)" fill="#81d4fa"/>
          <path id="Trazado_190549" data-name="Trazado 190549" d="M670.07,1298.882a1.382,1.382,0,0,1,1.8-.588h0a1.248,1.248,0,0,1,.457,1.755h0a1.375,1.375,0,0,1-1.795.588h0a1.16,1.16,0,0,1-.305-.225h0A1.276,1.276,0,0,1,670.07,1298.882Z" transform="translate(-656.084 -1245.998)" fill="#81d4fa"/>
          <path id="Trazado_190550" data-name="Trazado 190550" d="M738.69,1193.286a1.35,1.35,0,0,1,1.838-.367h0a1.269,1.269,0,0,1,.236,1.814h0a1.352,1.352,0,0,1-1.84.369h0a1.346,1.346,0,0,1-.169-.146h0A1.293,1.293,0,0,1,738.69,1193.286Z" transform="translate(-718.191 -1150.426)" fill="#81d4fa"/>
          <path id="Trazado_190551" data-name="Trazado 190551" d="M819.164,1095.981a1.322,1.322,0,0,1,1.856-.144h0a1.3,1.3,0,0,1,.008,1.845h0a1.328,1.328,0,0,1-1.856.144h0l-.047-.048h0A1.3,1.3,0,0,1,819.164,1095.981Z" transform="translate(-791.026 -1062.355)" fill="#81d4fa"/>
          <path id="Trazado_190552" data-name="Trazado 190552" d="M910.053,1010.212a1.327,1.327,0,0,1,.216-1.849h0a1.3,1.3,0,0,1,1.841.081h0a1.327,1.327,0,0,1-.217,1.849h0a1.3,1.3,0,0,1-1.784-.016h0C910.091,1010.258,910.072,1010.235,910.053,1010.212Z" transform="translate(-873.484 -983.054)" fill="#81d4fa"/>
          <path id="Trazado_190553" data-name="Trazado 190553" d="M1010.211,933.582a1.353,1.353,0,0,1,.441-1.824h0a1.268,1.268,0,0,1,1.8.309h0a1.354,1.354,0,0,1-.441,1.824h0a1.288,1.288,0,0,1-1.649-.118h0A1.174,1.174,0,0,1,1010.211,933.582Z" transform="translate(-964.338 -913.721)" fill="#81d4fa"/>
          <path id="Trazado_190554" data-name="Trazado 190554" d="M1118.148,869.126a1.381,1.381,0,0,1,.659-1.774h0a1.244,1.244,0,0,1,1.733.529h0a1.38,1.38,0,0,1-.659,1.774h0a1.27,1.27,0,0,1-1.509-.2h0A1.15,1.15,0,0,1,1118.148,869.126Z" transform="translate(-1062.226 -855.429)" fill="#81d4fa"/>
          <path id="Trazado_190555" data-name="Trazado 190555" d="M1232.154,817.641a1.4,1.4,0,0,1,.86-1.7h0a1.228,1.228,0,0,1,1.644.738h0a1.408,1.408,0,0,1-.862,1.7l0,0a1.257,1.257,0,0,1-1.361-.271h0A1.179,1.179,0,0,1,1232.154,817.641Z" transform="translate(-1165.598 -808.897)" fill="#81d4fa"/>
          <path id="Trazado_190556" data-name="Trazado 190556" d="M1350.462,779.489a1.419,1.419,0,0,1,1.045-1.6h0a1.209,1.209,0,0,1,1.531.929h0a1.416,1.416,0,0,1-1.043,1.6h0a1.248,1.248,0,0,1-1.217-.319h0A1.177,1.177,0,0,1,1350.462,779.489Z" transform="translate(-1272.851 -774.45)" fill="#81d4fa"/>
          <path id="Trazado_190557" data-name="Trazado 190557" d="M1471.372,754.7a1.426,1.426,0,0,1,1.21-1.488h0a1.2,1.2,0,0,1,1.4,1.1h0a1.428,1.428,0,0,1-1.208,1.489h0a1.234,1.234,0,0,1-1.071-.349h0A1.2,1.2,0,0,1,1471.372,754.7Z" transform="translate(-1382.445 -752.115)" fill="#81d4fa"/>
          <path id="Trazado_190558" data-name="Trazado 190558" d="M1593.368,743.024a1.431,1.431,0,0,1,1.352-1.364h0a1.2,1.2,0,0,1,1.271,1.253h0a1.433,1.433,0,0,1-1.353,1.362h0a1.208,1.208,0,0,1-.93-.359h0A1.211,1.211,0,0,1,1593.368,743.024Z" transform="translate(-1493.009 -741.659)" fill="#81d4fa"/>
          <path id="Trazado_190559" data-name="Trazado 190559" d="M1714.994,744.093a1.43,1.43,0,0,1,1.475-1.227h0a1.2,1.2,0,0,1,1.125,1.386h0a1.427,1.427,0,0,1-1.475,1.227h0a1.206,1.206,0,0,1-.8-.357h0A1.226,1.226,0,0,1,1714.994,744.093Z" transform="translate(-1603.226 -742.751)" fill="#81d4fa"/>
          <path id="Trazado_190560" data-name="Trazado 190560" d="M1835,757.458a1.422,1.422,0,0,1,1.577-1.083h0a1.208,1.208,0,0,1,.974,1.5h0a1.425,1.425,0,0,1-1.58,1.084h0a1.2,1.2,0,0,1-.666-.344h0A1.229,1.229,0,0,1,1835,757.458Z" transform="translate(-1711.966 -754.981)" fill="#81d4fa"/>
          <path id="Trazado_190561" data-name="Trazado 190561" d="M1952.281,782.532a1.411,1.411,0,0,1,1.664-.934h0a1.217,1.217,0,0,1,.818,1.6h0a1.415,1.415,0,0,1-1.667.934h0a1.192,1.192,0,0,1-.544-.318h0A1.246,1.246,0,0,1,1952.281,782.532Z" transform="translate(-1818.219 -777.815)" fill="#81d4fa"/>
          <path id="Trazado_190562" data-name="Trazado 190562" d="M2065.836,818.789a1.4,1.4,0,0,1,1.736-.78h0a1.227,1.227,0,0,1,.658,1.678h0a1.4,1.4,0,0,1-1.736.78h0a1.181,1.181,0,0,1-.432-.28h0A1.265,1.265,0,0,1,2065.836,818.789Z" transform="translate(-1921.091 -810.781)" fill="#81d4fa"/>
          <path id="Trazado_190563" data-name="Trazado 190563" d="M2174.778,865.627a1.382,1.382,0,0,1,1.787-.625h0a1.242,1.242,0,0,1,.5,1.742h0a1.381,1.381,0,0,1-1.787.625h0a1.181,1.181,0,0,1-.326-.236h0A1.274,1.274,0,0,1,2174.778,865.627Z" transform="translate(-2019.773 -853.328)" fill="#81d4fa"/>
          <path id="Trazado_190564" data-name="Trazado 190564" d="M2278.3,922.452a1.364,1.364,0,0,1,1.824-.466h0a1.259,1.259,0,0,1,.334,1.792h0a1.364,1.364,0,0,1-1.824.466h0a1.14,1.14,0,0,1-.227-.183h0A1.287,1.287,0,0,1,2278.3,922.452Z" transform="translate(-2113.54 -904.921)" fill="#81d4fa"/>
          <path id="Trazado_190565" data-name="Trazado 190565" d="M2375.663,988.618a1.345,1.345,0,0,1,1.845-.307h0a1.281,1.281,0,0,1,.173,1.827h0a1.345,1.345,0,0,1-1.846.305h0a1.069,1.069,0,0,1-.135-.118h0A1.3,1.3,0,0,1,2375.663,988.618Z" transform="translate(-2201.709 -964.974)" fill="#81d4fa"/>
          <path id="Trazado_190566" data-name="Trazado 190566" d="M2466.241,1063.445a1.326,1.326,0,0,1,1.856-.147h0a1.3,1.3,0,0,1,.012,1.847h0a1.327,1.327,0,0,1-1.854.146h0c-.019-.016-.035-.033-.051-.049h0A1.305,1.305,0,0,1,2466.241,1063.445Z" transform="translate(-2283.73 -1032.868)" fill="#81d4fa"/>
        </g>
        <g id="Grupo_155998" data-name="Grupo 155998" transform="translate(83.251)">
          <g id="Grupo_155995" data-name="Grupo 155995" transform="translate(89.459 0)">
            <rect id="Rectángulo_46224" data-name="Rectángulo 46224" width="17.69" height="17.69" rx="8.845" transform="translate(2.291)" fill="#fff"/>
            <rect id="Rectángulo_46225" data-name="Rectángulo 46225" width="17.69" height="17.69" rx="8.845" transform="translate(2.291 30.986)" fill="#fff"/>
            <rect id="Rectángulo_46226" data-name="Rectángulo 46226" width="17.69" height="17.69" rx="8.845" transform="translate(2.291 62.018)" fill="#fff"/>
            <path id="Trazado_190567" data-name="Trazado 190567" d="M2386.852,276.268l-10.181,10.181a1.536,1.536,0,0,1-2.172,0l-6.561-6.561a1.536,1.536,0,0,0-2.172,0h0a1.536,1.536,0,0,0,0,2.172l7.647,7.647,1.086,1.086a1.536,1.536,0,0,0,2.172,0l1.086-1.086,11.267-11.267a1.535,1.535,0,0,0,0-2.172h0A1.536,1.536,0,0,0,2386.852,276.268Z" transform="translate(-2365.315 -275.818)" fill="#00bcd4"/>
            <path id="Trazado_190568" data-name="Trazado 190568" d="M2386.852,607.112l-10.181,10.181a1.536,1.536,0,0,1-2.172,0l-6.561-6.561a1.536,1.536,0,0,0-2.172,0h0a1.536,1.536,0,0,0,0,2.172l7.647,7.647,1.086,1.086a1.536,1.536,0,0,0,2.172,0l1.086-1.086,11.267-11.267a1.535,1.535,0,0,0,0-2.172h0A1.536,1.536,0,0,0,2386.852,607.112Z" transform="translate(-2365.315 -575.653)" fill="#00bcd4"/>
            <path id="Trazado_190569" data-name="Trazado 190569" d="M2386.852,937.956l-10.181,10.181a1.536,1.536,0,0,1-2.172,0l-6.561-6.561a1.536,1.536,0,0,0-2.172,0h0a1.536,1.536,0,0,0,0,2.172l7.647,7.647,1.086,1.086a1.536,1.536,0,0,0,2.172,0l1.086-1.086,11.267-11.267a1.535,1.535,0,0,0,0-2.172h0A1.536,1.536,0,0,0,2386.852,937.956Z" transform="translate(-2365.315 -875.488)" fill="#00bcd4"/>
          </g>
          <g id="Grupo_155997" data-name="Grupo 155997" transform="translate(0)">
            <rect id="Rectángulo_46227" data-name="Rectángulo 46227" width="56.569" height="52.383" rx="26.191" transform="translate(56.569 52.383) rotate(180)" fill="#00bcd4"/>
            <g id="Grupo_155996" data-name="Grupo 155996" transform="translate(7.088 4.994)">
              <circle id="Elipse_4971" data-name="Elipse 4971" cx="21.197" cy="21.197" r="21.197" transform="translate(0 0)" fill="#fff"/>
              <path id="Trazado_190570" data-name="Trazado 190570" d="M1528.192,350.3l-19.074-9.246a21.2,21.2,0,0,1,23.049-11.575Z" transform="translate(-1506.994 -329.101)" fill="#7e5ee3"/>
              <path id="Trazado_190571" data-name="Trazado 190571" d="M1712.627,353.813l3.909-20.834a21.2,21.2,0,0,1,14.293,9.97Z" transform="translate(-1691.43 -332.616)" fill="#68a7c4"/>
              <path id="Trazado_190572" data-name="Trazado 190572" d="M1712.627,450.213l18.2-10.864a21.2,21.2,0,0,1,2.317,16.186Z" transform="translate(-1691.43 -429.016)" fill="#b3c9f5"/>
            </g>
          </g>
          <path id="Trazado_190573" data-name="Trazado 190573" d="M2817.564,356.459a2.921,2.921,0,1,1,0-5.842h59.759a2.921,2.921,0,1,1,0,5.842Z" transform="translate(-2683.07 -343.606)" fill="#ffe8c2"/>
          <path id="Trazado_190574" data-name="Trazado 190574" d="M2817.564,614.283a2.921,2.921,0,1,1,0-5.842h77.166a2.921,2.921,0,0,1,0,5.842Z" transform="translate(-2683.07 -577.265)" fill="#ffe8c2"/>
          <path id="Trazado_190575" data-name="Trazado 190575" d="M3595.416,356.459a2.921,2.921,0,1,1,0-5.842H3630.6a2.921,2.921,0,0,1,0,5.842Z" transform="translate(-3388.016 -343.606)" fill="#ffe8c2"/>
          <path id="Trazado_190576" data-name="Trazado 190576" d="M2817.564,743.317a2.921,2.921,0,1,1,0-5.842h35.184a2.921,2.921,0,1,1,0,5.842Z" transform="translate(-2683.07 -694.205)" fill="#ffe8c2"/>
          <path id="Trazado_190577" data-name="Trazado 190577" d="M3333.219,994.472a2.921,2.921,0,0,1,0-5.842h59.759a2.921,2.921,0,1,1,0,5.842Z" transform="translate(-3150.394 -921.82)" fill="#ffe8c2"/>
          <path id="Trazado_190578" data-name="Trazado 190578" d="M2817.564,994.472a2.921,2.921,0,1,1,0-5.842h35.184a2.921,2.921,0,1,1,0,5.842Z" transform="translate(-2683.07 -921.82)" fill="#ffe8c2"/>
        </g>
      </g>
      <g id="boxes" transform="translate(168.264 134.234)">
        <g id="Grupo_156044" data-name="Grupo 156044" transform="translate(91.096)">
          <rect id="Rectángulo_46228" data-name="Rectángulo 46228" width="82.103" height="92.302" fill="#49a0c8"/>
          <path id="Trazado_190630" data-name="Trazado 190630" d="M3725,1548.015l-35.815,2.048v-92.3l35.815,2.048Z" transform="translate(-3607.081 -1457.76)" fill="#135e81"/>
          <rect id="Rectángulo_46229" data-name="Rectángulo 46229" width="9.217" height="17.451" transform="translate(32.198)" fill="#6b6668"/>
          <path id="Trazado_190631" data-name="Trazado 190631" d="M3886.24,1482.92l-5.993.2v-14.41l5.993.341Z" transform="translate(-3780.236 -1467.687)" fill="#4d494a"/>
        </g>
        <path id="Trazado_190632" data-name="Trazado 190632" d="M3725,2167.367h-35.815v-13.776l35.815,5.12Z" transform="translate(-3515.985 -2088.374)" fill="#ffa88a" opacity="0.5" style="mix-blend-mode: multiply;isolation: isolate"/>
        <path id="Trazado_190633" data-name="Trazado 190633" d="M2895.3,2065.811h-82.1v-43.318l82.1,12.288Z" transform="translate(-2722.105 -1969.562)" fill="#fddab9" opacity="0.5" style="mix-blend-mode: multiply;isolation: isolate"/>
        <g id="Grupo_156045" data-name="Grupo 156045" transform="translate(113.25 77.967)">
          <path id="Trazado_190672" data-name="Trazado 190672" d="M0,0H82.1V70.053H0Z" fill="#9179e0"/>
          <path id="Trazado_190634" data-name="Trazado 190634" d="M3956.509,2359.667l4.854-.278v-67.728l-35.815-2.048v70.053Z" transform="translate(-3843.444 -2289.614)" fill="#533aa4"/>
          <rect id="Rectángulo_46231" data-name="Rectángulo 46231" width="9.217" height="17.451" transform="translate(32.198)" fill="#6b6366"/>
          <path id="Trazado_190635" data-name="Trazado 190635" d="M4122.6,2314.772l-5.992.2v-14.41l5.992.341Z" transform="translate(-4016.599 -2299.54)" fill="#4d4749"/>
        </g>
        <g id="Grupo_156046" data-name="Grupo 156046" transform="translate(0 59.507)">
          <path id="Trazado_190720" data-name="Trazado 190720" d="M0,0H82.1V88.513H0Z" fill="#bf7d12"/>
          <path id="Trazado_190636" data-name="Trazado 190636" d="M2753.07,2181.168V2094.7l-35.815-2.048v88.513Z" transform="translate(-2635.151 -2092.655)" fill="#7e510a"/>
          <rect id="Rectángulo_46233" data-name="Rectángulo 46233" width="9.217" height="17.451" transform="translate(32.198 0)" fill="#6b5e63"/>
          <path id="Trazado_190637" data-name="Trazado 190637" d="M2914.31,2117.814l-5.992.2v-14.41l5.992.342Z" transform="translate(-2808.307 -2102.581)" fill="#4d4447"/>
        </g>
      </g>
      <g id="person" transform="translate(49.428 90.582)">
        <path id="Trazado_190638" data-name="Trazado 190638" d="M750.446,2773.984h77c0-6.859-2.983-13.017-6.316-17.756a50.073,50.073,0,0,0-9.043-9.761H766.871c-.377.3-.969.786-1.665,1.412-6.116,5.492-9.041,11.7-11.084,16.14A69.108,69.108,0,0,0,750.446,2773.984Z" transform="translate(-733.85 -2582.028)" fill="#4d4749"/>
        <g id="Grupo_156047" data-name="Grupo 156047" transform="translate(70.714 173.454)">
          <path id="Trazado_190639" data-name="Trazado 190639" d="M1331.392,2861.582a.417.417,0,0,0,.417-.406c.187-6.321-2.127-16.088-3.169-18.275a.418.418,0,1,0-.755.359,57.817,57.817,0,0,1,3.088,17.892.418.418,0,0,0,.405.43Z" transform="translate(-1327.845 -2842.663)" fill="#36262c"/>
        </g>
        <g id="Grupo_156051" data-name="Grupo 156051" transform="translate(73.268 173.454)">
          <g id="Grupo_156048" data-name="Grupo 156048" transform="translate(3.014 14.467)">
            <path id="Trazado_190640" data-name="Trazado 190640" d="M1387.782,3001.466a.418.418,0,0,0,.417-.406,33.567,33.567,0,0,0-.116-3.663.418.418,0,0,0-.833.067,32.876,32.876,0,0,1,.114,3.571.418.418,0,0,0,.405.43Z" transform="translate(-1387.249 -2997.014)" fill="#36262c"/>
          </g>
          <g id="Grupo_156049" data-name="Grupo 156049" transform="translate(1.802 6.456)">
            <path id="Trazado_190641" data-name="Trazado 190641" d="M1375.6,2917.325a.425.425,0,0,0,.058,0,.418.418,0,0,0,.356-.471c-.224-1.609-.518-3.282-.875-4.971a.418.418,0,0,0-.818.172c.353,1.67.644,3.323.865,4.914A.418.418,0,0,0,1375.6,2917.325Z" transform="translate(-1374.315 -2911.547)" fill="#36262c"/>
          </g>
          <g id="Grupo_156050" data-name="Grupo 156050">
            <path id="Trazado_190642" data-name="Trazado 190642" d="M1356.607,2846.945a.426.426,0,0,0,.105-.013.418.418,0,0,0,.3-.509,23.666,23.666,0,0,0-1.125-3.521.418.418,0,1,0-.755.359,23.36,23.36,0,0,1,1.071,3.372A.418.418,0,0,0,1356.607,2846.945Z" transform="translate(-1355.091 -2842.663)" fill="#36262c"/>
          </g>
        </g>
        <path id="Trazado_190643" data-name="Trazado 190643" d="M2357.178,1461.366c2.773,7.11,4.622,11.8,4.622,15.358s-7.822,20.62-11.234,24.317-10.808-12.372-10.808-12.372Z" transform="translate(-2174.2 -1417.377)" fill="#e3a390"/>
        <g id="Grupo_156060" data-name="Grupo 156060" transform="translate(116.095 30.558)">
          <path id="Trazado_190644" data-name="Trazado 190644" d="M1891.606,1326.836l-38.65,50.191-40.928-8.536,37.536-50.423Z" transform="translate(-1812.028 -1318.068)" fill="#607cb3"/>
          <path id="Trazado_190645" data-name="Trazado 190645" d="M1941.537,1363.042l-34.409,44.684-33.266-6.938,33.417-44.891Z" transform="translate(-1868.066 -1352.351)" fill="#f3f9ff"/>
          <path id="Trazado_190646" data-name="Trazado 190646" d="M1891.606,1411.62l-38.65,50.191-40.928-8.536,1.138,2.9,41.114,8.575,38.079-49.778Z" transform="translate(-1812.028 -1402.852)" fill="#3f5175"/>
          <g id="Grupo_156052" data-name="Grupo 156052" transform="translate(39.978 9.088)">
            <path id="Trazado_190647" data-name="Trazado 190647" d="M2238.9,1415.86l24.687,5.149a.418.418,0,0,0,.17-.818l-24.687-5.149a.418.418,0,1,0-.171.818Z" transform="translate(-2238.566 -1415.033)" fill="#3f5175"/>
          </g>
          <g id="Grupo_156053" data-name="Grupo 156053" transform="translate(36.496 14.173)">
            <path id="Trazado_190648" data-name="Trazado 190648" d="M2201.752,1470.109l24.687,5.149a.418.418,0,0,0,.17-.818l-24.686-5.149a.418.418,0,1,0-.171.818Z" transform="translate(-2201.419 -1469.282)" fill="#3f5175"/>
          </g>
          <g id="Grupo_156054" data-name="Grupo 156054" transform="translate(29.203 21.745)">
            <path id="Trazado_190649" data-name="Trazado 190649" d="M2123.94,1550.9l24.687,5.149a.418.418,0,1,0,.171-.818l-24.687-5.149a.418.418,0,1,0-.171.818Z" transform="translate(-2123.608 -1550.071)" fill="#3f5175"/>
          </g>
          <g id="Grupo_156055" data-name="Grupo 156055" transform="translate(27.002 24.869)">
            <path id="Trazado_190650" data-name="Trazado 190650" d="M2100.455,1584.23l24.687,5.149a.418.418,0,0,0,.17-.818l-24.687-5.149a.418.418,0,1,0-.17.818Z" transform="translate(-2100.122 -1583.404)" fill="#3f5175"/>
          </g>
          <g id="Grupo_156056" data-name="Grupo 156056" transform="translate(24.801 27.993)">
            <path id="Trazado_190651" data-name="Trazado 190651" d="M2076.972,1617.563l24.687,5.149a.418.418,0,1,0,.171-.818l-24.687-5.149a.418.418,0,0,0-.17.818Z" transform="translate(-2076.639 -1616.737)" fill="#3f5175"/>
          </g>
          <g id="Grupo_156057" data-name="Grupo 156057" transform="translate(22.6 31.117)">
            <path id="Trazado_190652" data-name="Trazado 190652" d="M2053.486,1650.9l24.687,5.149a.418.418,0,1,0,.17-.818l-24.687-5.149a.418.418,0,1,0-.171.818Z" transform="translate(-2053.154 -1650.069)" fill="#3f5175"/>
          </g>
          <g id="Grupo_156058" data-name="Grupo 156058" transform="translate(20.399 34.242)">
            <path id="Trazado_190653" data-name="Trazado 190653" d="M2030,1684.228l24.687,5.149a.418.418,0,0,0,.17-.818l-24.687-5.149a.418.418,0,0,0-.171.818Z" transform="translate(-2029.668 -1683.401)" fill="#3f5175"/>
          </g>
          <g id="Grupo_156059" data-name="Grupo 156059" transform="translate(18.198 37.366)">
            <path id="Trazado_190654" data-name="Trazado 190654" d="M2006.518,1717.561l24.687,5.149a.418.418,0,1,0,.17-.818l-24.687-5.149a.418.418,0,1,0-.171.818Z" transform="translate(-2006.185 -1716.734)" fill="#3f5175"/>
          </g>
        </g>
        <path id="Trazado_190655" data-name="Trazado 190655" d="M1160.441,1147.854l-6.162,15.04,21.615-.725,1.422-9.954s4.551,2.18,7.395,1.612,8.058-9.48,9.765-21.426-1.327-26.071-1.327-26.071l-23.95,10.428Z" transform="translate(-1099.833 -1095.617)" fill="#e3a390"/>
        <path id="Trazado_190656" data-name="Trazado 190656" d="M907.923,2747.878c5.826,5.155,40.629,12.574,55.929,8.349a50.076,50.076,0,0,0-9.043-9.761H909.589S908.951,2746.965,907.923,2747.878Z" transform="translate(-876.567 -2582.028)" fill="#36262c"/>
        <path id="Trazado_190657" data-name="Trazado 190657" d="M585.92,1869.408c1.807.451,3.542.813,5.177,1.1a63.027,63.027,0,0,0,14.236,1.033l3.941-53.771,2.122-28.949c-7.344,11.048-32.088,49.869-36.354,61.176S574.828,1866.635,585.92,1869.408Z" transform="translate(-573.379 -1714.141)" fill="#ff9d00"/>
        <path id="Trazado_190658" data-name="Trazado 190658" d="M762.42,2114.1a63.017,63.017,0,0,0,14.236,1.033l3.94-53.771-3.89-3.757Z" transform="translate(-744.702 -1957.731)" fill="#de8c08"/>
        <path id="Trazado_190659" data-name="Trazado 190659" d="M852.682,1775.046c6.826,2.345,34.558,4.692,45.435,3.2s13.866-6.614,14.718-21.332c.251-4.311.738-11.549,1.276-19.737.4-6.066.827-12.652,1.2-18.954.855-14.245,1.459-27.05.936-29.141-1.067-4.266-3.091-9.023-10.452-11.733-10.666-3.927-31.784-5.974-41.383-2.133s-11.944,15.359-13.651,24.532-7.252,54.606-8.107,62.713S845.856,1772.7,852.682,1775.046Z" transform="translate(-817.316 -1609.327)" fill="#ff9d00"/>
        <path id="Trazado_190660" data-name="Trazado 190660" d="M1365.828,1990.513l22.521,34.265c.4-6.065.827-12.652,1.2-18.954Z" transform="translate(-1291.554 -1896.928)" fill="#de8c08"/>
        <path id="Trazado_190661" data-name="Trazado 190661" d="M1316.37,1715.912c-5.91,7.8-2.56,16.986,7.893,26.518s31.57,31.929,41.6,40.888,18.345,8.746,26.451-2.346,34.77-51.408,34.77-51.408-3.2-10.666-18.558-10.026c-8.106,9.172-28.37,36.263-28.37,36.263s-36.666-38.979-43.61-43.274S1321.7,1708.873,1316.37,1715.912Z" transform="translate(-1244.101 -1642.557)" fill="#ff9d00"/>
        <g id="Grupo_156061" data-name="Grupo 156061" transform="translate(135.645 112.878)">
          <path id="Trazado_190662" data-name="Trazado 190662" d="M2027.37,2203.813a1.684,1.684,0,0,0,1.446-.717c1.044-1.624-1.06-3.242-2.071-4.021l-.116-.089a19.059,19.059,0,0,0-4.5-2.591.418.418,0,0,0-.314.774,18.225,18.225,0,0,1,4.3,2.478l.118.091c.814.626,2.507,1.929,1.878,2.907a.962.962,0,0,1-.961.313,3.061,3.061,0,0,1-1.2-.639,14.92,14.92,0,0,1-4.536-5.71.418.418,0,0,0-.761.343,15.758,15.758,0,0,0,4.791,6.031,3.775,3.775,0,0,0,1.553.8A1.992,1.992,0,0,0,2027.37,2203.813Z" transform="translate(-2020.615 -2196.362)" fill="#de8c08"/>
        </g>
        <g id="Grupo_156062" data-name="Grupo 156062" transform="translate(135.845 110.79)">
          <path id="Trazado_190663" data-name="Trazado 190663" d="M2023.069,2176.659a.708.708,0,0,1,.141-.925,8.784,8.784,0,0,1,6.5-1.542c.824.133,1.334.557,1.365,1.135.029.55-.374,1-1.135,1.274a9.947,9.947,0,0,1-3.236.464A16.759,16.759,0,0,1,2023.069,2176.659Zm1.2-.622a12.233,12.233,0,0,0,5.39-.224c.355-.126.589-.3.581-.442s-.293-.295-.664-.355a7.785,7.785,0,0,0-1.239-.1A7.97,7.97,0,0,0,2024.268,2176.037Z" transform="translate(-2022.745 -2174.083)" fill="#de8c08"/>
        </g>
        <g id="Grupo_156063" data-name="Grupo 156063" transform="translate(35.185 152.307)">
          <path id="Trazado_190664" data-name="Trazado 190664" d="M954.3,2632.079a.418.418,0,0,0,.415-.377c.375-3.821.527-8.741-1.638-12.916-.552-1.065-1.191-1.631-1.952-1.732a2.245,2.245,0,0,0-2.3,2.016,5.738,5.738,0,0,0,.559,2.875l3.49,8.976a.418.418,0,0,0,.779-.3l-3.49-8.976a5.025,5.025,0,0,1-.512-2.449c.1-.691.712-1.4,1.369-1.311.471.062.9.483,1.319,1.288,2.064,3.979,1.911,8.744,1.548,12.449a.418.418,0,0,0,.375.457Z" transform="translate(-948.782 -2617.04)" fill="#de8c08"/>
        </g>
        <g id="Grupo_156064" data-name="Grupo 156064" transform="translate(54.152 157.378)">
          <path id="Trazado_190665" data-name="Trazado 190665" d="M1154.916,2683.027a.415.415,0,0,1-.286-.118l-.034.024a.419.419,0,0,1-.577-.127c-2.364-3.7-3.236-6.718-2.746-9.485a3.491,3.491,0,0,1,.5-1.407,1.544,1.544,0,0,1,2.777.209,4.028,4.028,0,0,1,.325,1.347,73.105,73.105,0,0,1,.465,9.146.417.417,0,0,1-.418.412Zm-2.456-10.64a2.765,2.765,0,0,0-.365,1.079c-.437,2.466.33,5.19,2.413,8.549a72.318,72.318,0,0,0-.464-8.451,3.265,3.265,0,0,0-.244-1.073.871.871,0,0,0-.613-.513.526.526,0,0,0-.059,0A.891.891,0,0,0,1152.46,2672.387Z" transform="translate(-1151.141 -2671.14)" fill="#de8c08"/>
        </g>
        <g id="Grupo_156065" data-name="Grupo 156065" transform="translate(76.182 159.278)">
          <path id="Trazado_190666" data-name="Trazado 190666" d="M1386.608,2701.835a.418.418,0,0,0,.405-.318,18.975,18.975,0,0,1,3.132-6.724,8.113,8.113,0,0,1,2.243-2.286c.4-.243.925-.368,1.123-.122.126.157.115.452-.033.9-.826,2.506-2.768,5.031-5.938,7.719a.418.418,0,0,0,.541.637c3.29-2.791,5.315-5.439,6.191-8.095a1.766,1.766,0,0,0-.109-1.687,1.681,1.681,0,0,0-2.21-.067,8.88,8.88,0,0,0-2.488,2.515,19.77,19.77,0,0,0-3.262,7.008.418.418,0,0,0,.306.505A.426.426,0,0,0,1386.608,2701.835Z" transform="translate(-1386.19 -2691.416)" fill="#de8c08"/>
        </g>
        <g id="Grupo_156066" data-name="Grupo 156066" transform="translate(57.562 155.838)">
          <path id="Trazado_190667" data-name="Trazado 190667" d="M1187.944,2668.113a.416.416,0,0,0,.258-.089,30.966,30.966,0,0,0,7.95-9.392,4.769,4.769,0,0,0,.63-1.652,2.063,2.063,0,0,0-.63-1.853,2.012,2.012,0,0,0-1.964-.278,4.091,4.091,0,0,0-1.488,1.04c-2.2,2.225-3.907,5.719-5.081,10.385a.418.418,0,0,0,.81.2c1.137-4.52,2.774-7.885,4.865-10a3.332,3.332,0,0,1,1.172-.839,1.2,1.2,0,0,1,1.148.129,1.248,1.248,0,0,1,.339,1.1,4.074,4.074,0,0,1-.534,1.36,30.127,30.127,0,0,1-7.734,9.136.418.418,0,0,0,.259.746Z" transform="translate(-1187.526 -2654.716)" fill="#de8c08"/>
        </g>
        <path id="Trazado_190668" data-name="Trazado 190668" d="M2373.914,1567.281c-3.095-1.929-4.74-6.636-5.119-9.2s-.095-4.835-1.8-5.119-2.631.688-2.916,4.527.731,14.879,3.992,19.953C2373,1579.073,2373.914,1567.281,2373.914,1567.281Z" transform="translate(-2196.2 -1500.349)" fill="#e3a390"/>
        <ellipse id="Elipse_4972" data-name="Elipse 4972" cx="20.81" cy="11.377" rx="20.81" ry="11.377" transform="translate(65.159)" fill="#3b262d"/>
        <ellipse id="Elipse_4973" data-name="Elipse 4973" cx="12.419" cy="10.476" rx="12.419" ry="10.476" transform="translate(48.473 5.404)" fill="#3b262d"/>
        <path id="Trazado_190669" data-name="Trazado 190669" d="M1090.52,1073c-.19,9.812,7.11,18.439,8.438,24.318s2.716,14.435,2.716,14.435,12.169,1.681,13.685,1.018,2.939-13.273,5.025-15.169,7.869-.474,8.532-3.128.31-13.945,5.011-15.067,5.228-11.573,5.228-11.573l-10.618-3.982-30.243,15.264Z" transform="translate(-1042.047 -1057.116)" fill="#3b262d"/>
        <ellipse id="Elipse_4974" data-name="Elipse 4974" cx="4.219" cy="5.68" rx="4.219" ry="5.68" transform="translate(75.19 36.219) rotate(-25.499)" fill="#e3a390"/>
      </g>
      <g id="floor" transform="translate(43.222 281.582)">
        <g id="Grupo_156067" data-name="Grupo 156067">
          <path id="Trazado_190670" data-name="Trazado 190670" d="M517.361,3040.058h0Z" transform="translate(-516.405 -3039.102)" fill="#3b262d"/>
          <path id="Trazado_190671" data-name="Trazado 190671" d="M885.27,3031.772H508.12a.956.956,0,0,1,0-1.912H885.27a.956.956,0,0,1,0,1.912Z" transform="translate(-507.164 -3029.86)" fill="#3b262d"/>
        </g>
      </g>
    </g>
  </g>
</svg>
