<svg xmlns="http://www.w3.org/2000/svg" width="505" height="490" viewBox="0 0 505 490">
  <g id="Grupo_163037" data-name="Grupo 163037" transform="translate(-285.287 -795)">
    <rect id="Rectángulo_46752" data-name="Rectángulo 46752" width="505" height="490" transform="translate(285.287 795)" fill="none"/>
    <g id="Grupo_163036" data-name="Grupo 163036" transform="translate(123.549 819.056)">
      <g id="Grupo_162939" data-name="Grupo 162939" transform="matrix(-0.999, -0.035, 0.035, -0.999, 427.66, 613.265)">
        <g id="Grupo_162936" data-name="Grupo 162936">
          <path id="Trazado_197913" data-name="Trazado 197913" d="M245.215,246.606l-15.868,17.718-1.254-1.123,14.792-16.516Z" fill="#c7f1f2"/>
          <rect id="Rectángulo_46699" data-name="Rectángulo 46699" width="13.477" height="12.537" transform="matrix(0.667, -0.745, 0.745, 0.667, 215.06, 269.62)" fill="#008ea0"/>
          <rect id="Rectángulo_46700" data-name="Rectángulo 46700" width="5.425" height="12.537" transform="translate(215.28 269.375) rotate(-48.153)" fill="#c7f1f2" style="mix-blend-mode: multiply;isolation: isolate"/>
          <rect id="Rectángulo_46701" data-name="Rectángulo 46701" width="5.426" height="16.745" transform="translate(212.932 268.842) rotate(-48.153)" fill="#008ea0"/>
        </g>
        <path id="Trazado_197914" data-name="Trazado 197914" d="M221.546,271.777l9.506,12.1L159.1,364.221,136.517,344l71.955-80.345Z" fill="#c7f1f2"/>
        <g id="Grupo_162937" data-name="Grupo 162937">
          <rect id="Rectángulo_46702" data-name="Rectángulo 46702" width="52.903" height="19.645" transform="translate(140.609 347.424) rotate(-48.153)" fill="#8acbd1"/>
          <path id="Trazado_197915" data-name="Trazado 197915" d="M197.322,318.6l-5.639,6.3-19.653-17.6,5.639-6.3,11.388,7.06Z" fill="#00767f"/>
        </g>
        <path id="Trazado_197916" data-name="Trazado 197916" d="M221.546,271.777l9.506,12.1L159.1,364.221l-22.305-19.976.906-1.564,16.525,10.151,66.936-74.74L218.628,273l-10.156-9.346Z" fill="#c7f1f2" style="mix-blend-mode: multiply;isolation: isolate"/>
        <g id="Grupo_162938" data-name="Grupo 162938" opacity="0.5" style="mix-blend-mode: soft-light;isolation: isolate">
          <path id="Trazado_197917" data-name="Trazado 197917" d="M195.742,277.87l9.35,34.994-12.416,13.863-9.35-34.994Z" fill="#fff"/>
          <path id="Trazado_197918" data-name="Trazado 197918" d="M180.532,294.852l9.35,34.994-8.947,9.99-9.354-34.99Z" fill="#fff"/>
          <path id="Trazado_197919" data-name="Trazado 197919" d="M203.8,268.875l9.354,34.99-5.372,6-9.354-34.99Z" fill="#fff"/>
        </g>
        <rect id="Rectángulo_46703" data-name="Rectángulo 46703" width="7.11" height="36.293" transform="translate(130.727 345.984) rotate(-48.153)" fill="#008ea0"/>
        <rect id="Rectángulo_46704" data-name="Rectángulo 46704" width="7.11" height="36.293" transform="translate(112.131 366.748) rotate(-48.153)" fill="#008ea0"/>
        <rect id="Rectángulo_46705" data-name="Rectángulo 46705" width="20.764" height="20.764" transform="translate(122.659 366.632) rotate(-48.153)" fill="#00767f"/>
        <rect id="Rectángulo_46706" data-name="Rectángulo 46706" width="20.764" height="10.382" transform="translate(130.392 373.558) rotate(-48.153)" fill="#c7f1f2" style="mix-blend-mode: multiply;isolation: isolate"/>
      </g>
      <g id="Grupo_162940" data-name="Grupo 162940">
        <path id="Trazado_197920" data-name="Trazado 197920" d="M238.349,205.648l-.646.618-1.5-1.57c1.622-2.722,1.391-5.993-3.722-11.331-7.229-7.547-23.9-18.893-27.627-15.319s6.886,20.714,14.115,28.261c5.113,5.338,8.371,5.709,11.16,4.207l1.5,1.57-.645.618a6.572,6.572,0,0,0-.2,9.291L263.2,255.837a6.913,6.913,0,0,0,9.774.21l6.871-6.581a6.913,6.913,0,0,0,.211-9.774l-32.417-33.844A6.571,6.571,0,0,0,238.349,205.648Z" fill="#7e5ee3"/>
        <rect id="Rectángulo_46707" data-name="Rectángulo 46707" width="23.34" height="25.39" transform="translate(236.493 227.953) rotate(-43.766)" fill="#8acbd1"/>
        <path id="Trazado_197921" data-name="Trazado 197921" d="M238.349,205.648l-.646.618-1.5-1.57c1.622-2.722,1.391-5.993-3.722-11.331-7.229-7.547-23.9-18.893-27.627-15.319-.8.765-.939,2.155-.6,3.938,6.48,1.54,17.986,9.814,23.667,15.745,5.112,5.337,5.343,8.608,3.722,11.33l1.5,1.571.645-.618a6.571,6.571,0,0,1,9.291.2L275.5,244.056a6.912,6.912,0,0,1-.21,9.773l4.555-4.363a6.913,6.913,0,0,0,.211-9.774l-32.417-33.844A6.571,6.571,0,0,0,238.349,205.648Z" fill="#ffc7c7" style="mix-blend-mode: multiply;isolation: isolate"/>
        <path id="Trazado_197922" data-name="Trazado 197922" d="M248.023,220.84c5.342,5.577,7.87,11.824,5.648,13.952s-8.354-.666-13.7-6.243-7.871-11.824-5.648-13.953S242.681,215.263,248.023,220.84Z" fill="#fff" opacity="0.5" style="mix-blend-mode: soft-light;isolation: isolate"/>
      </g>
      <g id="Grupo_163006" data-name="Grupo 163006">
        <path id="Trazado_197923" data-name="Trazado 197923" d="M268.2,167.657l18.1-15.25-1.939-11.779s91.485,25.812,216.973,20.466l-40.161,30.931s-40.146,16.641-106.005,5.467S268.2,167.657,268.2,167.657Z" fill="#ff8931"/>
        <g id="Grupo_162965" data-name="Grupo 162965">
          <path id="Trazado_197924" data-name="Trazado 197924" d="M546.294,99.758l-82.316,90.871a5.131,5.131,0,0,1-7.214.608l-41.6-37.687a5.13,5.13,0,0,1-.1-7.236l82.316-90.871a5.129,5.129,0,0,1,7.208-.607l41.6,37.686A5.13,5.13,0,0,1,546.294,99.758Z" fill="#008ea0"/>
          <path id="Trazado_197925" data-name="Trazado 197925" d="M544.609,98.231,462.293,189.1a2.86,2.86,0,0,1-4,.448l-41.6-37.686a2.857,2.857,0,0,1,.055-4.024l82.316-90.872a2.856,2.856,0,0,1,4-.448l41.6,37.687A2.859,2.859,0,0,1,544.609,98.231Z" fill="#8acbd1"/>
          <g id="Grupo_162941" data-name="Grupo 162941" opacity="0.5" style="mix-blend-mode: soft-light;isolation: isolate">
            <path id="Trazado_197926" data-name="Trazado 197926" d="M536.043,86.4l-72.25,9.5,12.041-13.293,48.922-6.428Z" fill="#fff"/>
            <path id="Trazado_197927" data-name="Trazado 197927" d="M544.609,98.231l-7.874,8.692-93.746,11.943,18.88-20.842,75.984-9.98,6.8,6.164A2.859,2.859,0,0,1,544.609,98.231Z" fill="#fff"/>
          </g>
          <path id="Trazado_197928" data-name="Trazado 197928" d="M508.259,141.746l-44.281,48.883a5.131,5.131,0,0,1-7.214.608l-41.6-37.687a5.13,5.13,0,0,1-.1-7.236l22.281-24.6a81.441,81.441,0,0,0,70.921,20.028Z" fill="#c7f1f2" style="mix-blend-mode: multiply;isolation: isolate"/>
          <g id="Grupo_162953" data-name="Grupo 162953" style="mix-blend-mode: multiply;isolation: isolate">
            <g id="Grupo_162952" data-name="Grupo 162952">
              <g id="Grupo_162942" data-name="Grupo 162942">
                <circle id="Elipse_5108" data-name="Elipse 5108" cx="9.538" cy="9.538" r="9.538" transform="matrix(0.929, -0.371, 0.371, 0.929, 491.711, 73.359)" fill="#c7f1f2"/>
              </g>
              <g id="Grupo_162943" data-name="Grupo 162943">
                <circle id="Elipse_5109" data-name="Elipse 5109" cx="9.538" cy="9.538" r="9.538" transform="matrix(0.903, -0.429, 0.429, 0.903, 512.21, 93.002)" fill="#c7f1f2"/>
              </g>
              <g id="Grupo_162944" data-name="Grupo 162944">
                <circle id="Elipse_5110" data-name="Elipse 5110" cx="9.538" cy="9.538" r="9.538" transform="translate(477.7 105.64) rotate(-86.576)" fill="#c7f1f2"/>
              </g>
              <g id="Grupo_162945" data-name="Grupo 162945">
                <path id="Trazado_197929" data-name="Trazado 197929" d="M503.39,123.528a9.538,9.538,0,1,0-2.778-13.2A9.538,9.538,0,0,0,503.39,123.528Z" fill="#c7f1f2"/>
              </g>
              <g id="Grupo_162946" data-name="Grupo 162946">
                <path id="Trazado_197930" data-name="Trazado 197930" d="M476.684,106.712a9.539,9.539,0,1,0,2.778,13.2A9.538,9.538,0,0,0,476.684,106.712Z" fill="#c7f1f2"/>
              </g>
              <g id="Grupo_162947" data-name="Grupo 162947">
                <circle id="Elipse_5111" data-name="Elipse 5111" cx="9.538" cy="9.538" r="9.538" transform="translate(480.964 126.216) rotate(-12.053)" fill="#c7f1f2"/>
              </g>
              <g id="Grupo_162948" data-name="Grupo 162948">
                <circle id="Elipse_5112" data-name="Elipse 5112" cx="9.538" cy="9.538" r="9.538" transform="translate(443.253 139.061) rotate(-73.065)" fill="#c7f1f2"/>
              </g>
              <g id="Grupo_162949" data-name="Grupo 162949">
                <path id="Trazado_197931" data-name="Trazado 197931" d="M470.755,159.555a9.538,9.538,0,1,0-2.778-13.2A9.538,9.538,0,0,0,470.755,159.555Z" fill="#c7f1f2"/>
              </g>
              <g id="Grupo_162950" data-name="Grupo 162950">
                <circle id="Elipse_5113" data-name="Elipse 5113" cx="9.538" cy="9.538" r="9.538" transform="translate(425.355 151.145) rotate(-46.77)" fill="#c7f1f2"/>
              </g>
              <g id="Grupo_162951" data-name="Grupo 162951">
                <path id="Trazado_197932" data-name="Trazado 197932" d="M466.978,163.475a9.538,9.538,0,1,0-1.225,13.433A9.538,9.538,0,0,0,466.978,163.475Z" fill="#c7f1f2"/>
              </g>
            </g>
          </g>
          <g id="Grupo_162964" data-name="Grupo 162964">
            <g id="Grupo_162954" data-name="Grupo 162954">
              <path id="Trazado_197933" data-name="Trazado 197933" d="M510.892,82.794a9.538,9.538,0,1,1-2.777-13.2A9.538,9.538,0,0,1,510.892,82.794Z" fill="#c7f1f2"/>
              <rect id="Rectángulo_46708" data-name="Rectángulo 46708" width="14.472" height="3.18" transform="translate(497.711 72.298) rotate(33.116)" fill="#8acbd1"/>
            </g>
            <g id="Grupo_162955" data-name="Grupo 162955">
              <path id="Trazado_197934" data-name="Trazado 197934" d="M531.7,101.646a9.539,9.539,0,1,1-2.778-13.2A9.538,9.538,0,0,1,531.7,101.646Z" fill="#c7f1f2"/>
              <rect id="Rectángulo_46709" data-name="Rectángulo 46709" width="14.472" height="3.179" transform="translate(518.522 91.15) rotate(33.116)" fill="#8acbd1"/>
            </g>
            <g id="Grupo_162956" data-name="Grupo 162956">
              <circle id="Elipse_5114" data-name="Elipse 5114" cx="9.538" cy="9.538" r="9.538" transform="matrix(0.118, -0.993, 0.993, 0.118, 475.992, 103.948)" fill="#c7f1f2"/>
              <rect id="Rectángulo_46710" data-name="Rectángulo 46710" width="14.472" height="3.18" transform="translate(483.337 88.939) rotate(51.594)" fill="#8acbd1"/>
            </g>
            <g id="Grupo_162957" data-name="Grupo 162957">
              <circle id="Elipse_5115" data-name="Elipse 5115" cx="9.538" cy="9.538" r="9.538" transform="translate(495.578 120.951) rotate(-73.822)" fill="#c7f1f2"/>
              <rect id="Rectángulo_46711" data-name="Rectángulo 46711" width="14.472" height="3.179" transform="translate(502.204 109.163) rotate(33.116)" fill="#8acbd1"/>
            </g>
            <g id="Grupo_162958" data-name="Grupo 162958">
              <path id="Trazado_197935" data-name="Trazado 197935" d="M478.258,118.821a9.539,9.539,0,1,1-2.778-13.2A9.539,9.539,0,0,1,478.258,118.821Z" fill="#c7f1f2"/>
              <rect id="Rectángulo_46712" data-name="Rectángulo 46712" width="14.472" height="3.179" transform="matrix(0.838, 0.546, -0.546, 0.838, 465.076, 108.325)" fill="#8acbd1"/>
            </g>
            <g id="Grupo_162959" data-name="Grupo 162959">
              <path id="Trazado_197936" data-name="Trazado 197936" d="M499.068,137.672a9.538,9.538,0,1,1-2.778-13.2A9.538,9.538,0,0,1,499.068,137.672Z" fill="#c7f1f2"/>
              <rect id="Rectángulo_46713" data-name="Rectángulo 46713" width="14.472" height="3.179" transform="matrix(0.838, 0.546, -0.546, 0.838, 485.887, 127.176)" fill="#8acbd1"/>
            </g>
            <g id="Grupo_162960" data-name="Grupo 162960">
              <path id="Trazado_197937" data-name="Trazado 197937" d="M459.98,139.015a9.539,9.539,0,1,1,1.363-13.42A9.538,9.538,0,0,1,459.98,139.015Z" fill="#c7f1f2"/>
              <rect id="Rectángulo_46714" data-name="Rectángulo 46714" width="14.472" height="3.18" transform="translate(450.609 125.011) rotate(50.798)" fill="#8acbd1"/>
            </g>
            <g id="Grupo_162961" data-name="Grupo 162961">
              <path id="Trazado_197938" data-name="Trazado 197938" d="M482.75,155.686a9.538,9.538,0,1,1-2.777-13.2A9.538,9.538,0,0,1,482.75,155.686Z" fill="#c7f1f2"/>
              <rect id="Rectángulo_46715" data-name="Rectángulo 46715" width="14.472" height="3.18" transform="translate(469.569 145.19) rotate(33.116)" fill="#8acbd1"/>
            </g>
            <g id="Grupo_162962" data-name="Grupo 162962">
              <circle id="Elipse_5116" data-name="Elipse 5116" cx="9.538" cy="9.538" r="9.538" transform="matrix(0.914, -0.406, 0.406, 0.914, 425.043, 144.795)" fill="#c7f1f2"/>
              <rect id="Rectángulo_46716" data-name="Rectángulo 46716" width="14.472" height="3.179" transform="translate(432.441 144.352) rotate(33.116)" fill="#8acbd1"/>
            </g>
            <g id="Grupo_162963" data-name="Grupo 162963">
              <circle id="Elipse_5117" data-name="Elipse 5117" cx="9.538" cy="9.538" r="9.538" transform="translate(447.714 176.663) rotate(-82.303)" fill="#c7f1f2"/>
              <rect id="Rectángulo_46717" data-name="Rectángulo 46717" width="14.472" height="3.179" transform="matrix(0.64, 0.768, -0.768, 0.64, 455.034, 161.911)" fill="#8acbd1"/>
            </g>
          </g>
        </g>
        <g id="Grupo_162966" data-name="Grupo 162966">
          <path id="Trazado_197939" data-name="Trazado 197939" d="M417.014,97.769l.189-.028-1.331-8.978-46.241,6.856,1.331,8.978.19-.028a11.128,11.128,0,0,0-9.376,12.641l13.818,93.2a11.47,11.47,0,0,0,13.028,9.664l45.186-6.7a11.471,11.471,0,0,0,9.665-13.029l-13.819-93.2A11.129,11.129,0,0,0,417.014,97.769Z" fill="#8acbd1"/>
          <rect id="Rectángulo_46718" data-name="Rectángulo 46718" width="39.484" height="40.11" transform="translate(393.925 135.378) rotate(-8.433)" fill="#7e5ee3"/>
          <rect id="Rectángulo_46719" data-name="Rectángulo 46719" width="21.134" height="40.11" transform="translate(365.103 139.651) rotate(-8.434)" fill="#7e5ee3"/>
          <path id="Trazado_197940" data-name="Trazado 197940" d="M391.214,208.093l-13.818-93.2a11.128,11.128,0,0,1,9.376-12.641l-.19.028L385.251,93.3l-15.62,2.316,1.331,8.978.19-.028a11.128,11.128,0,0,0-9.376,12.641l13.818,93.2a11.47,11.47,0,0,0,13.028,9.664l15.62-2.316A11.47,11.47,0,0,1,391.214,208.093Z" fill="#fff" opacity="0.5" style="mix-blend-mode: soft-light;isolation: isolate"/>
          <path id="Trazado_197941" data-name="Trazado 197941" d="M417.014,97.769l.189-.028-1.331-8.978-25.292,3.75,1.331,8.978-.19.028a11.13,11.13,0,0,1,12.641,9.377l13.818,93.2a11.471,11.471,0,0,1-9.664,13.029l25.292-3.75a11.471,11.471,0,0,0,9.665-13.029l-13.819-93.2A11.129,11.129,0,0,0,417.014,97.769Z" fill="#c7f1f2" style="mix-blend-mode: multiply;isolation: isolate"/>
          <path id="Trazado_197942" data-name="Trazado 197942" d="M417.014,97.769l.189-.028-1.331-8.978L404.1,90.509l1.331,8.978-.19.028a11.13,11.13,0,0,1,12.641,9.377l13.818,93.2a11.472,11.472,0,0,1-9.664,13.029l11.777-1.747a11.471,11.471,0,0,0,9.665-13.029l-13.819-93.2A11.129,11.129,0,0,0,417.014,97.769Z" fill="#c7f1f2" style="mix-blend-mode: multiply;isolation: isolate"/>
          <rect id="Rectángulo_46720" data-name="Rectángulo 46720" width="54.456" height="5.563" transform="translate(365.668 95.171) rotate(-8.433)" fill="#008ea0"/>
          <path id="Trazado_197943" data-name="Trazado 197943" d="M416.45,75.359l-51.261,7.6a3.9,3.9,0,0,0-3.289,4.434L363.324,97a1.318,1.318,0,0,0,1.5,1.11L421.2,89.749a1.316,1.316,0,0,0,1.11-1.5l-1.424-9.6A3.9,3.9,0,0,0,416.45,75.359Z" fill="#c7f1f2"/>
          <path id="Trazado_197944" data-name="Trazado 197944" d="M416.45,75.359l-17.521,2.6a3.905,3.905,0,0,1,4.434,3.289l1.424,9.606a1.318,1.318,0,0,1-1.11,1.5l17.521-2.6a1.316,1.316,0,0,0,1.11-1.5l-1.424-9.6A3.9,3.9,0,0,0,416.45,75.359Z" fill="#c7f1f2" style="mix-blend-mode: multiply;isolation: isolate"/>
        </g>
        <g id="Grupo_163001" data-name="Grupo 163001">
          <path id="Trazado_197945" data-name="Trazado 197945" d="M220.382,42.879,186.41,122a1.484,1.484,0,0,0,.9,1.887L315.432,178.9a1.483,1.483,0,0,0,1.987-.649l33.972-79.116a1.483,1.483,0,0,0-.9-1.887L222.369,42.231A1.484,1.484,0,0,0,220.382,42.879Z" fill="#8acbd1"/>
          <path id="Trazado_197946" data-name="Trazado 197946" d="M221.793,43.578,349.915,98.592a1.484,1.484,0,0,1,.9,1.885L316.839,179.6a1.481,1.481,0,0,1-1.985.647L186.732,125.231a1.486,1.486,0,0,1-.9-1.887L219.8,44.223A1.49,1.49,0,0,1,221.793,43.578Z" fill="#c7f1f2"/>
          <g id="Grupo_162967" data-name="Grupo 162967" opacity="0.5" style="mix-blend-mode: soft-light;isolation: isolate">
            <path id="Trazado_197947" data-name="Trazado 197947" d="M212.157,62.029l81.523,109.123-49.385-21.205L199.915,90.539Z" fill="#fff"/>
            <path id="Trazado_197948" data-name="Trazado 197948" d="M221.793,43.578l72.441,31.1L337.2,132.191,316.839,179.6a1.481,1.481,0,0,1-1.985.647l-10.94-4.7L214.7,56.118l5.108-11.9A1.49,1.49,0,0,1,221.793,43.578Z" fill="#fff"/>
          </g>
          <path id="Trazado_197949" data-name="Trazado 197949" d="M298.139,76.36l51.776,22.232a1.484,1.484,0,0,1,.9,1.885L316.839,179.6a1.481,1.481,0,0,1-1.985.647l-26.125-11.218a102.9,102.9,0,0,0,9.41-92.667Z" fill="#c7f1f2" style="mix-blend-mode: multiply;isolation: isolate"/>
          <g id="Grupo_163000" data-name="Grupo 163000">
            <g id="Grupo_162983" data-name="Grupo 162983">
              <g id="Grupo_162970" data-name="Grupo 162970">
                <path id="Trazado_197950" data-name="Trazado 197950" d="M208.386,98,200.4,116.6a5.918,5.918,0,1,0,10.876,4.67l7.987-18.6A5.918,5.918,0,0,0,208.386,98Z" fill="#8acbd1"/>
                <g id="Grupo_162969" data-name="Grupo 162969">
                  <g id="Grupo_162968" data-name="Grupo 162968">
                    <path id="Trazado_197951" data-name="Trazado 197951" d="M209.335,98.775l-3.861,8.991,8.713,3.742,3.861-8.991a4.741,4.741,0,0,0-2.486-6.227h0A4.74,4.74,0,0,0,209.335,98.775Z" fill="#7e5ee3"/>
                    <path id="Trazado_197952" data-name="Trazado 197952" d="M201.613,116.758a4.741,4.741,0,0,0,2.486,6.227h0a4.741,4.741,0,0,0,6.227-2.486l3.861-8.991-8.713-3.742Z" fill="#eff"/>
                  </g>
                  <path id="Trazado_197953" data-name="Trazado 197953" d="M215.267,101.323l-3.861,8.991-3.86,8.991a4.741,4.741,0,0,1-4.738,2.852,4.724,4.724,0,0,0,1.291.828h0a4.741,4.741,0,0,0,6.227-2.486l3.861-8.991,3.861-8.991a4.741,4.741,0,0,0-2.486-6.227h0a4.718,4.718,0,0,0-1.49-.367A4.741,4.741,0,0,1,215.267,101.323Z" fill="#ffc7c7" style="mix-blend-mode: multiply;isolation: isolate"/>
                </g>
              </g>
              <g id="Grupo_162973" data-name="Grupo 162973">
                <path id="Trazado_197954" data-name="Trazado 197954" d="M233.491,108.782l-7.986,18.6a5.918,5.918,0,1,0,10.875,4.67l7.987-18.6a5.918,5.918,0,0,0-10.876-4.67Z" fill="#8acbd1"/>
                <g id="Grupo_162972" data-name="Grupo 162972">
                  <g id="Grupo_162971" data-name="Grupo 162971">
                    <path id="Trazado_197955" data-name="Trazado 197955" d="M234.44,109.555l-3.861,8.991,8.713,3.742,3.861-8.991a4.742,4.742,0,0,0-2.486-6.228h0A4.741,4.741,0,0,0,234.44,109.555Z" fill="#7e5ee3"/>
                    <path id="Trazado_197956" data-name="Trazado 197956" d="M226.719,127.537a4.743,4.743,0,0,0,2.486,6.228h0a4.741,4.741,0,0,0,6.227-2.486l3.86-8.991-8.713-3.742Z" fill="#eff"/>
                  </g>
                  <path id="Trazado_197957" data-name="Trazado 197957" d="M240.372,112.1l-3.86,8.992-3.861,8.991a4.741,4.741,0,0,1-4.738,2.852,4.729,4.729,0,0,0,1.292.828h0a4.741,4.741,0,0,0,6.227-2.486l3.86-8.991,3.861-8.991a4.742,4.742,0,0,0-2.486-6.228h0a4.717,4.717,0,0,0-1.489-.366A4.739,4.739,0,0,1,240.372,112.1Z" fill="#ffc7c7" style="mix-blend-mode: multiply;isolation: isolate"/>
                </g>
              </g>
              <g id="Grupo_162976" data-name="Grupo 162976">
                <path id="Trazado_197958" data-name="Trazado 197958" d="M258.6,119.562l-7.987,18.6a5.918,5.918,0,0,0,10.876,4.67l7.986-18.6a5.918,5.918,0,1,0-10.875-4.67Z" fill="#8acbd1"/>
                <g id="Grupo_162975" data-name="Grupo 162975">
                  <g id="Grupo_162974" data-name="Grupo 162974">
                    <path id="Trazado_197959" data-name="Trazado 197959" d="M259.545,120.335l-3.86,8.991,8.713,3.742,3.86-8.992a4.742,4.742,0,0,0-2.486-6.227h0A4.741,4.741,0,0,0,259.545,120.335Z" fill="#7e5ee3"/>
                    <path id="Trazado_197960" data-name="Trazado 197960" d="M251.824,138.317a4.741,4.741,0,0,0,2.486,6.227h0a4.74,4.74,0,0,0,6.227-2.485l3.861-8.991-8.713-3.742Z" fill="#eff"/>
                  </g>
                  <path id="Trazado_197961" data-name="Trazado 197961" d="M265.478,122.883l-3.861,8.991-3.861,8.991a4.74,4.74,0,0,1-4.737,2.852,4.706,4.706,0,0,0,1.291.827h0a4.74,4.74,0,0,0,6.227-2.485l3.861-8.991,3.86-8.992a4.742,4.742,0,0,0-2.486-6.227h0a4.711,4.711,0,0,0-1.489-.366A4.741,4.741,0,0,1,265.478,122.883Z" fill="#ffc7c7" style="mix-blend-mode: multiply;isolation: isolate"/>
                </g>
              </g>
              <g id="Grupo_162979" data-name="Grupo 162979">
                <path id="Trazado_197962" data-name="Trazado 197962" d="M283.7,130.342l-7.987,18.6a5.918,5.918,0,0,0,10.876,4.67l7.987-18.6a5.918,5.918,0,0,0-10.876-4.67Z" fill="#8acbd1"/>
                <g id="Grupo_162978" data-name="Grupo 162978">
                  <g id="Grupo_162977" data-name="Grupo 162977">
                    <path id="Trazado_197963" data-name="Trazado 197963" d="M284.651,131.115l-3.861,8.991,8.713,3.741,3.861-8.991a4.741,4.741,0,0,0-2.486-6.227h0A4.741,4.741,0,0,0,284.651,131.115Z" fill="#7e5ee3"/>
                    <path id="Trazado_197964" data-name="Trazado 197964" d="M276.929,149.1a4.741,4.741,0,0,0,2.486,6.227h0a4.739,4.739,0,0,0,6.227-2.486l3.861-8.991-8.713-3.741Z" fill="#eff"/>
                  </g>
                  <path id="Trazado_197965" data-name="Trazado 197965" d="M290.583,133.662l-3.861,8.991-3.86,8.992a4.741,4.741,0,0,1-4.738,2.852,4.721,4.721,0,0,0,1.291.827h0a4.739,4.739,0,0,0,6.227-2.486l3.861-8.991,3.861-8.991a4.741,4.741,0,0,0-2.486-6.227h0a4.716,4.716,0,0,0-1.49-.366A4.74,4.74,0,0,1,290.583,133.662Z" fill="#ffc7c7" style="mix-blend-mode: multiply;isolation: isolate"/>
                </g>
              </g>
              <g id="Grupo_162982" data-name="Grupo 162982">
                <path id="Trazado_197966" data-name="Trazado 197966" d="M308.807,141.122l-7.986,18.6a5.918,5.918,0,1,0,10.875,4.67l7.987-18.6a5.918,5.918,0,0,0-10.876-4.67Z" fill="#8acbd1"/>
                <g id="Grupo_162981" data-name="Grupo 162981">
                  <g id="Grupo_162980" data-name="Grupo 162980">
                    <path id="Trazado_197967" data-name="Trazado 197967" d="M309.756,141.9l-3.861,8.991,8.713,3.741,3.861-8.991a4.741,4.741,0,0,0-2.486-6.227h0A4.741,4.741,0,0,0,309.756,141.9Z" fill="#7e5ee3"/>
                    <path id="Trazado_197968" data-name="Trazado 197968" d="M302.035,159.877a4.741,4.741,0,0,0,2.486,6.227h0a4.741,4.741,0,0,0,6.227-2.486l3.86-8.991-8.713-3.741Z" fill="#eff"/>
                  </g>
                  <path id="Trazado_197969" data-name="Trazado 197969" d="M315.688,144.442l-3.86,8.991-3.861,8.991a4.74,4.74,0,0,1-4.738,2.853,4.726,4.726,0,0,0,1.292.827h0a4.741,4.741,0,0,0,6.227-2.486l3.86-8.991,3.861-8.991a4.741,4.741,0,0,0-2.486-6.227h0a4.717,4.717,0,0,0-1.489-.366A4.739,4.739,0,0,1,315.688,144.442Z" fill="#ffc7c7" style="mix-blend-mode: multiply;isolation: isolate"/>
                </g>
              </g>
            </g>
            <g id="Grupo_162999" data-name="Grupo 162999">
              <g id="Grupo_162986" data-name="Grupo 162986">
                <path id="Trazado_197970" data-name="Trazado 197970" d="M224.948,59.43l-7.986,18.6a5.918,5.918,0,1,0,10.875,4.67l7.987-18.6a5.918,5.918,0,0,0-10.876-4.67Z" fill="#8acbd1"/>
                <g id="Grupo_162985" data-name="Grupo 162985">
                  <g id="Grupo_162984" data-name="Grupo 162984">
                    <path id="Trazado_197971" data-name="Trazado 197971" d="M225.9,60.2l-3.861,8.991,8.713,3.741,3.861-8.991a4.741,4.741,0,0,0-2.486-6.227h0A4.741,4.741,0,0,0,225.9,60.2Z" fill="#7e5ee3"/>
                    <path id="Trazado_197972" data-name="Trazado 197972" d="M218.176,78.186a4.74,4.74,0,0,0,2.485,6.227h0a4.743,4.743,0,0,0,6.228-2.486l3.86-8.991-8.713-3.741Z" fill="#eff"/>
                  </g>
                  <path id="Trazado_197973" data-name="Trazado 197973" d="M231.829,62.751l-3.86,8.991-3.861,8.991a4.739,4.739,0,0,1-4.738,2.852,4.739,4.739,0,0,0,1.291.828h0a4.743,4.743,0,0,0,6.228-2.486l3.86-8.991,3.861-8.991a4.741,4.741,0,0,0-2.486-6.227h0a4.746,4.746,0,0,0-1.489-.367A4.741,4.741,0,0,1,231.829,62.751Z" fill="#ffc7c7" style="mix-blend-mode: multiply;isolation: isolate"/>
                </g>
              </g>
              <g id="Grupo_162989" data-name="Grupo 162989">
                <path id="Trazado_197974" data-name="Trazado 197974" d="M250.054,70.21l-7.987,18.6a5.918,5.918,0,1,0,10.876,4.67l7.986-18.6a5.918,5.918,0,1,0-10.875-4.67Z" fill="#8acbd1"/>
                <g id="Grupo_162988" data-name="Grupo 162988">
                  <g id="Grupo_162987" data-name="Grupo 162987">
                    <path id="Trazado_197975" data-name="Trazado 197975" d="M251,70.984l-3.86,8.991,8.713,3.741,3.86-8.991a4.741,4.741,0,0,0-2.486-6.227h0A4.741,4.741,0,0,0,251,70.984Z" fill="#7e5ee3"/>
                    <path id="Trazado_197976" data-name="Trazado 197976" d="M243.281,88.966a4.741,4.741,0,0,0,2.486,6.227h0a4.741,4.741,0,0,0,6.227-2.486l3.861-8.991-8.713-3.741Z" fill="#eff"/>
                  </g>
                  <path id="Trazado_197977" data-name="Trazado 197977" d="M256.935,73.531l-3.861,8.991-3.861,8.991a4.74,4.74,0,0,1-4.738,2.852,4.729,4.729,0,0,0,1.292.828h0a4.741,4.741,0,0,0,6.227-2.486l3.861-8.991,3.86-8.991a4.741,4.741,0,0,0-2.486-6.227h0a4.74,4.74,0,0,0-1.489-.367A4.741,4.741,0,0,1,256.935,73.531Z" fill="#ffc7c7" style="mix-blend-mode: multiply;isolation: isolate"/>
                </g>
              </g>
              <g id="Grupo_162992" data-name="Grupo 162992">
                <path id="Trazado_197978" data-name="Trazado 197978" d="M275.159,80.99l-7.987,18.6a5.918,5.918,0,0,0,10.876,4.67l7.987-18.6a5.918,5.918,0,0,0-10.876-4.67Z" fill="#8acbd1"/>
                <g id="Grupo_162991" data-name="Grupo 162991">
                  <g id="Grupo_162990" data-name="Grupo 162990">
                    <path id="Trazado_197979" data-name="Trazado 197979" d="M276.108,81.763l-3.861,8.992L280.96,94.5l3.861-8.991a4.741,4.741,0,0,0-2.486-6.227h0A4.74,4.74,0,0,0,276.108,81.763Z" fill="#7e5ee3"/>
                    <path id="Trazado_197980" data-name="Trazado 197980" d="M268.386,99.746a4.741,4.741,0,0,0,2.486,6.227h0a4.741,4.741,0,0,0,6.227-2.486L280.96,94.5l-8.713-3.741Z" fill="#eff"/>
                  </g>
                  <path id="Trazado_197981" data-name="Trazado 197981" d="M282.04,84.311,278.179,93.3l-3.86,8.991a4.741,4.741,0,0,1-4.738,2.852,4.724,4.724,0,0,0,1.291.828h0a4.741,4.741,0,0,0,6.227-2.486L280.96,94.5l3.861-8.991a4.741,4.741,0,0,0-2.486-6.227h0a4.718,4.718,0,0,0-1.49-.367A4.741,4.741,0,0,1,282.04,84.311Z" fill="#ffc7c7" style="mix-blend-mode: multiply;isolation: isolate"/>
                </g>
              </g>
              <g id="Grupo_162995" data-name="Grupo 162995">
                <path id="Trazado_197982" data-name="Trazado 197982" d="M300.264,91.77l-7.986,18.6a5.918,5.918,0,1,0,10.875,4.67l7.987-18.6a5.918,5.918,0,0,0-10.876-4.67Z" fill="#8acbd1"/>
                <g id="Grupo_162994" data-name="Grupo 162994">
                  <g id="Grupo_162993" data-name="Grupo 162993">
                    <path id="Trazado_197983" data-name="Trazado 197983" d="M301.213,92.543l-3.861,8.991,8.713,3.742,3.861-8.991a4.743,4.743,0,0,0-2.486-6.228h0A4.741,4.741,0,0,0,301.213,92.543Z" fill="#7e5ee3"/>
                    <path id="Trazado_197984" data-name="Trazado 197984" d="M293.492,110.525a4.741,4.741,0,0,0,2.486,6.228h0a4.741,4.741,0,0,0,6.227-2.486l3.86-8.991-8.713-3.742Z" fill="#eff"/>
                  </g>
                  <path id="Trazado_197985" data-name="Trazado 197985" d="M307.145,95.091l-3.86,8.991-3.861,8.991a4.741,4.741,0,0,1-4.738,2.852,4.729,4.729,0,0,0,1.292.828h0a4.741,4.741,0,0,0,6.227-2.486l3.86-8.991,3.861-8.991a4.743,4.743,0,0,0-2.486-6.228h0a4.717,4.717,0,0,0-1.489-.366A4.741,4.741,0,0,1,307.145,95.091Z" fill="#ffc7c7" style="mix-blend-mode: multiply;isolation: isolate"/>
                </g>
              </g>
              <g id="Grupo_162998" data-name="Grupo 162998">
                <path id="Trazado_197986" data-name="Trazado 197986" d="M325.37,102.55l-7.987,18.6a5.918,5.918,0,1,0,10.876,4.67l7.986-18.6a5.918,5.918,0,1,0-10.875-4.67Z" fill="#8acbd1"/>
                <g id="Grupo_162997" data-name="Grupo 162997">
                  <g id="Grupo_162996" data-name="Grupo 162996">
                    <path id="Trazado_197987" data-name="Trazado 197987" d="M326.318,103.323l-3.86,8.991,8.713,3.742,3.86-8.991a4.743,4.743,0,0,0-2.486-6.228h0A4.741,4.741,0,0,0,326.318,103.323Z" fill="#ef8181"/>
                    <path id="Trazado_197988" data-name="Trazado 197988" d="M318.6,121.305a4.743,4.743,0,0,0,2.486,6.228h0a4.741,4.741,0,0,0,6.227-2.486l3.861-8.991-8.713-3.742Z" fill="#eff"/>
                  </g>
                  <path id="Trazado_197989" data-name="Trazado 197989" d="M332.251,105.871l-3.861,8.991-3.861,8.991a4.741,4.741,0,0,1-4.738,2.852,4.73,4.73,0,0,0,1.292.828h0a4.741,4.741,0,0,0,6.227-2.486l3.861-8.991,3.86-8.991a4.743,4.743,0,0,0-2.486-6.228h0a4.711,4.711,0,0,0-1.489-.366A4.741,4.741,0,0,1,332.251,105.871Z" fill="#ffc7c7" style="mix-blend-mode: multiply;isolation: isolate"/>
                </g>
              </g>
            </g>
          </g>
        </g>
        <g id="Grupo_163002" data-name="Grupo 163002">
          <path id="Trazado_197990" data-name="Trazado 197990" d="M369.816,110.6l.134.052,2.459-6.34L339.753,91.644l-2.459,6.341.133.052a8.338,8.338,0,0,0-10.79,4.758L301.1,168.613a8.6,8.6,0,0,0,4.9,11.122l31.911,12.379a8.6,8.6,0,0,0,11.122-4.9l25.533-65.818A8.34,8.34,0,0,0,369.816,110.6Z" fill="#7e5ee3"/>
          <rect id="Rectángulo_46721" data-name="Rectángulo 46721" width="51.418" height="36.394" transform="translate(321.635 115.688) rotate(21.203)" fill="#008ea0"/>
          <path id="Trazado_197991" data-name="Trazado 197991" d="M312.135,172.892l25.533-65.818a8.34,8.34,0,0,1,10.791-4.758l-.134-.052,2.459-6.34-11.031-4.28-2.459,6.341.133.052a8.338,8.338,0,0,0-10.79,4.758L301.1,168.613a8.6,8.6,0,0,0,4.9,11.122l11.031,4.279A8.6,8.6,0,0,1,312.135,172.892Z" fill="#fff" opacity="0.5" style="mix-blend-mode: soft-light;isolation: isolate"/>
          <path id="Trazado_197992" data-name="Trazado 197992" d="M369.816,110.6l.134.052,2.459-6.34-17.862-6.93-2.459,6.341-.134-.052a8.339,8.339,0,0,1,4.758,10.79l-25.533,65.819a8.6,8.6,0,0,1-11.122,4.9l17.862,6.929a8.6,8.6,0,0,0,11.122-4.9l25.533-65.818A8.34,8.34,0,0,0,369.816,110.6Z" fill="#7e5ee3" style="mix-blend-mode: multiply;isolation: isolate"/>
          <path id="Trazado_197993" data-name="Trazado 197993" d="M369.816,110.6l.134.052,2.459-6.34-8.317-3.227-2.46,6.34-.134-.052a8.34,8.34,0,0,1,4.759,10.791l-25.534,65.818a8.594,8.594,0,0,1-11.121,4.9l8.317,3.226a8.6,8.6,0,0,0,11.122-4.9l25.533-65.818A8.34,8.34,0,0,0,369.816,110.6Z" fill="#ffc7c7" style="mix-blend-mode: multiply;isolation: isolate"/>
          <rect id="Rectángulo_46722" data-name="Rectángulo 46722" width="40.804" height="4.168" transform="matrix(0.932, 0.362, -0.362, 0.932, 337.338, 89.884)" fill="#00767f"/>
          <path id="Trazado_197994" data-name="Trazado 197994" d="M377.752,95.8l-36.2-14.044a2.925,2.925,0,0,0-3.785,1.669l-2.631,6.784a.986.986,0,0,0,.563,1.277l39.814,15.445a.987.987,0,0,0,1.278-.563l2.631-6.783A2.924,2.924,0,0,0,377.752,95.8Z" fill="#008ea0"/>
          <path id="Trazado_197995" data-name="Trazado 197995" d="M377.752,95.8,365.378,91a2.925,2.925,0,0,1,1.669,3.785l-2.631,6.784a.987.987,0,0,1-1.277.563l12.373,4.8a.987.987,0,0,0,1.278-.563l2.631-6.783A2.924,2.924,0,0,0,377.752,95.8Z" fill="#c7f1f2" style="mix-blend-mode: multiply;isolation: isolate"/>
        </g>
        <g id="Grupo_163005" data-name="Grupo 163005">
          <g id="Grupo_163003" data-name="Grupo 163003">
            <path id="Trazado_197996" data-name="Trazado 197996" d="M429.426,385.783,267.773,346.341l.078-33.262.349-145.426s115.02,32.07,192.97,24.369L452.9,242.49Z" fill="#ffc569"/>
            <path id="Trazado_197997" data-name="Trazado 197997" d="M354.879,226.875c-25.973-3.686-47.528,14.894-48.8,40.586-1.233,24.834,17,48.149,41.3,52.937,25.01,4.927,48.121-11.311,51.045-37.214C401.45,256.337,381.66,230.675,354.879,226.875Zm24.782,63.681-19.3-3.4-1.643,18.819-19.958-3.74,1.367-18.647-18.44-3.251,1.235-20.362,18.711,3.072,1.443-19.673,20.828,3.177-1.734,19.867,19.6,3.216Z" fill="#fff"/>
            <path id="Trazado_197998" data-name="Trazado 197998" d="M429.867,385.88,268.214,346.438l.077-33.262c79.4,13.649,163.771-38.957,185.051-70.59Z" fill="#f5e2c4" style="mix-blend-mode: multiply;isolation: isolate"/>
          </g>
          <g id="Grupo_163004" data-name="Grupo 163004">
            <path id="Trazado_197999" data-name="Trazado 197999" d="M429.426,385.78l29.05-21.516,42.859-203.171-48.142,14.7,7.981,16.228Z" fill="#ffb42e"/>
            <path id="Trazado_198000" data-name="Trazado 198000" d="M458.477,364.264,435.043,351.5l-5.617,34.281Z" fill="#ff8931"/>
            <path id="Trazado_198001" data-name="Trazado 198001" d="M452.9,242.49c23.252-4.294,36.617-25.381,36.617-25.381L458.476,364.265l-29.05,21.518Z" fill="#f5e2c4" style="mix-blend-mode: multiply;isolation: isolate"/>
          </g>
        </g>
      </g>
      <g id="Grupo_163009" data-name="Grupo 163009">
        <path id="Trazado_198002" data-name="Trazado 198002" d="M491.719,232.966a51.4,51.4,0,0,1-5.586,3.118,58.352,58.352,0,0,1-6.677,2.7c-22.238,7.518-47.516,5.674-70.5,3.819-10.156-.817-20.283-1.893-30.4-3.033l-.009,0a.882.882,0,0,1-.089-.01c-17.07-1.922-34.13-4.015-51.253-5.317-11.652-.889-23.426-1.474-35.1-.617-8.271.614-17.327,1.8-24.493,6.309a18.929,18.929,0,0,0-8.844,14.461c-.3,4.617,1.755,8,5.48,10.438a25.6,25.6,0,0,0,3.711,2.006l-.011,6.732a34.345,34.345,0,0,1-3.272-1.332c-5.645-2.585-10.3-6.585-11.744-12.875-3.428-14.945,9.685-25.977,22.633-29.45,21.436-5.742,45.314-2.693,67.04-.529,27.4,2.732,54.72,6.764,82.256,8,18.646.838,41.122,1.756,58.554-6.908a46.932,46.932,0,0,0,4.928-2.794C491.728,225.491,495.106,230.768,491.719,232.966Z" fill="#074849"/>
        <path id="Trazado_198003" data-name="Trazado 198003" d="M491.719,232.966a51.4,51.4,0,0,1-5.586,3.118,15.284,15.284,0,0,1-2.72-5.6,46.932,46.932,0,0,0,4.928-2.794C491.728,225.491,495.106,230.768,491.719,232.966Z" fill="#a0d6d6" style="mix-blend-mode: multiply;isolation: isolate"/>
        <path id="Trazado_198004" data-name="Trazado 198004" d="M378.451,239.562c-17.07-1.922-34.13-4.015-51.253-5.317-11.652-.889-23.426-1.474-35.1-.617-8.271.614-17.327,1.8-24.493,6.309a18.929,18.929,0,0,0-8.844,14.461c-.3,4.617,1.755,8,5.48,10.438a25.6,25.6,0,0,0,3.711,2.006l-.011,6.732a34.345,34.345,0,0,1-3.272-1.332,19.174,19.174,0,0,0-.651-3.423c-8.6-3.811-15.992-22.081,3.313-32.726C289.413,223.922,374.794,239.025,378.451,239.562Z" fill="#a0d6d6" style="mix-blend-mode: multiply;isolation: isolate"/>
        <path id="Trazado_198005" data-name="Trazado 198005" d="M474.594,308.017c-15.432,7.985-33.576,12-50.8,13.8-4.031.417-4.326-5.842-.34-6.26.76-.08,1.524-.178,2.287-.277.915-.119,1.822-.241,2.732-.381a175.147,175.147,0,0,0,28.794-6.538c9.657-3.131,21.321-7.472,27.4-16.152a15.4,15.4,0,0,0,2.409-12.858c-.641-2.55-1.084-3.454-3.1-5.041a18.412,18.412,0,0,0-5.93-2.832l1.3-6.137a30.389,30.389,0,0,1,4.362,1.625,22.548,22.548,0,0,1,2.968,1.632c5.892,3.84,7.92,10.928,6.964,17.746C492.212,296.581,483.192,303.572,474.594,308.017Z" fill="#074849"/>
        <path id="Trazado_198006" data-name="Trazado 198006" d="M483.657,298.488c-10.418,11.568-55.641,20.072-55.641,20.072l-2.278-3.276c.915-.119,1.822-.241,2.732-.381a175.147,175.147,0,0,0,28.794-6.538c9.657-3.131,21.321-7.472,27.4-16.152a15.4,15.4,0,0,0,2.409-12.858c-.641-2.55-1.084-3.454-3.1-5.041a18.412,18.412,0,0,0-5.93-2.832l1.3-6.137a30.389,30.389,0,0,1,4.362,1.625,8.986,8.986,0,0,0-.593,2.7C491.329,275.212,494.792,286.115,483.657,298.488Z" fill="#a0d6d6" style="mix-blend-mode: multiply;isolation: isolate"/>
        <g id="Grupo_163007" data-name="Grupo 163007">
          <path id="Trazado_198007" data-name="Trazado 198007" d="M569.514,150.837l12.848,17.437a7.416,7.416,0,0,1,1.727,5.525c-.36,2.538-2.163,4.175-3.827,5.944q-4.479,4.763-9.1,9.382a323.515,323.515,0,0,1-25.127,22.85c-8.665,7.007-17.941,13.845-28.176,18.366A41.493,41.493,0,0,1,505.188,234a18.879,18.879,0,0,1-5.435-.172q-.686-.126-1.36-.3c-.21-.056-.418-.115-.625-.179-.14-.043-.642-.212-.542-.176.149.054-.369-.146-.453-.181-.2-.083-.4-.17-.592-.26q-.627-.291-1.224-.636a14.422,14.422,0,0,1-6.282-7.748,18.376,18.376,0,0,1-1.034-5.388,32.328,32.328,0,0,1,.207-6.14c1.319-10.549,5.824-20.633,10.612-30.016a281.276,281.276,0,0,1,18.183-30.194c2.747-4.039,5.514-7.944,8.407-11.882q1.766-2.4,3.567-4.783c1.516-2.005,2.885-4.038,5.461-4.728,3.4-.909,6.935,1.644,9.837,3.1l12.3,6.189,2.471,1.243c2.059,1.036,3.73-2.131,1.67-3.168-6.546-3.293-13.083-6.6-19.638-9.879a10.783,10.783,0,0,0-7.891-.853c-2.953.846-4.782,2.945-6.556,5.284q-4.026,5.3-7.88,10.736a334.17,334.17,0,0,0-19.055,29.721c-5.708,10.167-11.039,20.924-13.828,32.3-2.051,8.37-2.836,18.452,3.113,25.482,5.8,6.847,15,7.242,23.088,5,10.586-2.929,20.222-9.286,28.964-15.747a282.236,282.236,0,0,0,27.784-23.853q5.471-5.268,10.743-10.737,2.136-2.214,4.24-4.459c2.045-2.183,3.875-4.376,4.2-7.489a10.687,10.687,0,0,0-2.11-7.545q-1.418-1.933-2.845-3.861l-8.424-11.434-1.733-2.351c-1.362-1.848-4.385.07-3.015,1.93Z" fill="#008ea0"/>
          <path id="Trazado_198008" data-name="Trazado 198008" d="M558.648,145.452c-3.462-1.781-7.275-6.382-5.951-8.958s7.285-2.149,10.748-.368,3.117,4.243,1.792,6.818S562.111,147.233,558.648,145.452Z" fill="#074849"/>
          <path id="Trazado_198009" data-name="Trazado 198009" d="M565.96,151.622c2.338,3.114,7.514,6.1,9.83,4.36s.9-7.542-1.443-10.656-4.707-2.359-7.023-.62S563.622,148.508,565.96,151.622Z" fill="#074849"/>
          <path id="Trazado_198010" data-name="Trazado 198010" d="M553.47,203.937c-10.454,9.161-21.649,18.229-34.244,24.3-8.19,3.949-20.877,8.147-27.451-.785-5.58-7.582-2.222-19.192.522-27.191,4.132-12.05,10.527-23.34,17.172-34.156,2.115-3.442-3.443-6.34-5.544-2.921-6.137,9.989-11.909,20.318-16.127,31.281-3.24,8.422-6.2,17.913-4.824,27.043,1.165,7.745,6.025,14.3,13.678,16.621,8.927,2.711,18.622-.961,26.566-4.922,12.816-6.389,24.143-15.633,34.859-25.023,3.034-2.66-1.6-6.88-4.607-4.248Z" fill="#074849"/>
        </g>
        <g id="Grupo_163008" data-name="Grupo 163008">
          <circle id="Elipse_5118" data-name="Elipse 5118" cx="19.347" cy="19.347" r="19.347" transform="translate(382.514 311.224) rotate(-31.658)" fill="#074849"/>
          <circle id="Elipse_5119" data-name="Elipse 5119" cx="14.662" cy="14.662" r="14.662" transform="translate(389.831 309.97) rotate(-23.593)" fill="#008ea0"/>
          <path id="Trazado_198011" data-name="Trazado 198011" d="M420,319.922a11.12,11.12,0,1,1-8.479-13.246A11.12,11.12,0,0,1,420,319.922Z" fill="#074849"/>
          <path id="Trazado_198012" data-name="Trazado 198012" d="M408,314.712c-3.449,4.23-8.644,5.7-11.6,3.291s-2.561-7.8.888-12.028,8.644-5.7,11.6-3.291S411.45,310.481,408,314.712Z" fill="#fff" opacity="0.5" style="mix-blend-mode: soft-light;isolation: isolate"/>
          <path id="Trazado_198013" data-name="Trazado 198013" d="M426.05,308.186a19.331,19.331,0,0,1-36.2,10.855,19.341,19.341,0,1,0,36.2-10.855Z" fill="#a0d6d6" style="mix-blend-mode: multiply;isolation: isolate"/>
        </g>
      </g>
      <g id="Grupo_163011" data-name="Grupo 163011">
        <path id="Trazado_198014" data-name="Trazado 198014" d="M463.273,296.161l.171.089,4.242-8.093L426,266.309l-4.242,8.094.171.089a11.206,11.206,0,0,0-15.126,4.723l-44.033,84.02a11.547,11.547,0,0,0,4.868,15.589l40.735,21.349a11.548,11.548,0,0,0,15.59-4.868L468,311.286A11.2,11.2,0,0,0,463.273,296.161Z" fill="#8acbd1"/>
        <rect id="Rectángulo_46723" data-name="Rectángulo 46723" width="61.901" height="40.383" transform="matrix(0.886, 0.464, -0.464, 0.886, 400.254, 301.57)" fill="#7e5ee3"/>
        <g id="Grupo_163010" data-name="Grupo 163010">
          <path id="Trazado_198015" data-name="Trazado 198015" d="M439.872,325.829,403.06,306.535a1.032,1.032,0,1,0-.958,1.828l36.813,19.293a1.031,1.031,0,0,0,.957-1.827Z" fill="#fff"/>
          <path id="Trazado_198016" data-name="Trazado 198016" d="M417.446,332.213,395.6,320.764a1.032,1.032,0,0,0-.958,1.828l21.844,11.448a1.031,1.031,0,1,0,.958-1.827Z" fill="#fff"/>
          <path id="Trazado_198017" data-name="Trazado 198017" d="M438.975,348.654l-45.494-23.843a1.032,1.032,0,0,0-.958,1.828l45.494,23.843a1.032,1.032,0,1,0,.958-1.828Z" fill="#fff"/>
          <path id="Trazado_198018" data-name="Trazado 198018" d="M436.854,352.7,391.36,328.858a1.032,1.032,0,0,0-.957,1.828L435.9,354.529a1.032,1.032,0,0,0,.958-1.828Z" fill="#fff"/>
          <path id="Trazado_198019" data-name="Trazado 198019" d="M434.733,356.748,389.24,332.9a1.031,1.031,0,1,0-.958,1.827l45.494,23.843a1.031,1.031,0,0,0,.957-1.827Z" fill="#fff"/>
        </g>
        <path id="Trazado_198020" data-name="Trazado 198020" d="M376.851,370.615l44.034-84.02a11.2,11.2,0,0,1,15.125-4.723l-.17-.089,4.241-8.094L426,266.309l-4.242,8.094.171.089a11.206,11.206,0,0,0-15.126,4.723l-44.033,84.02a11.547,11.547,0,0,0,4.868,15.589l14.081,7.38A11.548,11.548,0,0,1,376.851,370.615Z" fill="#fff" opacity="0.5" style="mix-blend-mode: soft-light;isolation: isolate"/>
        <path id="Trazado_198021" data-name="Trazado 198021" d="M463.273,296.161l.171.089,4.242-8.093-22.8-11.95-4.242,8.093-.171-.089a11.2,11.2,0,0,1,4.723,15.125l-44.034,84.019a11.548,11.548,0,0,1-15.589,4.869l22.8,11.949a11.548,11.548,0,0,0,15.59-4.868L468,311.286A11.2,11.2,0,0,0,463.273,296.161Z" fill="#c7f1f2" style="mix-blend-mode: multiply;isolation: isolate"/>
        <path id="Trazado_198022" data-name="Trazado 198022" d="M463.273,296.161l.171.089,4.242-8.093-10.617-5.565-4.242,8.094-.171-.09a11.2,11.2,0,0,1,4.723,15.126l-44.034,84.019a11.548,11.548,0,0,1-15.589,4.868l10.617,5.564a11.548,11.548,0,0,0,15.59-4.868L468,311.286A11.2,11.2,0,0,0,463.273,296.161Z" fill="#c7f1f2" style="mix-blend-mode: multiply;isolation: isolate"/>
        <rect id="Rectángulo_46724" data-name="Rectángulo 46724" width="54.827" height="5.601" transform="matrix(0.886, 0.464, -0.464, 0.886, 423.041, 263.594)" fill="#008ea0"/>
        <path id="Trazado_198023" data-name="Trazado 198023" d="M476.106,277.594l-46.211-24.22a3.932,3.932,0,0,0-5.306,1.657l-4.538,8.66a1.326,1.326,0,0,0,.559,1.79l50.824,26.637a1.327,1.327,0,0,0,1.791-.559l4.538-8.66A3.929,3.929,0,0,0,476.106,277.594Z" fill="#c7f1f2"/>
        <path id="Trazado_198024" data-name="Trazado 198024" d="M476.106,277.594l-15.795-8.279a3.931,3.931,0,0,1,1.656,5.306l-4.538,8.659a1.325,1.325,0,0,1-1.79.559l15.795,8.279a1.327,1.327,0,0,0,1.791-.559l4.538-8.66A3.929,3.929,0,0,0,476.106,277.594Z" fill="#c7f1f2" style="mix-blend-mode: multiply;isolation: isolate"/>
      </g>
      <g id="Grupo_163012" data-name="Grupo 163012">
        <path id="Trazado_198025" data-name="Trazado 198025" d="M290.487,296.385l.127-.056-2.643-6.018-31,13.611,2.642,6.018.128-.056a8.06,8.06,0,0,0-4.14,10.62l27.432,62.476a8.308,8.308,0,0,0,10.946,4.266l30.29-13.3A8.308,8.308,0,0,0,328.539,363l-27.432-62.476A8.061,8.061,0,0,0,290.487,296.385Z" fill="#7e5ee3"/>
        <rect id="Rectángulo_46725" data-name="Rectángulo 46725" width="49.696" height="35.175" transform="matrix(0.916, -0.402, 0.402, 0.916, 260.978, 332.742)" fill="#008ea0"/>
        <path id="Trazado_198026" data-name="Trazado 198026" d="M293.507,378.382l-27.432-62.476a8.06,8.06,0,0,1,4.139-10.619l-.127.055-2.642-6.018-10.471,4.6,2.642,6.018.128-.056a8.06,8.06,0,0,0-4.14,10.62l27.432,62.476a8.308,8.308,0,0,0,10.946,4.266l10.471-4.6A8.306,8.306,0,0,1,293.507,378.382Z" fill="#fff" opacity="0.5" style="mix-blend-mode: soft-light;isolation: isolate"/>
        <path id="Trazado_198027" data-name="Trazado 198027" d="M290.487,296.385l.127-.056-2.643-6.018-16.954,7.445,2.642,6.018-.127.056a8.059,8.059,0,0,1,10.62,4.139l27.432,62.475a8.307,8.307,0,0,1-4.266,10.946l16.954-7.444A8.308,8.308,0,0,0,328.539,363l-27.432-62.476A8.061,8.061,0,0,0,290.487,296.385Z" fill="#ffc7c7" style="mix-blend-mode: multiply;isolation: isolate"/>
        <path id="Trazado_198028" data-name="Trazado 198028" d="M290.487,296.385l.127-.056-2.643-6.018-7.9,3.467,2.643,6.018-.127.056a8.059,8.059,0,0,1,10.62,4.139l27.432,62.476a8.307,8.307,0,0,1-4.266,10.945l7.894-3.466A8.308,8.308,0,0,0,328.539,363l-27.432-62.476A8.061,8.061,0,0,0,290.487,296.385Z" fill="#ffc7c7" style="mix-blend-mode: multiply;isolation: isolate"/>
        <rect id="Rectángulo_46726" data-name="Rectángulo 46726" width="39.437" height="4.029" transform="translate(254.119 304.365) rotate(-23.706)" fill="#00767f"/>
        <path id="Trazado_198029" data-name="Trazado 198029" d="M285.818,280.836l-34.363,15.088A2.827,2.827,0,0,0,250,299.649l2.827,6.439a.953.953,0,0,0,1.257.49l37.792-16.594a.954.954,0,0,0,.49-1.257l-2.827-6.439A2.826,2.826,0,0,0,285.818,280.836Z" fill="#008ea0"/>
        <path id="Trazado_198030" data-name="Trazado 198030" d="M285.818,280.836l-11.745,5.157a2.828,2.828,0,0,1,3.725,1.452l2.827,6.439a.954.954,0,0,1-.49,1.257l11.745-5.157a.954.954,0,0,0,.49-1.257l-2.827-6.439A2.826,2.826,0,0,0,285.818,280.836Z" fill="#c7f1f2" style="mix-blend-mode: multiply;isolation: isolate"/>
      </g>
      <g id="Grupo_163013" data-name="Grupo 163013">
        <path id="Trazado_198031" data-name="Trazado 198031" d="M526.527,288.592l-.872-.373.909-2.121c3.331.452,6.428-1.133,9.515-8.342,4.365-10.194,8.516-31.18,3.477-33.338s-17.362,15.33-21.727,25.524c-3.086,7.209-2.095,10.544.531,12.643l-.908,2.121-.872-.373A6.972,6.972,0,0,0,507.426,288l-19.571,45.711a7.333,7.333,0,0,0,3.855,9.629l9.281,3.974a7.334,7.334,0,0,0,9.629-3.856l19.572-45.71A6.972,6.972,0,0,0,526.527,288.592Z" fill="#8acbd1"/>
        <rect id="Rectángulo_46727" data-name="Rectángulo 46727" width="24.765" height="26.94" transform="translate(503.98 296.048) rotate(23.179)" fill="#7e5ee3"/>
        <path id="Trazado_198032" data-name="Trazado 198032" d="M526.527,288.592l-.872-.373.909-2.121c3.331.452,6.428-1.133,9.515-8.342,4.365-10.194,8.516-31.18,3.477-33.338-1.08-.462-2.494-.021-4.093,1.055,1.19,6.967-2.107,21.638-5.537,29.649-3.087,7.209-6.184,8.793-9.515,8.341l-.908,2.121.871.374a6.971,6.971,0,0,1,3.665,9.153l-19.572,45.711a7.333,7.333,0,0,1-9.629,3.855l6.153,2.635a7.334,7.334,0,0,0,9.629-3.856l19.572-45.71A6.972,6.972,0,0,0,526.527,288.592Z" fill="#c7f1f2" style="mix-blend-mode: multiply;isolation: isolate"/>
        <path id="Trazado_198033" data-name="Trazado 198033" d="M515.715,304.349c-3.225,7.533-8.273,12.6-11.275,11.312s-2.82-8.433.4-15.966,8.273-12.6,11.275-11.312S518.94,296.817,515.715,304.349Z" fill="#fff" opacity="0.5" style="mix-blend-mode: soft-light;isolation: isolate"/>
      </g>
      <g id="Grupo_163017" data-name="Grupo 163017">
        <g id="Grupo_163014" data-name="Grupo 163014">
          <path id="Trazado_198034" data-name="Trazado 198034" d="M655.485,318.675,641.43,305.424l.938-.995,13.1,12.352Z" fill="#c7f1f2"/>
          <rect id="Rectángulo_46728" data-name="Rectángulo 46728" width="10.182" height="10.945" transform="matrix(0.686, -0.728, 0.728, 0.686, 630.443, 301.123)" fill="#008ea0"/>
          <rect id="Rectángulo_46729" data-name="Rectángulo 46729" width="10.182" height="4.406" transform="matrix(0.686, -0.728, 0.728, 0.686, 630.638, 301.307)" fill="#c7f1f2" style="mix-blend-mode: multiply;isolation: isolate"/>
          <rect id="Rectángulo_46730" data-name="Rectángulo 46730" width="4.407" height="13.599" transform="matrix(0.728, 0.686, -0.686, 0.728, 638.103, 292.004)" fill="#008ea0"/>
        </g>
        <path id="Trazado_198035" data-name="Trazado 198035" d="M635.541,298.936l-10.02,7.466-63.735-60.088L578.672,228.4l63.735,60.088Z" fill="#c7f1f2"/>
        <g id="Grupo_163015" data-name="Grupo 163015">
          <rect id="Rectángulo_46731" data-name="Rectángulo 46731" width="42.965" height="15.954" transform="translate(575.807 231.653) rotate(43.313)" fill="#8acbd1"/>
          <path id="Trazado_198036" data-name="Trazado 198036" d="M598.034,278.3l-4.995-4.709,14.7-15.59,4.995,4.709-5.968,9.1Z" fill="#00767f"/>
        </g>
        <path id="Trazado_198037" data-name="Trazado 198037" d="M635.541,298.936l-10.02,7.466-63.735-60.088,16.682-17.694,1.251.768-8.585,13.205,59.289,55.9,4.186-1.949,7.8-8.051Z" fill="#c7f1f2" style="mix-blend-mode: multiply;isolation: isolate"/>
        <g id="Grupo_163016" data-name="Grupo 163016" opacity="0.5" style="mix-blend-mode: soft-light;isolation: isolate">
          <path id="Trazado_198038" data-name="Trazado 198038" d="M631.131,277.859l-28.6,6.864-11-10.368,28.6-6.864Z" fill="#fff"/>
          <path id="Trazado_198039" data-name="Trazado 198039" d="M617.659,265.158l-28.605,6.864-7.925-7.471,28.6-6.867Z" fill="#fff"/>
          <path id="Trazado_198040" data-name="Trazado 198040" d="M638.267,284.587l-28.6,6.867-4.758-4.486,28.6-6.867Z" fill="#fff"/>
        </g>
        <rect id="Rectángulo_46732" data-name="Rectángulo 46732" width="5.774" height="29.475" transform="translate(577.182 223.66) rotate(43.312)" fill="#008ea0"/>
        <rect id="Rectángulo_46733" data-name="Rectángulo 46733" width="5.774" height="29.475" transform="translate(560.71 208.131) rotate(43.312)" fill="#008ea0"/>
        <rect id="Rectángulo_46734" data-name="Rectángulo 46734" width="16.863" height="16.863" transform="translate(560.586 216.681) rotate(43.313)" fill="#00767f"/>
        <rect id="Rectángulo_46735" data-name="Rectángulo 46735" width="16.863" height="8.432" transform="translate(554.802 222.816) rotate(43.313)" fill="#c7f1f2" style="mix-blend-mode: multiply;isolation: isolate"/>
      </g>
      <g id="Grupo_163035" data-name="Grupo 163035">
        <g id="Grupo_163031" data-name="Grupo 163031">
          <path id="Trazado_198053" data-name="Trazado 198053" d="M621.153,209.874c-5.2,3.4-13.461-.039-18.464-7.682s-4.846-16.594.348-19.994,13.461.039,18.463,7.681S626.347,206.474,621.153,209.874Z" fill="#4e32a8"/>
          <rect id="Rectángulo_46748" data-name="Rectángulo 46748" width="33.077" height="4.371" transform="translate(606.695 179.804) rotate(56.793)" fill="#d85b5b"/>
          <path id="Trazado_198054" data-name="Trazado 198054" d="M624.808,207.481c-4.718,3.088-11.985.523-17.031-5.711-.5-.624-.977-1.282-1.427-1.971s-.867-1.4-1.241-2.1c-3.694-7.118-3.132-14.8,1.586-17.885s11.99-.537,17.035,5.7c.5.625.977,1.282,1.433,1.98s.861,1.392,1.235,2.1C630.092,196.7,629.527,204.392,624.808,207.481Z" fill="#7e5ee3"/>
          <path id="Trazado_198055" data-name="Trazado 198055" d="M626.4,189.582l-18.945,12.4-2.668-4.076,18.945-12.4c.5.625.977,1.282,1.433,1.98S626.024,188.877,626.4,189.582Z" fill="#4e32a8"/>
        </g>
        <g id="Grupo_163032" data-name="Grupo 163032" transform="translate(77.828 -69.599)">
          <path id="Trazado_198056" data-name="Trazado 198056" d="M181.553,242.673c5.692,1.495,8.524,9.5,6.325,17.872S179.28,274.5,173.588,273s-8.525-9.5-6.325-17.872S175.86,241.178,181.553,242.673Z" fill="#3c2192"/>
          <rect id="Rectángulo_46749" data-name="Rectángulo 46749" width="31.359" height="4.144" transform="matrix(0.254, -0.967, 0.967, 0.254, 169.579, 271.951)" fill="#d85b5b"/>
          <path id="Trazado_198057" data-name="Trazado 198057" d="M177.546,241.621c5.172,1.358,7.984,8.1,6.8,15.612-.124.746-.281,1.5-.479,2.257s-.435,1.5-.694,2.211c-2.661,7.122-8.421,11.605-13.593,10.247s-7.995-8.1-6.814-15.606c.124-.746.282-1.5.483-2.266s.432-1.491.691-2.2C166.6,244.752,172.375,240.263,177.546,241.621Z" fill="#7e5ee3"/>
          <path id="Trazado_198058" data-name="Trazado 198058" d="M163.942,251.874l20.762,5.453-1.173,4.467-20.763-5.452c.124-.746.282-1.5.483-2.266S163.683,252.585,163.942,251.874Z" fill="#3c2192"/>
        </g>
        <g id="Grupo_163033" data-name="Grupo 163033" transform="translate(26 67)">
          <ellipse id="Elipse_5120" data-name="Elipse 5120" cx="5.543" cy="10.608" rx="5.543" ry="10.608" transform="translate(147.473 189.165) rotate(-69.374)" fill="#361d84"/>
          <rect id="Rectángulo_46750" data-name="Rectángulo 46750" width="21.215" height="2.156" transform="translate(150.185 181.96) rotate(20.626)" fill="#d85b5b"/>
          <path id="Trazado_198059" data-name="Trazado 198059" d="M170.039,189.434c-.979,2.6-5.469,3.376-10.4,1.946-.489-.145-.984-.31-1.479-.5s-.981-.391-1.445-.6c-4.649-2.175-7.509-5.714-6.529-8.317s5.465-3.383,10.4-1.953q.733.218,1.485.5c.494.186.975.389,1.439.6C168.156,183.285,171.019,186.831,170.039,189.434Z" fill="#7e5ee3"/>
          <path id="Trazado_198060" data-name="Trazado 198060" d="M163.506,181.11l-3.933,10.449-2.924-1.1,3.933-10.449q.733.218,1.485.5C162.561,180.693,163.042,180.9,163.506,181.11Z" fill="#361d84"/>
        </g>
      </g>
    </g>
  </g>
</svg>
