<svg xmlns="http://www.w3.org/2000/svg" width="287.713" height="230.221" viewBox="0 0 287.713 230.221">
  <g id="Grupo_163182" data-name="Grupo 163182" transform="translate(121.687 -1106.35)">
    <g id="Grupo_163182-2" data-name="Grupo 163182" transform="translate(18.508 1130.877)">
      <rect id="Rectángulo_46858" data-name="Rectángulo 46858" width="128.879" height="105.159" transform="translate(0 118.397) rotate(-66.732)" fill="#fff"/>
      <rect id="Rectángulo_46859" data-name="Rectángulo 46859" width="1.754" height="72.02" rx="0.877" transform="translate(56.748 28.372) rotate(-66.732)" fill="#ececf0"/>
      <rect id="Rectángulo_46860" data-name="Rectángulo 46860" width="1.754" height="47.338" rx="0.877" transform="translate(55.486 31.307) rotate(-66.732)" fill="#ececf0"/>
      <rect id="Rectángulo_46861" data-name="Rectángulo 46861" width="1.754" height="36.01" rx="0.877" transform="translate(54.204 34.288) rotate(-66.732)" fill="#ececf0"/>
      <rect id="Rectángulo_46862" data-name="Rectángulo 46862" width="1.754" height="72.02" rx="0.877" transform="matrix(0.395, -0.919, 0.919, 0.395, 50.506, 42.888)" fill="#ececf0"/>
      <rect id="Rectángulo_46863" data-name="Rectángulo 46863" width="1.754" height="47.338" rx="0.877" transform="matrix(0.395, -0.919, 0.919, 0.395, 49.244, 45.823)" fill="#ececf0"/>
      <rect id="Rectángulo_46864" data-name="Rectángulo 46864" width="1.754" height="36.01" rx="0.877" transform="translate(47.962 48.805) rotate(-66.732)" fill="#ececf0"/>
      <rect id="Rectángulo_46865" data-name="Rectángulo 46865" width="1.754" height="72.02" rx="0.877" transform="translate(43.258 59.744) rotate(-66.732)" fill="#ececf0"/>
      <rect id="Rectángulo_46866" data-name="Rectángulo 46866" width="1.754" height="47.338" rx="0.877" transform="translate(41.996 62.679) rotate(-66.732)" fill="#ececf0"/>
      <rect id="Rectángulo_46867" data-name="Rectángulo 46867" width="1.754" height="36.01" rx="0.877" transform="translate(40.714 65.66) rotate(-66.732)" fill="#ececf0"/>
      <rect id="Rectángulo_46868" data-name="Rectángulo 46868" width="1.754" height="72.02" rx="0.877" transform="translate(27.473 96.452) rotate(-66.732)" fill="#ececf0"/>
      <rect id="Rectángulo_46869" data-name="Rectángulo 46869" width="1.754" height="47.338" rx="0.877" transform="translate(26.211 99.387) rotate(-66.732)" fill="#ececf0"/>
      <rect id="Rectángulo_46870" data-name="Rectángulo 46870" width="1.754" height="36.01" rx="0.877" transform="translate(24.929 102.368) rotate(-66.732)" fill="#ececf0"/>
      <rect id="Rectángulo_46871" data-name="Rectángulo 46871" width="1.754" height="72.02" rx="0.877" transform="translate(37.071 74.13) rotate(-66.732)" fill="#ececf0"/>
      <rect id="Rectángulo_46872" data-name="Rectángulo 46872" width="1.754" height="47.338" rx="0.877" transform="translate(35.809 77.065) rotate(-66.732)" fill="#ececf0"/>
      <rect id="Rectángulo_46873" data-name="Rectángulo 46873" width="1.754" height="47.338" rx="0.877" transform="matrix(0.395, -0.919, 0.919, 0.395, 31.827, 86.326)" fill="#ececf0"/>
      <rect id="Rectángulo_46874" data-name="Rectángulo 46874" width="1.754" height="36.01" rx="0.877" transform="matrix(0.395, -0.919, 0.919, 0.395, 34.527, 80.047)" fill="#ececf0"/>
      <rect id="Rectángulo_46875" data-name="Rectángulo 46875" width="1.754" height="29.863" rx="0.877" transform="translate(33.18 83.18) rotate(-66.732)" fill="#ececf0"/>
      <g id="Trazado_202501" data-name="Trazado 202501" transform="translate(-262.527 -1211.236)" fill="#88ba34" stroke-linecap="round" stroke-linejoin="round">
        <path d="M 376.4336242675781 1276.00341796875 L 376.2058410644531 1275.049438476562 L 375.0859985351562 1270.359252929688 L 376.4563598632812 1269.79541015625 L 377.9584045410156 1272.265991210938 L 383.7765197753906 1270.300903320312 L 384.375732421875 1271.669799804688 L 377.2945556640625 1275.533569335938 L 376.4336242675781 1276.00341796875 Z" stroke="none"/>
        <path d="M 375.8154907226562 1270.18505859375 L 376.9353332519531 1274.875244140625 L 384.0165100097656 1271.011474609375 L 377.6294860839844 1273.168701171875 L 375.8154907226562 1270.18505859375 M 375.8149108886719 1268.684814453125 C 376.3255615234375 1268.684814453125 376.8179321289062 1268.946533203125 377.0971984863281 1269.40576171875 L 378.2872924804688 1271.36328125 L 383.5365295410156 1269.59033203125 C 384.2735595703125 1269.341186523438 385.0786437988281 1269.697265625 385.390625 1270.409912109375 C 385.7026062011719 1271.122680664062 385.4179077148438 1271.95556640625 384.7349853515625 1272.328247070312 L 377.65380859375 1276.192016601562 C 377.24365234375 1276.415771484375 376.752685546875 1276.435668945312 376.3258056640625 1276.245849609375 C 375.8988952636719 1276.055908203125 375.5848388671875 1275.677978515625 375.4763488769531 1275.2236328125 L 374.3565063476562 1270.533447265625 C 374.1849975585938 1269.815063476562 374.5618286132812 1269.078857421875 375.2447509765625 1268.7978515625 C 375.4305725097656 1268.721435546875 375.6240234375 1268.684814453125 375.8149108886719 1268.684814453125 Z" stroke="none" fill="#88ba34"/>
      </g>
      <g id="Trazado_202502" data-name="Trazado 202502" transform="translate(-234.779 -1275.766)" fill="#88ba34" stroke-linecap="round" stroke-linejoin="round">
        <path d="M 319.8612060546875 1407.56494140625 L 319.6334228515625 1406.610961914062 L 318.5135498046875 1401.920654296875 L 319.8839111328125 1401.356811523438 L 321.3859252929688 1403.827270507812 L 327.2041015625 1401.862426757812 L 327.8032836914062 1403.231323242188 L 320.7221374511719 1407.095092773438 L 319.8612060546875 1407.56494140625 Z" stroke="none"/>
        <path d="M 319.2430419921875 1401.746459960938 L 320.3629150390625 1406.436767578125 L 327.4440612792969 1402.572998046875 L 321.0570068359375 1404.72998046875 L 319.2430419921875 1401.746459960938 M 319.2424621582031 1400.246215820312 C 319.7531127929688 1400.246215820312 320.2454833984375 1400.507934570312 320.5247497558594 1400.967163085938 L 321.71484375 1402.924560546875 L 326.964111328125 1401.15185546875 C 327.7010803222656 1400.903198242188 328.5062255859375 1401.258911132812 328.8181762695312 1401.971557617188 C 329.130126953125 1402.684204101562 328.845458984375 1403.51708984375 328.1625366210938 1403.889770507812 L 321.0813903808594 1407.753540039062 C 320.6712341308594 1407.977294921875 320.1802673339844 1407.9970703125 319.7533874511719 1407.807373046875 C 319.3264770507812 1407.617431640625 319.0124206542969 1407.239501953125 318.9039306640625 1406.78515625 L 317.7840576171875 1402.094848632812 C 317.612548828125 1401.376586914062 317.9893798828125 1400.640258789062 318.6723022460938 1400.359252929688 C 318.8581237792969 1400.282836914062 319.0515747070312 1400.246215820312 319.2424621582031 1400.246215820312 Z" stroke="none" fill="#88ba34"/>
      </g>
      <g id="Trazado_202503" data-name="Trazado 202503" transform="translate(-249.185 -1242.265)" fill="#88ba34" stroke-linecap="round" stroke-linejoin="round">
        <path d="M 349.2311401367188 1339.263916015625 L 349.0033569335938 1338.309936523438 L 347.8834838867188 1333.619750976562 L 349.2538452148438 1333.055908203125 L 350.7558898925781 1335.526489257812 L 356.573974609375 1333.561401367188 L 357.1731872558594 1334.930297851562 L 350.0921020507812 1338.794067382812 L 349.2311401367188 1339.263916015625 Z" stroke="none"/>
        <path d="M 348.6129760742188 1333.445556640625 L 349.7328491210938 1338.1357421875 L 356.81396484375 1334.27197265625 L 350.427001953125 1336.42919921875 L 348.6129760742188 1333.445556640625 M 348.6123962402344 1331.9453125 C 349.1230773925781 1331.9453125 349.6154174804688 1332.20703125 349.8946838378906 1332.666259765625 L 351.0848083496094 1334.623779296875 L 356.333984375 1332.850830078125 C 357.0709838867188 1332.601928710938 357.8760986328125 1332.957885742188 358.1880798339844 1333.67041015625 C 358.5000610351562 1334.383178710938 358.2153625488281 1335.216064453125 357.5324401855469 1335.588745117188 L 350.4513244628906 1339.452514648438 C 350.0411376953125 1339.67626953125 349.5502014160156 1339.696044921875 349.1233215332031 1339.50634765625 C 348.6964111328125 1339.31640625 348.3823852539062 1338.9384765625 348.2738647460938 1338.484130859375 L 347.1539916992188 1333.7939453125 C 346.9824829101562 1333.07568359375 347.3593139648438 1332.33935546875 348.042236328125 1332.058349609375 C 348.2280578613281 1331.98193359375 348.4215087890625 1331.9453125 348.6123962402344 1331.9453125 Z" stroke="none" fill="#88ba34"/>
      </g>
    </g>
    <g id="Grupo_163184" data-name="Grupo 163184" transform="translate(-57.581 1106.35)">
      <rect id="Rectángulo_46876" data-name="Rectángulo 46876" width="131.534" height="167.584" rx="8.826" transform="translate(0 16.084)" fill="#13959c"/>
      <path id="Trazado_202504" data-name="Trazado 202504" d="M135.666,1295.461a4.423,4.423,0,0,1-4.5,4.344H8.629a4.423,4.423,0,0,1-4.5-4.344v-153.2a4.423,4.423,0,0,1,4.5-4.345h122.54a4.423,4.423,0,0,1,4.5,4.345Z" transform="translate(-4.132 -1121.834)" fill="#24b7c4"/>
      <rect id="Rectángulo_46877" data-name="Rectángulo 46877" width="116.258" height="142.482" transform="translate(7.638 25.134)" fill="#fff"/>
      <g id="Grupo_163183" data-name="Grupo 163183" transform="translate(28.744)">
        <path id="Trazado_202505" data-name="Trazado 202505" d="M134.594,1134.272a6.659,6.659,0,0,0-6.659-6.659H67.206a6.659,6.659,0,0,0-6.659,6.659v11.72h74.047Z" transform="translate(-60.547 -1116.779)" fill="#b4b3b3"/>
        <circle id="Elipse_5323" data-name="Elipse 5323" cx="10.321" cy="10.321" r="10.321" transform="matrix(0.592, -0.806, 0.806, 0.592, 22.594, 16.63)" fill="#b4b3b3"/>
        <path id="Trazado_202506" data-name="Trazado 202506" d="M133.33,1125.421a3.162,3.162,0,1,1-3.162-3.162A3.162,3.162,0,0,1,133.33,1125.421Z" transform="translate(-93.144 -1114.153)" fill="#edefc7"/>
        <rect id="Rectángulo_46878" data-name="Rectángulo 46878" width="74.047" height="8.157" transform="translate(0 21.055)" fill="#d2d2d2"/>
      </g>
      <rect id="Rectángulo_46879" data-name="Rectángulo 46879" width="79.622" height="1.939" rx="0.97" transform="translate(23.96 55.049)" fill="#ececf0"/>
      <rect id="Rectángulo_46880" data-name="Rectángulo 46880" width="52.334" height="1.939" rx="0.97" transform="translate(23.96 58.581)" fill="#ececf0"/>
      <rect id="Rectángulo_46881" data-name="Rectángulo 46881" width="39.811" height="1.939" rx="0.97" transform="translate(23.96 62.169)" fill="#ececf0"/>
      <rect id="Rectángulo_46882" data-name="Rectángulo 46882" width="63.234" height="3.006" rx="1.503" transform="translate(40.888 78.964)" fill="#ececf0"/>
      <rect id="Rectángulo_46883" data-name="Rectángulo 46883" width="63.234" height="3.006" rx="1.503" transform="translate(40.888 94.102)" fill="#ececf0"/>
      <rect id="Rectángulo_46884" data-name="Rectángulo 46884" width="63.234" height="3.006" rx="1.503" transform="translate(40.888 109.511)" fill="#ececf0"/>
      <rect id="Rectángulo_46885" data-name="Rectángulo 46885" width="63.234" height="3.006" rx="1.503" transform="translate(40.888 123.883)" fill="#ececf0"/>
      <path id="Trazado_202507" data-name="Trazado 202507" d="M61.788,1252.467v9.433H52.355v-9.433h9.433m1.2-1.2H51.157V1263.1h11.83v-11.831Z" transform="translate(-27.197 -1177.43)" fill="#ececf0"/>
      <path id="Trazado_202508" data-name="Trazado 202508" d="M61.788,1282.569V1292H52.355v-9.433h9.433m1.2-1.2H51.157v11.83h11.83v-11.83Z" transform="translate(-27.197 -1192.195)" fill="#ececf0"/>
      <path id="Trazado_202509" data-name="Trazado 202509" d="M61.788,1312.639v9.433H52.355v-9.433h9.433m1.2-1.2H51.157v11.83h11.83v-11.83Z" transform="translate(-27.197 -1206.945)" fill="#ececf0"/>
      <path id="Trazado_202510" data-name="Trazado 202510" d="M61.788,1343.09v9.434H52.355v-9.434h9.433m1.2-1.2H51.157v11.83h11.83v-11.83Z" transform="translate(-27.197 -1221.88)" fill="#ececf0"/>
      <g id="Trazado_202511" data-name="Trazado 202511" transform="translate(-29.193 -1177.607)" fill="#88ba34" stroke-linecap="round" stroke-linejoin="round">
        <path d="M 59.10940551757812 1261.45068359375 L 58.5233268737793 1260.664306640625 L 54.62404632568359 1255.432495117188 L 55.66021728515625 1254.373168945312 L 59.02087020874023 1256.764404296875 L 65.36088562011719 1251.069946289062 L 66.45213317871094 1252.0908203125 L 59.71476745605469 1260.678955078125 L 59.10940551757812 1261.45068359375 Z" stroke="none"/>
        <path d="M 65.86204528808594 1251.6279296875 L 59.0753059387207 1257.7236328125 L 55.22538757324219 1254.984252929688 L 59.12467575073242 1260.216064453125 L 65.86204528808594 1251.6279296875 M 65.86196899414062 1250.1279296875 C 66.23049926757812 1250.1279296875 66.5987548828125 1250.263061523438 66.88681030273438 1250.532592773438 C 67.45492553710938 1251.064086914062 67.52240753173828 1251.941650390625 67.04222106933594 1252.5537109375 L 60.30485534667969 1261.141967773438 C 60.02031326293945 1261.504638671875 59.58499908447266 1261.716064453125 59.12470626831055 1261.716064453125 C 59.11849975585938 1261.716064453125 59.11235046386719 1261.716064453125 59.10613632202148 1261.715942382812 C 58.63896560668945 1261.710205078125 58.20116806030273 1261.487060546875 57.92196655273438 1261.112426757812 L 54.02267456054688 1255.880615234375 C 53.58136749267578 1255.28857421875 53.63669586181641 1254.463256835938 54.15309906005859 1253.935302734375 C 54.66949462890625 1253.407470703125 55.49331665039062 1253.333984375 56.09502410888672 1253.762084960938 L 58.96643829345703 1255.80517578125 L 64.85972595214844 1250.511962890625 C 65.14505004882812 1250.255737304688 65.50363922119141 1250.1279296875 65.86196899414062 1250.1279296875 Z" stroke="none" fill="#88ba34"/>
      </g>
      <g id="Trazado_202512" data-name="Trazado 202512" transform="translate(-29.193 -1191.215)" fill="#88ba34" stroke-linecap="round" stroke-linejoin="round">
        <path d="M 59.10940551757812 1289.195068359375 L 58.5233154296875 1288.408569335938 L 54.6240348815918 1283.176513671875 L 55.66021728515625 1282.117309570312 L 59.02087020874023 1284.508544921875 L 65.36088562011719 1278.814086914062 L 66.45213317871094 1279.8349609375 L 59.71476745605469 1288.42333984375 L 59.10940551757812 1289.195068359375 Z" stroke="none"/>
        <path d="M 65.86204528808594 1279.3720703125 L 59.0753059387207 1285.4677734375 L 55.22538757324219 1282.728393554688 L 59.12467575073242 1287.96044921875 L 65.86204528808594 1279.3720703125 M 65.86197662353516 1277.8720703125 C 66.23050689697266 1277.8720703125 66.5987548828125 1278.007202148438 66.88681030273438 1278.276733398438 C 67.45492553710938 1278.808227539062 67.52241516113281 1279.685791015625 67.042236328125 1280.2978515625 L 60.30486679077148 1288.88623046875 C 60.01649475097656 1289.25390625 59.57332611083984 1289.466796875 59.10612487792969 1289.460327148438 C 58.63894653320312 1289.45458984375 58.20114517211914 1289.2314453125 57.92194747924805 1288.856811523438 L 54.02265930175781 1283.624755859375 C 53.58136749267578 1283.032592773438 53.63670349121094 1282.207397460938 54.15310668945312 1281.679443359375 C 54.66950225830078 1281.151611328125 55.49330902099609 1281.078125 56.09502410888672 1281.506225585938 L 58.96643829345703 1283.54931640625 L 64.85972595214844 1278.256103515625 C 65.14505004882812 1277.999877929688 65.50364685058594 1277.8720703125 65.86197662353516 1277.8720703125 Z" stroke="none" fill="#88ba34"/>
      </g>
      <path id="Trazado_202513" data-name="Trazado 202513" d="M19.123,1366.715v34.8H36.049C35.3,1401.52,20.143,1384.2,19.123,1366.715Z" transform="translate(-11.485 -1234.056)" fill="#dddde0"/>
      <path id="Trazado_202514" data-name="Trazado 202514" d="M38.214,1382.731a31.384,31.384,0,0,1-11.459-5.9,20.881,20.881,0,0,1-7.632-14.861v2.274c1.02,17.484,16.181,34.946,16.926,34.942a5.563,5.563,0,0,1-1.162-3.5C34.8,1392.47,36.519,1388.061,38.214,1382.731Z" transform="translate(-11.485 -1231.731)" fill="#ececf0"/>
    </g>
    <g id="Grupo_163185" data-name="Grupo 163185" transform="translate(-121.687 1251.46)">
      <path id="Trazado_202515" data-name="Trazado 202515" d="M-111.6,1537.186a5.91,5.91,0,0,1-8.358.006h0a5.91,5.91,0,0,1-.006-8.358l8.194-8.205a5.91,5.91,0,0,1,8.358-.006h0a5.91,5.91,0,0,1,.006,8.358Z" transform="translate(121.687 -1453.809)" fill="#fff"/>
      <rect id="Rectángulo_46886" data-name="Rectángulo 46886" width="5.664" height="11.908" transform="matrix(0.707, -0.708, 0.708, 0.707, 3.194, 73.496)" fill="#d2d2d2"/>
      <path id="Trazado_202516" data-name="Trazado 202516" d="M12.6,1399.408l8.426,8.415,7.842-16.184Z" transform="translate(55.823 -1391.391)" fill="#fdfffe"/>
      <path id="Trazado_202517" data-name="Trazado 202517" d="M39.934,1391.152l-5.1,2.435,2.643,2.632Z" transform="translate(44.914 -1391.152)" fill="#543823"/>
      <rect id="Rectángulo_46887" data-name="Rectángulo 46887" width="86.773" height="11.912" transform="translate(7.182 69.495) rotate(-45.114)" fill="#fcb040"/>
      <rect id="Rectángulo_46888" data-name="Rectángulo 46888" width="86.773" height="5.225" transform="translate(9.551 71.855) rotate(-45.114)" fill="#e6a03a"/>
      <path id="Trazado_202518" data-name="Trazado 202518" d="M49.763,1418.563l-.009.038" transform="translate(37.597 -1404.597)" fill="#ececf0"/>
    </g>
  </g>
</svg>
