<svg xmlns="http://www.w3.org/2000/svg" width="505" height="339" viewBox="0 0 505 339">
  <g id="Grupo_170663" data-name="Grupo 170663" transform="translate(-810.287 -2677)">
    <path id="Trazado_207044" data-name="Trazado 207044" d="M12,0H493a12,12,0,0,1,12,12V327a12,12,0,0,1-12,12H12A12,12,0,0,1,0,327V12A12,12,0,0,1,12,0Z" transform="translate(810.287 2677)" fill="#fff" opacity="0.33"/>
    <g id="Grupo_170639" data-name="Grupo 170639" transform="translate(1809.287 2098.434) rotate(90)">
      <rect id="Rectángulo_47862" data-name="Rectángulo 47862" width="89" height="159" transform="translate(762.567 563)" fill="#00bcd4"/>
      <path id="Polígono_9" data-name="Polígono 9" d="M67.5,0,135,36H0Z" transform="translate(739.567 534)" fill="#00bcd4"/>
    </g>
    <g id="Grupo_170640" data-name="Grupo 170640" transform="translate(1039.287 2838) rotate(90)">
      <rect id="Rectángulo_47862-2" data-name="Rectángulo 47862" width="89" height="159" transform="translate(23)" fill="#7e5ee3"/>
      <path id="Polígono_9-2" data-name="Polígono 9" d="M67.5,0,135,36H0Z" transform="translate(135 188) rotate(180)" fill="#7e5ee3"/>
    </g>
    <path id="Trazado_207045" data-name="Trazado 207045" d="M15,0H128a15,15,0,0,1,15,15V42a15,15,0,0,1-15,15H15A15,15,0,0,1,0,42V15A15,15,0,0,1,15,0Z" transform="translate(986.287 2720)" fill="#81d4fa"/>
    <path id="Trazado_207046" data-name="Trazado 207046" d="M21.692,8.921a3.27,3.27,0,0,1-1.1,2.349,3.868,3.868,0,0,1-2.618.857,3.478,3.478,0,0,1-2.8-1.2,4.906,4.906,0,0,1-1.019-3.285V7.081a5.54,5.54,0,0,1,.47-2.349,3.52,3.52,0,0,1,1.343-1.558A3.761,3.761,0,0,1,18,2.631a3.768,3.768,0,0,1,2.577.857A3.515,3.515,0,0,1,21.7,5.894H19.8a1.93,1.93,0,0,0-.5-1.3,1.845,1.845,0,0,0-1.3-.4,1.618,1.618,0,0,0-1.425.682,3.824,3.824,0,0,0-.486,2.117v.7a4.093,4.093,0,0,0,.454,2.19,1.588,1.588,0,0,0,1.431.692,1.88,1.88,0,0,0,1.317-.4,1.821,1.821,0,0,0,.5-1.247Zm.844-.419a4.073,4.073,0,0,1,.394-1.822,2.881,2.881,0,0,1,1.133-1.238A3.306,3.306,0,0,1,25.78,5a3.127,3.127,0,0,1,2.269.851,3.414,3.414,0,0,1,.981,2.311l.013.47a3.59,3.59,0,0,1-.882,2.536,3.067,3.067,0,0,1-2.368.955,3.082,3.082,0,0,1-2.371-.952,3.653,3.653,0,0,1-.885-2.59Zm1.834.13a2.567,2.567,0,0,0,.368,1.5,1.323,1.323,0,0,0,2.095.006A2.809,2.809,0,0,0,27.208,8.5a2.542,2.542,0,0,0-.375-1.488,1.217,1.217,0,0,0-1.054-.528,1.2,1.2,0,0,0-1.041.524A2.857,2.857,0,0,0,24.37,8.633Zm7.522-3.5.057.768A2.414,2.414,0,0,1,33.924,5a1.832,1.832,0,0,1,1.822,1.047A2.358,2.358,0,0,1,37.808,5a2.049,2.049,0,0,1,1.663.651,2.991,2.991,0,0,1,.546,1.958V12H38.177V7.61a1.313,1.313,0,0,0-.229-.856,1.011,1.011,0,0,0-.806-.27A1.145,1.145,0,0,0,36,7.273L36.006,12H34.171V7.616a1.3,1.3,0,0,0-.235-.865,1.021,1.021,0,0,0-.8-.267,1.188,1.188,0,0,0-1.13.649V12H30.172V5.132Zm15.717,3.5a4.119,4.119,0,0,1-.72,2.542,2.31,2.31,0,0,1-1.946.955,2.14,2.14,0,0,1-1.682-.724v3.237H41.427V5.132h1.7l.063.673A2.156,2.156,0,0,1,44.93,5a2.326,2.326,0,0,1,1.974.939,4.231,4.231,0,0,1,.7,2.59Zm-1.834-.14a2.718,2.718,0,0,0-.34-1.484,1.105,1.105,0,0,0-.987-.522,1.2,1.2,0,0,0-1.187.662V9.967a1.221,1.221,0,0,0,1.2.681Q45.775,10.648,45.775,8.49ZM52.725,12a2.037,2.037,0,0,1-.184-.616,2.22,2.22,0,0,1-1.733.743,2.439,2.439,0,0,1-1.673-.584,1.878,1.878,0,0,1-.663-1.473,1.941,1.941,0,0,1,.809-1.676,3.994,3.994,0,0,1,2.339-.59h.844V7.411a1.132,1.132,0,0,0-.244-.762.961.961,0,0,0-.771-.286,1.093,1.093,0,0,0-.727.222.755.755,0,0,0-.263.609H48.625a1.843,1.843,0,0,1,.368-1.1,2.434,2.434,0,0,1,1.041-.8A3.794,3.794,0,0,1,51.545,5a3,3,0,0,1,2.015.638,2.232,2.232,0,0,1,.746,1.793v2.977a3.284,3.284,0,0,0,.273,1.479V12Zm-1.517-1.276a1.58,1.58,0,0,0,.749-.181,1.188,1.188,0,0,0,.508-.486V8.877H51.78q-1.377,0-1.466.952l-.006.108a.734.734,0,0,0,.241.565A.937.937,0,0,0,51.208,10.724Zm8.366-3.872a4.984,4.984,0,0,0-.66-.051,1.344,1.344,0,0,0-1.365.7V12H55.715V5.132h1.733l.051.819A1.7,1.7,0,0,1,59.029,5a1.922,1.922,0,0,1,.571.083ZM64.246,12a2.037,2.037,0,0,1-.184-.616,2.22,2.22,0,0,1-1.733.743,2.439,2.439,0,0,1-1.673-.584,1.878,1.878,0,0,1-.663-1.473A1.941,1.941,0,0,1,60.8,8.395a3.994,3.994,0,0,1,2.339-.59h.844V7.411a1.132,1.132,0,0,0-.244-.762.961.961,0,0,0-.771-.286,1.093,1.093,0,0,0-.727.222.755.755,0,0,0-.263.609H60.146a1.843,1.843,0,0,1,.368-1.1,2.434,2.434,0,0,1,1.041-.8A3.794,3.794,0,0,1,63.066,5a3,3,0,0,1,2.015.638,2.232,2.232,0,0,1,.746,1.793v2.977a3.284,3.284,0,0,0,.273,1.479V12Zm-1.517-1.276a1.58,1.58,0,0,0,.749-.181,1.188,1.188,0,0,0,.508-.486V8.877H63.3q-1.377,0-1.466.952l-.006.108a.734.734,0,0,0,.241.565A.937.937,0,0,0,62.729,10.724Zm7.363-.076a1.2,1.2,0,0,0,.825-.279.979.979,0,0,0,.33-.743h1.72a2.353,2.353,0,0,1-.381,1.279,2.513,2.513,0,0,1-1.025.9,3.208,3.208,0,0,1-1.438.321,2.982,2.982,0,0,1-2.323-.936A3.705,3.705,0,0,1,66.95,8.6V8.483a3.663,3.663,0,0,1,.844-2.533A2.947,2.947,0,0,1,70.112,5a2.889,2.889,0,0,1,2.066.733,2.6,2.6,0,0,1,.79,1.952h-1.72a1.261,1.261,0,0,0-.33-.871,1.227,1.227,0,0,0-1.806.132,2.708,2.708,0,0,0-.327,1.516v.191a2.742,2.742,0,0,0,.324,1.526A1.119,1.119,0,0,0,70.093,10.648ZM75.951,12H74.111V5.132h1.841ZM74,3.354a.9.9,0,0,1,.276-.679,1.19,1.19,0,0,1,1.5,0,.9.9,0,0,1,.279.679.9.9,0,0,1-.282.686,1.177,1.177,0,0,1-1.492,0A.9.9,0,0,1,74,3.354ZM77.177,8.5a4.073,4.073,0,0,1,.394-1.822A2.881,2.881,0,0,1,78.7,5.443,3.306,3.306,0,0,1,80.42,5a3.127,3.127,0,0,1,2.269.851,3.414,3.414,0,0,1,.981,2.311l.013.47a3.59,3.59,0,0,1-.882,2.536,3.42,3.42,0,0,1-4.739,0,3.653,3.653,0,0,1-.885-2.59Zm1.834.13a2.567,2.567,0,0,0,.368,1.5,1.323,1.323,0,0,0,2.095.006A2.809,2.809,0,0,0,81.848,8.5a2.542,2.542,0,0,0-.375-1.488,1.217,1.217,0,0,0-1.054-.528,1.2,1.2,0,0,0-1.041.524A2.857,2.857,0,0,0,79.011,8.633ZM80.782,2.25h2L81.023,4.218H79.531ZM86.5,5.132l.057.793A2.4,2.4,0,0,1,88.532,5a1.993,1.993,0,0,1,1.625.641A2.991,2.991,0,0,1,90.7,7.563V12H88.869V7.6a1.2,1.2,0,0,0-.254-.849,1.135,1.135,0,0,0-.844-.264,1.261,1.261,0,0,0-1.162.662V12H84.775V5.132Zm-45.31,25a3.372,3.372,0,0,1-2.46-.927,3.294,3.294,0,0,1-.949-2.469v-.178a4.149,4.149,0,0,1,.4-1.85,2.935,2.935,0,0,1,1.133-1.257A3.18,3.18,0,0,1,40.989,23a2.85,2.85,0,0,1,2.219.889,3.611,3.611,0,0,1,.809,2.52v.749H39.643a1.7,1.7,0,0,0,.536,1.079,1.621,1.621,0,0,0,1.133.406,1.98,1.98,0,0,0,1.657-.768l.9,1.009a2.754,2.754,0,0,1-1.117.911A3.665,3.665,0,0,1,41.192,30.127Zm-.209-5.643a1.146,1.146,0,0,0-.885.37,1.915,1.915,0,0,0-.435,1.058h2.552v-.147a1.366,1.366,0,0,0-.33-.947A1.183,1.183,0,0,0,40.982,24.484Zm5.764-1.352.057.793A2.4,2.4,0,0,1,48.777,23a1.993,1.993,0,0,1,1.625.641,2.991,2.991,0,0,1,.546,1.917V30H49.114V25.6a1.2,1.2,0,0,0-.254-.849,1.135,1.135,0,0,0-.844-.264,1.261,1.261,0,0,0-1.162.662V30H45.019V23.132Zm7.789-1.688v1.688h1.174v1.346H54.534v3.428a.818.818,0,0,0,.146.546.733.733,0,0,0,.559.165,2.925,2.925,0,0,0,.54-.044v1.39a3.777,3.777,0,0,1-1.111.165A1.752,1.752,0,0,1,52.7,28.178v-3.7h-1V23.132h1V21.443Zm6.056,3.409a4.984,4.984,0,0,0-.66-.051,1.344,1.344,0,0,0-1.365.7V30H56.731V23.132h1.733l.051.819A1.7,1.7,0,0,1,60.044,23a1.922,1.922,0,0,1,.571.083Zm3.923,5.275a3.372,3.372,0,0,1-2.46-.927,3.294,3.294,0,0,1-.949-2.469v-.178a4.149,4.149,0,0,1,.4-1.85,2.935,2.935,0,0,1,1.133-1.257A3.18,3.18,0,0,1,64.31,23a2.85,2.85,0,0,1,2.219.889,3.611,3.611,0,0,1,.809,2.52v.749H62.964a1.7,1.7,0,0,0,.536,1.079,1.621,1.621,0,0,0,1.133.406,1.98,1.98,0,0,0,1.657-.768l.9,1.009a2.754,2.754,0,0,1-1.117.911A3.665,3.665,0,0,1,64.513,30.127ZM64.3,24.484a1.146,1.146,0,0,0-.885.37,1.915,1.915,0,0,0-.435,1.058h2.552v-.147a1.366,1.366,0,0,0-.33-.947A1.183,1.183,0,0,0,64.3,24.484Z" transform="translate(1005.287 2733)" fill="#12263f"/>
    <path id="Trazado_207047" data-name="Trazado 207047" d="M32.711,7.88a5.731,5.731,0,0,1-2.282-1.108,2.116,2.116,0,0,1-.714-1.622,2.236,2.236,0,0,1,.873-1.806,3.469,3.469,0,0,1,2.269-.714,3.786,3.786,0,0,1,1.7.368A2.792,2.792,0,0,1,35.71,4.015,2.6,2.6,0,0,1,36.12,5.43H34.895a1.69,1.69,0,0,0-.533-1.322,2.168,2.168,0,0,0-1.5-.481,2.22,2.22,0,0,0-1.406.4,1.326,1.326,0,0,0-.5,1.1,1.193,1.193,0,0,0,.479.957,4.7,4.7,0,0,0,1.631.715,7.569,7.569,0,0,1,1.8.715,2.736,2.736,0,0,1,.965.911,2.325,2.325,0,0,1,.314,1.225,2.159,2.159,0,0,1-.876,1.8,3.735,3.735,0,0,1-2.342.676,4.344,4.344,0,0,1-1.777-.365,2.991,2.991,0,0,1-1.273-1,2.44,2.44,0,0,1-.448-1.441h1.225a1.592,1.592,0,0,0,.619,1.323,2.606,2.606,0,0,0,1.654.486,2.4,2.4,0,0,0,1.479-.394,1.278,1.278,0,0,0,.514-1.073,1.255,1.255,0,0,0-.476-1.051A5.489,5.489,0,0,0,32.711,7.88ZM38.792,12H37.618V5.132h1.174Zm-1.27-8.69a.7.7,0,0,1,.175-.482.655.655,0,0,1,.517-.2.666.666,0,0,1,.521.2.694.694,0,0,1,.178.482.671.671,0,0,1-.178.476.678.678,0,0,1-.521.19.667.667,0,0,1-.517-.19A.678.678,0,0,1,37.523,3.31Zm7.147,6.868a.865.865,0,0,0-.359-.74,3.452,3.452,0,0,0-1.25-.454,5.912,5.912,0,0,1-1.416-.457,2.014,2.014,0,0,1-.774-.635,1.518,1.518,0,0,1-.251-.876,1.782,1.782,0,0,1,.714-1.428A2.789,2.789,0,0,1,43.159,5a2.87,2.87,0,0,1,1.895.6,1.915,1.915,0,0,1,.727,1.542H44.6a1.06,1.06,0,0,0-.409-.832,1.534,1.534,0,0,0-1.031-.349,1.605,1.605,0,0,0-1,.279.879.879,0,0,0-.362.73.712.712,0,0,0,.336.641,4.139,4.139,0,0,0,1.216.413,6.334,6.334,0,0,1,1.425.47,2.079,2.079,0,0,1,.809.657,1.615,1.615,0,0,1,.263.936,1.758,1.758,0,0,1-.736,1.476,3.089,3.089,0,0,1-1.911.555,3.459,3.459,0,0,1-1.46-.292,2.375,2.375,0,0,1-.993-.816,1.966,1.966,0,0,1-.359-1.133H41.56a1.216,1.216,0,0,0,.473.936,1.835,1.835,0,0,0,1.165.346,1.894,1.894,0,0,0,1.07-.27A.829.829,0,0,0,44.67,10.178Zm4.3-6.709V5.132H50.25V6.04H48.968V10.3a.953.953,0,0,0,.171.62.721.721,0,0,0,.584.207,2.843,2.843,0,0,0,.559-.076V12a3.424,3.424,0,0,1-.9.126,1.462,1.462,0,0,1-1.187-.476,2.045,2.045,0,0,1-.4-1.352V6.04h-1.25V5.132h1.25V3.469Zm5.5,8.658A3,3,0,0,1,52.2,11.21a3.4,3.4,0,0,1-.876-2.453V8.541a4.121,4.121,0,0,1,.39-1.825A3.045,3.045,0,0,1,52.8,5.459,2.745,2.745,0,0,1,54.325,5a2.572,2.572,0,0,1,2.082.882,3.82,3.82,0,0,1,.743,2.526V8.9H52.5a2.441,2.441,0,0,0,.594,1.641,1.866,1.866,0,0,0,1.444.625,2.045,2.045,0,0,0,1.054-.254,2.648,2.648,0,0,0,.755-.673l.717.559A2.884,2.884,0,0,1,54.471,12.127ZM54.325,5.97a1.566,1.566,0,0,0-1.193.517,2.515,2.515,0,0,0-.6,1.45h3.44V7.849a2.237,2.237,0,0,0-.482-1.387A1.475,1.475,0,0,0,54.325,5.97Zm5.288-.838.032.762A2.536,2.536,0,0,1,61.682,5a1.964,1.964,0,0,1,1.961,1.1,2.6,2.6,0,0,1,.892-.8,2.634,2.634,0,0,1,1.3-.3q2.26,0,2.3,2.393V12H66.957V7.468a1.577,1.577,0,0,0-.336-1.1A1.482,1.482,0,0,0,65.49,6a1.557,1.557,0,0,0-1.085.39,1.584,1.584,0,0,0-.5,1.051V12H62.723V7.5A1.31,1.31,0,0,0,61.257,6a1.571,1.571,0,0,0-1.581.984V12H58.5V5.132ZM74.142,12a2.467,2.467,0,0,1-.165-.724,2.62,2.62,0,0,1-1.955.851,2.424,2.424,0,0,1-1.666-.574,1.859,1.859,0,0,1-.651-1.457,1.942,1.942,0,0,1,.816-1.666,3.846,3.846,0,0,1,2.295-.594h1.143V7.3a1.319,1.319,0,0,0-.368-.981A1.48,1.48,0,0,0,72.5,5.951a1.712,1.712,0,0,0-1.054.317.935.935,0,0,0-.425.768H69.845a1.621,1.621,0,0,1,.365-.993,2.491,2.491,0,0,1,.99-.759A3.331,3.331,0,0,1,72.574,5a2.715,2.715,0,0,1,1.86.594,2.141,2.141,0,0,1,.7,1.635v3.161a3.865,3.865,0,0,0,.241,1.5V12Zm-1.949-.9a2.064,2.064,0,0,0,1.047-.286,1.728,1.728,0,0,0,.717-.743V8.667h-.92q-2.158,0-2.158,1.263a1.069,1.069,0,0,0,.368.863A1.415,1.415,0,0,0,72.194,11.1ZM23.942,26.274a12.016,12.016,0,0,1,.778-2.856,8.851,8.851,0,0,1,1.393-2.371,5.724,5.724,0,0,1,1.841-1.482l.171.787a6.588,6.588,0,0,0-1.711,1.939,9.979,9.979,0,0,0-1.1,2.844,13.678,13.678,0,0,0-.375,3.247,7.19,7.19,0,0,0,.34,2.314,3.652,3.652,0,0,0,.981,1.577l-.286.711a4.584,4.584,0,0,1-1.622-2.177,8.4,8.4,0,0,1-.511-3.3,10.035,10.035,0,0,1,.089-1.162Zm7.979,1.866q.1-.711-.781-1l-1.193-.349q-1.511-.521-1.46-1.727a1.9,1.9,0,0,1,.828-1.489A2.95,2.95,0,0,1,31.159,23a2.46,2.46,0,0,1,1.692.606,1.92,1.92,0,0,1,.625,1.546l-1.143-.006a1.072,1.072,0,0,0-.324-.838,1.281,1.281,0,0,0-.9-.336,1.673,1.673,0,0,0-1.028.292,1.069,1.069,0,0,0-.463.749q-.083.6.73.87l.578.159a3.719,3.719,0,0,1,1.676.793,1.515,1.515,0,0,1,.457,1.212,1.926,1.926,0,0,1-.419,1.117,2.4,2.4,0,0,1-1.016.727,3.4,3.4,0,0,1-1.352.232,2.679,2.679,0,0,1-1.8-.638,1.972,1.972,0,0,1-.686-1.609l1.149.006a1.217,1.217,0,0,0,.368.927,1.407,1.407,0,0,0,1.009.349A1.979,1.979,0,0,0,31.4,28.9,1.014,1.014,0,0,0,31.921,28.14ZM38.046,23a2.476,2.476,0,0,1,1.479.47,2.669,2.669,0,0,1,.911,1.26,3.9,3.9,0,0,1,.2,1.755l-.013.14a4.619,4.619,0,0,1-.6,1.812A3.5,3.5,0,0,1,38.8,29.7a3,3,0,0,1-1.657.425,2.48,2.48,0,0,1-1.476-.47,2.608,2.608,0,0,1-.9-1.244,4.006,4.006,0,0,1-.2-1.733,4.68,4.68,0,0,1,.578-1.917,3.582,3.582,0,0,1,1.241-1.317A2.967,2.967,0,0,1,38.046,23ZM35.71,26.687a3.9,3.9,0,0,0,0,.832,2.037,2.037,0,0,0,.448,1.193,1.343,1.343,0,0,0,1.025.463,1.83,1.83,0,0,0,1.054-.282,2.372,2.372,0,0,0,.813-.911,3.836,3.836,0,0,0,.425-1.352,6.089,6.089,0,0,0,.019-.984,2.114,2.114,0,0,0-.463-1.212A1.373,1.373,0,0,0,38,23.963a1.872,1.872,0,0,0-1.511.7,3.449,3.449,0,0,0-.768,1.879ZM42.045,30l1.041-5.96h-1.06l.159-.908h1.054l.114-.812a2.7,2.7,0,0,1,.8-1.619,2.378,2.378,0,0,1,1.7-.6,3.969,3.969,0,0,1,.819.109l-.14.964a3.767,3.767,0,0,0-.616-.076,1.312,1.312,0,0,0-.968.37,1.685,1.685,0,0,0-.46.984l-.1.677H45.81l-.159.908H44.229L43.194,30Zm6.919-8.531-.292,1.663h1.25l-.159.908H48.52L47.8,28.312a1.489,1.489,0,0,0-.006.3.484.484,0,0,0,.54.5,3.291,3.291,0,0,0,.559-.063l-.089.958a3.126,3.126,0,0,1-.838.114,1.2,1.2,0,0,1-1.028-.5,1.952,1.952,0,0,1-.267-1.323l.7-4.253H46.159l.159-.908H47.53l.292-1.663Zm7.313,6.906,2.19-5.243h1.187L56.524,30h-.933l-.711-5.192L52.4,30h-.933l-.743-6.868h1.1l.419,5.116,2.438-5.116h.927ZM63.856,30a1.539,1.539,0,0,1-.044-.362l.019-.362a2.816,2.816,0,0,1-2.006.851,2.052,2.052,0,0,1-1.476-.574,1.739,1.739,0,0,1-.517-1.406,2.114,2.114,0,0,1,.955-1.7,4.067,4.067,0,0,1,2.345-.613l1.2.006.076-.546a1.255,1.255,0,0,0-.238-.974,1.149,1.149,0,0,0-.9-.371,1.772,1.772,0,0,0-1.044.289,1.229,1.229,0,0,0-.555.8l-1.155.006a1.841,1.841,0,0,1,.47-1.07,2.733,2.733,0,0,1,1.06-.724A3.424,3.424,0,0,1,63.38,23a2.277,2.277,0,0,1,1.669.651,2.018,2.018,0,0,1,.5,1.66l-.559,3.4-.032.489a2.4,2.4,0,0,0,.076.692L65.024,30Zm-1.8-.889a2,2,0,0,0,1.044-.263,2.644,2.644,0,0,0,.847-.765l.248-1.416-.87-.006A3.294,3.294,0,0,0,61.66,27a1.262,1.262,0,0,0-.654.971.983.983,0,0,0,.225.8A1.073,1.073,0,0,0,62.053,29.111Zm8.8-4.932-.54-.057a1.966,1.966,0,0,0-1.739,1L67.728,30H66.579l1.193-6.868,1.111-.006-.171.8a2.054,2.054,0,0,1,1.72-.933,2.107,2.107,0,0,1,.546.1Zm3.028,5.948a2.476,2.476,0,0,1-2.006-.946,3.255,3.255,0,0,1-.609-2.355l.032-.273a4.57,4.57,0,0,1,.606-1.866,3.526,3.526,0,0,1,1.216-1.273A2.836,2.836,0,0,1,74.666,23a2.184,2.184,0,0,1,1.663.7,2.9,2.9,0,0,1,.66,1.841,5.379,5.379,0,0,1-.025.825l-.07.527H72.406a2.32,2.32,0,0,0,.308,1.587,1.458,1.458,0,0,0,1.26.679,2.443,2.443,0,0,0,1.879-.914l.66.559a3.021,3.021,0,0,1-1.114.974A3.157,3.157,0,0,1,73.879,30.127Zm.73-6.164a1.678,1.678,0,0,0-1.241.482,3.429,3.429,0,0,0-.841,1.492l3.339.006.025-.1a1.879,1.879,0,0,0-.257-1.33A1.209,1.209,0,0,0,74.609,23.963Zm6.316,2.323a11.778,11.778,0,0,1-.806,2.929,8.808,8.808,0,0,1-1.4,2.33,5.82,5.82,0,0,1-1.806,1.444l-.178-.73A8.334,8.334,0,0,0,79.643,27a13.677,13.677,0,0,0,.279-2.812,5.174,5.174,0,0,0-1.32-3.9l.3-.711a4.208,4.208,0,0,1,1.2,1.317,6.211,6.211,0,0,1,.724,1.911,9.785,9.785,0,0,1,.206,2.257,10.842,10.842,0,0,1-.1,1.162Z" transform="translate(901.287 2890)" fill="#fff"/>
    <path id="Trazado_207048" data-name="Trazado 207048" d="M13.538,2.758V9.042a2.948,2.948,0,0,1-.822,2.139,3.312,3.312,0,0,1-2.212.933l-.324.013a3.459,3.459,0,0,1-2.418-.819,2.929,2.929,0,0,1-.914-2.253v-6.3H8.054V9.017a2.114,2.114,0,0,0,.552,1.558,2.123,2.123,0,0,0,1.574.555,2.137,2.137,0,0,0,1.584-.552,2.11,2.11,0,0,0,.549-1.555V2.758Zm2.85,2.374L16.426,6A2.5,2.5,0,0,1,18.483,5q2.177,0,2.2,2.457V12H19.5V7.455a1.581,1.581,0,0,0-.34-1.1A1.361,1.361,0,0,0,18.127,6a1.7,1.7,0,0,0-1,.3,2.069,2.069,0,0,0-.673.8V12H15.277V5.132ZM23.726,12H22.552V5.132h1.174Zm-1.27-8.69a.7.7,0,0,1,.175-.482.655.655,0,0,1,.517-.2.666.666,0,0,1,.521.2.694.694,0,0,1,.178.482.671.671,0,0,1-.178.476.678.678,0,0,1-.521.19.667.667,0,0,1-.517-.19A.678.678,0,0,1,22.457,3.31Zm2.863,5.2a4.023,4.023,0,0,1,.749-2.542A2.548,2.548,0,0,1,29.94,5.83V2.25h1.174V12H30.036l-.057-.736a2.391,2.391,0,0,1-1.961.863,2.346,2.346,0,0,1-1.946-.978A4.069,4.069,0,0,1,25.319,8.6Zm1.174.133a3.046,3.046,0,0,0,.482,1.828,1.56,1.56,0,0,0,1.333.66,1.713,1.713,0,0,0,1.631-1V6.973A1.726,1.726,0,0,0,28.322,6a1.567,1.567,0,0,0-1.346.667A3.354,3.354,0,0,0,26.494,8.642ZM37.177,12a2.467,2.467,0,0,1-.165-.724,2.62,2.62,0,0,1-1.955.851,2.424,2.424,0,0,1-1.666-.574A1.859,1.859,0,0,1,32.74,10.1a1.942,1.942,0,0,1,.816-1.666,3.846,3.846,0,0,1,2.295-.594h1.143V7.3a1.319,1.319,0,0,0-.368-.981,1.48,1.48,0,0,0-1.085-.365,1.712,1.712,0,0,0-1.054.317.935.935,0,0,0-.425.768H32.879a1.621,1.621,0,0,1,.365-.993,2.491,2.491,0,0,1,.99-.759A3.331,3.331,0,0,1,35.609,5a2.715,2.715,0,0,1,1.86.594,2.141,2.141,0,0,1,.7,1.635v3.161a3.865,3.865,0,0,0,.241,1.5V12Zm-1.949-.9a2.064,2.064,0,0,0,1.047-.286,1.728,1.728,0,0,0,.717-.743V8.667h-.92q-2.158,0-2.158,1.263a1.069,1.069,0,0,0,.368.863A1.415,1.415,0,0,0,35.228,11.1Zm4.494-2.6a4.023,4.023,0,0,1,.749-2.542,2.548,2.548,0,0,1,3.872-.136V2.25h1.174V12H44.438l-.057-.736a2.391,2.391,0,0,1-1.961.863,2.346,2.346,0,0,1-1.946-.978A4.069,4.069,0,0,1,39.722,8.6Zm1.174.133a3.046,3.046,0,0,0,.482,1.828,1.56,1.56,0,0,0,1.333.66,1.713,1.713,0,0,0,1.631-1V6.973A1.726,1.726,0,0,0,42.725,6a1.567,1.567,0,0,0-1.346.667A3.354,3.354,0,0,0,40.9,8.642Zm9.293,3.485a3,3,0,0,1-2.272-.917,3.4,3.4,0,0,1-.876-2.453V8.541a4.121,4.121,0,0,1,.39-1.825,3.045,3.045,0,0,1,1.092-1.257A2.745,2.745,0,0,1,50.043,5a2.572,2.572,0,0,1,2.082.882,3.82,3.82,0,0,1,.743,2.526V8.9H48.215a2.441,2.441,0,0,0,.594,1.641,1.866,1.866,0,0,0,1.444.625,2.045,2.045,0,0,0,1.054-.254,2.648,2.648,0,0,0,.755-.673l.717.559A2.884,2.884,0,0,1,50.189,12.127ZM50.043,5.97a1.566,1.566,0,0,0-1.193.517,2.515,2.515,0,0,0-.6,1.45h3.44V7.849a2.237,2.237,0,0,0-.482-1.387A1.475,1.475,0,0,0,50.043,5.97Zm8.182,4.208a.865.865,0,0,0-.359-.74,3.452,3.452,0,0,0-1.25-.454A5.912,5.912,0,0,1,55.2,8.528a2.014,2.014,0,0,1-.774-.635,1.518,1.518,0,0,1-.251-.876,1.782,1.782,0,0,1,.714-1.428A2.789,2.789,0,0,1,56.715,5a2.87,2.87,0,0,1,1.895.6,1.915,1.915,0,0,1,.727,1.542H58.156a1.06,1.06,0,0,0-.409-.832,1.534,1.534,0,0,0-1.031-.349,1.605,1.605,0,0,0-1,.279.879.879,0,0,0-.362.73.712.712,0,0,0,.336.641,4.139,4.139,0,0,0,1.216.413,6.334,6.334,0,0,1,1.425.47,2.079,2.079,0,0,1,.809.657,1.615,1.615,0,0,1,.263.936,1.758,1.758,0,0,1-.736,1.476,3.089,3.089,0,0,1-1.911.555,3.459,3.459,0,0,1-1.46-.292,2.375,2.375,0,0,1-.993-.816,1.966,1.966,0,0,1-.359-1.133h1.174a1.216,1.216,0,0,0,.473.936,1.835,1.835,0,0,0,1.165.346,1.894,1.894,0,0,0,1.07-.27A.829.829,0,0,0,58.226,10.178ZM15.385,30V24.04H14.3v-.908h1.085v-.7a2.339,2.339,0,0,1,.59-1.708,2.23,2.23,0,0,1,1.669-.6,3.1,3.1,0,0,1,.806.107l-.063.946a3.373,3.373,0,0,0-.635-.057,1.146,1.146,0,0,0-.882.334,1.356,1.356,0,0,0-.311.958v.726h1.466v.908H16.56V30ZM20.6,30H19.416V23.132H20.6Zm.013-9.731h1.422l-1.7,1.866-.946,0Zm5.922,7.909a.864.864,0,0,0-.359-.74,3.452,3.452,0,0,0-1.25-.454,5.912,5.912,0,0,1-1.416-.457,2.014,2.014,0,0,1-.774-.635,1.518,1.518,0,0,1-.251-.876,1.782,1.782,0,0,1,.714-1.428A2.789,2.789,0,0,1,25.021,23a2.87,2.87,0,0,1,1.895.6,1.915,1.915,0,0,1,.727,1.542H26.462a1.06,1.06,0,0,0-.409-.832,1.534,1.534,0,0,0-1.031-.349,1.606,1.606,0,0,0-1,.279.879.879,0,0,0-.362.73.712.712,0,0,0,.336.641,4.139,4.139,0,0,0,1.216.413,6.334,6.334,0,0,1,1.425.47,2.079,2.079,0,0,1,.809.657,1.615,1.615,0,0,1,.263.936,1.758,1.758,0,0,1-.736,1.476,3.089,3.089,0,0,1-1.911.555,3.459,3.459,0,0,1-1.46-.292,2.375,2.375,0,0,1-.993-.816,1.966,1.966,0,0,1-.359-1.133h1.174a1.216,1.216,0,0,0,.473.936,1.835,1.835,0,0,0,1.165.346,1.894,1.894,0,0,0,1.07-.27A.829.829,0,0,0,26.532,28.178ZM30.512,30H29.337V23.132h1.174Zm-1.27-8.69a.7.7,0,0,1,.175-.482.655.655,0,0,1,.517-.2.666.666,0,0,1,.521.2.694.694,0,0,1,.178.482.671.671,0,0,1-.178.476.678.678,0,0,1-.521.19.667.667,0,0,1-.517-.19A.678.678,0,0,1,29.242,21.31Zm5.9,7.858a1.692,1.692,0,0,0,1.1-.381,1.34,1.34,0,0,0,.521-.952h1.111a2.13,2.13,0,0,1-.406,1.124,2.676,2.676,0,0,1-1,.851,2.885,2.885,0,0,1-1.323.317,2.829,2.829,0,0,1-2.231-.936,3.729,3.729,0,0,1-.828-2.561v-.2a4.135,4.135,0,0,1,.368-1.784,2.8,2.8,0,0,1,1.057-1.212A3,3,0,0,1,35.139,23a2.755,2.755,0,0,1,1.92.692,2.473,2.473,0,0,1,.816,1.8H36.764a1.618,1.618,0,0,0-.5-1.095,1.57,1.57,0,0,0-1.12-.428,1.644,1.644,0,0,0-1.387.644,3.026,3.026,0,0,0-.492,1.863V26.7a2.965,2.965,0,0,0,.489,1.828A1.651,1.651,0,0,0,35.146,29.168Zm8.29.832a2.467,2.467,0,0,1-.165-.724,2.62,2.62,0,0,1-1.955.851,2.424,2.424,0,0,1-1.666-.574A1.859,1.859,0,0,1,39,28.1a1.942,1.942,0,0,1,.816-1.666,3.846,3.846,0,0,1,2.295-.594h1.143V25.3a1.319,1.319,0,0,0-.368-.981,1.48,1.48,0,0,0-1.085-.365,1.712,1.712,0,0,0-1.054.317.935.935,0,0,0-.425.768H39.138a1.621,1.621,0,0,1,.365-.993,2.491,2.491,0,0,1,.99-.759A3.331,3.331,0,0,1,41.868,23a2.715,2.715,0,0,1,1.86.594,2.141,2.141,0,0,1,.7,1.635v3.161a3.865,3.865,0,0,0,.241,1.5V30Zm-1.949-.9a2.064,2.064,0,0,0,1.047-.286,1.728,1.728,0,0,0,.717-.743V26.667h-.92q-2.158,0-2.158,1.263a1.069,1.069,0,0,0,.368.863A1.415,1.415,0,0,0,41.487,29.1Zm8.779-.927a.865.865,0,0,0-.359-.74,3.452,3.452,0,0,0-1.25-.454,5.912,5.912,0,0,1-1.416-.457,2.014,2.014,0,0,1-.774-.635,1.518,1.518,0,0,1-.251-.876,1.782,1.782,0,0,1,.714-1.428A2.789,2.789,0,0,1,48.755,23a2.87,2.87,0,0,1,1.895.6,1.915,1.915,0,0,1,.727,1.542H50.2a1.06,1.06,0,0,0-.409-.832,1.534,1.534,0,0,0-1.031-.349,1.606,1.606,0,0,0-1,.279.879.879,0,0,0-.362.73.712.712,0,0,0,.336.641,4.139,4.139,0,0,0,1.216.413,6.334,6.334,0,0,1,1.425.47,2.079,2.079,0,0,1,.809.657,1.615,1.615,0,0,1,.263.936,1.758,1.758,0,0,1-.736,1.476,3.089,3.089,0,0,1-1.911.555,3.459,3.459,0,0,1-1.46-.292,2.375,2.375,0,0,1-.993-.816,1.966,1.966,0,0,1-.359-1.133h1.174a1.216,1.216,0,0,0,.473.936,1.835,1.835,0,0,0,1.165.346,1.894,1.894,0,0,0,1.07-.27A.829.829,0,0,0,50.266,28.178Z" transform="translate(1129.287 2890)" fill="#fff"/>
    <g id="Grupo_157041" data-name="Grupo 157041" transform="translate(725.678 2276.024) rotate(51)">
      <path id="Trazado_162177" data-name="Trazado 162177" d="M595.07,181.93l4.79,8.29,4.78-8.29Z" fill="#ff9d00"/>
    </g>
    <g id="Grupo_170641" data-name="Grupo 170641" transform="translate(1170.12 2858.189) rotate(129)">
      <path id="Trazado_162177-2" data-name="Trazado 162177" d="M0,8.29,4.79,0,9.57,8.29Z" transform="translate(0 0)" fill="#ff9d00"/>
    </g>
    <path id="Trazado_206874" data-name="Trazado 206874" d="M1278.3-8877.1l94.7-82.3,110.6,82.3" transform="translate(-319.713 11736.4)" fill="none" stroke="#ff9d00" stroke-width="1.5"/>
  </g>
</svg>
