<svg xmlns="http://www.w3.org/2000/svg" xmlns:xlink="http://www.w3.org/1999/xlink" width="179" height="179" viewBox="0 0 179 179">
  <defs>
    <filter id="Elipse_4062" x="0" y="0" width="179" height="179" filterUnits="userSpaceOnUse">
      <feOffset dy="3" input="SourceAlpha"/>
      <feGaussianBlur stdDeviation="3" result="blur"/>
      <feFlood flood-opacity="0.161"/>
      <feComposite operator="in" in2="blur"/>
      <feComposite in="SourceGraphic"/>
    </filter>
  </defs>
  <g id="Grupo_170660" data-name="Grupo 170660" transform="translate(-276 -2983)">
    <g id="Grupo_73416" data-name="Grupo 73416" transform="translate(0 2126.727)">
      <g transform="matrix(1, 0, 0, 1, 276, 856.27)" filter="url(#Elipse_4062)">
        <circle id="Elipse_4062-2" data-name="Elipse 4062" cx="80.5" cy="80.5" r="80.5" transform="translate(9 6)" fill="#fff"/>
      </g>
      <circle id="Elipse_4063" data-name="Elipse 4063" cx="62" cy="62" r="62" transform="translate(302 881.273)" fill="#7e5ee3"/>
    </g>
    <g id="Grupo_156236" data-name="Grupo 156236" transform="translate(265.146 3022.572)">
      <path id="Trazado_190721" data-name="Trazado 190721" d="M256.125,121.263a1.173,1.173,0,0,0,1.6.43l2.941-1.7-.447,1.669a1.172,1.172,0,0,0,2.265.606l1.053-3.933,3.228-1.862v3.7l-2.894,2.9a1.172,1.172,0,0,0,1.659,1.657l1.237-1.237v3.384a1.172,1.172,0,1,0,2.345,0v-3.386l1.239,1.239a1.172,1.172,0,1,0,1.659-1.657l-2.9-2.9v-3.7l3.228,1.864,1.055,3.931a1.172,1.172,0,0,0,2.265-.606l-.447-1.669,2.907,1.678a1.172,1.172,0,0,0,1.172-2.03l-2.931-1.7,1.716-.459a1.172,1.172,0,0,0-.608-2.265l-3.98,1.067-3.2-1.848,3.246-1.872c.111.012,4.246,1.182,4.238,1.094a1.174,1.174,0,0,0,.3-2.306l-1.669-.447,2.89-1.669a1.172,1.172,0,0,0-1.172-2.03l-2.919,1.684.459-1.713a1.172,1.172,0,0,0-2.265-.608l-1.067,3.98-3.216,1.856v-3.738l2.9-2.9a1.173,1.173,0,0,0-1.659-1.659l-1.239,1.241v-3.384a1.172,1.172,0,1,0-2.345,0v3.382l-1.237-1.239a1.173,1.173,0,0,0-1.659,1.659l2.9,2.9v3.74l-3.214-1.856-1.073-3.984a1.172,1.172,0,0,0-2.265.608l.459,1.716-2.945-1.7a1.172,1.172,0,0,0-1.172,2.03l2.931,1.688-1.669.447a1.174,1.174,0,0,0,.3,2.306c-.014.09,4.133-1.086,4.236-1.094l3.246,1.872-3.2,1.846-3.978-1.065a1.172,1.172,0,0,0-.608,2.265l1.714.459-2.976,1.716a1.173,1.173,0,0,0-.439,1.6Z" transform="translate(-145.622 -81.951)" fill="#fff"/>
      <path id="Trazado_190722" data-name="Trazado 190722" d="M83.49,94.18a1.563,1.563,0,0,0,1.563,1.563h7.556a1.563,1.563,0,0,0,1.573-1.553v-.805h11.978v.8a1.563,1.563,0,0,0,1.563,1.563h7.558a1.573,1.573,0,0,0,1.573-1.563v-.8h2.489a4.164,4.164,0,0,0,4.16-4.16V53.261a1.172,1.172,0,0,0-2.345,0v4.146H79.2V4.154a1.817,1.817,0,0,1,1.815-1.809h38.329a1.817,1.817,0,0,1,1.815,1.815v7.648a1.172,1.172,0,1,0,2.345,0V4.154A4.164,4.164,0,0,0,119.343,0H81.014a4.164,4.164,0,0,0-4.16,4.154V89.221a4.164,4.164,0,0,0,4.16,4.16H83.49Zm-4.3-4.955V59.748h41.971V89.221a1.815,1.815,0,0,1-1.815,1.815H81.014A1.817,1.817,0,0,1,79.2,89.221Z" fill="#fff"/>
      <path id="Trazado_190723" data-name="Trazado 190723" d="M112.027,83.09a1.172,1.172,0,0,0-1.172,1.172v25.646a1.172,1.172,0,0,0,2.345,0V85.435h1.217a1.172,1.172,0,0,0,0-2.345Z" transform="translate(-27.643 -67.552)" fill="#fff"/>
      <path id="Trazado_190724" data-name="Trazado 190724" d="M114.418,353.959h-2.39a1.172,1.172,0,0,0-1.172,1.172v14.117a1.172,1.172,0,0,0,2.345,0V356.314h1.217A1.177,1.177,0,0,0,114.418,353.959Z" transform="translate(-27.644 -287.769)" fill="#fff"/>
      <path id="Trazado_190725" data-name="Trazado 190725" d="M243.042,172.087a1.173,1.173,0,0,0-1.522.653c-6.106,14.94-27.779,12.81-30.872-2.986l1.426,1.43a1.172,1.172,0,1,0,1.717-1.6c-.019-.02-.038-.04-.058-.058l-4.029-4.035a1.172,1.172,0,0,0-1.862.27l-2.71,5.014a1.172,1.172,0,0,0,2.063,1.114l1.082-2.015c3.433,18.447,28.3,20.925,35.413,3.732a1.173,1.173,0,0,0-.649-1.522Z" transform="translate(-104.175 -134.267)" fill="#fff"/>
      <path id="Trazado_190726" data-name="Trazado 190726" d="M265.8,88.091a1.172,1.172,0,0,0-1.589.471v0l-1.084,2.009c-3.3-18.344-28.406-20.96-35.431-3.691a1.172,1.172,0,0,0,2.162.907l.016-.042c6.081-14.967,27.785-12.857,30.89,2.95l-1.426-1.43a1.172,1.172,0,0,0-1.659,1.657l4.023,4.035a1.172,1.172,0,0,0,1.862-.272l2.71-5.012A1.172,1.172,0,0,0,265.8,88.091Z" transform="translate(-122.559 -61.193)" fill="#fff"/>
      <path id="Trazado_190727" data-name="Trazado 190727" d="M166.468,27.972a1.172,1.172,0,0,0-1.172,1.172v5.813a1.172,1.172,0,0,0,1.172,1.172H177.7a1.172,1.172,0,0,0,1.172-1.172V29.144a1.172,1.172,0,0,0-1.172-1.172Zm10.059,5.813h-8.887V30.317h8.887Z" transform="translate(-71.903 -22.741)" fill="#fff"/>
    </g>
  </g>
</svg>
