<svg xmlns="http://www.w3.org/2000/svg" xmlns:xlink="http://www.w3.org/1999/xlink" width="400.287" height="352" viewBox="0 0 400.287 352">
  <defs>
    <clipPath id="clip-path">
      <rect id="Rectángulo_49326" data-name="Rectángulo 49326" width="397" height="352" transform="translate(0 -0.269)" fill="none"/>
    </clipPath>
    <clipPath id="clip-path-2">
      <path id="Trazado_206950" data-name="Trazado 206950" d="M616.9,1226.3a105.435,105.435,0,1,1-95.6-114.426A105.436,105.436,0,0,1,616.9,1226.3Z" transform="translate(-406.444 -1111.444)" fill="none"/>
    </clipPath>
  </defs>
  <g id="Grupo_170663" data-name="Grupo 170663" transform="translate(-180 -3847)">
    <path id="Trazado_206988" data-name="Trazado 206988" d="M1158.921,1383.933a105.488,105.488,0,0,0,19.8-32.9c11.149-30.779,7.9-67.88-21.742-90.993-40.861-31.866-80.135-33-100.153-52.126-24.128-23.051-34.142-52.429-54.117-77.562-41.291-51.952-132.117-85.13-218.081-78.974v332.55Z" transform="translate(-604.629 2815.067)" fill="#81d4fa" opacity="0.22" style="mix-blend-mode: multiply;isolation: isolate"/>
    <g id="Grupo_170657" data-name="Grupo 170657" transform="translate(-17.713 2938.27)">
      <g id="Grupo_170656" data-name="Grupo 170656" transform="translate(201 909)" clip-path="url(#clip-path)">
        <path id="Trazado_206925" data-name="Trazado 206925" d="M593.88,1129.171a123.014,123.014,0,1,1-12.033-13.964" transform="translate(-279.336 -986.962)" fill="none" stroke="#ffb819" stroke-miterlimit="10" stroke-width="3"/>
        <g id="Grupo_170655" data-name="Grupo 170655" transform="translate(111.342 109.716)">
          <path id="Trazado_206926" data-name="Trazado 206926" d="M616.9,1226.3a105.435,105.435,0,1,1-95.6-114.426A105.436,105.436,0,0,1,616.9,1226.3Z" transform="translate(-406.444 -1111.444)" fill="#fff"/>
          <g id="Grupo_170654" data-name="Grupo 170654">
            <g id="Grupo_170653" data-name="Grupo 170653" clip-path="url(#clip-path-2)">
              <g id="Grupo_170652" data-name="Grupo 170652" transform="translate(9.174 -2.947)">
                <path id="Trazado_206927" data-name="Trazado 206927" d="M496.905,1252.757a8.184,8.184,0,0,0-4.57-6.785c-1.818-.9-4.364-1.012-5.749-2.554a14.086,14.086,0,0,0-2.706-2.708c-1.344-.884-2.969-.673-4.416-1.385-1.613-.793-2.747-2.146-4.31-2.967a24.036,24.036,0,0,0-3.875-1.223c-2.374-.775-1.966-2.742-1.8-4.77.25-3.044-.938-4.656-3.372-6.449-1.145-.845-2.158-1.874-3.348-2.648-1.3-.849-3.014-.485-4.028-1.854a38.506,38.506,0,0,0-2.677-3.372c-1.372-1.49-1.982-3.6-2.914-5.377-1.042-1.989-2.421-3.107-4.665-2.56-1.187.288-2.357.49-2.885-.823a7.353,7.353,0,0,0-.562-1.284,3.923,3.923,0,0,0-2.264-1.878c-2.425-.493-4.953,1.434-6.648,3.763-.051-.038-.1-.082-.156-.114-1.112-.668-3.124-.456-3.73-1.666-.645-1.288-1.541-5.944-.824-7.014,1.47-2.191,6.067-6.435,3.33-9.251-.59-.607-4.726-2.549-2.975-3.775,1.28-.895,2.54-1.219,3.272-2.724a1.185,1.185,0,0,0-.335-1.392c-1.946-1.7-3.875-.987-5.961-.173a8.571,8.571,0,0,1-.21-2.774c.121-1.6,1.639-2.79,2.7-3.828a11.668,11.668,0,0,0,2.066-2.946,23.935,23.935,0,0,1,2.854-3.551c1.323-1.648,3.323-3.427,5.32-1.16.876.994,2.286-.2,2.755,1.695-1.219,2.527-1.218,5.592-3.1,7.96a1.018,1.018,0,0,0,1.586,1.275c1.176-1.349,3.029-2.677,3.376-4.561a15.587,15.587,0,0,0,.25-4.344c.81-1.137,2.633-1.223,3.837-1.583a11.7,11.7,0,0,0,3.778-2.2c2.573-2.025,4.71-4.287,7.471-6.1,2.1-1.374,3.066-1.624,5.571-1.088a5.9,5.9,0,0,0,3.3-.141c1.446-.488,2.387-1.548,4-1.871,1.658-.334,2.3.829,3.618,1.359,1.446.582,2.749-1.518,3.4-2.448.694-.991,1.426-2.848.114-3.752a15.956,15.956,0,0,0-2.678-1.105c-.294-.135-3.17-.423-1.3-1.874a5.661,5.661,0,0,0,1-1.013,1.2,1.2,0,0,0,.03-1.419c-.77-1.294-1.971-1.306.4-1.029,1.336.156,2.476,1.549,3.77,1.617,1.413.074,2.711-.086,3.294,1.606a11.917,11.917,0,0,0,1.054,2.275,2.394,2.394,0,0,0,2.853,1.043c1.364-.52,1.6-1.85,1.617-3.155a11.438,11.438,0,0,0-.609-4.508c-.622-1.416-.781-1.8.694-3.06a8.112,8.112,0,0,0,2.055-2.131c.713-1.349,1.043-3.5-.63-4.345a4.332,4.332,0,0,0-3.757.1c.2-2.021,2.057-4.614-.371-5.7-3.186-1.427-6.249,3.24-8.137,4.823a88.526,88.526,0,0,1-7.147,5.773,11.158,11.158,0,0,1-1.691.92c-.614.274-1.353.721-1.044-.092.469-1.232,1.5-2.374,1.84-3.593.718-2.542,4.753-3.685,2.94-6.765-1.484-2.524,2-2,3.26-2.02,1.918-.032,3.269-1.026,5.028-1.618,1.727-.582,2.864-.694,4.183.366,1.1.879,2.451.262,3.606-.15a42.236,42.236,0,0,0,4.987-2.546q.741-.233,1.462-.519,1.31-.684.492.422c-.062,1.115-1.176,1.926-1.787,2.747a1.157,1.157,0,0,0,.7,1.844c3.359.635,5.849-3.6,6.1-6.446.32-3.636-4.145-3.626-6.676-3.694-.956-.026-2.165-.165-3.283-.141a3.063,3.063,0,0,0,2.36-.964,2.036,2.036,0,0,0-.594-2.921c-.809-.487-3.455-.638-1.562-2.429a9.449,9.449,0,0,0,1.914-2.2,1.155,1.155,0,0,0-.582-1.526c-4.231-1.816-8.975.353-12.613,2.5-5.892,3.482-11.887,6.4-17.539,10.316-5.724,3.97-11.278,8.181-16.834,12.38-3.438,2.6-6.416,6.434-9.074,10.175.008.14.008.281.01.422a6.526,6.526,0,0,0-3.075,4.021c-.629,3.609-2.717,6.784-4.255,10.044-.836,1.772-1.292,3.694-2.223,5.427-.835,1.553-1.919,2.958-2.761,4.511-.088.162-.184.325-.282.488-.009.009-.015.017-.023.026s-.014.031-.021.047a12.007,12.007,0,0,0-2,3.957c-.086.5-.151,1.009-.208,1.518-.149.331-.307.653-.481.965-.2,1.28-.308,2.578-.424,3.856-.179,1.988.524,3.986,1.039,5.876.689,2.535,1.048,5.2,1.648,7.761.586,2.511.689,6.377,2.275,8.718.015.055.019.111.039.167.622,1.833,1.018,3.644,1.561,5.5a3.565,3.565,0,0,0,2.94,2.48,4.974,4.974,0,0,1,2.015.425,8.677,8.677,0,0,0-.718,2.038,12.16,12.16,0,0,1-3.068,6.165c-1.6,1.871-.628,4.581-1.3,6.737-.693,2.229-1.692,3.984-1.689,6.385,0,1.958,1.5,4.6,2.48,6.206,1.242,2.033,2.9,3.718,4.082,5.8a6.989,6.989,0,0,1,1.048,4.845,6.529,6.529,0,0,0,.228,2.581c.327,1.128.99,2.163,1.348,3.291a30.612,30.612,0,0,0,1.131,3.561,14.223,14.223,0,0,0,1.392,2.168c1.058,1.51,1.152,3.42,1.481,5.179.907,4.846,1.22,10.02,2.759,14.707.719,2.193,1.851,4.249,2.716,6.385s1.716,3.967,3.621,5.306,4.273,1.988,6.121,3.45,3.343,3.481,5.059,5.1a10.845,10.845,0,0,1,1.471,1.753c.384.783.8,1.558,1.186,2.356a7.067,7.067,0,0,0,.625,1.038,17.8,17.8,0,0,1,.617,1.788c.615,2.159,3.039,4.028,4.245,5.882a1.126,1.126,0,0,0,1,.568c1.34,1.6,2.769,3.131,4.07,4.758a.847.847,0,0,0,1.366-1c-2.548-4.35-5.107-8.749-7.844-13-1.262-1.958-2.643-3.9-3.113-6.243a15.79,15.79,0,0,1,.08-3.084,6.171,6.171,0,0,0-1.008-2.545c-.508-1.06-1.157-1.649-1.3-2.9-.219-1.92,1.164-.422,1.85.063a3.254,3.254,0,0,0,4.013-.021c1.217-.756,1.964-2.378,2.565-3.61.335-.691.613-1.417.893-2.132.423-1.084.132-2.293.745-3.318a.966.966,0,0,0,.1-.888,2.383,2.383,0,0,1,.409-.152c.807-.222,1.293-.846,2.169-.988.333-.056,1.017.166,1.4-.013a10.1,10.1,0,0,0,3.089-2.223c1.248-1.282,4.108.208,5.686-.179a7.27,7.27,0,0,0,4.8-5.224c.361-1.447-.336-3.282-.6-4.7-.379-2.069,1.529-5.494,3.047-6.925C494.947,1257.164,497.04,1255.506,496.905,1252.757Zm-63.074-94.1c-.273.711-.566,1.407-.883,2.081-.088.115-.178.229-.268.342.034-.087.072-.17.1-.257A15.646,15.646,0,0,1,433.831,1158.661Z" transform="translate(-423.372 -1106.742)" fill="#fccf49"/>
                <path id="Trazado_206928" data-name="Trazado 206928" d="M598.8,1130.762a3.687,3.687,0,0,0-.064-2.684c-.416-1.109-1.782-1.137-1.353-2.356a1,1,0,0,0-.271-1.122c-.817-.825-2.2-.726-3.281-.749a4,4,0,0,0-1.651.514c-.392.173-.294-.843-.68-1.168-1.522-1.281-3.605-1.118-5.508-1.2-2.236-.09-4.53-1.108-6.584.082a1.984,1.984,0,0,0-.365,2.81,2,2,0,0,0,1.062.662,4.274,4.274,0,0,0,1.116.184c1.193.118.014.278-.421.629a4.336,4.336,0,0,0-2.118,3.914c-.134,1.5-1.3,2.389-1.86,3.64-1.34,1.241-1.787,3.36-2.871,4.829-.656.892-2.031,4.943-.937,5.9,1.752,1.539,3.557-1.159,4.682-2.206,3.146-2.926,6.375-4.57,10.617-3.433.8.216,1.6-.432,2.166-.881,1.139-.9,2.683-.785,3.819-1.536,1.328-.88,4.16-.888,3.663-3.2-.158-.735-.842-.9-1.474-1.148C597.082,1132.488,598.621,1131.32,598.8,1130.762Z" transform="translate(-491.724 -1113.107)" fill="#fccf49"/>
                <path id="Trazado_206929" data-name="Trazado 206929" d="M620.252,1156.845a1.492,1.492,0,0,0-.347-.371c.777-.371.463-1.769-.577-1.8a4.343,4.343,0,0,0-2.313.611l-.012,0a5.427,5.427,0,0,1-1.188-.046c-.8-.025-2.124-.127-2.629.654a1.128,1.128,0,0,0,.041,1.377.029.029,0,0,0,.007.013c.585,1.077,2.329.766,3.355.938,1.123.189,2.741.605,3.639-.32A.875.875,0,0,0,620.252,1156.845Z" transform="translate(-510.218 -1128.298)" fill="#fccf49"/>
                <path id="Trazado_206930" data-name="Trazado 206930" d="M641.6,1132.347c-.193-.068-.392-.135-.59-.2a2.02,2.02,0,0,1-.22-.139,2.044,2.044,0,0,0,.21-.341c.392-.808-.576-1.375-1.235-1a1.09,1.09,0,0,1-.352.12.612.612,0,0,1-.189-.087.658.658,0,0,0-.869.065,2.218,2.218,0,0,0-.528.018.924.924,0,0,0-.486,1.625,11.151,11.151,0,0,0,3.277,1.45,2.417,2.417,0,0,0,.481.153C642.063,1134.193,642.548,1132.686,641.6,1132.347Z" transform="translate(-521.219 -1117.247)" fill="#fccf49"/>
                <path id="Trazado_206931" data-name="Trazado 206931" d="M553.127,1145.593a9.372,9.372,0,0,0-.184-.925,1.472,1.472,0,0,0-.687-.937.481.481,0,0,0-.76-.165,1.708,1.708,0,0,0-1.346.884c-.008.017-.014.032-.023.048a1.017,1.017,0,0,0-.5-.036,1.3,1.3,0,0,0-1.157,1.168c-.1,1.231,1.135,2.385,1.9,3.211a1.635,1.635,0,0,0,2.674-.287,1.947,1.947,0,0,0,.836.049.809.809,0,0,0,.7-.657C554.759,1146.876,553.849,1146.287,553.127,1145.593Z" transform="translate(-480.669 -1123.153)" fill="#fccf49"/>
                <path id="Trazado_206932" data-name="Trazado 206932" d="M455.943,1248.4a2.021,2.021,0,0,0-.2-.109l.005-.01a1.7,1.7,0,0,1-.184-.08,4.206,4.206,0,0,0-.74-.575,4.051,4.051,0,0,1-.474-.665.65.65,0,0,0-.166-.31,11.448,11.448,0,0,1-.889-2.871,3.1,3.1,0,0,0-.247-.76c-.035-.111-.067-.224-.1-.333-.486-1.553-1.516-3.028-3.268-3.091a.924.924,0,0,0-.726,1.618,13.32,13.32,0,0,1,1.209,1.324c.373.445,1.006.82,1.264,1.34a3.471,3.471,0,0,1,.214.57c.083.372.148.714.2.97a6.287,6.287,0,0,0,.742,2.512,1.735,1.735,0,0,0,.194.219,1.691,1.691,0,0,0,.414.781,2.981,2.981,0,0,0,1.2.636,2.521,2.521,0,0,0,.632.34C455.9,1250.2,456.859,1248.994,455.943,1248.4Z" transform="translate(-434.936 -1167.197)" fill="#fccf49"/>
                <path id="Trazado_206933" data-name="Trazado 206933" d="M454.7,1262.286a.392.392,0,0,0-.1.021c-.293-.179-.645.19-.481.494,0,.011-.01.023-.012.034a.733.733,0,0,0,.544.821c.057.01.114.089.174.089h.036c.078.542.152.112.219.2a.519.519,0,0,0,.817-.01C456.546,1263.031,455.558,1262.3,454.7,1262.286Z" transform="translate(-437.44 -1177.577)" fill="#fccf49"/>
                <path id="Trazado_206934" data-name="Trazado 206934" d="M467.971,1264.28c-.643-.873-1.733-.981-2.371-1.783a2.685,2.685,0,0,0-.635-1.028.815.815,0,0,0-1.267.113.888.888,0,0,0-.932,1.368c.168.284.52.528.508.593-.29-.073-.614-.158-.923-.243a8.458,8.458,0,0,0-1.38-.418.766.766,0,0,0-.318,1.5c1.115.247,2.329,1.234,3.452.774a.947.947,0,0,0,.974.649,1.441,1.441,0,0,0,.233-.024,1.834,1.834,0,0,0,2.248.739A1.465,1.465,0,0,0,467.971,1264.28Z" transform="translate(-440.169 -1177.098)" fill="#fccf49"/>
                <path id="Trazado_206935" data-name="Trazado 206935" d="M480.418,1271.485c-.018-.056-.038-.113-.057-.168a.847.847,0,0,0-1.513-.12l-.151.028c-.207.036-.3.348-.074.436a.97.97,0,0,0,.776,1.07A.937.937,0,0,0,480.418,1271.485Z" transform="translate(-448.619 -1181.483)" fill="#fccf49"/>
                <path id="Trazado_206936" data-name="Trazado 206936" d="M563.5,1118.791a2.539,2.539,0,0,0-1.375-.288.7.7,0,0,0-.552.181c-.016.013-.031.028-.047.042a.546.546,0,0,0-.047.048.763.763,0,0,0-.084.109l-.008.012a.7.7,0,0,0-.056.108l-.02.045c-.009.026.2.071.188.1s.2.055.2.074,0,.015,0,.024c0,.026-.214.031-.214.057s-.109.057-.107.09c0,0-.054,0-.054.005s-.022.015-.019.024a.7.7,0,0,0,.01.123c0,.012,0,.024.008.037a.748.748,0,0,0,.036.092.826.826,0,0,0,.573.438l.016.006a2.637,2.637,0,0,0,.609.093,2.5,2.5,0,0,0,.912-.151A.692.692,0,0,0,563.5,1118.791Z" transform="translate(-486.547 -1111.727)" fill="#fccf49"/>
                <path id="Trazado_206937" data-name="Trazado 206937" d="M572.323,1125.968l-.215-.052c.018.005-.182-.049-.1-.025a.925.925,0,0,0-.261-.039l0-.012a2.911,2.911,0,0,1-.1-.4c-.034-.158-.26-.233-.334-.055-.121.3-.325.68-.168,1,.228.462.7.46,1.149.435C572.805,1126.793,572.777,1126.076,572.323,1125.968Z" transform="translate(-491.032 -1114.836)" fill="#fccf49"/>
                <path id="Trazado_206938" data-name="Trazado 206938" d="M577.266,1127.28a1.864,1.864,0,0,0-.767.3c-.021.013-.042.029-.062.044a.784.784,0,0,0-1.022.4.8.8,0,0,0,.394,1.032,1.376,1.376,0,0,0,1.419-.053,1.678,1.678,0,0,0,.428-.4,1,1,0,0,0,.179-.4l.013-.048a.417.417,0,0,0,.014-.04C577.994,1127.738,577.742,1127.182,577.266,1127.28Z" transform="translate(-492.983 -1115.745)" fill="#fccf49"/>
                <path id="Trazado_206939" data-name="Trazado 206939" d="M574.362,1120.038a2.067,2.067,0,0,0-1.094.032,1.922,1.922,0,0,0-.386.165,1,1,0,0,0-.557.746.761.761,0,0,0,.815.874,1.156,1.156,0,0,0,.827-.476c-.1.1.059-.032.112-.074.011,0,.027-.01.062-.027a.524.524,0,0,1,.18-.04A.608.608,0,0,0,574.362,1120.038Z" transform="translate(-491.591 -1112.406)" fill="#fccf49"/>
                <path id="Trazado_206940" data-name="Trazado 206940" d="M565.771,1122.5c-.706-.063-.89,1.026-.181,1.089S566.48,1122.56,565.771,1122.5Z" transform="translate(-488.309 -1113.558)" fill="#fccf49"/>
                <path id="Trazado_206941" data-name="Trazado 206941" d="M574.711,1123.227c-.757-.068-.953,1.1-.193,1.168S575.472,1123.294,574.711,1123.227Z" transform="translate(-492.383 -1113.892)" fill="#fccf49"/>
                <path id="Trazado_206942" data-name="Trazado 206942" d="M643.388,1186.736a1.985,1.985,0,0,0-.357-.609,1.749,1.749,0,0,0,.146-2.064,1.411,1.411,0,0,0-1.433-.577.961.961,0,0,0-.984-.041,1.559,1.559,0,0,0-.793,1.386,1.046,1.046,0,0,0,.065.361.878.878,0,0,0-.474.852,1.323,1.323,0,0,0,.519.894,2.311,2.311,0,0,0-.363.914.836.836,0,0,0,1.113.91,10.3,10.3,0,0,0,2.285-1.089A.818.818,0,0,0,643.388,1186.736Z" transform="translate(-522.393 -1141.422)" fill="#fccf49"/>
                <path id="Trazado_206943" data-name="Trazado 206943" d="M652.176,1182.232c-.477-.048-.942-.1-1.4-.178.208-1.148-1.565-2.335-2.875-3.25a10.631,10.631,0,0,1-1.574-2.166,4.744,4.744,0,0,1-.364-.942.194.194,0,0,0,.006-.03.789.789,0,0,0-.437-1.049,1.742,1.742,0,0,0-1.257-.625c-1.055-.155-1.627,1.477-.555,1.84a.738.738,0,0,1,.347.389,2.5,2.5,0,0,0,.333,1.691,11.514,11.514,0,0,0,1.4,1.968c.532.576,1.273,1.013,1,1.874a1.685,1.685,0,0,0,.97,2c-.028.064-.058.138-.094.229q-.194.289-.373.589a2.852,2.852,0,0,0-.39,1.492,1.117,1.117,0,0,0,1.5.933c1.355-.606,2.889-1.283,3.555-2.611a4.617,4.617,0,0,0,.772-.657A.935.935,0,0,0,652.176,1182.232Z" transform="translate(-524.037 -1137.142)" fill="#fccf49"/>
                <path id="Trazado_206944" data-name="Trazado 206944" d="M688.144,1225.99a4.679,4.679,0,0,0-.041-1.611,1.928,1.928,0,0,0-1.423-1.426.988.988,0,0,0-.778,1.734c.133.105.235.165.311.219a.272.272,0,0,0,.026.037v0c-.092-.125.007.093,0,.025a3.035,3.035,0,0,1,.021.874.959.959,0,0,0,1.022,1.093A.981.981,0,0,0,688.144,1225.99Z" transform="translate(-543.463 -1159.56)" fill="#fccf49"/>
                <path id="Trazado_206945" data-name="Trazado 206945" d="M685.989,1216.614a.282.282,0,0,0-.134-.469l-.277-.076c-.181-.051-.326.11-.369.264s-.076.3-.132.447a.447.447,0,0,0,.22.574.692.692,0,0,0,.621.043A.439.439,0,0,0,685.989,1216.614Z" transform="translate(-543.228 -1156.415)" fill="#fccf49"/>
                <path id="Trazado_206946" data-name="Trazado 206946" d="M674.671,1225.924a1.148,1.148,0,0,0-.137-.237l-.022-.035a.608.608,0,0,0-.5-.546.64.64,0,0,0-.733.685.961.961,0,0,0,.163.494,1.6,1.6,0,0,0,.107.128c.072.079.026.017.018-.031a.581.581,0,0,0,1.146.04A1,1,0,0,0,674.671,1225.924Z" transform="translate(-537.838 -1160.555)" fill="#fccf49"/>
                <path id="Trazado_206947" data-name="Trazado 206947" d="M701.748,1230.314a.761.761,0,0,0-.442-.765,1.264,1.264,0,0,0-.417-.128,1.044,1.044,0,0,0-1.032.5,1.1,1.1,0,0,0-.2-.1.065.065,0,0,1,.005.015.951.951,0,0,0-.973.087.971.971,0,0,0-.206,1.352,5.917,5.917,0,0,0,.946.83,1.782,1.782,0,0,0,1.342.47,1.416,1.416,0,0,0,1.138-1.388A1.843,1.843,0,0,0,701.748,1230.314Z" transform="translate(-549.299 -1162.533)" fill="#fccf49"/>
                <path id="Trazado_206948" data-name="Trazado 206948" d="M711.494,1211.671a1.955,1.955,0,0,0-1.865-2.311,1.108,1.108,0,0,0-1.283.923c-1.2.806-2.863,2.213-3.548.622a12.4,12.4,0,0,0-1.8-3.273c-1.114-1.37-2.365-2.169-3.208-3.8a24.941,24.941,0,0,0-1.694-2.658,13.456,13.456,0,0,0-3.456-8.166c-.055-.169-.1-.339-.16-.508.974,1.24,1.924,2.494,2.827,3.8a33.794,33.794,0,0,0,3.5,4.74c2.092,2.142,4.524,4.252,4.315,7.557a1.04,1.04,0,0,0,.845,1.183c.1.008.193.015.287.021a1.037,1.037,0,0,0,1.177-.842c.418-4.479,2.407-8.541,3.088-12.964a36.8,36.8,0,0,0,.061-5.662c-.018-2.182-2.151-3.637-2.263-5.847a1.254,1.254,0,0,0-.726-1.144c3.184-.061,2.861-7.066,2.887-8.962.032-2.3.3-4.764-.464-6.958-.847-2.431-2.588-4.481-3.551-6.9a74.9,74.9,0,0,0-8.772-16.593c-7.1-9.86-16.9-17.352-26.876-24.061a75.5,75.5,0,0,0-15.474-8.031c-6.085-2.276-11.8-4.351-18.305-4.934a2,2,0,0,0-1.532.476,6.657,6.657,0,0,1-.86-.91c-.925-1.21-2.837.183-1.909,1.4a7.99,7.99,0,0,0,2.1,1.788,1.652,1.652,0,0,0,1.541,1.2c.082.008.165.02.25.027,1.257.9,3.3,2.447,3.311,3.4.041,2.818,3.953,3.618,6.021,4.541.674.3,4.041.76,3.671,1.588a2.029,2.029,0,0,0,.513,2.264,5.38,5.38,0,0,0,3.221,1.15,12.1,12.1,0,0,1,2.789.6,18.453,18.453,0,0,0-.126,3.942c.094,1.481.687,2.006,1.8,2.969-.257-.223,1.156,1.723.1.537a1.912,1.912,0,0,0-.972-.57c-.522-.125-1.522-.148-2.5-.239a1.366,1.366,0,0,0,.87-.45,2.574,2.574,0,0,0-.41-3.292,1.01,1.01,0,0,0-1.213-.027c-1.959,1.211-4.471-1.814-6.355-.844-1.755.9-3.887,1.821-4.311,3.973a9.658,9.658,0,0,0-.156,3.129,3.822,3.822,0,0,1-.723,3.351,2.528,2.528,0,0,0-.668,1.119,8.591,8.591,0,0,0,2.311,6.227,1.245,1.245,0,0,0,1.893-.455c.258-.508.674-1.9,1.5-1.744a3.485,3.485,0,0,1,2.184,2.741c-.066.749.677,1.635,1.494,1.221a4.556,4.556,0,0,0,.423-.181,1.119,1.119,0,0,0,1.444-.86c.187-.861.745-2.327.409-3.2-.667-1.75-3.313-1.8-2.956-4.231a4.854,4.854,0,0,0-.088-2.023c-.025-.127-.919-2.43-.658-2.346,2.326.76,1.355,3.37,1.979,5,.847,2.223,4.355,1.971,5.833.732.1-.085,1.643-1.615,1.919-1.083.258.5,1.152.727.169,1.462-1.041.781-2.315,1.661-2.725,2.949a.992.992,0,0,0,.482,1.267c.616.347.088,1.015.419,1.591,1.245,2.165-2.04,2.241-3.272,2.149a4.892,4.892,0,0,0-2.348.576,7.339,7.339,0,0,1-2.818-.784,3.184,3.184,0,0,1-.044-.96.976.976,0,0,0-1.71-.766,1.593,1.593,0,0,0-.355,1.789c-.08,1-.01,2.113.876,2.426a10.751,10.751,0,0,0,1.229.346c-1.715.737-1.667,2.151-3.231,3.315-1.1.816-2.671.139-3.335,1.62-.592,1.321-2.78,1.208-3.8,2.258-.422.437-.972,1.375-.294,1.887,1.752,1.32,3.47,2.075,4.261,4.3.766,2.155-5.981,1.735-6.581,1.811a1.447,1.447,0,0,0-1.245.955,3.266,3.266,0,0,0-.62-.214.489.489,0,0,0-.56.4,9.429,9.429,0,0,0,.6,4.7,5.683,5.683,0,0,1,.172,3.426,1.521,1.521,0,0,0,.2,1.084c.56.762,1.442.759,2.3.815,1.024.067,2.115,1.774,3.18,2.068a1.394,1.394,0,0,0-1.269.669c-1.072,1.336-.371,3.723-1.6,5.014a1.8,1.8,0,0,0-1.1-.545,1.219,1.219,0,0,0-1.278.686c-1.3,2.367-.846,4.812-2.8,6.967-.936,1.031-2.037,2.113-2.882,3.2-.952,1.22-2.154,2.039-3.169,3.172-1.549,1.733-1.742,4.692-2.912,6.7-1.254,2.155,1.29,5.361-.507,7.137a1.338,1.338,0,0,0-.308.2c-.1.088-.206.175-.311.263a1.275,1.275,0,0,0-.006,2.044,8.584,8.584,0,0,0-.594,3.14,1.017,1.017,0,0,0,.371.871,6.594,6.594,0,0,0,2.37,5.507c1.046.831,1.882,1.19,2.2,2.688a6.007,6.007,0,0,0,.966,2.435,17.183,17.183,0,0,0,4.644,4.285c.913.439,1.9.424,2.77.932a16.193,16.193,0,0,0,3.269,1.593c1.2.362,1.013.8,2.192.587,1.352-.239,2.6-.63,3.987-.762,1.194-.114,4.362.65,5.4-.505a10.524,10.524,0,0,1,3.095-2.249,2.38,2.38,0,0,1,.575-.016c1.154.113,3.372-2.824,4.549-1.318.712.914,1.745.757,2.079,1.867.8,2.665,2.411,3.212,5.058,2.581,2.291-.547.249,2.393-.1,3.555a38.423,38.423,0,0,0-.909,5.529c-.23,1.661.787,3.381,1.517,4.783.908,1.743,1.386,3.609,2.149,5.414.785,1.855-.4,5.806-.722,7.746a11.174,11.174,0,0,1-1.238,4.013c-.6.989-1.66,1.664-2.23,2.654a7.452,7.452,0,0,0-.638,4.762,16.813,16.813,0,0,1-.631,7.15,8.683,8.683,0,0,0-.607,3.629,1.636,1.636,0,0,0,.414.782c-.19.547-.351,1.1-.5,1.661a26.326,26.326,0,0,0-.921,7.662,1.046,1.046,0,0,0,1.142.944,15.9,15.9,0,0,0,8.948-5.062c1-1.128,1.9-2.184,3.491-2.424a8.229,8.229,0,0,0,1.926-.232c2.071-.859,3.227-2.987,4.5-4.737a26.95,26.95,0,0,0,2.861-5.4c1.11-2.6,2.8-4.076,4.781-6,1.772-1.72,2.965-3.809,4.617-5.61,1.075-1.172,2.41-2.18,2.884-3.764a97.133,97.133,0,0,0,3.567-14.361c.157-1.128.186-2.266.342-3.4.187-1.352,1.741-2.67,2.346-3.829a60.746,60.746,0,0,0,3.279-7.314c.948-2.6,2.114-5.107,2.976-7.732.868-2.65,1.486-5.382,2.61-7.935C711.527,1216.223,711.391,1213.524,711.494,1211.671Zm-65.051-37.193c-.37-2.132-.378-3.826,1.428-5.362,1.084-.921,3-1.271,3.461-2.746a.615.615,0,0,0-.012-.435,4.934,4.934,0,0,1,3.456-1.093,2.02,2.02,0,0,0,1.672-.508c.853,1.268,1.515,2.62,3.171,3.051,1.838.479,3.383.515,4.544,2.279a23.085,23.085,0,0,0,1.492,2.141c.678.819.534.859.564.536,0,.021,0,.039-.006.061-.039.445.222,1.047.771.952a1.156,1.156,0,0,0,.9-.434.786.786,0,0,0,.142-.769c-.587-1.095-1.118-2.234-1.761-3.309a.07.07,0,0,0-.016-.033,11.292,11.292,0,0,0-2.1-2.659,3.769,3.769,0,0,0-2.339-.524c-.334-.375-.677-.75-1.054-1.1-1.14-1.068-2.1-1.713-2.718-3.206-.023-.055-.042-.106-.063-.159a5.386,5.386,0,0,1,4.305,1.557c1.542,1.611,3.488,2.431,4.35,4.636.3.775.742,2.407,1.712,2.715a12.1,12.1,0,0,1,2.094.714c.669.706.934,1.769,1.7,2.4,1.119.935,3.631,1.456,3.975-.6a2.76,2.76,0,0,0-1.125-2.286c-.174-.181-1.545-1.606-1.078-1.794a11.788,11.788,0,0,1,2.312-.75,3.575,3.575,0,0,0,.111.542c.39,1.38-.389,3.6,1.5,4.211a18.023,18.023,0,0,0,7.02.455c4.009-.321,2.516,3.148,3.25,5.6,1.186,3.962-4.956,1.735-7.138,2.423-1.746.55-4.82-.348-6.071,1.5-.551.811-.522,1.928-1.6,1.643a20.532,20.532,0,0,1-4.936-2.477c-1.411-.876-2.683-2.124-4.43-2.288-.882-.081-.792-.47-1.523-1.058-.856-.688-1.037.581-.476-1.056,1.684-4.916-6.788-1.755-8.4-1.269a31.671,31.671,0,0,1-4.132.7,17.855,17.855,0,0,0-3.467,1.3c-1.364.531-2.936.385-4.129,1.078a14.065,14.065,0,0,0-1.462-.713.918.918,0,0,0,.435-.054c1.389-.529,2.824-.8,4.183-1.372A2.423,2.423,0,0,0,646.443,1174.479Zm29.824-16.655c.562.851,1.2,1.648,2.356,1.207a1.32,1.32,0,0,0,.943-1.283,2.849,2.849,0,0,0,1.425,1.507c1.45.728,2.617.8,3.59,2.383.757,1.232,1.226,2.313-.578,2.661-1.968.382-4.1.477-6.02.978-.035.009-.064.024-.1.034a5.467,5.467,0,0,1-1.251-4.649A18.28,18.28,0,0,0,676.267,1157.824Zm28.1,30.362a17.908,17.908,0,0,1-2.844-6.4,5.36,5.36,0,0,0,1.352.469,21.1,21.1,0,0,1,2.339.208c.615.206,1.048.566,1.6.756a1.646,1.646,0,0,0-1.289.805,13.133,13.133,0,0,0-1.077,2.875A4.594,4.594,0,0,0,704.368,1188.186Z" transform="translate(-514.076 -1106.006)" fill="#fccf49"/>
                <path id="Trazado_206949" data-name="Trazado 206949" d="M764.629,1375.779a.378.378,0,0,0-.751.072c-.022,1.919-1.327,4.647-2.016,6.451-.092.243-.186.479-.284.708a.909.909,0,0,0-1.355.246,14.168,14.168,0,0,0-.911,2.568,1.574,1.574,0,0,0-.445.507,4.518,4.518,0,0,0-.43,1.517c-.109.173-.215.342-.315.5-.686,1.108-1.046,2.307-1.675,3.444-1.069,1.935-2.966,3.178-3.948,5.123-.367.722.473,1.7,1.242,1.315,1.5-.746,2.671-2.458,3.7-3.778a.7.7,0,0,0,.517-.486c.075-.214.165-.419.25-.629a11.435,11.435,0,0,0,1.68-4.192c.135-.45.271-.917.412-1.393.288-.5.566-1.011.8-1.534.216-.2.448-.406.687-.655a8.677,8.677,0,0,0,1.271-2.729C763.876,1380.846,764.906,1377.944,764.629,1375.779Z" transform="translate(-574.085 -1229.422)" fill="#fccf49"/>
              </g>
            </g>
          </g>
        </g>
        <path id="Trazado_206951" data-name="Trazado 206951" d="M654.775,1199.783a6.667,6.667,0,0,0-6.667,6.667c0,3.682,6.667,13.167,6.667,13.167s6.667-9.485,6.667-13.167A6.667,6.667,0,0,0,654.775,1199.783Zm0,10a3.334,3.334,0,1,1,3.333-3.333A3.334,3.334,0,0,1,654.775,1209.784Z" transform="translate(-405.794 -1042.191)" fill="#19343d"/>
        <path id="Trazado_206952" data-name="Trazado 206952" d="M674.513,1162.5a6.667,6.667,0,0,0-6.667,6.667c0,3.682,6.667,13.167,6.667,13.167s6.667-9.485,6.667-13.167A6.667,6.667,0,0,0,674.513,1162.5Zm0,10a3.334,3.334,0,1,1,3.334-3.333A3.334,3.334,0,0,1,674.513,1172.5Z" transform="translate(-414.835 -1025.114)" fill="#19343d"/>
        <path id="Trazado_206953" data-name="Trazado 206953" d="M462.451,1231.5a6.667,6.667,0,0,0-6.667,6.667c0,3.682,6.667,13.167,6.667,13.167s6.667-9.485,6.667-13.167A6.667,6.667,0,0,0,462.451,1231.5Zm0,10a3.334,3.334,0,1,1,3.333-3.333A3.333,3.333,0,0,1,462.451,1241.5Z" transform="translate(-317.702 -1056.719)" fill="#19343d"/>
        <path id="Trazado_206954" data-name="Trazado 206954" d="M527.2,1344.4a6.667,6.667,0,0,0-6.667,6.667c0,3.681,6.667,13.167,6.667,13.167s6.667-9.485,6.667-13.167A6.667,6.667,0,0,0,527.2,1344.4Zm0,10a3.334,3.334,0,1,1,3.334-3.333A3.334,3.334,0,0,1,527.2,1354.4Z" transform="translate(-347.359 -1108.43)" fill="#19343d"/>
        <path id="Trazado_206955" data-name="Trazado 206955" d="M303.853,1479.439l33.639,39.554,14.541-45.277Z" transform="translate(-248.111 -1167.664)" fill="#fff"/>
        <path id="Trazado_206956" data-name="Trazado 206956" d="M421.641,1410.647l46.346-6.979L434.3,1364.055Z" transform="translate(-302.063 -1117.434)" fill="#fff"/>
        <path id="Trazado_206957" data-name="Trazado 206957" d="M393.178,1455.581l-10.81,1.373-16.233,45.567,76.627-65.167-46.871,8.573Z" transform="translate(-276.639 -1151.008)" fill="#fff"/>
        <path id="Trazado_206958" data-name="Trazado 206958" d="M380.181,1363.875l.028-.1-17.5,56.087-59.349,9.268.243-.029,48.181-5.722-14.542,45.277,16.3-45.486,10.878-1.291,2.644-9.735,46.8-8.655-46.347,6.979Z" transform="translate(-247.885 -1117.306)" fill="#e3e3ee"/>
        <path id="Trazado_206959" data-name="Trazado 206959" d="M362.712,1419.866l17.5-56.087-.125.107-.014-.017.048-.013-76.574,65.123-.018-.014.014.016-.179.152Z" transform="translate(-247.887 -1117.308)" fill="#fff"/>
        <path id="Trazado_206960" data-name="Trazado 206960" d="M271.645,1428.829l19.578,48.093,27.975-38.456Z" transform="translate(-233.358 -1147.104)" fill="#fff"/>
        <path id="Trazado_206961" data-name="Trazado 206961" d="M394.235,1399.089l46.2,7.87-19.606-48.164Z" transform="translate(-289.51 -1115.025)" fill="#fff"/>
        <path id="Trazado_206962" data-name="Trazado 206962" d="M348.233,1444.266l-10.7-2.077-29.673,38.2,93.167-37.927-47.2-6.519Z" transform="translate(-249.948 -1150.363)" fill="#fff"/>
        <path id="Trazado_206963" data-name="Trazado 206963" d="M364.527,1358.666l.057-.087-34.167,47.8-59.269-9.762.241.048,47.552,9.637-27.975,38.455,29.713-38.1,10.736,2.176,5.557-8.419,47.161,6.42-46.2-7.87Z" transform="translate(-233.131 -1114.926)" fill="#e3e3ee"/>
        <path id="Trazado_206964" data-name="Trazado 206964" d="M330.42,1406.383l34.167-47.8-.152.063-.008-.021.05,0-93.1,37.9-.013-.019.008.02-.217.089Z" transform="translate(-233.132 -1114.929)" fill="#fff"/>
        <path id="Trazado_206965" data-name="Trazado 206965" d="M258,1371.636v51.924l40.41-25.07Z" transform="translate(-227.108 -1120.907)" fill="#fff"/>
        <path id="Trazado_206966" data-name="Trazado 206966" d="M370.513,1398.786l39.827,24.709v-52Z" transform="translate(-278.644 -1120.842)" fill="#fff"/>
        <path id="Trazado_206967" data-name="Trazado 206967" d="M309.5,1429.189l-9.123-5.912-41.887,24.238H359.078l-41.26-23.878Z" transform="translate(-227.332 -1144.56)" fill="#fff"/>
        <path id="Trazado_206968" data-name="Trazado 206968" d="M358.906,1371.444l.086-.059-49.667,31.389-51.213-31.389.2.136,40.409,26.854-40.409,25.07,41.887-24.088,9.123,6.063,8.321-5.7,41.26,23.727-39.827-24.709Z" transform="translate(-227.159 -1120.792)" fill="#e3e3ee"/>
        <path id="Trazado_206969" data-name="Trazado 206969" d="M309.274,1402.388,358.941,1371H358.8v.19l.017-.19H258.3l-.3.19V1371h.06Z" transform="translate(-227.108 -1120.616)" fill="#fff"/>
        <rect id="Rectángulo_49315" data-name="Rectángulo 49315" width="60.6" height="54.312" transform="matrix(0.989, -0.15, 0.15, 0.989, 292.923, 263.763)" fill="#e7a20c"/>
        <path id="Trazado_206970" data-name="Trazado 206970" d="M814.289,1357.185l-59.883,9.078-12.915,11.787,59.883-9.077Z" transform="translate(-448.568 -1114.288)" fill="#ecb53d"/>
        <path id="Trazado_206971" data-name="Trazado 206971" d="M809.561,1368.319l4.037-3.675-59.884,9.078-4.037,3.675Z" transform="translate(-452.318 -1117.705)" fill="#805e01"/>
        <path id="Trazado_206972" data-name="Trazado 206972" d="M860.208,1422.826l12.96-11.766-8.171-53.9-12.96,11.767Z" transform="translate(-499.203 -1114.278)" fill="#ad7a09"/>
        <path id="Trazado_206973" data-name="Trazado 206973" d="M860.172,1368.422l2.724,17.965,3.9-3.552-2.724-17.965Z" transform="translate(-502.929 -1117.808)" fill="#805e01"/>
        <text id="SHOP_ONLINE" data-name="SHOP
ONLINE" transform="translate(295.2 276.061) rotate(-8.62)" font-size="19.515" font-family="SegoeUI, Segoe UI" opacity="0.5"><tspan x="5.164" y="21">SHOP</tspan></text>
        <rect id="Rectángulo_49316" data-name="Rectángulo 49316" width="63.833" height="71.225" transform="matrix(0.095, -0.996, 0.996, 0.095, 297.412, 340.03)" fill="#e7a20c"/>
        <path id="Trazado_206974" data-name="Trazado 206974" d="M849.871,1407.89,779,1401.156l-18.089,9.755,70.868,6.734Z" transform="translate(-457.465 -1134.428)" fill="#ecb53d"/>
        <path id="Trazado_206975" data-name="Trazado 206975" d="M843.26,1417.095l5.652-3.039-70.867-6.734-5.652,3.038Z" transform="translate(-462.722 -1137.253)" fill="#805e01"/>
        <path id="Trazado_206976" data-name="Trazado 206976" d="M880.57,1487.094l18.134-9.718,6.061-63.781-18.135,9.718Z" transform="translate(-512.272 -1140.126)" fill="#ad7a09"/>
        <path id="Trazado_206977" data-name="Trazado 206977" d="M901.447,1422.872l-2.02,21.26,5.464-2.937,2.02-21.26Z" transform="translate(-520.909 -1143.03)" fill="#805e01"/>
        <path id="Trazado_206978" data-name="Trazado 206978" d="M211.735,1077.158l8.329-16.669s-8.274-17.576,16.208-34.627,42.3-16.265,42.3-16.265l-9.527,60.13s-9.781,9.936-17.2,7.758l-9.905,16.6Z" transform="translate(-205.917 -955.075)" fill="#ffcab1"/>
        <path id="Trazado_206979" data-name="Trazado 206979" d="M240.472,1147.519l-38.033-18.744-3.468,7.037,38.348,18.1Z" transform="translate(-200.071 -1009.666)" fill="#fff"/>
        <path id="Trazado_206980" data-name="Trazado 206980" d="M258.168,1187.792l6.214-12.608-6.316,12.558Z" transform="translate(-227.138 -1030.923)" fill="#fff"/>
        <path id="Trazado_206981" data-name="Trazado 206981" d="M200.779,1172.347l6.363-12.6.029-.031h0L168.834,1141.6l-.684-.206-34.95,69.649,31.077,36.084Z" transform="translate(-169.945 -1015.447)" fill="#35474d"/>
        <path id="Trazado_206982" data-name="Trazado 206982" d="M211,1178.908l6.363-12.6.029-.031h0l-22.342-10.558-39.536,75.925L174.5,1253.69Z" transform="translate(-180.165 -1022.009)" fill="#19343d"/>
        <path id="Trazado_206983" data-name="Trazado 206983" d="M341.481,1068.431a10.8,10.8,0,0,1-14.51,4.746l-71.2-36.1a10.8,10.8,0,0,1-4.748-14.511l51.646-101.86a10.8,10.8,0,0,1,14.511-4.746l71.2,36.1a10.794,10.794,0,0,1,4.747,14.51Z" transform="translate(-223.379 -911.653)" fill="#aa5c2b"/>
        <path id="Trazado_206984" data-name="Trazado 206984" d="M340,1072.55l-82.277-41.718,54.155-106.807,82.278,41.716-6.667,13.149Z" transform="translate(-226.981 -915.883)" fill="#fff"/>
        <path id="Trazado_206985" data-name="Trazado 206985" d="M443.938,945.734A7.419,7.419,0,0,1,433.964,949l-18.958-9.612a7.421,7.421,0,0,1-3.263-9.975l.025-.049a7.422,7.422,0,0,1,9.976-3.263L440.7,935.71a7.421,7.421,0,0,1,3.263,9.975Z" transform="translate(-297.161 -916.464)" fill="#6b6566"/>
        <path id="Trazado_206986" data-name="Trazado 206986" d="M386.9,941.346h0c1.925-3.8,7.753-3.966,13.386-1.11l28.561,14.482c5.635,2.857,8.791,7.953,6.864,11.751h0" transform="translate(-286.149 -922.408)" fill="#b8b8bd"/>
        <rect id="Rectángulo_49317" data-name="Rectángulo 49317" width="2.031" height="75.331" transform="matrix(0.459, -0.888, 0.888, 0.459, 57.334, 81.046)" fill="#b8b8bd"/>
        <rect id="Rectángulo_49318" data-name="Rectángulo 49318" width="2.031" height="75.331" transform="translate(59.898 76.084) rotate(-62.674)" fill="#b8b8bd"/>
        <rect id="Rectángulo_49319" data-name="Rectángulo 49319" width="2.031" height="75.331" transform="translate(62.462 71.122) rotate(-62.674)" fill="#b8b8bd"/>
        <rect id="Rectángulo_49320" data-name="Rectángulo 49320" width="2.031" height="75.331" transform="matrix(0.459, -0.888, 0.888, 0.459, 65.025, 66.16)" fill="#b8b8bd"/>
        <rect id="Rectángulo_49321" data-name="Rectángulo 49321" width="2.031" height="75.331" transform="translate(67.589 61.199) rotate(-62.674)" fill="#b8b8bd"/>
        <rect id="Rectángulo_49322" data-name="Rectángulo 49322" width="2.031" height="75.331" transform="translate(70.153 56.237) rotate(-62.674)" fill="#b8b8bd"/>
        <rect id="Rectángulo_49323" data-name="Rectángulo 49323" width="2.031" height="75.331" transform="translate(72.717 51.275) rotate(-62.673)" fill="#b8b8bd"/>
        <rect id="Rectángulo_49324" data-name="Rectángulo 49324" width="2.031" height="27.653" transform="matrix(0.459, -0.888, 0.888, 0.459, 106.715, 37.41)" fill="#b8b8bd"/>
        <rect id="Rectángulo_49325" data-name="Rectángulo 49325" width="2.031" height="27.653" transform="translate(64.761 118.602) rotate(-62.674)" fill="#b8b8bd"/>
        <path id="Trazado_206987" data-name="Trazado 206987" d="M253.227,1062.047s25.539-13.417,30.716-4.272-19.392,16.544-19.392,16.544c-3.847,2.557-14.93,14.528-24.874,9.129" transform="translate(-218.716 -975.684)" fill="#ffcab1"/>
      </g>
    </g>
  </g>
</svg>
